%TF.GenerationSoftware,KiCad,Pcbnew,(5.1.8)-1*%
%TF.CreationDate,2021-12-10T09:08:58+01:00*%
%TF.ProjectId,FirePlaceBase,46697265-506c-4616-9365-426173652e6b,rev?*%
%TF.SameCoordinates,Original*%
%TF.FileFunction,Profile,NP*%
%FSLAX46Y46*%
G04 Gerber Fmt 4.6, Leading zero omitted, Abs format (unit mm)*
G04 Created by KiCad (PCBNEW (5.1.8)-1) date 2021-12-10 09:08:58*
%MOMM*%
%LPD*%
G01*
G04 APERTURE LIST*
%TA.AperFunction,Profile*%
%ADD10C,0.200000*%
%TD*%
G04 APERTURE END LIST*
D10*
X143573500Y-29400500D02*
G75*
G02*
X143065500Y-29908500I-508000J0D01*
G01*
X143065500Y-27876500D02*
G75*
G02*
X143573500Y-28384500I0J-508000D01*
G01*
X87947500Y-29908500D02*
G75*
G02*
X87439500Y-29400500I0J508000D01*
G01*
X87439500Y-28384500D02*
G75*
G02*
X87947500Y-27876500I508000J0D01*
G01*
X138176000Y-58674000D02*
G75*
G02*
X138938000Y-57912000I381000J381000D01*
G01*
X140144500Y-60388500D02*
G75*
G02*
X140652500Y-59880500I508000J0D01*
G01*
X140144500Y-73088500D02*
G75*
G02*
X139636500Y-73596500I-508000J0D01*
G01*
X138684000Y-73596500D02*
G75*
G02*
X138176000Y-73088500I0J508000D01*
G01*
X92138500Y-57848500D02*
G75*
G02*
X92773500Y-58483500I254000J-381000D01*
G01*
X92773500Y-73088500D02*
G75*
G02*
X92265500Y-73596500I-508000J0D01*
G01*
X91249500Y-73596500D02*
G75*
G02*
X90741500Y-73088500I0J508000D01*
G01*
X90233500Y-59880500D02*
G75*
G02*
X90741500Y-60388500I0J-508000D01*
G01*
X77971500Y-29702500D02*
X77971500Y-28102500D01*
X139636500Y-73596500D02*
X138684000Y-73596500D01*
X152971500Y-29702500D02*
X152971500Y-28102500D01*
X92773500Y-73088500D02*
X92773500Y-58483500D01*
X143065500Y-29908500D02*
X87947500Y-29908500D01*
X92138500Y-57848500D02*
X77971500Y-57848500D01*
X152971500Y-57912000D02*
X138938000Y-57912000D01*
X77978000Y-81978500D02*
X77971500Y-59880500D01*
X152971500Y-81915000D02*
X152971500Y-59880500D01*
X152971500Y-28102500D02*
X152971500Y-25102500D01*
X87947500Y-27876500D02*
X143065500Y-27876500D01*
X77978000Y-81978500D02*
X152971500Y-81915000D01*
X152971500Y-25102500D02*
X77971500Y-25102500D01*
X140144500Y-73088500D02*
X140144500Y-60388500D01*
X77971500Y-57848500D02*
X77971500Y-29702500D01*
X152971500Y-59880500D02*
X140652500Y-59880500D01*
X91249500Y-73596500D02*
X92265500Y-73596500D01*
X77971500Y-28102500D02*
X77971500Y-25102500D01*
X90233500Y-59880500D02*
X77971500Y-59880500D01*
X138176000Y-73088500D02*
X138176000Y-58674000D01*
X87439500Y-28384500D02*
X87439500Y-29400500D01*
X90741500Y-73088500D02*
X90741500Y-60388500D01*
X143573500Y-28384500D02*
X143573500Y-29400500D01*
X152971500Y-57912000D02*
X152971500Y-29702500D01*
M02*
