%TF.GenerationSoftware,KiCad,Pcbnew,(5.1.8)-1*%
%TF.CreationDate,2021-12-10T09:09:34+01:00*%
%TF.ProjectId,FirePlaceLedmatrix,46697265-506c-4616-9365-4c65646d6174,rev?*%
%TF.SameCoordinates,Original*%
%TF.FileFunction,Copper,L2,Bot*%
%TF.FilePolarity,Positive*%
%FSLAX46Y46*%
G04 Gerber Fmt 4.6, Leading zero omitted, Abs format (unit mm)*
G04 Created by KiCad (PCBNEW (5.1.8)-1) date 2021-12-10 09:09:34*
%MOMM*%
%LPD*%
G01*
G04 APERTURE LIST*
%TA.AperFunction,SMDPad,CuDef*%
%ADD10R,0.800000X0.900000*%
%TD*%
%TA.AperFunction,SMDPad,CuDef*%
%ADD11R,0.900000X0.800000*%
%TD*%
%TA.AperFunction,ComponentPad*%
%ADD12O,1.700000X1.700000*%
%TD*%
%TA.AperFunction,ComponentPad*%
%ADD13R,1.700000X1.700000*%
%TD*%
%TA.AperFunction,ComponentPad*%
%ADD14C,1.800000*%
%TD*%
%TA.AperFunction,ComponentPad*%
%ADD15R,1.800000X1.800000*%
%TD*%
%TA.AperFunction,ViaPad*%
%ADD16C,0.800000*%
%TD*%
%TA.AperFunction,Conductor*%
%ADD17C,0.500000*%
%TD*%
%TA.AperFunction,Conductor*%
%ADD18C,0.250000*%
%TD*%
G04 APERTURE END LIST*
D10*
%TO.P,Q8,1*%
%TO.N,Net-(D57-Pad1)*%
X90017600Y-88569800D03*
%TO.P,Q8,3*%
%TO.N,GND*%
X90967600Y-86569800D03*
%TO.P,Q8,2*%
%TO.N,R7*%
X89067600Y-86569800D03*
%TD*%
%TO.P,Q7,1*%
%TO.N,Net-(D49-Pad1)*%
X89992200Y-85039200D03*
%TO.P,Q7,3*%
%TO.N,GND*%
X90942200Y-83039200D03*
%TO.P,Q7,2*%
%TO.N,R6*%
X89042200Y-83039200D03*
%TD*%
%TO.P,Q6,1*%
%TO.N,Net-(D41-Pad1)*%
X90017600Y-81508600D03*
%TO.P,Q6,3*%
%TO.N,GND*%
X90967600Y-79508600D03*
%TO.P,Q6,2*%
%TO.N,R5*%
X89067600Y-79508600D03*
%TD*%
%TO.P,Q5,1*%
%TO.N,Net-(D33-Pad1)*%
X90017600Y-77952600D03*
%TO.P,Q5,3*%
%TO.N,GND*%
X90967600Y-75952600D03*
%TO.P,Q5,2*%
%TO.N,R4*%
X89067600Y-75952600D03*
%TD*%
%TO.P,Q4,1*%
%TO.N,Net-(D25-Pad1)*%
X90017600Y-74396600D03*
%TO.P,Q4,3*%
%TO.N,GND*%
X90967600Y-72396600D03*
%TO.P,Q4,2*%
%TO.N,R3*%
X89067600Y-72396600D03*
%TD*%
%TO.P,Q3,1*%
%TO.N,Net-(D17-Pad1)*%
X90043000Y-70840600D03*
%TO.P,Q3,3*%
%TO.N,GND*%
X90993000Y-68840600D03*
%TO.P,Q3,2*%
%TO.N,R2*%
X89093000Y-68840600D03*
%TD*%
%TO.P,Q2,1*%
%TO.N,Net-(D10-Pad1)*%
X90043000Y-67183000D03*
%TO.P,Q2,3*%
%TO.N,GND*%
X90993000Y-65183000D03*
%TO.P,Q2,2*%
%TO.N,R1*%
X89093000Y-65183000D03*
%TD*%
%TO.P,Q1,1*%
%TO.N,Net-(D1-Pad1)*%
X90017600Y-62230000D03*
%TO.P,Q1,3*%
%TO.N,GND*%
X90967600Y-60230000D03*
%TO.P,Q1,2*%
%TO.N,R0*%
X89067600Y-60230000D03*
%TD*%
D11*
%TO.P,T8,3*%
%TO.N,Net-(D16-Pad2)*%
X82550000Y-50292000D03*
%TO.P,T8,2*%
%TO.N,Net-(R8-Pad2)*%
X80550000Y-49342000D03*
%TO.P,T8,1*%
%TO.N,C7*%
X80550000Y-51242000D03*
%TD*%
%TO.P,T7,3*%
%TO.N,Net-(D15-Pad2)*%
X76454000Y-50292000D03*
%TO.P,T7,2*%
%TO.N,Net-(R7-Pad2)*%
X74454000Y-49342000D03*
%TO.P,T7,1*%
%TO.N,C6*%
X74454000Y-51242000D03*
%TD*%
%TO.P,T6,3*%
%TO.N,Net-(D14-Pad2)*%
X70358000Y-50292000D03*
%TO.P,T6,2*%
%TO.N,Net-(R6-Pad2)*%
X68358000Y-49342000D03*
%TO.P,T6,1*%
%TO.N,C5*%
X68358000Y-51242000D03*
%TD*%
%TO.P,T5,3*%
%TO.N,Net-(D13-Pad2)*%
X64262000Y-50292000D03*
%TO.P,T5,2*%
%TO.N,Net-(R5-Pad2)*%
X62262000Y-49342000D03*
%TO.P,T5,1*%
%TO.N,C4*%
X62262000Y-51242000D03*
%TD*%
%TO.P,T4,3*%
%TO.N,Net-(D12-Pad2)*%
X58166000Y-50292000D03*
%TO.P,T4,2*%
%TO.N,Net-(R4-Pad2)*%
X56166000Y-49342000D03*
%TO.P,T4,1*%
%TO.N,C3*%
X56166000Y-51242000D03*
%TD*%
%TO.P,T3,3*%
%TO.N,Net-(D11-Pad2)*%
X52070000Y-50292000D03*
%TO.P,T3,2*%
%TO.N,Net-(R3-Pad2)*%
X50070000Y-49342000D03*
%TO.P,T3,1*%
%TO.N,C2*%
X50070000Y-51242000D03*
%TD*%
%TO.P,T2,3*%
%TO.N,Net-(D10-Pad2)*%
X45974000Y-50292000D03*
%TO.P,T2,2*%
%TO.N,Net-(R2-Pad2)*%
X43974000Y-49342000D03*
%TO.P,T2,1*%
%TO.N,C1*%
X43974000Y-51242000D03*
%TD*%
%TO.P,T1,3*%
%TO.N,Net-(D1-Pad2)*%
X39878000Y-50292000D03*
%TO.P,T1,2*%
%TO.N,Net-(R1-Pad2)*%
X37878000Y-49342000D03*
%TO.P,T1,1*%
%TO.N,C0*%
X37878000Y-51242000D03*
%TD*%
%TO.P,R8,2*%
%TO.N,Net-(R8-Pad2)*%
%TA.AperFunction,SMDPad,CuDef*%
G36*
G01*
X79918000Y-47694001D02*
X79918000Y-46793999D01*
G75*
G02*
X80167999Y-46544000I249999J0D01*
G01*
X80868001Y-46544000D01*
G75*
G02*
X81118000Y-46793999I0J-249999D01*
G01*
X81118000Y-47694001D01*
G75*
G02*
X80868001Y-47944000I-249999J0D01*
G01*
X80167999Y-47944000D01*
G75*
G02*
X79918000Y-47694001I0J249999D01*
G01*
G37*
%TD.AperFunction*%
%TO.P,R8,1*%
%TO.N,5V_In*%
%TA.AperFunction,SMDPad,CuDef*%
G36*
G01*
X77918000Y-47694001D02*
X77918000Y-46793999D01*
G75*
G02*
X78167999Y-46544000I249999J0D01*
G01*
X78868001Y-46544000D01*
G75*
G02*
X79118000Y-46793999I0J-249999D01*
G01*
X79118000Y-47694001D01*
G75*
G02*
X78868001Y-47944000I-249999J0D01*
G01*
X78167999Y-47944000D01*
G75*
G02*
X77918000Y-47694001I0J249999D01*
G01*
G37*
%TD.AperFunction*%
%TD*%
%TO.P,R7,2*%
%TO.N,Net-(R7-Pad2)*%
%TA.AperFunction,SMDPad,CuDef*%
G36*
G01*
X73790000Y-47694001D02*
X73790000Y-46793999D01*
G75*
G02*
X74039999Y-46544000I249999J0D01*
G01*
X74740001Y-46544000D01*
G75*
G02*
X74990000Y-46793999I0J-249999D01*
G01*
X74990000Y-47694001D01*
G75*
G02*
X74740001Y-47944000I-249999J0D01*
G01*
X74039999Y-47944000D01*
G75*
G02*
X73790000Y-47694001I0J249999D01*
G01*
G37*
%TD.AperFunction*%
%TO.P,R7,1*%
%TO.N,5V_In*%
%TA.AperFunction,SMDPad,CuDef*%
G36*
G01*
X71790000Y-47694001D02*
X71790000Y-46793999D01*
G75*
G02*
X72039999Y-46544000I249999J0D01*
G01*
X72740001Y-46544000D01*
G75*
G02*
X72990000Y-46793999I0J-249999D01*
G01*
X72990000Y-47694001D01*
G75*
G02*
X72740001Y-47944000I-249999J0D01*
G01*
X72039999Y-47944000D01*
G75*
G02*
X71790000Y-47694001I0J249999D01*
G01*
G37*
%TD.AperFunction*%
%TD*%
%TO.P,R6,2*%
%TO.N,Net-(R6-Pad2)*%
%TA.AperFunction,SMDPad,CuDef*%
G36*
G01*
X67726000Y-47694001D02*
X67726000Y-46793999D01*
G75*
G02*
X67975999Y-46544000I249999J0D01*
G01*
X68676001Y-46544000D01*
G75*
G02*
X68926000Y-46793999I0J-249999D01*
G01*
X68926000Y-47694001D01*
G75*
G02*
X68676001Y-47944000I-249999J0D01*
G01*
X67975999Y-47944000D01*
G75*
G02*
X67726000Y-47694001I0J249999D01*
G01*
G37*
%TD.AperFunction*%
%TO.P,R6,1*%
%TO.N,5V_In*%
%TA.AperFunction,SMDPad,CuDef*%
G36*
G01*
X65726000Y-47694001D02*
X65726000Y-46793999D01*
G75*
G02*
X65975999Y-46544000I249999J0D01*
G01*
X66676001Y-46544000D01*
G75*
G02*
X66926000Y-46793999I0J-249999D01*
G01*
X66926000Y-47694001D01*
G75*
G02*
X66676001Y-47944000I-249999J0D01*
G01*
X65975999Y-47944000D01*
G75*
G02*
X65726000Y-47694001I0J249999D01*
G01*
G37*
%TD.AperFunction*%
%TD*%
%TO.P,R5,2*%
%TO.N,Net-(R5-Pad2)*%
%TA.AperFunction,SMDPad,CuDef*%
G36*
G01*
X61630000Y-47694001D02*
X61630000Y-46793999D01*
G75*
G02*
X61879999Y-46544000I249999J0D01*
G01*
X62580001Y-46544000D01*
G75*
G02*
X62830000Y-46793999I0J-249999D01*
G01*
X62830000Y-47694001D01*
G75*
G02*
X62580001Y-47944000I-249999J0D01*
G01*
X61879999Y-47944000D01*
G75*
G02*
X61630000Y-47694001I0J249999D01*
G01*
G37*
%TD.AperFunction*%
%TO.P,R5,1*%
%TO.N,5V_In*%
%TA.AperFunction,SMDPad,CuDef*%
G36*
G01*
X59630000Y-47694001D02*
X59630000Y-46793999D01*
G75*
G02*
X59879999Y-46544000I249999J0D01*
G01*
X60580001Y-46544000D01*
G75*
G02*
X60830000Y-46793999I0J-249999D01*
G01*
X60830000Y-47694001D01*
G75*
G02*
X60580001Y-47944000I-249999J0D01*
G01*
X59879999Y-47944000D01*
G75*
G02*
X59630000Y-47694001I0J249999D01*
G01*
G37*
%TD.AperFunction*%
%TD*%
%TO.P,R4,2*%
%TO.N,Net-(R4-Pad2)*%
%TA.AperFunction,SMDPad,CuDef*%
G36*
G01*
X55534000Y-47694001D02*
X55534000Y-46793999D01*
G75*
G02*
X55783999Y-46544000I249999J0D01*
G01*
X56484001Y-46544000D01*
G75*
G02*
X56734000Y-46793999I0J-249999D01*
G01*
X56734000Y-47694001D01*
G75*
G02*
X56484001Y-47944000I-249999J0D01*
G01*
X55783999Y-47944000D01*
G75*
G02*
X55534000Y-47694001I0J249999D01*
G01*
G37*
%TD.AperFunction*%
%TO.P,R4,1*%
%TO.N,5V_In*%
%TA.AperFunction,SMDPad,CuDef*%
G36*
G01*
X53534000Y-47694001D02*
X53534000Y-46793999D01*
G75*
G02*
X53783999Y-46544000I249999J0D01*
G01*
X54484001Y-46544000D01*
G75*
G02*
X54734000Y-46793999I0J-249999D01*
G01*
X54734000Y-47694001D01*
G75*
G02*
X54484001Y-47944000I-249999J0D01*
G01*
X53783999Y-47944000D01*
G75*
G02*
X53534000Y-47694001I0J249999D01*
G01*
G37*
%TD.AperFunction*%
%TD*%
%TO.P,R3,2*%
%TO.N,Net-(R3-Pad2)*%
%TA.AperFunction,SMDPad,CuDef*%
G36*
G01*
X49438000Y-47694001D02*
X49438000Y-46793999D01*
G75*
G02*
X49687999Y-46544000I249999J0D01*
G01*
X50388001Y-46544000D01*
G75*
G02*
X50638000Y-46793999I0J-249999D01*
G01*
X50638000Y-47694001D01*
G75*
G02*
X50388001Y-47944000I-249999J0D01*
G01*
X49687999Y-47944000D01*
G75*
G02*
X49438000Y-47694001I0J249999D01*
G01*
G37*
%TD.AperFunction*%
%TO.P,R3,1*%
%TO.N,5V_In*%
%TA.AperFunction,SMDPad,CuDef*%
G36*
G01*
X47438000Y-47694001D02*
X47438000Y-46793999D01*
G75*
G02*
X47687999Y-46544000I249999J0D01*
G01*
X48388001Y-46544000D01*
G75*
G02*
X48638000Y-46793999I0J-249999D01*
G01*
X48638000Y-47694001D01*
G75*
G02*
X48388001Y-47944000I-249999J0D01*
G01*
X47687999Y-47944000D01*
G75*
G02*
X47438000Y-47694001I0J249999D01*
G01*
G37*
%TD.AperFunction*%
%TD*%
%TO.P,R2,2*%
%TO.N,Net-(R2-Pad2)*%
%TA.AperFunction,SMDPad,CuDef*%
G36*
G01*
X43310000Y-47694001D02*
X43310000Y-46793999D01*
G75*
G02*
X43559999Y-46544000I249999J0D01*
G01*
X44260001Y-46544000D01*
G75*
G02*
X44510000Y-46793999I0J-249999D01*
G01*
X44510000Y-47694001D01*
G75*
G02*
X44260001Y-47944000I-249999J0D01*
G01*
X43559999Y-47944000D01*
G75*
G02*
X43310000Y-47694001I0J249999D01*
G01*
G37*
%TD.AperFunction*%
%TO.P,R2,1*%
%TO.N,5V_In*%
%TA.AperFunction,SMDPad,CuDef*%
G36*
G01*
X41310000Y-47694001D02*
X41310000Y-46793999D01*
G75*
G02*
X41559999Y-46544000I249999J0D01*
G01*
X42260001Y-46544000D01*
G75*
G02*
X42510000Y-46793999I0J-249999D01*
G01*
X42510000Y-47694001D01*
G75*
G02*
X42260001Y-47944000I-249999J0D01*
G01*
X41559999Y-47944000D01*
G75*
G02*
X41310000Y-47694001I0J249999D01*
G01*
G37*
%TD.AperFunction*%
%TD*%
%TO.P,R1,2*%
%TO.N,Net-(R1-Pad2)*%
%TA.AperFunction,SMDPad,CuDef*%
G36*
G01*
X37214000Y-47694001D02*
X37214000Y-46793999D01*
G75*
G02*
X37463999Y-46544000I249999J0D01*
G01*
X38164001Y-46544000D01*
G75*
G02*
X38414000Y-46793999I0J-249999D01*
G01*
X38414000Y-47694001D01*
G75*
G02*
X38164001Y-47944000I-249999J0D01*
G01*
X37463999Y-47944000D01*
G75*
G02*
X37214000Y-47694001I0J249999D01*
G01*
G37*
%TD.AperFunction*%
%TO.P,R1,1*%
%TO.N,5V_In*%
%TA.AperFunction,SMDPad,CuDef*%
G36*
G01*
X35214000Y-47694001D02*
X35214000Y-46793999D01*
G75*
G02*
X35463999Y-46544000I249999J0D01*
G01*
X36164001Y-46544000D01*
G75*
G02*
X36414000Y-46793999I0J-249999D01*
G01*
X36414000Y-47694001D01*
G75*
G02*
X36164001Y-47944000I-249999J0D01*
G01*
X35463999Y-47944000D01*
G75*
G02*
X35214000Y-47694001I0J249999D01*
G01*
G37*
%TD.AperFunction*%
%TD*%
D12*
%TO.P,J3,10*%
%TO.N,GND*%
X86360000Y-89916000D03*
%TO.P,J3,9*%
%TO.N,5V_In*%
X86360000Y-87376000D03*
%TO.P,J3,8*%
%TO.N,R7*%
X86360000Y-84836000D03*
%TO.P,J3,7*%
%TO.N,R6*%
X86360000Y-82296000D03*
%TO.P,J3,6*%
%TO.N,R5*%
X86360000Y-79756000D03*
%TO.P,J3,5*%
%TO.N,R4*%
X86360000Y-77216000D03*
%TO.P,J3,4*%
%TO.N,R3*%
X86360000Y-74676000D03*
%TO.P,J3,3*%
%TO.N,R2*%
X86360000Y-72136000D03*
%TO.P,J3,2*%
%TO.N,R1*%
X86360000Y-69596000D03*
D13*
%TO.P,J3,1*%
%TO.N,R0*%
X86360000Y-67056000D03*
%TD*%
D12*
%TO.P,J2,10*%
%TO.N,GND*%
X33782000Y-89916000D03*
%TO.P,J2,9*%
%TO.N,5V_In*%
X33782000Y-87376000D03*
%TO.P,J2,8*%
%TO.N,C7*%
X33782000Y-84836000D03*
%TO.P,J2,7*%
%TO.N,C6*%
X33782000Y-82296000D03*
%TO.P,J2,6*%
%TO.N,C5*%
X33782000Y-79756000D03*
%TO.P,J2,5*%
%TO.N,C4*%
X33782000Y-77216000D03*
%TO.P,J2,4*%
%TO.N,C3*%
X33782000Y-74676000D03*
%TO.P,J2,3*%
%TO.N,C2*%
X33782000Y-72136000D03*
%TO.P,J2,2*%
%TO.N,C1*%
X33782000Y-69596000D03*
D13*
%TO.P,J2,1*%
%TO.N,C0*%
X33782000Y-67056000D03*
%TD*%
D14*
%TO.P,D64,2*%
%TO.N,Net-(D16-Pad2)*%
X82550000Y-89154000D03*
D15*
%TO.P,D64,1*%
%TO.N,Net-(D57-Pad1)*%
X80010000Y-89154000D03*
%TD*%
D14*
%TO.P,D63,2*%
%TO.N,Net-(D15-Pad2)*%
X76454000Y-89154000D03*
D15*
%TO.P,D63,1*%
%TO.N,Net-(D57-Pad1)*%
X73914000Y-89154000D03*
%TD*%
D14*
%TO.P,D62,2*%
%TO.N,Net-(D14-Pad2)*%
X70358000Y-89154000D03*
D15*
%TO.P,D62,1*%
%TO.N,Net-(D57-Pad1)*%
X67818000Y-89154000D03*
%TD*%
D14*
%TO.P,D61,2*%
%TO.N,Net-(D13-Pad2)*%
X64262000Y-89154000D03*
D15*
%TO.P,D61,1*%
%TO.N,Net-(D57-Pad1)*%
X61722000Y-89154000D03*
%TD*%
D14*
%TO.P,D60,2*%
%TO.N,Net-(D12-Pad2)*%
X58166000Y-89154000D03*
D15*
%TO.P,D60,1*%
%TO.N,Net-(D57-Pad1)*%
X55626000Y-89154000D03*
%TD*%
D14*
%TO.P,D59,2*%
%TO.N,Net-(D11-Pad2)*%
X52070000Y-89154000D03*
D15*
%TO.P,D59,1*%
%TO.N,Net-(D57-Pad1)*%
X49530000Y-89154000D03*
%TD*%
D14*
%TO.P,D58,2*%
%TO.N,Net-(D10-Pad2)*%
X45974000Y-89154000D03*
D15*
%TO.P,D58,1*%
%TO.N,Net-(D57-Pad1)*%
X43434000Y-89154000D03*
%TD*%
D14*
%TO.P,D57,2*%
%TO.N,Net-(D1-Pad2)*%
X39878000Y-89154000D03*
D15*
%TO.P,D57,1*%
%TO.N,Net-(D57-Pad1)*%
X37338000Y-89154000D03*
%TD*%
D14*
%TO.P,D56,2*%
%TO.N,Net-(D16-Pad2)*%
X82550000Y-84074000D03*
D15*
%TO.P,D56,1*%
%TO.N,Net-(D49-Pad1)*%
X80010000Y-84074000D03*
%TD*%
D14*
%TO.P,D55,2*%
%TO.N,Net-(D15-Pad2)*%
X76454000Y-84074000D03*
D15*
%TO.P,D55,1*%
%TO.N,Net-(D49-Pad1)*%
X73914000Y-84074000D03*
%TD*%
D14*
%TO.P,D54,2*%
%TO.N,Net-(D14-Pad2)*%
X70358000Y-84074000D03*
D15*
%TO.P,D54,1*%
%TO.N,Net-(D49-Pad1)*%
X67818000Y-84074000D03*
%TD*%
D14*
%TO.P,D53,2*%
%TO.N,Net-(D13-Pad2)*%
X64262000Y-84074000D03*
D15*
%TO.P,D53,1*%
%TO.N,Net-(D49-Pad1)*%
X61722000Y-84074000D03*
%TD*%
D14*
%TO.P,D52,2*%
%TO.N,Net-(D12-Pad2)*%
X58166000Y-84074000D03*
D15*
%TO.P,D52,1*%
%TO.N,Net-(D49-Pad1)*%
X55626000Y-84074000D03*
%TD*%
D14*
%TO.P,D51,2*%
%TO.N,Net-(D11-Pad2)*%
X52070000Y-84074000D03*
D15*
%TO.P,D51,1*%
%TO.N,Net-(D49-Pad1)*%
X49530000Y-84074000D03*
%TD*%
D14*
%TO.P,D50,2*%
%TO.N,Net-(D10-Pad2)*%
X45974000Y-84074000D03*
D15*
%TO.P,D50,1*%
%TO.N,Net-(D49-Pad1)*%
X43434000Y-84074000D03*
%TD*%
D14*
%TO.P,D49,2*%
%TO.N,Net-(D1-Pad2)*%
X39878000Y-84074000D03*
D15*
%TO.P,D49,1*%
%TO.N,Net-(D49-Pad1)*%
X37338000Y-84074000D03*
%TD*%
D14*
%TO.P,D48,2*%
%TO.N,Net-(D16-Pad2)*%
X82550000Y-79248000D03*
D15*
%TO.P,D48,1*%
%TO.N,Net-(D41-Pad1)*%
X80010000Y-79248000D03*
%TD*%
D14*
%TO.P,D47,2*%
%TO.N,Net-(D15-Pad2)*%
X76454000Y-79248000D03*
D15*
%TO.P,D47,1*%
%TO.N,Net-(D41-Pad1)*%
X73914000Y-79248000D03*
%TD*%
D14*
%TO.P,D46,2*%
%TO.N,Net-(D14-Pad2)*%
X70358000Y-79248000D03*
D15*
%TO.P,D46,1*%
%TO.N,Net-(D41-Pad1)*%
X67818000Y-79248000D03*
%TD*%
D14*
%TO.P,D45,2*%
%TO.N,Net-(D13-Pad2)*%
X64262000Y-79248000D03*
D15*
%TO.P,D45,1*%
%TO.N,Net-(D41-Pad1)*%
X61722000Y-79248000D03*
%TD*%
D14*
%TO.P,D44,2*%
%TO.N,Net-(D12-Pad2)*%
X58166000Y-79248000D03*
D15*
%TO.P,D44,1*%
%TO.N,Net-(D41-Pad1)*%
X55626000Y-79248000D03*
%TD*%
D14*
%TO.P,D43,2*%
%TO.N,Net-(D11-Pad2)*%
X52070000Y-79248000D03*
D15*
%TO.P,D43,1*%
%TO.N,Net-(D41-Pad1)*%
X49530000Y-79248000D03*
%TD*%
D14*
%TO.P,D42,2*%
%TO.N,Net-(D10-Pad2)*%
X45974000Y-79248000D03*
D15*
%TO.P,D42,1*%
%TO.N,Net-(D41-Pad1)*%
X43434000Y-79248000D03*
%TD*%
D14*
%TO.P,D41,2*%
%TO.N,Net-(D1-Pad2)*%
X39878000Y-79248000D03*
D15*
%TO.P,D41,1*%
%TO.N,Net-(D41-Pad1)*%
X37338000Y-79248000D03*
%TD*%
D14*
%TO.P,D40,2*%
%TO.N,Net-(D16-Pad2)*%
X82550000Y-74168000D03*
D15*
%TO.P,D40,1*%
%TO.N,Net-(D33-Pad1)*%
X80010000Y-74168000D03*
%TD*%
D14*
%TO.P,D39,2*%
%TO.N,Net-(D15-Pad2)*%
X76454000Y-74168000D03*
D15*
%TO.P,D39,1*%
%TO.N,Net-(D33-Pad1)*%
X73914000Y-74168000D03*
%TD*%
D14*
%TO.P,D38,2*%
%TO.N,Net-(D14-Pad2)*%
X70358000Y-74168000D03*
D15*
%TO.P,D38,1*%
%TO.N,Net-(D33-Pad1)*%
X67818000Y-74168000D03*
%TD*%
D14*
%TO.P,D37,2*%
%TO.N,Net-(D13-Pad2)*%
X64262000Y-74168000D03*
D15*
%TO.P,D37,1*%
%TO.N,Net-(D33-Pad1)*%
X61722000Y-74168000D03*
%TD*%
D14*
%TO.P,D36,2*%
%TO.N,Net-(D12-Pad2)*%
X58166000Y-74168000D03*
D15*
%TO.P,D36,1*%
%TO.N,Net-(D33-Pad1)*%
X55626000Y-74168000D03*
%TD*%
D14*
%TO.P,D35,2*%
%TO.N,Net-(D11-Pad2)*%
X52070000Y-74168000D03*
D15*
%TO.P,D35,1*%
%TO.N,Net-(D33-Pad1)*%
X49530000Y-74168000D03*
%TD*%
D14*
%TO.P,D34,2*%
%TO.N,Net-(D10-Pad2)*%
X45974000Y-74168000D03*
D15*
%TO.P,D34,1*%
%TO.N,Net-(D33-Pad1)*%
X43434000Y-74168000D03*
%TD*%
D14*
%TO.P,D33,2*%
%TO.N,Net-(D1-Pad2)*%
X39878000Y-74168000D03*
D15*
%TO.P,D33,1*%
%TO.N,Net-(D33-Pad1)*%
X37338000Y-74168000D03*
%TD*%
D14*
%TO.P,D32,2*%
%TO.N,Net-(D16-Pad2)*%
X82550000Y-69088000D03*
D15*
%TO.P,D32,1*%
%TO.N,Net-(D25-Pad1)*%
X80010000Y-69088000D03*
%TD*%
D14*
%TO.P,D31,2*%
%TO.N,Net-(D15-Pad2)*%
X76454000Y-69088000D03*
D15*
%TO.P,D31,1*%
%TO.N,Net-(D25-Pad1)*%
X73914000Y-69088000D03*
%TD*%
D14*
%TO.P,D30,2*%
%TO.N,Net-(D14-Pad2)*%
X70358000Y-69088000D03*
D15*
%TO.P,D30,1*%
%TO.N,Net-(D25-Pad1)*%
X67818000Y-69088000D03*
%TD*%
D14*
%TO.P,D29,2*%
%TO.N,Net-(D13-Pad2)*%
X64262000Y-69088000D03*
D15*
%TO.P,D29,1*%
%TO.N,Net-(D25-Pad1)*%
X61722000Y-69088000D03*
%TD*%
D14*
%TO.P,D28,2*%
%TO.N,Net-(D12-Pad2)*%
X58166000Y-69088000D03*
D15*
%TO.P,D28,1*%
%TO.N,Net-(D25-Pad1)*%
X55626000Y-69088000D03*
%TD*%
D14*
%TO.P,D27,2*%
%TO.N,Net-(D11-Pad2)*%
X52070000Y-69088000D03*
D15*
%TO.P,D27,1*%
%TO.N,Net-(D25-Pad1)*%
X49530000Y-69088000D03*
%TD*%
D14*
%TO.P,D26,2*%
%TO.N,Net-(D10-Pad2)*%
X45974000Y-69088000D03*
D15*
%TO.P,D26,1*%
%TO.N,Net-(D25-Pad1)*%
X43434000Y-69088000D03*
%TD*%
D14*
%TO.P,D25,2*%
%TO.N,Net-(D1-Pad2)*%
X39878000Y-69088000D03*
D15*
%TO.P,D25,1*%
%TO.N,Net-(D25-Pad1)*%
X37338000Y-69088000D03*
%TD*%
D14*
%TO.P,D24,2*%
%TO.N,Net-(D16-Pad2)*%
X82550000Y-64262000D03*
D15*
%TO.P,D24,1*%
%TO.N,Net-(D17-Pad1)*%
X80010000Y-64262000D03*
%TD*%
D14*
%TO.P,D23,2*%
%TO.N,Net-(D15-Pad2)*%
X76454000Y-64262000D03*
D15*
%TO.P,D23,1*%
%TO.N,Net-(D17-Pad1)*%
X73914000Y-64262000D03*
%TD*%
D14*
%TO.P,D22,2*%
%TO.N,Net-(D14-Pad2)*%
X70358000Y-64262000D03*
D15*
%TO.P,D22,1*%
%TO.N,Net-(D17-Pad1)*%
X67818000Y-64262000D03*
%TD*%
D14*
%TO.P,D21,2*%
%TO.N,Net-(D13-Pad2)*%
X64262000Y-64262000D03*
D15*
%TO.P,D21,1*%
%TO.N,Net-(D17-Pad1)*%
X61722000Y-64262000D03*
%TD*%
D14*
%TO.P,D20,2*%
%TO.N,Net-(D12-Pad2)*%
X58166000Y-64262000D03*
D15*
%TO.P,D20,1*%
%TO.N,Net-(D17-Pad1)*%
X55626000Y-64262000D03*
%TD*%
D14*
%TO.P,D19,2*%
%TO.N,Net-(D11-Pad2)*%
X52070000Y-64262000D03*
D15*
%TO.P,D19,1*%
%TO.N,Net-(D17-Pad1)*%
X49530000Y-64262000D03*
%TD*%
D14*
%TO.P,D18,2*%
%TO.N,Net-(D10-Pad2)*%
X45974000Y-64262000D03*
D15*
%TO.P,D18,1*%
%TO.N,Net-(D17-Pad1)*%
X43434000Y-64262000D03*
%TD*%
D14*
%TO.P,D17,2*%
%TO.N,Net-(D1-Pad2)*%
X39878000Y-64008000D03*
D15*
%TO.P,D17,1*%
%TO.N,Net-(D17-Pad1)*%
X37338000Y-64008000D03*
%TD*%
D14*
%TO.P,D16,2*%
%TO.N,Net-(D16-Pad2)*%
X82550000Y-58928000D03*
D15*
%TO.P,D16,1*%
%TO.N,Net-(D10-Pad1)*%
X80010000Y-58928000D03*
%TD*%
D14*
%TO.P,D15,2*%
%TO.N,Net-(D15-Pad2)*%
X76454000Y-58928000D03*
D15*
%TO.P,D15,1*%
%TO.N,Net-(D10-Pad1)*%
X73914000Y-58928000D03*
%TD*%
D14*
%TO.P,D14,2*%
%TO.N,Net-(D14-Pad2)*%
X70358000Y-58928000D03*
D15*
%TO.P,D14,1*%
%TO.N,Net-(D10-Pad1)*%
X67818000Y-58928000D03*
%TD*%
D14*
%TO.P,D13,2*%
%TO.N,Net-(D13-Pad2)*%
X64262000Y-58928000D03*
D15*
%TO.P,D13,1*%
%TO.N,Net-(D10-Pad1)*%
X61722000Y-58928000D03*
%TD*%
D14*
%TO.P,D12,2*%
%TO.N,Net-(D12-Pad2)*%
X58166000Y-58928000D03*
D15*
%TO.P,D12,1*%
%TO.N,Net-(D10-Pad1)*%
X55626000Y-58928000D03*
%TD*%
D14*
%TO.P,D11,2*%
%TO.N,Net-(D11-Pad2)*%
X52070000Y-58928000D03*
D15*
%TO.P,D11,1*%
%TO.N,Net-(D10-Pad1)*%
X49530000Y-58928000D03*
%TD*%
D14*
%TO.P,D10,2*%
%TO.N,Net-(D10-Pad2)*%
X45974000Y-58928000D03*
D15*
%TO.P,D10,1*%
%TO.N,Net-(D10-Pad1)*%
X43434000Y-58928000D03*
%TD*%
D14*
%TO.P,D9,2*%
%TO.N,Net-(D1-Pad2)*%
X39878000Y-58928000D03*
D15*
%TO.P,D9,1*%
%TO.N,Net-(D10-Pad1)*%
X37338000Y-58928000D03*
%TD*%
D14*
%TO.P,D8,2*%
%TO.N,Net-(D16-Pad2)*%
X82550000Y-54102000D03*
D15*
%TO.P,D8,1*%
%TO.N,Net-(D1-Pad1)*%
X80010000Y-54102000D03*
%TD*%
D14*
%TO.P,D7,2*%
%TO.N,Net-(D15-Pad2)*%
X76454000Y-54102000D03*
D15*
%TO.P,D7,1*%
%TO.N,Net-(D1-Pad1)*%
X73914000Y-54102000D03*
%TD*%
D14*
%TO.P,D6,2*%
%TO.N,Net-(D14-Pad2)*%
X70358000Y-54102000D03*
D15*
%TO.P,D6,1*%
%TO.N,Net-(D1-Pad1)*%
X67818000Y-54102000D03*
%TD*%
D14*
%TO.P,D5,2*%
%TO.N,Net-(D13-Pad2)*%
X64262000Y-54102000D03*
D15*
%TO.P,D5,1*%
%TO.N,Net-(D1-Pad1)*%
X61722000Y-54102000D03*
%TD*%
D14*
%TO.P,D4,2*%
%TO.N,Net-(D12-Pad2)*%
X58166000Y-54102000D03*
D15*
%TO.P,D4,1*%
%TO.N,Net-(D1-Pad1)*%
X55626000Y-54102000D03*
%TD*%
D14*
%TO.P,D3,2*%
%TO.N,Net-(D11-Pad2)*%
X52070000Y-54102000D03*
D15*
%TO.P,D3,1*%
%TO.N,Net-(D1-Pad1)*%
X49530000Y-54102000D03*
%TD*%
D14*
%TO.P,D2,2*%
%TO.N,Net-(D10-Pad2)*%
X45974000Y-54102000D03*
D15*
%TO.P,D2,1*%
%TO.N,Net-(D1-Pad1)*%
X43434000Y-54102000D03*
%TD*%
D14*
%TO.P,D1,2*%
%TO.N,Net-(D1-Pad2)*%
X39878000Y-54102000D03*
D15*
%TO.P,D1,1*%
%TO.N,Net-(D1-Pad1)*%
X37338000Y-54102000D03*
%TD*%
D16*
%TO.N,GND*%
X83058000Y-90932000D03*
%TO.N,5V_In*%
X82796010Y-46116000D03*
%TO.N,C7*%
X79248000Y-51054000D03*
%TO.N,C6*%
X73152000Y-51054000D03*
%TO.N,C5*%
X67056000Y-51054000D03*
%TO.N,C4*%
X60960000Y-51054000D03*
%TO.N,C3*%
X55118000Y-51054000D03*
%TO.N,C2*%
X48768000Y-51054000D03*
%TO.N,C1*%
X42926000Y-51054000D03*
%TO.N,C0*%
X36576000Y-51308000D03*
%TD*%
D17*
%TO.N,Net-(D1-Pad2)*%
X39878000Y-50292000D02*
X39878000Y-54102000D01*
%TO.N,Net-(D1-Pad1)*%
X42083999Y-55452001D02*
X43434000Y-54102000D01*
X38688001Y-55452001D02*
X42083999Y-55452001D01*
X37338000Y-54102000D02*
X38688001Y-55452001D01*
X48179999Y-55452001D02*
X49530000Y-54102000D01*
X44784001Y-55452001D02*
X48179999Y-55452001D01*
X43434000Y-54102000D02*
X44784001Y-55452001D01*
X54275999Y-55452001D02*
X55626000Y-54102000D01*
X50880001Y-55452001D02*
X54275999Y-55452001D01*
X49530000Y-54102000D02*
X50880001Y-55452001D01*
X57517999Y-55452001D02*
X60371999Y-55452001D01*
X56167998Y-54102000D02*
X57517999Y-55452001D01*
X60371999Y-55452001D02*
X61722000Y-54102000D01*
X55626000Y-54102000D02*
X56167998Y-54102000D01*
X66467999Y-55452001D02*
X67818000Y-54102000D01*
X63072001Y-55452001D02*
X66467999Y-55452001D01*
X61722000Y-54102000D02*
X63072001Y-55452001D01*
X72563999Y-55452001D02*
X73914000Y-54102000D01*
X69168001Y-55452001D02*
X72563999Y-55452001D01*
X67818000Y-54102000D02*
X69168001Y-55452001D01*
X78659999Y-55452001D02*
X80010000Y-54102000D01*
X75264001Y-55452001D02*
X78659999Y-55452001D01*
X73914000Y-54102000D02*
X75264001Y-55452001D01*
D18*
X80010000Y-54102000D02*
X81235001Y-55327001D01*
X82276401Y-55327001D02*
X83192997Y-55327001D01*
X81235001Y-55327001D02*
X82276401Y-55327001D01*
X87788201Y-55327001D02*
X82276401Y-55327001D01*
X90017600Y-57556400D02*
X87788201Y-55327001D01*
X90017600Y-62230000D02*
X90017600Y-57556400D01*
D17*
%TO.N,Net-(D10-Pad2)*%
X45974000Y-50292000D02*
X45974000Y-54102000D01*
%TO.N,Net-(D11-Pad2)*%
X52070000Y-50292000D02*
X52070000Y-54102000D01*
%TO.N,Net-(D12-Pad2)*%
X58166000Y-50292000D02*
X58166000Y-54102000D01*
%TO.N,Net-(D13-Pad2)*%
X64262000Y-50292000D02*
X64262000Y-54102000D01*
%TO.N,Net-(D14-Pad2)*%
X70358000Y-50292000D02*
X70358000Y-54102000D01*
%TO.N,Net-(D15-Pad2)*%
X76454000Y-50292000D02*
X76454000Y-54102000D01*
%TO.N,Net-(D16-Pad2)*%
X82550000Y-50292000D02*
X82550000Y-54102000D01*
%TO.N,Net-(D10-Pad1)*%
X75264001Y-60278001D02*
X73914000Y-58928000D01*
X78659999Y-60278001D02*
X75264001Y-60278001D01*
X80010000Y-58928000D02*
X78659999Y-60278001D01*
X69168001Y-60278001D02*
X67818000Y-58928000D01*
X72563999Y-60278001D02*
X69168001Y-60278001D01*
X73914000Y-58928000D02*
X72563999Y-60278001D01*
X63072001Y-60278001D02*
X61722000Y-58928000D01*
X66467999Y-60278001D02*
X63072001Y-60278001D01*
X67818000Y-58928000D02*
X66467999Y-60278001D01*
X56976001Y-60278001D02*
X55626000Y-58928000D01*
X60371999Y-60278001D02*
X56976001Y-60278001D01*
X61722000Y-58928000D02*
X60371999Y-60278001D01*
X50880001Y-60278001D02*
X49530000Y-58928000D01*
X54275999Y-60278001D02*
X50880001Y-60278001D01*
X55626000Y-58928000D02*
X54275999Y-60278001D01*
X44784001Y-60278001D02*
X43434000Y-58928000D01*
X48179999Y-60278001D02*
X44784001Y-60278001D01*
X49530000Y-58928000D02*
X48179999Y-60278001D01*
X38688001Y-60278001D02*
X37338000Y-58928000D01*
X42083999Y-60278001D02*
X38688001Y-60278001D01*
X43434000Y-58928000D02*
X42083999Y-60278001D01*
D18*
X89357200Y-67183000D02*
X90043000Y-67183000D01*
X88112600Y-68427600D02*
X89357200Y-67183000D01*
X88112600Y-69582402D02*
X88112600Y-68427600D01*
X86924001Y-70771001D02*
X88112600Y-69582402D01*
X85795999Y-70771001D02*
X86924001Y-70771001D01*
X84429011Y-69404013D02*
X85795999Y-70771001D01*
X84429011Y-63347011D02*
X84429011Y-69404013D01*
X80010000Y-58928000D02*
X84429011Y-63347011D01*
D17*
%TO.N,Net-(D17-Pad1)*%
X42337999Y-65358001D02*
X43434000Y-64262000D01*
X38688001Y-65358001D02*
X42337999Y-65358001D01*
X37338000Y-64008000D02*
X38688001Y-65358001D01*
X48179999Y-65612001D02*
X49530000Y-64262000D01*
X44784001Y-65612001D02*
X48179999Y-65612001D01*
X43434000Y-64262000D02*
X44784001Y-65612001D01*
X54275999Y-65612001D02*
X55626000Y-64262000D01*
X50880001Y-65612001D02*
X54275999Y-65612001D01*
X49530000Y-64262000D02*
X50880001Y-65612001D01*
X60371999Y-65612001D02*
X61722000Y-64262000D01*
X56976001Y-65612001D02*
X60371999Y-65612001D01*
X55626000Y-64262000D02*
X56976001Y-65612001D01*
X63072001Y-65612001D02*
X66467999Y-65612001D01*
X66467999Y-65612001D02*
X67818000Y-64262000D01*
X61722000Y-64262000D02*
X63072001Y-65612001D01*
X72563999Y-65612001D02*
X73914000Y-64262000D01*
X69709999Y-65612001D02*
X72563999Y-65612001D01*
X68359998Y-64262000D02*
X69709999Y-65612001D01*
X67818000Y-64262000D02*
X68359998Y-64262000D01*
X78659999Y-65612001D02*
X80010000Y-64262000D01*
X75264001Y-65612001D02*
X78659999Y-65612001D01*
X73914000Y-64262000D02*
X75264001Y-65612001D01*
D18*
X83979001Y-71494003D02*
X85795999Y-73311001D01*
X83979001Y-68231001D02*
X83979001Y-71494003D01*
X80010000Y-64262000D02*
X83979001Y-68231001D01*
X86924001Y-73311001D02*
X85795999Y-73311001D01*
X87535001Y-72700001D02*
X87535001Y-71597409D01*
X86924001Y-73311001D02*
X87535001Y-72700001D01*
X88291810Y-70840600D02*
X87535001Y-71597409D01*
X90043000Y-70840600D02*
X88291810Y-70840600D01*
D17*
%TO.N,Net-(D25-Pad1)*%
X75264001Y-70438001D02*
X73914000Y-69088000D01*
X78659999Y-70438001D02*
X75264001Y-70438001D01*
X80010000Y-69088000D02*
X78659999Y-70438001D01*
X69168001Y-70438001D02*
X67818000Y-69088000D01*
X72563999Y-70438001D02*
X69168001Y-70438001D01*
X73914000Y-69088000D02*
X72563999Y-70438001D01*
X63072001Y-70438001D02*
X61722000Y-69088000D01*
X66467999Y-70438001D02*
X63072001Y-70438001D01*
X67818000Y-69088000D02*
X66467999Y-70438001D01*
X56976001Y-70438001D02*
X55626000Y-69088000D01*
X60371999Y-70438001D02*
X56976001Y-70438001D01*
X61722000Y-69088000D02*
X60371999Y-70438001D01*
X50880001Y-70438001D02*
X49530000Y-69088000D01*
X54275999Y-70438001D02*
X50880001Y-70438001D01*
X55626000Y-69088000D02*
X54275999Y-70438001D01*
X44784001Y-70438001D02*
X43434000Y-69088000D01*
X48179999Y-70438001D02*
X44784001Y-70438001D01*
X49530000Y-69088000D02*
X48179999Y-70438001D01*
X38688001Y-70438001D02*
X37338000Y-69088000D01*
X42083999Y-70438001D02*
X38688001Y-70438001D01*
X43434000Y-69088000D02*
X42083999Y-70438001D01*
D18*
X83775001Y-73830003D02*
X85795999Y-75851001D01*
X83775001Y-72853001D02*
X83775001Y-73830003D01*
X80010000Y-69088000D02*
X83775001Y-72853001D01*
X86924001Y-75851001D02*
X85795999Y-75851001D01*
X90017600Y-74396600D02*
X88378402Y-74396600D01*
X88378402Y-74396600D02*
X87331101Y-75443901D01*
X87331101Y-75443901D02*
X86924001Y-75851001D01*
X87535001Y-75240001D02*
X87331101Y-75443901D01*
D17*
%TO.N,Net-(D33-Pad1)*%
X42083999Y-75518001D02*
X43434000Y-74168000D01*
X38688001Y-75518001D02*
X42083999Y-75518001D01*
X37338000Y-74168000D02*
X38688001Y-75518001D01*
X48179999Y-75518001D02*
X49530000Y-74168000D01*
X44784001Y-75518001D02*
X48179999Y-75518001D01*
X43434000Y-74168000D02*
X44784001Y-75518001D01*
X54275999Y-75518001D02*
X55626000Y-74168000D01*
X50880001Y-75518001D02*
X54275999Y-75518001D01*
X49530000Y-74168000D02*
X50880001Y-75518001D01*
X60371999Y-75518001D02*
X61722000Y-74168000D01*
X56976001Y-75518001D02*
X60371999Y-75518001D01*
X55626000Y-74168000D02*
X56976001Y-75518001D01*
X66467999Y-75518001D02*
X67818000Y-74168000D01*
X63072001Y-75518001D02*
X66467999Y-75518001D01*
X61722000Y-74168000D02*
X63072001Y-75518001D01*
X72563999Y-75518001D02*
X73914000Y-74168000D01*
X69168001Y-75518001D02*
X72563999Y-75518001D01*
X67818000Y-74168000D02*
X69168001Y-75518001D01*
X78659999Y-75518001D02*
X80010000Y-74168000D01*
X75264001Y-75518001D02*
X78659999Y-75518001D01*
X73914000Y-74168000D02*
X75264001Y-75518001D01*
D18*
X86924001Y-78391001D02*
X84233001Y-78391001D01*
X84233001Y-78391001D02*
X84175600Y-78333600D01*
X80010000Y-74168000D02*
X84175600Y-78333600D01*
X87362402Y-77952600D02*
X86924001Y-78391001D01*
X90017600Y-77952600D02*
X87362402Y-77952600D01*
D17*
%TO.N,Net-(D41-Pad1)*%
X75264001Y-80598001D02*
X73914000Y-79248000D01*
X78659999Y-80598001D02*
X75264001Y-80598001D01*
X80010000Y-79248000D02*
X78659999Y-80598001D01*
X69168001Y-80598001D02*
X67818000Y-79248000D01*
X72563999Y-80598001D02*
X69168001Y-80598001D01*
X73914000Y-79248000D02*
X72563999Y-80598001D01*
X63072001Y-80598001D02*
X61722000Y-79248000D01*
X66467999Y-80598001D02*
X63072001Y-80598001D01*
X67818000Y-79248000D02*
X66467999Y-80598001D01*
X60371999Y-80598001D02*
X56976001Y-80598001D01*
X56976001Y-80598001D02*
X55626000Y-79248000D01*
X61722000Y-79248000D02*
X60371999Y-80598001D01*
X50880001Y-80598001D02*
X49530000Y-79248000D01*
X54275999Y-80598001D02*
X50880001Y-80598001D01*
X55626000Y-79248000D02*
X54275999Y-80598001D01*
X48179999Y-80598001D02*
X44784001Y-80598001D01*
X44784001Y-80598001D02*
X43434000Y-79248000D01*
X49530000Y-79248000D02*
X48179999Y-80598001D01*
X38688001Y-80598001D02*
X37338000Y-79248000D01*
X42083999Y-80598001D02*
X38688001Y-80598001D01*
X43434000Y-79248000D02*
X42083999Y-80598001D01*
D18*
X81693001Y-80931001D02*
X80010000Y-79248000D01*
X87089999Y-80931001D02*
X81693001Y-80931001D01*
X87667598Y-81508600D02*
X87089999Y-80931001D01*
X90017600Y-81508600D02*
X87667598Y-81508600D01*
D17*
%TO.N,Net-(D49-Pad1)*%
X42083999Y-85424001D02*
X43434000Y-84074000D01*
X38688001Y-85424001D02*
X42083999Y-85424001D01*
X37338000Y-84074000D02*
X38688001Y-85424001D01*
X48179999Y-85424001D02*
X49530000Y-84074000D01*
X44784001Y-85424001D02*
X48179999Y-85424001D01*
X43434000Y-84074000D02*
X44784001Y-85424001D01*
X54275999Y-85424001D02*
X55626000Y-84074000D01*
X50880001Y-85424001D02*
X54275999Y-85424001D01*
X49530000Y-84074000D02*
X50880001Y-85424001D01*
X60371999Y-85424001D02*
X61722000Y-84074000D01*
X56976001Y-85424001D02*
X60371999Y-85424001D01*
X55626000Y-84074000D02*
X56976001Y-85424001D01*
X66467999Y-85424001D02*
X67818000Y-84074000D01*
X63072001Y-85424001D02*
X66467999Y-85424001D01*
X61722000Y-84074000D02*
X63072001Y-85424001D01*
X72563999Y-85424001D02*
X73914000Y-84074000D01*
X69168001Y-85424001D02*
X72563999Y-85424001D01*
X67818000Y-84074000D02*
X69168001Y-85424001D01*
X78659999Y-85424001D02*
X80010000Y-84074000D01*
X75264001Y-85424001D02*
X78659999Y-85424001D01*
X73914000Y-84074000D02*
X75264001Y-85424001D01*
D18*
X89992200Y-84607400D02*
X89992200Y-85039200D01*
X88545810Y-84150200D02*
X89535000Y-84150200D01*
X88056609Y-83660999D02*
X88545810Y-84150200D01*
X84741001Y-83660999D02*
X88056609Y-83660999D01*
X83102999Y-85299001D02*
X84741001Y-83660999D01*
X81235001Y-85299001D02*
X83102999Y-85299001D01*
X89535000Y-84150200D02*
X89992200Y-84607400D01*
X80010000Y-84074000D02*
X81235001Y-85299001D01*
D17*
%TO.N,Net-(D57-Pad1)*%
X75264001Y-90504001D02*
X73914000Y-89154000D01*
X78659999Y-90504001D02*
X75264001Y-90504001D01*
X80010000Y-89154000D02*
X78659999Y-90504001D01*
X69168001Y-90504001D02*
X67818000Y-89154000D01*
X72563999Y-90504001D02*
X69168001Y-90504001D01*
X73914000Y-89154000D02*
X72563999Y-90504001D01*
X63072001Y-90504001D02*
X61722000Y-89154000D01*
X66467999Y-90504001D02*
X63072001Y-90504001D01*
X67818000Y-89154000D02*
X66467999Y-90504001D01*
X56976001Y-90504001D02*
X55626000Y-89154000D01*
X60371999Y-90504001D02*
X56976001Y-90504001D01*
X61722000Y-89154000D02*
X60371999Y-90504001D01*
X50880001Y-90504001D02*
X49530000Y-89154000D01*
X54275999Y-90504001D02*
X50880001Y-90504001D01*
X55626000Y-89154000D02*
X54275999Y-90504001D01*
X44784001Y-90504001D02*
X43434000Y-89154000D01*
X48179999Y-90504001D02*
X44784001Y-90504001D01*
X49530000Y-89154000D02*
X48179999Y-90504001D01*
X38688001Y-90504001D02*
X37338000Y-89154000D01*
X42083999Y-90504001D02*
X38688001Y-90504001D01*
X43434000Y-89154000D02*
X42083999Y-90504001D01*
D18*
X83138001Y-87928999D02*
X81235001Y-87928999D01*
X81235001Y-87928999D02*
X80010000Y-89154000D01*
X83778802Y-88569800D02*
X83583501Y-88374499D01*
X90017600Y-88569800D02*
X83778802Y-88569800D01*
X83583501Y-88374499D02*
X83138001Y-87928999D01*
X83760003Y-88551001D02*
X83583501Y-88374499D01*
%TO.N,GND*%
X33782000Y-89916000D02*
X34945011Y-91079011D01*
X45105011Y-91079011D02*
X45105013Y-91079009D01*
X34945011Y-91079011D02*
X45105011Y-91079011D01*
X82910989Y-91079011D02*
X83058000Y-90932000D01*
X75025825Y-91079011D02*
X82910989Y-91079011D01*
X75025823Y-91079009D02*
X75025825Y-91079011D01*
X45105013Y-91079009D02*
X75025823Y-91079009D01*
D17*
X92003990Y-61266390D02*
X90967600Y-60230000D01*
X91668600Y-89916000D02*
X92003990Y-89580610D01*
X86360000Y-89916000D02*
X91668600Y-89916000D01*
X91294200Y-65183000D02*
X92003990Y-65892790D01*
X90993000Y-65183000D02*
X91294200Y-65183000D01*
X92003990Y-65892790D02*
X92003990Y-61266390D01*
X91329980Y-68840600D02*
X92003990Y-69514610D01*
X90993000Y-68840600D02*
X91329980Y-68840600D01*
X92003990Y-69514610D02*
X92003990Y-65892790D01*
X91279180Y-72396600D02*
X92003990Y-73121410D01*
X92003990Y-73121410D02*
X92003990Y-69514610D01*
X90967600Y-72396600D02*
X91279180Y-72396600D01*
X91126780Y-75952600D02*
X92003990Y-76829810D01*
X90967600Y-75952600D02*
X91126780Y-75952600D01*
X92003990Y-76829810D02*
X92003990Y-73121410D01*
X91482380Y-79508600D02*
X92003990Y-80030210D01*
X90967600Y-79508600D02*
X91482380Y-79508600D01*
X92003990Y-80030210D02*
X92003990Y-76829810D01*
X91126780Y-83039200D02*
X92003990Y-83916410D01*
X90942200Y-83039200D02*
X91126780Y-83039200D01*
X92003990Y-83916410D02*
X92003990Y-80030210D01*
X92003990Y-87726410D02*
X92003990Y-83916410D01*
X92003990Y-89580610D02*
X92003990Y-87726410D01*
X90967600Y-86690020D02*
X92003990Y-87726410D01*
X90967600Y-86569800D02*
X90967600Y-86690020D01*
%TO.N,5V_In*%
X35750128Y-46894128D02*
X35846000Y-46990000D01*
X35814000Y-46544000D02*
X36391990Y-45966010D01*
X35814000Y-47244000D02*
X35814000Y-46544000D01*
X77240010Y-45966010D02*
X78518000Y-47244000D01*
X41910000Y-46990000D02*
X40886010Y-45966010D01*
X41910000Y-47244000D02*
X41910000Y-46990000D01*
X36391990Y-45966010D02*
X40886010Y-45966010D01*
X48038000Y-47006020D02*
X46997990Y-45966010D01*
X48038000Y-47244000D02*
X48038000Y-47006020D01*
X40886010Y-45966010D02*
X46997990Y-45966010D01*
X54134000Y-47006020D02*
X53093990Y-45966010D01*
X54134000Y-47244000D02*
X54134000Y-47006020D01*
X46997990Y-45966010D02*
X53093990Y-45966010D01*
X60230000Y-46752020D02*
X59443990Y-45966010D01*
X60230000Y-47244000D02*
X60230000Y-46752020D01*
X53093990Y-45966010D02*
X59443990Y-45966010D01*
X66326000Y-47244000D02*
X66326000Y-46768000D01*
X66326000Y-46768000D02*
X65524010Y-45966010D01*
X59443990Y-45966010D02*
X65524010Y-45966010D01*
X72390000Y-47244000D02*
X71112010Y-45966010D01*
X65524010Y-45966010D02*
X71112010Y-45966010D01*
X71112010Y-45966010D02*
X76715990Y-45966010D01*
X76715990Y-45966010D02*
X77240010Y-45966010D01*
X82796010Y-46116000D02*
X82796010Y-45966010D01*
X76715990Y-45966010D02*
X82796010Y-45966010D01*
X35082001Y-47975999D02*
X35814000Y-47244000D01*
X35082001Y-86075999D02*
X35082001Y-47975999D01*
X33782000Y-87376000D02*
X35082001Y-86075999D01*
%TO.N,C7*%
X79436000Y-51242000D02*
X79248000Y-51054000D01*
X80550000Y-51242000D02*
X79436000Y-51242000D01*
%TO.N,C6*%
X73340000Y-51242000D02*
X73152000Y-51054000D01*
X74454000Y-51242000D02*
X73340000Y-51242000D01*
%TO.N,C5*%
X67244000Y-51242000D02*
X67056000Y-51054000D01*
X68358000Y-51242000D02*
X67244000Y-51242000D01*
%TO.N,C4*%
X61148000Y-51242000D02*
X60960000Y-51054000D01*
X62262000Y-51242000D02*
X61148000Y-51242000D01*
%TO.N,C3*%
X55306000Y-51242000D02*
X55118000Y-51054000D01*
X56166000Y-51242000D02*
X55306000Y-51242000D01*
%TO.N,C2*%
X48956000Y-51242000D02*
X48768000Y-51054000D01*
X50070000Y-51242000D02*
X48956000Y-51242000D01*
%TO.N,C1*%
X43114000Y-51242000D02*
X42926000Y-51054000D01*
X43974000Y-51242000D02*
X43114000Y-51242000D01*
%TO.N,C0*%
X36642000Y-51242000D02*
X36576000Y-51308000D01*
X37878000Y-51242000D02*
X36642000Y-51242000D01*
D18*
%TO.N,R7*%
X89067600Y-85308400D02*
X89067600Y-86569800D01*
X88595200Y-84836000D02*
X89067600Y-85308400D01*
X86360000Y-84836000D02*
X88595200Y-84836000D01*
%TO.N,R6*%
X86366600Y-82302600D02*
X86360000Y-82296000D01*
X88299000Y-82296000D02*
X89042200Y-83039200D01*
X86360000Y-82296000D02*
X88299000Y-82296000D01*
%TO.N,R5*%
X86360000Y-79756000D02*
X88109000Y-79756000D01*
X88356400Y-79508600D02*
X88109000Y-79756000D01*
X89067600Y-79508600D02*
X88356400Y-79508600D01*
%TO.N,R4*%
X86360000Y-77216000D02*
X87223600Y-76352400D01*
X87623400Y-75952600D02*
X87223600Y-76352400D01*
X89067600Y-75952600D02*
X87623400Y-75952600D01*
%TO.N,R3*%
X88639400Y-72396600D02*
X86360000Y-74676000D01*
X89067600Y-72396600D02*
X88639400Y-72396600D01*
%TO.N,R2*%
X86360000Y-71971412D02*
X86360000Y-72136000D01*
X87985011Y-70510989D02*
X86360000Y-72136000D01*
X89093000Y-69403000D02*
X87985011Y-70510989D01*
X89093000Y-68840600D02*
X89093000Y-69403000D01*
%TO.N,R1*%
X86360000Y-69323201D02*
X86360000Y-69596000D01*
X89093000Y-66590201D02*
X86360000Y-69323201D01*
X89093000Y-65183000D02*
X89093000Y-66590201D01*
%TO.N,R0*%
X86360000Y-67056000D02*
X86360000Y-62255400D01*
X88385400Y-60230000D02*
X86360000Y-62255400D01*
X89067600Y-60230000D02*
X88385400Y-60230000D01*
D17*
%TO.N,Net-(R1-Pad2)*%
X37878000Y-47022000D02*
X37846000Y-46990000D01*
X37878000Y-49342000D02*
X37878000Y-47022000D01*
%TO.N,Net-(R2-Pad2)*%
X43974000Y-49342000D02*
X43942000Y-46990000D01*
%TO.N,Net-(R3-Pad2)*%
X50070000Y-49342000D02*
X50038000Y-47244000D01*
%TO.N,Net-(R4-Pad2)*%
X56166000Y-49342000D02*
X56166000Y-46990000D01*
%TO.N,Net-(R5-Pad2)*%
X62262000Y-49342000D02*
X62230000Y-47244000D01*
%TO.N,Net-(R6-Pad2)*%
X68358000Y-47022000D02*
X68326000Y-46990000D01*
X68358000Y-49342000D02*
X68358000Y-47022000D01*
%TO.N,Net-(R7-Pad2)*%
X74454000Y-47038000D02*
X74406000Y-46990000D01*
X74454000Y-49342000D02*
X74454000Y-47038000D01*
%TO.N,Net-(R8-Pad2)*%
X80550000Y-47022000D02*
X80518000Y-46990000D01*
X80550000Y-49342000D02*
X80550000Y-47022000D01*
%TD*%
M02*
