%TF.GenerationSoftware,KiCad,Pcbnew,(5.1.8)-1*%
%TF.CreationDate,2021-12-10T09:09:34+01:00*%
%TF.ProjectId,FirePlaceLedmatrix,46697265-506c-4616-9365-4c65646d6174,rev?*%
%TF.SameCoordinates,Original*%
%TF.FileFunction,Legend,Bot*%
%TF.FilePolarity,Positive*%
%FSLAX46Y46*%
G04 Gerber Fmt 4.6, Leading zero omitted, Abs format (unit mm)*
G04 Created by KiCad (PCBNEW (5.1.8)-1) date 2021-12-10 09:09:34*
%MOMM*%
%LPD*%
G01*
G04 APERTURE LIST*
%ADD10C,0.120000*%
%ADD11C,0.150000*%
G04 APERTURE END LIST*
D10*
%TO.C,Q8*%
X88437600Y-88329800D02*
X88437600Y-86169800D01*
X88437600Y-88329800D02*
X89367600Y-88329800D01*
X91597600Y-88329800D02*
X91597600Y-86869800D01*
X91597600Y-88329800D02*
X90667600Y-88329800D01*
%TO.C,Q7*%
X88412200Y-84799200D02*
X88412200Y-82639200D01*
X88412200Y-84799200D02*
X89342200Y-84799200D01*
X91572200Y-84799200D02*
X91572200Y-83339200D01*
X91572200Y-84799200D02*
X90642200Y-84799200D01*
%TO.C,Q6*%
X88437600Y-81268600D02*
X88437600Y-79108600D01*
X88437600Y-81268600D02*
X89367600Y-81268600D01*
X91597600Y-81268600D02*
X91597600Y-79808600D01*
X91597600Y-81268600D02*
X90667600Y-81268600D01*
%TO.C,Q5*%
X88437600Y-77712600D02*
X88437600Y-75552600D01*
X88437600Y-77712600D02*
X89367600Y-77712600D01*
X91597600Y-77712600D02*
X91597600Y-76252600D01*
X91597600Y-77712600D02*
X90667600Y-77712600D01*
%TO.C,Q4*%
X88437600Y-74156600D02*
X88437600Y-71996600D01*
X88437600Y-74156600D02*
X89367600Y-74156600D01*
X91597600Y-74156600D02*
X91597600Y-72696600D01*
X91597600Y-74156600D02*
X90667600Y-74156600D01*
%TO.C,Q3*%
X88463000Y-70600600D02*
X88463000Y-68440600D01*
X88463000Y-70600600D02*
X89393000Y-70600600D01*
X91623000Y-70600600D02*
X91623000Y-69140600D01*
X91623000Y-70600600D02*
X90693000Y-70600600D01*
%TO.C,Q2*%
X88463000Y-66943000D02*
X88463000Y-64783000D01*
X88463000Y-66943000D02*
X89393000Y-66943000D01*
X91623000Y-66943000D02*
X91623000Y-65483000D01*
X91623000Y-66943000D02*
X90693000Y-66943000D01*
%TO.C,Q1*%
X88437600Y-61990000D02*
X88437600Y-59830000D01*
X88437600Y-61990000D02*
X89367600Y-61990000D01*
X91597600Y-61990000D02*
X91597600Y-60530000D01*
X91597600Y-61990000D02*
X90667600Y-61990000D01*
%TO.C,T8*%
X82310000Y-48712000D02*
X80850000Y-48712000D01*
X82310000Y-51872000D02*
X80150000Y-51872000D01*
X82310000Y-51872000D02*
X82310000Y-50942000D01*
X82310000Y-48712000D02*
X82310000Y-49642000D01*
%TO.C,T7*%
X76214000Y-48712000D02*
X74754000Y-48712000D01*
X76214000Y-51872000D02*
X74054000Y-51872000D01*
X76214000Y-51872000D02*
X76214000Y-50942000D01*
X76214000Y-48712000D02*
X76214000Y-49642000D01*
%TO.C,T6*%
X70118000Y-48712000D02*
X68658000Y-48712000D01*
X70118000Y-51872000D02*
X67958000Y-51872000D01*
X70118000Y-51872000D02*
X70118000Y-50942000D01*
X70118000Y-48712000D02*
X70118000Y-49642000D01*
%TO.C,T5*%
X64022000Y-48712000D02*
X62562000Y-48712000D01*
X64022000Y-51872000D02*
X61862000Y-51872000D01*
X64022000Y-51872000D02*
X64022000Y-50942000D01*
X64022000Y-48712000D02*
X64022000Y-49642000D01*
%TO.C,T4*%
X57926000Y-48712000D02*
X56466000Y-48712000D01*
X57926000Y-51872000D02*
X55766000Y-51872000D01*
X57926000Y-51872000D02*
X57926000Y-50942000D01*
X57926000Y-48712000D02*
X57926000Y-49642000D01*
%TO.C,T3*%
X51830000Y-48712000D02*
X50370000Y-48712000D01*
X51830000Y-51872000D02*
X49670000Y-51872000D01*
X51830000Y-51872000D02*
X51830000Y-50942000D01*
X51830000Y-48712000D02*
X51830000Y-49642000D01*
%TO.C,T2*%
X45734000Y-48712000D02*
X44274000Y-48712000D01*
X45734000Y-51872000D02*
X43574000Y-51872000D01*
X45734000Y-51872000D02*
X45734000Y-50942000D01*
X45734000Y-48712000D02*
X45734000Y-49642000D01*
%TO.C,T1*%
X39638000Y-48712000D02*
X38178000Y-48712000D01*
X39638000Y-51872000D02*
X37478000Y-51872000D01*
X39638000Y-51872000D02*
X39638000Y-50942000D01*
X39638000Y-48712000D02*
X39638000Y-49642000D01*
%TO.C,R8*%
X79290936Y-46509000D02*
X79745064Y-46509000D01*
X79290936Y-47979000D02*
X79745064Y-47979000D01*
%TO.C,R7*%
X73162936Y-46509000D02*
X73617064Y-46509000D01*
X73162936Y-47979000D02*
X73617064Y-47979000D01*
%TO.C,R6*%
X67098936Y-46509000D02*
X67553064Y-46509000D01*
X67098936Y-47979000D02*
X67553064Y-47979000D01*
%TO.C,R5*%
X61002936Y-46509000D02*
X61457064Y-46509000D01*
X61002936Y-47979000D02*
X61457064Y-47979000D01*
%TO.C,R4*%
X54906936Y-46509000D02*
X55361064Y-46509000D01*
X54906936Y-47979000D02*
X55361064Y-47979000D01*
%TO.C,R3*%
X48810936Y-46509000D02*
X49265064Y-46509000D01*
X48810936Y-47979000D02*
X49265064Y-47979000D01*
%TO.C,R2*%
X42682936Y-46509000D02*
X43137064Y-46509000D01*
X42682936Y-47979000D02*
X43137064Y-47979000D01*
%TO.C,R1*%
X36586936Y-46509000D02*
X37041064Y-46509000D01*
X36586936Y-47979000D02*
X37041064Y-47979000D01*
%TO.C,Q8*%
D11*
X87898219Y-87474561D02*
X87850600Y-87379323D01*
X87755361Y-87284085D01*
X87612504Y-87141228D01*
X87564885Y-87045990D01*
X87564885Y-86950752D01*
X87802980Y-86998371D02*
X87755361Y-86903133D01*
X87660123Y-86807895D01*
X87469647Y-86760276D01*
X87136314Y-86760276D01*
X86945838Y-86807895D01*
X86850600Y-86903133D01*
X86802980Y-86998371D01*
X86802980Y-87188847D01*
X86850600Y-87284085D01*
X86945838Y-87379323D01*
X87136314Y-87426942D01*
X87469647Y-87426942D01*
X87660123Y-87379323D01*
X87755361Y-87284085D01*
X87802980Y-87188847D01*
X87802980Y-86998371D01*
X87231552Y-87998371D02*
X87183933Y-87903133D01*
X87136314Y-87855514D01*
X87041076Y-87807895D01*
X86993457Y-87807895D01*
X86898219Y-87855514D01*
X86850600Y-87903133D01*
X86802980Y-87998371D01*
X86802980Y-88188847D01*
X86850600Y-88284085D01*
X86898219Y-88331704D01*
X86993457Y-88379323D01*
X87041076Y-88379323D01*
X87136314Y-88331704D01*
X87183933Y-88284085D01*
X87231552Y-88188847D01*
X87231552Y-87998371D01*
X87279171Y-87903133D01*
X87326790Y-87855514D01*
X87422028Y-87807895D01*
X87612504Y-87807895D01*
X87707742Y-87855514D01*
X87755361Y-87903133D01*
X87802980Y-87998371D01*
X87802980Y-88188847D01*
X87755361Y-88284085D01*
X87707742Y-88331704D01*
X87612504Y-88379323D01*
X87422028Y-88379323D01*
X87326790Y-88331704D01*
X87279171Y-88284085D01*
X87231552Y-88188847D01*
%TO.C,Q7*%
X87872819Y-83943961D02*
X87825200Y-83848723D01*
X87729961Y-83753485D01*
X87587104Y-83610628D01*
X87539485Y-83515390D01*
X87539485Y-83420152D01*
X87777580Y-83467771D02*
X87729961Y-83372533D01*
X87634723Y-83277295D01*
X87444247Y-83229676D01*
X87110914Y-83229676D01*
X86920438Y-83277295D01*
X86825200Y-83372533D01*
X86777580Y-83467771D01*
X86777580Y-83658247D01*
X86825200Y-83753485D01*
X86920438Y-83848723D01*
X87110914Y-83896342D01*
X87444247Y-83896342D01*
X87634723Y-83848723D01*
X87729961Y-83753485D01*
X87777580Y-83658247D01*
X87777580Y-83467771D01*
X86777580Y-84229676D02*
X86777580Y-84896342D01*
X87777580Y-84467771D01*
%TO.C,Q6*%
X87898219Y-80413361D02*
X87850600Y-80318123D01*
X87755361Y-80222885D01*
X87612504Y-80080028D01*
X87564885Y-79984790D01*
X87564885Y-79889552D01*
X87802980Y-79937171D02*
X87755361Y-79841933D01*
X87660123Y-79746695D01*
X87469647Y-79699076D01*
X87136314Y-79699076D01*
X86945838Y-79746695D01*
X86850600Y-79841933D01*
X86802980Y-79937171D01*
X86802980Y-80127647D01*
X86850600Y-80222885D01*
X86945838Y-80318123D01*
X87136314Y-80365742D01*
X87469647Y-80365742D01*
X87660123Y-80318123D01*
X87755361Y-80222885D01*
X87802980Y-80127647D01*
X87802980Y-79937171D01*
X86802980Y-81222885D02*
X86802980Y-81032409D01*
X86850600Y-80937171D01*
X86898219Y-80889552D01*
X87041076Y-80794314D01*
X87231552Y-80746695D01*
X87612504Y-80746695D01*
X87707742Y-80794314D01*
X87755361Y-80841933D01*
X87802980Y-80937171D01*
X87802980Y-81127647D01*
X87755361Y-81222885D01*
X87707742Y-81270504D01*
X87612504Y-81318123D01*
X87374409Y-81318123D01*
X87279171Y-81270504D01*
X87231552Y-81222885D01*
X87183933Y-81127647D01*
X87183933Y-80937171D01*
X87231552Y-80841933D01*
X87279171Y-80794314D01*
X87374409Y-80746695D01*
%TO.C,Q5*%
X87898219Y-76857361D02*
X87850600Y-76762123D01*
X87755361Y-76666885D01*
X87612504Y-76524028D01*
X87564885Y-76428790D01*
X87564885Y-76333552D01*
X87802980Y-76381171D02*
X87755361Y-76285933D01*
X87660123Y-76190695D01*
X87469647Y-76143076D01*
X87136314Y-76143076D01*
X86945838Y-76190695D01*
X86850600Y-76285933D01*
X86802980Y-76381171D01*
X86802980Y-76571647D01*
X86850600Y-76666885D01*
X86945838Y-76762123D01*
X87136314Y-76809742D01*
X87469647Y-76809742D01*
X87660123Y-76762123D01*
X87755361Y-76666885D01*
X87802980Y-76571647D01*
X87802980Y-76381171D01*
X86802980Y-77714504D02*
X86802980Y-77238314D01*
X87279171Y-77190695D01*
X87231552Y-77238314D01*
X87183933Y-77333552D01*
X87183933Y-77571647D01*
X87231552Y-77666885D01*
X87279171Y-77714504D01*
X87374409Y-77762123D01*
X87612504Y-77762123D01*
X87707742Y-77714504D01*
X87755361Y-77666885D01*
X87802980Y-77571647D01*
X87802980Y-77333552D01*
X87755361Y-77238314D01*
X87707742Y-77190695D01*
%TO.C,Q4*%
X87898219Y-73301361D02*
X87850600Y-73206123D01*
X87755361Y-73110885D01*
X87612504Y-72968028D01*
X87564885Y-72872790D01*
X87564885Y-72777552D01*
X87802980Y-72825171D02*
X87755361Y-72729933D01*
X87660123Y-72634695D01*
X87469647Y-72587076D01*
X87136314Y-72587076D01*
X86945838Y-72634695D01*
X86850600Y-72729933D01*
X86802980Y-72825171D01*
X86802980Y-73015647D01*
X86850600Y-73110885D01*
X86945838Y-73206123D01*
X87136314Y-73253742D01*
X87469647Y-73253742D01*
X87660123Y-73206123D01*
X87755361Y-73110885D01*
X87802980Y-73015647D01*
X87802980Y-72825171D01*
X87136314Y-74110885D02*
X87802980Y-74110885D01*
X86755361Y-73872790D02*
X87469647Y-73634695D01*
X87469647Y-74253742D01*
%TO.C,Q3*%
X87923619Y-69745361D02*
X87876000Y-69650123D01*
X87780761Y-69554885D01*
X87637904Y-69412028D01*
X87590285Y-69316790D01*
X87590285Y-69221552D01*
X87828380Y-69269171D02*
X87780761Y-69173933D01*
X87685523Y-69078695D01*
X87495047Y-69031076D01*
X87161714Y-69031076D01*
X86971238Y-69078695D01*
X86876000Y-69173933D01*
X86828380Y-69269171D01*
X86828380Y-69459647D01*
X86876000Y-69554885D01*
X86971238Y-69650123D01*
X87161714Y-69697742D01*
X87495047Y-69697742D01*
X87685523Y-69650123D01*
X87780761Y-69554885D01*
X87828380Y-69459647D01*
X87828380Y-69269171D01*
X86828380Y-70031076D02*
X86828380Y-70650123D01*
X87209333Y-70316790D01*
X87209333Y-70459647D01*
X87256952Y-70554885D01*
X87304571Y-70602504D01*
X87399809Y-70650123D01*
X87637904Y-70650123D01*
X87733142Y-70602504D01*
X87780761Y-70554885D01*
X87828380Y-70459647D01*
X87828380Y-70173933D01*
X87780761Y-70078695D01*
X87733142Y-70031076D01*
%TO.C,Q2*%
X87923619Y-66087761D02*
X87876000Y-65992523D01*
X87780761Y-65897285D01*
X87637904Y-65754428D01*
X87590285Y-65659190D01*
X87590285Y-65563952D01*
X87828380Y-65611571D02*
X87780761Y-65516333D01*
X87685523Y-65421095D01*
X87495047Y-65373476D01*
X87161714Y-65373476D01*
X86971238Y-65421095D01*
X86876000Y-65516333D01*
X86828380Y-65611571D01*
X86828380Y-65802047D01*
X86876000Y-65897285D01*
X86971238Y-65992523D01*
X87161714Y-66040142D01*
X87495047Y-66040142D01*
X87685523Y-65992523D01*
X87780761Y-65897285D01*
X87828380Y-65802047D01*
X87828380Y-65611571D01*
X86923619Y-66421095D02*
X86876000Y-66468714D01*
X86828380Y-66563952D01*
X86828380Y-66802047D01*
X86876000Y-66897285D01*
X86923619Y-66944904D01*
X87018857Y-66992523D01*
X87114095Y-66992523D01*
X87256952Y-66944904D01*
X87828380Y-66373476D01*
X87828380Y-66992523D01*
%TO.C,Q1*%
X87898219Y-61134761D02*
X87850600Y-61039523D01*
X87755361Y-60944285D01*
X87612504Y-60801428D01*
X87564885Y-60706190D01*
X87564885Y-60610952D01*
X87802980Y-60658571D02*
X87755361Y-60563333D01*
X87660123Y-60468095D01*
X87469647Y-60420476D01*
X87136314Y-60420476D01*
X86945838Y-60468095D01*
X86850600Y-60563333D01*
X86802980Y-60658571D01*
X86802980Y-60849047D01*
X86850600Y-60944285D01*
X86945838Y-61039523D01*
X87136314Y-61087142D01*
X87469647Y-61087142D01*
X87660123Y-61039523D01*
X87755361Y-60944285D01*
X87802980Y-60849047D01*
X87802980Y-60658571D01*
X87802980Y-62039523D02*
X87802980Y-61468095D01*
X87802980Y-61753809D02*
X86802980Y-61753809D01*
X86945838Y-61658571D01*
X87041076Y-61563333D01*
X87088695Y-61468095D01*
%TO.C,T8*%
X82311904Y-52244380D02*
X81740476Y-52244380D01*
X82026190Y-53244380D02*
X82026190Y-52244380D01*
X81264285Y-52672952D02*
X81359523Y-52625333D01*
X81407142Y-52577714D01*
X81454761Y-52482476D01*
X81454761Y-52434857D01*
X81407142Y-52339619D01*
X81359523Y-52292000D01*
X81264285Y-52244380D01*
X81073809Y-52244380D01*
X80978571Y-52292000D01*
X80930952Y-52339619D01*
X80883333Y-52434857D01*
X80883333Y-52482476D01*
X80930952Y-52577714D01*
X80978571Y-52625333D01*
X81073809Y-52672952D01*
X81264285Y-52672952D01*
X81359523Y-52720571D01*
X81407142Y-52768190D01*
X81454761Y-52863428D01*
X81454761Y-53053904D01*
X81407142Y-53149142D01*
X81359523Y-53196761D01*
X81264285Y-53244380D01*
X81073809Y-53244380D01*
X80978571Y-53196761D01*
X80930952Y-53149142D01*
X80883333Y-53053904D01*
X80883333Y-52863428D01*
X80930952Y-52768190D01*
X80978571Y-52720571D01*
X81073809Y-52672952D01*
%TO.C,T7*%
X76215904Y-52244380D02*
X75644476Y-52244380D01*
X75930190Y-53244380D02*
X75930190Y-52244380D01*
X75406380Y-52244380D02*
X74739714Y-52244380D01*
X75168285Y-53244380D01*
%TO.C,T6*%
X70119904Y-52244380D02*
X69548476Y-52244380D01*
X69834190Y-53244380D02*
X69834190Y-52244380D01*
X68786571Y-52244380D02*
X68977047Y-52244380D01*
X69072285Y-52292000D01*
X69119904Y-52339619D01*
X69215142Y-52482476D01*
X69262761Y-52672952D01*
X69262761Y-53053904D01*
X69215142Y-53149142D01*
X69167523Y-53196761D01*
X69072285Y-53244380D01*
X68881809Y-53244380D01*
X68786571Y-53196761D01*
X68738952Y-53149142D01*
X68691333Y-53053904D01*
X68691333Y-52815809D01*
X68738952Y-52720571D01*
X68786571Y-52672952D01*
X68881809Y-52625333D01*
X69072285Y-52625333D01*
X69167523Y-52672952D01*
X69215142Y-52720571D01*
X69262761Y-52815809D01*
%TO.C,T5*%
X64023904Y-52244380D02*
X63452476Y-52244380D01*
X63738190Y-53244380D02*
X63738190Y-52244380D01*
X62642952Y-52244380D02*
X63119142Y-52244380D01*
X63166761Y-52720571D01*
X63119142Y-52672952D01*
X63023904Y-52625333D01*
X62785809Y-52625333D01*
X62690571Y-52672952D01*
X62642952Y-52720571D01*
X62595333Y-52815809D01*
X62595333Y-53053904D01*
X62642952Y-53149142D01*
X62690571Y-53196761D01*
X62785809Y-53244380D01*
X63023904Y-53244380D01*
X63119142Y-53196761D01*
X63166761Y-53149142D01*
%TO.C,T4*%
X57927904Y-52244380D02*
X57356476Y-52244380D01*
X57642190Y-53244380D02*
X57642190Y-52244380D01*
X56594571Y-52577714D02*
X56594571Y-53244380D01*
X56832666Y-52196761D02*
X57070761Y-52911047D01*
X56451714Y-52911047D01*
%TO.C,T3*%
X51831904Y-52244380D02*
X51260476Y-52244380D01*
X51546190Y-53244380D02*
X51546190Y-52244380D01*
X51022380Y-52244380D02*
X50403333Y-52244380D01*
X50736666Y-52625333D01*
X50593809Y-52625333D01*
X50498571Y-52672952D01*
X50450952Y-52720571D01*
X50403333Y-52815809D01*
X50403333Y-53053904D01*
X50450952Y-53149142D01*
X50498571Y-53196761D01*
X50593809Y-53244380D01*
X50879523Y-53244380D01*
X50974761Y-53196761D01*
X51022380Y-53149142D01*
%TO.C,T2*%
X45735904Y-52244380D02*
X45164476Y-52244380D01*
X45450190Y-53244380D02*
X45450190Y-52244380D01*
X44878761Y-52339619D02*
X44831142Y-52292000D01*
X44735904Y-52244380D01*
X44497809Y-52244380D01*
X44402571Y-52292000D01*
X44354952Y-52339619D01*
X44307333Y-52434857D01*
X44307333Y-52530095D01*
X44354952Y-52672952D01*
X44926380Y-53244380D01*
X44307333Y-53244380D01*
%TO.C,T1*%
X39639904Y-52244380D02*
X39068476Y-52244380D01*
X39354190Y-53244380D02*
X39354190Y-52244380D01*
X38211333Y-53244380D02*
X38782761Y-53244380D01*
X38497047Y-53244380D02*
X38497047Y-52244380D01*
X38592285Y-52387238D01*
X38687523Y-52482476D01*
X38782761Y-52530095D01*
%TO.C,R8*%
X79684666Y-49346380D02*
X80018000Y-48870190D01*
X80256095Y-49346380D02*
X80256095Y-48346380D01*
X79875142Y-48346380D01*
X79779904Y-48394000D01*
X79732285Y-48441619D01*
X79684666Y-48536857D01*
X79684666Y-48679714D01*
X79732285Y-48774952D01*
X79779904Y-48822571D01*
X79875142Y-48870190D01*
X80256095Y-48870190D01*
X79113238Y-48774952D02*
X79208476Y-48727333D01*
X79256095Y-48679714D01*
X79303714Y-48584476D01*
X79303714Y-48536857D01*
X79256095Y-48441619D01*
X79208476Y-48394000D01*
X79113238Y-48346380D01*
X78922761Y-48346380D01*
X78827523Y-48394000D01*
X78779904Y-48441619D01*
X78732285Y-48536857D01*
X78732285Y-48584476D01*
X78779904Y-48679714D01*
X78827523Y-48727333D01*
X78922761Y-48774952D01*
X79113238Y-48774952D01*
X79208476Y-48822571D01*
X79256095Y-48870190D01*
X79303714Y-48965428D01*
X79303714Y-49155904D01*
X79256095Y-49251142D01*
X79208476Y-49298761D01*
X79113238Y-49346380D01*
X78922761Y-49346380D01*
X78827523Y-49298761D01*
X78779904Y-49251142D01*
X78732285Y-49155904D01*
X78732285Y-48965428D01*
X78779904Y-48870190D01*
X78827523Y-48822571D01*
X78922761Y-48774952D01*
%TO.C,R7*%
X73556666Y-49346380D02*
X73890000Y-48870190D01*
X74128095Y-49346380D02*
X74128095Y-48346380D01*
X73747142Y-48346380D01*
X73651904Y-48394000D01*
X73604285Y-48441619D01*
X73556666Y-48536857D01*
X73556666Y-48679714D01*
X73604285Y-48774952D01*
X73651904Y-48822571D01*
X73747142Y-48870190D01*
X74128095Y-48870190D01*
X73223333Y-48346380D02*
X72556666Y-48346380D01*
X72985238Y-49346380D01*
%TO.C,R6*%
X67492666Y-49346380D02*
X67826000Y-48870190D01*
X68064095Y-49346380D02*
X68064095Y-48346380D01*
X67683142Y-48346380D01*
X67587904Y-48394000D01*
X67540285Y-48441619D01*
X67492666Y-48536857D01*
X67492666Y-48679714D01*
X67540285Y-48774952D01*
X67587904Y-48822571D01*
X67683142Y-48870190D01*
X68064095Y-48870190D01*
X66635523Y-48346380D02*
X66826000Y-48346380D01*
X66921238Y-48394000D01*
X66968857Y-48441619D01*
X67064095Y-48584476D01*
X67111714Y-48774952D01*
X67111714Y-49155904D01*
X67064095Y-49251142D01*
X67016476Y-49298761D01*
X66921238Y-49346380D01*
X66730761Y-49346380D01*
X66635523Y-49298761D01*
X66587904Y-49251142D01*
X66540285Y-49155904D01*
X66540285Y-48917809D01*
X66587904Y-48822571D01*
X66635523Y-48774952D01*
X66730761Y-48727333D01*
X66921238Y-48727333D01*
X67016476Y-48774952D01*
X67064095Y-48822571D01*
X67111714Y-48917809D01*
%TO.C,R5*%
X61396666Y-49346380D02*
X61730000Y-48870190D01*
X61968095Y-49346380D02*
X61968095Y-48346380D01*
X61587142Y-48346380D01*
X61491904Y-48394000D01*
X61444285Y-48441619D01*
X61396666Y-48536857D01*
X61396666Y-48679714D01*
X61444285Y-48774952D01*
X61491904Y-48822571D01*
X61587142Y-48870190D01*
X61968095Y-48870190D01*
X60491904Y-48346380D02*
X60968095Y-48346380D01*
X61015714Y-48822571D01*
X60968095Y-48774952D01*
X60872857Y-48727333D01*
X60634761Y-48727333D01*
X60539523Y-48774952D01*
X60491904Y-48822571D01*
X60444285Y-48917809D01*
X60444285Y-49155904D01*
X60491904Y-49251142D01*
X60539523Y-49298761D01*
X60634761Y-49346380D01*
X60872857Y-49346380D01*
X60968095Y-49298761D01*
X61015714Y-49251142D01*
%TO.C,R4*%
X55300666Y-49346380D02*
X55634000Y-48870190D01*
X55872095Y-49346380D02*
X55872095Y-48346380D01*
X55491142Y-48346380D01*
X55395904Y-48394000D01*
X55348285Y-48441619D01*
X55300666Y-48536857D01*
X55300666Y-48679714D01*
X55348285Y-48774952D01*
X55395904Y-48822571D01*
X55491142Y-48870190D01*
X55872095Y-48870190D01*
X54443523Y-48679714D02*
X54443523Y-49346380D01*
X54681619Y-48298761D02*
X54919714Y-49013047D01*
X54300666Y-49013047D01*
%TO.C,R3*%
X49204666Y-49346380D02*
X49538000Y-48870190D01*
X49776095Y-49346380D02*
X49776095Y-48346380D01*
X49395142Y-48346380D01*
X49299904Y-48394000D01*
X49252285Y-48441619D01*
X49204666Y-48536857D01*
X49204666Y-48679714D01*
X49252285Y-48774952D01*
X49299904Y-48822571D01*
X49395142Y-48870190D01*
X49776095Y-48870190D01*
X48871333Y-48346380D02*
X48252285Y-48346380D01*
X48585619Y-48727333D01*
X48442761Y-48727333D01*
X48347523Y-48774952D01*
X48299904Y-48822571D01*
X48252285Y-48917809D01*
X48252285Y-49155904D01*
X48299904Y-49251142D01*
X48347523Y-49298761D01*
X48442761Y-49346380D01*
X48728476Y-49346380D01*
X48823714Y-49298761D01*
X48871333Y-49251142D01*
%TO.C,R2*%
X43076666Y-49346380D02*
X43410000Y-48870190D01*
X43648095Y-49346380D02*
X43648095Y-48346380D01*
X43267142Y-48346380D01*
X43171904Y-48394000D01*
X43124285Y-48441619D01*
X43076666Y-48536857D01*
X43076666Y-48679714D01*
X43124285Y-48774952D01*
X43171904Y-48822571D01*
X43267142Y-48870190D01*
X43648095Y-48870190D01*
X42695714Y-48441619D02*
X42648095Y-48394000D01*
X42552857Y-48346380D01*
X42314761Y-48346380D01*
X42219523Y-48394000D01*
X42171904Y-48441619D01*
X42124285Y-48536857D01*
X42124285Y-48632095D01*
X42171904Y-48774952D01*
X42743333Y-49346380D01*
X42124285Y-49346380D01*
%TO.C,R1*%
X36980666Y-49346380D02*
X37314000Y-48870190D01*
X37552095Y-49346380D02*
X37552095Y-48346380D01*
X37171142Y-48346380D01*
X37075904Y-48394000D01*
X37028285Y-48441619D01*
X36980666Y-48536857D01*
X36980666Y-48679714D01*
X37028285Y-48774952D01*
X37075904Y-48822571D01*
X37171142Y-48870190D01*
X37552095Y-48870190D01*
X36028285Y-49346380D02*
X36599714Y-49346380D01*
X36314000Y-49346380D02*
X36314000Y-48346380D01*
X36409238Y-48489238D01*
X36504476Y-48584476D01*
X36599714Y-48632095D01*
%TD*%
M02*
