%TF.GenerationSoftware,KiCad,Pcbnew,(5.1.8)-1*%
%TF.CreationDate,2021-12-10T09:09:34+01:00*%
%TF.ProjectId,FirePlaceLedmatrix,46697265-506c-4616-9365-4c65646d6174,rev?*%
%TF.SameCoordinates,Original*%
%TF.FileFunction,Soldermask,Top*%
%TF.FilePolarity,Negative*%
%FSLAX46Y46*%
G04 Gerber Fmt 4.6, Leading zero omitted, Abs format (unit mm)*
G04 Created by KiCad (PCBNEW (5.1.8)-1) date 2021-12-10 09:09:34*
%MOMM*%
%LPD*%
G01*
G04 APERTURE LIST*
%ADD10O,1.700000X1.700000*%
%ADD11R,1.700000X1.700000*%
%ADD12C,1.800000*%
%ADD13R,1.800000X1.800000*%
G04 APERTURE END LIST*
D10*
%TO.C,J3*%
X86360000Y-89916000D03*
X86360000Y-87376000D03*
X86360000Y-84836000D03*
X86360000Y-82296000D03*
X86360000Y-79756000D03*
X86360000Y-77216000D03*
X86360000Y-74676000D03*
X86360000Y-72136000D03*
X86360000Y-69596000D03*
D11*
X86360000Y-67056000D03*
%TD*%
D10*
%TO.C,J2*%
X33782000Y-89916000D03*
X33782000Y-87376000D03*
X33782000Y-84836000D03*
X33782000Y-82296000D03*
X33782000Y-79756000D03*
X33782000Y-77216000D03*
X33782000Y-74676000D03*
X33782000Y-72136000D03*
X33782000Y-69596000D03*
D11*
X33782000Y-67056000D03*
%TD*%
D12*
%TO.C,D64*%
X82550000Y-89154000D03*
D13*
X80010000Y-89154000D03*
%TD*%
D12*
%TO.C,D63*%
X76454000Y-89154000D03*
D13*
X73914000Y-89154000D03*
%TD*%
D12*
%TO.C,D62*%
X70358000Y-89154000D03*
D13*
X67818000Y-89154000D03*
%TD*%
D12*
%TO.C,D61*%
X64262000Y-89154000D03*
D13*
X61722000Y-89154000D03*
%TD*%
D12*
%TO.C,D60*%
X58166000Y-89154000D03*
D13*
X55626000Y-89154000D03*
%TD*%
D12*
%TO.C,D59*%
X52070000Y-89154000D03*
D13*
X49530000Y-89154000D03*
%TD*%
D12*
%TO.C,D58*%
X45974000Y-89154000D03*
D13*
X43434000Y-89154000D03*
%TD*%
D12*
%TO.C,D57*%
X39878000Y-89154000D03*
D13*
X37338000Y-89154000D03*
%TD*%
D12*
%TO.C,D56*%
X82550000Y-84074000D03*
D13*
X80010000Y-84074000D03*
%TD*%
D12*
%TO.C,D55*%
X76454000Y-84074000D03*
D13*
X73914000Y-84074000D03*
%TD*%
D12*
%TO.C,D54*%
X70358000Y-84074000D03*
D13*
X67818000Y-84074000D03*
%TD*%
D12*
%TO.C,D53*%
X64262000Y-84074000D03*
D13*
X61722000Y-84074000D03*
%TD*%
D12*
%TO.C,D52*%
X58166000Y-84074000D03*
D13*
X55626000Y-84074000D03*
%TD*%
D12*
%TO.C,D51*%
X52070000Y-84074000D03*
D13*
X49530000Y-84074000D03*
%TD*%
D12*
%TO.C,D50*%
X45974000Y-84074000D03*
D13*
X43434000Y-84074000D03*
%TD*%
D12*
%TO.C,D49*%
X39878000Y-84074000D03*
D13*
X37338000Y-84074000D03*
%TD*%
D12*
%TO.C,D48*%
X82550000Y-79248000D03*
D13*
X80010000Y-79248000D03*
%TD*%
D12*
%TO.C,D47*%
X76454000Y-79248000D03*
D13*
X73914000Y-79248000D03*
%TD*%
D12*
%TO.C,D46*%
X70358000Y-79248000D03*
D13*
X67818000Y-79248000D03*
%TD*%
D12*
%TO.C,D45*%
X64262000Y-79248000D03*
D13*
X61722000Y-79248000D03*
%TD*%
D12*
%TO.C,D44*%
X58166000Y-79248000D03*
D13*
X55626000Y-79248000D03*
%TD*%
D12*
%TO.C,D43*%
X52070000Y-79248000D03*
D13*
X49530000Y-79248000D03*
%TD*%
D12*
%TO.C,D42*%
X45974000Y-79248000D03*
D13*
X43434000Y-79248000D03*
%TD*%
D12*
%TO.C,D41*%
X39878000Y-79248000D03*
D13*
X37338000Y-79248000D03*
%TD*%
D12*
%TO.C,D40*%
X82550000Y-74168000D03*
D13*
X80010000Y-74168000D03*
%TD*%
D12*
%TO.C,D39*%
X76454000Y-74168000D03*
D13*
X73914000Y-74168000D03*
%TD*%
D12*
%TO.C,D38*%
X70358000Y-74168000D03*
D13*
X67818000Y-74168000D03*
%TD*%
D12*
%TO.C,D37*%
X64262000Y-74168000D03*
D13*
X61722000Y-74168000D03*
%TD*%
D12*
%TO.C,D36*%
X58166000Y-74168000D03*
D13*
X55626000Y-74168000D03*
%TD*%
D12*
%TO.C,D35*%
X52070000Y-74168000D03*
D13*
X49530000Y-74168000D03*
%TD*%
D12*
%TO.C,D34*%
X45974000Y-74168000D03*
D13*
X43434000Y-74168000D03*
%TD*%
D12*
%TO.C,D33*%
X39878000Y-74168000D03*
D13*
X37338000Y-74168000D03*
%TD*%
D12*
%TO.C,D32*%
X82550000Y-69088000D03*
D13*
X80010000Y-69088000D03*
%TD*%
D12*
%TO.C,D31*%
X76454000Y-69088000D03*
D13*
X73914000Y-69088000D03*
%TD*%
D12*
%TO.C,D30*%
X70358000Y-69088000D03*
D13*
X67818000Y-69088000D03*
%TD*%
D12*
%TO.C,D29*%
X64262000Y-69088000D03*
D13*
X61722000Y-69088000D03*
%TD*%
D12*
%TO.C,D28*%
X58166000Y-69088000D03*
D13*
X55626000Y-69088000D03*
%TD*%
D12*
%TO.C,D27*%
X52070000Y-69088000D03*
D13*
X49530000Y-69088000D03*
%TD*%
D12*
%TO.C,D26*%
X45974000Y-69088000D03*
D13*
X43434000Y-69088000D03*
%TD*%
D12*
%TO.C,D25*%
X39878000Y-69088000D03*
D13*
X37338000Y-69088000D03*
%TD*%
D12*
%TO.C,D24*%
X82550000Y-64262000D03*
D13*
X80010000Y-64262000D03*
%TD*%
D12*
%TO.C,D23*%
X76454000Y-64262000D03*
D13*
X73914000Y-64262000D03*
%TD*%
D12*
%TO.C,D22*%
X70358000Y-64262000D03*
D13*
X67818000Y-64262000D03*
%TD*%
D12*
%TO.C,D21*%
X64262000Y-64262000D03*
D13*
X61722000Y-64262000D03*
%TD*%
D12*
%TO.C,D20*%
X58166000Y-64262000D03*
D13*
X55626000Y-64262000D03*
%TD*%
D12*
%TO.C,D19*%
X52070000Y-64262000D03*
D13*
X49530000Y-64262000D03*
%TD*%
D12*
%TO.C,D18*%
X45974000Y-64262000D03*
D13*
X43434000Y-64262000D03*
%TD*%
D12*
%TO.C,D17*%
X39878000Y-64008000D03*
D13*
X37338000Y-64008000D03*
%TD*%
D12*
%TO.C,D16*%
X82550000Y-58928000D03*
D13*
X80010000Y-58928000D03*
%TD*%
D12*
%TO.C,D15*%
X76454000Y-58928000D03*
D13*
X73914000Y-58928000D03*
%TD*%
D12*
%TO.C,D14*%
X70358000Y-58928000D03*
D13*
X67818000Y-58928000D03*
%TD*%
D12*
%TO.C,D13*%
X64262000Y-58928000D03*
D13*
X61722000Y-58928000D03*
%TD*%
D12*
%TO.C,D12*%
X58166000Y-58928000D03*
D13*
X55626000Y-58928000D03*
%TD*%
D12*
%TO.C,D11*%
X52070000Y-58928000D03*
D13*
X49530000Y-58928000D03*
%TD*%
D12*
%TO.C,D10*%
X45974000Y-58928000D03*
D13*
X43434000Y-58928000D03*
%TD*%
D12*
%TO.C,D9*%
X39878000Y-58928000D03*
D13*
X37338000Y-58928000D03*
%TD*%
D12*
%TO.C,D8*%
X82550000Y-54102000D03*
D13*
X80010000Y-54102000D03*
%TD*%
D12*
%TO.C,D7*%
X76454000Y-54102000D03*
D13*
X73914000Y-54102000D03*
%TD*%
D12*
%TO.C,D6*%
X70358000Y-54102000D03*
D13*
X67818000Y-54102000D03*
%TD*%
D12*
%TO.C,D5*%
X64262000Y-54102000D03*
D13*
X61722000Y-54102000D03*
%TD*%
D12*
%TO.C,D4*%
X58166000Y-54102000D03*
D13*
X55626000Y-54102000D03*
%TD*%
D12*
%TO.C,D3*%
X52070000Y-54102000D03*
D13*
X49530000Y-54102000D03*
%TD*%
D12*
%TO.C,D2*%
X45974000Y-54102000D03*
D13*
X43434000Y-54102000D03*
%TD*%
D12*
%TO.C,D1*%
X39878000Y-54102000D03*
D13*
X37338000Y-54102000D03*
%TD*%
M02*
