%TF.GenerationSoftware,KiCad,Pcbnew,(5.1.8)-1*%
%TF.CreationDate,2021-12-10T09:09:34+01:00*%
%TF.ProjectId,FirePlaceLedmatrix,46697265-506c-4616-9365-4c65646d6174,rev?*%
%TF.SameCoordinates,Original*%
%TF.FileFunction,Legend,Top*%
%TF.FilePolarity,Positive*%
%FSLAX46Y46*%
G04 Gerber Fmt 4.6, Leading zero omitted, Abs format (unit mm)*
G04 Created by KiCad (PCBNEW (5.1.8)-1) date 2021-12-10 09:09:34*
%MOMM*%
%LPD*%
G01*
G04 APERTURE LIST*
%ADD10C,0.120000*%
%ADD11C,0.150000*%
G04 APERTURE END LIST*
D10*
%TO.C,J3*%
X85030000Y-65726000D02*
X86360000Y-65726000D01*
X85030000Y-67056000D02*
X85030000Y-65726000D01*
X85030000Y-68326000D02*
X87690000Y-68326000D01*
X87690000Y-68326000D02*
X87690000Y-91246000D01*
X85030000Y-68326000D02*
X85030000Y-91246000D01*
X85030000Y-91246000D02*
X87690000Y-91246000D01*
%TO.C,J2*%
X32452000Y-65726000D02*
X33782000Y-65726000D01*
X32452000Y-67056000D02*
X32452000Y-65726000D01*
X32452000Y-68326000D02*
X35112000Y-68326000D01*
X35112000Y-68326000D02*
X35112000Y-91246000D01*
X32452000Y-68326000D02*
X32452000Y-91246000D01*
X32452000Y-91246000D02*
X35112000Y-91246000D01*
%TO.C,D64*%
X79720000Y-90234000D02*
X79720000Y-90390000D01*
X79720000Y-87918000D02*
X79720000Y-88074000D01*
X82321130Y-90233837D02*
G75*
G02*
X80239039Y-90234000I-1041130J1079837D01*
G01*
X82321130Y-88074163D02*
G75*
G03*
X80239039Y-88074000I-1041130J-1079837D01*
G01*
X82952335Y-90232608D02*
G75*
G02*
X79720000Y-90389516I-1672335J1078608D01*
G01*
X82952335Y-88075392D02*
G75*
G03*
X79720000Y-87918484I-1672335J-1078608D01*
G01*
%TO.C,D63*%
X73624000Y-90234000D02*
X73624000Y-90390000D01*
X73624000Y-87918000D02*
X73624000Y-88074000D01*
X76225130Y-90233837D02*
G75*
G02*
X74143039Y-90234000I-1041130J1079837D01*
G01*
X76225130Y-88074163D02*
G75*
G03*
X74143039Y-88074000I-1041130J-1079837D01*
G01*
X76856335Y-90232608D02*
G75*
G02*
X73624000Y-90389516I-1672335J1078608D01*
G01*
X76856335Y-88075392D02*
G75*
G03*
X73624000Y-87918484I-1672335J-1078608D01*
G01*
%TO.C,D62*%
X67528000Y-90234000D02*
X67528000Y-90390000D01*
X67528000Y-87918000D02*
X67528000Y-88074000D01*
X70129130Y-90233837D02*
G75*
G02*
X68047039Y-90234000I-1041130J1079837D01*
G01*
X70129130Y-88074163D02*
G75*
G03*
X68047039Y-88074000I-1041130J-1079837D01*
G01*
X70760335Y-90232608D02*
G75*
G02*
X67528000Y-90389516I-1672335J1078608D01*
G01*
X70760335Y-88075392D02*
G75*
G03*
X67528000Y-87918484I-1672335J-1078608D01*
G01*
%TO.C,D61*%
X61432000Y-90234000D02*
X61432000Y-90390000D01*
X61432000Y-87918000D02*
X61432000Y-88074000D01*
X64033130Y-90233837D02*
G75*
G02*
X61951039Y-90234000I-1041130J1079837D01*
G01*
X64033130Y-88074163D02*
G75*
G03*
X61951039Y-88074000I-1041130J-1079837D01*
G01*
X64664335Y-90232608D02*
G75*
G02*
X61432000Y-90389516I-1672335J1078608D01*
G01*
X64664335Y-88075392D02*
G75*
G03*
X61432000Y-87918484I-1672335J-1078608D01*
G01*
%TO.C,D60*%
X55336000Y-90234000D02*
X55336000Y-90390000D01*
X55336000Y-87918000D02*
X55336000Y-88074000D01*
X57937130Y-90233837D02*
G75*
G02*
X55855039Y-90234000I-1041130J1079837D01*
G01*
X57937130Y-88074163D02*
G75*
G03*
X55855039Y-88074000I-1041130J-1079837D01*
G01*
X58568335Y-90232608D02*
G75*
G02*
X55336000Y-90389516I-1672335J1078608D01*
G01*
X58568335Y-88075392D02*
G75*
G03*
X55336000Y-87918484I-1672335J-1078608D01*
G01*
%TO.C,D59*%
X49240000Y-90234000D02*
X49240000Y-90390000D01*
X49240000Y-87918000D02*
X49240000Y-88074000D01*
X51841130Y-90233837D02*
G75*
G02*
X49759039Y-90234000I-1041130J1079837D01*
G01*
X51841130Y-88074163D02*
G75*
G03*
X49759039Y-88074000I-1041130J-1079837D01*
G01*
X52472335Y-90232608D02*
G75*
G02*
X49240000Y-90389516I-1672335J1078608D01*
G01*
X52472335Y-88075392D02*
G75*
G03*
X49240000Y-87918484I-1672335J-1078608D01*
G01*
%TO.C,D58*%
X43144000Y-90234000D02*
X43144000Y-90390000D01*
X43144000Y-87918000D02*
X43144000Y-88074000D01*
X45745130Y-90233837D02*
G75*
G02*
X43663039Y-90234000I-1041130J1079837D01*
G01*
X45745130Y-88074163D02*
G75*
G03*
X43663039Y-88074000I-1041130J-1079837D01*
G01*
X46376335Y-90232608D02*
G75*
G02*
X43144000Y-90389516I-1672335J1078608D01*
G01*
X46376335Y-88075392D02*
G75*
G03*
X43144000Y-87918484I-1672335J-1078608D01*
G01*
%TO.C,D57*%
X37048000Y-90234000D02*
X37048000Y-90390000D01*
X37048000Y-87918000D02*
X37048000Y-88074000D01*
X39649130Y-90233837D02*
G75*
G02*
X37567039Y-90234000I-1041130J1079837D01*
G01*
X39649130Y-88074163D02*
G75*
G03*
X37567039Y-88074000I-1041130J-1079837D01*
G01*
X40280335Y-90232608D02*
G75*
G02*
X37048000Y-90389516I-1672335J1078608D01*
G01*
X40280335Y-88075392D02*
G75*
G03*
X37048000Y-87918484I-1672335J-1078608D01*
G01*
%TO.C,D56*%
X79720000Y-85154000D02*
X79720000Y-85310000D01*
X79720000Y-82838000D02*
X79720000Y-82994000D01*
X82321130Y-85153837D02*
G75*
G02*
X80239039Y-85154000I-1041130J1079837D01*
G01*
X82321130Y-82994163D02*
G75*
G03*
X80239039Y-82994000I-1041130J-1079837D01*
G01*
X82952335Y-85152608D02*
G75*
G02*
X79720000Y-85309516I-1672335J1078608D01*
G01*
X82952335Y-82995392D02*
G75*
G03*
X79720000Y-82838484I-1672335J-1078608D01*
G01*
%TO.C,D55*%
X73624000Y-85154000D02*
X73624000Y-85310000D01*
X73624000Y-82838000D02*
X73624000Y-82994000D01*
X76225130Y-85153837D02*
G75*
G02*
X74143039Y-85154000I-1041130J1079837D01*
G01*
X76225130Y-82994163D02*
G75*
G03*
X74143039Y-82994000I-1041130J-1079837D01*
G01*
X76856335Y-85152608D02*
G75*
G02*
X73624000Y-85309516I-1672335J1078608D01*
G01*
X76856335Y-82995392D02*
G75*
G03*
X73624000Y-82838484I-1672335J-1078608D01*
G01*
%TO.C,D54*%
X67528000Y-85154000D02*
X67528000Y-85310000D01*
X67528000Y-82838000D02*
X67528000Y-82994000D01*
X70129130Y-85153837D02*
G75*
G02*
X68047039Y-85154000I-1041130J1079837D01*
G01*
X70129130Y-82994163D02*
G75*
G03*
X68047039Y-82994000I-1041130J-1079837D01*
G01*
X70760335Y-85152608D02*
G75*
G02*
X67528000Y-85309516I-1672335J1078608D01*
G01*
X70760335Y-82995392D02*
G75*
G03*
X67528000Y-82838484I-1672335J-1078608D01*
G01*
%TO.C,D53*%
X61432000Y-85154000D02*
X61432000Y-85310000D01*
X61432000Y-82838000D02*
X61432000Y-82994000D01*
X64033130Y-85153837D02*
G75*
G02*
X61951039Y-85154000I-1041130J1079837D01*
G01*
X64033130Y-82994163D02*
G75*
G03*
X61951039Y-82994000I-1041130J-1079837D01*
G01*
X64664335Y-85152608D02*
G75*
G02*
X61432000Y-85309516I-1672335J1078608D01*
G01*
X64664335Y-82995392D02*
G75*
G03*
X61432000Y-82838484I-1672335J-1078608D01*
G01*
%TO.C,D52*%
X55336000Y-85154000D02*
X55336000Y-85310000D01*
X55336000Y-82838000D02*
X55336000Y-82994000D01*
X57937130Y-85153837D02*
G75*
G02*
X55855039Y-85154000I-1041130J1079837D01*
G01*
X57937130Y-82994163D02*
G75*
G03*
X55855039Y-82994000I-1041130J-1079837D01*
G01*
X58568335Y-85152608D02*
G75*
G02*
X55336000Y-85309516I-1672335J1078608D01*
G01*
X58568335Y-82995392D02*
G75*
G03*
X55336000Y-82838484I-1672335J-1078608D01*
G01*
%TO.C,D51*%
X49240000Y-85154000D02*
X49240000Y-85310000D01*
X49240000Y-82838000D02*
X49240000Y-82994000D01*
X51841130Y-85153837D02*
G75*
G02*
X49759039Y-85154000I-1041130J1079837D01*
G01*
X51841130Y-82994163D02*
G75*
G03*
X49759039Y-82994000I-1041130J-1079837D01*
G01*
X52472335Y-85152608D02*
G75*
G02*
X49240000Y-85309516I-1672335J1078608D01*
G01*
X52472335Y-82995392D02*
G75*
G03*
X49240000Y-82838484I-1672335J-1078608D01*
G01*
%TO.C,D50*%
X43144000Y-85154000D02*
X43144000Y-85310000D01*
X43144000Y-82838000D02*
X43144000Y-82994000D01*
X45745130Y-85153837D02*
G75*
G02*
X43663039Y-85154000I-1041130J1079837D01*
G01*
X45745130Y-82994163D02*
G75*
G03*
X43663039Y-82994000I-1041130J-1079837D01*
G01*
X46376335Y-85152608D02*
G75*
G02*
X43144000Y-85309516I-1672335J1078608D01*
G01*
X46376335Y-82995392D02*
G75*
G03*
X43144000Y-82838484I-1672335J-1078608D01*
G01*
%TO.C,D49*%
X37048000Y-85154000D02*
X37048000Y-85310000D01*
X37048000Y-82838000D02*
X37048000Y-82994000D01*
X39649130Y-85153837D02*
G75*
G02*
X37567039Y-85154000I-1041130J1079837D01*
G01*
X39649130Y-82994163D02*
G75*
G03*
X37567039Y-82994000I-1041130J-1079837D01*
G01*
X40280335Y-85152608D02*
G75*
G02*
X37048000Y-85309516I-1672335J1078608D01*
G01*
X40280335Y-82995392D02*
G75*
G03*
X37048000Y-82838484I-1672335J-1078608D01*
G01*
%TO.C,D48*%
X79720000Y-80328000D02*
X79720000Y-80484000D01*
X79720000Y-78012000D02*
X79720000Y-78168000D01*
X82321130Y-80327837D02*
G75*
G02*
X80239039Y-80328000I-1041130J1079837D01*
G01*
X82321130Y-78168163D02*
G75*
G03*
X80239039Y-78168000I-1041130J-1079837D01*
G01*
X82952335Y-80326608D02*
G75*
G02*
X79720000Y-80483516I-1672335J1078608D01*
G01*
X82952335Y-78169392D02*
G75*
G03*
X79720000Y-78012484I-1672335J-1078608D01*
G01*
%TO.C,D47*%
X73624000Y-80328000D02*
X73624000Y-80484000D01*
X73624000Y-78012000D02*
X73624000Y-78168000D01*
X76225130Y-80327837D02*
G75*
G02*
X74143039Y-80328000I-1041130J1079837D01*
G01*
X76225130Y-78168163D02*
G75*
G03*
X74143039Y-78168000I-1041130J-1079837D01*
G01*
X76856335Y-80326608D02*
G75*
G02*
X73624000Y-80483516I-1672335J1078608D01*
G01*
X76856335Y-78169392D02*
G75*
G03*
X73624000Y-78012484I-1672335J-1078608D01*
G01*
%TO.C,D46*%
X67528000Y-80328000D02*
X67528000Y-80484000D01*
X67528000Y-78012000D02*
X67528000Y-78168000D01*
X70129130Y-80327837D02*
G75*
G02*
X68047039Y-80328000I-1041130J1079837D01*
G01*
X70129130Y-78168163D02*
G75*
G03*
X68047039Y-78168000I-1041130J-1079837D01*
G01*
X70760335Y-80326608D02*
G75*
G02*
X67528000Y-80483516I-1672335J1078608D01*
G01*
X70760335Y-78169392D02*
G75*
G03*
X67528000Y-78012484I-1672335J-1078608D01*
G01*
%TO.C,D45*%
X61432000Y-80328000D02*
X61432000Y-80484000D01*
X61432000Y-78012000D02*
X61432000Y-78168000D01*
X64033130Y-80327837D02*
G75*
G02*
X61951039Y-80328000I-1041130J1079837D01*
G01*
X64033130Y-78168163D02*
G75*
G03*
X61951039Y-78168000I-1041130J-1079837D01*
G01*
X64664335Y-80326608D02*
G75*
G02*
X61432000Y-80483516I-1672335J1078608D01*
G01*
X64664335Y-78169392D02*
G75*
G03*
X61432000Y-78012484I-1672335J-1078608D01*
G01*
%TO.C,D44*%
X55336000Y-80328000D02*
X55336000Y-80484000D01*
X55336000Y-78012000D02*
X55336000Y-78168000D01*
X57937130Y-80327837D02*
G75*
G02*
X55855039Y-80328000I-1041130J1079837D01*
G01*
X57937130Y-78168163D02*
G75*
G03*
X55855039Y-78168000I-1041130J-1079837D01*
G01*
X58568335Y-80326608D02*
G75*
G02*
X55336000Y-80483516I-1672335J1078608D01*
G01*
X58568335Y-78169392D02*
G75*
G03*
X55336000Y-78012484I-1672335J-1078608D01*
G01*
%TO.C,D43*%
X49240000Y-80328000D02*
X49240000Y-80484000D01*
X49240000Y-78012000D02*
X49240000Y-78168000D01*
X51841130Y-80327837D02*
G75*
G02*
X49759039Y-80328000I-1041130J1079837D01*
G01*
X51841130Y-78168163D02*
G75*
G03*
X49759039Y-78168000I-1041130J-1079837D01*
G01*
X52472335Y-80326608D02*
G75*
G02*
X49240000Y-80483516I-1672335J1078608D01*
G01*
X52472335Y-78169392D02*
G75*
G03*
X49240000Y-78012484I-1672335J-1078608D01*
G01*
%TO.C,D42*%
X43144000Y-80328000D02*
X43144000Y-80484000D01*
X43144000Y-78012000D02*
X43144000Y-78168000D01*
X45745130Y-80327837D02*
G75*
G02*
X43663039Y-80328000I-1041130J1079837D01*
G01*
X45745130Y-78168163D02*
G75*
G03*
X43663039Y-78168000I-1041130J-1079837D01*
G01*
X46376335Y-80326608D02*
G75*
G02*
X43144000Y-80483516I-1672335J1078608D01*
G01*
X46376335Y-78169392D02*
G75*
G03*
X43144000Y-78012484I-1672335J-1078608D01*
G01*
%TO.C,D41*%
X37048000Y-80328000D02*
X37048000Y-80484000D01*
X37048000Y-78012000D02*
X37048000Y-78168000D01*
X39649130Y-80327837D02*
G75*
G02*
X37567039Y-80328000I-1041130J1079837D01*
G01*
X39649130Y-78168163D02*
G75*
G03*
X37567039Y-78168000I-1041130J-1079837D01*
G01*
X40280335Y-80326608D02*
G75*
G02*
X37048000Y-80483516I-1672335J1078608D01*
G01*
X40280335Y-78169392D02*
G75*
G03*
X37048000Y-78012484I-1672335J-1078608D01*
G01*
%TO.C,D40*%
X79720000Y-75248000D02*
X79720000Y-75404000D01*
X79720000Y-72932000D02*
X79720000Y-73088000D01*
X82321130Y-75247837D02*
G75*
G02*
X80239039Y-75248000I-1041130J1079837D01*
G01*
X82321130Y-73088163D02*
G75*
G03*
X80239039Y-73088000I-1041130J-1079837D01*
G01*
X82952335Y-75246608D02*
G75*
G02*
X79720000Y-75403516I-1672335J1078608D01*
G01*
X82952335Y-73089392D02*
G75*
G03*
X79720000Y-72932484I-1672335J-1078608D01*
G01*
%TO.C,D39*%
X73624000Y-75248000D02*
X73624000Y-75404000D01*
X73624000Y-72932000D02*
X73624000Y-73088000D01*
X76225130Y-75247837D02*
G75*
G02*
X74143039Y-75248000I-1041130J1079837D01*
G01*
X76225130Y-73088163D02*
G75*
G03*
X74143039Y-73088000I-1041130J-1079837D01*
G01*
X76856335Y-75246608D02*
G75*
G02*
X73624000Y-75403516I-1672335J1078608D01*
G01*
X76856335Y-73089392D02*
G75*
G03*
X73624000Y-72932484I-1672335J-1078608D01*
G01*
%TO.C,D38*%
X67528000Y-75248000D02*
X67528000Y-75404000D01*
X67528000Y-72932000D02*
X67528000Y-73088000D01*
X70129130Y-75247837D02*
G75*
G02*
X68047039Y-75248000I-1041130J1079837D01*
G01*
X70129130Y-73088163D02*
G75*
G03*
X68047039Y-73088000I-1041130J-1079837D01*
G01*
X70760335Y-75246608D02*
G75*
G02*
X67528000Y-75403516I-1672335J1078608D01*
G01*
X70760335Y-73089392D02*
G75*
G03*
X67528000Y-72932484I-1672335J-1078608D01*
G01*
%TO.C,D37*%
X61432000Y-75248000D02*
X61432000Y-75404000D01*
X61432000Y-72932000D02*
X61432000Y-73088000D01*
X64033130Y-75247837D02*
G75*
G02*
X61951039Y-75248000I-1041130J1079837D01*
G01*
X64033130Y-73088163D02*
G75*
G03*
X61951039Y-73088000I-1041130J-1079837D01*
G01*
X64664335Y-75246608D02*
G75*
G02*
X61432000Y-75403516I-1672335J1078608D01*
G01*
X64664335Y-73089392D02*
G75*
G03*
X61432000Y-72932484I-1672335J-1078608D01*
G01*
%TO.C,D36*%
X55336000Y-75248000D02*
X55336000Y-75404000D01*
X55336000Y-72932000D02*
X55336000Y-73088000D01*
X57937130Y-75247837D02*
G75*
G02*
X55855039Y-75248000I-1041130J1079837D01*
G01*
X57937130Y-73088163D02*
G75*
G03*
X55855039Y-73088000I-1041130J-1079837D01*
G01*
X58568335Y-75246608D02*
G75*
G02*
X55336000Y-75403516I-1672335J1078608D01*
G01*
X58568335Y-73089392D02*
G75*
G03*
X55336000Y-72932484I-1672335J-1078608D01*
G01*
%TO.C,D35*%
X49240000Y-75248000D02*
X49240000Y-75404000D01*
X49240000Y-72932000D02*
X49240000Y-73088000D01*
X51841130Y-75247837D02*
G75*
G02*
X49759039Y-75248000I-1041130J1079837D01*
G01*
X51841130Y-73088163D02*
G75*
G03*
X49759039Y-73088000I-1041130J-1079837D01*
G01*
X52472335Y-75246608D02*
G75*
G02*
X49240000Y-75403516I-1672335J1078608D01*
G01*
X52472335Y-73089392D02*
G75*
G03*
X49240000Y-72932484I-1672335J-1078608D01*
G01*
%TO.C,D34*%
X43144000Y-75248000D02*
X43144000Y-75404000D01*
X43144000Y-72932000D02*
X43144000Y-73088000D01*
X45745130Y-75247837D02*
G75*
G02*
X43663039Y-75248000I-1041130J1079837D01*
G01*
X45745130Y-73088163D02*
G75*
G03*
X43663039Y-73088000I-1041130J-1079837D01*
G01*
X46376335Y-75246608D02*
G75*
G02*
X43144000Y-75403516I-1672335J1078608D01*
G01*
X46376335Y-73089392D02*
G75*
G03*
X43144000Y-72932484I-1672335J-1078608D01*
G01*
%TO.C,D33*%
X37048000Y-75248000D02*
X37048000Y-75404000D01*
X37048000Y-72932000D02*
X37048000Y-73088000D01*
X39649130Y-75247837D02*
G75*
G02*
X37567039Y-75248000I-1041130J1079837D01*
G01*
X39649130Y-73088163D02*
G75*
G03*
X37567039Y-73088000I-1041130J-1079837D01*
G01*
X40280335Y-75246608D02*
G75*
G02*
X37048000Y-75403516I-1672335J1078608D01*
G01*
X40280335Y-73089392D02*
G75*
G03*
X37048000Y-72932484I-1672335J-1078608D01*
G01*
%TO.C,D32*%
X79720000Y-70168000D02*
X79720000Y-70324000D01*
X79720000Y-67852000D02*
X79720000Y-68008000D01*
X82321130Y-70167837D02*
G75*
G02*
X80239039Y-70168000I-1041130J1079837D01*
G01*
X82321130Y-68008163D02*
G75*
G03*
X80239039Y-68008000I-1041130J-1079837D01*
G01*
X82952335Y-70166608D02*
G75*
G02*
X79720000Y-70323516I-1672335J1078608D01*
G01*
X82952335Y-68009392D02*
G75*
G03*
X79720000Y-67852484I-1672335J-1078608D01*
G01*
%TO.C,D31*%
X73624000Y-70168000D02*
X73624000Y-70324000D01*
X73624000Y-67852000D02*
X73624000Y-68008000D01*
X76225130Y-70167837D02*
G75*
G02*
X74143039Y-70168000I-1041130J1079837D01*
G01*
X76225130Y-68008163D02*
G75*
G03*
X74143039Y-68008000I-1041130J-1079837D01*
G01*
X76856335Y-70166608D02*
G75*
G02*
X73624000Y-70323516I-1672335J1078608D01*
G01*
X76856335Y-68009392D02*
G75*
G03*
X73624000Y-67852484I-1672335J-1078608D01*
G01*
%TO.C,D30*%
X67528000Y-70168000D02*
X67528000Y-70324000D01*
X67528000Y-67852000D02*
X67528000Y-68008000D01*
X70129130Y-70167837D02*
G75*
G02*
X68047039Y-70168000I-1041130J1079837D01*
G01*
X70129130Y-68008163D02*
G75*
G03*
X68047039Y-68008000I-1041130J-1079837D01*
G01*
X70760335Y-70166608D02*
G75*
G02*
X67528000Y-70323516I-1672335J1078608D01*
G01*
X70760335Y-68009392D02*
G75*
G03*
X67528000Y-67852484I-1672335J-1078608D01*
G01*
%TO.C,D29*%
X61432000Y-70168000D02*
X61432000Y-70324000D01*
X61432000Y-67852000D02*
X61432000Y-68008000D01*
X64033130Y-70167837D02*
G75*
G02*
X61951039Y-70168000I-1041130J1079837D01*
G01*
X64033130Y-68008163D02*
G75*
G03*
X61951039Y-68008000I-1041130J-1079837D01*
G01*
X64664335Y-70166608D02*
G75*
G02*
X61432000Y-70323516I-1672335J1078608D01*
G01*
X64664335Y-68009392D02*
G75*
G03*
X61432000Y-67852484I-1672335J-1078608D01*
G01*
%TO.C,D28*%
X55336000Y-70168000D02*
X55336000Y-70324000D01*
X55336000Y-67852000D02*
X55336000Y-68008000D01*
X57937130Y-70167837D02*
G75*
G02*
X55855039Y-70168000I-1041130J1079837D01*
G01*
X57937130Y-68008163D02*
G75*
G03*
X55855039Y-68008000I-1041130J-1079837D01*
G01*
X58568335Y-70166608D02*
G75*
G02*
X55336000Y-70323516I-1672335J1078608D01*
G01*
X58568335Y-68009392D02*
G75*
G03*
X55336000Y-67852484I-1672335J-1078608D01*
G01*
%TO.C,D27*%
X49240000Y-70168000D02*
X49240000Y-70324000D01*
X49240000Y-67852000D02*
X49240000Y-68008000D01*
X51841130Y-70167837D02*
G75*
G02*
X49759039Y-70168000I-1041130J1079837D01*
G01*
X51841130Y-68008163D02*
G75*
G03*
X49759039Y-68008000I-1041130J-1079837D01*
G01*
X52472335Y-70166608D02*
G75*
G02*
X49240000Y-70323516I-1672335J1078608D01*
G01*
X52472335Y-68009392D02*
G75*
G03*
X49240000Y-67852484I-1672335J-1078608D01*
G01*
%TO.C,D26*%
X43144000Y-70168000D02*
X43144000Y-70324000D01*
X43144000Y-67852000D02*
X43144000Y-68008000D01*
X45745130Y-70167837D02*
G75*
G02*
X43663039Y-70168000I-1041130J1079837D01*
G01*
X45745130Y-68008163D02*
G75*
G03*
X43663039Y-68008000I-1041130J-1079837D01*
G01*
X46376335Y-70166608D02*
G75*
G02*
X43144000Y-70323516I-1672335J1078608D01*
G01*
X46376335Y-68009392D02*
G75*
G03*
X43144000Y-67852484I-1672335J-1078608D01*
G01*
%TO.C,D25*%
X37048000Y-70168000D02*
X37048000Y-70324000D01*
X37048000Y-67852000D02*
X37048000Y-68008000D01*
X39649130Y-70167837D02*
G75*
G02*
X37567039Y-70168000I-1041130J1079837D01*
G01*
X39649130Y-68008163D02*
G75*
G03*
X37567039Y-68008000I-1041130J-1079837D01*
G01*
X40280335Y-70166608D02*
G75*
G02*
X37048000Y-70323516I-1672335J1078608D01*
G01*
X40280335Y-68009392D02*
G75*
G03*
X37048000Y-67852484I-1672335J-1078608D01*
G01*
%TO.C,D24*%
X79720000Y-65342000D02*
X79720000Y-65498000D01*
X79720000Y-63026000D02*
X79720000Y-63182000D01*
X82321130Y-65341837D02*
G75*
G02*
X80239039Y-65342000I-1041130J1079837D01*
G01*
X82321130Y-63182163D02*
G75*
G03*
X80239039Y-63182000I-1041130J-1079837D01*
G01*
X82952335Y-65340608D02*
G75*
G02*
X79720000Y-65497516I-1672335J1078608D01*
G01*
X82952335Y-63183392D02*
G75*
G03*
X79720000Y-63026484I-1672335J-1078608D01*
G01*
%TO.C,D23*%
X73624000Y-65342000D02*
X73624000Y-65498000D01*
X73624000Y-63026000D02*
X73624000Y-63182000D01*
X76225130Y-65341837D02*
G75*
G02*
X74143039Y-65342000I-1041130J1079837D01*
G01*
X76225130Y-63182163D02*
G75*
G03*
X74143039Y-63182000I-1041130J-1079837D01*
G01*
X76856335Y-65340608D02*
G75*
G02*
X73624000Y-65497516I-1672335J1078608D01*
G01*
X76856335Y-63183392D02*
G75*
G03*
X73624000Y-63026484I-1672335J-1078608D01*
G01*
%TO.C,D22*%
X67528000Y-65342000D02*
X67528000Y-65498000D01*
X67528000Y-63026000D02*
X67528000Y-63182000D01*
X70129130Y-65341837D02*
G75*
G02*
X68047039Y-65342000I-1041130J1079837D01*
G01*
X70129130Y-63182163D02*
G75*
G03*
X68047039Y-63182000I-1041130J-1079837D01*
G01*
X70760335Y-65340608D02*
G75*
G02*
X67528000Y-65497516I-1672335J1078608D01*
G01*
X70760335Y-63183392D02*
G75*
G03*
X67528000Y-63026484I-1672335J-1078608D01*
G01*
%TO.C,D21*%
X61432000Y-65342000D02*
X61432000Y-65498000D01*
X61432000Y-63026000D02*
X61432000Y-63182000D01*
X64033130Y-65341837D02*
G75*
G02*
X61951039Y-65342000I-1041130J1079837D01*
G01*
X64033130Y-63182163D02*
G75*
G03*
X61951039Y-63182000I-1041130J-1079837D01*
G01*
X64664335Y-65340608D02*
G75*
G02*
X61432000Y-65497516I-1672335J1078608D01*
G01*
X64664335Y-63183392D02*
G75*
G03*
X61432000Y-63026484I-1672335J-1078608D01*
G01*
%TO.C,D20*%
X55336000Y-65342000D02*
X55336000Y-65498000D01*
X55336000Y-63026000D02*
X55336000Y-63182000D01*
X57937130Y-65341837D02*
G75*
G02*
X55855039Y-65342000I-1041130J1079837D01*
G01*
X57937130Y-63182163D02*
G75*
G03*
X55855039Y-63182000I-1041130J-1079837D01*
G01*
X58568335Y-65340608D02*
G75*
G02*
X55336000Y-65497516I-1672335J1078608D01*
G01*
X58568335Y-63183392D02*
G75*
G03*
X55336000Y-63026484I-1672335J-1078608D01*
G01*
%TO.C,D19*%
X49240000Y-65342000D02*
X49240000Y-65498000D01*
X49240000Y-63026000D02*
X49240000Y-63182000D01*
X51841130Y-65341837D02*
G75*
G02*
X49759039Y-65342000I-1041130J1079837D01*
G01*
X51841130Y-63182163D02*
G75*
G03*
X49759039Y-63182000I-1041130J-1079837D01*
G01*
X52472335Y-65340608D02*
G75*
G02*
X49240000Y-65497516I-1672335J1078608D01*
G01*
X52472335Y-63183392D02*
G75*
G03*
X49240000Y-63026484I-1672335J-1078608D01*
G01*
%TO.C,D18*%
X43144000Y-65342000D02*
X43144000Y-65498000D01*
X43144000Y-63026000D02*
X43144000Y-63182000D01*
X45745130Y-65341837D02*
G75*
G02*
X43663039Y-65342000I-1041130J1079837D01*
G01*
X45745130Y-63182163D02*
G75*
G03*
X43663039Y-63182000I-1041130J-1079837D01*
G01*
X46376335Y-65340608D02*
G75*
G02*
X43144000Y-65497516I-1672335J1078608D01*
G01*
X46376335Y-63183392D02*
G75*
G03*
X43144000Y-63026484I-1672335J-1078608D01*
G01*
%TO.C,D17*%
X37048000Y-65088000D02*
X37048000Y-65244000D01*
X37048000Y-62772000D02*
X37048000Y-62928000D01*
X39649130Y-65087837D02*
G75*
G02*
X37567039Y-65088000I-1041130J1079837D01*
G01*
X39649130Y-62928163D02*
G75*
G03*
X37567039Y-62928000I-1041130J-1079837D01*
G01*
X40280335Y-65086608D02*
G75*
G02*
X37048000Y-65243516I-1672335J1078608D01*
G01*
X40280335Y-62929392D02*
G75*
G03*
X37048000Y-62772484I-1672335J-1078608D01*
G01*
%TO.C,D16*%
X79720000Y-60008000D02*
X79720000Y-60164000D01*
X79720000Y-57692000D02*
X79720000Y-57848000D01*
X82321130Y-60007837D02*
G75*
G02*
X80239039Y-60008000I-1041130J1079837D01*
G01*
X82321130Y-57848163D02*
G75*
G03*
X80239039Y-57848000I-1041130J-1079837D01*
G01*
X82952335Y-60006608D02*
G75*
G02*
X79720000Y-60163516I-1672335J1078608D01*
G01*
X82952335Y-57849392D02*
G75*
G03*
X79720000Y-57692484I-1672335J-1078608D01*
G01*
%TO.C,D15*%
X73624000Y-60008000D02*
X73624000Y-60164000D01*
X73624000Y-57692000D02*
X73624000Y-57848000D01*
X76225130Y-60007837D02*
G75*
G02*
X74143039Y-60008000I-1041130J1079837D01*
G01*
X76225130Y-57848163D02*
G75*
G03*
X74143039Y-57848000I-1041130J-1079837D01*
G01*
X76856335Y-60006608D02*
G75*
G02*
X73624000Y-60163516I-1672335J1078608D01*
G01*
X76856335Y-57849392D02*
G75*
G03*
X73624000Y-57692484I-1672335J-1078608D01*
G01*
%TO.C,D14*%
X67528000Y-60008000D02*
X67528000Y-60164000D01*
X67528000Y-57692000D02*
X67528000Y-57848000D01*
X70129130Y-60007837D02*
G75*
G02*
X68047039Y-60008000I-1041130J1079837D01*
G01*
X70129130Y-57848163D02*
G75*
G03*
X68047039Y-57848000I-1041130J-1079837D01*
G01*
X70760335Y-60006608D02*
G75*
G02*
X67528000Y-60163516I-1672335J1078608D01*
G01*
X70760335Y-57849392D02*
G75*
G03*
X67528000Y-57692484I-1672335J-1078608D01*
G01*
%TO.C,D13*%
X61432000Y-60008000D02*
X61432000Y-60164000D01*
X61432000Y-57692000D02*
X61432000Y-57848000D01*
X64033130Y-60007837D02*
G75*
G02*
X61951039Y-60008000I-1041130J1079837D01*
G01*
X64033130Y-57848163D02*
G75*
G03*
X61951039Y-57848000I-1041130J-1079837D01*
G01*
X64664335Y-60006608D02*
G75*
G02*
X61432000Y-60163516I-1672335J1078608D01*
G01*
X64664335Y-57849392D02*
G75*
G03*
X61432000Y-57692484I-1672335J-1078608D01*
G01*
%TO.C,D12*%
X55336000Y-60008000D02*
X55336000Y-60164000D01*
X55336000Y-57692000D02*
X55336000Y-57848000D01*
X57937130Y-60007837D02*
G75*
G02*
X55855039Y-60008000I-1041130J1079837D01*
G01*
X57937130Y-57848163D02*
G75*
G03*
X55855039Y-57848000I-1041130J-1079837D01*
G01*
X58568335Y-60006608D02*
G75*
G02*
X55336000Y-60163516I-1672335J1078608D01*
G01*
X58568335Y-57849392D02*
G75*
G03*
X55336000Y-57692484I-1672335J-1078608D01*
G01*
%TO.C,D11*%
X49240000Y-60008000D02*
X49240000Y-60164000D01*
X49240000Y-57692000D02*
X49240000Y-57848000D01*
X51841130Y-60007837D02*
G75*
G02*
X49759039Y-60008000I-1041130J1079837D01*
G01*
X51841130Y-57848163D02*
G75*
G03*
X49759039Y-57848000I-1041130J-1079837D01*
G01*
X52472335Y-60006608D02*
G75*
G02*
X49240000Y-60163516I-1672335J1078608D01*
G01*
X52472335Y-57849392D02*
G75*
G03*
X49240000Y-57692484I-1672335J-1078608D01*
G01*
%TO.C,D10*%
X43144000Y-60008000D02*
X43144000Y-60164000D01*
X43144000Y-57692000D02*
X43144000Y-57848000D01*
X45745130Y-60007837D02*
G75*
G02*
X43663039Y-60008000I-1041130J1079837D01*
G01*
X45745130Y-57848163D02*
G75*
G03*
X43663039Y-57848000I-1041130J-1079837D01*
G01*
X46376335Y-60006608D02*
G75*
G02*
X43144000Y-60163516I-1672335J1078608D01*
G01*
X46376335Y-57849392D02*
G75*
G03*
X43144000Y-57692484I-1672335J-1078608D01*
G01*
%TO.C,D9*%
X37048000Y-60008000D02*
X37048000Y-60164000D01*
X37048000Y-57692000D02*
X37048000Y-57848000D01*
X39649130Y-60007837D02*
G75*
G02*
X37567039Y-60008000I-1041130J1079837D01*
G01*
X39649130Y-57848163D02*
G75*
G03*
X37567039Y-57848000I-1041130J-1079837D01*
G01*
X40280335Y-60006608D02*
G75*
G02*
X37048000Y-60163516I-1672335J1078608D01*
G01*
X40280335Y-57849392D02*
G75*
G03*
X37048000Y-57692484I-1672335J-1078608D01*
G01*
%TO.C,D8*%
X79720000Y-55182000D02*
X79720000Y-55338000D01*
X79720000Y-52866000D02*
X79720000Y-53022000D01*
X82321130Y-55181837D02*
G75*
G02*
X80239039Y-55182000I-1041130J1079837D01*
G01*
X82321130Y-53022163D02*
G75*
G03*
X80239039Y-53022000I-1041130J-1079837D01*
G01*
X82952335Y-55180608D02*
G75*
G02*
X79720000Y-55337516I-1672335J1078608D01*
G01*
X82952335Y-53023392D02*
G75*
G03*
X79720000Y-52866484I-1672335J-1078608D01*
G01*
%TO.C,D7*%
X73624000Y-55182000D02*
X73624000Y-55338000D01*
X73624000Y-52866000D02*
X73624000Y-53022000D01*
X76225130Y-55181837D02*
G75*
G02*
X74143039Y-55182000I-1041130J1079837D01*
G01*
X76225130Y-53022163D02*
G75*
G03*
X74143039Y-53022000I-1041130J-1079837D01*
G01*
X76856335Y-55180608D02*
G75*
G02*
X73624000Y-55337516I-1672335J1078608D01*
G01*
X76856335Y-53023392D02*
G75*
G03*
X73624000Y-52866484I-1672335J-1078608D01*
G01*
%TO.C,D6*%
X67528000Y-55182000D02*
X67528000Y-55338000D01*
X67528000Y-52866000D02*
X67528000Y-53022000D01*
X70129130Y-55181837D02*
G75*
G02*
X68047039Y-55182000I-1041130J1079837D01*
G01*
X70129130Y-53022163D02*
G75*
G03*
X68047039Y-53022000I-1041130J-1079837D01*
G01*
X70760335Y-55180608D02*
G75*
G02*
X67528000Y-55337516I-1672335J1078608D01*
G01*
X70760335Y-53023392D02*
G75*
G03*
X67528000Y-52866484I-1672335J-1078608D01*
G01*
%TO.C,D5*%
X61432000Y-55182000D02*
X61432000Y-55338000D01*
X61432000Y-52866000D02*
X61432000Y-53022000D01*
X64033130Y-55181837D02*
G75*
G02*
X61951039Y-55182000I-1041130J1079837D01*
G01*
X64033130Y-53022163D02*
G75*
G03*
X61951039Y-53022000I-1041130J-1079837D01*
G01*
X64664335Y-55180608D02*
G75*
G02*
X61432000Y-55337516I-1672335J1078608D01*
G01*
X64664335Y-53023392D02*
G75*
G03*
X61432000Y-52866484I-1672335J-1078608D01*
G01*
%TO.C,D4*%
X55336000Y-55182000D02*
X55336000Y-55338000D01*
X55336000Y-52866000D02*
X55336000Y-53022000D01*
X57937130Y-55181837D02*
G75*
G02*
X55855039Y-55182000I-1041130J1079837D01*
G01*
X57937130Y-53022163D02*
G75*
G03*
X55855039Y-53022000I-1041130J-1079837D01*
G01*
X58568335Y-55180608D02*
G75*
G02*
X55336000Y-55337516I-1672335J1078608D01*
G01*
X58568335Y-53023392D02*
G75*
G03*
X55336000Y-52866484I-1672335J-1078608D01*
G01*
%TO.C,D3*%
X49240000Y-55182000D02*
X49240000Y-55338000D01*
X49240000Y-52866000D02*
X49240000Y-53022000D01*
X51841130Y-55181837D02*
G75*
G02*
X49759039Y-55182000I-1041130J1079837D01*
G01*
X51841130Y-53022163D02*
G75*
G03*
X49759039Y-53022000I-1041130J-1079837D01*
G01*
X52472335Y-55180608D02*
G75*
G02*
X49240000Y-55337516I-1672335J1078608D01*
G01*
X52472335Y-53023392D02*
G75*
G03*
X49240000Y-52866484I-1672335J-1078608D01*
G01*
%TO.C,D2*%
X43144000Y-55182000D02*
X43144000Y-55338000D01*
X43144000Y-52866000D02*
X43144000Y-53022000D01*
X45745130Y-55181837D02*
G75*
G02*
X43663039Y-55182000I-1041130J1079837D01*
G01*
X45745130Y-53022163D02*
G75*
G03*
X43663039Y-53022000I-1041130J-1079837D01*
G01*
X46376335Y-55180608D02*
G75*
G02*
X43144000Y-55337516I-1672335J1078608D01*
G01*
X46376335Y-53023392D02*
G75*
G03*
X43144000Y-52866484I-1672335J-1078608D01*
G01*
%TO.C,D1*%
X37048000Y-55182000D02*
X37048000Y-55338000D01*
X37048000Y-52866000D02*
X37048000Y-53022000D01*
X39649130Y-55181837D02*
G75*
G02*
X37567039Y-55182000I-1041130J1079837D01*
G01*
X39649130Y-53022163D02*
G75*
G03*
X37567039Y-53022000I-1041130J-1079837D01*
G01*
X40280335Y-55180608D02*
G75*
G02*
X37048000Y-55337516I-1672335J1078608D01*
G01*
X40280335Y-53023392D02*
G75*
G03*
X37048000Y-52866484I-1672335J-1078608D01*
G01*
%TO.C,J3*%
D11*
X86026666Y-64178380D02*
X86026666Y-64892666D01*
X85979047Y-65035523D01*
X85883809Y-65130761D01*
X85740952Y-65178380D01*
X85645714Y-65178380D01*
X86407619Y-64178380D02*
X87026666Y-64178380D01*
X86693333Y-64559333D01*
X86836190Y-64559333D01*
X86931428Y-64606952D01*
X86979047Y-64654571D01*
X87026666Y-64749809D01*
X87026666Y-64987904D01*
X86979047Y-65083142D01*
X86931428Y-65130761D01*
X86836190Y-65178380D01*
X86550476Y-65178380D01*
X86455238Y-65130761D01*
X86407619Y-65083142D01*
%TO.C,J2*%
X33448666Y-64178380D02*
X33448666Y-64892666D01*
X33401047Y-65035523D01*
X33305809Y-65130761D01*
X33162952Y-65178380D01*
X33067714Y-65178380D01*
X33877238Y-64273619D02*
X33924857Y-64226000D01*
X34020095Y-64178380D01*
X34258190Y-64178380D01*
X34353428Y-64226000D01*
X34401047Y-64273619D01*
X34448666Y-64368857D01*
X34448666Y-64464095D01*
X34401047Y-64606952D01*
X33829619Y-65178380D01*
X34448666Y-65178380D01*
%TO.C,D64*%
X84831180Y-89428485D02*
X83831180Y-89428485D01*
X83831180Y-89190390D01*
X83878800Y-89047533D01*
X83974038Y-88952295D01*
X84069276Y-88904676D01*
X84259752Y-88857057D01*
X84402609Y-88857057D01*
X84593085Y-88904676D01*
X84688323Y-88952295D01*
X84783561Y-89047533D01*
X84831180Y-89190390D01*
X84831180Y-89428485D01*
X83831180Y-87999914D02*
X83831180Y-88190390D01*
X83878800Y-88285628D01*
X83926419Y-88333247D01*
X84069276Y-88428485D01*
X84259752Y-88476104D01*
X84640704Y-88476104D01*
X84735942Y-88428485D01*
X84783561Y-88380866D01*
X84831180Y-88285628D01*
X84831180Y-88095152D01*
X84783561Y-87999914D01*
X84735942Y-87952295D01*
X84640704Y-87904676D01*
X84402609Y-87904676D01*
X84307371Y-87952295D01*
X84259752Y-87999914D01*
X84212133Y-88095152D01*
X84212133Y-88285628D01*
X84259752Y-88380866D01*
X84307371Y-88428485D01*
X84402609Y-88476104D01*
X84164514Y-87047533D02*
X84831180Y-87047533D01*
X83783561Y-87285628D02*
X84497847Y-87523723D01*
X84497847Y-86904676D01*
%TO.C,D63*%
X78760580Y-89428485D02*
X77760580Y-89428485D01*
X77760580Y-89190390D01*
X77808200Y-89047533D01*
X77903438Y-88952295D01*
X77998676Y-88904676D01*
X78189152Y-88857057D01*
X78332009Y-88857057D01*
X78522485Y-88904676D01*
X78617723Y-88952295D01*
X78712961Y-89047533D01*
X78760580Y-89190390D01*
X78760580Y-89428485D01*
X77760580Y-87999914D02*
X77760580Y-88190390D01*
X77808200Y-88285628D01*
X77855819Y-88333247D01*
X77998676Y-88428485D01*
X78189152Y-88476104D01*
X78570104Y-88476104D01*
X78665342Y-88428485D01*
X78712961Y-88380866D01*
X78760580Y-88285628D01*
X78760580Y-88095152D01*
X78712961Y-87999914D01*
X78665342Y-87952295D01*
X78570104Y-87904676D01*
X78332009Y-87904676D01*
X78236771Y-87952295D01*
X78189152Y-87999914D01*
X78141533Y-88095152D01*
X78141533Y-88285628D01*
X78189152Y-88380866D01*
X78236771Y-88428485D01*
X78332009Y-88476104D01*
X77760580Y-87571342D02*
X77760580Y-86952295D01*
X78141533Y-87285628D01*
X78141533Y-87142771D01*
X78189152Y-87047533D01*
X78236771Y-86999914D01*
X78332009Y-86952295D01*
X78570104Y-86952295D01*
X78665342Y-86999914D01*
X78712961Y-87047533D01*
X78760580Y-87142771D01*
X78760580Y-87428485D01*
X78712961Y-87523723D01*
X78665342Y-87571342D01*
%TO.C,D62*%
X72639180Y-90292085D02*
X71639180Y-90292085D01*
X71639180Y-90053990D01*
X71686800Y-89911133D01*
X71782038Y-89815895D01*
X71877276Y-89768276D01*
X72067752Y-89720657D01*
X72210609Y-89720657D01*
X72401085Y-89768276D01*
X72496323Y-89815895D01*
X72591561Y-89911133D01*
X72639180Y-90053990D01*
X72639180Y-90292085D01*
X71639180Y-88863514D02*
X71639180Y-89053990D01*
X71686800Y-89149228D01*
X71734419Y-89196847D01*
X71877276Y-89292085D01*
X72067752Y-89339704D01*
X72448704Y-89339704D01*
X72543942Y-89292085D01*
X72591561Y-89244466D01*
X72639180Y-89149228D01*
X72639180Y-88958752D01*
X72591561Y-88863514D01*
X72543942Y-88815895D01*
X72448704Y-88768276D01*
X72210609Y-88768276D01*
X72115371Y-88815895D01*
X72067752Y-88863514D01*
X72020133Y-88958752D01*
X72020133Y-89149228D01*
X72067752Y-89244466D01*
X72115371Y-89292085D01*
X72210609Y-89339704D01*
X71734419Y-88387323D02*
X71686800Y-88339704D01*
X71639180Y-88244466D01*
X71639180Y-88006371D01*
X71686800Y-87911133D01*
X71734419Y-87863514D01*
X71829657Y-87815895D01*
X71924895Y-87815895D01*
X72067752Y-87863514D01*
X72639180Y-88434942D01*
X72639180Y-87815895D01*
%TO.C,D61*%
X66543180Y-90190485D02*
X65543180Y-90190485D01*
X65543180Y-89952390D01*
X65590800Y-89809533D01*
X65686038Y-89714295D01*
X65781276Y-89666676D01*
X65971752Y-89619057D01*
X66114609Y-89619057D01*
X66305085Y-89666676D01*
X66400323Y-89714295D01*
X66495561Y-89809533D01*
X66543180Y-89952390D01*
X66543180Y-90190485D01*
X65543180Y-88761914D02*
X65543180Y-88952390D01*
X65590800Y-89047628D01*
X65638419Y-89095247D01*
X65781276Y-89190485D01*
X65971752Y-89238104D01*
X66352704Y-89238104D01*
X66447942Y-89190485D01*
X66495561Y-89142866D01*
X66543180Y-89047628D01*
X66543180Y-88857152D01*
X66495561Y-88761914D01*
X66447942Y-88714295D01*
X66352704Y-88666676D01*
X66114609Y-88666676D01*
X66019371Y-88714295D01*
X65971752Y-88761914D01*
X65924133Y-88857152D01*
X65924133Y-89047628D01*
X65971752Y-89142866D01*
X66019371Y-89190485D01*
X66114609Y-89238104D01*
X66543180Y-87714295D02*
X66543180Y-88285723D01*
X66543180Y-88000009D02*
X65543180Y-88000009D01*
X65686038Y-88095247D01*
X65781276Y-88190485D01*
X65828895Y-88285723D01*
%TO.C,D60*%
X60472580Y-90292085D02*
X59472580Y-90292085D01*
X59472580Y-90053990D01*
X59520200Y-89911133D01*
X59615438Y-89815895D01*
X59710676Y-89768276D01*
X59901152Y-89720657D01*
X60044009Y-89720657D01*
X60234485Y-89768276D01*
X60329723Y-89815895D01*
X60424961Y-89911133D01*
X60472580Y-90053990D01*
X60472580Y-90292085D01*
X59472580Y-88863514D02*
X59472580Y-89053990D01*
X59520200Y-89149228D01*
X59567819Y-89196847D01*
X59710676Y-89292085D01*
X59901152Y-89339704D01*
X60282104Y-89339704D01*
X60377342Y-89292085D01*
X60424961Y-89244466D01*
X60472580Y-89149228D01*
X60472580Y-88958752D01*
X60424961Y-88863514D01*
X60377342Y-88815895D01*
X60282104Y-88768276D01*
X60044009Y-88768276D01*
X59948771Y-88815895D01*
X59901152Y-88863514D01*
X59853533Y-88958752D01*
X59853533Y-89149228D01*
X59901152Y-89244466D01*
X59948771Y-89292085D01*
X60044009Y-89339704D01*
X59472580Y-88149228D02*
X59472580Y-88053990D01*
X59520200Y-87958752D01*
X59567819Y-87911133D01*
X59663057Y-87863514D01*
X59853533Y-87815895D01*
X60091628Y-87815895D01*
X60282104Y-87863514D01*
X60377342Y-87911133D01*
X60424961Y-87958752D01*
X60472580Y-88053990D01*
X60472580Y-88149228D01*
X60424961Y-88244466D01*
X60377342Y-88292085D01*
X60282104Y-88339704D01*
X60091628Y-88387323D01*
X59853533Y-88387323D01*
X59663057Y-88339704D01*
X59567819Y-88292085D01*
X59520200Y-88244466D01*
X59472580Y-88149228D01*
%TO.C,D59*%
X54376580Y-90317485D02*
X53376580Y-90317485D01*
X53376580Y-90079390D01*
X53424200Y-89936533D01*
X53519438Y-89841295D01*
X53614676Y-89793676D01*
X53805152Y-89746057D01*
X53948009Y-89746057D01*
X54138485Y-89793676D01*
X54233723Y-89841295D01*
X54328961Y-89936533D01*
X54376580Y-90079390D01*
X54376580Y-90317485D01*
X53376580Y-88841295D02*
X53376580Y-89317485D01*
X53852771Y-89365104D01*
X53805152Y-89317485D01*
X53757533Y-89222247D01*
X53757533Y-88984152D01*
X53805152Y-88888914D01*
X53852771Y-88841295D01*
X53948009Y-88793676D01*
X54186104Y-88793676D01*
X54281342Y-88841295D01*
X54328961Y-88888914D01*
X54376580Y-88984152D01*
X54376580Y-89222247D01*
X54328961Y-89317485D01*
X54281342Y-89365104D01*
X54376580Y-88317485D02*
X54376580Y-88127009D01*
X54328961Y-88031771D01*
X54281342Y-87984152D01*
X54138485Y-87888914D01*
X53948009Y-87841295D01*
X53567057Y-87841295D01*
X53471819Y-87888914D01*
X53424200Y-87936533D01*
X53376580Y-88031771D01*
X53376580Y-88222247D01*
X53424200Y-88317485D01*
X53471819Y-88365104D01*
X53567057Y-88412723D01*
X53805152Y-88412723D01*
X53900390Y-88365104D01*
X53948009Y-88317485D01*
X53995628Y-88222247D01*
X53995628Y-88031771D01*
X53948009Y-87936533D01*
X53900390Y-87888914D01*
X53805152Y-87841295D01*
%TO.C,D58*%
X48280580Y-90292085D02*
X47280580Y-90292085D01*
X47280580Y-90053990D01*
X47328200Y-89911133D01*
X47423438Y-89815895D01*
X47518676Y-89768276D01*
X47709152Y-89720657D01*
X47852009Y-89720657D01*
X48042485Y-89768276D01*
X48137723Y-89815895D01*
X48232961Y-89911133D01*
X48280580Y-90053990D01*
X48280580Y-90292085D01*
X47280580Y-88815895D02*
X47280580Y-89292085D01*
X47756771Y-89339704D01*
X47709152Y-89292085D01*
X47661533Y-89196847D01*
X47661533Y-88958752D01*
X47709152Y-88863514D01*
X47756771Y-88815895D01*
X47852009Y-88768276D01*
X48090104Y-88768276D01*
X48185342Y-88815895D01*
X48232961Y-88863514D01*
X48280580Y-88958752D01*
X48280580Y-89196847D01*
X48232961Y-89292085D01*
X48185342Y-89339704D01*
X47709152Y-88196847D02*
X47661533Y-88292085D01*
X47613914Y-88339704D01*
X47518676Y-88387323D01*
X47471057Y-88387323D01*
X47375819Y-88339704D01*
X47328200Y-88292085D01*
X47280580Y-88196847D01*
X47280580Y-88006371D01*
X47328200Y-87911133D01*
X47375819Y-87863514D01*
X47471057Y-87815895D01*
X47518676Y-87815895D01*
X47613914Y-87863514D01*
X47661533Y-87911133D01*
X47709152Y-88006371D01*
X47709152Y-88196847D01*
X47756771Y-88292085D01*
X47804390Y-88339704D01*
X47899628Y-88387323D01*
X48090104Y-88387323D01*
X48185342Y-88339704D01*
X48232961Y-88292085D01*
X48280580Y-88196847D01*
X48280580Y-88006371D01*
X48232961Y-87911133D01*
X48185342Y-87863514D01*
X48090104Y-87815895D01*
X47899628Y-87815895D01*
X47804390Y-87863514D01*
X47756771Y-87911133D01*
X47709152Y-88006371D01*
%TO.C,D57*%
X42159180Y-90342885D02*
X41159180Y-90342885D01*
X41159180Y-90104790D01*
X41206800Y-89961933D01*
X41302038Y-89866695D01*
X41397276Y-89819076D01*
X41587752Y-89771457D01*
X41730609Y-89771457D01*
X41921085Y-89819076D01*
X42016323Y-89866695D01*
X42111561Y-89961933D01*
X42159180Y-90104790D01*
X42159180Y-90342885D01*
X41159180Y-88866695D02*
X41159180Y-89342885D01*
X41635371Y-89390504D01*
X41587752Y-89342885D01*
X41540133Y-89247647D01*
X41540133Y-89009552D01*
X41587752Y-88914314D01*
X41635371Y-88866695D01*
X41730609Y-88819076D01*
X41968704Y-88819076D01*
X42063942Y-88866695D01*
X42111561Y-88914314D01*
X42159180Y-89009552D01*
X42159180Y-89247647D01*
X42111561Y-89342885D01*
X42063942Y-89390504D01*
X41159180Y-88485742D02*
X41159180Y-87819076D01*
X42159180Y-88247647D01*
%TO.C,D56*%
X84856580Y-84373885D02*
X83856580Y-84373885D01*
X83856580Y-84135790D01*
X83904200Y-83992933D01*
X83999438Y-83897695D01*
X84094676Y-83850076D01*
X84285152Y-83802457D01*
X84428009Y-83802457D01*
X84618485Y-83850076D01*
X84713723Y-83897695D01*
X84808961Y-83992933D01*
X84856580Y-84135790D01*
X84856580Y-84373885D01*
X83856580Y-82897695D02*
X83856580Y-83373885D01*
X84332771Y-83421504D01*
X84285152Y-83373885D01*
X84237533Y-83278647D01*
X84237533Y-83040552D01*
X84285152Y-82945314D01*
X84332771Y-82897695D01*
X84428009Y-82850076D01*
X84666104Y-82850076D01*
X84761342Y-82897695D01*
X84808961Y-82945314D01*
X84856580Y-83040552D01*
X84856580Y-83278647D01*
X84808961Y-83373885D01*
X84761342Y-83421504D01*
X83856580Y-81992933D02*
X83856580Y-82183409D01*
X83904200Y-82278647D01*
X83951819Y-82326266D01*
X84094676Y-82421504D01*
X84285152Y-82469123D01*
X84666104Y-82469123D01*
X84761342Y-82421504D01*
X84808961Y-82373885D01*
X84856580Y-82278647D01*
X84856580Y-82088171D01*
X84808961Y-81992933D01*
X84761342Y-81945314D01*
X84666104Y-81897695D01*
X84428009Y-81897695D01*
X84332771Y-81945314D01*
X84285152Y-81992933D01*
X84237533Y-82088171D01*
X84237533Y-82278647D01*
X84285152Y-82373885D01*
X84332771Y-82421504D01*
X84428009Y-82469123D01*
%TO.C,D55*%
X78735180Y-84323085D02*
X77735180Y-84323085D01*
X77735180Y-84084990D01*
X77782800Y-83942133D01*
X77878038Y-83846895D01*
X77973276Y-83799276D01*
X78163752Y-83751657D01*
X78306609Y-83751657D01*
X78497085Y-83799276D01*
X78592323Y-83846895D01*
X78687561Y-83942133D01*
X78735180Y-84084990D01*
X78735180Y-84323085D01*
X77735180Y-82846895D02*
X77735180Y-83323085D01*
X78211371Y-83370704D01*
X78163752Y-83323085D01*
X78116133Y-83227847D01*
X78116133Y-82989752D01*
X78163752Y-82894514D01*
X78211371Y-82846895D01*
X78306609Y-82799276D01*
X78544704Y-82799276D01*
X78639942Y-82846895D01*
X78687561Y-82894514D01*
X78735180Y-82989752D01*
X78735180Y-83227847D01*
X78687561Y-83323085D01*
X78639942Y-83370704D01*
X77735180Y-81894514D02*
X77735180Y-82370704D01*
X78211371Y-82418323D01*
X78163752Y-82370704D01*
X78116133Y-82275466D01*
X78116133Y-82037371D01*
X78163752Y-81942133D01*
X78211371Y-81894514D01*
X78306609Y-81846895D01*
X78544704Y-81846895D01*
X78639942Y-81894514D01*
X78687561Y-81942133D01*
X78735180Y-82037371D01*
X78735180Y-82275466D01*
X78687561Y-82370704D01*
X78639942Y-82418323D01*
%TO.C,D54*%
X72639180Y-84424685D02*
X71639180Y-84424685D01*
X71639180Y-84186590D01*
X71686800Y-84043733D01*
X71782038Y-83948495D01*
X71877276Y-83900876D01*
X72067752Y-83853257D01*
X72210609Y-83853257D01*
X72401085Y-83900876D01*
X72496323Y-83948495D01*
X72591561Y-84043733D01*
X72639180Y-84186590D01*
X72639180Y-84424685D01*
X71639180Y-82948495D02*
X71639180Y-83424685D01*
X72115371Y-83472304D01*
X72067752Y-83424685D01*
X72020133Y-83329447D01*
X72020133Y-83091352D01*
X72067752Y-82996114D01*
X72115371Y-82948495D01*
X72210609Y-82900876D01*
X72448704Y-82900876D01*
X72543942Y-82948495D01*
X72591561Y-82996114D01*
X72639180Y-83091352D01*
X72639180Y-83329447D01*
X72591561Y-83424685D01*
X72543942Y-83472304D01*
X71972514Y-82043733D02*
X72639180Y-82043733D01*
X71591561Y-82281828D02*
X72305847Y-82519923D01*
X72305847Y-81900876D01*
%TO.C,D53*%
X66543180Y-84348485D02*
X65543180Y-84348485D01*
X65543180Y-84110390D01*
X65590800Y-83967533D01*
X65686038Y-83872295D01*
X65781276Y-83824676D01*
X65971752Y-83777057D01*
X66114609Y-83777057D01*
X66305085Y-83824676D01*
X66400323Y-83872295D01*
X66495561Y-83967533D01*
X66543180Y-84110390D01*
X66543180Y-84348485D01*
X65543180Y-82872295D02*
X65543180Y-83348485D01*
X66019371Y-83396104D01*
X65971752Y-83348485D01*
X65924133Y-83253247D01*
X65924133Y-83015152D01*
X65971752Y-82919914D01*
X66019371Y-82872295D01*
X66114609Y-82824676D01*
X66352704Y-82824676D01*
X66447942Y-82872295D01*
X66495561Y-82919914D01*
X66543180Y-83015152D01*
X66543180Y-83253247D01*
X66495561Y-83348485D01*
X66447942Y-83396104D01*
X65543180Y-82491342D02*
X65543180Y-81872295D01*
X65924133Y-82205628D01*
X65924133Y-82062771D01*
X65971752Y-81967533D01*
X66019371Y-81919914D01*
X66114609Y-81872295D01*
X66352704Y-81872295D01*
X66447942Y-81919914D01*
X66495561Y-81967533D01*
X66543180Y-82062771D01*
X66543180Y-82348485D01*
X66495561Y-82443723D01*
X66447942Y-82491342D01*
%TO.C,D52*%
X60447180Y-84348485D02*
X59447180Y-84348485D01*
X59447180Y-84110390D01*
X59494800Y-83967533D01*
X59590038Y-83872295D01*
X59685276Y-83824676D01*
X59875752Y-83777057D01*
X60018609Y-83777057D01*
X60209085Y-83824676D01*
X60304323Y-83872295D01*
X60399561Y-83967533D01*
X60447180Y-84110390D01*
X60447180Y-84348485D01*
X59447180Y-82872295D02*
X59447180Y-83348485D01*
X59923371Y-83396104D01*
X59875752Y-83348485D01*
X59828133Y-83253247D01*
X59828133Y-83015152D01*
X59875752Y-82919914D01*
X59923371Y-82872295D01*
X60018609Y-82824676D01*
X60256704Y-82824676D01*
X60351942Y-82872295D01*
X60399561Y-82919914D01*
X60447180Y-83015152D01*
X60447180Y-83253247D01*
X60399561Y-83348485D01*
X60351942Y-83396104D01*
X59542419Y-82443723D02*
X59494800Y-82396104D01*
X59447180Y-82300866D01*
X59447180Y-82062771D01*
X59494800Y-81967533D01*
X59542419Y-81919914D01*
X59637657Y-81872295D01*
X59732895Y-81872295D01*
X59875752Y-81919914D01*
X60447180Y-82491342D01*
X60447180Y-81872295D01*
%TO.C,D51*%
X54325780Y-84272285D02*
X53325780Y-84272285D01*
X53325780Y-84034190D01*
X53373400Y-83891333D01*
X53468638Y-83796095D01*
X53563876Y-83748476D01*
X53754352Y-83700857D01*
X53897209Y-83700857D01*
X54087685Y-83748476D01*
X54182923Y-83796095D01*
X54278161Y-83891333D01*
X54325780Y-84034190D01*
X54325780Y-84272285D01*
X53325780Y-82796095D02*
X53325780Y-83272285D01*
X53801971Y-83319904D01*
X53754352Y-83272285D01*
X53706733Y-83177047D01*
X53706733Y-82938952D01*
X53754352Y-82843714D01*
X53801971Y-82796095D01*
X53897209Y-82748476D01*
X54135304Y-82748476D01*
X54230542Y-82796095D01*
X54278161Y-82843714D01*
X54325780Y-82938952D01*
X54325780Y-83177047D01*
X54278161Y-83272285D01*
X54230542Y-83319904D01*
X54325780Y-81796095D02*
X54325780Y-82367523D01*
X54325780Y-82081809D02*
X53325780Y-82081809D01*
X53468638Y-82177047D01*
X53563876Y-82272285D01*
X53611495Y-82367523D01*
%TO.C,D50*%
X48280580Y-84373885D02*
X47280580Y-84373885D01*
X47280580Y-84135790D01*
X47328200Y-83992933D01*
X47423438Y-83897695D01*
X47518676Y-83850076D01*
X47709152Y-83802457D01*
X47852009Y-83802457D01*
X48042485Y-83850076D01*
X48137723Y-83897695D01*
X48232961Y-83992933D01*
X48280580Y-84135790D01*
X48280580Y-84373885D01*
X47280580Y-82897695D02*
X47280580Y-83373885D01*
X47756771Y-83421504D01*
X47709152Y-83373885D01*
X47661533Y-83278647D01*
X47661533Y-83040552D01*
X47709152Y-82945314D01*
X47756771Y-82897695D01*
X47852009Y-82850076D01*
X48090104Y-82850076D01*
X48185342Y-82897695D01*
X48232961Y-82945314D01*
X48280580Y-83040552D01*
X48280580Y-83278647D01*
X48232961Y-83373885D01*
X48185342Y-83421504D01*
X47280580Y-82231028D02*
X47280580Y-82135790D01*
X47328200Y-82040552D01*
X47375819Y-81992933D01*
X47471057Y-81945314D01*
X47661533Y-81897695D01*
X47899628Y-81897695D01*
X48090104Y-81945314D01*
X48185342Y-81992933D01*
X48232961Y-82040552D01*
X48280580Y-82135790D01*
X48280580Y-82231028D01*
X48232961Y-82326266D01*
X48185342Y-82373885D01*
X48090104Y-82421504D01*
X47899628Y-82469123D01*
X47661533Y-82469123D01*
X47471057Y-82421504D01*
X47375819Y-82373885D01*
X47328200Y-82326266D01*
X47280580Y-82231028D01*
%TO.C,D49*%
X42184580Y-85262885D02*
X41184580Y-85262885D01*
X41184580Y-85024790D01*
X41232200Y-84881933D01*
X41327438Y-84786695D01*
X41422676Y-84739076D01*
X41613152Y-84691457D01*
X41756009Y-84691457D01*
X41946485Y-84739076D01*
X42041723Y-84786695D01*
X42136961Y-84881933D01*
X42184580Y-85024790D01*
X42184580Y-85262885D01*
X41517914Y-83834314D02*
X42184580Y-83834314D01*
X41136961Y-84072409D02*
X41851247Y-84310504D01*
X41851247Y-83691457D01*
X42184580Y-83262885D02*
X42184580Y-83072409D01*
X42136961Y-82977171D01*
X42089342Y-82929552D01*
X41946485Y-82834314D01*
X41756009Y-82786695D01*
X41375057Y-82786695D01*
X41279819Y-82834314D01*
X41232200Y-82881933D01*
X41184580Y-82977171D01*
X41184580Y-83167647D01*
X41232200Y-83262885D01*
X41279819Y-83310504D01*
X41375057Y-83358123D01*
X41613152Y-83358123D01*
X41708390Y-83310504D01*
X41756009Y-83262885D01*
X41803628Y-83167647D01*
X41803628Y-82977171D01*
X41756009Y-82881933D01*
X41708390Y-82834314D01*
X41613152Y-82786695D01*
%TO.C,D48*%
X84856580Y-79497085D02*
X83856580Y-79497085D01*
X83856580Y-79258990D01*
X83904200Y-79116133D01*
X83999438Y-79020895D01*
X84094676Y-78973276D01*
X84285152Y-78925657D01*
X84428009Y-78925657D01*
X84618485Y-78973276D01*
X84713723Y-79020895D01*
X84808961Y-79116133D01*
X84856580Y-79258990D01*
X84856580Y-79497085D01*
X84189914Y-78068514D02*
X84856580Y-78068514D01*
X83808961Y-78306609D02*
X84523247Y-78544704D01*
X84523247Y-77925657D01*
X84285152Y-77401847D02*
X84237533Y-77497085D01*
X84189914Y-77544704D01*
X84094676Y-77592323D01*
X84047057Y-77592323D01*
X83951819Y-77544704D01*
X83904200Y-77497085D01*
X83856580Y-77401847D01*
X83856580Y-77211371D01*
X83904200Y-77116133D01*
X83951819Y-77068514D01*
X84047057Y-77020895D01*
X84094676Y-77020895D01*
X84189914Y-77068514D01*
X84237533Y-77116133D01*
X84285152Y-77211371D01*
X84285152Y-77401847D01*
X84332771Y-77497085D01*
X84380390Y-77544704D01*
X84475628Y-77592323D01*
X84666104Y-77592323D01*
X84761342Y-77544704D01*
X84808961Y-77497085D01*
X84856580Y-77401847D01*
X84856580Y-77211371D01*
X84808961Y-77116133D01*
X84761342Y-77068514D01*
X84666104Y-77020895D01*
X84475628Y-77020895D01*
X84380390Y-77068514D01*
X84332771Y-77116133D01*
X84285152Y-77211371D01*
%TO.C,D47*%
X78760580Y-79598685D02*
X77760580Y-79598685D01*
X77760580Y-79360590D01*
X77808200Y-79217733D01*
X77903438Y-79122495D01*
X77998676Y-79074876D01*
X78189152Y-79027257D01*
X78332009Y-79027257D01*
X78522485Y-79074876D01*
X78617723Y-79122495D01*
X78712961Y-79217733D01*
X78760580Y-79360590D01*
X78760580Y-79598685D01*
X78093914Y-78170114D02*
X78760580Y-78170114D01*
X77712961Y-78408209D02*
X78427247Y-78646304D01*
X78427247Y-78027257D01*
X77760580Y-77741542D02*
X77760580Y-77074876D01*
X78760580Y-77503447D01*
%TO.C,D46*%
X72639180Y-79446285D02*
X71639180Y-79446285D01*
X71639180Y-79208190D01*
X71686800Y-79065333D01*
X71782038Y-78970095D01*
X71877276Y-78922476D01*
X72067752Y-78874857D01*
X72210609Y-78874857D01*
X72401085Y-78922476D01*
X72496323Y-78970095D01*
X72591561Y-79065333D01*
X72639180Y-79208190D01*
X72639180Y-79446285D01*
X71972514Y-78017714D02*
X72639180Y-78017714D01*
X71591561Y-78255809D02*
X72305847Y-78493904D01*
X72305847Y-77874857D01*
X71639180Y-77065333D02*
X71639180Y-77255809D01*
X71686800Y-77351047D01*
X71734419Y-77398666D01*
X71877276Y-77493904D01*
X72067752Y-77541523D01*
X72448704Y-77541523D01*
X72543942Y-77493904D01*
X72591561Y-77446285D01*
X72639180Y-77351047D01*
X72639180Y-77160571D01*
X72591561Y-77065333D01*
X72543942Y-77017714D01*
X72448704Y-76970095D01*
X72210609Y-76970095D01*
X72115371Y-77017714D01*
X72067752Y-77065333D01*
X72020133Y-77160571D01*
X72020133Y-77351047D01*
X72067752Y-77446285D01*
X72115371Y-77493904D01*
X72210609Y-77541523D01*
%TO.C,D45*%
X66568580Y-79522485D02*
X65568580Y-79522485D01*
X65568580Y-79284390D01*
X65616200Y-79141533D01*
X65711438Y-79046295D01*
X65806676Y-78998676D01*
X65997152Y-78951057D01*
X66140009Y-78951057D01*
X66330485Y-78998676D01*
X66425723Y-79046295D01*
X66520961Y-79141533D01*
X66568580Y-79284390D01*
X66568580Y-79522485D01*
X65901914Y-78093914D02*
X66568580Y-78093914D01*
X65520961Y-78332009D02*
X66235247Y-78570104D01*
X66235247Y-77951057D01*
X65568580Y-77093914D02*
X65568580Y-77570104D01*
X66044771Y-77617723D01*
X65997152Y-77570104D01*
X65949533Y-77474866D01*
X65949533Y-77236771D01*
X65997152Y-77141533D01*
X66044771Y-77093914D01*
X66140009Y-77046295D01*
X66378104Y-77046295D01*
X66473342Y-77093914D01*
X66520961Y-77141533D01*
X66568580Y-77236771D01*
X66568580Y-77474866D01*
X66520961Y-77570104D01*
X66473342Y-77617723D01*
%TO.C,D44*%
X60472580Y-79522485D02*
X59472580Y-79522485D01*
X59472580Y-79284390D01*
X59520200Y-79141533D01*
X59615438Y-79046295D01*
X59710676Y-78998676D01*
X59901152Y-78951057D01*
X60044009Y-78951057D01*
X60234485Y-78998676D01*
X60329723Y-79046295D01*
X60424961Y-79141533D01*
X60472580Y-79284390D01*
X60472580Y-79522485D01*
X59805914Y-78093914D02*
X60472580Y-78093914D01*
X59424961Y-78332009D02*
X60139247Y-78570104D01*
X60139247Y-77951057D01*
X59805914Y-77141533D02*
X60472580Y-77141533D01*
X59424961Y-77379628D02*
X60139247Y-77617723D01*
X60139247Y-76998676D01*
%TO.C,D43*%
X54376580Y-79547885D02*
X53376580Y-79547885D01*
X53376580Y-79309790D01*
X53424200Y-79166933D01*
X53519438Y-79071695D01*
X53614676Y-79024076D01*
X53805152Y-78976457D01*
X53948009Y-78976457D01*
X54138485Y-79024076D01*
X54233723Y-79071695D01*
X54328961Y-79166933D01*
X54376580Y-79309790D01*
X54376580Y-79547885D01*
X53709914Y-78119314D02*
X54376580Y-78119314D01*
X53328961Y-78357409D02*
X54043247Y-78595504D01*
X54043247Y-77976457D01*
X53376580Y-77690742D02*
X53376580Y-77071695D01*
X53757533Y-77405028D01*
X53757533Y-77262171D01*
X53805152Y-77166933D01*
X53852771Y-77119314D01*
X53948009Y-77071695D01*
X54186104Y-77071695D01*
X54281342Y-77119314D01*
X54328961Y-77166933D01*
X54376580Y-77262171D01*
X54376580Y-77547885D01*
X54328961Y-77643123D01*
X54281342Y-77690742D01*
%TO.C,D42*%
X48280580Y-79522485D02*
X47280580Y-79522485D01*
X47280580Y-79284390D01*
X47328200Y-79141533D01*
X47423438Y-79046295D01*
X47518676Y-78998676D01*
X47709152Y-78951057D01*
X47852009Y-78951057D01*
X48042485Y-78998676D01*
X48137723Y-79046295D01*
X48232961Y-79141533D01*
X48280580Y-79284390D01*
X48280580Y-79522485D01*
X47613914Y-78093914D02*
X48280580Y-78093914D01*
X47232961Y-78332009D02*
X47947247Y-78570104D01*
X47947247Y-77951057D01*
X47375819Y-77617723D02*
X47328200Y-77570104D01*
X47280580Y-77474866D01*
X47280580Y-77236771D01*
X47328200Y-77141533D01*
X47375819Y-77093914D01*
X47471057Y-77046295D01*
X47566295Y-77046295D01*
X47709152Y-77093914D01*
X48280580Y-77665342D01*
X48280580Y-77046295D01*
%TO.C,D41*%
X42159180Y-79446285D02*
X41159180Y-79446285D01*
X41159180Y-79208190D01*
X41206800Y-79065333D01*
X41302038Y-78970095D01*
X41397276Y-78922476D01*
X41587752Y-78874857D01*
X41730609Y-78874857D01*
X41921085Y-78922476D01*
X42016323Y-78970095D01*
X42111561Y-79065333D01*
X42159180Y-79208190D01*
X42159180Y-79446285D01*
X41492514Y-78017714D02*
X42159180Y-78017714D01*
X41111561Y-78255809D02*
X41825847Y-78493904D01*
X41825847Y-77874857D01*
X42159180Y-76970095D02*
X42159180Y-77541523D01*
X42159180Y-77255809D02*
X41159180Y-77255809D01*
X41302038Y-77351047D01*
X41397276Y-77446285D01*
X41444895Y-77541523D01*
%TO.C,D40*%
X84856580Y-74391685D02*
X83856580Y-74391685D01*
X83856580Y-74153590D01*
X83904200Y-74010733D01*
X83999438Y-73915495D01*
X84094676Y-73867876D01*
X84285152Y-73820257D01*
X84428009Y-73820257D01*
X84618485Y-73867876D01*
X84713723Y-73915495D01*
X84808961Y-74010733D01*
X84856580Y-74153590D01*
X84856580Y-74391685D01*
X84189914Y-72963114D02*
X84856580Y-72963114D01*
X83808961Y-73201209D02*
X84523247Y-73439304D01*
X84523247Y-72820257D01*
X83856580Y-72248828D02*
X83856580Y-72153590D01*
X83904200Y-72058352D01*
X83951819Y-72010733D01*
X84047057Y-71963114D01*
X84237533Y-71915495D01*
X84475628Y-71915495D01*
X84666104Y-71963114D01*
X84761342Y-72010733D01*
X84808961Y-72058352D01*
X84856580Y-72153590D01*
X84856580Y-72248828D01*
X84808961Y-72344066D01*
X84761342Y-72391685D01*
X84666104Y-72439304D01*
X84475628Y-72486923D01*
X84237533Y-72486923D01*
X84047057Y-72439304D01*
X83951819Y-72391685D01*
X83904200Y-72344066D01*
X83856580Y-72248828D01*
%TO.C,D39*%
X78760580Y-74417085D02*
X77760580Y-74417085D01*
X77760580Y-74178990D01*
X77808200Y-74036133D01*
X77903438Y-73940895D01*
X77998676Y-73893276D01*
X78189152Y-73845657D01*
X78332009Y-73845657D01*
X78522485Y-73893276D01*
X78617723Y-73940895D01*
X78712961Y-74036133D01*
X78760580Y-74178990D01*
X78760580Y-74417085D01*
X77760580Y-73512323D02*
X77760580Y-72893276D01*
X78141533Y-73226609D01*
X78141533Y-73083752D01*
X78189152Y-72988514D01*
X78236771Y-72940895D01*
X78332009Y-72893276D01*
X78570104Y-72893276D01*
X78665342Y-72940895D01*
X78712961Y-72988514D01*
X78760580Y-73083752D01*
X78760580Y-73369466D01*
X78712961Y-73464704D01*
X78665342Y-73512323D01*
X78760580Y-72417085D02*
X78760580Y-72226609D01*
X78712961Y-72131371D01*
X78665342Y-72083752D01*
X78522485Y-71988514D01*
X78332009Y-71940895D01*
X77951057Y-71940895D01*
X77855819Y-71988514D01*
X77808200Y-72036133D01*
X77760580Y-72131371D01*
X77760580Y-72321847D01*
X77808200Y-72417085D01*
X77855819Y-72464704D01*
X77951057Y-72512323D01*
X78189152Y-72512323D01*
X78284390Y-72464704D01*
X78332009Y-72417085D01*
X78379628Y-72321847D01*
X78379628Y-72131371D01*
X78332009Y-72036133D01*
X78284390Y-71988514D01*
X78189152Y-71940895D01*
%TO.C,D38*%
X72639180Y-74442485D02*
X71639180Y-74442485D01*
X71639180Y-74204390D01*
X71686800Y-74061533D01*
X71782038Y-73966295D01*
X71877276Y-73918676D01*
X72067752Y-73871057D01*
X72210609Y-73871057D01*
X72401085Y-73918676D01*
X72496323Y-73966295D01*
X72591561Y-74061533D01*
X72639180Y-74204390D01*
X72639180Y-74442485D01*
X71639180Y-73537723D02*
X71639180Y-72918676D01*
X72020133Y-73252009D01*
X72020133Y-73109152D01*
X72067752Y-73013914D01*
X72115371Y-72966295D01*
X72210609Y-72918676D01*
X72448704Y-72918676D01*
X72543942Y-72966295D01*
X72591561Y-73013914D01*
X72639180Y-73109152D01*
X72639180Y-73394866D01*
X72591561Y-73490104D01*
X72543942Y-73537723D01*
X72067752Y-72347247D02*
X72020133Y-72442485D01*
X71972514Y-72490104D01*
X71877276Y-72537723D01*
X71829657Y-72537723D01*
X71734419Y-72490104D01*
X71686800Y-72442485D01*
X71639180Y-72347247D01*
X71639180Y-72156771D01*
X71686800Y-72061533D01*
X71734419Y-72013914D01*
X71829657Y-71966295D01*
X71877276Y-71966295D01*
X71972514Y-72013914D01*
X72020133Y-72061533D01*
X72067752Y-72156771D01*
X72067752Y-72347247D01*
X72115371Y-72442485D01*
X72162990Y-72490104D01*
X72258228Y-72537723D01*
X72448704Y-72537723D01*
X72543942Y-72490104D01*
X72591561Y-72442485D01*
X72639180Y-72347247D01*
X72639180Y-72156771D01*
X72591561Y-72061533D01*
X72543942Y-72013914D01*
X72448704Y-71966295D01*
X72258228Y-71966295D01*
X72162990Y-72013914D01*
X72115371Y-72061533D01*
X72067752Y-72156771D01*
%TO.C,D37*%
X66568580Y-74493285D02*
X65568580Y-74493285D01*
X65568580Y-74255190D01*
X65616200Y-74112333D01*
X65711438Y-74017095D01*
X65806676Y-73969476D01*
X65997152Y-73921857D01*
X66140009Y-73921857D01*
X66330485Y-73969476D01*
X66425723Y-74017095D01*
X66520961Y-74112333D01*
X66568580Y-74255190D01*
X66568580Y-74493285D01*
X65568580Y-73588523D02*
X65568580Y-72969476D01*
X65949533Y-73302809D01*
X65949533Y-73159952D01*
X65997152Y-73064714D01*
X66044771Y-73017095D01*
X66140009Y-72969476D01*
X66378104Y-72969476D01*
X66473342Y-73017095D01*
X66520961Y-73064714D01*
X66568580Y-73159952D01*
X66568580Y-73445666D01*
X66520961Y-73540904D01*
X66473342Y-73588523D01*
X65568580Y-72636142D02*
X65568580Y-71969476D01*
X66568580Y-72398047D01*
%TO.C,D36*%
X60447180Y-74366285D02*
X59447180Y-74366285D01*
X59447180Y-74128190D01*
X59494800Y-73985333D01*
X59590038Y-73890095D01*
X59685276Y-73842476D01*
X59875752Y-73794857D01*
X60018609Y-73794857D01*
X60209085Y-73842476D01*
X60304323Y-73890095D01*
X60399561Y-73985333D01*
X60447180Y-74128190D01*
X60447180Y-74366285D01*
X59447180Y-73461523D02*
X59447180Y-72842476D01*
X59828133Y-73175809D01*
X59828133Y-73032952D01*
X59875752Y-72937714D01*
X59923371Y-72890095D01*
X60018609Y-72842476D01*
X60256704Y-72842476D01*
X60351942Y-72890095D01*
X60399561Y-72937714D01*
X60447180Y-73032952D01*
X60447180Y-73318666D01*
X60399561Y-73413904D01*
X60351942Y-73461523D01*
X59447180Y-71985333D02*
X59447180Y-72175809D01*
X59494800Y-72271047D01*
X59542419Y-72318666D01*
X59685276Y-72413904D01*
X59875752Y-72461523D01*
X60256704Y-72461523D01*
X60351942Y-72413904D01*
X60399561Y-72366285D01*
X60447180Y-72271047D01*
X60447180Y-72080571D01*
X60399561Y-71985333D01*
X60351942Y-71937714D01*
X60256704Y-71890095D01*
X60018609Y-71890095D01*
X59923371Y-71937714D01*
X59875752Y-71985333D01*
X59828133Y-72080571D01*
X59828133Y-72271047D01*
X59875752Y-72366285D01*
X59923371Y-72413904D01*
X60018609Y-72461523D01*
%TO.C,D35*%
X54376580Y-74417085D02*
X53376580Y-74417085D01*
X53376580Y-74178990D01*
X53424200Y-74036133D01*
X53519438Y-73940895D01*
X53614676Y-73893276D01*
X53805152Y-73845657D01*
X53948009Y-73845657D01*
X54138485Y-73893276D01*
X54233723Y-73940895D01*
X54328961Y-74036133D01*
X54376580Y-74178990D01*
X54376580Y-74417085D01*
X53376580Y-73512323D02*
X53376580Y-72893276D01*
X53757533Y-73226609D01*
X53757533Y-73083752D01*
X53805152Y-72988514D01*
X53852771Y-72940895D01*
X53948009Y-72893276D01*
X54186104Y-72893276D01*
X54281342Y-72940895D01*
X54328961Y-72988514D01*
X54376580Y-73083752D01*
X54376580Y-73369466D01*
X54328961Y-73464704D01*
X54281342Y-73512323D01*
X53376580Y-71988514D02*
X53376580Y-72464704D01*
X53852771Y-72512323D01*
X53805152Y-72464704D01*
X53757533Y-72369466D01*
X53757533Y-72131371D01*
X53805152Y-72036133D01*
X53852771Y-71988514D01*
X53948009Y-71940895D01*
X54186104Y-71940895D01*
X54281342Y-71988514D01*
X54328961Y-72036133D01*
X54376580Y-72131371D01*
X54376580Y-72369466D01*
X54328961Y-72464704D01*
X54281342Y-72512323D01*
%TO.C,D34*%
X48280580Y-74417085D02*
X47280580Y-74417085D01*
X47280580Y-74178990D01*
X47328200Y-74036133D01*
X47423438Y-73940895D01*
X47518676Y-73893276D01*
X47709152Y-73845657D01*
X47852009Y-73845657D01*
X48042485Y-73893276D01*
X48137723Y-73940895D01*
X48232961Y-74036133D01*
X48280580Y-74178990D01*
X48280580Y-74417085D01*
X47280580Y-73512323D02*
X47280580Y-72893276D01*
X47661533Y-73226609D01*
X47661533Y-73083752D01*
X47709152Y-72988514D01*
X47756771Y-72940895D01*
X47852009Y-72893276D01*
X48090104Y-72893276D01*
X48185342Y-72940895D01*
X48232961Y-72988514D01*
X48280580Y-73083752D01*
X48280580Y-73369466D01*
X48232961Y-73464704D01*
X48185342Y-73512323D01*
X47613914Y-72036133D02*
X48280580Y-72036133D01*
X47232961Y-72274228D02*
X47947247Y-72512323D01*
X47947247Y-71893276D01*
%TO.C,D33*%
X42159180Y-74442485D02*
X41159180Y-74442485D01*
X41159180Y-74204390D01*
X41206800Y-74061533D01*
X41302038Y-73966295D01*
X41397276Y-73918676D01*
X41587752Y-73871057D01*
X41730609Y-73871057D01*
X41921085Y-73918676D01*
X42016323Y-73966295D01*
X42111561Y-74061533D01*
X42159180Y-74204390D01*
X42159180Y-74442485D01*
X41159180Y-73537723D02*
X41159180Y-72918676D01*
X41540133Y-73252009D01*
X41540133Y-73109152D01*
X41587752Y-73013914D01*
X41635371Y-72966295D01*
X41730609Y-72918676D01*
X41968704Y-72918676D01*
X42063942Y-72966295D01*
X42111561Y-73013914D01*
X42159180Y-73109152D01*
X42159180Y-73394866D01*
X42111561Y-73490104D01*
X42063942Y-73537723D01*
X41159180Y-72585342D02*
X41159180Y-71966295D01*
X41540133Y-72299628D01*
X41540133Y-72156771D01*
X41587752Y-72061533D01*
X41635371Y-72013914D01*
X41730609Y-71966295D01*
X41968704Y-71966295D01*
X42063942Y-72013914D01*
X42111561Y-72061533D01*
X42159180Y-72156771D01*
X42159180Y-72442485D01*
X42111561Y-72537723D01*
X42063942Y-72585342D01*
%TO.C,D32*%
X84856580Y-69337085D02*
X83856580Y-69337085D01*
X83856580Y-69098990D01*
X83904200Y-68956133D01*
X83999438Y-68860895D01*
X84094676Y-68813276D01*
X84285152Y-68765657D01*
X84428009Y-68765657D01*
X84618485Y-68813276D01*
X84713723Y-68860895D01*
X84808961Y-68956133D01*
X84856580Y-69098990D01*
X84856580Y-69337085D01*
X83856580Y-68432323D02*
X83856580Y-67813276D01*
X84237533Y-68146609D01*
X84237533Y-68003752D01*
X84285152Y-67908514D01*
X84332771Y-67860895D01*
X84428009Y-67813276D01*
X84666104Y-67813276D01*
X84761342Y-67860895D01*
X84808961Y-67908514D01*
X84856580Y-68003752D01*
X84856580Y-68289466D01*
X84808961Y-68384704D01*
X84761342Y-68432323D01*
X83951819Y-67432323D02*
X83904200Y-67384704D01*
X83856580Y-67289466D01*
X83856580Y-67051371D01*
X83904200Y-66956133D01*
X83951819Y-66908514D01*
X84047057Y-66860895D01*
X84142295Y-66860895D01*
X84285152Y-66908514D01*
X84856580Y-67479942D01*
X84856580Y-66860895D01*
%TO.C,D31*%
X78735180Y-69362485D02*
X77735180Y-69362485D01*
X77735180Y-69124390D01*
X77782800Y-68981533D01*
X77878038Y-68886295D01*
X77973276Y-68838676D01*
X78163752Y-68791057D01*
X78306609Y-68791057D01*
X78497085Y-68838676D01*
X78592323Y-68886295D01*
X78687561Y-68981533D01*
X78735180Y-69124390D01*
X78735180Y-69362485D01*
X77735180Y-68457723D02*
X77735180Y-67838676D01*
X78116133Y-68172009D01*
X78116133Y-68029152D01*
X78163752Y-67933914D01*
X78211371Y-67886295D01*
X78306609Y-67838676D01*
X78544704Y-67838676D01*
X78639942Y-67886295D01*
X78687561Y-67933914D01*
X78735180Y-68029152D01*
X78735180Y-68314866D01*
X78687561Y-68410104D01*
X78639942Y-68457723D01*
X78735180Y-66886295D02*
X78735180Y-67457723D01*
X78735180Y-67172009D02*
X77735180Y-67172009D01*
X77878038Y-67267247D01*
X77973276Y-67362485D01*
X78020895Y-67457723D01*
%TO.C,D30*%
X72689980Y-69387885D02*
X71689980Y-69387885D01*
X71689980Y-69149790D01*
X71737600Y-69006933D01*
X71832838Y-68911695D01*
X71928076Y-68864076D01*
X72118552Y-68816457D01*
X72261409Y-68816457D01*
X72451885Y-68864076D01*
X72547123Y-68911695D01*
X72642361Y-69006933D01*
X72689980Y-69149790D01*
X72689980Y-69387885D01*
X71689980Y-68483123D02*
X71689980Y-67864076D01*
X72070933Y-68197409D01*
X72070933Y-68054552D01*
X72118552Y-67959314D01*
X72166171Y-67911695D01*
X72261409Y-67864076D01*
X72499504Y-67864076D01*
X72594742Y-67911695D01*
X72642361Y-67959314D01*
X72689980Y-68054552D01*
X72689980Y-68340266D01*
X72642361Y-68435504D01*
X72594742Y-68483123D01*
X71689980Y-67245028D02*
X71689980Y-67149790D01*
X71737600Y-67054552D01*
X71785219Y-67006933D01*
X71880457Y-66959314D01*
X72070933Y-66911695D01*
X72309028Y-66911695D01*
X72499504Y-66959314D01*
X72594742Y-67006933D01*
X72642361Y-67054552D01*
X72689980Y-67149790D01*
X72689980Y-67245028D01*
X72642361Y-67340266D01*
X72594742Y-67387885D01*
X72499504Y-67435504D01*
X72309028Y-67483123D01*
X72070933Y-67483123D01*
X71880457Y-67435504D01*
X71785219Y-67387885D01*
X71737600Y-67340266D01*
X71689980Y-67245028D01*
%TO.C,D29*%
X66568580Y-69387885D02*
X65568580Y-69387885D01*
X65568580Y-69149790D01*
X65616200Y-69006933D01*
X65711438Y-68911695D01*
X65806676Y-68864076D01*
X65997152Y-68816457D01*
X66140009Y-68816457D01*
X66330485Y-68864076D01*
X66425723Y-68911695D01*
X66520961Y-69006933D01*
X66568580Y-69149790D01*
X66568580Y-69387885D01*
X65663819Y-68435504D02*
X65616200Y-68387885D01*
X65568580Y-68292647D01*
X65568580Y-68054552D01*
X65616200Y-67959314D01*
X65663819Y-67911695D01*
X65759057Y-67864076D01*
X65854295Y-67864076D01*
X65997152Y-67911695D01*
X66568580Y-68483123D01*
X66568580Y-67864076D01*
X66568580Y-67387885D02*
X66568580Y-67197409D01*
X66520961Y-67102171D01*
X66473342Y-67054552D01*
X66330485Y-66959314D01*
X66140009Y-66911695D01*
X65759057Y-66911695D01*
X65663819Y-66959314D01*
X65616200Y-67006933D01*
X65568580Y-67102171D01*
X65568580Y-67292647D01*
X65616200Y-67387885D01*
X65663819Y-67435504D01*
X65759057Y-67483123D01*
X65997152Y-67483123D01*
X66092390Y-67435504D01*
X66140009Y-67387885D01*
X66187628Y-67292647D01*
X66187628Y-67102171D01*
X66140009Y-67006933D01*
X66092390Y-66959314D01*
X65997152Y-66911695D01*
%TO.C,D28*%
X60447180Y-69387885D02*
X59447180Y-69387885D01*
X59447180Y-69149790D01*
X59494800Y-69006933D01*
X59590038Y-68911695D01*
X59685276Y-68864076D01*
X59875752Y-68816457D01*
X60018609Y-68816457D01*
X60209085Y-68864076D01*
X60304323Y-68911695D01*
X60399561Y-69006933D01*
X60447180Y-69149790D01*
X60447180Y-69387885D01*
X59542419Y-68435504D02*
X59494800Y-68387885D01*
X59447180Y-68292647D01*
X59447180Y-68054552D01*
X59494800Y-67959314D01*
X59542419Y-67911695D01*
X59637657Y-67864076D01*
X59732895Y-67864076D01*
X59875752Y-67911695D01*
X60447180Y-68483123D01*
X60447180Y-67864076D01*
X59875752Y-67292647D02*
X59828133Y-67387885D01*
X59780514Y-67435504D01*
X59685276Y-67483123D01*
X59637657Y-67483123D01*
X59542419Y-67435504D01*
X59494800Y-67387885D01*
X59447180Y-67292647D01*
X59447180Y-67102171D01*
X59494800Y-67006933D01*
X59542419Y-66959314D01*
X59637657Y-66911695D01*
X59685276Y-66911695D01*
X59780514Y-66959314D01*
X59828133Y-67006933D01*
X59875752Y-67102171D01*
X59875752Y-67292647D01*
X59923371Y-67387885D01*
X59970990Y-67435504D01*
X60066228Y-67483123D01*
X60256704Y-67483123D01*
X60351942Y-67435504D01*
X60399561Y-67387885D01*
X60447180Y-67292647D01*
X60447180Y-67102171D01*
X60399561Y-67006933D01*
X60351942Y-66959314D01*
X60256704Y-66911695D01*
X60066228Y-66911695D01*
X59970990Y-66959314D01*
X59923371Y-67006933D01*
X59875752Y-67102171D01*
%TO.C,D27*%
X54376580Y-69413285D02*
X53376580Y-69413285D01*
X53376580Y-69175190D01*
X53424200Y-69032333D01*
X53519438Y-68937095D01*
X53614676Y-68889476D01*
X53805152Y-68841857D01*
X53948009Y-68841857D01*
X54138485Y-68889476D01*
X54233723Y-68937095D01*
X54328961Y-69032333D01*
X54376580Y-69175190D01*
X54376580Y-69413285D01*
X53471819Y-68460904D02*
X53424200Y-68413285D01*
X53376580Y-68318047D01*
X53376580Y-68079952D01*
X53424200Y-67984714D01*
X53471819Y-67937095D01*
X53567057Y-67889476D01*
X53662295Y-67889476D01*
X53805152Y-67937095D01*
X54376580Y-68508523D01*
X54376580Y-67889476D01*
X53376580Y-67556142D02*
X53376580Y-66889476D01*
X54376580Y-67318047D01*
%TO.C,D26*%
X48255180Y-69260885D02*
X47255180Y-69260885D01*
X47255180Y-69022790D01*
X47302800Y-68879933D01*
X47398038Y-68784695D01*
X47493276Y-68737076D01*
X47683752Y-68689457D01*
X47826609Y-68689457D01*
X48017085Y-68737076D01*
X48112323Y-68784695D01*
X48207561Y-68879933D01*
X48255180Y-69022790D01*
X48255180Y-69260885D01*
X47350419Y-68308504D02*
X47302800Y-68260885D01*
X47255180Y-68165647D01*
X47255180Y-67927552D01*
X47302800Y-67832314D01*
X47350419Y-67784695D01*
X47445657Y-67737076D01*
X47540895Y-67737076D01*
X47683752Y-67784695D01*
X48255180Y-68356123D01*
X48255180Y-67737076D01*
X47255180Y-66879933D02*
X47255180Y-67070409D01*
X47302800Y-67165647D01*
X47350419Y-67213266D01*
X47493276Y-67308504D01*
X47683752Y-67356123D01*
X48064704Y-67356123D01*
X48159942Y-67308504D01*
X48207561Y-67260885D01*
X48255180Y-67165647D01*
X48255180Y-66975171D01*
X48207561Y-66879933D01*
X48159942Y-66832314D01*
X48064704Y-66784695D01*
X47826609Y-66784695D01*
X47731371Y-66832314D01*
X47683752Y-66879933D01*
X47636133Y-66975171D01*
X47636133Y-67165647D01*
X47683752Y-67260885D01*
X47731371Y-67308504D01*
X47826609Y-67356123D01*
%TO.C,D25*%
X42159180Y-69311685D02*
X41159180Y-69311685D01*
X41159180Y-69073590D01*
X41206800Y-68930733D01*
X41302038Y-68835495D01*
X41397276Y-68787876D01*
X41587752Y-68740257D01*
X41730609Y-68740257D01*
X41921085Y-68787876D01*
X42016323Y-68835495D01*
X42111561Y-68930733D01*
X42159180Y-69073590D01*
X42159180Y-69311685D01*
X41254419Y-68359304D02*
X41206800Y-68311685D01*
X41159180Y-68216447D01*
X41159180Y-67978352D01*
X41206800Y-67883114D01*
X41254419Y-67835495D01*
X41349657Y-67787876D01*
X41444895Y-67787876D01*
X41587752Y-67835495D01*
X42159180Y-68406923D01*
X42159180Y-67787876D01*
X41159180Y-66883114D02*
X41159180Y-67359304D01*
X41635371Y-67406923D01*
X41587752Y-67359304D01*
X41540133Y-67264066D01*
X41540133Y-67025971D01*
X41587752Y-66930733D01*
X41635371Y-66883114D01*
X41730609Y-66835495D01*
X41968704Y-66835495D01*
X42063942Y-66883114D01*
X42111561Y-66930733D01*
X42159180Y-67025971D01*
X42159180Y-67264066D01*
X42111561Y-67359304D01*
X42063942Y-67406923D01*
%TO.C,D24*%
X84983580Y-64536485D02*
X83983580Y-64536485D01*
X83983580Y-64298390D01*
X84031200Y-64155533D01*
X84126438Y-64060295D01*
X84221676Y-64012676D01*
X84412152Y-63965057D01*
X84555009Y-63965057D01*
X84745485Y-64012676D01*
X84840723Y-64060295D01*
X84935961Y-64155533D01*
X84983580Y-64298390D01*
X84983580Y-64536485D01*
X84078819Y-63584104D02*
X84031200Y-63536485D01*
X83983580Y-63441247D01*
X83983580Y-63203152D01*
X84031200Y-63107914D01*
X84078819Y-63060295D01*
X84174057Y-63012676D01*
X84269295Y-63012676D01*
X84412152Y-63060295D01*
X84983580Y-63631723D01*
X84983580Y-63012676D01*
X84316914Y-62155533D02*
X84983580Y-62155533D01*
X83935961Y-62393628D02*
X84650247Y-62631723D01*
X84650247Y-62012676D01*
%TO.C,D23*%
X78760580Y-64536485D02*
X77760580Y-64536485D01*
X77760580Y-64298390D01*
X77808200Y-64155533D01*
X77903438Y-64060295D01*
X77998676Y-64012676D01*
X78189152Y-63965057D01*
X78332009Y-63965057D01*
X78522485Y-64012676D01*
X78617723Y-64060295D01*
X78712961Y-64155533D01*
X78760580Y-64298390D01*
X78760580Y-64536485D01*
X77855819Y-63584104D02*
X77808200Y-63536485D01*
X77760580Y-63441247D01*
X77760580Y-63203152D01*
X77808200Y-63107914D01*
X77855819Y-63060295D01*
X77951057Y-63012676D01*
X78046295Y-63012676D01*
X78189152Y-63060295D01*
X78760580Y-63631723D01*
X78760580Y-63012676D01*
X77760580Y-62679342D02*
X77760580Y-62060295D01*
X78141533Y-62393628D01*
X78141533Y-62250771D01*
X78189152Y-62155533D01*
X78236771Y-62107914D01*
X78332009Y-62060295D01*
X78570104Y-62060295D01*
X78665342Y-62107914D01*
X78712961Y-62155533D01*
X78760580Y-62250771D01*
X78760580Y-62536485D01*
X78712961Y-62631723D01*
X78665342Y-62679342D01*
%TO.C,D22*%
X72613780Y-64536485D02*
X71613780Y-64536485D01*
X71613780Y-64298390D01*
X71661400Y-64155533D01*
X71756638Y-64060295D01*
X71851876Y-64012676D01*
X72042352Y-63965057D01*
X72185209Y-63965057D01*
X72375685Y-64012676D01*
X72470923Y-64060295D01*
X72566161Y-64155533D01*
X72613780Y-64298390D01*
X72613780Y-64536485D01*
X71709019Y-63584104D02*
X71661400Y-63536485D01*
X71613780Y-63441247D01*
X71613780Y-63203152D01*
X71661400Y-63107914D01*
X71709019Y-63060295D01*
X71804257Y-63012676D01*
X71899495Y-63012676D01*
X72042352Y-63060295D01*
X72613780Y-63631723D01*
X72613780Y-63012676D01*
X71709019Y-62631723D02*
X71661400Y-62584104D01*
X71613780Y-62488866D01*
X71613780Y-62250771D01*
X71661400Y-62155533D01*
X71709019Y-62107914D01*
X71804257Y-62060295D01*
X71899495Y-62060295D01*
X72042352Y-62107914D01*
X72613780Y-62679342D01*
X72613780Y-62060295D01*
%TO.C,D21*%
X66517780Y-64485685D02*
X65517780Y-64485685D01*
X65517780Y-64247590D01*
X65565400Y-64104733D01*
X65660638Y-64009495D01*
X65755876Y-63961876D01*
X65946352Y-63914257D01*
X66089209Y-63914257D01*
X66279685Y-63961876D01*
X66374923Y-64009495D01*
X66470161Y-64104733D01*
X66517780Y-64247590D01*
X66517780Y-64485685D01*
X65613019Y-63533304D02*
X65565400Y-63485685D01*
X65517780Y-63390447D01*
X65517780Y-63152352D01*
X65565400Y-63057114D01*
X65613019Y-63009495D01*
X65708257Y-62961876D01*
X65803495Y-62961876D01*
X65946352Y-63009495D01*
X66517780Y-63580923D01*
X66517780Y-62961876D01*
X66517780Y-62009495D02*
X66517780Y-62580923D01*
X66517780Y-62295209D02*
X65517780Y-62295209D01*
X65660638Y-62390447D01*
X65755876Y-62485685D01*
X65803495Y-62580923D01*
%TO.C,D20*%
X60421780Y-64511085D02*
X59421780Y-64511085D01*
X59421780Y-64272990D01*
X59469400Y-64130133D01*
X59564638Y-64034895D01*
X59659876Y-63987276D01*
X59850352Y-63939657D01*
X59993209Y-63939657D01*
X60183685Y-63987276D01*
X60278923Y-64034895D01*
X60374161Y-64130133D01*
X60421780Y-64272990D01*
X60421780Y-64511085D01*
X59517019Y-63558704D02*
X59469400Y-63511085D01*
X59421780Y-63415847D01*
X59421780Y-63177752D01*
X59469400Y-63082514D01*
X59517019Y-63034895D01*
X59612257Y-62987276D01*
X59707495Y-62987276D01*
X59850352Y-63034895D01*
X60421780Y-63606323D01*
X60421780Y-62987276D01*
X59421780Y-62368228D02*
X59421780Y-62272990D01*
X59469400Y-62177752D01*
X59517019Y-62130133D01*
X59612257Y-62082514D01*
X59802733Y-62034895D01*
X60040828Y-62034895D01*
X60231304Y-62082514D01*
X60326542Y-62130133D01*
X60374161Y-62177752D01*
X60421780Y-62272990D01*
X60421780Y-62368228D01*
X60374161Y-62463466D01*
X60326542Y-62511085D01*
X60231304Y-62558704D01*
X60040828Y-62606323D01*
X59802733Y-62606323D01*
X59612257Y-62558704D01*
X59517019Y-62511085D01*
X59469400Y-62463466D01*
X59421780Y-62368228D01*
%TO.C,D19*%
X54351180Y-64511085D02*
X53351180Y-64511085D01*
X53351180Y-64272990D01*
X53398800Y-64130133D01*
X53494038Y-64034895D01*
X53589276Y-63987276D01*
X53779752Y-63939657D01*
X53922609Y-63939657D01*
X54113085Y-63987276D01*
X54208323Y-64034895D01*
X54303561Y-64130133D01*
X54351180Y-64272990D01*
X54351180Y-64511085D01*
X54351180Y-62987276D02*
X54351180Y-63558704D01*
X54351180Y-63272990D02*
X53351180Y-63272990D01*
X53494038Y-63368228D01*
X53589276Y-63463466D01*
X53636895Y-63558704D01*
X54351180Y-62511085D02*
X54351180Y-62320609D01*
X54303561Y-62225371D01*
X54255942Y-62177752D01*
X54113085Y-62082514D01*
X53922609Y-62034895D01*
X53541657Y-62034895D01*
X53446419Y-62082514D01*
X53398800Y-62130133D01*
X53351180Y-62225371D01*
X53351180Y-62415847D01*
X53398800Y-62511085D01*
X53446419Y-62558704D01*
X53541657Y-62606323D01*
X53779752Y-62606323D01*
X53874990Y-62558704D01*
X53922609Y-62511085D01*
X53970228Y-62415847D01*
X53970228Y-62225371D01*
X53922609Y-62130133D01*
X53874990Y-62082514D01*
X53779752Y-62034895D01*
%TO.C,D18*%
X48255180Y-64485685D02*
X47255180Y-64485685D01*
X47255180Y-64247590D01*
X47302800Y-64104733D01*
X47398038Y-64009495D01*
X47493276Y-63961876D01*
X47683752Y-63914257D01*
X47826609Y-63914257D01*
X48017085Y-63961876D01*
X48112323Y-64009495D01*
X48207561Y-64104733D01*
X48255180Y-64247590D01*
X48255180Y-64485685D01*
X48255180Y-62961876D02*
X48255180Y-63533304D01*
X48255180Y-63247590D02*
X47255180Y-63247590D01*
X47398038Y-63342828D01*
X47493276Y-63438066D01*
X47540895Y-63533304D01*
X47683752Y-62390447D02*
X47636133Y-62485685D01*
X47588514Y-62533304D01*
X47493276Y-62580923D01*
X47445657Y-62580923D01*
X47350419Y-62533304D01*
X47302800Y-62485685D01*
X47255180Y-62390447D01*
X47255180Y-62199971D01*
X47302800Y-62104733D01*
X47350419Y-62057114D01*
X47445657Y-62009495D01*
X47493276Y-62009495D01*
X47588514Y-62057114D01*
X47636133Y-62104733D01*
X47683752Y-62199971D01*
X47683752Y-62390447D01*
X47731371Y-62485685D01*
X47778990Y-62533304D01*
X47874228Y-62580923D01*
X48064704Y-62580923D01*
X48159942Y-62533304D01*
X48207561Y-62485685D01*
X48255180Y-62390447D01*
X48255180Y-62199971D01*
X48207561Y-62104733D01*
X48159942Y-62057114D01*
X48064704Y-62009495D01*
X47874228Y-62009495D01*
X47778990Y-62057114D01*
X47731371Y-62104733D01*
X47683752Y-62199971D01*
%TO.C,D17*%
X42159180Y-64307885D02*
X41159180Y-64307885D01*
X41159180Y-64069790D01*
X41206800Y-63926933D01*
X41302038Y-63831695D01*
X41397276Y-63784076D01*
X41587752Y-63736457D01*
X41730609Y-63736457D01*
X41921085Y-63784076D01*
X42016323Y-63831695D01*
X42111561Y-63926933D01*
X42159180Y-64069790D01*
X42159180Y-64307885D01*
X42159180Y-62784076D02*
X42159180Y-63355504D01*
X42159180Y-63069790D02*
X41159180Y-63069790D01*
X41302038Y-63165028D01*
X41397276Y-63260266D01*
X41444895Y-63355504D01*
X41159180Y-62450742D02*
X41159180Y-61784076D01*
X42159180Y-62212647D01*
%TO.C,D16*%
X84932780Y-59151685D02*
X83932780Y-59151685D01*
X83932780Y-58913590D01*
X83980400Y-58770733D01*
X84075638Y-58675495D01*
X84170876Y-58627876D01*
X84361352Y-58580257D01*
X84504209Y-58580257D01*
X84694685Y-58627876D01*
X84789923Y-58675495D01*
X84885161Y-58770733D01*
X84932780Y-58913590D01*
X84932780Y-59151685D01*
X84932780Y-57627876D02*
X84932780Y-58199304D01*
X84932780Y-57913590D02*
X83932780Y-57913590D01*
X84075638Y-58008828D01*
X84170876Y-58104066D01*
X84218495Y-58199304D01*
X83932780Y-56770733D02*
X83932780Y-56961209D01*
X83980400Y-57056447D01*
X84028019Y-57104066D01*
X84170876Y-57199304D01*
X84361352Y-57246923D01*
X84742304Y-57246923D01*
X84837542Y-57199304D01*
X84885161Y-57151685D01*
X84932780Y-57056447D01*
X84932780Y-56865971D01*
X84885161Y-56770733D01*
X84837542Y-56723114D01*
X84742304Y-56675495D01*
X84504209Y-56675495D01*
X84408971Y-56723114D01*
X84361352Y-56770733D01*
X84313733Y-56865971D01*
X84313733Y-57056447D01*
X84361352Y-57151685D01*
X84408971Y-57199304D01*
X84504209Y-57246923D01*
%TO.C,D15*%
X78760580Y-59151685D02*
X77760580Y-59151685D01*
X77760580Y-58913590D01*
X77808200Y-58770733D01*
X77903438Y-58675495D01*
X77998676Y-58627876D01*
X78189152Y-58580257D01*
X78332009Y-58580257D01*
X78522485Y-58627876D01*
X78617723Y-58675495D01*
X78712961Y-58770733D01*
X78760580Y-58913590D01*
X78760580Y-59151685D01*
X78760580Y-57627876D02*
X78760580Y-58199304D01*
X78760580Y-57913590D02*
X77760580Y-57913590D01*
X77903438Y-58008828D01*
X77998676Y-58104066D01*
X78046295Y-58199304D01*
X77760580Y-56723114D02*
X77760580Y-57199304D01*
X78236771Y-57246923D01*
X78189152Y-57199304D01*
X78141533Y-57104066D01*
X78141533Y-56865971D01*
X78189152Y-56770733D01*
X78236771Y-56723114D01*
X78332009Y-56675495D01*
X78570104Y-56675495D01*
X78665342Y-56723114D01*
X78712961Y-56770733D01*
X78760580Y-56865971D01*
X78760580Y-57104066D01*
X78712961Y-57199304D01*
X78665342Y-57246923D01*
%TO.C,D14*%
X72664580Y-59227885D02*
X71664580Y-59227885D01*
X71664580Y-58989790D01*
X71712200Y-58846933D01*
X71807438Y-58751695D01*
X71902676Y-58704076D01*
X72093152Y-58656457D01*
X72236009Y-58656457D01*
X72426485Y-58704076D01*
X72521723Y-58751695D01*
X72616961Y-58846933D01*
X72664580Y-58989790D01*
X72664580Y-59227885D01*
X72664580Y-57704076D02*
X72664580Y-58275504D01*
X72664580Y-57989790D02*
X71664580Y-57989790D01*
X71807438Y-58085028D01*
X71902676Y-58180266D01*
X71950295Y-58275504D01*
X71997914Y-56846933D02*
X72664580Y-56846933D01*
X71616961Y-57085028D02*
X72331247Y-57323123D01*
X72331247Y-56704076D01*
%TO.C,D13*%
X66568580Y-59202485D02*
X65568580Y-59202485D01*
X65568580Y-58964390D01*
X65616200Y-58821533D01*
X65711438Y-58726295D01*
X65806676Y-58678676D01*
X65997152Y-58631057D01*
X66140009Y-58631057D01*
X66330485Y-58678676D01*
X66425723Y-58726295D01*
X66520961Y-58821533D01*
X66568580Y-58964390D01*
X66568580Y-59202485D01*
X66568580Y-57678676D02*
X66568580Y-58250104D01*
X66568580Y-57964390D02*
X65568580Y-57964390D01*
X65711438Y-58059628D01*
X65806676Y-58154866D01*
X65854295Y-58250104D01*
X65568580Y-57345342D02*
X65568580Y-56726295D01*
X65949533Y-57059628D01*
X65949533Y-56916771D01*
X65997152Y-56821533D01*
X66044771Y-56773914D01*
X66140009Y-56726295D01*
X66378104Y-56726295D01*
X66473342Y-56773914D01*
X66520961Y-56821533D01*
X66568580Y-56916771D01*
X66568580Y-57202485D01*
X66520961Y-57297723D01*
X66473342Y-57345342D01*
%TO.C,D12*%
X60447180Y-59227885D02*
X59447180Y-59227885D01*
X59447180Y-58989790D01*
X59494800Y-58846933D01*
X59590038Y-58751695D01*
X59685276Y-58704076D01*
X59875752Y-58656457D01*
X60018609Y-58656457D01*
X60209085Y-58704076D01*
X60304323Y-58751695D01*
X60399561Y-58846933D01*
X60447180Y-58989790D01*
X60447180Y-59227885D01*
X60447180Y-57704076D02*
X60447180Y-58275504D01*
X60447180Y-57989790D02*
X59447180Y-57989790D01*
X59590038Y-58085028D01*
X59685276Y-58180266D01*
X59732895Y-58275504D01*
X59542419Y-57323123D02*
X59494800Y-57275504D01*
X59447180Y-57180266D01*
X59447180Y-56942171D01*
X59494800Y-56846933D01*
X59542419Y-56799314D01*
X59637657Y-56751695D01*
X59732895Y-56751695D01*
X59875752Y-56799314D01*
X60447180Y-57370742D01*
X60447180Y-56751695D01*
%TO.C,D11*%
X54351180Y-59177085D02*
X53351180Y-59177085D01*
X53351180Y-58938990D01*
X53398800Y-58796133D01*
X53494038Y-58700895D01*
X53589276Y-58653276D01*
X53779752Y-58605657D01*
X53922609Y-58605657D01*
X54113085Y-58653276D01*
X54208323Y-58700895D01*
X54303561Y-58796133D01*
X54351180Y-58938990D01*
X54351180Y-59177085D01*
X54351180Y-57653276D02*
X54351180Y-58224704D01*
X54351180Y-57938990D02*
X53351180Y-57938990D01*
X53494038Y-58034228D01*
X53589276Y-58129466D01*
X53636895Y-58224704D01*
X54351180Y-56700895D02*
X54351180Y-57272323D01*
X54351180Y-56986609D02*
X53351180Y-56986609D01*
X53494038Y-57081847D01*
X53589276Y-57177085D01*
X53636895Y-57272323D01*
%TO.C,D10*%
X48255180Y-59253285D02*
X47255180Y-59253285D01*
X47255180Y-59015190D01*
X47302800Y-58872333D01*
X47398038Y-58777095D01*
X47493276Y-58729476D01*
X47683752Y-58681857D01*
X47826609Y-58681857D01*
X48017085Y-58729476D01*
X48112323Y-58777095D01*
X48207561Y-58872333D01*
X48255180Y-59015190D01*
X48255180Y-59253285D01*
X48255180Y-57729476D02*
X48255180Y-58300904D01*
X48255180Y-58015190D02*
X47255180Y-58015190D01*
X47398038Y-58110428D01*
X47493276Y-58205666D01*
X47540895Y-58300904D01*
X47255180Y-57110428D02*
X47255180Y-57015190D01*
X47302800Y-56919952D01*
X47350419Y-56872333D01*
X47445657Y-56824714D01*
X47636133Y-56777095D01*
X47874228Y-56777095D01*
X48064704Y-56824714D01*
X48159942Y-56872333D01*
X48207561Y-56919952D01*
X48255180Y-57015190D01*
X48255180Y-57110428D01*
X48207561Y-57205666D01*
X48159942Y-57253285D01*
X48064704Y-57300904D01*
X47874228Y-57348523D01*
X47636133Y-57348523D01*
X47445657Y-57300904D01*
X47350419Y-57253285D01*
X47302800Y-57205666D01*
X47255180Y-57110428D01*
%TO.C,D9*%
X42159180Y-58243695D02*
X41159180Y-58243695D01*
X41159180Y-58005600D01*
X41206800Y-57862742D01*
X41302038Y-57767504D01*
X41397276Y-57719885D01*
X41587752Y-57672266D01*
X41730609Y-57672266D01*
X41921085Y-57719885D01*
X42016323Y-57767504D01*
X42111561Y-57862742D01*
X42159180Y-58005600D01*
X42159180Y-58243695D01*
X42159180Y-57196076D02*
X42159180Y-57005600D01*
X42111561Y-56910361D01*
X42063942Y-56862742D01*
X41921085Y-56767504D01*
X41730609Y-56719885D01*
X41349657Y-56719885D01*
X41254419Y-56767504D01*
X41206800Y-56815123D01*
X41159180Y-56910361D01*
X41159180Y-57100838D01*
X41206800Y-57196076D01*
X41254419Y-57243695D01*
X41349657Y-57291314D01*
X41587752Y-57291314D01*
X41682990Y-57243695D01*
X41730609Y-57196076D01*
X41778228Y-57100838D01*
X41778228Y-56910361D01*
X41730609Y-56815123D01*
X41682990Y-56767504D01*
X41587752Y-56719885D01*
%TO.C,D8*%
X84881980Y-53417695D02*
X83881980Y-53417695D01*
X83881980Y-53179600D01*
X83929600Y-53036742D01*
X84024838Y-52941504D01*
X84120076Y-52893885D01*
X84310552Y-52846266D01*
X84453409Y-52846266D01*
X84643885Y-52893885D01*
X84739123Y-52941504D01*
X84834361Y-53036742D01*
X84881980Y-53179600D01*
X84881980Y-53417695D01*
X84310552Y-52274838D02*
X84262933Y-52370076D01*
X84215314Y-52417695D01*
X84120076Y-52465314D01*
X84072457Y-52465314D01*
X83977219Y-52417695D01*
X83929600Y-52370076D01*
X83881980Y-52274838D01*
X83881980Y-52084361D01*
X83929600Y-51989123D01*
X83977219Y-51941504D01*
X84072457Y-51893885D01*
X84120076Y-51893885D01*
X84215314Y-51941504D01*
X84262933Y-51989123D01*
X84310552Y-52084361D01*
X84310552Y-52274838D01*
X84358171Y-52370076D01*
X84405790Y-52417695D01*
X84501028Y-52465314D01*
X84691504Y-52465314D01*
X84786742Y-52417695D01*
X84834361Y-52370076D01*
X84881980Y-52274838D01*
X84881980Y-52084361D01*
X84834361Y-51989123D01*
X84786742Y-51941504D01*
X84691504Y-51893885D01*
X84501028Y-51893885D01*
X84405790Y-51941504D01*
X84358171Y-51989123D01*
X84310552Y-52084361D01*
%TO.C,D7*%
X78735180Y-53468495D02*
X77735180Y-53468495D01*
X77735180Y-53230400D01*
X77782800Y-53087542D01*
X77878038Y-52992304D01*
X77973276Y-52944685D01*
X78163752Y-52897066D01*
X78306609Y-52897066D01*
X78497085Y-52944685D01*
X78592323Y-52992304D01*
X78687561Y-53087542D01*
X78735180Y-53230400D01*
X78735180Y-53468495D01*
X77735180Y-52563733D02*
X77735180Y-51897066D01*
X78735180Y-52325638D01*
%TO.C,D6*%
X72664580Y-53443095D02*
X71664580Y-53443095D01*
X71664580Y-53205000D01*
X71712200Y-53062142D01*
X71807438Y-52966904D01*
X71902676Y-52919285D01*
X72093152Y-52871666D01*
X72236009Y-52871666D01*
X72426485Y-52919285D01*
X72521723Y-52966904D01*
X72616961Y-53062142D01*
X72664580Y-53205000D01*
X72664580Y-53443095D01*
X71664580Y-52014523D02*
X71664580Y-52205000D01*
X71712200Y-52300238D01*
X71759819Y-52347857D01*
X71902676Y-52443095D01*
X72093152Y-52490714D01*
X72474104Y-52490714D01*
X72569342Y-52443095D01*
X72616961Y-52395476D01*
X72664580Y-52300238D01*
X72664580Y-52109761D01*
X72616961Y-52014523D01*
X72569342Y-51966904D01*
X72474104Y-51919285D01*
X72236009Y-51919285D01*
X72140771Y-51966904D01*
X72093152Y-52014523D01*
X72045533Y-52109761D01*
X72045533Y-52300238D01*
X72093152Y-52395476D01*
X72140771Y-52443095D01*
X72236009Y-52490714D01*
%TO.C,D5*%
X66543180Y-53468495D02*
X65543180Y-53468495D01*
X65543180Y-53230400D01*
X65590800Y-53087542D01*
X65686038Y-52992304D01*
X65781276Y-52944685D01*
X65971752Y-52897066D01*
X66114609Y-52897066D01*
X66305085Y-52944685D01*
X66400323Y-52992304D01*
X66495561Y-53087542D01*
X66543180Y-53230400D01*
X66543180Y-53468495D01*
X65543180Y-51992304D02*
X65543180Y-52468495D01*
X66019371Y-52516114D01*
X65971752Y-52468495D01*
X65924133Y-52373257D01*
X65924133Y-52135161D01*
X65971752Y-52039923D01*
X66019371Y-51992304D01*
X66114609Y-51944685D01*
X66352704Y-51944685D01*
X66447942Y-51992304D01*
X66495561Y-52039923D01*
X66543180Y-52135161D01*
X66543180Y-52373257D01*
X66495561Y-52468495D01*
X66447942Y-52516114D01*
%TO.C,D4*%
X60472580Y-53417695D02*
X59472580Y-53417695D01*
X59472580Y-53179600D01*
X59520200Y-53036742D01*
X59615438Y-52941504D01*
X59710676Y-52893885D01*
X59901152Y-52846266D01*
X60044009Y-52846266D01*
X60234485Y-52893885D01*
X60329723Y-52941504D01*
X60424961Y-53036742D01*
X60472580Y-53179600D01*
X60472580Y-53417695D01*
X59805914Y-51989123D02*
X60472580Y-51989123D01*
X59424961Y-52227219D02*
X60139247Y-52465314D01*
X60139247Y-51846266D01*
%TO.C,D3*%
X54376580Y-53468495D02*
X53376580Y-53468495D01*
X53376580Y-53230400D01*
X53424200Y-53087542D01*
X53519438Y-52992304D01*
X53614676Y-52944685D01*
X53805152Y-52897066D01*
X53948009Y-52897066D01*
X54138485Y-52944685D01*
X54233723Y-52992304D01*
X54328961Y-53087542D01*
X54376580Y-53230400D01*
X54376580Y-53468495D01*
X53376580Y-52563733D02*
X53376580Y-51944685D01*
X53757533Y-52278019D01*
X53757533Y-52135161D01*
X53805152Y-52039923D01*
X53852771Y-51992304D01*
X53948009Y-51944685D01*
X54186104Y-51944685D01*
X54281342Y-51992304D01*
X54328961Y-52039923D01*
X54376580Y-52135161D01*
X54376580Y-52420876D01*
X54328961Y-52516114D01*
X54281342Y-52563733D01*
%TO.C,D2*%
X48255180Y-53468495D02*
X47255180Y-53468495D01*
X47255180Y-53230400D01*
X47302800Y-53087542D01*
X47398038Y-52992304D01*
X47493276Y-52944685D01*
X47683752Y-52897066D01*
X47826609Y-52897066D01*
X48017085Y-52944685D01*
X48112323Y-52992304D01*
X48207561Y-53087542D01*
X48255180Y-53230400D01*
X48255180Y-53468495D01*
X47350419Y-52516114D02*
X47302800Y-52468495D01*
X47255180Y-52373257D01*
X47255180Y-52135161D01*
X47302800Y-52039923D01*
X47350419Y-51992304D01*
X47445657Y-51944685D01*
X47540895Y-51944685D01*
X47683752Y-51992304D01*
X48255180Y-52563733D01*
X48255180Y-51944685D01*
%TO.C,D1*%
X42133780Y-53392295D02*
X41133780Y-53392295D01*
X41133780Y-53154200D01*
X41181400Y-53011342D01*
X41276638Y-52916104D01*
X41371876Y-52868485D01*
X41562352Y-52820866D01*
X41705209Y-52820866D01*
X41895685Y-52868485D01*
X41990923Y-52916104D01*
X42086161Y-53011342D01*
X42133780Y-53154200D01*
X42133780Y-53392295D01*
X42133780Y-51868485D02*
X42133780Y-52439914D01*
X42133780Y-52154200D02*
X41133780Y-52154200D01*
X41276638Y-52249438D01*
X41371876Y-52344676D01*
X41419495Y-52439914D01*
%TD*%
M02*
