M48
; DRILL file {KiCad (5.1.8)-1} date 12/10/21 09:09:36
; FORMAT={-:-/ absolute / inch / decimal}
; #@! TF.CreationDate,2021-12-10T09:09:36+01:00
; #@! TF.GenerationSoftware,Kicad,Pcbnew,(5.1.8)-1
; #@! TF.FileFunction,Plated,1,2,PTH
FMAT,2
INCH
T1C0.0157
T2C0.0354
T3C0.0394
%
G90
G05
T1
X1.44Y-2.02
X1.69Y-2.01
X1.92Y-2.01
X2.17Y-2.01
X2.4Y-2.01
X2.64Y-2.01
X2.88Y-2.01
X3.12Y-2.01
X3.2597Y-1.8156
X3.27Y-3.58
T2
X1.47Y-3.12
X1.57Y-3.12
X1.71Y-2.13
X1.81Y-2.13
X3.15Y-2.53
X3.25Y-2.53
X1.47Y-2.72
X1.57Y-2.72
X2.43Y-2.53
X2.53Y-2.53
X3.15Y-3.51
X3.25Y-3.51
X2.91Y-3.31
X3.01Y-3.31
X1.95Y-3.31
X2.05Y-3.31
X2.91Y-2.92
X3.01Y-2.92
X2.19Y-2.13
X2.29Y-2.13
X1.95Y-2.72
X2.05Y-2.72
X1.95Y-2.53
X2.05Y-2.53
X2.67Y-2.53
X2.77Y-2.53
X3.15Y-3.31
X3.25Y-3.31
X2.43Y-2.92
X2.53Y-2.92
X2.19Y-3.12
X2.29Y-3.12
X1.47Y-3.31
X1.57Y-3.31
X2.43Y-2.13
X2.53Y-2.13
X2.43Y-2.32
X2.53Y-2.32
X1.47Y-2.92
X1.57Y-2.92
X1.71Y-2.72
X1.81Y-2.72
X2.91Y-2.53
X3.01Y-2.53
X1.71Y-3.51
X1.81Y-3.51
X1.95Y-3.12
X2.05Y-3.12
X1.71Y-3.31
X1.81Y-3.31
X1.71Y-2.92
X1.81Y-2.92
X2.67Y-2.13
X2.77Y-2.13
X2.67Y-2.32
X2.77Y-2.32
X1.47Y-2.13
X1.57Y-2.13
X3.15Y-2.32
X3.25Y-2.32
X2.19Y-2.53
X2.29Y-2.53
X2.43Y-2.72
X2.53Y-2.72
X1.47Y-3.51
X1.57Y-3.51
X1.95Y-3.51
X2.05Y-3.51
X2.67Y-2.92
X2.77Y-2.92
X3.15Y-2.92
X3.25Y-2.92
X1.95Y-2.92
X2.05Y-2.92
X1.71Y-2.32
X1.81Y-2.32
X1.95Y-2.13
X2.05Y-2.13
X1.47Y-2.52
X1.57Y-2.52
X2.19Y-2.72
X2.29Y-2.72
X2.19Y-3.31
X2.29Y-3.31
X2.19Y-3.51
X2.29Y-3.51
X1.71Y-3.12
X1.81Y-3.12
X3.15Y-3.12
X3.25Y-3.12
X2.19Y-2.92
X2.29Y-2.92
X2.91Y-2.32
X3.01Y-2.32
X1.95Y-2.32
X2.05Y-2.32
X1.47Y-2.32
X1.57Y-2.32
X1.71Y-2.53
X1.81Y-2.53
X3.15Y-2.72
X3.25Y-2.72
X2.43Y-3.31
X2.53Y-3.31
X2.43Y-3.51
X2.53Y-3.51
X2.91Y-3.12
X3.01Y-3.12
X2.43Y-3.12
X2.53Y-3.12
X3.15Y-2.13
X3.25Y-2.13
X2.91Y-2.13
X3.01Y-2.13
X2.19Y-2.32
X2.29Y-2.32
X2.67Y-2.72
X2.77Y-2.72
X2.91Y-2.72
X3.01Y-2.72
X2.91Y-3.51
X3.01Y-3.51
X2.67Y-3.31
X2.77Y-3.31
X2.67Y-3.51
X2.77Y-3.51
X2.67Y-3.12
X2.77Y-3.12
T3
X3.4Y-2.64
X3.4Y-2.74
X3.4Y-2.84
X3.4Y-2.94
X3.4Y-3.04
X3.4Y-3.14
X3.4Y-3.24
X3.4Y-3.34
X3.4Y-3.44
X3.4Y-3.54
X1.33Y-2.64
X1.33Y-2.74
X1.33Y-2.84
X1.33Y-2.94
X1.33Y-3.04
X1.33Y-3.14
X1.33Y-3.24
X1.33Y-3.34
X1.33Y-3.44
X1.33Y-3.54
T0
M30
