%TF.GenerationSoftware,KiCad,Pcbnew,(5.1.8)-1*%
%TF.CreationDate,2021-12-10T09:09:34+01:00*%
%TF.ProjectId,FirePlaceLedmatrix,46697265-506c-4616-9365-4c65646d6174,rev?*%
%TF.SameCoordinates,Original*%
%TF.FileFunction,Soldermask,Bot*%
%TF.FilePolarity,Negative*%
%FSLAX46Y46*%
G04 Gerber Fmt 4.6, Leading zero omitted, Abs format (unit mm)*
G04 Created by KiCad (PCBNEW (5.1.8)-1) date 2021-12-10 09:09:34*
%MOMM*%
%LPD*%
G01*
G04 APERTURE LIST*
%ADD10R,0.800000X0.900000*%
%ADD11R,0.900000X0.800000*%
%ADD12O,1.700000X1.700000*%
%ADD13R,1.700000X1.700000*%
%ADD14C,1.800000*%
%ADD15R,1.800000X1.800000*%
G04 APERTURE END LIST*
D10*
%TO.C,Q8*%
X90017600Y-88569800D03*
X90967600Y-86569800D03*
X89067600Y-86569800D03*
%TD*%
%TO.C,Q7*%
X89992200Y-85039200D03*
X90942200Y-83039200D03*
X89042200Y-83039200D03*
%TD*%
%TO.C,Q6*%
X90017600Y-81508600D03*
X90967600Y-79508600D03*
X89067600Y-79508600D03*
%TD*%
%TO.C,Q5*%
X90017600Y-77952600D03*
X90967600Y-75952600D03*
X89067600Y-75952600D03*
%TD*%
%TO.C,Q4*%
X90017600Y-74396600D03*
X90967600Y-72396600D03*
X89067600Y-72396600D03*
%TD*%
%TO.C,Q3*%
X90043000Y-70840600D03*
X90993000Y-68840600D03*
X89093000Y-68840600D03*
%TD*%
%TO.C,Q2*%
X90043000Y-67183000D03*
X90993000Y-65183000D03*
X89093000Y-65183000D03*
%TD*%
%TO.C,Q1*%
X90017600Y-62230000D03*
X90967600Y-60230000D03*
X89067600Y-60230000D03*
%TD*%
D11*
%TO.C,T8*%
X82550000Y-50292000D03*
X80550000Y-49342000D03*
X80550000Y-51242000D03*
%TD*%
%TO.C,T7*%
X76454000Y-50292000D03*
X74454000Y-49342000D03*
X74454000Y-51242000D03*
%TD*%
%TO.C,T6*%
X70358000Y-50292000D03*
X68358000Y-49342000D03*
X68358000Y-51242000D03*
%TD*%
%TO.C,T5*%
X64262000Y-50292000D03*
X62262000Y-49342000D03*
X62262000Y-51242000D03*
%TD*%
%TO.C,T4*%
X58166000Y-50292000D03*
X56166000Y-49342000D03*
X56166000Y-51242000D03*
%TD*%
%TO.C,T3*%
X52070000Y-50292000D03*
X50070000Y-49342000D03*
X50070000Y-51242000D03*
%TD*%
%TO.C,T2*%
X45974000Y-50292000D03*
X43974000Y-49342000D03*
X43974000Y-51242000D03*
%TD*%
%TO.C,T1*%
X39878000Y-50292000D03*
X37878000Y-49342000D03*
X37878000Y-51242000D03*
%TD*%
%TO.C,R8*%
G36*
G01*
X79918000Y-47694001D02*
X79918000Y-46793999D01*
G75*
G02*
X80167999Y-46544000I249999J0D01*
G01*
X80868001Y-46544000D01*
G75*
G02*
X81118000Y-46793999I0J-249999D01*
G01*
X81118000Y-47694001D01*
G75*
G02*
X80868001Y-47944000I-249999J0D01*
G01*
X80167999Y-47944000D01*
G75*
G02*
X79918000Y-47694001I0J249999D01*
G01*
G37*
G36*
G01*
X77918000Y-47694001D02*
X77918000Y-46793999D01*
G75*
G02*
X78167999Y-46544000I249999J0D01*
G01*
X78868001Y-46544000D01*
G75*
G02*
X79118000Y-46793999I0J-249999D01*
G01*
X79118000Y-47694001D01*
G75*
G02*
X78868001Y-47944000I-249999J0D01*
G01*
X78167999Y-47944000D01*
G75*
G02*
X77918000Y-47694001I0J249999D01*
G01*
G37*
%TD*%
%TO.C,R7*%
G36*
G01*
X73790000Y-47694001D02*
X73790000Y-46793999D01*
G75*
G02*
X74039999Y-46544000I249999J0D01*
G01*
X74740001Y-46544000D01*
G75*
G02*
X74990000Y-46793999I0J-249999D01*
G01*
X74990000Y-47694001D01*
G75*
G02*
X74740001Y-47944000I-249999J0D01*
G01*
X74039999Y-47944000D01*
G75*
G02*
X73790000Y-47694001I0J249999D01*
G01*
G37*
G36*
G01*
X71790000Y-47694001D02*
X71790000Y-46793999D01*
G75*
G02*
X72039999Y-46544000I249999J0D01*
G01*
X72740001Y-46544000D01*
G75*
G02*
X72990000Y-46793999I0J-249999D01*
G01*
X72990000Y-47694001D01*
G75*
G02*
X72740001Y-47944000I-249999J0D01*
G01*
X72039999Y-47944000D01*
G75*
G02*
X71790000Y-47694001I0J249999D01*
G01*
G37*
%TD*%
%TO.C,R6*%
G36*
G01*
X67726000Y-47694001D02*
X67726000Y-46793999D01*
G75*
G02*
X67975999Y-46544000I249999J0D01*
G01*
X68676001Y-46544000D01*
G75*
G02*
X68926000Y-46793999I0J-249999D01*
G01*
X68926000Y-47694001D01*
G75*
G02*
X68676001Y-47944000I-249999J0D01*
G01*
X67975999Y-47944000D01*
G75*
G02*
X67726000Y-47694001I0J249999D01*
G01*
G37*
G36*
G01*
X65726000Y-47694001D02*
X65726000Y-46793999D01*
G75*
G02*
X65975999Y-46544000I249999J0D01*
G01*
X66676001Y-46544000D01*
G75*
G02*
X66926000Y-46793999I0J-249999D01*
G01*
X66926000Y-47694001D01*
G75*
G02*
X66676001Y-47944000I-249999J0D01*
G01*
X65975999Y-47944000D01*
G75*
G02*
X65726000Y-47694001I0J249999D01*
G01*
G37*
%TD*%
%TO.C,R5*%
G36*
G01*
X61630000Y-47694001D02*
X61630000Y-46793999D01*
G75*
G02*
X61879999Y-46544000I249999J0D01*
G01*
X62580001Y-46544000D01*
G75*
G02*
X62830000Y-46793999I0J-249999D01*
G01*
X62830000Y-47694001D01*
G75*
G02*
X62580001Y-47944000I-249999J0D01*
G01*
X61879999Y-47944000D01*
G75*
G02*
X61630000Y-47694001I0J249999D01*
G01*
G37*
G36*
G01*
X59630000Y-47694001D02*
X59630000Y-46793999D01*
G75*
G02*
X59879999Y-46544000I249999J0D01*
G01*
X60580001Y-46544000D01*
G75*
G02*
X60830000Y-46793999I0J-249999D01*
G01*
X60830000Y-47694001D01*
G75*
G02*
X60580001Y-47944000I-249999J0D01*
G01*
X59879999Y-47944000D01*
G75*
G02*
X59630000Y-47694001I0J249999D01*
G01*
G37*
%TD*%
%TO.C,R4*%
G36*
G01*
X55534000Y-47694001D02*
X55534000Y-46793999D01*
G75*
G02*
X55783999Y-46544000I249999J0D01*
G01*
X56484001Y-46544000D01*
G75*
G02*
X56734000Y-46793999I0J-249999D01*
G01*
X56734000Y-47694001D01*
G75*
G02*
X56484001Y-47944000I-249999J0D01*
G01*
X55783999Y-47944000D01*
G75*
G02*
X55534000Y-47694001I0J249999D01*
G01*
G37*
G36*
G01*
X53534000Y-47694001D02*
X53534000Y-46793999D01*
G75*
G02*
X53783999Y-46544000I249999J0D01*
G01*
X54484001Y-46544000D01*
G75*
G02*
X54734000Y-46793999I0J-249999D01*
G01*
X54734000Y-47694001D01*
G75*
G02*
X54484001Y-47944000I-249999J0D01*
G01*
X53783999Y-47944000D01*
G75*
G02*
X53534000Y-47694001I0J249999D01*
G01*
G37*
%TD*%
%TO.C,R3*%
G36*
G01*
X49438000Y-47694001D02*
X49438000Y-46793999D01*
G75*
G02*
X49687999Y-46544000I249999J0D01*
G01*
X50388001Y-46544000D01*
G75*
G02*
X50638000Y-46793999I0J-249999D01*
G01*
X50638000Y-47694001D01*
G75*
G02*
X50388001Y-47944000I-249999J0D01*
G01*
X49687999Y-47944000D01*
G75*
G02*
X49438000Y-47694001I0J249999D01*
G01*
G37*
G36*
G01*
X47438000Y-47694001D02*
X47438000Y-46793999D01*
G75*
G02*
X47687999Y-46544000I249999J0D01*
G01*
X48388001Y-46544000D01*
G75*
G02*
X48638000Y-46793999I0J-249999D01*
G01*
X48638000Y-47694001D01*
G75*
G02*
X48388001Y-47944000I-249999J0D01*
G01*
X47687999Y-47944000D01*
G75*
G02*
X47438000Y-47694001I0J249999D01*
G01*
G37*
%TD*%
%TO.C,R2*%
G36*
G01*
X43310000Y-47694001D02*
X43310000Y-46793999D01*
G75*
G02*
X43559999Y-46544000I249999J0D01*
G01*
X44260001Y-46544000D01*
G75*
G02*
X44510000Y-46793999I0J-249999D01*
G01*
X44510000Y-47694001D01*
G75*
G02*
X44260001Y-47944000I-249999J0D01*
G01*
X43559999Y-47944000D01*
G75*
G02*
X43310000Y-47694001I0J249999D01*
G01*
G37*
G36*
G01*
X41310000Y-47694001D02*
X41310000Y-46793999D01*
G75*
G02*
X41559999Y-46544000I249999J0D01*
G01*
X42260001Y-46544000D01*
G75*
G02*
X42510000Y-46793999I0J-249999D01*
G01*
X42510000Y-47694001D01*
G75*
G02*
X42260001Y-47944000I-249999J0D01*
G01*
X41559999Y-47944000D01*
G75*
G02*
X41310000Y-47694001I0J249999D01*
G01*
G37*
%TD*%
%TO.C,R1*%
G36*
G01*
X37214000Y-47694001D02*
X37214000Y-46793999D01*
G75*
G02*
X37463999Y-46544000I249999J0D01*
G01*
X38164001Y-46544000D01*
G75*
G02*
X38414000Y-46793999I0J-249999D01*
G01*
X38414000Y-47694001D01*
G75*
G02*
X38164001Y-47944000I-249999J0D01*
G01*
X37463999Y-47944000D01*
G75*
G02*
X37214000Y-47694001I0J249999D01*
G01*
G37*
G36*
G01*
X35214000Y-47694001D02*
X35214000Y-46793999D01*
G75*
G02*
X35463999Y-46544000I249999J0D01*
G01*
X36164001Y-46544000D01*
G75*
G02*
X36414000Y-46793999I0J-249999D01*
G01*
X36414000Y-47694001D01*
G75*
G02*
X36164001Y-47944000I-249999J0D01*
G01*
X35463999Y-47944000D01*
G75*
G02*
X35214000Y-47694001I0J249999D01*
G01*
G37*
%TD*%
D12*
%TO.C,J3*%
X86360000Y-89916000D03*
X86360000Y-87376000D03*
X86360000Y-84836000D03*
X86360000Y-82296000D03*
X86360000Y-79756000D03*
X86360000Y-77216000D03*
X86360000Y-74676000D03*
X86360000Y-72136000D03*
X86360000Y-69596000D03*
D13*
X86360000Y-67056000D03*
%TD*%
D12*
%TO.C,J2*%
X33782000Y-89916000D03*
X33782000Y-87376000D03*
X33782000Y-84836000D03*
X33782000Y-82296000D03*
X33782000Y-79756000D03*
X33782000Y-77216000D03*
X33782000Y-74676000D03*
X33782000Y-72136000D03*
X33782000Y-69596000D03*
D13*
X33782000Y-67056000D03*
%TD*%
D14*
%TO.C,D64*%
X82550000Y-89154000D03*
D15*
X80010000Y-89154000D03*
%TD*%
D14*
%TO.C,D63*%
X76454000Y-89154000D03*
D15*
X73914000Y-89154000D03*
%TD*%
D14*
%TO.C,D62*%
X70358000Y-89154000D03*
D15*
X67818000Y-89154000D03*
%TD*%
D14*
%TO.C,D61*%
X64262000Y-89154000D03*
D15*
X61722000Y-89154000D03*
%TD*%
D14*
%TO.C,D60*%
X58166000Y-89154000D03*
D15*
X55626000Y-89154000D03*
%TD*%
D14*
%TO.C,D59*%
X52070000Y-89154000D03*
D15*
X49530000Y-89154000D03*
%TD*%
D14*
%TO.C,D58*%
X45974000Y-89154000D03*
D15*
X43434000Y-89154000D03*
%TD*%
D14*
%TO.C,D57*%
X39878000Y-89154000D03*
D15*
X37338000Y-89154000D03*
%TD*%
D14*
%TO.C,D56*%
X82550000Y-84074000D03*
D15*
X80010000Y-84074000D03*
%TD*%
D14*
%TO.C,D55*%
X76454000Y-84074000D03*
D15*
X73914000Y-84074000D03*
%TD*%
D14*
%TO.C,D54*%
X70358000Y-84074000D03*
D15*
X67818000Y-84074000D03*
%TD*%
D14*
%TO.C,D53*%
X64262000Y-84074000D03*
D15*
X61722000Y-84074000D03*
%TD*%
D14*
%TO.C,D52*%
X58166000Y-84074000D03*
D15*
X55626000Y-84074000D03*
%TD*%
D14*
%TO.C,D51*%
X52070000Y-84074000D03*
D15*
X49530000Y-84074000D03*
%TD*%
D14*
%TO.C,D50*%
X45974000Y-84074000D03*
D15*
X43434000Y-84074000D03*
%TD*%
D14*
%TO.C,D49*%
X39878000Y-84074000D03*
D15*
X37338000Y-84074000D03*
%TD*%
D14*
%TO.C,D48*%
X82550000Y-79248000D03*
D15*
X80010000Y-79248000D03*
%TD*%
D14*
%TO.C,D47*%
X76454000Y-79248000D03*
D15*
X73914000Y-79248000D03*
%TD*%
D14*
%TO.C,D46*%
X70358000Y-79248000D03*
D15*
X67818000Y-79248000D03*
%TD*%
D14*
%TO.C,D45*%
X64262000Y-79248000D03*
D15*
X61722000Y-79248000D03*
%TD*%
D14*
%TO.C,D44*%
X58166000Y-79248000D03*
D15*
X55626000Y-79248000D03*
%TD*%
D14*
%TO.C,D43*%
X52070000Y-79248000D03*
D15*
X49530000Y-79248000D03*
%TD*%
D14*
%TO.C,D42*%
X45974000Y-79248000D03*
D15*
X43434000Y-79248000D03*
%TD*%
D14*
%TO.C,D41*%
X39878000Y-79248000D03*
D15*
X37338000Y-79248000D03*
%TD*%
D14*
%TO.C,D40*%
X82550000Y-74168000D03*
D15*
X80010000Y-74168000D03*
%TD*%
D14*
%TO.C,D39*%
X76454000Y-74168000D03*
D15*
X73914000Y-74168000D03*
%TD*%
D14*
%TO.C,D38*%
X70358000Y-74168000D03*
D15*
X67818000Y-74168000D03*
%TD*%
D14*
%TO.C,D37*%
X64262000Y-74168000D03*
D15*
X61722000Y-74168000D03*
%TD*%
D14*
%TO.C,D36*%
X58166000Y-74168000D03*
D15*
X55626000Y-74168000D03*
%TD*%
D14*
%TO.C,D35*%
X52070000Y-74168000D03*
D15*
X49530000Y-74168000D03*
%TD*%
D14*
%TO.C,D34*%
X45974000Y-74168000D03*
D15*
X43434000Y-74168000D03*
%TD*%
D14*
%TO.C,D33*%
X39878000Y-74168000D03*
D15*
X37338000Y-74168000D03*
%TD*%
D14*
%TO.C,D32*%
X82550000Y-69088000D03*
D15*
X80010000Y-69088000D03*
%TD*%
D14*
%TO.C,D31*%
X76454000Y-69088000D03*
D15*
X73914000Y-69088000D03*
%TD*%
D14*
%TO.C,D30*%
X70358000Y-69088000D03*
D15*
X67818000Y-69088000D03*
%TD*%
D14*
%TO.C,D29*%
X64262000Y-69088000D03*
D15*
X61722000Y-69088000D03*
%TD*%
D14*
%TO.C,D28*%
X58166000Y-69088000D03*
D15*
X55626000Y-69088000D03*
%TD*%
D14*
%TO.C,D27*%
X52070000Y-69088000D03*
D15*
X49530000Y-69088000D03*
%TD*%
D14*
%TO.C,D26*%
X45974000Y-69088000D03*
D15*
X43434000Y-69088000D03*
%TD*%
D14*
%TO.C,D25*%
X39878000Y-69088000D03*
D15*
X37338000Y-69088000D03*
%TD*%
D14*
%TO.C,D24*%
X82550000Y-64262000D03*
D15*
X80010000Y-64262000D03*
%TD*%
D14*
%TO.C,D23*%
X76454000Y-64262000D03*
D15*
X73914000Y-64262000D03*
%TD*%
D14*
%TO.C,D22*%
X70358000Y-64262000D03*
D15*
X67818000Y-64262000D03*
%TD*%
D14*
%TO.C,D21*%
X64262000Y-64262000D03*
D15*
X61722000Y-64262000D03*
%TD*%
D14*
%TO.C,D20*%
X58166000Y-64262000D03*
D15*
X55626000Y-64262000D03*
%TD*%
D14*
%TO.C,D19*%
X52070000Y-64262000D03*
D15*
X49530000Y-64262000D03*
%TD*%
D14*
%TO.C,D18*%
X45974000Y-64262000D03*
D15*
X43434000Y-64262000D03*
%TD*%
D14*
%TO.C,D17*%
X39878000Y-64008000D03*
D15*
X37338000Y-64008000D03*
%TD*%
D14*
%TO.C,D16*%
X82550000Y-58928000D03*
D15*
X80010000Y-58928000D03*
%TD*%
D14*
%TO.C,D15*%
X76454000Y-58928000D03*
D15*
X73914000Y-58928000D03*
%TD*%
D14*
%TO.C,D14*%
X70358000Y-58928000D03*
D15*
X67818000Y-58928000D03*
%TD*%
D14*
%TO.C,D13*%
X64262000Y-58928000D03*
D15*
X61722000Y-58928000D03*
%TD*%
D14*
%TO.C,D12*%
X58166000Y-58928000D03*
D15*
X55626000Y-58928000D03*
%TD*%
D14*
%TO.C,D11*%
X52070000Y-58928000D03*
D15*
X49530000Y-58928000D03*
%TD*%
D14*
%TO.C,D10*%
X45974000Y-58928000D03*
D15*
X43434000Y-58928000D03*
%TD*%
D14*
%TO.C,D9*%
X39878000Y-58928000D03*
D15*
X37338000Y-58928000D03*
%TD*%
D14*
%TO.C,D8*%
X82550000Y-54102000D03*
D15*
X80010000Y-54102000D03*
%TD*%
D14*
%TO.C,D7*%
X76454000Y-54102000D03*
D15*
X73914000Y-54102000D03*
%TD*%
D14*
%TO.C,D6*%
X70358000Y-54102000D03*
D15*
X67818000Y-54102000D03*
%TD*%
D14*
%TO.C,D5*%
X64262000Y-54102000D03*
D15*
X61722000Y-54102000D03*
%TD*%
D14*
%TO.C,D4*%
X58166000Y-54102000D03*
D15*
X55626000Y-54102000D03*
%TD*%
D14*
%TO.C,D3*%
X52070000Y-54102000D03*
D15*
X49530000Y-54102000D03*
%TD*%
D14*
%TO.C,D2*%
X45974000Y-54102000D03*
D15*
X43434000Y-54102000D03*
%TD*%
D14*
%TO.C,D1*%
X39878000Y-54102000D03*
D15*
X37338000Y-54102000D03*
%TD*%
M02*
