M48
; DRILL file {KiCad (5.1.8)-1} date 12/10/21 09:18:06
; FORMAT={-:-/ absolute / inch / decimal}
; #@! TF.CreationDate,2021-12-10T09:18:06+01:00
; #@! TF.GenerationSoftware,Kicad,Pcbnew,(5.1.8)-1
; #@! TF.FileFunction,Plated,1,2,PTH
FMAT,2
INCH
T1C0.0394
%
G90
G05
T1
X2.6925Y-1.0825
X2.6925Y-1.1825
X2.6925Y-1.2825
X2.6925Y-1.3825
X2.6925Y-1.4825
X2.6925Y-1.5825
X2.6925Y-1.6825
X2.6925Y-1.7825
X2.6925Y-1.8825
X2.6925Y-1.9825
X2.575Y-1.0825
X2.575Y-1.1825
X2.575Y-1.2825
X2.575Y-1.3825
X2.575Y-1.4825
X2.575Y-1.5825
X2.575Y-1.6825
X2.575Y-1.7825
X2.575Y-1.8825
X2.575Y-1.9825
T0
M30
