%TF.GenerationSoftware,KiCad,Pcbnew,(5.1.8)-1*%
%TF.CreationDate,2021-12-10T09:18:04+01:00*%
%TF.ProjectId,FirePlace_SideWall,46697265-506c-4616-9365-5f5369646557,rev?*%
%TF.SameCoordinates,Original*%
%TF.FileFunction,Copper,L2,Bot*%
%TF.FilePolarity,Positive*%
%FSLAX46Y46*%
G04 Gerber Fmt 4.6, Leading zero omitted, Abs format (unit mm)*
G04 Created by KiCad (PCBNEW (5.1.8)-1) date 2021-12-10 09:18:04*
%MOMM*%
%LPD*%
G01*
G04 APERTURE LIST*
%TA.AperFunction,ComponentPad*%
%ADD10O,1.700000X1.700000*%
%TD*%
%TA.AperFunction,ComponentPad*%
%ADD11R,1.700000X1.700000*%
%TD*%
%TA.AperFunction,NonConductor*%
%ADD12C,0.254000*%
%TD*%
%TA.AperFunction,NonConductor*%
%ADD13C,0.100000*%
%TD*%
G04 APERTURE END LIST*
D10*
%TO.P,K2,10*%
%TO.N,Net-(K1-Pad1)*%
X65405000Y-50355500D03*
%TO.P,K2,9*%
%TO.N,Net-(K1-Pad2)*%
X65405000Y-47815500D03*
%TO.P,K2,8*%
%TO.N,Net-(K1-Pad3)*%
X65405000Y-45275500D03*
%TO.P,K2,7*%
%TO.N,Net-(K1-Pad4)*%
X65405000Y-42735500D03*
%TO.P,K2,6*%
%TO.N,Net-(K1-Pad5)*%
X65405000Y-40195500D03*
%TO.P,K2,5*%
%TO.N,Net-(K1-Pad6)*%
X65405000Y-37655500D03*
%TO.P,K2,4*%
%TO.N,Net-(K1-Pad7)*%
X65405000Y-35115500D03*
%TO.P,K2,3*%
%TO.N,Net-(K1-Pad8)*%
X65405000Y-32575500D03*
%TO.P,K2,2*%
%TO.N,Net-(K1-Pad9)*%
X65405000Y-30035500D03*
D11*
%TO.P,K2,1*%
%TO.N,Net-(K1-Pad10)*%
X65405000Y-27495500D03*
%TD*%
D10*
%TO.P,K1,10*%
%TO.N,Net-(K1-Pad10)*%
X68389500Y-27495500D03*
%TO.P,K1,9*%
%TO.N,Net-(K1-Pad9)*%
X68389500Y-30035500D03*
%TO.P,K1,8*%
%TO.N,Net-(K1-Pad8)*%
X68389500Y-32575500D03*
%TO.P,K1,7*%
%TO.N,Net-(K1-Pad7)*%
X68389500Y-35115500D03*
%TO.P,K1,6*%
%TO.N,Net-(K1-Pad6)*%
X68389500Y-37655500D03*
%TO.P,K1,5*%
%TO.N,Net-(K1-Pad5)*%
X68389500Y-40195500D03*
%TO.P,K1,4*%
%TO.N,Net-(K1-Pad4)*%
X68389500Y-42735500D03*
%TO.P,K1,3*%
%TO.N,Net-(K1-Pad3)*%
X68389500Y-45275500D03*
%TO.P,K1,2*%
%TO.N,Net-(K1-Pad2)*%
X68389500Y-47815500D03*
D11*
%TO.P,K1,1*%
%TO.N,Net-(K1-Pad1)*%
X68389500Y-50355500D03*
%TD*%
D12*
X63965498Y-26401320D02*
X63929188Y-26521018D01*
X63916928Y-26645500D01*
X63916928Y-28345500D01*
X63929188Y-28469982D01*
X63965498Y-28589680D01*
X64024463Y-28699994D01*
X64103815Y-28796685D01*
X64200506Y-28876037D01*
X64310820Y-28935002D01*
X64383380Y-28957013D01*
X64251525Y-29088868D01*
X64089010Y-29332089D01*
X63977068Y-29602342D01*
X63920000Y-29889240D01*
X63920000Y-30181760D01*
X63977068Y-30468658D01*
X64089010Y-30738911D01*
X64251525Y-30982132D01*
X64458368Y-31188975D01*
X64632760Y-31305500D01*
X64458368Y-31422025D01*
X64251525Y-31628868D01*
X64089010Y-31872089D01*
X63977068Y-32142342D01*
X63920000Y-32429240D01*
X63920000Y-32721760D01*
X63977068Y-33008658D01*
X64089010Y-33278911D01*
X64251525Y-33522132D01*
X64458368Y-33728975D01*
X64632760Y-33845500D01*
X64458368Y-33962025D01*
X64251525Y-34168868D01*
X64089010Y-34412089D01*
X63977068Y-34682342D01*
X63920000Y-34969240D01*
X63920000Y-35261760D01*
X63977068Y-35548658D01*
X64089010Y-35818911D01*
X64251525Y-36062132D01*
X64458368Y-36268975D01*
X64632760Y-36385500D01*
X64458368Y-36502025D01*
X64251525Y-36708868D01*
X64089010Y-36952089D01*
X63977068Y-37222342D01*
X63920000Y-37509240D01*
X63920000Y-37801760D01*
X63977068Y-38088658D01*
X64089010Y-38358911D01*
X64251525Y-38602132D01*
X64458368Y-38808975D01*
X64632760Y-38925500D01*
X64458368Y-39042025D01*
X64251525Y-39248868D01*
X64089010Y-39492089D01*
X63977068Y-39762342D01*
X63920000Y-40049240D01*
X63920000Y-40341760D01*
X63977068Y-40628658D01*
X64089010Y-40898911D01*
X64251525Y-41142132D01*
X64458368Y-41348975D01*
X64632760Y-41465500D01*
X64458368Y-41582025D01*
X64251525Y-41788868D01*
X64089010Y-42032089D01*
X63977068Y-42302342D01*
X63920000Y-42589240D01*
X63920000Y-42881760D01*
X63977068Y-43168658D01*
X64089010Y-43438911D01*
X64251525Y-43682132D01*
X64458368Y-43888975D01*
X64632760Y-44005500D01*
X64458368Y-44122025D01*
X64251525Y-44328868D01*
X64089010Y-44572089D01*
X63977068Y-44842342D01*
X63920000Y-45129240D01*
X63920000Y-45421760D01*
X63977068Y-45708658D01*
X64089010Y-45978911D01*
X64251525Y-46222132D01*
X64458368Y-46428975D01*
X64632760Y-46545500D01*
X64458368Y-46662025D01*
X64251525Y-46868868D01*
X64089010Y-47112089D01*
X63977068Y-47382342D01*
X63920000Y-47669240D01*
X63920000Y-47961760D01*
X63977068Y-48248658D01*
X64089010Y-48518911D01*
X64251525Y-48762132D01*
X64458368Y-48968975D01*
X64632760Y-49085500D01*
X64458368Y-49202025D01*
X64251525Y-49408868D01*
X64089010Y-49652089D01*
X63977068Y-49922342D01*
X63920000Y-50209240D01*
X63920000Y-50501760D01*
X63977068Y-50788658D01*
X64089010Y-51058911D01*
X64251525Y-51302132D01*
X64458368Y-51508975D01*
X64701589Y-51671490D01*
X64971842Y-51783432D01*
X65258740Y-51840500D01*
X65551260Y-51840500D01*
X65838158Y-51783432D01*
X66108411Y-51671490D01*
X66351632Y-51508975D01*
X66558475Y-51302132D01*
X66720990Y-51058911D01*
X66832932Y-50788658D01*
X66890000Y-50501760D01*
X66890000Y-50209240D01*
X66832932Y-49922342D01*
X66720990Y-49652089D01*
X66558475Y-49408868D01*
X66351632Y-49202025D01*
X66177240Y-49085500D01*
X66351632Y-48968975D01*
X66558475Y-48762132D01*
X66720990Y-48518911D01*
X66832932Y-48248658D01*
X66890000Y-47961760D01*
X66890000Y-47669240D01*
X66832932Y-47382342D01*
X66720990Y-47112089D01*
X66558475Y-46868868D01*
X66351632Y-46662025D01*
X66177240Y-46545500D01*
X66351632Y-46428975D01*
X66558475Y-46222132D01*
X66720990Y-45978911D01*
X66832932Y-45708658D01*
X66890000Y-45421760D01*
X66890000Y-45129240D01*
X66832932Y-44842342D01*
X66720990Y-44572089D01*
X66558475Y-44328868D01*
X66351632Y-44122025D01*
X66177240Y-44005500D01*
X66351632Y-43888975D01*
X66558475Y-43682132D01*
X66720990Y-43438911D01*
X66832932Y-43168658D01*
X66890000Y-42881760D01*
X66890000Y-42589240D01*
X66832932Y-42302342D01*
X66720990Y-42032089D01*
X66558475Y-41788868D01*
X66351632Y-41582025D01*
X66177240Y-41465500D01*
X66351632Y-41348975D01*
X66558475Y-41142132D01*
X66720990Y-40898911D01*
X66832932Y-40628658D01*
X66890000Y-40341760D01*
X66890000Y-40049240D01*
X66832932Y-39762342D01*
X66720990Y-39492089D01*
X66558475Y-39248868D01*
X66351632Y-39042025D01*
X66177240Y-38925500D01*
X66351632Y-38808975D01*
X66558475Y-38602132D01*
X66720990Y-38358911D01*
X66832932Y-38088658D01*
X66890000Y-37801760D01*
X66890000Y-37509240D01*
X66832932Y-37222342D01*
X66720990Y-36952089D01*
X66558475Y-36708868D01*
X66351632Y-36502025D01*
X66177240Y-36385500D01*
X66351632Y-36268975D01*
X66558475Y-36062132D01*
X66720990Y-35818911D01*
X66832932Y-35548658D01*
X66890000Y-35261760D01*
X66890000Y-34969240D01*
X66832932Y-34682342D01*
X66720990Y-34412089D01*
X66558475Y-34168868D01*
X66351632Y-33962025D01*
X66177240Y-33845500D01*
X66351632Y-33728975D01*
X66558475Y-33522132D01*
X66720990Y-33278911D01*
X66832932Y-33008658D01*
X66890000Y-32721760D01*
X66890000Y-32429240D01*
X66832932Y-32142342D01*
X66720990Y-31872089D01*
X66558475Y-31628868D01*
X66351632Y-31422025D01*
X66177240Y-31305500D01*
X66351632Y-31188975D01*
X66558475Y-30982132D01*
X66720990Y-30738911D01*
X66832932Y-30468658D01*
X66890000Y-30181760D01*
X66890000Y-29889240D01*
X66832932Y-29602342D01*
X66720990Y-29332089D01*
X66558475Y-29088868D01*
X66426620Y-28957013D01*
X66499180Y-28935002D01*
X66609494Y-28876037D01*
X66706185Y-28796685D01*
X66785537Y-28699994D01*
X66844502Y-28589680D01*
X66880812Y-28469982D01*
X66893072Y-28345500D01*
X66893072Y-26645500D01*
X66880812Y-26521018D01*
X66844502Y-26401320D01*
X66812794Y-26342000D01*
X67442905Y-26342000D01*
X67442868Y-26342025D01*
X67236025Y-26548868D01*
X67073510Y-26792089D01*
X66961568Y-27062342D01*
X66904500Y-27349240D01*
X66904500Y-27641760D01*
X66961568Y-27928658D01*
X67073510Y-28198911D01*
X67236025Y-28442132D01*
X67442868Y-28648975D01*
X67617260Y-28765500D01*
X67442868Y-28882025D01*
X67236025Y-29088868D01*
X67073510Y-29332089D01*
X66961568Y-29602342D01*
X66904500Y-29889240D01*
X66904500Y-30181760D01*
X66961568Y-30468658D01*
X67073510Y-30738911D01*
X67236025Y-30982132D01*
X67442868Y-31188975D01*
X67617260Y-31305500D01*
X67442868Y-31422025D01*
X67236025Y-31628868D01*
X67073510Y-31872089D01*
X66961568Y-32142342D01*
X66904500Y-32429240D01*
X66904500Y-32721760D01*
X66961568Y-33008658D01*
X67073510Y-33278911D01*
X67236025Y-33522132D01*
X67442868Y-33728975D01*
X67617260Y-33845500D01*
X67442868Y-33962025D01*
X67236025Y-34168868D01*
X67073510Y-34412089D01*
X66961568Y-34682342D01*
X66904500Y-34969240D01*
X66904500Y-35261760D01*
X66961568Y-35548658D01*
X67073510Y-35818911D01*
X67236025Y-36062132D01*
X67442868Y-36268975D01*
X67617260Y-36385500D01*
X67442868Y-36502025D01*
X67236025Y-36708868D01*
X67073510Y-36952089D01*
X66961568Y-37222342D01*
X66904500Y-37509240D01*
X66904500Y-37801760D01*
X66961568Y-38088658D01*
X67073510Y-38358911D01*
X67236025Y-38602132D01*
X67442868Y-38808975D01*
X67617260Y-38925500D01*
X67442868Y-39042025D01*
X67236025Y-39248868D01*
X67073510Y-39492089D01*
X66961568Y-39762342D01*
X66904500Y-40049240D01*
X66904500Y-40341760D01*
X66961568Y-40628658D01*
X67073510Y-40898911D01*
X67236025Y-41142132D01*
X67442868Y-41348975D01*
X67617260Y-41465500D01*
X67442868Y-41582025D01*
X67236025Y-41788868D01*
X67073510Y-42032089D01*
X66961568Y-42302342D01*
X66904500Y-42589240D01*
X66904500Y-42881760D01*
X66961568Y-43168658D01*
X67073510Y-43438911D01*
X67236025Y-43682132D01*
X67442868Y-43888975D01*
X67617260Y-44005500D01*
X67442868Y-44122025D01*
X67236025Y-44328868D01*
X67073510Y-44572089D01*
X66961568Y-44842342D01*
X66904500Y-45129240D01*
X66904500Y-45421760D01*
X66961568Y-45708658D01*
X67073510Y-45978911D01*
X67236025Y-46222132D01*
X67442868Y-46428975D01*
X67617260Y-46545500D01*
X67442868Y-46662025D01*
X67236025Y-46868868D01*
X67073510Y-47112089D01*
X66961568Y-47382342D01*
X66904500Y-47669240D01*
X66904500Y-47961760D01*
X66961568Y-48248658D01*
X67073510Y-48518911D01*
X67236025Y-48762132D01*
X67367880Y-48893987D01*
X67295320Y-48915998D01*
X67185006Y-48974963D01*
X67088315Y-49054315D01*
X67008963Y-49151006D01*
X66949998Y-49261320D01*
X66913688Y-49381018D01*
X66901428Y-49505500D01*
X66901428Y-51205500D01*
X66913688Y-51329982D01*
X66949998Y-51449680D01*
X67008963Y-51559994D01*
X67088315Y-51656685D01*
X67185006Y-51736037D01*
X67295320Y-51795002D01*
X67415018Y-51831312D01*
X67539500Y-51843572D01*
X69239500Y-51843572D01*
X69363982Y-51831312D01*
X69483680Y-51795002D01*
X69593994Y-51736037D01*
X69690685Y-51656685D01*
X69770037Y-51559994D01*
X69829002Y-51449680D01*
X69865312Y-51329982D01*
X69877572Y-51205500D01*
X69877572Y-49505500D01*
X69865312Y-49381018D01*
X69829002Y-49261320D01*
X69770037Y-49151006D01*
X69690685Y-49054315D01*
X69593994Y-48974963D01*
X69483680Y-48915998D01*
X69411120Y-48893987D01*
X69542975Y-48762132D01*
X69705490Y-48518911D01*
X69817432Y-48248658D01*
X69874500Y-47961760D01*
X69874500Y-47669240D01*
X69817432Y-47382342D01*
X69705490Y-47112089D01*
X69542975Y-46868868D01*
X69336132Y-46662025D01*
X69161740Y-46545500D01*
X69336132Y-46428975D01*
X69542975Y-46222132D01*
X69705490Y-45978911D01*
X69817432Y-45708658D01*
X69874500Y-45421760D01*
X69874500Y-45129240D01*
X69817432Y-44842342D01*
X69705490Y-44572089D01*
X69542975Y-44328868D01*
X69336132Y-44122025D01*
X69161740Y-44005500D01*
X69336132Y-43888975D01*
X69542975Y-43682132D01*
X69705490Y-43438911D01*
X69817432Y-43168658D01*
X69874500Y-42881760D01*
X69874500Y-42589240D01*
X69817432Y-42302342D01*
X69705490Y-42032089D01*
X69542975Y-41788868D01*
X69336132Y-41582025D01*
X69161740Y-41465500D01*
X69336132Y-41348975D01*
X69542975Y-41142132D01*
X69705490Y-40898911D01*
X69817432Y-40628658D01*
X69874500Y-40341760D01*
X69874500Y-40049240D01*
X69817432Y-39762342D01*
X69705490Y-39492089D01*
X69542975Y-39248868D01*
X69336132Y-39042025D01*
X69161740Y-38925500D01*
X69336132Y-38808975D01*
X69542975Y-38602132D01*
X69705490Y-38358911D01*
X69817432Y-38088658D01*
X69874500Y-37801760D01*
X69874500Y-37509240D01*
X69817432Y-37222342D01*
X69705490Y-36952089D01*
X69542975Y-36708868D01*
X69336132Y-36502025D01*
X69161740Y-36385500D01*
X69336132Y-36268975D01*
X69542975Y-36062132D01*
X69705490Y-35818911D01*
X69817432Y-35548658D01*
X69874500Y-35261760D01*
X69874500Y-34969240D01*
X69817432Y-34682342D01*
X69705490Y-34412089D01*
X69542975Y-34168868D01*
X69336132Y-33962025D01*
X69161740Y-33845500D01*
X69336132Y-33728975D01*
X69542975Y-33522132D01*
X69705490Y-33278911D01*
X69817432Y-33008658D01*
X69874500Y-32721760D01*
X69874500Y-32429240D01*
X69817432Y-32142342D01*
X69705490Y-31872089D01*
X69542975Y-31628868D01*
X69336132Y-31422025D01*
X69161740Y-31305500D01*
X69336132Y-31188975D01*
X69542975Y-30982132D01*
X69705490Y-30738911D01*
X69817432Y-30468658D01*
X69874500Y-30181760D01*
X69874500Y-29889240D01*
X69817432Y-29602342D01*
X69705490Y-29332089D01*
X69542975Y-29088868D01*
X69336132Y-28882025D01*
X69161740Y-28765500D01*
X69336132Y-28648975D01*
X69542975Y-28442132D01*
X69705490Y-28198911D01*
X69817432Y-27928658D01*
X69874500Y-27641760D01*
X69874500Y-27349240D01*
X69817432Y-27062342D01*
X69705490Y-26792089D01*
X69542975Y-26548868D01*
X69336132Y-26342025D01*
X69336095Y-26342000D01*
X80545001Y-26342000D01*
X80545001Y-26887885D01*
X80541444Y-26924000D01*
X80555635Y-27068085D01*
X80597663Y-27206633D01*
X80665913Y-27334320D01*
X80757762Y-27446238D01*
X80869680Y-27538087D01*
X80997367Y-27606337D01*
X81135915Y-27648365D01*
X81243895Y-27659000D01*
X81280000Y-27662556D01*
X81316105Y-27659000D01*
X81942001Y-27659000D01*
X81942000Y-28475000D01*
X81135957Y-28475000D01*
X81100064Y-28471445D01*
X81063765Y-28475000D01*
X81063555Y-28475000D01*
X81026310Y-28478668D01*
X80955972Y-28485557D01*
X80955782Y-28485615D01*
X80955575Y-28485635D01*
X80885117Y-28507008D01*
X80817401Y-28527509D01*
X80817225Y-28527603D01*
X80817027Y-28527663D01*
X80752090Y-28562372D01*
X80689677Y-28595689D01*
X80689523Y-28595815D01*
X80689340Y-28595913D01*
X80632449Y-28642602D01*
X80577708Y-28687477D01*
X80577581Y-28687631D01*
X80577422Y-28687762D01*
X80530772Y-28744605D01*
X80485798Y-28799345D01*
X80485704Y-28799520D01*
X80485573Y-28799680D01*
X80451045Y-28864277D01*
X80417478Y-28926994D01*
X80417420Y-28927186D01*
X80417323Y-28927367D01*
X80396242Y-28996863D01*
X80375374Y-29065519D01*
X80375354Y-29065720D01*
X80375295Y-29065915D01*
X80368196Y-29137993D01*
X80364680Y-29173493D01*
X80364680Y-29173693D01*
X80361104Y-29210000D01*
X80364640Y-29245906D01*
X80342403Y-69872000D01*
X53411591Y-69872002D01*
X53389019Y-29245910D01*
X53392556Y-29210000D01*
X53388979Y-29173683D01*
X53388979Y-29173487D01*
X53385593Y-29139302D01*
X53378365Y-29065915D01*
X53378304Y-29065713D01*
X53378284Y-29065513D01*
X53357755Y-28997972D01*
X53336337Y-28927367D01*
X53336238Y-28927181D01*
X53336179Y-28926988D01*
X53302824Y-28864668D01*
X53268087Y-28799680D01*
X53267953Y-28799517D01*
X53267858Y-28799339D01*
X53222854Y-28744564D01*
X53176238Y-28687762D01*
X53176076Y-28687629D01*
X53175947Y-28687472D01*
X53121293Y-28642669D01*
X53064320Y-28595913D01*
X53064133Y-28595813D01*
X53063978Y-28595686D01*
X53002155Y-28562685D01*
X52936633Y-28527663D01*
X52936430Y-28527601D01*
X52936253Y-28527507D01*
X52869047Y-28507161D01*
X52798085Y-28485635D01*
X52797874Y-28485614D01*
X52797682Y-28485556D01*
X52727485Y-28478682D01*
X52690105Y-28475000D01*
X52689891Y-28475000D01*
X52653590Y-28471445D01*
X52617699Y-28475000D01*
X51789000Y-28475000D01*
X51789000Y-27659000D01*
X52414895Y-27659000D01*
X52451000Y-27662556D01*
X52487105Y-27659000D01*
X52595085Y-27648365D01*
X52733633Y-27606337D01*
X52861320Y-27538087D01*
X52973238Y-27446238D01*
X53065087Y-27334320D01*
X53133337Y-27206633D01*
X53175365Y-27068085D01*
X53189556Y-26924000D01*
X53186000Y-26887895D01*
X53186000Y-26342000D01*
X63997206Y-26342000D01*
X63965498Y-26401320D01*
%TA.AperFunction,NonConductor*%
D13*
G36*
X63965498Y-26401320D02*
G01*
X63929188Y-26521018D01*
X63916928Y-26645500D01*
X63916928Y-28345500D01*
X63929188Y-28469982D01*
X63965498Y-28589680D01*
X64024463Y-28699994D01*
X64103815Y-28796685D01*
X64200506Y-28876037D01*
X64310820Y-28935002D01*
X64383380Y-28957013D01*
X64251525Y-29088868D01*
X64089010Y-29332089D01*
X63977068Y-29602342D01*
X63920000Y-29889240D01*
X63920000Y-30181760D01*
X63977068Y-30468658D01*
X64089010Y-30738911D01*
X64251525Y-30982132D01*
X64458368Y-31188975D01*
X64632760Y-31305500D01*
X64458368Y-31422025D01*
X64251525Y-31628868D01*
X64089010Y-31872089D01*
X63977068Y-32142342D01*
X63920000Y-32429240D01*
X63920000Y-32721760D01*
X63977068Y-33008658D01*
X64089010Y-33278911D01*
X64251525Y-33522132D01*
X64458368Y-33728975D01*
X64632760Y-33845500D01*
X64458368Y-33962025D01*
X64251525Y-34168868D01*
X64089010Y-34412089D01*
X63977068Y-34682342D01*
X63920000Y-34969240D01*
X63920000Y-35261760D01*
X63977068Y-35548658D01*
X64089010Y-35818911D01*
X64251525Y-36062132D01*
X64458368Y-36268975D01*
X64632760Y-36385500D01*
X64458368Y-36502025D01*
X64251525Y-36708868D01*
X64089010Y-36952089D01*
X63977068Y-37222342D01*
X63920000Y-37509240D01*
X63920000Y-37801760D01*
X63977068Y-38088658D01*
X64089010Y-38358911D01*
X64251525Y-38602132D01*
X64458368Y-38808975D01*
X64632760Y-38925500D01*
X64458368Y-39042025D01*
X64251525Y-39248868D01*
X64089010Y-39492089D01*
X63977068Y-39762342D01*
X63920000Y-40049240D01*
X63920000Y-40341760D01*
X63977068Y-40628658D01*
X64089010Y-40898911D01*
X64251525Y-41142132D01*
X64458368Y-41348975D01*
X64632760Y-41465500D01*
X64458368Y-41582025D01*
X64251525Y-41788868D01*
X64089010Y-42032089D01*
X63977068Y-42302342D01*
X63920000Y-42589240D01*
X63920000Y-42881760D01*
X63977068Y-43168658D01*
X64089010Y-43438911D01*
X64251525Y-43682132D01*
X64458368Y-43888975D01*
X64632760Y-44005500D01*
X64458368Y-44122025D01*
X64251525Y-44328868D01*
X64089010Y-44572089D01*
X63977068Y-44842342D01*
X63920000Y-45129240D01*
X63920000Y-45421760D01*
X63977068Y-45708658D01*
X64089010Y-45978911D01*
X64251525Y-46222132D01*
X64458368Y-46428975D01*
X64632760Y-46545500D01*
X64458368Y-46662025D01*
X64251525Y-46868868D01*
X64089010Y-47112089D01*
X63977068Y-47382342D01*
X63920000Y-47669240D01*
X63920000Y-47961760D01*
X63977068Y-48248658D01*
X64089010Y-48518911D01*
X64251525Y-48762132D01*
X64458368Y-48968975D01*
X64632760Y-49085500D01*
X64458368Y-49202025D01*
X64251525Y-49408868D01*
X64089010Y-49652089D01*
X63977068Y-49922342D01*
X63920000Y-50209240D01*
X63920000Y-50501760D01*
X63977068Y-50788658D01*
X64089010Y-51058911D01*
X64251525Y-51302132D01*
X64458368Y-51508975D01*
X64701589Y-51671490D01*
X64971842Y-51783432D01*
X65258740Y-51840500D01*
X65551260Y-51840500D01*
X65838158Y-51783432D01*
X66108411Y-51671490D01*
X66351632Y-51508975D01*
X66558475Y-51302132D01*
X66720990Y-51058911D01*
X66832932Y-50788658D01*
X66890000Y-50501760D01*
X66890000Y-50209240D01*
X66832932Y-49922342D01*
X66720990Y-49652089D01*
X66558475Y-49408868D01*
X66351632Y-49202025D01*
X66177240Y-49085500D01*
X66351632Y-48968975D01*
X66558475Y-48762132D01*
X66720990Y-48518911D01*
X66832932Y-48248658D01*
X66890000Y-47961760D01*
X66890000Y-47669240D01*
X66832932Y-47382342D01*
X66720990Y-47112089D01*
X66558475Y-46868868D01*
X66351632Y-46662025D01*
X66177240Y-46545500D01*
X66351632Y-46428975D01*
X66558475Y-46222132D01*
X66720990Y-45978911D01*
X66832932Y-45708658D01*
X66890000Y-45421760D01*
X66890000Y-45129240D01*
X66832932Y-44842342D01*
X66720990Y-44572089D01*
X66558475Y-44328868D01*
X66351632Y-44122025D01*
X66177240Y-44005500D01*
X66351632Y-43888975D01*
X66558475Y-43682132D01*
X66720990Y-43438911D01*
X66832932Y-43168658D01*
X66890000Y-42881760D01*
X66890000Y-42589240D01*
X66832932Y-42302342D01*
X66720990Y-42032089D01*
X66558475Y-41788868D01*
X66351632Y-41582025D01*
X66177240Y-41465500D01*
X66351632Y-41348975D01*
X66558475Y-41142132D01*
X66720990Y-40898911D01*
X66832932Y-40628658D01*
X66890000Y-40341760D01*
X66890000Y-40049240D01*
X66832932Y-39762342D01*
X66720990Y-39492089D01*
X66558475Y-39248868D01*
X66351632Y-39042025D01*
X66177240Y-38925500D01*
X66351632Y-38808975D01*
X66558475Y-38602132D01*
X66720990Y-38358911D01*
X66832932Y-38088658D01*
X66890000Y-37801760D01*
X66890000Y-37509240D01*
X66832932Y-37222342D01*
X66720990Y-36952089D01*
X66558475Y-36708868D01*
X66351632Y-36502025D01*
X66177240Y-36385500D01*
X66351632Y-36268975D01*
X66558475Y-36062132D01*
X66720990Y-35818911D01*
X66832932Y-35548658D01*
X66890000Y-35261760D01*
X66890000Y-34969240D01*
X66832932Y-34682342D01*
X66720990Y-34412089D01*
X66558475Y-34168868D01*
X66351632Y-33962025D01*
X66177240Y-33845500D01*
X66351632Y-33728975D01*
X66558475Y-33522132D01*
X66720990Y-33278911D01*
X66832932Y-33008658D01*
X66890000Y-32721760D01*
X66890000Y-32429240D01*
X66832932Y-32142342D01*
X66720990Y-31872089D01*
X66558475Y-31628868D01*
X66351632Y-31422025D01*
X66177240Y-31305500D01*
X66351632Y-31188975D01*
X66558475Y-30982132D01*
X66720990Y-30738911D01*
X66832932Y-30468658D01*
X66890000Y-30181760D01*
X66890000Y-29889240D01*
X66832932Y-29602342D01*
X66720990Y-29332089D01*
X66558475Y-29088868D01*
X66426620Y-28957013D01*
X66499180Y-28935002D01*
X66609494Y-28876037D01*
X66706185Y-28796685D01*
X66785537Y-28699994D01*
X66844502Y-28589680D01*
X66880812Y-28469982D01*
X66893072Y-28345500D01*
X66893072Y-26645500D01*
X66880812Y-26521018D01*
X66844502Y-26401320D01*
X66812794Y-26342000D01*
X67442905Y-26342000D01*
X67442868Y-26342025D01*
X67236025Y-26548868D01*
X67073510Y-26792089D01*
X66961568Y-27062342D01*
X66904500Y-27349240D01*
X66904500Y-27641760D01*
X66961568Y-27928658D01*
X67073510Y-28198911D01*
X67236025Y-28442132D01*
X67442868Y-28648975D01*
X67617260Y-28765500D01*
X67442868Y-28882025D01*
X67236025Y-29088868D01*
X67073510Y-29332089D01*
X66961568Y-29602342D01*
X66904500Y-29889240D01*
X66904500Y-30181760D01*
X66961568Y-30468658D01*
X67073510Y-30738911D01*
X67236025Y-30982132D01*
X67442868Y-31188975D01*
X67617260Y-31305500D01*
X67442868Y-31422025D01*
X67236025Y-31628868D01*
X67073510Y-31872089D01*
X66961568Y-32142342D01*
X66904500Y-32429240D01*
X66904500Y-32721760D01*
X66961568Y-33008658D01*
X67073510Y-33278911D01*
X67236025Y-33522132D01*
X67442868Y-33728975D01*
X67617260Y-33845500D01*
X67442868Y-33962025D01*
X67236025Y-34168868D01*
X67073510Y-34412089D01*
X66961568Y-34682342D01*
X66904500Y-34969240D01*
X66904500Y-35261760D01*
X66961568Y-35548658D01*
X67073510Y-35818911D01*
X67236025Y-36062132D01*
X67442868Y-36268975D01*
X67617260Y-36385500D01*
X67442868Y-36502025D01*
X67236025Y-36708868D01*
X67073510Y-36952089D01*
X66961568Y-37222342D01*
X66904500Y-37509240D01*
X66904500Y-37801760D01*
X66961568Y-38088658D01*
X67073510Y-38358911D01*
X67236025Y-38602132D01*
X67442868Y-38808975D01*
X67617260Y-38925500D01*
X67442868Y-39042025D01*
X67236025Y-39248868D01*
X67073510Y-39492089D01*
X66961568Y-39762342D01*
X66904500Y-40049240D01*
X66904500Y-40341760D01*
X66961568Y-40628658D01*
X67073510Y-40898911D01*
X67236025Y-41142132D01*
X67442868Y-41348975D01*
X67617260Y-41465500D01*
X67442868Y-41582025D01*
X67236025Y-41788868D01*
X67073510Y-42032089D01*
X66961568Y-42302342D01*
X66904500Y-42589240D01*
X66904500Y-42881760D01*
X66961568Y-43168658D01*
X67073510Y-43438911D01*
X67236025Y-43682132D01*
X67442868Y-43888975D01*
X67617260Y-44005500D01*
X67442868Y-44122025D01*
X67236025Y-44328868D01*
X67073510Y-44572089D01*
X66961568Y-44842342D01*
X66904500Y-45129240D01*
X66904500Y-45421760D01*
X66961568Y-45708658D01*
X67073510Y-45978911D01*
X67236025Y-46222132D01*
X67442868Y-46428975D01*
X67617260Y-46545500D01*
X67442868Y-46662025D01*
X67236025Y-46868868D01*
X67073510Y-47112089D01*
X66961568Y-47382342D01*
X66904500Y-47669240D01*
X66904500Y-47961760D01*
X66961568Y-48248658D01*
X67073510Y-48518911D01*
X67236025Y-48762132D01*
X67367880Y-48893987D01*
X67295320Y-48915998D01*
X67185006Y-48974963D01*
X67088315Y-49054315D01*
X67008963Y-49151006D01*
X66949998Y-49261320D01*
X66913688Y-49381018D01*
X66901428Y-49505500D01*
X66901428Y-51205500D01*
X66913688Y-51329982D01*
X66949998Y-51449680D01*
X67008963Y-51559994D01*
X67088315Y-51656685D01*
X67185006Y-51736037D01*
X67295320Y-51795002D01*
X67415018Y-51831312D01*
X67539500Y-51843572D01*
X69239500Y-51843572D01*
X69363982Y-51831312D01*
X69483680Y-51795002D01*
X69593994Y-51736037D01*
X69690685Y-51656685D01*
X69770037Y-51559994D01*
X69829002Y-51449680D01*
X69865312Y-51329982D01*
X69877572Y-51205500D01*
X69877572Y-49505500D01*
X69865312Y-49381018D01*
X69829002Y-49261320D01*
X69770037Y-49151006D01*
X69690685Y-49054315D01*
X69593994Y-48974963D01*
X69483680Y-48915998D01*
X69411120Y-48893987D01*
X69542975Y-48762132D01*
X69705490Y-48518911D01*
X69817432Y-48248658D01*
X69874500Y-47961760D01*
X69874500Y-47669240D01*
X69817432Y-47382342D01*
X69705490Y-47112089D01*
X69542975Y-46868868D01*
X69336132Y-46662025D01*
X69161740Y-46545500D01*
X69336132Y-46428975D01*
X69542975Y-46222132D01*
X69705490Y-45978911D01*
X69817432Y-45708658D01*
X69874500Y-45421760D01*
X69874500Y-45129240D01*
X69817432Y-44842342D01*
X69705490Y-44572089D01*
X69542975Y-44328868D01*
X69336132Y-44122025D01*
X69161740Y-44005500D01*
X69336132Y-43888975D01*
X69542975Y-43682132D01*
X69705490Y-43438911D01*
X69817432Y-43168658D01*
X69874500Y-42881760D01*
X69874500Y-42589240D01*
X69817432Y-42302342D01*
X69705490Y-42032089D01*
X69542975Y-41788868D01*
X69336132Y-41582025D01*
X69161740Y-41465500D01*
X69336132Y-41348975D01*
X69542975Y-41142132D01*
X69705490Y-40898911D01*
X69817432Y-40628658D01*
X69874500Y-40341760D01*
X69874500Y-40049240D01*
X69817432Y-39762342D01*
X69705490Y-39492089D01*
X69542975Y-39248868D01*
X69336132Y-39042025D01*
X69161740Y-38925500D01*
X69336132Y-38808975D01*
X69542975Y-38602132D01*
X69705490Y-38358911D01*
X69817432Y-38088658D01*
X69874500Y-37801760D01*
X69874500Y-37509240D01*
X69817432Y-37222342D01*
X69705490Y-36952089D01*
X69542975Y-36708868D01*
X69336132Y-36502025D01*
X69161740Y-36385500D01*
X69336132Y-36268975D01*
X69542975Y-36062132D01*
X69705490Y-35818911D01*
X69817432Y-35548658D01*
X69874500Y-35261760D01*
X69874500Y-34969240D01*
X69817432Y-34682342D01*
X69705490Y-34412089D01*
X69542975Y-34168868D01*
X69336132Y-33962025D01*
X69161740Y-33845500D01*
X69336132Y-33728975D01*
X69542975Y-33522132D01*
X69705490Y-33278911D01*
X69817432Y-33008658D01*
X69874500Y-32721760D01*
X69874500Y-32429240D01*
X69817432Y-32142342D01*
X69705490Y-31872089D01*
X69542975Y-31628868D01*
X69336132Y-31422025D01*
X69161740Y-31305500D01*
X69336132Y-31188975D01*
X69542975Y-30982132D01*
X69705490Y-30738911D01*
X69817432Y-30468658D01*
X69874500Y-30181760D01*
X69874500Y-29889240D01*
X69817432Y-29602342D01*
X69705490Y-29332089D01*
X69542975Y-29088868D01*
X69336132Y-28882025D01*
X69161740Y-28765500D01*
X69336132Y-28648975D01*
X69542975Y-28442132D01*
X69705490Y-28198911D01*
X69817432Y-27928658D01*
X69874500Y-27641760D01*
X69874500Y-27349240D01*
X69817432Y-27062342D01*
X69705490Y-26792089D01*
X69542975Y-26548868D01*
X69336132Y-26342025D01*
X69336095Y-26342000D01*
X80545001Y-26342000D01*
X80545001Y-26887885D01*
X80541444Y-26924000D01*
X80555635Y-27068085D01*
X80597663Y-27206633D01*
X80665913Y-27334320D01*
X80757762Y-27446238D01*
X80869680Y-27538087D01*
X80997367Y-27606337D01*
X81135915Y-27648365D01*
X81243895Y-27659000D01*
X81280000Y-27662556D01*
X81316105Y-27659000D01*
X81942001Y-27659000D01*
X81942000Y-28475000D01*
X81135957Y-28475000D01*
X81100064Y-28471445D01*
X81063765Y-28475000D01*
X81063555Y-28475000D01*
X81026310Y-28478668D01*
X80955972Y-28485557D01*
X80955782Y-28485615D01*
X80955575Y-28485635D01*
X80885117Y-28507008D01*
X80817401Y-28527509D01*
X80817225Y-28527603D01*
X80817027Y-28527663D01*
X80752090Y-28562372D01*
X80689677Y-28595689D01*
X80689523Y-28595815D01*
X80689340Y-28595913D01*
X80632449Y-28642602D01*
X80577708Y-28687477D01*
X80577581Y-28687631D01*
X80577422Y-28687762D01*
X80530772Y-28744605D01*
X80485798Y-28799345D01*
X80485704Y-28799520D01*
X80485573Y-28799680D01*
X80451045Y-28864277D01*
X80417478Y-28926994D01*
X80417420Y-28927186D01*
X80417323Y-28927367D01*
X80396242Y-28996863D01*
X80375374Y-29065519D01*
X80375354Y-29065720D01*
X80375295Y-29065915D01*
X80368196Y-29137993D01*
X80364680Y-29173493D01*
X80364680Y-29173693D01*
X80361104Y-29210000D01*
X80364640Y-29245906D01*
X80342403Y-69872000D01*
X53411591Y-69872002D01*
X53389019Y-29245910D01*
X53392556Y-29210000D01*
X53388979Y-29173683D01*
X53388979Y-29173487D01*
X53385593Y-29139302D01*
X53378365Y-29065915D01*
X53378304Y-29065713D01*
X53378284Y-29065513D01*
X53357755Y-28997972D01*
X53336337Y-28927367D01*
X53336238Y-28927181D01*
X53336179Y-28926988D01*
X53302824Y-28864668D01*
X53268087Y-28799680D01*
X53267953Y-28799517D01*
X53267858Y-28799339D01*
X53222854Y-28744564D01*
X53176238Y-28687762D01*
X53176076Y-28687629D01*
X53175947Y-28687472D01*
X53121293Y-28642669D01*
X53064320Y-28595913D01*
X53064133Y-28595813D01*
X53063978Y-28595686D01*
X53002155Y-28562685D01*
X52936633Y-28527663D01*
X52936430Y-28527601D01*
X52936253Y-28527507D01*
X52869047Y-28507161D01*
X52798085Y-28485635D01*
X52797874Y-28485614D01*
X52797682Y-28485556D01*
X52727485Y-28478682D01*
X52690105Y-28475000D01*
X52689891Y-28475000D01*
X52653590Y-28471445D01*
X52617699Y-28475000D01*
X51789000Y-28475000D01*
X51789000Y-27659000D01*
X52414895Y-27659000D01*
X52451000Y-27662556D01*
X52487105Y-27659000D01*
X52595085Y-27648365D01*
X52733633Y-27606337D01*
X52861320Y-27538087D01*
X52973238Y-27446238D01*
X53065087Y-27334320D01*
X53133337Y-27206633D01*
X53175365Y-27068085D01*
X53189556Y-26924000D01*
X53186000Y-26887895D01*
X53186000Y-26342000D01*
X63997206Y-26342000D01*
X63965498Y-26401320D01*
G37*
%TD.AperFunction*%
M02*
