%TF.GenerationSoftware,KiCad,Pcbnew,(5.1.8)-1*%
%TF.CreationDate,2021-12-10T09:03:27+01:00*%
%TF.ProjectId,FirePlaceFrontwall,46697265-506c-4616-9365-46726f6e7477,rev?*%
%TF.SameCoordinates,Original*%
%TF.FileFunction,Legend,Bot*%
%TF.FilePolarity,Positive*%
%FSLAX46Y46*%
G04 Gerber Fmt 4.6, Leading zero omitted, Abs format (unit mm)*
G04 Created by KiCad (PCBNEW (5.1.8)-1) date 2021-12-10 09:03:27*
%MOMM*%
%LPD*%
G01*
G04 APERTURE LIST*
%ADD10C,0.010000*%
G04 APERTURE END LIST*
D10*
%TO.C,G\u002A\u002A\u002A*%
G36*
X59064897Y-34356119D02*
G01*
X58480958Y-34575475D01*
X57939778Y-35005883D01*
X57489866Y-35604460D01*
X57351005Y-35871220D01*
X57195627Y-36223522D01*
X57103333Y-36466370D01*
X57091140Y-36534072D01*
X57217808Y-36574725D01*
X57554167Y-36670385D01*
X58064333Y-36811186D01*
X58712422Y-36987261D01*
X59462550Y-37188744D01*
X59784661Y-37274648D01*
X60574535Y-37485376D01*
X61285190Y-37675923D01*
X61878625Y-37836020D01*
X62316835Y-37955402D01*
X62561818Y-38023800D01*
X62596151Y-38034223D01*
X62724582Y-37962659D01*
X62827874Y-37714104D01*
X62831065Y-37700039D01*
X62865880Y-37089000D01*
X62749070Y-36428471D01*
X62505906Y-35851239D01*
X62467884Y-35791554D01*
X61981907Y-35265798D01*
X61323076Y-34827939D01*
X60566213Y-34509539D01*
X59786138Y-34342156D01*
X59064897Y-34356119D01*
G37*
X59064897Y-34356119D02*
X58480958Y-34575475D01*
X57939778Y-35005883D01*
X57489866Y-35604460D01*
X57351005Y-35871220D01*
X57195627Y-36223522D01*
X57103333Y-36466370D01*
X57091140Y-36534072D01*
X57217808Y-36574725D01*
X57554167Y-36670385D01*
X58064333Y-36811186D01*
X58712422Y-36987261D01*
X59462550Y-37188744D01*
X59784661Y-37274648D01*
X60574535Y-37485376D01*
X61285190Y-37675923D01*
X61878625Y-37836020D01*
X62316835Y-37955402D01*
X62561818Y-38023800D01*
X62596151Y-38034223D01*
X62724582Y-37962659D01*
X62827874Y-37714104D01*
X62831065Y-37700039D01*
X62865880Y-37089000D01*
X62749070Y-36428471D01*
X62505906Y-35851239D01*
X62467884Y-35791554D01*
X61981907Y-35265798D01*
X61323076Y-34827939D01*
X60566213Y-34509539D01*
X59786138Y-34342156D01*
X59064897Y-34356119D01*
G36*
X57952978Y-29195182D02*
G01*
X57238900Y-29326708D01*
X55770699Y-29800806D01*
X54402319Y-30489177D01*
X53157310Y-31369254D01*
X52059220Y-32418467D01*
X51131597Y-33614246D01*
X50397990Y-34934022D01*
X49881948Y-36355227D01*
X49873748Y-36385500D01*
X49649564Y-37589120D01*
X49578097Y-38900441D01*
X49654735Y-40238546D01*
X49874862Y-41522517D01*
X50231934Y-42666662D01*
X50830916Y-43877947D01*
X51615768Y-45047793D01*
X52533427Y-46107351D01*
X53530827Y-46987775D01*
X53604760Y-47042753D01*
X54879699Y-47825931D01*
X56282728Y-48412284D01*
X57767670Y-48789775D01*
X59288346Y-48946368D01*
X60674452Y-48885555D01*
X62208139Y-48581844D01*
X63643518Y-48055317D01*
X64962522Y-47324151D01*
X66147085Y-46406522D01*
X67179141Y-45320606D01*
X68040624Y-44084579D01*
X68713468Y-42716619D01*
X69179607Y-41234900D01*
X69374076Y-40132880D01*
X69420535Y-38989000D01*
X67005328Y-38989000D01*
X66888001Y-40375376D01*
X66541449Y-41676257D01*
X65980265Y-42870356D01*
X65219041Y-43936386D01*
X64272370Y-44853061D01*
X63154846Y-45599092D01*
X62162606Y-46053126D01*
X61036018Y-46400775D01*
X59968923Y-46555316D01*
X58866648Y-46525508D01*
X58154947Y-46423838D01*
X56840721Y-46065415D01*
X55636657Y-45489584D01*
X54564555Y-44717070D01*
X53646217Y-43768602D01*
X52903446Y-42664905D01*
X52358043Y-41426708D01*
X52155870Y-40720531D01*
X52059483Y-40296775D01*
X51992259Y-39972584D01*
X51970278Y-39832482D01*
X52054754Y-39743903D01*
X52286722Y-39803401D01*
X52625208Y-39988768D01*
X53029238Y-40277796D01*
X53433863Y-40625734D01*
X54567069Y-41568544D01*
X55693941Y-42265785D01*
X56830676Y-42724888D01*
X57993469Y-42953284D01*
X58572400Y-42983197D01*
X59459030Y-42927102D01*
X60179613Y-42730016D01*
X60793329Y-42368372D01*
X61285042Y-41903036D01*
X61606956Y-41498741D01*
X61850282Y-41105559D01*
X61985487Y-40780656D01*
X61983035Y-40581195D01*
X61973768Y-40570034D01*
X61846475Y-40529359D01*
X61500143Y-40430173D01*
X60961076Y-40279717D01*
X60255579Y-40085230D01*
X59409953Y-39853954D01*
X58450504Y-39593128D01*
X57403535Y-39309993D01*
X57046337Y-39213711D01*
X52158900Y-37897383D01*
X52185065Y-37342336D01*
X52308545Y-36688322D01*
X52602732Y-35938062D01*
X53036215Y-35149143D01*
X53577581Y-34379149D01*
X54161126Y-33719703D01*
X55230748Y-32812086D01*
X56387755Y-32142671D01*
X57636832Y-31709502D01*
X58982664Y-31510622D01*
X59484800Y-31495999D01*
X60859027Y-31616624D01*
X62151197Y-31967972D01*
X63340466Y-32534251D01*
X64405991Y-33299672D01*
X65326927Y-34248442D01*
X66082431Y-35364772D01*
X66651659Y-36632869D01*
X66777061Y-37020500D01*
X66934234Y-37801613D01*
X67002805Y-38765597D01*
X67005328Y-38989000D01*
X69420535Y-38989000D01*
X69435891Y-38610916D01*
X69258873Y-37122879D01*
X68857935Y-35691322D01*
X68247990Y-34338798D01*
X67443952Y-33087861D01*
X66460732Y-31961063D01*
X65313244Y-30980958D01*
X64016401Y-30170098D01*
X62585115Y-29551037D01*
X62318900Y-29463146D01*
X61346940Y-29239337D01*
X60233848Y-29118423D01*
X59071802Y-29102879D01*
X57952978Y-29195182D01*
G37*
X57952978Y-29195182D02*
X57238900Y-29326708D01*
X55770699Y-29800806D01*
X54402319Y-30489177D01*
X53157310Y-31369254D01*
X52059220Y-32418467D01*
X51131597Y-33614246D01*
X50397990Y-34934022D01*
X49881948Y-36355227D01*
X49873748Y-36385500D01*
X49649564Y-37589120D01*
X49578097Y-38900441D01*
X49654735Y-40238546D01*
X49874862Y-41522517D01*
X50231934Y-42666662D01*
X50830916Y-43877947D01*
X51615768Y-45047793D01*
X52533427Y-46107351D01*
X53530827Y-46987775D01*
X53604760Y-47042753D01*
X54879699Y-47825931D01*
X56282728Y-48412284D01*
X57767670Y-48789775D01*
X59288346Y-48946368D01*
X60674452Y-48885555D01*
X62208139Y-48581844D01*
X63643518Y-48055317D01*
X64962522Y-47324151D01*
X66147085Y-46406522D01*
X67179141Y-45320606D01*
X68040624Y-44084579D01*
X68713468Y-42716619D01*
X69179607Y-41234900D01*
X69374076Y-40132880D01*
X69420535Y-38989000D01*
X67005328Y-38989000D01*
X66888001Y-40375376D01*
X66541449Y-41676257D01*
X65980265Y-42870356D01*
X65219041Y-43936386D01*
X64272370Y-44853061D01*
X63154846Y-45599092D01*
X62162606Y-46053126D01*
X61036018Y-46400775D01*
X59968923Y-46555316D01*
X58866648Y-46525508D01*
X58154947Y-46423838D01*
X56840721Y-46065415D01*
X55636657Y-45489584D01*
X54564555Y-44717070D01*
X53646217Y-43768602D01*
X52903446Y-42664905D01*
X52358043Y-41426708D01*
X52155870Y-40720531D01*
X52059483Y-40296775D01*
X51992259Y-39972584D01*
X51970278Y-39832482D01*
X52054754Y-39743903D01*
X52286722Y-39803401D01*
X52625208Y-39988768D01*
X53029238Y-40277796D01*
X53433863Y-40625734D01*
X54567069Y-41568544D01*
X55693941Y-42265785D01*
X56830676Y-42724888D01*
X57993469Y-42953284D01*
X58572400Y-42983197D01*
X59459030Y-42927102D01*
X60179613Y-42730016D01*
X60793329Y-42368372D01*
X61285042Y-41903036D01*
X61606956Y-41498741D01*
X61850282Y-41105559D01*
X61985487Y-40780656D01*
X61983035Y-40581195D01*
X61973768Y-40570034D01*
X61846475Y-40529359D01*
X61500143Y-40430173D01*
X60961076Y-40279717D01*
X60255579Y-40085230D01*
X59409953Y-39853954D01*
X58450504Y-39593128D01*
X57403535Y-39309993D01*
X57046337Y-39213711D01*
X52158900Y-37897383D01*
X52185065Y-37342336D01*
X52308545Y-36688322D01*
X52602732Y-35938062D01*
X53036215Y-35149143D01*
X53577581Y-34379149D01*
X54161126Y-33719703D01*
X55230748Y-32812086D01*
X56387755Y-32142671D01*
X57636832Y-31709502D01*
X58982664Y-31510622D01*
X59484800Y-31495999D01*
X60859027Y-31616624D01*
X62151197Y-31967972D01*
X63340466Y-32534251D01*
X64405991Y-33299672D01*
X65326927Y-34248442D01*
X66082431Y-35364772D01*
X66651659Y-36632869D01*
X66777061Y-37020500D01*
X66934234Y-37801613D01*
X67002805Y-38765597D01*
X67005328Y-38989000D01*
X69420535Y-38989000D01*
X69435891Y-38610916D01*
X69258873Y-37122879D01*
X68857935Y-35691322D01*
X68247990Y-34338798D01*
X67443952Y-33087861D01*
X66460732Y-31961063D01*
X65313244Y-30980958D01*
X64016401Y-30170098D01*
X62585115Y-29551037D01*
X62318900Y-29463146D01*
X61346940Y-29239337D01*
X60233848Y-29118423D01*
X59071802Y-29102879D01*
X57952978Y-29195182D01*
%TD*%
M02*
