%TF.GenerationSoftware,KiCad,Pcbnew,(5.1.8)-1*%
%TF.CreationDate,2021-12-10T09:03:27+01:00*%
%TF.ProjectId,FirePlaceFrontwall,46697265-506c-4616-9365-46726f6e7477,rev?*%
%TF.SameCoordinates,Original*%
%TF.FileFunction,Copper,L1,Top*%
%TF.FilePolarity,Positive*%
%FSLAX46Y46*%
G04 Gerber Fmt 4.6, Leading zero omitted, Abs format (unit mm)*
G04 Created by KiCad (PCBNEW (5.1.8)-1) date 2021-12-10 09:03:27*
%MOMM*%
%LPD*%
G01*
G04 APERTURE LIST*
%TA.AperFunction,ComponentPad*%
%ADD10C,0.100000*%
%TD*%
%TA.AperFunction,ComponentPad*%
%ADD11O,1.700000X1.700000*%
%TD*%
%TA.AperFunction,ComponentPad*%
%ADD12R,1.700000X1.700000*%
%TD*%
%TA.AperFunction,ViaPad*%
%ADD13C,0.800000*%
%TD*%
%TA.AperFunction,Conductor*%
%ADD14C,0.500000*%
%TD*%
%TA.AperFunction,Conductor*%
%ADD15C,0.254000*%
%TD*%
%TA.AperFunction,Conductor*%
%ADD16C,0.100000*%
%TD*%
G04 APERTURE END LIST*
%TO.P,K4,10*%
%TO.N,RUN*%
%TA.AperFunction,ComponentPad*%
G36*
G01*
X91194559Y-43450841D02*
X91194559Y-43450841D01*
G75*
G02*
X91194559Y-42248759I601041J601041D01*
G01*
X91194559Y-42248759D01*
G75*
G02*
X92396641Y-42248759I601041J-601041D01*
G01*
X92396641Y-42248759D01*
G75*
G02*
X92396641Y-43450841I-601041J-601041D01*
G01*
X92396641Y-43450841D01*
G75*
G02*
X91194559Y-43450841I-601041J601041D01*
G01*
G37*
%TD.AperFunction*%
%TO.P,K4,9*%
%TO.N,GPIO22*%
%TA.AperFunction,ComponentPad*%
G36*
G01*
X89398508Y-41654790D02*
X89398508Y-41654790D01*
G75*
G02*
X89398508Y-40452708I601041J601041D01*
G01*
X89398508Y-40452708D01*
G75*
G02*
X90600590Y-40452708I601041J-601041D01*
G01*
X90600590Y-40452708D01*
G75*
G02*
X90600590Y-41654790I-601041J-601041D01*
G01*
X90600590Y-41654790D01*
G75*
G02*
X89398508Y-41654790I-601041J601041D01*
G01*
G37*
%TD.AperFunction*%
%TO.P,K4,8*%
%TO.N,AGND*%
%TA.AperFunction,ComponentPad*%
G36*
G01*
X87602457Y-39858739D02*
X87602457Y-39858739D01*
G75*
G02*
X87602457Y-38656657I601041J601041D01*
G01*
X87602457Y-38656657D01*
G75*
G02*
X88804539Y-38656657I601041J-601041D01*
G01*
X88804539Y-38656657D01*
G75*
G02*
X88804539Y-39858739I-601041J-601041D01*
G01*
X88804539Y-39858739D01*
G75*
G02*
X87602457Y-39858739I-601041J601041D01*
G01*
G37*
%TD.AperFunction*%
%TO.P,K4,7*%
%TO.N,GPIO21*%
%TA.AperFunction,ComponentPad*%
G36*
G01*
X85806405Y-38062687D02*
X85806405Y-38062687D01*
G75*
G02*
X85806405Y-36860605I601041J601041D01*
G01*
X85806405Y-36860605D01*
G75*
G02*
X87008487Y-36860605I601041J-601041D01*
G01*
X87008487Y-36860605D01*
G75*
G02*
X87008487Y-38062687I-601041J-601041D01*
G01*
X87008487Y-38062687D01*
G75*
G02*
X85806405Y-38062687I-601041J601041D01*
G01*
G37*
%TD.AperFunction*%
%TO.P,K4,6*%
%TO.N,GPIO20*%
%TA.AperFunction,ComponentPad*%
G36*
G01*
X84010354Y-36266636D02*
X84010354Y-36266636D01*
G75*
G02*
X84010354Y-35064554I601041J601041D01*
G01*
X84010354Y-35064554D01*
G75*
G02*
X85212436Y-35064554I601041J-601041D01*
G01*
X85212436Y-35064554D01*
G75*
G02*
X85212436Y-36266636I-601041J-601041D01*
G01*
X85212436Y-36266636D01*
G75*
G02*
X84010354Y-36266636I-601041J601041D01*
G01*
G37*
%TD.AperFunction*%
%TO.P,K4,5*%
%TO.N,GPIO19*%
%TA.AperFunction,ComponentPad*%
G36*
G01*
X82214303Y-34470585D02*
X82214303Y-34470585D01*
G75*
G02*
X82214303Y-33268503I601041J601041D01*
G01*
X82214303Y-33268503D01*
G75*
G02*
X83416385Y-33268503I601041J-601041D01*
G01*
X83416385Y-33268503D01*
G75*
G02*
X83416385Y-34470585I-601041J-601041D01*
G01*
X83416385Y-34470585D01*
G75*
G02*
X82214303Y-34470585I-601041J601041D01*
G01*
G37*
%TD.AperFunction*%
%TO.P,K4,4*%
%TO.N,GPIO18*%
%TA.AperFunction,ComponentPad*%
G36*
G01*
X80418252Y-32674534D02*
X80418252Y-32674534D01*
G75*
G02*
X80418252Y-31472452I601041J601041D01*
G01*
X80418252Y-31472452D01*
G75*
G02*
X81620334Y-31472452I601041J-601041D01*
G01*
X81620334Y-31472452D01*
G75*
G02*
X81620334Y-32674534I-601041J-601041D01*
G01*
X81620334Y-32674534D01*
G75*
G02*
X80418252Y-32674534I-601041J601041D01*
G01*
G37*
%TD.AperFunction*%
%TO.P,K4,3*%
%TO.N,AGND*%
%TA.AperFunction,ComponentPad*%
G36*
G01*
X78622200Y-30878482D02*
X78622200Y-30878482D01*
G75*
G02*
X78622200Y-29676400I601041J601041D01*
G01*
X78622200Y-29676400D01*
G75*
G02*
X79824282Y-29676400I601041J-601041D01*
G01*
X79824282Y-29676400D01*
G75*
G02*
X79824282Y-30878482I-601041J-601041D01*
G01*
X79824282Y-30878482D01*
G75*
G02*
X78622200Y-30878482I-601041J601041D01*
G01*
G37*
%TD.AperFunction*%
%TO.P,K4,2*%
%TO.N,GPIO17*%
%TA.AperFunction,ComponentPad*%
G36*
G01*
X76826149Y-29082431D02*
X76826149Y-29082431D01*
G75*
G02*
X76826149Y-27880349I601041J601041D01*
G01*
X76826149Y-27880349D01*
G75*
G02*
X78028231Y-27880349I601041J-601041D01*
G01*
X78028231Y-27880349D01*
G75*
G02*
X78028231Y-29082431I-601041J-601041D01*
G01*
X78028231Y-29082431D01*
G75*
G02*
X76826149Y-29082431I-601041J601041D01*
G01*
G37*
%TD.AperFunction*%
%TA.AperFunction,ComponentPad*%
D10*
%TO.P,K4,1*%
%TO.N,GPIO16*%
G36*
X75631139Y-27887421D02*
G01*
X74429057Y-26685339D01*
X75631139Y-25483257D01*
X76833221Y-26685339D01*
X75631139Y-27887421D01*
G37*
%TD.AperFunction*%
%TD*%
D11*
%TO.P,K3,10*%
%TO.N,VBUS*%
X94538800Y-71348600D03*
%TO.P,K3,9*%
%TO.N,VSYS*%
X94538800Y-68808600D03*
%TO.P,K3,8*%
%TO.N,AGND*%
X94538800Y-66268600D03*
%TO.P,K3,7*%
%TO.N,3V3_EN*%
X94538800Y-63728600D03*
%TO.P,K3,6*%
%TO.N,3V3*%
X94538800Y-61188600D03*
%TO.P,K3,5*%
%TO.N,ADC_REF*%
X94538800Y-58648600D03*
%TO.P,K3,4*%
%TO.N,GPIO28_ADC2*%
X94538800Y-56108600D03*
%TO.P,K3,3*%
%TO.N,AGND*%
X94538800Y-53568600D03*
%TO.P,K3,2*%
%TO.N,GPIO27_ADC1*%
X94538800Y-51028600D03*
D12*
%TO.P,K3,1*%
%TO.N,GPIO26_ADC0*%
X94538800Y-48488600D03*
%TD*%
%TO.P,K2,10*%
%TO.N,C1*%
%TA.AperFunction,ComponentPad*%
G36*
G01*
X27897759Y-42223359D02*
X27897759Y-42223359D01*
G75*
G02*
X29099841Y-42223359I601041J-601041D01*
G01*
X29099841Y-42223359D01*
G75*
G02*
X29099841Y-43425441I-601041J-601041D01*
G01*
X29099841Y-43425441D01*
G75*
G02*
X27897759Y-43425441I-601041J601041D01*
G01*
X27897759Y-43425441D01*
G75*
G02*
X27897759Y-42223359I601041J601041D01*
G01*
G37*
%TD.AperFunction*%
%TO.P,K2,9*%
%TO.N,C0*%
%TA.AperFunction,ComponentPad*%
G36*
G01*
X29693810Y-40427308D02*
X29693810Y-40427308D01*
G75*
G02*
X30895892Y-40427308I601041J-601041D01*
G01*
X30895892Y-40427308D01*
G75*
G02*
X30895892Y-41629390I-601041J-601041D01*
G01*
X30895892Y-41629390D01*
G75*
G02*
X29693810Y-41629390I-601041J601041D01*
G01*
X29693810Y-41629390D01*
G75*
G02*
X29693810Y-40427308I601041J601041D01*
G01*
G37*
%TD.AperFunction*%
%TO.P,K2,8*%
%TO.N,AGND*%
%TA.AperFunction,ComponentPad*%
G36*
G01*
X31489861Y-38631257D02*
X31489861Y-38631257D01*
G75*
G02*
X32691943Y-38631257I601041J-601041D01*
G01*
X32691943Y-38631257D01*
G75*
G02*
X32691943Y-39833339I-601041J-601041D01*
G01*
X32691943Y-39833339D01*
G75*
G02*
X31489861Y-39833339I-601041J601041D01*
G01*
X31489861Y-39833339D01*
G75*
G02*
X31489861Y-38631257I601041J601041D01*
G01*
G37*
%TD.AperFunction*%
%TO.P,K2,7*%
%TO.N,GPIO13*%
%TA.AperFunction,ComponentPad*%
G36*
G01*
X33285913Y-36835205D02*
X33285913Y-36835205D01*
G75*
G02*
X34487995Y-36835205I601041J-601041D01*
G01*
X34487995Y-36835205D01*
G75*
G02*
X34487995Y-38037287I-601041J-601041D01*
G01*
X34487995Y-38037287D01*
G75*
G02*
X33285913Y-38037287I-601041J601041D01*
G01*
X33285913Y-38037287D01*
G75*
G02*
X33285913Y-36835205I601041J601041D01*
G01*
G37*
%TD.AperFunction*%
%TO.P,K2,6*%
%TO.N,GPIO12*%
%TA.AperFunction,ComponentPad*%
G36*
G01*
X35081964Y-35039154D02*
X35081964Y-35039154D01*
G75*
G02*
X36284046Y-35039154I601041J-601041D01*
G01*
X36284046Y-35039154D01*
G75*
G02*
X36284046Y-36241236I-601041J-601041D01*
G01*
X36284046Y-36241236D01*
G75*
G02*
X35081964Y-36241236I-601041J601041D01*
G01*
X35081964Y-36241236D01*
G75*
G02*
X35081964Y-35039154I601041J601041D01*
G01*
G37*
%TD.AperFunction*%
%TO.P,K2,5*%
%TO.N,GPIO11*%
%TA.AperFunction,ComponentPad*%
G36*
G01*
X36878015Y-33243103D02*
X36878015Y-33243103D01*
G75*
G02*
X38080097Y-33243103I601041J-601041D01*
G01*
X38080097Y-33243103D01*
G75*
G02*
X38080097Y-34445185I-601041J-601041D01*
G01*
X38080097Y-34445185D01*
G75*
G02*
X36878015Y-34445185I-601041J601041D01*
G01*
X36878015Y-34445185D01*
G75*
G02*
X36878015Y-33243103I601041J601041D01*
G01*
G37*
%TD.AperFunction*%
%TO.P,K2,4*%
%TO.N,GPIO10*%
%TA.AperFunction,ComponentPad*%
G36*
G01*
X38674066Y-31447052D02*
X38674066Y-31447052D01*
G75*
G02*
X39876148Y-31447052I601041J-601041D01*
G01*
X39876148Y-31447052D01*
G75*
G02*
X39876148Y-32649134I-601041J-601041D01*
G01*
X39876148Y-32649134D01*
G75*
G02*
X38674066Y-32649134I-601041J601041D01*
G01*
X38674066Y-32649134D01*
G75*
G02*
X38674066Y-31447052I601041J601041D01*
G01*
G37*
%TD.AperFunction*%
%TO.P,K2,3*%
%TO.N,AGND*%
%TA.AperFunction,ComponentPad*%
G36*
G01*
X40470118Y-29651000D02*
X40470118Y-29651000D01*
G75*
G02*
X41672200Y-29651000I601041J-601041D01*
G01*
X41672200Y-29651000D01*
G75*
G02*
X41672200Y-30853082I-601041J-601041D01*
G01*
X41672200Y-30853082D01*
G75*
G02*
X40470118Y-30853082I-601041J601041D01*
G01*
X40470118Y-30853082D01*
G75*
G02*
X40470118Y-29651000I601041J601041D01*
G01*
G37*
%TD.AperFunction*%
%TO.P,K2,2*%
%TO.N,GPIO9*%
%TA.AperFunction,ComponentPad*%
G36*
G01*
X42266169Y-27854949D02*
X42266169Y-27854949D01*
G75*
G02*
X43468251Y-27854949I601041J-601041D01*
G01*
X43468251Y-27854949D01*
G75*
G02*
X43468251Y-29057031I-601041J-601041D01*
G01*
X43468251Y-29057031D01*
G75*
G02*
X42266169Y-29057031I-601041J601041D01*
G01*
X42266169Y-29057031D01*
G75*
G02*
X42266169Y-27854949I601041J601041D01*
G01*
G37*
%TD.AperFunction*%
%TA.AperFunction,ComponentPad*%
D10*
%TO.P,K2,1*%
%TO.N,GPIO8*%
G36*
X43461179Y-26659939D02*
G01*
X44663261Y-25457857D01*
X45865343Y-26659939D01*
X44663261Y-27862021D01*
X43461179Y-26659939D01*
G37*
%TD.AperFunction*%
%TD*%
D11*
%TO.P,K1,10*%
%TO.N,C2*%
X25654000Y-48515000D03*
%TO.P,K1,9*%
%TO.N,C3*%
X25654000Y-51055000D03*
%TO.P,K1,8*%
%TO.N,AGND*%
X25654000Y-53595000D03*
%TO.P,K1,7*%
%TO.N,C4*%
X25654000Y-56135000D03*
%TO.P,K1,6*%
%TO.N,C5*%
X25654000Y-58675000D03*
%TO.P,K1,5*%
%TO.N,C6*%
X25654000Y-61215000D03*
%TO.P,K1,4*%
%TO.N,C7*%
X25654000Y-63755000D03*
%TO.P,K1,3*%
%TO.N,AGND*%
X25654000Y-66295000D03*
%TO.P,K1,2*%
%TO.N,GPIO1*%
X25654000Y-68835000D03*
D12*
%TO.P,K1,1*%
%TO.N,GPIO0*%
X25654000Y-71375000D03*
%TD*%
D11*
%TO.P,K6,10*%
%TO.N,AGND*%
X86360000Y-89916000D03*
%TO.P,K6,9*%
%TO.N,VBUS*%
X86360000Y-87376000D03*
%TO.P,K6,8*%
%TO.N,GPIO21*%
X86360000Y-84836000D03*
%TO.P,K6,7*%
%TO.N,GPIO20*%
X86360000Y-82296000D03*
%TO.P,K6,6*%
%TO.N,GPIO19*%
X86360000Y-79756000D03*
%TO.P,K6,5*%
%TO.N,GPIO18*%
X86360000Y-77216000D03*
%TO.P,K6,4*%
%TO.N,GPIO17*%
X86360000Y-74676000D03*
%TO.P,K6,3*%
%TO.N,GPIO16*%
X86360000Y-72136000D03*
%TO.P,K6,2*%
%TO.N,GPIO0*%
X86360000Y-69596000D03*
D12*
%TO.P,K6,1*%
%TO.N,GPIO1*%
X86360000Y-67056000D03*
%TD*%
D11*
%TO.P,K5,10*%
%TO.N,AGND*%
X33782000Y-89916000D03*
%TO.P,K5,9*%
%TO.N,VBUS*%
X33782000Y-87376000D03*
%TO.P,K5,8*%
%TO.N,C7*%
X33782000Y-84836000D03*
%TO.P,K5,7*%
%TO.N,C6*%
X33782000Y-82296000D03*
%TO.P,K5,6*%
%TO.N,C5*%
X33782000Y-79756000D03*
%TO.P,K5,5*%
%TO.N,C4*%
X33782000Y-77216000D03*
%TO.P,K5,4*%
%TO.N,C3*%
X33782000Y-74676000D03*
%TO.P,K5,3*%
%TO.N,C2*%
X33782000Y-72136000D03*
%TO.P,K5,2*%
%TO.N,C1*%
X33782000Y-69596000D03*
D12*
%TO.P,K5,1*%
%TO.N,C0*%
X33782000Y-67056000D03*
%TD*%
D13*
%TO.N,AGND*%
X39522400Y-52070000D03*
X41910000Y-52070000D03*
X43180000Y-52070000D03*
X44450000Y-52070000D03*
X45720000Y-52070000D03*
X46990000Y-52070000D03*
X40640000Y-52070000D03*
X48260000Y-52070000D03*
X49530000Y-52070000D03*
X50800000Y-52070000D03*
X52070000Y-52070000D03*
X53340000Y-52070000D03*
X54610000Y-52070000D03*
X55880000Y-52070000D03*
X57150000Y-52070000D03*
X58420000Y-52070000D03*
X59690000Y-52070000D03*
X60960000Y-52070000D03*
X62230000Y-52070000D03*
X63500000Y-52070000D03*
X64770000Y-52070000D03*
X66040000Y-52070000D03*
X67310000Y-52070000D03*
X68580000Y-52070000D03*
X69850000Y-52070000D03*
X71120000Y-52070000D03*
X72390000Y-52070000D03*
X73660000Y-52070000D03*
X74930000Y-52070000D03*
X76200000Y-52070000D03*
X77470000Y-52070000D03*
X78740000Y-52070000D03*
X80010000Y-52070000D03*
%TO.N,VBUS*%
X32486600Y-47929800D03*
X86258400Y-48006000D03*
%TO.N,GPIO1*%
X29236010Y-46976400D03*
%TO.N,GPIO0*%
X29806900Y-46126400D03*
%TD*%
D14*
%TO.N,C7*%
X27449301Y-64888901D02*
X27449301Y-78503301D01*
X27449301Y-78503301D02*
X33782000Y-84836000D01*
X26149300Y-63588900D02*
X27449301Y-64888901D01*
%TO.N,C6*%
X28149311Y-76663311D02*
X33782000Y-82296000D01*
X28149311Y-63048911D02*
X28149311Y-76663311D01*
X26149300Y-61048900D02*
X28149311Y-63048911D01*
%TO.N,C5*%
X28849321Y-61208921D02*
X28849321Y-74823321D01*
X28849321Y-74823321D02*
X33782000Y-79756000D01*
X26149300Y-58508900D02*
X28849321Y-61208921D01*
%TO.N,C4*%
X29549331Y-72983331D02*
X33782000Y-77216000D01*
X29549331Y-59368931D02*
X29549331Y-72983331D01*
X26149300Y-55968900D02*
X29549331Y-59368931D01*
%TO.N,C3*%
X30249341Y-71143341D02*
X33782000Y-74676000D01*
X30249341Y-54988941D02*
X30249341Y-71143341D01*
X26149300Y-50888900D02*
X30249341Y-54988941D01*
%TO.N,C2*%
X30949351Y-69303351D02*
X33782000Y-72136000D01*
X30949351Y-53148951D02*
X30949351Y-69303351D01*
X26149300Y-48348900D02*
X30949351Y-53148951D01*
%TO.N,C1*%
X31649361Y-52858999D02*
X31649361Y-67463361D01*
X27686000Y-48895638D02*
X31649361Y-52858999D01*
X27686000Y-43423025D02*
X27686000Y-48895638D01*
X31649361Y-67463361D02*
X33782000Y-69596000D01*
X28284625Y-42824400D02*
X27686000Y-43423025D01*
X28498800Y-42824400D02*
X28284625Y-42824400D01*
%TO.N,C0*%
X32349371Y-52569046D02*
X28386010Y-48605686D01*
X32349371Y-65623371D02*
X32349371Y-52569046D01*
X33782000Y-67056000D02*
X32349371Y-65623371D01*
X30294851Y-42952351D02*
X30294851Y-41028349D01*
X28386010Y-44861192D02*
X30294851Y-42952351D01*
X28386010Y-48605686D02*
X28386010Y-44861192D01*
%TO.N,AGND*%
X32246389Y-39852600D02*
X32294435Y-39852600D01*
%TO.N,VBUS*%
X86258400Y-48006000D02*
X32562800Y-48006000D01*
X32562800Y-48006000D02*
X32486600Y-47929800D01*
X94538800Y-71348600D02*
X94538800Y-83159600D01*
X90322400Y-87376000D02*
X86360000Y-87376000D01*
X94538800Y-83159600D02*
X90322400Y-87376000D01*
%TO.N,GPIO21*%
X92832399Y-78363601D02*
X86360000Y-84836000D01*
X92832399Y-46392256D02*
X88530073Y-42089930D01*
X92832399Y-48036001D02*
X92832399Y-46392256D01*
X92832399Y-78363601D02*
X92832399Y-48036001D01*
X88530073Y-42089930D02*
X85292140Y-42089930D01*
X85292140Y-42089930D02*
X84226400Y-41024190D01*
X84226400Y-39642692D02*
X86407446Y-37461646D01*
X84226400Y-41024190D02*
X84226400Y-39642692D01*
%TO.N,GPIO20*%
X86360000Y-82296000D02*
X92132389Y-76523611D01*
X92132389Y-76523611D02*
X92132389Y-63785989D01*
X92132389Y-63785989D02*
X92132389Y-62871111D01*
X81686400Y-38590590D02*
X84611395Y-35665595D01*
X81686400Y-39474152D02*
X81686400Y-38590590D01*
X85002188Y-42789940D02*
X81686400Y-39474152D01*
X92132389Y-46682209D02*
X88240120Y-42789940D01*
X88240120Y-42789940D02*
X85002188Y-42789940D01*
X92132389Y-63785989D02*
X92132389Y-46682209D01*
%TO.N,GPIO19*%
X91432379Y-74683621D02*
X86360000Y-79756000D01*
X91432379Y-63847979D02*
X91432379Y-74683621D01*
X91432379Y-61031121D02*
X91432379Y-63847979D01*
X79107343Y-37577545D02*
X82815344Y-33869544D01*
X79107343Y-37885057D02*
X79107343Y-37577545D01*
X84712236Y-43489950D02*
X79107343Y-37885057D01*
X87950167Y-43489950D02*
X84712236Y-43489950D01*
X91432379Y-46972162D02*
X87950167Y-43489950D01*
X91432379Y-63847979D02*
X91432379Y-46972162D01*
%TO.N,GPIO18*%
X86360000Y-77216000D02*
X90732369Y-72843631D01*
X90732369Y-72843631D02*
X90732369Y-59591969D01*
X90732369Y-59591969D02*
X90732369Y-59191131D01*
X76860400Y-36232386D02*
X81019293Y-32073493D01*
X76860400Y-36628076D02*
X76860400Y-36232386D01*
X84422284Y-44189960D02*
X76860400Y-36628076D01*
X87660214Y-44189960D02*
X84422284Y-44189960D01*
X90732369Y-47262115D02*
X87660214Y-44189960D01*
X90732369Y-59591969D02*
X90732369Y-47262115D01*
%TO.N,GPIO17*%
X74226342Y-31682238D02*
X77427190Y-28481390D01*
X84132332Y-44889970D02*
X74226342Y-34983980D01*
X87370261Y-44889970D02*
X84132332Y-44889970D01*
X90032359Y-47552068D02*
X87370261Y-44889970D01*
X90032359Y-71003641D02*
X90032359Y-47552068D01*
X74226342Y-34983980D02*
X74226342Y-31682238D01*
X86360000Y-74676000D02*
X90032359Y-71003641D01*
%TO.N,GPIO16*%
X73526332Y-28790146D02*
X75631139Y-26685339D01*
X73526332Y-35273932D02*
X73526332Y-28790146D01*
X83842380Y-45589980D02*
X73526332Y-35273932D01*
X87080308Y-45589980D02*
X83842380Y-45589980D01*
X89332349Y-69163651D02*
X89332349Y-47842021D01*
X89332349Y-47842021D02*
X87080308Y-45589980D01*
X86360000Y-72136000D02*
X89332349Y-69163651D01*
%TO.N,GPIO1*%
X35484700Y-46976400D02*
X29236010Y-46976400D01*
X37069790Y-45391310D02*
X35484700Y-46976400D01*
X81611710Y-45391310D02*
X37069790Y-45391310D01*
X86500402Y-46990000D02*
X83210400Y-46990000D01*
X87932329Y-48421927D02*
X86500402Y-46990000D01*
X83210400Y-46990000D02*
X81611710Y-45391310D01*
X87932329Y-65483671D02*
X87932329Y-48421927D01*
X86360000Y-67056000D02*
X87932329Y-65483671D01*
%TO.N,GPIO0*%
X36779838Y-44691300D02*
X35344739Y-46126399D01*
X35344739Y-46126399D02*
X29806900Y-46126400D01*
X81901662Y-44691300D02*
X36779838Y-44691300D01*
X86790355Y-46289990D02*
X83500352Y-46289990D01*
X88632339Y-48131974D02*
X86790355Y-46289990D01*
X83500352Y-46289990D02*
X81901662Y-44691300D01*
X88632339Y-67323661D02*
X88632339Y-48131974D01*
X86360000Y-69596000D02*
X88632339Y-67323661D01*
%TD*%
D15*
%TO.N,AGND*%
X24707368Y-52208475D02*
X24889534Y-52330195D01*
X24772645Y-52399822D01*
X24556412Y-52594731D01*
X24382359Y-52828080D01*
X24257175Y-53090901D01*
X24212524Y-53238110D01*
X24333845Y-53468000D01*
X25527000Y-53468000D01*
X25527000Y-53448000D01*
X25781000Y-53448000D01*
X25781000Y-53468000D01*
X26974155Y-53468000D01*
X27095476Y-53238110D01*
X27050825Y-53090901D01*
X27006351Y-52997530D01*
X29364341Y-55355520D01*
X29364341Y-57932362D01*
X27045242Y-55613264D01*
X26969990Y-55431589D01*
X26807475Y-55188368D01*
X26600632Y-54981525D01*
X26418466Y-54859805D01*
X26535355Y-54790178D01*
X26751588Y-54595269D01*
X26925641Y-54361920D01*
X27050825Y-54099099D01*
X27095476Y-53951890D01*
X26974155Y-53722000D01*
X25781000Y-53722000D01*
X25781000Y-53742000D01*
X25527000Y-53742000D01*
X25527000Y-53722000D01*
X24333845Y-53722000D01*
X24212524Y-53951890D01*
X24257175Y-54099099D01*
X24382359Y-54361920D01*
X24556412Y-54595269D01*
X24772645Y-54790178D01*
X24889534Y-54859805D01*
X24707368Y-54981525D01*
X24500525Y-55188368D01*
X24338010Y-55431589D01*
X24226068Y-55701842D01*
X24169000Y-55988740D01*
X24169000Y-56281260D01*
X24226068Y-56568158D01*
X24338010Y-56838411D01*
X24500525Y-57081632D01*
X24707368Y-57288475D01*
X24881760Y-57405000D01*
X24707368Y-57521525D01*
X24500525Y-57728368D01*
X24338010Y-57971589D01*
X24226068Y-58241842D01*
X24169000Y-58528740D01*
X24169000Y-58821260D01*
X24226068Y-59108158D01*
X24338010Y-59378411D01*
X24500525Y-59621632D01*
X24707368Y-59828475D01*
X24881760Y-59945000D01*
X24707368Y-60061525D01*
X24500525Y-60268368D01*
X24338010Y-60511589D01*
X24226068Y-60781842D01*
X24169000Y-61068740D01*
X24169000Y-61361260D01*
X24226068Y-61648158D01*
X24338010Y-61918411D01*
X24500525Y-62161632D01*
X24707368Y-62368475D01*
X24881760Y-62485000D01*
X24707368Y-62601525D01*
X24500525Y-62808368D01*
X24338010Y-63051589D01*
X24226068Y-63321842D01*
X24169000Y-63608740D01*
X24169000Y-63901260D01*
X24226068Y-64188158D01*
X24338010Y-64458411D01*
X24500525Y-64701632D01*
X24707368Y-64908475D01*
X24889534Y-65030195D01*
X24772645Y-65099822D01*
X24556412Y-65294731D01*
X24382359Y-65528080D01*
X24257175Y-65790901D01*
X24212524Y-65938110D01*
X24333845Y-66168000D01*
X25527000Y-66168000D01*
X25527000Y-66148000D01*
X25781000Y-66148000D01*
X25781000Y-66168000D01*
X25801000Y-66168000D01*
X25801000Y-66422000D01*
X25781000Y-66422000D01*
X25781000Y-66442000D01*
X25527000Y-66442000D01*
X25527000Y-66422000D01*
X24333845Y-66422000D01*
X24212524Y-66651890D01*
X24257175Y-66799099D01*
X24382359Y-67061920D01*
X24556412Y-67295269D01*
X24772645Y-67490178D01*
X24889534Y-67559805D01*
X24707368Y-67681525D01*
X24500525Y-67888368D01*
X24338010Y-68131589D01*
X24226068Y-68401842D01*
X24169000Y-68688740D01*
X24169000Y-68981260D01*
X24226068Y-69268158D01*
X24338010Y-69538411D01*
X24500525Y-69781632D01*
X24632380Y-69913487D01*
X24559820Y-69935498D01*
X24449506Y-69994463D01*
X24352815Y-70073815D01*
X24273463Y-70170506D01*
X24214498Y-70280820D01*
X24178188Y-70400518D01*
X24165928Y-70525000D01*
X24165928Y-72225000D01*
X24178188Y-72349482D01*
X24214498Y-72469180D01*
X24273463Y-72579494D01*
X24352815Y-72676185D01*
X24449506Y-72755537D01*
X24559820Y-72814502D01*
X24679518Y-72850812D01*
X24804000Y-72863072D01*
X26504000Y-72863072D01*
X26564302Y-72857133D01*
X26564302Y-78459822D01*
X26560020Y-78503301D01*
X26577106Y-78676791D01*
X26627713Y-78843614D01*
X26709891Y-78997360D01*
X26792769Y-79098347D01*
X26792772Y-79098350D01*
X26820485Y-79132118D01*
X26854253Y-79159831D01*
X32311461Y-84617040D01*
X32297000Y-84689740D01*
X32297000Y-84982260D01*
X32354068Y-85269158D01*
X32466010Y-85539411D01*
X32628525Y-85782632D01*
X32835368Y-85989475D01*
X33009760Y-86106000D01*
X32835368Y-86222525D01*
X32628525Y-86429368D01*
X32466010Y-86672589D01*
X32354068Y-86942842D01*
X32297000Y-87229740D01*
X32297000Y-87522260D01*
X32354068Y-87809158D01*
X32466010Y-88079411D01*
X32628525Y-88322632D01*
X32835368Y-88529475D01*
X33017534Y-88651195D01*
X32900645Y-88720822D01*
X32684412Y-88915731D01*
X32510359Y-89149080D01*
X32385175Y-89411901D01*
X32340524Y-89559110D01*
X32461845Y-89789000D01*
X33655000Y-89789000D01*
X33655000Y-89769000D01*
X33909000Y-89769000D01*
X33909000Y-89789000D01*
X33929000Y-89789000D01*
X33929000Y-90043000D01*
X33909000Y-90043000D01*
X33909000Y-91236814D01*
X34138891Y-91357481D01*
X34413252Y-91260157D01*
X34663355Y-91111178D01*
X34871093Y-90923927D01*
X34871006Y-91581840D01*
X34871000Y-91581896D01*
X34871000Y-91623610D01*
X34870996Y-91654007D01*
X34871000Y-91654048D01*
X34871001Y-92483000D01*
X23341000Y-92483000D01*
X23341000Y-90272890D01*
X32340524Y-90272890D01*
X32385175Y-90420099D01*
X32510359Y-90682920D01*
X32684412Y-90916269D01*
X32900645Y-91111178D01*
X33150748Y-91260157D01*
X33425109Y-91357481D01*
X33655000Y-91236814D01*
X33655000Y-90043000D01*
X32461845Y-90043000D01*
X32340524Y-90272890D01*
X23341000Y-90272890D01*
X23341000Y-52353000D01*
X24169895Y-52353000D01*
X24206000Y-52356556D01*
X24242105Y-52353000D01*
X24350085Y-52342365D01*
X24488633Y-52300337D01*
X24616320Y-52232087D01*
X24679296Y-52180403D01*
X24707368Y-52208475D01*
%TA.AperFunction,Conductor*%
D16*
G36*
X24707368Y-52208475D02*
G01*
X24889534Y-52330195D01*
X24772645Y-52399822D01*
X24556412Y-52594731D01*
X24382359Y-52828080D01*
X24257175Y-53090901D01*
X24212524Y-53238110D01*
X24333845Y-53468000D01*
X25527000Y-53468000D01*
X25527000Y-53448000D01*
X25781000Y-53448000D01*
X25781000Y-53468000D01*
X26974155Y-53468000D01*
X27095476Y-53238110D01*
X27050825Y-53090901D01*
X27006351Y-52997530D01*
X29364341Y-55355520D01*
X29364341Y-57932362D01*
X27045242Y-55613264D01*
X26969990Y-55431589D01*
X26807475Y-55188368D01*
X26600632Y-54981525D01*
X26418466Y-54859805D01*
X26535355Y-54790178D01*
X26751588Y-54595269D01*
X26925641Y-54361920D01*
X27050825Y-54099099D01*
X27095476Y-53951890D01*
X26974155Y-53722000D01*
X25781000Y-53722000D01*
X25781000Y-53742000D01*
X25527000Y-53742000D01*
X25527000Y-53722000D01*
X24333845Y-53722000D01*
X24212524Y-53951890D01*
X24257175Y-54099099D01*
X24382359Y-54361920D01*
X24556412Y-54595269D01*
X24772645Y-54790178D01*
X24889534Y-54859805D01*
X24707368Y-54981525D01*
X24500525Y-55188368D01*
X24338010Y-55431589D01*
X24226068Y-55701842D01*
X24169000Y-55988740D01*
X24169000Y-56281260D01*
X24226068Y-56568158D01*
X24338010Y-56838411D01*
X24500525Y-57081632D01*
X24707368Y-57288475D01*
X24881760Y-57405000D01*
X24707368Y-57521525D01*
X24500525Y-57728368D01*
X24338010Y-57971589D01*
X24226068Y-58241842D01*
X24169000Y-58528740D01*
X24169000Y-58821260D01*
X24226068Y-59108158D01*
X24338010Y-59378411D01*
X24500525Y-59621632D01*
X24707368Y-59828475D01*
X24881760Y-59945000D01*
X24707368Y-60061525D01*
X24500525Y-60268368D01*
X24338010Y-60511589D01*
X24226068Y-60781842D01*
X24169000Y-61068740D01*
X24169000Y-61361260D01*
X24226068Y-61648158D01*
X24338010Y-61918411D01*
X24500525Y-62161632D01*
X24707368Y-62368475D01*
X24881760Y-62485000D01*
X24707368Y-62601525D01*
X24500525Y-62808368D01*
X24338010Y-63051589D01*
X24226068Y-63321842D01*
X24169000Y-63608740D01*
X24169000Y-63901260D01*
X24226068Y-64188158D01*
X24338010Y-64458411D01*
X24500525Y-64701632D01*
X24707368Y-64908475D01*
X24889534Y-65030195D01*
X24772645Y-65099822D01*
X24556412Y-65294731D01*
X24382359Y-65528080D01*
X24257175Y-65790901D01*
X24212524Y-65938110D01*
X24333845Y-66168000D01*
X25527000Y-66168000D01*
X25527000Y-66148000D01*
X25781000Y-66148000D01*
X25781000Y-66168000D01*
X25801000Y-66168000D01*
X25801000Y-66422000D01*
X25781000Y-66422000D01*
X25781000Y-66442000D01*
X25527000Y-66442000D01*
X25527000Y-66422000D01*
X24333845Y-66422000D01*
X24212524Y-66651890D01*
X24257175Y-66799099D01*
X24382359Y-67061920D01*
X24556412Y-67295269D01*
X24772645Y-67490178D01*
X24889534Y-67559805D01*
X24707368Y-67681525D01*
X24500525Y-67888368D01*
X24338010Y-68131589D01*
X24226068Y-68401842D01*
X24169000Y-68688740D01*
X24169000Y-68981260D01*
X24226068Y-69268158D01*
X24338010Y-69538411D01*
X24500525Y-69781632D01*
X24632380Y-69913487D01*
X24559820Y-69935498D01*
X24449506Y-69994463D01*
X24352815Y-70073815D01*
X24273463Y-70170506D01*
X24214498Y-70280820D01*
X24178188Y-70400518D01*
X24165928Y-70525000D01*
X24165928Y-72225000D01*
X24178188Y-72349482D01*
X24214498Y-72469180D01*
X24273463Y-72579494D01*
X24352815Y-72676185D01*
X24449506Y-72755537D01*
X24559820Y-72814502D01*
X24679518Y-72850812D01*
X24804000Y-72863072D01*
X26504000Y-72863072D01*
X26564302Y-72857133D01*
X26564302Y-78459822D01*
X26560020Y-78503301D01*
X26577106Y-78676791D01*
X26627713Y-78843614D01*
X26709891Y-78997360D01*
X26792769Y-79098347D01*
X26792772Y-79098350D01*
X26820485Y-79132118D01*
X26854253Y-79159831D01*
X32311461Y-84617040D01*
X32297000Y-84689740D01*
X32297000Y-84982260D01*
X32354068Y-85269158D01*
X32466010Y-85539411D01*
X32628525Y-85782632D01*
X32835368Y-85989475D01*
X33009760Y-86106000D01*
X32835368Y-86222525D01*
X32628525Y-86429368D01*
X32466010Y-86672589D01*
X32354068Y-86942842D01*
X32297000Y-87229740D01*
X32297000Y-87522260D01*
X32354068Y-87809158D01*
X32466010Y-88079411D01*
X32628525Y-88322632D01*
X32835368Y-88529475D01*
X33017534Y-88651195D01*
X32900645Y-88720822D01*
X32684412Y-88915731D01*
X32510359Y-89149080D01*
X32385175Y-89411901D01*
X32340524Y-89559110D01*
X32461845Y-89789000D01*
X33655000Y-89789000D01*
X33655000Y-89769000D01*
X33909000Y-89769000D01*
X33909000Y-89789000D01*
X33929000Y-89789000D01*
X33929000Y-90043000D01*
X33909000Y-90043000D01*
X33909000Y-91236814D01*
X34138891Y-91357481D01*
X34413252Y-91260157D01*
X34663355Y-91111178D01*
X34871093Y-90923927D01*
X34871006Y-91581840D01*
X34871000Y-91581896D01*
X34871000Y-91623610D01*
X34870996Y-91654007D01*
X34871000Y-91654048D01*
X34871001Y-92483000D01*
X23341000Y-92483000D01*
X23341000Y-90272890D01*
X32340524Y-90272890D01*
X32385175Y-90420099D01*
X32510359Y-90682920D01*
X32684412Y-90916269D01*
X32900645Y-91111178D01*
X33150748Y-91260157D01*
X33425109Y-91357481D01*
X33655000Y-91236814D01*
X33655000Y-90043000D01*
X32461845Y-90043000D01*
X32340524Y-90272890D01*
X23341000Y-90272890D01*
X23341000Y-52353000D01*
X24169895Y-52353000D01*
X24206000Y-52356556D01*
X24242105Y-52353000D01*
X24350085Y-52342365D01*
X24488633Y-52300337D01*
X24616320Y-52232087D01*
X24679296Y-52180403D01*
X24707368Y-52208475D01*
G37*
%TD.AperFunction*%
D15*
X95445171Y-52283903D02*
X95489515Y-52337989D01*
X95489646Y-52338097D01*
X95489762Y-52338238D01*
X95546987Y-52385202D01*
X95601389Y-52429892D01*
X95601542Y-52429974D01*
X95601680Y-52430087D01*
X95666715Y-52464849D01*
X95729044Y-52498202D01*
X95729207Y-52498252D01*
X95729367Y-52498337D01*
X95800203Y-52519825D01*
X95867572Y-52540296D01*
X95867743Y-52540313D01*
X95867915Y-52540365D01*
X95941440Y-52547607D01*
X96011650Y-52554555D01*
X96047923Y-52551000D01*
X96872100Y-52551000D01*
X96870999Y-91654084D01*
X96871001Y-91654104D01*
X96871000Y-92483000D01*
X85341000Y-92483000D01*
X85341000Y-91618131D01*
X85341466Y-90987527D01*
X85478645Y-91111178D01*
X85728748Y-91260157D01*
X86003109Y-91357481D01*
X86233000Y-91236814D01*
X86233000Y-90043000D01*
X86487000Y-90043000D01*
X86487000Y-91236814D01*
X86716891Y-91357481D01*
X86991252Y-91260157D01*
X87241355Y-91111178D01*
X87457588Y-90916269D01*
X87631641Y-90682920D01*
X87756825Y-90420099D01*
X87801476Y-90272890D01*
X87680155Y-90043000D01*
X86487000Y-90043000D01*
X86233000Y-90043000D01*
X86213000Y-90043000D01*
X86213000Y-89789000D01*
X86233000Y-89789000D01*
X86233000Y-89769000D01*
X86487000Y-89769000D01*
X86487000Y-89789000D01*
X87680155Y-89789000D01*
X87801476Y-89559110D01*
X87756825Y-89411901D01*
X87631641Y-89149080D01*
X87457588Y-88915731D01*
X87241355Y-88720822D01*
X87124466Y-88651195D01*
X87306632Y-88529475D01*
X87513475Y-88322632D01*
X87554656Y-88261000D01*
X90278931Y-88261000D01*
X90322400Y-88265281D01*
X90365869Y-88261000D01*
X90365877Y-88261000D01*
X90495890Y-88248195D01*
X90662713Y-88197589D01*
X90816459Y-88115411D01*
X90951217Y-88004817D01*
X90978934Y-87971044D01*
X95133849Y-83816130D01*
X95167617Y-83788417D01*
X95278211Y-83653659D01*
X95360389Y-83499913D01*
X95410995Y-83333090D01*
X95423800Y-83203077D01*
X95423800Y-83203067D01*
X95428081Y-83159601D01*
X95423800Y-83116134D01*
X95423800Y-72543256D01*
X95485432Y-72502075D01*
X95692275Y-72295232D01*
X95854790Y-72052011D01*
X95966732Y-71781758D01*
X96023800Y-71494860D01*
X96023800Y-71202340D01*
X95966732Y-70915442D01*
X95854790Y-70645189D01*
X95692275Y-70401968D01*
X95485432Y-70195125D01*
X95311040Y-70078600D01*
X95485432Y-69962075D01*
X95692275Y-69755232D01*
X95854790Y-69512011D01*
X95966732Y-69241758D01*
X96023800Y-68954860D01*
X96023800Y-68662340D01*
X95966732Y-68375442D01*
X95854790Y-68105189D01*
X95692275Y-67861968D01*
X95485432Y-67655125D01*
X95303266Y-67533405D01*
X95420155Y-67463778D01*
X95636388Y-67268869D01*
X95810441Y-67035520D01*
X95935625Y-66772699D01*
X95980276Y-66625490D01*
X95858955Y-66395600D01*
X94665800Y-66395600D01*
X94665800Y-66415600D01*
X94411800Y-66415600D01*
X94411800Y-66395600D01*
X94391800Y-66395600D01*
X94391800Y-66141600D01*
X94411800Y-66141600D01*
X94411800Y-66121600D01*
X94665800Y-66121600D01*
X94665800Y-66141600D01*
X95858955Y-66141600D01*
X95980276Y-65911710D01*
X95935625Y-65764501D01*
X95810441Y-65501680D01*
X95636388Y-65268331D01*
X95420155Y-65073422D01*
X95303266Y-65003795D01*
X95485432Y-64882075D01*
X95692275Y-64675232D01*
X95854790Y-64432011D01*
X95966732Y-64161758D01*
X96023800Y-63874860D01*
X96023800Y-63582340D01*
X95966732Y-63295442D01*
X95854790Y-63025189D01*
X95692275Y-62781968D01*
X95485432Y-62575125D01*
X95311040Y-62458600D01*
X95485432Y-62342075D01*
X95692275Y-62135232D01*
X95854790Y-61892011D01*
X95966732Y-61621758D01*
X96023800Y-61334860D01*
X96023800Y-61042340D01*
X95966732Y-60755442D01*
X95854790Y-60485189D01*
X95692275Y-60241968D01*
X95485432Y-60035125D01*
X95311040Y-59918600D01*
X95485432Y-59802075D01*
X95692275Y-59595232D01*
X95854790Y-59352011D01*
X95966732Y-59081758D01*
X96023800Y-58794860D01*
X96023800Y-58502340D01*
X95966732Y-58215442D01*
X95854790Y-57945189D01*
X95692275Y-57701968D01*
X95485432Y-57495125D01*
X95311040Y-57378600D01*
X95485432Y-57262075D01*
X95692275Y-57055232D01*
X95854790Y-56812011D01*
X95966732Y-56541758D01*
X96023800Y-56254860D01*
X96023800Y-55962340D01*
X95966732Y-55675442D01*
X95854790Y-55405189D01*
X95692275Y-55161968D01*
X95485432Y-54955125D01*
X95303266Y-54833405D01*
X95420155Y-54763778D01*
X95636388Y-54568869D01*
X95810441Y-54335520D01*
X95935625Y-54072699D01*
X95980276Y-53925490D01*
X95858955Y-53695600D01*
X94665800Y-53695600D01*
X94665800Y-53715600D01*
X94411800Y-53715600D01*
X94411800Y-53695600D01*
X94391800Y-53695600D01*
X94391800Y-53441600D01*
X94411800Y-53441600D01*
X94411800Y-53421600D01*
X94665800Y-53421600D01*
X94665800Y-53441600D01*
X95858955Y-53441600D01*
X95980276Y-53211710D01*
X95935625Y-53064501D01*
X95810441Y-52801680D01*
X95636388Y-52568331D01*
X95420155Y-52373422D01*
X95303266Y-52303795D01*
X95405457Y-52235512D01*
X95445171Y-52283903D01*
%TA.AperFunction,Conductor*%
D16*
G36*
X95445171Y-52283903D02*
G01*
X95489515Y-52337989D01*
X95489646Y-52338097D01*
X95489762Y-52338238D01*
X95546987Y-52385202D01*
X95601389Y-52429892D01*
X95601542Y-52429974D01*
X95601680Y-52430087D01*
X95666715Y-52464849D01*
X95729044Y-52498202D01*
X95729207Y-52498252D01*
X95729367Y-52498337D01*
X95800203Y-52519825D01*
X95867572Y-52540296D01*
X95867743Y-52540313D01*
X95867915Y-52540365D01*
X95941440Y-52547607D01*
X96011650Y-52554555D01*
X96047923Y-52551000D01*
X96872100Y-52551000D01*
X96870999Y-91654084D01*
X96871001Y-91654104D01*
X96871000Y-92483000D01*
X85341000Y-92483000D01*
X85341000Y-91618131D01*
X85341466Y-90987527D01*
X85478645Y-91111178D01*
X85728748Y-91260157D01*
X86003109Y-91357481D01*
X86233000Y-91236814D01*
X86233000Y-90043000D01*
X86487000Y-90043000D01*
X86487000Y-91236814D01*
X86716891Y-91357481D01*
X86991252Y-91260157D01*
X87241355Y-91111178D01*
X87457588Y-90916269D01*
X87631641Y-90682920D01*
X87756825Y-90420099D01*
X87801476Y-90272890D01*
X87680155Y-90043000D01*
X86487000Y-90043000D01*
X86233000Y-90043000D01*
X86213000Y-90043000D01*
X86213000Y-89789000D01*
X86233000Y-89789000D01*
X86233000Y-89769000D01*
X86487000Y-89769000D01*
X86487000Y-89789000D01*
X87680155Y-89789000D01*
X87801476Y-89559110D01*
X87756825Y-89411901D01*
X87631641Y-89149080D01*
X87457588Y-88915731D01*
X87241355Y-88720822D01*
X87124466Y-88651195D01*
X87306632Y-88529475D01*
X87513475Y-88322632D01*
X87554656Y-88261000D01*
X90278931Y-88261000D01*
X90322400Y-88265281D01*
X90365869Y-88261000D01*
X90365877Y-88261000D01*
X90495890Y-88248195D01*
X90662713Y-88197589D01*
X90816459Y-88115411D01*
X90951217Y-88004817D01*
X90978934Y-87971044D01*
X95133849Y-83816130D01*
X95167617Y-83788417D01*
X95278211Y-83653659D01*
X95360389Y-83499913D01*
X95410995Y-83333090D01*
X95423800Y-83203077D01*
X95423800Y-83203067D01*
X95428081Y-83159601D01*
X95423800Y-83116134D01*
X95423800Y-72543256D01*
X95485432Y-72502075D01*
X95692275Y-72295232D01*
X95854790Y-72052011D01*
X95966732Y-71781758D01*
X96023800Y-71494860D01*
X96023800Y-71202340D01*
X95966732Y-70915442D01*
X95854790Y-70645189D01*
X95692275Y-70401968D01*
X95485432Y-70195125D01*
X95311040Y-70078600D01*
X95485432Y-69962075D01*
X95692275Y-69755232D01*
X95854790Y-69512011D01*
X95966732Y-69241758D01*
X96023800Y-68954860D01*
X96023800Y-68662340D01*
X95966732Y-68375442D01*
X95854790Y-68105189D01*
X95692275Y-67861968D01*
X95485432Y-67655125D01*
X95303266Y-67533405D01*
X95420155Y-67463778D01*
X95636388Y-67268869D01*
X95810441Y-67035520D01*
X95935625Y-66772699D01*
X95980276Y-66625490D01*
X95858955Y-66395600D01*
X94665800Y-66395600D01*
X94665800Y-66415600D01*
X94411800Y-66415600D01*
X94411800Y-66395600D01*
X94391800Y-66395600D01*
X94391800Y-66141600D01*
X94411800Y-66141600D01*
X94411800Y-66121600D01*
X94665800Y-66121600D01*
X94665800Y-66141600D01*
X95858955Y-66141600D01*
X95980276Y-65911710D01*
X95935625Y-65764501D01*
X95810441Y-65501680D01*
X95636388Y-65268331D01*
X95420155Y-65073422D01*
X95303266Y-65003795D01*
X95485432Y-64882075D01*
X95692275Y-64675232D01*
X95854790Y-64432011D01*
X95966732Y-64161758D01*
X96023800Y-63874860D01*
X96023800Y-63582340D01*
X95966732Y-63295442D01*
X95854790Y-63025189D01*
X95692275Y-62781968D01*
X95485432Y-62575125D01*
X95311040Y-62458600D01*
X95485432Y-62342075D01*
X95692275Y-62135232D01*
X95854790Y-61892011D01*
X95966732Y-61621758D01*
X96023800Y-61334860D01*
X96023800Y-61042340D01*
X95966732Y-60755442D01*
X95854790Y-60485189D01*
X95692275Y-60241968D01*
X95485432Y-60035125D01*
X95311040Y-59918600D01*
X95485432Y-59802075D01*
X95692275Y-59595232D01*
X95854790Y-59352011D01*
X95966732Y-59081758D01*
X96023800Y-58794860D01*
X96023800Y-58502340D01*
X95966732Y-58215442D01*
X95854790Y-57945189D01*
X95692275Y-57701968D01*
X95485432Y-57495125D01*
X95311040Y-57378600D01*
X95485432Y-57262075D01*
X95692275Y-57055232D01*
X95854790Y-56812011D01*
X95966732Y-56541758D01*
X96023800Y-56254860D01*
X96023800Y-55962340D01*
X95966732Y-55675442D01*
X95854790Y-55405189D01*
X95692275Y-55161968D01*
X95485432Y-54955125D01*
X95303266Y-54833405D01*
X95420155Y-54763778D01*
X95636388Y-54568869D01*
X95810441Y-54335520D01*
X95935625Y-54072699D01*
X95980276Y-53925490D01*
X95858955Y-53695600D01*
X94665800Y-53695600D01*
X94665800Y-53715600D01*
X94411800Y-53715600D01*
X94411800Y-53695600D01*
X94391800Y-53695600D01*
X94391800Y-53441600D01*
X94411800Y-53441600D01*
X94411800Y-53421600D01*
X94665800Y-53421600D01*
X94665800Y-53441600D01*
X95858955Y-53441600D01*
X95980276Y-53211710D01*
X95935625Y-53064501D01*
X95810441Y-52801680D01*
X95636388Y-52568331D01*
X95420155Y-52373422D01*
X95303266Y-52303795D01*
X95405457Y-52235512D01*
X95445171Y-52283903D01*
G37*
%TD.AperFunction*%
D15*
X31451600Y-48031739D02*
X31491374Y-48231698D01*
X31569395Y-48420056D01*
X31682663Y-48589574D01*
X31826826Y-48733737D01*
X31996344Y-48847005D01*
X32184702Y-48925026D01*
X32384661Y-48964800D01*
X32588539Y-48964800D01*
X32788498Y-48925026D01*
X32870643Y-48891000D01*
X85719946Y-48891000D01*
X85768144Y-48923205D01*
X85956502Y-49001226D01*
X86156461Y-49041000D01*
X86360339Y-49041000D01*
X86560298Y-49001226D01*
X86748656Y-48923205D01*
X86918174Y-48809937D01*
X86993467Y-48734644D01*
X87047330Y-48788507D01*
X87047330Y-53965376D01*
X85426537Y-51202662D01*
X85399287Y-51151680D01*
X85366996Y-51112334D01*
X85337073Y-51071184D01*
X85321174Y-51056499D01*
X85307438Y-51039762D01*
X85268093Y-51007472D01*
X85230716Y-50972950D01*
X85212257Y-50961649D01*
X85195520Y-50947913D01*
X85150632Y-50923920D01*
X85107237Y-50897352D01*
X85086926Y-50889869D01*
X85067833Y-50879663D01*
X85019128Y-50864889D01*
X84971383Y-50847297D01*
X84950003Y-50843920D01*
X84929285Y-50837635D01*
X84878637Y-50832647D01*
X84828374Y-50824707D01*
X84770623Y-50827000D01*
X82001905Y-50827000D01*
X81965800Y-50823444D01*
X81929695Y-50827000D01*
X81821715Y-50837635D01*
X81683167Y-50879663D01*
X81555480Y-50947913D01*
X81443562Y-51039762D01*
X81351713Y-51151680D01*
X81283463Y-51279367D01*
X81241435Y-51417915D01*
X81227244Y-51562000D01*
X81230800Y-51598105D01*
X81230801Y-52478000D01*
X39012800Y-52478000D01*
X39012800Y-51598105D01*
X39016356Y-51562000D01*
X39002165Y-51417915D01*
X38960137Y-51279367D01*
X38891887Y-51151680D01*
X38800038Y-51039762D01*
X38688120Y-50947913D01*
X38560433Y-50879663D01*
X38421885Y-50837635D01*
X38313905Y-50827000D01*
X38277800Y-50823444D01*
X38241695Y-50827000D01*
X35472977Y-50827000D01*
X35415225Y-50824707D01*
X35364960Y-50832647D01*
X35314315Y-50837635D01*
X35293598Y-50843919D01*
X35272216Y-50847297D01*
X35224466Y-50864890D01*
X35175767Y-50879663D01*
X35156676Y-50889867D01*
X35136362Y-50897352D01*
X35092960Y-50923924D01*
X35048080Y-50947913D01*
X35031346Y-50961646D01*
X35012883Y-50972950D01*
X34975498Y-51007479D01*
X34936162Y-51039762D01*
X34922429Y-51056495D01*
X34906526Y-51071184D01*
X34876595Y-51112345D01*
X34844313Y-51151680D01*
X34817073Y-51202643D01*
X33234371Y-53900432D01*
X33234371Y-52612511D01*
X33238652Y-52569045D01*
X33234371Y-52525579D01*
X33234371Y-52525569D01*
X33221566Y-52395556D01*
X33170960Y-52228733D01*
X33088782Y-52074987D01*
X33028581Y-52001632D01*
X33005903Y-51973999D01*
X33005901Y-51973997D01*
X32978188Y-51940229D01*
X32944420Y-51912516D01*
X29271010Y-48239108D01*
X29271010Y-48011400D01*
X29337949Y-48011400D01*
X29537908Y-47971626D01*
X29726266Y-47893605D01*
X29774464Y-47861400D01*
X31451600Y-47861400D01*
X31451600Y-48031739D01*
%TA.AperFunction,Conductor*%
D16*
G36*
X31451600Y-48031739D02*
G01*
X31491374Y-48231698D01*
X31569395Y-48420056D01*
X31682663Y-48589574D01*
X31826826Y-48733737D01*
X31996344Y-48847005D01*
X32184702Y-48925026D01*
X32384661Y-48964800D01*
X32588539Y-48964800D01*
X32788498Y-48925026D01*
X32870643Y-48891000D01*
X85719946Y-48891000D01*
X85768144Y-48923205D01*
X85956502Y-49001226D01*
X86156461Y-49041000D01*
X86360339Y-49041000D01*
X86560298Y-49001226D01*
X86748656Y-48923205D01*
X86918174Y-48809937D01*
X86993467Y-48734644D01*
X87047330Y-48788507D01*
X87047330Y-53965376D01*
X85426537Y-51202662D01*
X85399287Y-51151680D01*
X85366996Y-51112334D01*
X85337073Y-51071184D01*
X85321174Y-51056499D01*
X85307438Y-51039762D01*
X85268093Y-51007472D01*
X85230716Y-50972950D01*
X85212257Y-50961649D01*
X85195520Y-50947913D01*
X85150632Y-50923920D01*
X85107237Y-50897352D01*
X85086926Y-50889869D01*
X85067833Y-50879663D01*
X85019128Y-50864889D01*
X84971383Y-50847297D01*
X84950003Y-50843920D01*
X84929285Y-50837635D01*
X84878637Y-50832647D01*
X84828374Y-50824707D01*
X84770623Y-50827000D01*
X82001905Y-50827000D01*
X81965800Y-50823444D01*
X81929695Y-50827000D01*
X81821715Y-50837635D01*
X81683167Y-50879663D01*
X81555480Y-50947913D01*
X81443562Y-51039762D01*
X81351713Y-51151680D01*
X81283463Y-51279367D01*
X81241435Y-51417915D01*
X81227244Y-51562000D01*
X81230800Y-51598105D01*
X81230801Y-52478000D01*
X39012800Y-52478000D01*
X39012800Y-51598105D01*
X39016356Y-51562000D01*
X39002165Y-51417915D01*
X38960137Y-51279367D01*
X38891887Y-51151680D01*
X38800038Y-51039762D01*
X38688120Y-50947913D01*
X38560433Y-50879663D01*
X38421885Y-50837635D01*
X38313905Y-50827000D01*
X38277800Y-50823444D01*
X38241695Y-50827000D01*
X35472977Y-50827000D01*
X35415225Y-50824707D01*
X35364960Y-50832647D01*
X35314315Y-50837635D01*
X35293598Y-50843919D01*
X35272216Y-50847297D01*
X35224466Y-50864890D01*
X35175767Y-50879663D01*
X35156676Y-50889867D01*
X35136362Y-50897352D01*
X35092960Y-50923924D01*
X35048080Y-50947913D01*
X35031346Y-50961646D01*
X35012883Y-50972950D01*
X34975498Y-51007479D01*
X34936162Y-51039762D01*
X34922429Y-51056495D01*
X34906526Y-51071184D01*
X34876595Y-51112345D01*
X34844313Y-51151680D01*
X34817073Y-51202643D01*
X33234371Y-53900432D01*
X33234371Y-52612511D01*
X33238652Y-52569045D01*
X33234371Y-52525579D01*
X33234371Y-52525569D01*
X33221566Y-52395556D01*
X33170960Y-52228733D01*
X33088782Y-52074987D01*
X33028581Y-52001632D01*
X33005903Y-51973999D01*
X33005901Y-51973997D01*
X32978188Y-51940229D01*
X32944420Y-51912516D01*
X29271010Y-48239108D01*
X29271010Y-48011400D01*
X29337949Y-48011400D01*
X29537908Y-47971626D01*
X29726266Y-47893605D01*
X29774464Y-47861400D01*
X31451600Y-47861400D01*
X31451600Y-48031739D01*
G37*
%TD.AperFunction*%
D15*
X71127929Y-18883212D02*
X70559094Y-19698032D01*
X70531314Y-19731881D01*
X70500728Y-19789103D01*
X70468974Y-19845701D01*
X70466630Y-19852895D01*
X70463064Y-19859567D01*
X70444224Y-19921674D01*
X70424127Y-19983362D01*
X70423232Y-19990872D01*
X70421035Y-19998115D01*
X70414673Y-20062714D01*
X70406998Y-20127128D01*
X70407586Y-20134670D01*
X70406844Y-20142200D01*
X70413206Y-20206800D01*
X70418246Y-20271471D01*
X70420293Y-20278751D01*
X70421035Y-20286285D01*
X70439873Y-20348384D01*
X70457437Y-20410848D01*
X70460868Y-20417595D01*
X70463064Y-20424833D01*
X70493649Y-20482053D01*
X70523068Y-20539901D01*
X70527747Y-20545846D01*
X70531314Y-20552519D01*
X70572475Y-20602674D01*
X70612613Y-20653671D01*
X70645893Y-20682139D01*
X75087890Y-25124136D01*
X73977872Y-26234154D01*
X73898520Y-26330845D01*
X73839555Y-26441159D01*
X73803245Y-26560857D01*
X73790985Y-26685339D01*
X73803245Y-26809821D01*
X73839555Y-26929519D01*
X73898520Y-27039833D01*
X73955561Y-27109338D01*
X72931283Y-28133617D01*
X72897516Y-28161329D01*
X72869803Y-28195097D01*
X72869800Y-28195100D01*
X72786922Y-28296087D01*
X72704744Y-28449833D01*
X72654137Y-28616656D01*
X72637051Y-28790146D01*
X72641333Y-28833625D01*
X72641332Y-35230463D01*
X72637051Y-35273932D01*
X72641332Y-35317401D01*
X72641332Y-35317408D01*
X72654137Y-35447421D01*
X72704743Y-35614244D01*
X72786921Y-35767990D01*
X72897515Y-35902749D01*
X72931288Y-35930466D01*
X80807121Y-43806300D01*
X36823303Y-43806300D01*
X36779837Y-43802019D01*
X36736371Y-43806300D01*
X36736361Y-43806300D01*
X36606348Y-43819105D01*
X36439525Y-43869711D01*
X36285779Y-43951889D01*
X36285777Y-43951890D01*
X36285778Y-43951890D01*
X36184791Y-44034768D01*
X36184789Y-44034770D01*
X36151021Y-44062483D01*
X36123308Y-44096251D01*
X34978161Y-45241399D01*
X30345356Y-45241401D01*
X30297156Y-45209195D01*
X30108798Y-45131174D01*
X29908839Y-45091400D01*
X29704961Y-45091400D01*
X29505002Y-45131174D01*
X29316644Y-45209195D01*
X29271010Y-45239687D01*
X29271010Y-45227770D01*
X30889901Y-43608880D01*
X30923668Y-43581168D01*
X30966194Y-43529351D01*
X31034262Y-43446410D01*
X31067093Y-43384986D01*
X31116440Y-43292664D01*
X31167046Y-43125841D01*
X31179851Y-42995828D01*
X31179851Y-42995820D01*
X31184132Y-42952351D01*
X31179851Y-42908882D01*
X31179851Y-42223005D01*
X31241483Y-42181824D01*
X31448326Y-41974981D01*
X31610841Y-41731760D01*
X31722783Y-41461507D01*
X31779851Y-41174609D01*
X31779851Y-40882089D01*
X31737109Y-40667210D01*
X31868996Y-40700629D01*
X32159717Y-40715707D01*
X32447794Y-40673778D01*
X32722155Y-40576454D01*
X32857820Y-40503935D01*
X32934590Y-40255591D01*
X32090902Y-39411903D01*
X32076760Y-39426046D01*
X31897155Y-39246441D01*
X31911297Y-39232298D01*
X31897155Y-39218156D01*
X32076760Y-39038551D01*
X32090902Y-39052693D01*
X32105045Y-39038551D01*
X32284650Y-39218156D01*
X32270507Y-39232298D01*
X33114195Y-40075986D01*
X33362539Y-39999216D01*
X33435058Y-39863551D01*
X33532382Y-39589190D01*
X33574311Y-39301113D01*
X33559233Y-39010392D01*
X33525813Y-38878503D01*
X33740694Y-38921246D01*
X34033214Y-38921246D01*
X34320112Y-38864178D01*
X34590365Y-38752236D01*
X34833586Y-38589721D01*
X35040429Y-38382878D01*
X35202944Y-38139657D01*
X35314886Y-37869404D01*
X35371954Y-37582506D01*
X35371954Y-37289986D01*
X35331036Y-37084277D01*
X35536745Y-37125195D01*
X35829265Y-37125195D01*
X36116163Y-37068127D01*
X36386416Y-36956185D01*
X36629637Y-36793670D01*
X36836480Y-36586827D01*
X36998995Y-36343606D01*
X37110937Y-36073353D01*
X37168005Y-35786455D01*
X37168005Y-35493935D01*
X37127087Y-35288226D01*
X37332796Y-35329144D01*
X37625316Y-35329144D01*
X37912214Y-35272076D01*
X38182467Y-35160134D01*
X38425688Y-34997619D01*
X38632531Y-34790776D01*
X38795046Y-34547555D01*
X38906988Y-34277302D01*
X38964056Y-33990404D01*
X38964056Y-33697884D01*
X38923138Y-33492175D01*
X39128847Y-33533093D01*
X39421367Y-33533093D01*
X39708265Y-33476025D01*
X39978518Y-33364083D01*
X40221739Y-33201568D01*
X40428582Y-32994725D01*
X40591097Y-32751504D01*
X40703039Y-32481251D01*
X40760107Y-32194353D01*
X40760107Y-31901833D01*
X40717364Y-31686952D01*
X40849253Y-31720372D01*
X41139974Y-31735450D01*
X41428051Y-31693521D01*
X41702412Y-31596197D01*
X41838077Y-31523678D01*
X41914847Y-31275334D01*
X41071159Y-30431646D01*
X41057017Y-30445789D01*
X40877412Y-30266184D01*
X40891554Y-30252041D01*
X40877412Y-30237899D01*
X41057017Y-30058294D01*
X41071159Y-30072436D01*
X41085302Y-30058294D01*
X41264907Y-30237899D01*
X41250764Y-30252041D01*
X42094452Y-31095729D01*
X42342796Y-31018959D01*
X42415315Y-30883294D01*
X42512639Y-30608933D01*
X42554568Y-30320856D01*
X42539490Y-30030135D01*
X42506071Y-29898248D01*
X42720950Y-29940990D01*
X43013470Y-29940990D01*
X43300368Y-29883922D01*
X43570621Y-29771980D01*
X43813842Y-29609465D01*
X44020685Y-29402622D01*
X44183200Y-29159401D01*
X44295142Y-28889148D01*
X44352210Y-28602250D01*
X44352210Y-28415779D01*
X44419081Y-28451523D01*
X44538779Y-28487833D01*
X44663261Y-28500093D01*
X44787743Y-28487833D01*
X44907441Y-28451523D01*
X45017755Y-28392558D01*
X45114446Y-28313206D01*
X46316528Y-27111124D01*
X46395880Y-27014433D01*
X46454845Y-26904119D01*
X46491155Y-26784421D01*
X46503415Y-26659939D01*
X46491155Y-26535457D01*
X46454845Y-26415759D01*
X46395880Y-26305445D01*
X46316528Y-26208754D01*
X45182327Y-25074553D01*
X49559188Y-20695271D01*
X49591896Y-20667401D01*
X49632597Y-20615894D01*
X49674300Y-20565051D01*
X49677483Y-20559093D01*
X49681661Y-20553805D01*
X49711537Y-20495339D01*
X49742514Y-20437345D01*
X49744471Y-20430887D01*
X49747541Y-20424879D01*
X49765453Y-20361651D01*
X49784504Y-20298785D01*
X49785163Y-20292074D01*
X49787003Y-20285579D01*
X49792238Y-20220040D01*
X49798655Y-20154696D01*
X49797992Y-20147987D01*
X49798530Y-20141256D01*
X49790881Y-20075982D01*
X49784425Y-20010615D01*
X49782464Y-20004158D01*
X49781679Y-19997457D01*
X49761443Y-19934931D01*
X49742358Y-19872078D01*
X49739178Y-19866132D01*
X49737099Y-19859709D01*
X49705045Y-19802318D01*
X49674073Y-19744411D01*
X49646802Y-19711200D01*
X49087708Y-18907024D01*
X51778608Y-16221600D01*
X68435435Y-16221600D01*
X71127929Y-18883212D01*
%TA.AperFunction,Conductor*%
D16*
G36*
X71127929Y-18883212D02*
G01*
X70559094Y-19698032D01*
X70531314Y-19731881D01*
X70500728Y-19789103D01*
X70468974Y-19845701D01*
X70466630Y-19852895D01*
X70463064Y-19859567D01*
X70444224Y-19921674D01*
X70424127Y-19983362D01*
X70423232Y-19990872D01*
X70421035Y-19998115D01*
X70414673Y-20062714D01*
X70406998Y-20127128D01*
X70407586Y-20134670D01*
X70406844Y-20142200D01*
X70413206Y-20206800D01*
X70418246Y-20271471D01*
X70420293Y-20278751D01*
X70421035Y-20286285D01*
X70439873Y-20348384D01*
X70457437Y-20410848D01*
X70460868Y-20417595D01*
X70463064Y-20424833D01*
X70493649Y-20482053D01*
X70523068Y-20539901D01*
X70527747Y-20545846D01*
X70531314Y-20552519D01*
X70572475Y-20602674D01*
X70612613Y-20653671D01*
X70645893Y-20682139D01*
X75087890Y-25124136D01*
X73977872Y-26234154D01*
X73898520Y-26330845D01*
X73839555Y-26441159D01*
X73803245Y-26560857D01*
X73790985Y-26685339D01*
X73803245Y-26809821D01*
X73839555Y-26929519D01*
X73898520Y-27039833D01*
X73955561Y-27109338D01*
X72931283Y-28133617D01*
X72897516Y-28161329D01*
X72869803Y-28195097D01*
X72869800Y-28195100D01*
X72786922Y-28296087D01*
X72704744Y-28449833D01*
X72654137Y-28616656D01*
X72637051Y-28790146D01*
X72641333Y-28833625D01*
X72641332Y-35230463D01*
X72637051Y-35273932D01*
X72641332Y-35317401D01*
X72641332Y-35317408D01*
X72654137Y-35447421D01*
X72704743Y-35614244D01*
X72786921Y-35767990D01*
X72897515Y-35902749D01*
X72931288Y-35930466D01*
X80807121Y-43806300D01*
X36823303Y-43806300D01*
X36779837Y-43802019D01*
X36736371Y-43806300D01*
X36736361Y-43806300D01*
X36606348Y-43819105D01*
X36439525Y-43869711D01*
X36285779Y-43951889D01*
X36285777Y-43951890D01*
X36285778Y-43951890D01*
X36184791Y-44034768D01*
X36184789Y-44034770D01*
X36151021Y-44062483D01*
X36123308Y-44096251D01*
X34978161Y-45241399D01*
X30345356Y-45241401D01*
X30297156Y-45209195D01*
X30108798Y-45131174D01*
X29908839Y-45091400D01*
X29704961Y-45091400D01*
X29505002Y-45131174D01*
X29316644Y-45209195D01*
X29271010Y-45239687D01*
X29271010Y-45227770D01*
X30889901Y-43608880D01*
X30923668Y-43581168D01*
X30966194Y-43529351D01*
X31034262Y-43446410D01*
X31067093Y-43384986D01*
X31116440Y-43292664D01*
X31167046Y-43125841D01*
X31179851Y-42995828D01*
X31179851Y-42995820D01*
X31184132Y-42952351D01*
X31179851Y-42908882D01*
X31179851Y-42223005D01*
X31241483Y-42181824D01*
X31448326Y-41974981D01*
X31610841Y-41731760D01*
X31722783Y-41461507D01*
X31779851Y-41174609D01*
X31779851Y-40882089D01*
X31737109Y-40667210D01*
X31868996Y-40700629D01*
X32159717Y-40715707D01*
X32447794Y-40673778D01*
X32722155Y-40576454D01*
X32857820Y-40503935D01*
X32934590Y-40255591D01*
X32090902Y-39411903D01*
X32076760Y-39426046D01*
X31897155Y-39246441D01*
X31911297Y-39232298D01*
X31897155Y-39218156D01*
X32076760Y-39038551D01*
X32090902Y-39052693D01*
X32105045Y-39038551D01*
X32284650Y-39218156D01*
X32270507Y-39232298D01*
X33114195Y-40075986D01*
X33362539Y-39999216D01*
X33435058Y-39863551D01*
X33532382Y-39589190D01*
X33574311Y-39301113D01*
X33559233Y-39010392D01*
X33525813Y-38878503D01*
X33740694Y-38921246D01*
X34033214Y-38921246D01*
X34320112Y-38864178D01*
X34590365Y-38752236D01*
X34833586Y-38589721D01*
X35040429Y-38382878D01*
X35202944Y-38139657D01*
X35314886Y-37869404D01*
X35371954Y-37582506D01*
X35371954Y-37289986D01*
X35331036Y-37084277D01*
X35536745Y-37125195D01*
X35829265Y-37125195D01*
X36116163Y-37068127D01*
X36386416Y-36956185D01*
X36629637Y-36793670D01*
X36836480Y-36586827D01*
X36998995Y-36343606D01*
X37110937Y-36073353D01*
X37168005Y-35786455D01*
X37168005Y-35493935D01*
X37127087Y-35288226D01*
X37332796Y-35329144D01*
X37625316Y-35329144D01*
X37912214Y-35272076D01*
X38182467Y-35160134D01*
X38425688Y-34997619D01*
X38632531Y-34790776D01*
X38795046Y-34547555D01*
X38906988Y-34277302D01*
X38964056Y-33990404D01*
X38964056Y-33697884D01*
X38923138Y-33492175D01*
X39128847Y-33533093D01*
X39421367Y-33533093D01*
X39708265Y-33476025D01*
X39978518Y-33364083D01*
X40221739Y-33201568D01*
X40428582Y-32994725D01*
X40591097Y-32751504D01*
X40703039Y-32481251D01*
X40760107Y-32194353D01*
X40760107Y-31901833D01*
X40717364Y-31686952D01*
X40849253Y-31720372D01*
X41139974Y-31735450D01*
X41428051Y-31693521D01*
X41702412Y-31596197D01*
X41838077Y-31523678D01*
X41914847Y-31275334D01*
X41071159Y-30431646D01*
X41057017Y-30445789D01*
X40877412Y-30266184D01*
X40891554Y-30252041D01*
X40877412Y-30237899D01*
X41057017Y-30058294D01*
X41071159Y-30072436D01*
X41085302Y-30058294D01*
X41264907Y-30237899D01*
X41250764Y-30252041D01*
X42094452Y-31095729D01*
X42342796Y-31018959D01*
X42415315Y-30883294D01*
X42512639Y-30608933D01*
X42554568Y-30320856D01*
X42539490Y-30030135D01*
X42506071Y-29898248D01*
X42720950Y-29940990D01*
X43013470Y-29940990D01*
X43300368Y-29883922D01*
X43570621Y-29771980D01*
X43813842Y-29609465D01*
X44020685Y-29402622D01*
X44183200Y-29159401D01*
X44295142Y-28889148D01*
X44352210Y-28602250D01*
X44352210Y-28415779D01*
X44419081Y-28451523D01*
X44538779Y-28487833D01*
X44663261Y-28500093D01*
X44787743Y-28487833D01*
X44907441Y-28451523D01*
X45017755Y-28392558D01*
X45114446Y-28313206D01*
X46316528Y-27111124D01*
X46395880Y-27014433D01*
X46454845Y-26904119D01*
X46491155Y-26784421D01*
X46503415Y-26659939D01*
X46491155Y-26535457D01*
X46454845Y-26415759D01*
X46395880Y-26305445D01*
X46316528Y-26208754D01*
X45182327Y-25074553D01*
X49559188Y-20695271D01*
X49591896Y-20667401D01*
X49632597Y-20615894D01*
X49674300Y-20565051D01*
X49677483Y-20559093D01*
X49681661Y-20553805D01*
X49711537Y-20495339D01*
X49742514Y-20437345D01*
X49744471Y-20430887D01*
X49747541Y-20424879D01*
X49765453Y-20361651D01*
X49784504Y-20298785D01*
X49785163Y-20292074D01*
X49787003Y-20285579D01*
X49792238Y-20220040D01*
X49798655Y-20154696D01*
X49797992Y-20147987D01*
X49798530Y-20141256D01*
X49790881Y-20075982D01*
X49784425Y-20010615D01*
X49782464Y-20004158D01*
X49781679Y-19997457D01*
X49761443Y-19934931D01*
X49742358Y-19872078D01*
X49739178Y-19866132D01*
X49737099Y-19859709D01*
X49705045Y-19802318D01*
X49674073Y-19744411D01*
X49646802Y-19711200D01*
X49087708Y-18907024D01*
X51778608Y-16221600D01*
X68435435Y-16221600D01*
X71127929Y-18883212D01*
G37*
%TD.AperFunction*%
D15*
X86735167Y-39035792D02*
X86720089Y-39326513D01*
X86762018Y-39614590D01*
X86859342Y-39888951D01*
X86931861Y-40024616D01*
X87180205Y-40101386D01*
X88023893Y-39257698D01*
X88009751Y-39243556D01*
X88189356Y-39063951D01*
X88203498Y-39078093D01*
X88217641Y-39063951D01*
X88397246Y-39243556D01*
X88383103Y-39257698D01*
X88397246Y-39271841D01*
X88217641Y-39451446D01*
X88203498Y-39437303D01*
X87359810Y-40280991D01*
X87436580Y-40529335D01*
X87572245Y-40601854D01*
X87846606Y-40699178D01*
X88134683Y-40741107D01*
X88425404Y-40726029D01*
X88557291Y-40692610D01*
X88514549Y-40907489D01*
X88514549Y-41200009D01*
X88514972Y-41202136D01*
X88486604Y-41204930D01*
X85658719Y-41204930D01*
X85111400Y-40657612D01*
X85111400Y-40009270D01*
X86188486Y-38932185D01*
X86261186Y-38946646D01*
X86553706Y-38946646D01*
X86768587Y-38903903D01*
X86735167Y-39035792D01*
%TA.AperFunction,Conductor*%
D16*
G36*
X86735167Y-39035792D02*
G01*
X86720089Y-39326513D01*
X86762018Y-39614590D01*
X86859342Y-39888951D01*
X86931861Y-40024616D01*
X87180205Y-40101386D01*
X88023893Y-39257698D01*
X88009751Y-39243556D01*
X88189356Y-39063951D01*
X88203498Y-39078093D01*
X88217641Y-39063951D01*
X88397246Y-39243556D01*
X88383103Y-39257698D01*
X88397246Y-39271841D01*
X88217641Y-39451446D01*
X88203498Y-39437303D01*
X87359810Y-40280991D01*
X87436580Y-40529335D01*
X87572245Y-40601854D01*
X87846606Y-40699178D01*
X88134683Y-40741107D01*
X88425404Y-40726029D01*
X88557291Y-40692610D01*
X88514549Y-40907489D01*
X88514549Y-41200009D01*
X88514972Y-41202136D01*
X88486604Y-41204930D01*
X85658719Y-41204930D01*
X85111400Y-40657612D01*
X85111400Y-40009270D01*
X86188486Y-38932185D01*
X86261186Y-38946646D01*
X86553706Y-38946646D01*
X86768587Y-38903903D01*
X86735167Y-39035792D01*
G37*
%TD.AperFunction*%
D15*
X77754910Y-30055535D02*
X77739832Y-30346256D01*
X77781761Y-30634333D01*
X77879085Y-30908694D01*
X77951604Y-31044359D01*
X78199948Y-31121129D01*
X79043636Y-30277441D01*
X79029494Y-30263299D01*
X79209099Y-30083694D01*
X79223241Y-30097836D01*
X79237384Y-30083694D01*
X79416989Y-30263299D01*
X79402846Y-30277441D01*
X79416989Y-30291584D01*
X79237384Y-30471189D01*
X79223241Y-30457046D01*
X78379553Y-31300734D01*
X78456323Y-31549078D01*
X78591988Y-31621597D01*
X78866349Y-31718921D01*
X79154426Y-31760850D01*
X79445147Y-31745772D01*
X79577036Y-31712352D01*
X79534293Y-31927233D01*
X79534293Y-32219753D01*
X79548754Y-32292453D01*
X76265351Y-35575856D01*
X76231584Y-35603569D01*
X76171149Y-35677208D01*
X75111342Y-34617402D01*
X75111342Y-32048816D01*
X77208230Y-29951929D01*
X77280930Y-29966390D01*
X77573450Y-29966390D01*
X77788329Y-29923648D01*
X77754910Y-30055535D01*
%TA.AperFunction,Conductor*%
D16*
G36*
X77754910Y-30055535D02*
G01*
X77739832Y-30346256D01*
X77781761Y-30634333D01*
X77879085Y-30908694D01*
X77951604Y-31044359D01*
X78199948Y-31121129D01*
X79043636Y-30277441D01*
X79029494Y-30263299D01*
X79209099Y-30083694D01*
X79223241Y-30097836D01*
X79237384Y-30083694D01*
X79416989Y-30263299D01*
X79402846Y-30277441D01*
X79416989Y-30291584D01*
X79237384Y-30471189D01*
X79223241Y-30457046D01*
X78379553Y-31300734D01*
X78456323Y-31549078D01*
X78591988Y-31621597D01*
X78866349Y-31718921D01*
X79154426Y-31760850D01*
X79445147Y-31745772D01*
X79577036Y-31712352D01*
X79534293Y-31927233D01*
X79534293Y-32219753D01*
X79548754Y-32292453D01*
X76265351Y-35575856D01*
X76231584Y-35603569D01*
X76171149Y-35677208D01*
X75111342Y-34617402D01*
X75111342Y-32048816D01*
X77208230Y-29951929D01*
X77280930Y-29966390D01*
X77573450Y-29966390D01*
X77788329Y-29923648D01*
X77754910Y-30055535D01*
G37*
%TD.AperFunction*%
%TD*%
M02*
