%TF.GenerationSoftware,KiCad,Pcbnew,(5.1.8)-1*%
%TF.CreationDate,2021-12-10T09:03:27+01:00*%
%TF.ProjectId,FirePlaceFrontwall,46697265-506c-4616-9365-46726f6e7477,rev?*%
%TF.SameCoordinates,Original*%
%TF.FileFunction,Copper,L2,Bot*%
%TF.FilePolarity,Positive*%
%FSLAX46Y46*%
G04 Gerber Fmt 4.6, Leading zero omitted, Abs format (unit mm)*
G04 Created by KiCad (PCBNEW (5.1.8)-1) date 2021-12-10 09:03:27*
%MOMM*%
%LPD*%
G01*
G04 APERTURE LIST*
%TA.AperFunction,ComponentPad*%
%ADD10C,0.100000*%
%TD*%
%TA.AperFunction,ComponentPad*%
%ADD11O,1.700000X1.700000*%
%TD*%
%TA.AperFunction,ComponentPad*%
%ADD12R,1.700000X1.700000*%
%TD*%
%TA.AperFunction,ViaPad*%
%ADD13C,0.800000*%
%TD*%
%TA.AperFunction,Conductor*%
%ADD14C,0.500000*%
%TD*%
%TA.AperFunction,Conductor*%
%ADD15C,0.254000*%
%TD*%
%TA.AperFunction,Conductor*%
%ADD16C,0.100000*%
%TD*%
G04 APERTURE END LIST*
%TO.P,K4,10*%
%TO.N,RUN*%
%TA.AperFunction,ComponentPad*%
G36*
G01*
X91194559Y-43450841D02*
X91194559Y-43450841D01*
G75*
G02*
X91194559Y-42248759I601041J601041D01*
G01*
X91194559Y-42248759D01*
G75*
G02*
X92396641Y-42248759I601041J-601041D01*
G01*
X92396641Y-42248759D01*
G75*
G02*
X92396641Y-43450841I-601041J-601041D01*
G01*
X92396641Y-43450841D01*
G75*
G02*
X91194559Y-43450841I-601041J601041D01*
G01*
G37*
%TD.AperFunction*%
%TO.P,K4,9*%
%TO.N,GPIO22*%
%TA.AperFunction,ComponentPad*%
G36*
G01*
X89398508Y-41654790D02*
X89398508Y-41654790D01*
G75*
G02*
X89398508Y-40452708I601041J601041D01*
G01*
X89398508Y-40452708D01*
G75*
G02*
X90600590Y-40452708I601041J-601041D01*
G01*
X90600590Y-40452708D01*
G75*
G02*
X90600590Y-41654790I-601041J-601041D01*
G01*
X90600590Y-41654790D01*
G75*
G02*
X89398508Y-41654790I-601041J601041D01*
G01*
G37*
%TD.AperFunction*%
%TO.P,K4,8*%
%TO.N,AGND*%
%TA.AperFunction,ComponentPad*%
G36*
G01*
X87602457Y-39858739D02*
X87602457Y-39858739D01*
G75*
G02*
X87602457Y-38656657I601041J601041D01*
G01*
X87602457Y-38656657D01*
G75*
G02*
X88804539Y-38656657I601041J-601041D01*
G01*
X88804539Y-38656657D01*
G75*
G02*
X88804539Y-39858739I-601041J-601041D01*
G01*
X88804539Y-39858739D01*
G75*
G02*
X87602457Y-39858739I-601041J601041D01*
G01*
G37*
%TD.AperFunction*%
%TO.P,K4,7*%
%TO.N,GPIO21*%
%TA.AperFunction,ComponentPad*%
G36*
G01*
X85806405Y-38062687D02*
X85806405Y-38062687D01*
G75*
G02*
X85806405Y-36860605I601041J601041D01*
G01*
X85806405Y-36860605D01*
G75*
G02*
X87008487Y-36860605I601041J-601041D01*
G01*
X87008487Y-36860605D01*
G75*
G02*
X87008487Y-38062687I-601041J-601041D01*
G01*
X87008487Y-38062687D01*
G75*
G02*
X85806405Y-38062687I-601041J601041D01*
G01*
G37*
%TD.AperFunction*%
%TO.P,K4,6*%
%TO.N,GPIO20*%
%TA.AperFunction,ComponentPad*%
G36*
G01*
X84010354Y-36266636D02*
X84010354Y-36266636D01*
G75*
G02*
X84010354Y-35064554I601041J601041D01*
G01*
X84010354Y-35064554D01*
G75*
G02*
X85212436Y-35064554I601041J-601041D01*
G01*
X85212436Y-35064554D01*
G75*
G02*
X85212436Y-36266636I-601041J-601041D01*
G01*
X85212436Y-36266636D01*
G75*
G02*
X84010354Y-36266636I-601041J601041D01*
G01*
G37*
%TD.AperFunction*%
%TO.P,K4,5*%
%TO.N,GPIO19*%
%TA.AperFunction,ComponentPad*%
G36*
G01*
X82214303Y-34470585D02*
X82214303Y-34470585D01*
G75*
G02*
X82214303Y-33268503I601041J601041D01*
G01*
X82214303Y-33268503D01*
G75*
G02*
X83416385Y-33268503I601041J-601041D01*
G01*
X83416385Y-33268503D01*
G75*
G02*
X83416385Y-34470585I-601041J-601041D01*
G01*
X83416385Y-34470585D01*
G75*
G02*
X82214303Y-34470585I-601041J601041D01*
G01*
G37*
%TD.AperFunction*%
%TO.P,K4,4*%
%TO.N,GPIO18*%
%TA.AperFunction,ComponentPad*%
G36*
G01*
X80418252Y-32674534D02*
X80418252Y-32674534D01*
G75*
G02*
X80418252Y-31472452I601041J601041D01*
G01*
X80418252Y-31472452D01*
G75*
G02*
X81620334Y-31472452I601041J-601041D01*
G01*
X81620334Y-31472452D01*
G75*
G02*
X81620334Y-32674534I-601041J-601041D01*
G01*
X81620334Y-32674534D01*
G75*
G02*
X80418252Y-32674534I-601041J601041D01*
G01*
G37*
%TD.AperFunction*%
%TO.P,K4,3*%
%TO.N,AGND*%
%TA.AperFunction,ComponentPad*%
G36*
G01*
X78622200Y-30878482D02*
X78622200Y-30878482D01*
G75*
G02*
X78622200Y-29676400I601041J601041D01*
G01*
X78622200Y-29676400D01*
G75*
G02*
X79824282Y-29676400I601041J-601041D01*
G01*
X79824282Y-29676400D01*
G75*
G02*
X79824282Y-30878482I-601041J-601041D01*
G01*
X79824282Y-30878482D01*
G75*
G02*
X78622200Y-30878482I-601041J601041D01*
G01*
G37*
%TD.AperFunction*%
%TO.P,K4,2*%
%TO.N,GPIO17*%
%TA.AperFunction,ComponentPad*%
G36*
G01*
X76826149Y-29082431D02*
X76826149Y-29082431D01*
G75*
G02*
X76826149Y-27880349I601041J601041D01*
G01*
X76826149Y-27880349D01*
G75*
G02*
X78028231Y-27880349I601041J-601041D01*
G01*
X78028231Y-27880349D01*
G75*
G02*
X78028231Y-29082431I-601041J-601041D01*
G01*
X78028231Y-29082431D01*
G75*
G02*
X76826149Y-29082431I-601041J601041D01*
G01*
G37*
%TD.AperFunction*%
%TA.AperFunction,ComponentPad*%
D10*
%TO.P,K4,1*%
%TO.N,GPIO16*%
G36*
X75631139Y-27887421D02*
G01*
X74429057Y-26685339D01*
X75631139Y-25483257D01*
X76833221Y-26685339D01*
X75631139Y-27887421D01*
G37*
%TD.AperFunction*%
%TD*%
D11*
%TO.P,K3,10*%
%TO.N,VBUS*%
X94538800Y-71348600D03*
%TO.P,K3,9*%
%TO.N,VSYS*%
X94538800Y-68808600D03*
%TO.P,K3,8*%
%TO.N,AGND*%
X94538800Y-66268600D03*
%TO.P,K3,7*%
%TO.N,3V3_EN*%
X94538800Y-63728600D03*
%TO.P,K3,6*%
%TO.N,3V3*%
X94538800Y-61188600D03*
%TO.P,K3,5*%
%TO.N,ADC_REF*%
X94538800Y-58648600D03*
%TO.P,K3,4*%
%TO.N,GPIO28_ADC2*%
X94538800Y-56108600D03*
%TO.P,K3,3*%
%TO.N,AGND*%
X94538800Y-53568600D03*
%TO.P,K3,2*%
%TO.N,GPIO27_ADC1*%
X94538800Y-51028600D03*
D12*
%TO.P,K3,1*%
%TO.N,GPIO26_ADC0*%
X94538800Y-48488600D03*
%TD*%
%TO.P,K2,10*%
%TO.N,C1*%
%TA.AperFunction,ComponentPad*%
G36*
G01*
X27897759Y-42223359D02*
X27897759Y-42223359D01*
G75*
G02*
X29099841Y-42223359I601041J-601041D01*
G01*
X29099841Y-42223359D01*
G75*
G02*
X29099841Y-43425441I-601041J-601041D01*
G01*
X29099841Y-43425441D01*
G75*
G02*
X27897759Y-43425441I-601041J601041D01*
G01*
X27897759Y-43425441D01*
G75*
G02*
X27897759Y-42223359I601041J601041D01*
G01*
G37*
%TD.AperFunction*%
%TO.P,K2,9*%
%TO.N,C0*%
%TA.AperFunction,ComponentPad*%
G36*
G01*
X29693810Y-40427308D02*
X29693810Y-40427308D01*
G75*
G02*
X30895892Y-40427308I601041J-601041D01*
G01*
X30895892Y-40427308D01*
G75*
G02*
X30895892Y-41629390I-601041J-601041D01*
G01*
X30895892Y-41629390D01*
G75*
G02*
X29693810Y-41629390I-601041J601041D01*
G01*
X29693810Y-41629390D01*
G75*
G02*
X29693810Y-40427308I601041J601041D01*
G01*
G37*
%TD.AperFunction*%
%TO.P,K2,8*%
%TO.N,AGND*%
%TA.AperFunction,ComponentPad*%
G36*
G01*
X31489861Y-38631257D02*
X31489861Y-38631257D01*
G75*
G02*
X32691943Y-38631257I601041J-601041D01*
G01*
X32691943Y-38631257D01*
G75*
G02*
X32691943Y-39833339I-601041J-601041D01*
G01*
X32691943Y-39833339D01*
G75*
G02*
X31489861Y-39833339I-601041J601041D01*
G01*
X31489861Y-39833339D01*
G75*
G02*
X31489861Y-38631257I601041J601041D01*
G01*
G37*
%TD.AperFunction*%
%TO.P,K2,7*%
%TO.N,GPIO13*%
%TA.AperFunction,ComponentPad*%
G36*
G01*
X33285913Y-36835205D02*
X33285913Y-36835205D01*
G75*
G02*
X34487995Y-36835205I601041J-601041D01*
G01*
X34487995Y-36835205D01*
G75*
G02*
X34487995Y-38037287I-601041J-601041D01*
G01*
X34487995Y-38037287D01*
G75*
G02*
X33285913Y-38037287I-601041J601041D01*
G01*
X33285913Y-38037287D01*
G75*
G02*
X33285913Y-36835205I601041J601041D01*
G01*
G37*
%TD.AperFunction*%
%TO.P,K2,6*%
%TO.N,GPIO12*%
%TA.AperFunction,ComponentPad*%
G36*
G01*
X35081964Y-35039154D02*
X35081964Y-35039154D01*
G75*
G02*
X36284046Y-35039154I601041J-601041D01*
G01*
X36284046Y-35039154D01*
G75*
G02*
X36284046Y-36241236I-601041J-601041D01*
G01*
X36284046Y-36241236D01*
G75*
G02*
X35081964Y-36241236I-601041J601041D01*
G01*
X35081964Y-36241236D01*
G75*
G02*
X35081964Y-35039154I601041J601041D01*
G01*
G37*
%TD.AperFunction*%
%TO.P,K2,5*%
%TO.N,GPIO11*%
%TA.AperFunction,ComponentPad*%
G36*
G01*
X36878015Y-33243103D02*
X36878015Y-33243103D01*
G75*
G02*
X38080097Y-33243103I601041J-601041D01*
G01*
X38080097Y-33243103D01*
G75*
G02*
X38080097Y-34445185I-601041J-601041D01*
G01*
X38080097Y-34445185D01*
G75*
G02*
X36878015Y-34445185I-601041J601041D01*
G01*
X36878015Y-34445185D01*
G75*
G02*
X36878015Y-33243103I601041J601041D01*
G01*
G37*
%TD.AperFunction*%
%TO.P,K2,4*%
%TO.N,GPIO10*%
%TA.AperFunction,ComponentPad*%
G36*
G01*
X38674066Y-31447052D02*
X38674066Y-31447052D01*
G75*
G02*
X39876148Y-31447052I601041J-601041D01*
G01*
X39876148Y-31447052D01*
G75*
G02*
X39876148Y-32649134I-601041J-601041D01*
G01*
X39876148Y-32649134D01*
G75*
G02*
X38674066Y-32649134I-601041J601041D01*
G01*
X38674066Y-32649134D01*
G75*
G02*
X38674066Y-31447052I601041J601041D01*
G01*
G37*
%TD.AperFunction*%
%TO.P,K2,3*%
%TO.N,AGND*%
%TA.AperFunction,ComponentPad*%
G36*
G01*
X40470118Y-29651000D02*
X40470118Y-29651000D01*
G75*
G02*
X41672200Y-29651000I601041J-601041D01*
G01*
X41672200Y-29651000D01*
G75*
G02*
X41672200Y-30853082I-601041J-601041D01*
G01*
X41672200Y-30853082D01*
G75*
G02*
X40470118Y-30853082I-601041J601041D01*
G01*
X40470118Y-30853082D01*
G75*
G02*
X40470118Y-29651000I601041J601041D01*
G01*
G37*
%TD.AperFunction*%
%TO.P,K2,2*%
%TO.N,GPIO9*%
%TA.AperFunction,ComponentPad*%
G36*
G01*
X42266169Y-27854949D02*
X42266169Y-27854949D01*
G75*
G02*
X43468251Y-27854949I601041J-601041D01*
G01*
X43468251Y-27854949D01*
G75*
G02*
X43468251Y-29057031I-601041J-601041D01*
G01*
X43468251Y-29057031D01*
G75*
G02*
X42266169Y-29057031I-601041J601041D01*
G01*
X42266169Y-29057031D01*
G75*
G02*
X42266169Y-27854949I601041J601041D01*
G01*
G37*
%TD.AperFunction*%
%TA.AperFunction,ComponentPad*%
D10*
%TO.P,K2,1*%
%TO.N,GPIO8*%
G36*
X43461179Y-26659939D02*
G01*
X44663261Y-25457857D01*
X45865343Y-26659939D01*
X44663261Y-27862021D01*
X43461179Y-26659939D01*
G37*
%TD.AperFunction*%
%TD*%
D11*
%TO.P,K1,10*%
%TO.N,C2*%
X25654000Y-48515000D03*
%TO.P,K1,9*%
%TO.N,C3*%
X25654000Y-51055000D03*
%TO.P,K1,8*%
%TO.N,AGND*%
X25654000Y-53595000D03*
%TO.P,K1,7*%
%TO.N,C4*%
X25654000Y-56135000D03*
%TO.P,K1,6*%
%TO.N,C5*%
X25654000Y-58675000D03*
%TO.P,K1,5*%
%TO.N,C6*%
X25654000Y-61215000D03*
%TO.P,K1,4*%
%TO.N,C7*%
X25654000Y-63755000D03*
%TO.P,K1,3*%
%TO.N,AGND*%
X25654000Y-66295000D03*
%TO.P,K1,2*%
%TO.N,GPIO1*%
X25654000Y-68835000D03*
D12*
%TO.P,K1,1*%
%TO.N,GPIO0*%
X25654000Y-71375000D03*
%TD*%
D11*
%TO.P,K6,10*%
%TO.N,AGND*%
X86360000Y-89916000D03*
%TO.P,K6,9*%
%TO.N,VBUS*%
X86360000Y-87376000D03*
%TO.P,K6,8*%
%TO.N,GPIO21*%
X86360000Y-84836000D03*
%TO.P,K6,7*%
%TO.N,GPIO20*%
X86360000Y-82296000D03*
%TO.P,K6,6*%
%TO.N,GPIO19*%
X86360000Y-79756000D03*
%TO.P,K6,5*%
%TO.N,GPIO18*%
X86360000Y-77216000D03*
%TO.P,K6,4*%
%TO.N,GPIO17*%
X86360000Y-74676000D03*
%TO.P,K6,3*%
%TO.N,GPIO16*%
X86360000Y-72136000D03*
%TO.P,K6,2*%
%TO.N,GPIO0*%
X86360000Y-69596000D03*
D12*
%TO.P,K6,1*%
%TO.N,GPIO1*%
X86360000Y-67056000D03*
%TD*%
D11*
%TO.P,K5,10*%
%TO.N,AGND*%
X33782000Y-89916000D03*
%TO.P,K5,9*%
%TO.N,VBUS*%
X33782000Y-87376000D03*
%TO.P,K5,8*%
%TO.N,C7*%
X33782000Y-84836000D03*
%TO.P,K5,7*%
%TO.N,C6*%
X33782000Y-82296000D03*
%TO.P,K5,6*%
%TO.N,C5*%
X33782000Y-79756000D03*
%TO.P,K5,5*%
%TO.N,C4*%
X33782000Y-77216000D03*
%TO.P,K5,4*%
%TO.N,C3*%
X33782000Y-74676000D03*
%TO.P,K5,3*%
%TO.N,C2*%
X33782000Y-72136000D03*
%TO.P,K5,2*%
%TO.N,C1*%
X33782000Y-69596000D03*
D12*
%TO.P,K5,1*%
%TO.N,C0*%
X33782000Y-67056000D03*
%TD*%
D13*
%TO.N,AGND*%
X39522400Y-52070000D03*
X41910000Y-52070000D03*
X43180000Y-52070000D03*
X44450000Y-52070000D03*
X45720000Y-52070000D03*
X46990000Y-52070000D03*
X40640000Y-52070000D03*
X48260000Y-52070000D03*
X49530000Y-52070000D03*
X50800000Y-52070000D03*
X52070000Y-52070000D03*
X53340000Y-52070000D03*
X54610000Y-52070000D03*
X55880000Y-52070000D03*
X57150000Y-52070000D03*
X58420000Y-52070000D03*
X59690000Y-52070000D03*
X60960000Y-52070000D03*
X62230000Y-52070000D03*
X63500000Y-52070000D03*
X64770000Y-52070000D03*
X66040000Y-52070000D03*
X67310000Y-52070000D03*
X68580000Y-52070000D03*
X69850000Y-52070000D03*
X71120000Y-52070000D03*
X72390000Y-52070000D03*
X73660000Y-52070000D03*
X74930000Y-52070000D03*
X76200000Y-52070000D03*
X77470000Y-52070000D03*
X78740000Y-52070000D03*
X80010000Y-52070000D03*
%TO.N,VBUS*%
X32486600Y-47929800D03*
X86258400Y-48006000D03*
%TO.N,GPIO1*%
X29236010Y-46976400D03*
%TO.N,GPIO0*%
X29806900Y-46126400D03*
%TD*%
D14*
%TO.N,VBUS*%
X32481999Y-47934401D02*
X32486600Y-47929800D01*
X32481999Y-86075999D02*
X32481999Y-47934401D01*
X33782000Y-87376000D02*
X32481999Y-86075999D01*
X93091000Y-71348600D02*
X94538800Y-71348600D01*
X91592400Y-69850000D02*
X93091000Y-71348600D01*
X91592400Y-48768000D02*
X91592400Y-69850000D01*
X90830400Y-48006000D02*
X91592400Y-48768000D01*
X86258400Y-48006000D02*
X90830400Y-48006000D01*
%TO.N,GPIO1*%
X27449301Y-47007301D02*
X27630192Y-46826410D01*
X27449301Y-67368899D02*
X27449301Y-47007301D01*
X26149300Y-68668900D02*
X27449301Y-67368899D01*
X29086020Y-46826410D02*
X29236010Y-46976400D01*
X27630192Y-46826410D02*
X29086020Y-46826410D01*
%TO.N,GPIO0*%
X28149311Y-67658852D02*
X27449301Y-68358862D01*
X29642212Y-47828200D02*
X28149311Y-47828200D01*
X30086011Y-47384401D02*
X29642212Y-47828200D01*
X28149311Y-47828200D02*
X28149311Y-67658852D01*
X30086011Y-46568399D02*
X30086011Y-47384401D01*
X29806900Y-46289288D02*
X30086011Y-46568399D01*
X27449301Y-69908899D02*
X26149300Y-71208900D01*
X27449301Y-68358862D02*
X27449301Y-69908899D01*
X29806900Y-46126400D02*
X29806900Y-46289288D01*
%TD*%
D15*
%TO.N,AGND*%
X71127929Y-18883212D02*
X70559094Y-19698032D01*
X70531314Y-19731881D01*
X70500728Y-19789103D01*
X70468974Y-19845701D01*
X70466630Y-19852895D01*
X70463064Y-19859567D01*
X70444224Y-19921674D01*
X70424127Y-19983362D01*
X70423232Y-19990872D01*
X70421035Y-19998115D01*
X70414673Y-20062714D01*
X70406998Y-20127128D01*
X70407586Y-20134670D01*
X70406844Y-20142200D01*
X70413206Y-20206800D01*
X70418246Y-20271471D01*
X70420293Y-20278751D01*
X70421035Y-20286285D01*
X70439873Y-20348384D01*
X70457437Y-20410848D01*
X70460868Y-20417595D01*
X70463064Y-20424833D01*
X70493649Y-20482053D01*
X70523068Y-20539901D01*
X70527747Y-20545846D01*
X70531314Y-20552519D01*
X70572475Y-20602674D01*
X70612613Y-20653671D01*
X70645893Y-20682139D01*
X75087890Y-25124136D01*
X73977872Y-26234154D01*
X73898520Y-26330845D01*
X73839555Y-26441159D01*
X73803245Y-26560857D01*
X73790985Y-26685339D01*
X73803245Y-26809821D01*
X73839555Y-26929519D01*
X73898520Y-27039833D01*
X73977872Y-27136524D01*
X75179954Y-28338606D01*
X75276645Y-28417958D01*
X75386959Y-28476923D01*
X75506657Y-28513233D01*
X75631139Y-28525493D01*
X75755621Y-28513233D01*
X75875319Y-28476923D01*
X75942190Y-28441179D01*
X75942190Y-28627650D01*
X75999258Y-28914548D01*
X76111200Y-29184801D01*
X76273715Y-29428022D01*
X76480558Y-29634865D01*
X76723779Y-29797380D01*
X76994032Y-29909322D01*
X77280930Y-29966390D01*
X77573450Y-29966390D01*
X77788329Y-29923648D01*
X77754910Y-30055535D01*
X77739832Y-30346256D01*
X77781761Y-30634333D01*
X77879085Y-30908694D01*
X77951604Y-31044359D01*
X78199948Y-31121129D01*
X79043636Y-30277441D01*
X79029494Y-30263299D01*
X79209099Y-30083694D01*
X79223241Y-30097836D01*
X79237384Y-30083694D01*
X79416989Y-30263299D01*
X79402846Y-30277441D01*
X79416989Y-30291584D01*
X79237384Y-30471189D01*
X79223241Y-30457046D01*
X78379553Y-31300734D01*
X78456323Y-31549078D01*
X78591988Y-31621597D01*
X78866349Y-31718921D01*
X79154426Y-31760850D01*
X79445147Y-31745772D01*
X79577036Y-31712352D01*
X79534293Y-31927233D01*
X79534293Y-32219753D01*
X79591361Y-32506651D01*
X79703303Y-32776904D01*
X79865818Y-33020125D01*
X80072661Y-33226968D01*
X80315882Y-33389483D01*
X80586135Y-33501425D01*
X80873033Y-33558493D01*
X81165553Y-33558493D01*
X81371262Y-33517575D01*
X81330344Y-33723284D01*
X81330344Y-34015804D01*
X81387412Y-34302702D01*
X81499354Y-34572955D01*
X81661869Y-34816176D01*
X81868712Y-35023019D01*
X82111933Y-35185534D01*
X82382186Y-35297476D01*
X82669084Y-35354544D01*
X82961604Y-35354544D01*
X83167313Y-35313626D01*
X83126395Y-35519335D01*
X83126395Y-35811855D01*
X83183463Y-36098753D01*
X83295405Y-36369006D01*
X83457920Y-36612227D01*
X83664763Y-36819070D01*
X83907984Y-36981585D01*
X84178237Y-37093527D01*
X84465135Y-37150595D01*
X84757655Y-37150595D01*
X84963364Y-37109677D01*
X84922446Y-37315386D01*
X84922446Y-37607906D01*
X84979514Y-37894804D01*
X85091456Y-38165057D01*
X85253971Y-38408278D01*
X85460814Y-38615121D01*
X85704035Y-38777636D01*
X85974288Y-38889578D01*
X86261186Y-38946646D01*
X86553706Y-38946646D01*
X86768587Y-38903903D01*
X86735167Y-39035792D01*
X86720089Y-39326513D01*
X86762018Y-39614590D01*
X86859342Y-39888951D01*
X86931861Y-40024616D01*
X87180205Y-40101386D01*
X88023893Y-39257698D01*
X88009751Y-39243556D01*
X88189356Y-39063951D01*
X88203498Y-39078093D01*
X88217641Y-39063951D01*
X88397246Y-39243556D01*
X88383103Y-39257698D01*
X88397246Y-39271841D01*
X88217641Y-39451446D01*
X88203498Y-39437303D01*
X87359810Y-40280991D01*
X87436580Y-40529335D01*
X87572245Y-40601854D01*
X87846606Y-40699178D01*
X88134683Y-40741107D01*
X88425404Y-40726029D01*
X88557291Y-40692610D01*
X88514549Y-40907489D01*
X88514549Y-41200009D01*
X88571617Y-41486907D01*
X88683559Y-41757160D01*
X88846074Y-42000381D01*
X89052917Y-42207224D01*
X89296138Y-42369739D01*
X89566391Y-42481681D01*
X89853289Y-42538749D01*
X90145809Y-42538749D01*
X90351518Y-42497831D01*
X90310600Y-42703540D01*
X90310600Y-42996060D01*
X90367668Y-43282958D01*
X90479610Y-43553211D01*
X90642125Y-43796432D01*
X90848968Y-44003275D01*
X91092189Y-44165790D01*
X91362442Y-44277732D01*
X91649340Y-44334800D01*
X91941860Y-44334800D01*
X92228758Y-44277732D01*
X92499011Y-44165790D01*
X92742232Y-44003275D01*
X92949075Y-43796432D01*
X93111590Y-43553211D01*
X93223532Y-43282958D01*
X93227378Y-43263625D01*
X93540649Y-43576896D01*
X93568048Y-43609181D01*
X93619976Y-43650382D01*
X93671279Y-43692486D01*
X93676677Y-43695371D01*
X93681466Y-43699171D01*
X93740456Y-43729462D01*
X93798966Y-43760736D01*
X93804819Y-43762511D01*
X93810261Y-43765306D01*
X93874031Y-43783507D01*
X93937514Y-43802765D01*
X93943604Y-43803365D01*
X93949484Y-43805043D01*
X94015598Y-43810455D01*
X94081599Y-43816955D01*
X94087683Y-43816356D01*
X94093782Y-43816855D01*
X94159669Y-43809266D01*
X94225684Y-43802765D01*
X94231540Y-43800989D01*
X94237614Y-43800289D01*
X94300750Y-43779994D01*
X94364233Y-43760736D01*
X94369627Y-43757853D01*
X94375450Y-43755981D01*
X94433441Y-43723743D01*
X94491919Y-43692486D01*
X94524652Y-43665623D01*
X95317379Y-43116812D01*
X97696240Y-45486827D01*
X97450608Y-45731760D01*
X96050819Y-45731760D01*
X96014890Y-45728204D01*
X95978610Y-45731760D01*
X95978435Y-45731760D01*
X95942476Y-45735302D01*
X95870799Y-45742327D01*
X95870632Y-45742378D01*
X95870455Y-45742395D01*
X95800609Y-45763582D01*
X95732232Y-45784289D01*
X95732078Y-45784371D01*
X95731907Y-45784423D01*
X95667728Y-45818727D01*
X95604512Y-45852478D01*
X95604376Y-45852590D01*
X95604220Y-45852673D01*
X95547905Y-45898890D01*
X95492551Y-45944274D01*
X95492441Y-45944408D01*
X95492302Y-45944522D01*
X95445749Y-46001247D01*
X95400648Y-46056149D01*
X95400566Y-46056302D01*
X95400453Y-46056440D01*
X95365932Y-46121025D01*
X95332338Y-46183803D01*
X95332288Y-46183969D01*
X95332203Y-46184127D01*
X95310892Y-46254379D01*
X95290244Y-46322331D01*
X95290227Y-46322504D01*
X95290175Y-46322675D01*
X95283061Y-46394909D01*
X95279558Y-46430306D01*
X95279558Y-46430473D01*
X95275984Y-46466760D01*
X95279524Y-46502699D01*
X95279287Y-47000528D01*
X93688800Y-47000528D01*
X93564318Y-47012788D01*
X93444620Y-47049098D01*
X93334306Y-47108063D01*
X93237615Y-47187415D01*
X93158263Y-47284106D01*
X93099298Y-47394420D01*
X93062988Y-47514118D01*
X93050728Y-47638600D01*
X93050728Y-49338600D01*
X93062988Y-49463082D01*
X93099298Y-49582780D01*
X93158263Y-49693094D01*
X93237615Y-49789785D01*
X93334306Y-49869137D01*
X93444620Y-49928102D01*
X93517180Y-49950113D01*
X93385325Y-50081968D01*
X93222810Y-50325189D01*
X93110868Y-50595442D01*
X93053800Y-50882340D01*
X93053800Y-51174860D01*
X93110868Y-51461758D01*
X93222810Y-51732011D01*
X93385325Y-51975232D01*
X93592168Y-52182075D01*
X93774334Y-52303795D01*
X93657445Y-52373422D01*
X93441212Y-52568331D01*
X93267159Y-52801680D01*
X93141975Y-53064501D01*
X93097324Y-53211710D01*
X93218645Y-53441600D01*
X94411800Y-53441600D01*
X94411800Y-53421600D01*
X94665800Y-53421600D01*
X94665800Y-53441600D01*
X95858955Y-53441600D01*
X95980276Y-53211710D01*
X95935625Y-53064501D01*
X95810441Y-52801680D01*
X95636388Y-52568331D01*
X95420155Y-52373422D01*
X95303266Y-52303795D01*
X95405457Y-52235512D01*
X95445171Y-52283903D01*
X95489515Y-52337989D01*
X95489646Y-52338097D01*
X95489762Y-52338238D01*
X95546987Y-52385202D01*
X95601389Y-52429892D01*
X95601542Y-52429974D01*
X95601680Y-52430087D01*
X95666715Y-52464849D01*
X95729044Y-52498202D01*
X95729207Y-52498252D01*
X95729367Y-52498337D01*
X95800203Y-52519825D01*
X95867572Y-52540296D01*
X95867743Y-52540313D01*
X95867915Y-52540365D01*
X95941440Y-52547607D01*
X96011650Y-52554555D01*
X96047923Y-52551000D01*
X96872100Y-52551000D01*
X96870999Y-91654084D01*
X96871001Y-91654104D01*
X96871000Y-92483000D01*
X85341000Y-92483000D01*
X85341000Y-91618131D01*
X85341466Y-90987527D01*
X85478645Y-91111178D01*
X85728748Y-91260157D01*
X86003109Y-91357481D01*
X86233000Y-91236814D01*
X86233000Y-90043000D01*
X86487000Y-90043000D01*
X86487000Y-91236814D01*
X86716891Y-91357481D01*
X86991252Y-91260157D01*
X87241355Y-91111178D01*
X87457588Y-90916269D01*
X87631641Y-90682920D01*
X87756825Y-90420099D01*
X87801476Y-90272890D01*
X87680155Y-90043000D01*
X86487000Y-90043000D01*
X86233000Y-90043000D01*
X86213000Y-90043000D01*
X86213000Y-89789000D01*
X86233000Y-89789000D01*
X86233000Y-89769000D01*
X86487000Y-89769000D01*
X86487000Y-89789000D01*
X87680155Y-89789000D01*
X87801476Y-89559110D01*
X87756825Y-89411901D01*
X87631641Y-89149080D01*
X87457588Y-88915731D01*
X87241355Y-88720822D01*
X87124466Y-88651195D01*
X87306632Y-88529475D01*
X87513475Y-88322632D01*
X87675990Y-88079411D01*
X87787932Y-87809158D01*
X87845000Y-87522260D01*
X87845000Y-87229740D01*
X87787932Y-86942842D01*
X87675990Y-86672589D01*
X87513475Y-86429368D01*
X87306632Y-86222525D01*
X87132240Y-86106000D01*
X87306632Y-85989475D01*
X87513475Y-85782632D01*
X87675990Y-85539411D01*
X87787932Y-85269158D01*
X87845000Y-84982260D01*
X87845000Y-84689740D01*
X87787932Y-84402842D01*
X87675990Y-84132589D01*
X87513475Y-83889368D01*
X87306632Y-83682525D01*
X87132240Y-83566000D01*
X87306632Y-83449475D01*
X87513475Y-83242632D01*
X87675990Y-82999411D01*
X87787932Y-82729158D01*
X87845000Y-82442260D01*
X87845000Y-82149740D01*
X87787932Y-81862842D01*
X87675990Y-81592589D01*
X87513475Y-81349368D01*
X87306632Y-81142525D01*
X87132240Y-81026000D01*
X87306632Y-80909475D01*
X87513475Y-80702632D01*
X87675990Y-80459411D01*
X87787932Y-80189158D01*
X87845000Y-79902260D01*
X87845000Y-79609740D01*
X87787932Y-79322842D01*
X87675990Y-79052589D01*
X87513475Y-78809368D01*
X87306632Y-78602525D01*
X87132240Y-78486000D01*
X87306632Y-78369475D01*
X87513475Y-78162632D01*
X87675990Y-77919411D01*
X87787932Y-77649158D01*
X87845000Y-77362260D01*
X87845000Y-77069740D01*
X87787932Y-76782842D01*
X87675990Y-76512589D01*
X87513475Y-76269368D01*
X87306632Y-76062525D01*
X87132240Y-75946000D01*
X87306632Y-75829475D01*
X87513475Y-75622632D01*
X87675990Y-75379411D01*
X87787932Y-75109158D01*
X87845000Y-74822260D01*
X87845000Y-74529740D01*
X87787932Y-74242842D01*
X87675990Y-73972589D01*
X87513475Y-73729368D01*
X87306632Y-73522525D01*
X87132240Y-73406000D01*
X87306632Y-73289475D01*
X87513475Y-73082632D01*
X87675990Y-72839411D01*
X87787932Y-72569158D01*
X87845000Y-72282260D01*
X87845000Y-71989740D01*
X87787932Y-71702842D01*
X87675990Y-71432589D01*
X87513475Y-71189368D01*
X87306632Y-70982525D01*
X87132240Y-70866000D01*
X87306632Y-70749475D01*
X87513475Y-70542632D01*
X87675990Y-70299411D01*
X87787932Y-70029158D01*
X87845000Y-69742260D01*
X87845000Y-69449740D01*
X87787932Y-69162842D01*
X87675990Y-68892589D01*
X87513475Y-68649368D01*
X87381620Y-68517513D01*
X87454180Y-68495502D01*
X87564494Y-68436537D01*
X87661185Y-68357185D01*
X87740537Y-68260494D01*
X87799502Y-68150180D01*
X87835812Y-68030482D01*
X87848072Y-67906000D01*
X87848072Y-66206000D01*
X87835812Y-66081518D01*
X87799502Y-65961820D01*
X87740537Y-65851506D01*
X87661185Y-65754815D01*
X87564494Y-65675463D01*
X87454180Y-65616498D01*
X87334482Y-65580188D01*
X87210000Y-65567928D01*
X85510000Y-65567928D01*
X85385518Y-65580188D01*
X85360246Y-65587854D01*
X85367256Y-56107000D01*
X86962709Y-56107000D01*
X86977225Y-56109293D01*
X87034977Y-56107000D01*
X87056505Y-56107000D01*
X87071045Y-56105568D01*
X87121894Y-56103549D01*
X87142941Y-56098487D01*
X87164485Y-56096365D01*
X87213185Y-56081592D01*
X87262662Y-56069692D01*
X87282317Y-56060621D01*
X87303033Y-56054337D01*
X87347916Y-56030346D01*
X87394120Y-56009023D01*
X87411626Y-55996293D01*
X87430720Y-55986087D01*
X87470066Y-55953797D01*
X87511216Y-55923873D01*
X87525901Y-55907974D01*
X87542638Y-55894238D01*
X87574928Y-55854893D01*
X87609450Y-55817516D01*
X87620751Y-55799057D01*
X87634487Y-55782320D01*
X87658480Y-55737432D01*
X87685048Y-55694037D01*
X87692531Y-55673726D01*
X87702737Y-55654633D01*
X87717511Y-55605928D01*
X87735103Y-55558183D01*
X87738480Y-55536803D01*
X87744765Y-55516085D01*
X87749753Y-55465437D01*
X87757693Y-55415174D01*
X87756834Y-55393543D01*
X87758956Y-55372000D01*
X87753968Y-55321355D01*
X87751949Y-55270505D01*
X87746887Y-55249457D01*
X87744765Y-55227915D01*
X87729993Y-55179219D01*
X87718092Y-55129737D01*
X87709021Y-55110081D01*
X87702737Y-55089367D01*
X87678746Y-55044483D01*
X87672625Y-55031220D01*
X87661735Y-55012657D01*
X87634487Y-54961680D01*
X87625163Y-54950318D01*
X85426537Y-51202662D01*
X85399287Y-51151680D01*
X85366996Y-51112334D01*
X85337073Y-51071184D01*
X85321174Y-51056499D01*
X85307438Y-51039762D01*
X85268093Y-51007472D01*
X85230716Y-50972950D01*
X85212257Y-50961649D01*
X85195520Y-50947913D01*
X85150632Y-50923920D01*
X85107237Y-50897352D01*
X85086926Y-50889869D01*
X85067833Y-50879663D01*
X85019128Y-50864889D01*
X84971383Y-50847297D01*
X84950003Y-50843920D01*
X84929285Y-50837635D01*
X84878637Y-50832647D01*
X84828374Y-50824707D01*
X84770623Y-50827000D01*
X82001905Y-50827000D01*
X81965800Y-50823444D01*
X81929695Y-50827000D01*
X81821715Y-50837635D01*
X81683167Y-50879663D01*
X81555480Y-50947913D01*
X81443562Y-51039762D01*
X81351713Y-51151680D01*
X81283463Y-51279367D01*
X81241435Y-51417915D01*
X81227244Y-51562000D01*
X81230800Y-51598105D01*
X81230801Y-52478000D01*
X39012800Y-52478000D01*
X39012800Y-51598105D01*
X39016356Y-51562000D01*
X39002165Y-51417915D01*
X38960137Y-51279367D01*
X38891887Y-51151680D01*
X38800038Y-51039762D01*
X38688120Y-50947913D01*
X38560433Y-50879663D01*
X38421885Y-50837635D01*
X38313905Y-50827000D01*
X38277800Y-50823444D01*
X38241695Y-50827000D01*
X35472977Y-50827000D01*
X35415225Y-50824707D01*
X35364960Y-50832647D01*
X35314315Y-50837635D01*
X35293598Y-50843919D01*
X35272216Y-50847297D01*
X35224466Y-50864890D01*
X35175767Y-50879663D01*
X35156676Y-50889867D01*
X35136362Y-50897352D01*
X35092960Y-50923924D01*
X35048080Y-50947913D01*
X35031346Y-50961646D01*
X35012883Y-50972950D01*
X34975498Y-51007479D01*
X34936162Y-51039762D01*
X34922429Y-51056495D01*
X34906526Y-51071184D01*
X34876595Y-51112345D01*
X34844313Y-51151680D01*
X34817073Y-51202643D01*
X33366999Y-53674361D01*
X33366999Y-48475140D01*
X33403805Y-48420056D01*
X33481826Y-48231698D01*
X33521600Y-48031739D01*
X33521600Y-47904061D01*
X85223400Y-47904061D01*
X85223400Y-48107939D01*
X85263174Y-48307898D01*
X85341195Y-48496256D01*
X85454463Y-48665774D01*
X85598626Y-48809937D01*
X85768144Y-48923205D01*
X85956502Y-49001226D01*
X86156461Y-49041000D01*
X86360339Y-49041000D01*
X86560298Y-49001226D01*
X86748656Y-48923205D01*
X86796854Y-48891000D01*
X90463822Y-48891000D01*
X90707400Y-49134579D01*
X90707401Y-69806521D01*
X90703119Y-69850000D01*
X90720205Y-70023490D01*
X90770812Y-70190313D01*
X90852990Y-70344059D01*
X90935868Y-70445046D01*
X90935871Y-70445049D01*
X90963584Y-70478817D01*
X90997351Y-70506529D01*
X92434470Y-71943649D01*
X92462183Y-71977417D01*
X92495951Y-72005130D01*
X92495953Y-72005132D01*
X92553075Y-72052011D01*
X92596941Y-72088011D01*
X92750687Y-72170189D01*
X92917510Y-72220795D01*
X93047523Y-72233600D01*
X93047533Y-72233600D01*
X93090999Y-72237881D01*
X93134465Y-72233600D01*
X93344144Y-72233600D01*
X93385325Y-72295232D01*
X93592168Y-72502075D01*
X93835389Y-72664590D01*
X94105642Y-72776532D01*
X94392540Y-72833600D01*
X94685060Y-72833600D01*
X94971958Y-72776532D01*
X95242211Y-72664590D01*
X95485432Y-72502075D01*
X95692275Y-72295232D01*
X95854790Y-72052011D01*
X95966732Y-71781758D01*
X96023800Y-71494860D01*
X96023800Y-71202340D01*
X95966732Y-70915442D01*
X95854790Y-70645189D01*
X95692275Y-70401968D01*
X95485432Y-70195125D01*
X95311040Y-70078600D01*
X95485432Y-69962075D01*
X95692275Y-69755232D01*
X95854790Y-69512011D01*
X95966732Y-69241758D01*
X96023800Y-68954860D01*
X96023800Y-68662340D01*
X95966732Y-68375442D01*
X95854790Y-68105189D01*
X95692275Y-67861968D01*
X95485432Y-67655125D01*
X95303266Y-67533405D01*
X95420155Y-67463778D01*
X95636388Y-67268869D01*
X95810441Y-67035520D01*
X95935625Y-66772699D01*
X95980276Y-66625490D01*
X95858955Y-66395600D01*
X94665800Y-66395600D01*
X94665800Y-66415600D01*
X94411800Y-66415600D01*
X94411800Y-66395600D01*
X93218645Y-66395600D01*
X93097324Y-66625490D01*
X93141975Y-66772699D01*
X93267159Y-67035520D01*
X93441212Y-67268869D01*
X93657445Y-67463778D01*
X93774334Y-67533405D01*
X93592168Y-67655125D01*
X93385325Y-67861968D01*
X93222810Y-68105189D01*
X93110868Y-68375442D01*
X93053800Y-68662340D01*
X93053800Y-68954860D01*
X93110868Y-69241758D01*
X93222810Y-69512011D01*
X93385325Y-69755232D01*
X93592168Y-69962075D01*
X93766560Y-70078600D01*
X93592168Y-70195125D01*
X93390636Y-70396657D01*
X92477400Y-69483422D01*
X92477400Y-55962340D01*
X93053800Y-55962340D01*
X93053800Y-56254860D01*
X93110868Y-56541758D01*
X93222810Y-56812011D01*
X93385325Y-57055232D01*
X93592168Y-57262075D01*
X93766560Y-57378600D01*
X93592168Y-57495125D01*
X93385325Y-57701968D01*
X93222810Y-57945189D01*
X93110868Y-58215442D01*
X93053800Y-58502340D01*
X93053800Y-58794860D01*
X93110868Y-59081758D01*
X93222810Y-59352011D01*
X93385325Y-59595232D01*
X93592168Y-59802075D01*
X93766560Y-59918600D01*
X93592168Y-60035125D01*
X93385325Y-60241968D01*
X93222810Y-60485189D01*
X93110868Y-60755442D01*
X93053800Y-61042340D01*
X93053800Y-61334860D01*
X93110868Y-61621758D01*
X93222810Y-61892011D01*
X93385325Y-62135232D01*
X93592168Y-62342075D01*
X93766560Y-62458600D01*
X93592168Y-62575125D01*
X93385325Y-62781968D01*
X93222810Y-63025189D01*
X93110868Y-63295442D01*
X93053800Y-63582340D01*
X93053800Y-63874860D01*
X93110868Y-64161758D01*
X93222810Y-64432011D01*
X93385325Y-64675232D01*
X93592168Y-64882075D01*
X93774334Y-65003795D01*
X93657445Y-65073422D01*
X93441212Y-65268331D01*
X93267159Y-65501680D01*
X93141975Y-65764501D01*
X93097324Y-65911710D01*
X93218645Y-66141600D01*
X94411800Y-66141600D01*
X94411800Y-66121600D01*
X94665800Y-66121600D01*
X94665800Y-66141600D01*
X95858955Y-66141600D01*
X95980276Y-65911710D01*
X95935625Y-65764501D01*
X95810441Y-65501680D01*
X95636388Y-65268331D01*
X95420155Y-65073422D01*
X95303266Y-65003795D01*
X95485432Y-64882075D01*
X95692275Y-64675232D01*
X95854790Y-64432011D01*
X95966732Y-64161758D01*
X96023800Y-63874860D01*
X96023800Y-63582340D01*
X95966732Y-63295442D01*
X95854790Y-63025189D01*
X95692275Y-62781968D01*
X95485432Y-62575125D01*
X95311040Y-62458600D01*
X95485432Y-62342075D01*
X95692275Y-62135232D01*
X95854790Y-61892011D01*
X95966732Y-61621758D01*
X96023800Y-61334860D01*
X96023800Y-61042340D01*
X95966732Y-60755442D01*
X95854790Y-60485189D01*
X95692275Y-60241968D01*
X95485432Y-60035125D01*
X95311040Y-59918600D01*
X95485432Y-59802075D01*
X95692275Y-59595232D01*
X95854790Y-59352011D01*
X95966732Y-59081758D01*
X96023800Y-58794860D01*
X96023800Y-58502340D01*
X95966732Y-58215442D01*
X95854790Y-57945189D01*
X95692275Y-57701968D01*
X95485432Y-57495125D01*
X95311040Y-57378600D01*
X95485432Y-57262075D01*
X95692275Y-57055232D01*
X95854790Y-56812011D01*
X95966732Y-56541758D01*
X96023800Y-56254860D01*
X96023800Y-55962340D01*
X95966732Y-55675442D01*
X95854790Y-55405189D01*
X95692275Y-55161968D01*
X95485432Y-54955125D01*
X95303266Y-54833405D01*
X95420155Y-54763778D01*
X95636388Y-54568869D01*
X95810441Y-54335520D01*
X95935625Y-54072699D01*
X95980276Y-53925490D01*
X95858955Y-53695600D01*
X94665800Y-53695600D01*
X94665800Y-53715600D01*
X94411800Y-53715600D01*
X94411800Y-53695600D01*
X93218645Y-53695600D01*
X93097324Y-53925490D01*
X93141975Y-54072699D01*
X93267159Y-54335520D01*
X93441212Y-54568869D01*
X93657445Y-54763778D01*
X93774334Y-54833405D01*
X93592168Y-54955125D01*
X93385325Y-55161968D01*
X93222810Y-55405189D01*
X93110868Y-55675442D01*
X93053800Y-55962340D01*
X92477400Y-55962340D01*
X92477400Y-48811469D01*
X92481681Y-48768000D01*
X92477400Y-48724531D01*
X92477400Y-48724523D01*
X92464595Y-48594510D01*
X92413989Y-48427687D01*
X92331811Y-48273941D01*
X92276045Y-48205990D01*
X92248932Y-48172953D01*
X92248930Y-48172951D01*
X92221217Y-48139183D01*
X92187450Y-48111471D01*
X91486934Y-47410956D01*
X91459217Y-47377183D01*
X91324459Y-47266589D01*
X91170713Y-47184411D01*
X91003890Y-47133805D01*
X90873877Y-47121000D01*
X90873869Y-47121000D01*
X90830400Y-47116719D01*
X90786931Y-47121000D01*
X86796854Y-47121000D01*
X86748656Y-47088795D01*
X86560298Y-47010774D01*
X86360339Y-46971000D01*
X86156461Y-46971000D01*
X85956502Y-47010774D01*
X85768144Y-47088795D01*
X85598626Y-47202063D01*
X85454463Y-47346226D01*
X85341195Y-47515744D01*
X85263174Y-47704102D01*
X85223400Y-47904061D01*
X33521600Y-47904061D01*
X33521600Y-47827861D01*
X33481826Y-47627902D01*
X33403805Y-47439544D01*
X33290537Y-47270026D01*
X33146374Y-47125863D01*
X32976856Y-47012595D01*
X32788498Y-46934574D01*
X32588539Y-46894800D01*
X32384661Y-46894800D01*
X32184702Y-46934574D01*
X31996344Y-47012595D01*
X31826826Y-47125863D01*
X31682663Y-47270026D01*
X31569395Y-47439544D01*
X31491374Y-47627902D01*
X31451600Y-47827861D01*
X31451600Y-48031739D01*
X31491374Y-48231698D01*
X31569395Y-48420056D01*
X31597000Y-48461370D01*
X31596999Y-86032530D01*
X31592718Y-86075999D01*
X31596999Y-86119468D01*
X31596999Y-86119475D01*
X31607148Y-86222525D01*
X31609804Y-86249489D01*
X31625156Y-86300095D01*
X31660410Y-86416311D01*
X31742588Y-86570057D01*
X31853182Y-86704816D01*
X31886955Y-86732533D01*
X32311461Y-87157039D01*
X32297000Y-87229740D01*
X32297000Y-87522260D01*
X32354068Y-87809158D01*
X32466010Y-88079411D01*
X32628525Y-88322632D01*
X32835368Y-88529475D01*
X33017534Y-88651195D01*
X32900645Y-88720822D01*
X32684412Y-88915731D01*
X32510359Y-89149080D01*
X32385175Y-89411901D01*
X32340524Y-89559110D01*
X32461845Y-89789000D01*
X33655000Y-89789000D01*
X33655000Y-89769000D01*
X33909000Y-89769000D01*
X33909000Y-89789000D01*
X33929000Y-89789000D01*
X33929000Y-90043000D01*
X33909000Y-90043000D01*
X33909000Y-91236814D01*
X34138891Y-91357481D01*
X34413252Y-91260157D01*
X34663355Y-91111178D01*
X34871093Y-90923927D01*
X34871006Y-91581840D01*
X34871000Y-91581896D01*
X34871000Y-91623610D01*
X34870996Y-91654007D01*
X34871000Y-91654048D01*
X34871001Y-92483000D01*
X23341000Y-92483000D01*
X23341000Y-90272890D01*
X32340524Y-90272890D01*
X32385175Y-90420099D01*
X32510359Y-90682920D01*
X32684412Y-90916269D01*
X32900645Y-91111178D01*
X33150748Y-91260157D01*
X33425109Y-91357481D01*
X33655000Y-91236814D01*
X33655000Y-90043000D01*
X32461845Y-90043000D01*
X32340524Y-90272890D01*
X23341000Y-90272890D01*
X23341000Y-52353000D01*
X24169895Y-52353000D01*
X24206000Y-52356556D01*
X24242105Y-52353000D01*
X24350085Y-52342365D01*
X24488633Y-52300337D01*
X24616320Y-52232087D01*
X24679296Y-52180403D01*
X24707368Y-52208475D01*
X24889534Y-52330195D01*
X24772645Y-52399822D01*
X24556412Y-52594731D01*
X24382359Y-52828080D01*
X24257175Y-53090901D01*
X24212524Y-53238110D01*
X24333845Y-53468000D01*
X25527000Y-53468000D01*
X25527000Y-53448000D01*
X25781000Y-53448000D01*
X25781000Y-53468000D01*
X25801000Y-53468000D01*
X25801000Y-53722000D01*
X25781000Y-53722000D01*
X25781000Y-53742000D01*
X25527000Y-53742000D01*
X25527000Y-53722000D01*
X24333845Y-53722000D01*
X24212524Y-53951890D01*
X24257175Y-54099099D01*
X24382359Y-54361920D01*
X24556412Y-54595269D01*
X24772645Y-54790178D01*
X24889534Y-54859805D01*
X24707368Y-54981525D01*
X24500525Y-55188368D01*
X24338010Y-55431589D01*
X24226068Y-55701842D01*
X24169000Y-55988740D01*
X24169000Y-56281260D01*
X24226068Y-56568158D01*
X24338010Y-56838411D01*
X24500525Y-57081632D01*
X24707368Y-57288475D01*
X24881760Y-57405000D01*
X24707368Y-57521525D01*
X24500525Y-57728368D01*
X24338010Y-57971589D01*
X24226068Y-58241842D01*
X24169000Y-58528740D01*
X24169000Y-58821260D01*
X24226068Y-59108158D01*
X24338010Y-59378411D01*
X24500525Y-59621632D01*
X24707368Y-59828475D01*
X24881760Y-59945000D01*
X24707368Y-60061525D01*
X24500525Y-60268368D01*
X24338010Y-60511589D01*
X24226068Y-60781842D01*
X24169000Y-61068740D01*
X24169000Y-61361260D01*
X24226068Y-61648158D01*
X24338010Y-61918411D01*
X24500525Y-62161632D01*
X24707368Y-62368475D01*
X24881760Y-62485000D01*
X24707368Y-62601525D01*
X24500525Y-62808368D01*
X24338010Y-63051589D01*
X24226068Y-63321842D01*
X24169000Y-63608740D01*
X24169000Y-63901260D01*
X24226068Y-64188158D01*
X24338010Y-64458411D01*
X24500525Y-64701632D01*
X24707368Y-64908475D01*
X24889534Y-65030195D01*
X24772645Y-65099822D01*
X24556412Y-65294731D01*
X24382359Y-65528080D01*
X24257175Y-65790901D01*
X24212524Y-65938110D01*
X24333845Y-66168000D01*
X25527000Y-66168000D01*
X25527000Y-66148000D01*
X25781000Y-66148000D01*
X25781000Y-66168000D01*
X25801000Y-66168000D01*
X25801000Y-66422000D01*
X25781000Y-66422000D01*
X25781000Y-66442000D01*
X25527000Y-66442000D01*
X25527000Y-66422000D01*
X24333845Y-66422000D01*
X24212524Y-66651890D01*
X24257175Y-66799099D01*
X24382359Y-67061920D01*
X24556412Y-67295269D01*
X24772645Y-67490178D01*
X24889534Y-67559805D01*
X24707368Y-67681525D01*
X24500525Y-67888368D01*
X24338010Y-68131589D01*
X24226068Y-68401842D01*
X24169000Y-68688740D01*
X24169000Y-68981260D01*
X24226068Y-69268158D01*
X24338010Y-69538411D01*
X24500525Y-69781632D01*
X24632380Y-69913487D01*
X24559820Y-69935498D01*
X24449506Y-69994463D01*
X24352815Y-70073815D01*
X24273463Y-70170506D01*
X24214498Y-70280820D01*
X24178188Y-70400518D01*
X24165928Y-70525000D01*
X24165928Y-72225000D01*
X24178188Y-72349482D01*
X24214498Y-72469180D01*
X24273463Y-72579494D01*
X24352815Y-72676185D01*
X24449506Y-72755537D01*
X24559820Y-72814502D01*
X24679518Y-72850812D01*
X24804000Y-72863072D01*
X26504000Y-72863072D01*
X26628482Y-72850812D01*
X26748180Y-72814502D01*
X26858494Y-72755537D01*
X26955185Y-72676185D01*
X27034537Y-72579494D01*
X27093502Y-72469180D01*
X27129812Y-72349482D01*
X27142072Y-72225000D01*
X27142072Y-71467706D01*
X28044350Y-70565429D01*
X28078118Y-70537716D01*
X28188712Y-70402958D01*
X28270890Y-70249212D01*
X28321496Y-70082389D01*
X28334301Y-69952376D01*
X28334301Y-69952366D01*
X28338582Y-69908900D01*
X28334301Y-69865433D01*
X28334301Y-68725440D01*
X28744360Y-68315382D01*
X28778128Y-68287669D01*
X28816352Y-68241094D01*
X28888722Y-68152911D01*
X28970900Y-67999166D01*
X29021506Y-67832342D01*
X29031581Y-67730045D01*
X29034311Y-67702329D01*
X29034311Y-67702321D01*
X29038592Y-67658852D01*
X29034311Y-67615383D01*
X29034311Y-48713200D01*
X29598743Y-48713200D01*
X29642212Y-48717481D01*
X29685681Y-48713200D01*
X29685689Y-48713200D01*
X29815702Y-48700395D01*
X29982525Y-48649789D01*
X30136271Y-48567611D01*
X30271029Y-48457017D01*
X30298746Y-48423244D01*
X30681055Y-48040935D01*
X30714828Y-48013218D01*
X30825422Y-47878460D01*
X30890712Y-47756310D01*
X30907600Y-47724715D01*
X30958206Y-47557891D01*
X30962517Y-47514118D01*
X30971011Y-47427878D01*
X30971011Y-47427870D01*
X30975292Y-47384401D01*
X30971011Y-47340932D01*
X30971011Y-46611868D01*
X30975292Y-46568399D01*
X30971011Y-46524930D01*
X30971011Y-46524922D01*
X30958206Y-46394909D01*
X30907600Y-46228086D01*
X30841900Y-46105169D01*
X30841900Y-46024461D01*
X30802126Y-45824502D01*
X30724105Y-45636144D01*
X30610837Y-45466626D01*
X30466674Y-45322463D01*
X30297156Y-45209195D01*
X30108798Y-45131174D01*
X29908839Y-45091400D01*
X29704961Y-45091400D01*
X29505002Y-45131174D01*
X29316644Y-45209195D01*
X29147126Y-45322463D01*
X29002963Y-45466626D01*
X28889695Y-45636144D01*
X28811674Y-45824502D01*
X28788420Y-45941410D01*
X27673661Y-45941410D01*
X27630192Y-45937129D01*
X27586723Y-45941410D01*
X27586715Y-45941410D01*
X27456702Y-45954215D01*
X27289879Y-46004821D01*
X27136133Y-46086999D01*
X27001375Y-46197593D01*
X26973658Y-46231366D01*
X26854253Y-46350771D01*
X26820485Y-46378484D01*
X26792772Y-46412252D01*
X26792769Y-46412255D01*
X26709891Y-46513242D01*
X26627713Y-46666988D01*
X26577106Y-46833811D01*
X26560020Y-47007301D01*
X26564302Y-47050780D01*
X26564302Y-47337250D01*
X26357411Y-47199010D01*
X26087158Y-47087068D01*
X25800260Y-47030000D01*
X25507740Y-47030000D01*
X25220842Y-47087068D01*
X24950589Y-47199010D01*
X24941000Y-47205417D01*
X24941000Y-46654105D01*
X24944556Y-46618000D01*
X24930365Y-46473915D01*
X24888337Y-46335367D01*
X24820087Y-46207680D01*
X24728238Y-46095762D01*
X24616320Y-46003913D01*
X24488633Y-45935663D01*
X24350085Y-45893635D01*
X24242105Y-45883000D01*
X24206000Y-45879444D01*
X24169895Y-45883000D01*
X22910453Y-45883000D01*
X22513931Y-45486468D01*
X24850135Y-43149020D01*
X25670884Y-43705957D01*
X25701050Y-43730700D01*
X25762464Y-43763504D01*
X25823695Y-43796798D01*
X25826329Y-43797618D01*
X25828756Y-43798914D01*
X25895327Y-43819088D01*
X25961939Y-43839816D01*
X25964683Y-43840106D01*
X25967316Y-43840904D01*
X26036607Y-43847710D01*
X26105919Y-43855037D01*
X26108662Y-43854787D01*
X26111404Y-43855056D01*
X26180777Y-43848204D01*
X26250102Y-43841876D01*
X26252741Y-43841096D01*
X26255485Y-43840825D01*
X26322154Y-43820581D01*
X26388947Y-43800840D01*
X26391387Y-43799558D01*
X26394022Y-43798758D01*
X26455415Y-43765921D01*
X26517118Y-43733505D01*
X26519261Y-43731771D01*
X26521689Y-43730473D01*
X26575471Y-43686310D01*
X26629690Y-43642459D01*
X26654660Y-43612473D01*
X27060661Y-43206247D01*
X27070868Y-43257558D01*
X27182810Y-43527811D01*
X27345325Y-43771032D01*
X27552168Y-43977875D01*
X27795389Y-44140390D01*
X28065642Y-44252332D01*
X28352540Y-44309400D01*
X28645060Y-44309400D01*
X28931958Y-44252332D01*
X29202211Y-44140390D01*
X29445432Y-43977875D01*
X29652275Y-43771032D01*
X29814790Y-43527811D01*
X29926732Y-43257558D01*
X29983800Y-42970660D01*
X29983800Y-42678140D01*
X29942882Y-42472431D01*
X30148591Y-42513349D01*
X30441111Y-42513349D01*
X30728009Y-42456281D01*
X30998262Y-42344339D01*
X31241483Y-42181824D01*
X31448326Y-41974981D01*
X31610841Y-41731760D01*
X31722783Y-41461507D01*
X31779851Y-41174609D01*
X31779851Y-40882089D01*
X31737109Y-40667210D01*
X31868996Y-40700629D01*
X32159717Y-40715707D01*
X32447794Y-40673778D01*
X32722155Y-40576454D01*
X32857820Y-40503935D01*
X32934590Y-40255591D01*
X32090902Y-39411903D01*
X32076760Y-39426046D01*
X31897155Y-39246441D01*
X31911297Y-39232298D01*
X31897155Y-39218156D01*
X32076760Y-39038551D01*
X32090902Y-39052693D01*
X32105045Y-39038551D01*
X32284650Y-39218156D01*
X32270507Y-39232298D01*
X33114195Y-40075986D01*
X33362539Y-39999216D01*
X33435058Y-39863551D01*
X33532382Y-39589190D01*
X33574311Y-39301113D01*
X33559233Y-39010392D01*
X33525813Y-38878503D01*
X33740694Y-38921246D01*
X34033214Y-38921246D01*
X34320112Y-38864178D01*
X34590365Y-38752236D01*
X34833586Y-38589721D01*
X35040429Y-38382878D01*
X35202944Y-38139657D01*
X35314886Y-37869404D01*
X35371954Y-37582506D01*
X35371954Y-37289986D01*
X35331036Y-37084277D01*
X35536745Y-37125195D01*
X35829265Y-37125195D01*
X36116163Y-37068127D01*
X36386416Y-36956185D01*
X36629637Y-36793670D01*
X36836480Y-36586827D01*
X36998995Y-36343606D01*
X37110937Y-36073353D01*
X37168005Y-35786455D01*
X37168005Y-35493935D01*
X37127087Y-35288226D01*
X37332796Y-35329144D01*
X37625316Y-35329144D01*
X37912214Y-35272076D01*
X38182467Y-35160134D01*
X38425688Y-34997619D01*
X38632531Y-34790776D01*
X38795046Y-34547555D01*
X38906988Y-34277302D01*
X38964056Y-33990404D01*
X38964056Y-33697884D01*
X38923138Y-33492175D01*
X39128847Y-33533093D01*
X39421367Y-33533093D01*
X39708265Y-33476025D01*
X39978518Y-33364083D01*
X40221739Y-33201568D01*
X40428582Y-32994725D01*
X40591097Y-32751504D01*
X40703039Y-32481251D01*
X40760107Y-32194353D01*
X40760107Y-31901833D01*
X40717364Y-31686952D01*
X40849253Y-31720372D01*
X41139974Y-31735450D01*
X41428051Y-31693521D01*
X41702412Y-31596197D01*
X41838077Y-31523678D01*
X41914847Y-31275334D01*
X41071159Y-30431646D01*
X41057017Y-30445789D01*
X40877412Y-30266184D01*
X40891554Y-30252041D01*
X40877412Y-30237899D01*
X41057017Y-30058294D01*
X41071159Y-30072436D01*
X41085302Y-30058294D01*
X41264907Y-30237899D01*
X41250764Y-30252041D01*
X42094452Y-31095729D01*
X42342796Y-31018959D01*
X42415315Y-30883294D01*
X42512639Y-30608933D01*
X42554568Y-30320856D01*
X42539490Y-30030135D01*
X42506071Y-29898248D01*
X42720950Y-29940990D01*
X43013470Y-29940990D01*
X43300368Y-29883922D01*
X43570621Y-29771980D01*
X43813842Y-29609465D01*
X44020685Y-29402622D01*
X44183200Y-29159401D01*
X44295142Y-28889148D01*
X44352210Y-28602250D01*
X44352210Y-28415779D01*
X44419081Y-28451523D01*
X44538779Y-28487833D01*
X44663261Y-28500093D01*
X44787743Y-28487833D01*
X44907441Y-28451523D01*
X45017755Y-28392558D01*
X45114446Y-28313206D01*
X46316528Y-27111124D01*
X46395880Y-27014433D01*
X46454845Y-26904119D01*
X46491155Y-26784421D01*
X46503415Y-26659939D01*
X46491155Y-26535457D01*
X46454845Y-26415759D01*
X46395880Y-26305445D01*
X46316528Y-26208754D01*
X45182327Y-25074553D01*
X49559188Y-20695271D01*
X49591896Y-20667401D01*
X49632597Y-20615894D01*
X49674300Y-20565051D01*
X49677483Y-20559093D01*
X49681661Y-20553805D01*
X49711537Y-20495339D01*
X49742514Y-20437345D01*
X49744471Y-20430887D01*
X49747541Y-20424879D01*
X49765453Y-20361651D01*
X49784504Y-20298785D01*
X49785163Y-20292074D01*
X49787003Y-20285579D01*
X49792238Y-20220040D01*
X49798655Y-20154696D01*
X49797992Y-20147987D01*
X49798530Y-20141256D01*
X49790881Y-20075982D01*
X49784425Y-20010615D01*
X49782464Y-20004158D01*
X49781679Y-19997457D01*
X49761443Y-19934931D01*
X49742358Y-19872078D01*
X49739178Y-19866132D01*
X49737099Y-19859709D01*
X49705045Y-19802318D01*
X49674073Y-19744411D01*
X49646802Y-19711200D01*
X49087708Y-18907024D01*
X51778608Y-16221600D01*
X68435435Y-16221600D01*
X71127929Y-18883212D01*
%TA.AperFunction,Conductor*%
D16*
G36*
X71127929Y-18883212D02*
G01*
X70559094Y-19698032D01*
X70531314Y-19731881D01*
X70500728Y-19789103D01*
X70468974Y-19845701D01*
X70466630Y-19852895D01*
X70463064Y-19859567D01*
X70444224Y-19921674D01*
X70424127Y-19983362D01*
X70423232Y-19990872D01*
X70421035Y-19998115D01*
X70414673Y-20062714D01*
X70406998Y-20127128D01*
X70407586Y-20134670D01*
X70406844Y-20142200D01*
X70413206Y-20206800D01*
X70418246Y-20271471D01*
X70420293Y-20278751D01*
X70421035Y-20286285D01*
X70439873Y-20348384D01*
X70457437Y-20410848D01*
X70460868Y-20417595D01*
X70463064Y-20424833D01*
X70493649Y-20482053D01*
X70523068Y-20539901D01*
X70527747Y-20545846D01*
X70531314Y-20552519D01*
X70572475Y-20602674D01*
X70612613Y-20653671D01*
X70645893Y-20682139D01*
X75087890Y-25124136D01*
X73977872Y-26234154D01*
X73898520Y-26330845D01*
X73839555Y-26441159D01*
X73803245Y-26560857D01*
X73790985Y-26685339D01*
X73803245Y-26809821D01*
X73839555Y-26929519D01*
X73898520Y-27039833D01*
X73977872Y-27136524D01*
X75179954Y-28338606D01*
X75276645Y-28417958D01*
X75386959Y-28476923D01*
X75506657Y-28513233D01*
X75631139Y-28525493D01*
X75755621Y-28513233D01*
X75875319Y-28476923D01*
X75942190Y-28441179D01*
X75942190Y-28627650D01*
X75999258Y-28914548D01*
X76111200Y-29184801D01*
X76273715Y-29428022D01*
X76480558Y-29634865D01*
X76723779Y-29797380D01*
X76994032Y-29909322D01*
X77280930Y-29966390D01*
X77573450Y-29966390D01*
X77788329Y-29923648D01*
X77754910Y-30055535D01*
X77739832Y-30346256D01*
X77781761Y-30634333D01*
X77879085Y-30908694D01*
X77951604Y-31044359D01*
X78199948Y-31121129D01*
X79043636Y-30277441D01*
X79029494Y-30263299D01*
X79209099Y-30083694D01*
X79223241Y-30097836D01*
X79237384Y-30083694D01*
X79416989Y-30263299D01*
X79402846Y-30277441D01*
X79416989Y-30291584D01*
X79237384Y-30471189D01*
X79223241Y-30457046D01*
X78379553Y-31300734D01*
X78456323Y-31549078D01*
X78591988Y-31621597D01*
X78866349Y-31718921D01*
X79154426Y-31760850D01*
X79445147Y-31745772D01*
X79577036Y-31712352D01*
X79534293Y-31927233D01*
X79534293Y-32219753D01*
X79591361Y-32506651D01*
X79703303Y-32776904D01*
X79865818Y-33020125D01*
X80072661Y-33226968D01*
X80315882Y-33389483D01*
X80586135Y-33501425D01*
X80873033Y-33558493D01*
X81165553Y-33558493D01*
X81371262Y-33517575D01*
X81330344Y-33723284D01*
X81330344Y-34015804D01*
X81387412Y-34302702D01*
X81499354Y-34572955D01*
X81661869Y-34816176D01*
X81868712Y-35023019D01*
X82111933Y-35185534D01*
X82382186Y-35297476D01*
X82669084Y-35354544D01*
X82961604Y-35354544D01*
X83167313Y-35313626D01*
X83126395Y-35519335D01*
X83126395Y-35811855D01*
X83183463Y-36098753D01*
X83295405Y-36369006D01*
X83457920Y-36612227D01*
X83664763Y-36819070D01*
X83907984Y-36981585D01*
X84178237Y-37093527D01*
X84465135Y-37150595D01*
X84757655Y-37150595D01*
X84963364Y-37109677D01*
X84922446Y-37315386D01*
X84922446Y-37607906D01*
X84979514Y-37894804D01*
X85091456Y-38165057D01*
X85253971Y-38408278D01*
X85460814Y-38615121D01*
X85704035Y-38777636D01*
X85974288Y-38889578D01*
X86261186Y-38946646D01*
X86553706Y-38946646D01*
X86768587Y-38903903D01*
X86735167Y-39035792D01*
X86720089Y-39326513D01*
X86762018Y-39614590D01*
X86859342Y-39888951D01*
X86931861Y-40024616D01*
X87180205Y-40101386D01*
X88023893Y-39257698D01*
X88009751Y-39243556D01*
X88189356Y-39063951D01*
X88203498Y-39078093D01*
X88217641Y-39063951D01*
X88397246Y-39243556D01*
X88383103Y-39257698D01*
X88397246Y-39271841D01*
X88217641Y-39451446D01*
X88203498Y-39437303D01*
X87359810Y-40280991D01*
X87436580Y-40529335D01*
X87572245Y-40601854D01*
X87846606Y-40699178D01*
X88134683Y-40741107D01*
X88425404Y-40726029D01*
X88557291Y-40692610D01*
X88514549Y-40907489D01*
X88514549Y-41200009D01*
X88571617Y-41486907D01*
X88683559Y-41757160D01*
X88846074Y-42000381D01*
X89052917Y-42207224D01*
X89296138Y-42369739D01*
X89566391Y-42481681D01*
X89853289Y-42538749D01*
X90145809Y-42538749D01*
X90351518Y-42497831D01*
X90310600Y-42703540D01*
X90310600Y-42996060D01*
X90367668Y-43282958D01*
X90479610Y-43553211D01*
X90642125Y-43796432D01*
X90848968Y-44003275D01*
X91092189Y-44165790D01*
X91362442Y-44277732D01*
X91649340Y-44334800D01*
X91941860Y-44334800D01*
X92228758Y-44277732D01*
X92499011Y-44165790D01*
X92742232Y-44003275D01*
X92949075Y-43796432D01*
X93111590Y-43553211D01*
X93223532Y-43282958D01*
X93227378Y-43263625D01*
X93540649Y-43576896D01*
X93568048Y-43609181D01*
X93619976Y-43650382D01*
X93671279Y-43692486D01*
X93676677Y-43695371D01*
X93681466Y-43699171D01*
X93740456Y-43729462D01*
X93798966Y-43760736D01*
X93804819Y-43762511D01*
X93810261Y-43765306D01*
X93874031Y-43783507D01*
X93937514Y-43802765D01*
X93943604Y-43803365D01*
X93949484Y-43805043D01*
X94015598Y-43810455D01*
X94081599Y-43816955D01*
X94087683Y-43816356D01*
X94093782Y-43816855D01*
X94159669Y-43809266D01*
X94225684Y-43802765D01*
X94231540Y-43800989D01*
X94237614Y-43800289D01*
X94300750Y-43779994D01*
X94364233Y-43760736D01*
X94369627Y-43757853D01*
X94375450Y-43755981D01*
X94433441Y-43723743D01*
X94491919Y-43692486D01*
X94524652Y-43665623D01*
X95317379Y-43116812D01*
X97696240Y-45486827D01*
X97450608Y-45731760D01*
X96050819Y-45731760D01*
X96014890Y-45728204D01*
X95978610Y-45731760D01*
X95978435Y-45731760D01*
X95942476Y-45735302D01*
X95870799Y-45742327D01*
X95870632Y-45742378D01*
X95870455Y-45742395D01*
X95800609Y-45763582D01*
X95732232Y-45784289D01*
X95732078Y-45784371D01*
X95731907Y-45784423D01*
X95667728Y-45818727D01*
X95604512Y-45852478D01*
X95604376Y-45852590D01*
X95604220Y-45852673D01*
X95547905Y-45898890D01*
X95492551Y-45944274D01*
X95492441Y-45944408D01*
X95492302Y-45944522D01*
X95445749Y-46001247D01*
X95400648Y-46056149D01*
X95400566Y-46056302D01*
X95400453Y-46056440D01*
X95365932Y-46121025D01*
X95332338Y-46183803D01*
X95332288Y-46183969D01*
X95332203Y-46184127D01*
X95310892Y-46254379D01*
X95290244Y-46322331D01*
X95290227Y-46322504D01*
X95290175Y-46322675D01*
X95283061Y-46394909D01*
X95279558Y-46430306D01*
X95279558Y-46430473D01*
X95275984Y-46466760D01*
X95279524Y-46502699D01*
X95279287Y-47000528D01*
X93688800Y-47000528D01*
X93564318Y-47012788D01*
X93444620Y-47049098D01*
X93334306Y-47108063D01*
X93237615Y-47187415D01*
X93158263Y-47284106D01*
X93099298Y-47394420D01*
X93062988Y-47514118D01*
X93050728Y-47638600D01*
X93050728Y-49338600D01*
X93062988Y-49463082D01*
X93099298Y-49582780D01*
X93158263Y-49693094D01*
X93237615Y-49789785D01*
X93334306Y-49869137D01*
X93444620Y-49928102D01*
X93517180Y-49950113D01*
X93385325Y-50081968D01*
X93222810Y-50325189D01*
X93110868Y-50595442D01*
X93053800Y-50882340D01*
X93053800Y-51174860D01*
X93110868Y-51461758D01*
X93222810Y-51732011D01*
X93385325Y-51975232D01*
X93592168Y-52182075D01*
X93774334Y-52303795D01*
X93657445Y-52373422D01*
X93441212Y-52568331D01*
X93267159Y-52801680D01*
X93141975Y-53064501D01*
X93097324Y-53211710D01*
X93218645Y-53441600D01*
X94411800Y-53441600D01*
X94411800Y-53421600D01*
X94665800Y-53421600D01*
X94665800Y-53441600D01*
X95858955Y-53441600D01*
X95980276Y-53211710D01*
X95935625Y-53064501D01*
X95810441Y-52801680D01*
X95636388Y-52568331D01*
X95420155Y-52373422D01*
X95303266Y-52303795D01*
X95405457Y-52235512D01*
X95445171Y-52283903D01*
X95489515Y-52337989D01*
X95489646Y-52338097D01*
X95489762Y-52338238D01*
X95546987Y-52385202D01*
X95601389Y-52429892D01*
X95601542Y-52429974D01*
X95601680Y-52430087D01*
X95666715Y-52464849D01*
X95729044Y-52498202D01*
X95729207Y-52498252D01*
X95729367Y-52498337D01*
X95800203Y-52519825D01*
X95867572Y-52540296D01*
X95867743Y-52540313D01*
X95867915Y-52540365D01*
X95941440Y-52547607D01*
X96011650Y-52554555D01*
X96047923Y-52551000D01*
X96872100Y-52551000D01*
X96870999Y-91654084D01*
X96871001Y-91654104D01*
X96871000Y-92483000D01*
X85341000Y-92483000D01*
X85341000Y-91618131D01*
X85341466Y-90987527D01*
X85478645Y-91111178D01*
X85728748Y-91260157D01*
X86003109Y-91357481D01*
X86233000Y-91236814D01*
X86233000Y-90043000D01*
X86487000Y-90043000D01*
X86487000Y-91236814D01*
X86716891Y-91357481D01*
X86991252Y-91260157D01*
X87241355Y-91111178D01*
X87457588Y-90916269D01*
X87631641Y-90682920D01*
X87756825Y-90420099D01*
X87801476Y-90272890D01*
X87680155Y-90043000D01*
X86487000Y-90043000D01*
X86233000Y-90043000D01*
X86213000Y-90043000D01*
X86213000Y-89789000D01*
X86233000Y-89789000D01*
X86233000Y-89769000D01*
X86487000Y-89769000D01*
X86487000Y-89789000D01*
X87680155Y-89789000D01*
X87801476Y-89559110D01*
X87756825Y-89411901D01*
X87631641Y-89149080D01*
X87457588Y-88915731D01*
X87241355Y-88720822D01*
X87124466Y-88651195D01*
X87306632Y-88529475D01*
X87513475Y-88322632D01*
X87675990Y-88079411D01*
X87787932Y-87809158D01*
X87845000Y-87522260D01*
X87845000Y-87229740D01*
X87787932Y-86942842D01*
X87675990Y-86672589D01*
X87513475Y-86429368D01*
X87306632Y-86222525D01*
X87132240Y-86106000D01*
X87306632Y-85989475D01*
X87513475Y-85782632D01*
X87675990Y-85539411D01*
X87787932Y-85269158D01*
X87845000Y-84982260D01*
X87845000Y-84689740D01*
X87787932Y-84402842D01*
X87675990Y-84132589D01*
X87513475Y-83889368D01*
X87306632Y-83682525D01*
X87132240Y-83566000D01*
X87306632Y-83449475D01*
X87513475Y-83242632D01*
X87675990Y-82999411D01*
X87787932Y-82729158D01*
X87845000Y-82442260D01*
X87845000Y-82149740D01*
X87787932Y-81862842D01*
X87675990Y-81592589D01*
X87513475Y-81349368D01*
X87306632Y-81142525D01*
X87132240Y-81026000D01*
X87306632Y-80909475D01*
X87513475Y-80702632D01*
X87675990Y-80459411D01*
X87787932Y-80189158D01*
X87845000Y-79902260D01*
X87845000Y-79609740D01*
X87787932Y-79322842D01*
X87675990Y-79052589D01*
X87513475Y-78809368D01*
X87306632Y-78602525D01*
X87132240Y-78486000D01*
X87306632Y-78369475D01*
X87513475Y-78162632D01*
X87675990Y-77919411D01*
X87787932Y-77649158D01*
X87845000Y-77362260D01*
X87845000Y-77069740D01*
X87787932Y-76782842D01*
X87675990Y-76512589D01*
X87513475Y-76269368D01*
X87306632Y-76062525D01*
X87132240Y-75946000D01*
X87306632Y-75829475D01*
X87513475Y-75622632D01*
X87675990Y-75379411D01*
X87787932Y-75109158D01*
X87845000Y-74822260D01*
X87845000Y-74529740D01*
X87787932Y-74242842D01*
X87675990Y-73972589D01*
X87513475Y-73729368D01*
X87306632Y-73522525D01*
X87132240Y-73406000D01*
X87306632Y-73289475D01*
X87513475Y-73082632D01*
X87675990Y-72839411D01*
X87787932Y-72569158D01*
X87845000Y-72282260D01*
X87845000Y-71989740D01*
X87787932Y-71702842D01*
X87675990Y-71432589D01*
X87513475Y-71189368D01*
X87306632Y-70982525D01*
X87132240Y-70866000D01*
X87306632Y-70749475D01*
X87513475Y-70542632D01*
X87675990Y-70299411D01*
X87787932Y-70029158D01*
X87845000Y-69742260D01*
X87845000Y-69449740D01*
X87787932Y-69162842D01*
X87675990Y-68892589D01*
X87513475Y-68649368D01*
X87381620Y-68517513D01*
X87454180Y-68495502D01*
X87564494Y-68436537D01*
X87661185Y-68357185D01*
X87740537Y-68260494D01*
X87799502Y-68150180D01*
X87835812Y-68030482D01*
X87848072Y-67906000D01*
X87848072Y-66206000D01*
X87835812Y-66081518D01*
X87799502Y-65961820D01*
X87740537Y-65851506D01*
X87661185Y-65754815D01*
X87564494Y-65675463D01*
X87454180Y-65616498D01*
X87334482Y-65580188D01*
X87210000Y-65567928D01*
X85510000Y-65567928D01*
X85385518Y-65580188D01*
X85360246Y-65587854D01*
X85367256Y-56107000D01*
X86962709Y-56107000D01*
X86977225Y-56109293D01*
X87034977Y-56107000D01*
X87056505Y-56107000D01*
X87071045Y-56105568D01*
X87121894Y-56103549D01*
X87142941Y-56098487D01*
X87164485Y-56096365D01*
X87213185Y-56081592D01*
X87262662Y-56069692D01*
X87282317Y-56060621D01*
X87303033Y-56054337D01*
X87347916Y-56030346D01*
X87394120Y-56009023D01*
X87411626Y-55996293D01*
X87430720Y-55986087D01*
X87470066Y-55953797D01*
X87511216Y-55923873D01*
X87525901Y-55907974D01*
X87542638Y-55894238D01*
X87574928Y-55854893D01*
X87609450Y-55817516D01*
X87620751Y-55799057D01*
X87634487Y-55782320D01*
X87658480Y-55737432D01*
X87685048Y-55694037D01*
X87692531Y-55673726D01*
X87702737Y-55654633D01*
X87717511Y-55605928D01*
X87735103Y-55558183D01*
X87738480Y-55536803D01*
X87744765Y-55516085D01*
X87749753Y-55465437D01*
X87757693Y-55415174D01*
X87756834Y-55393543D01*
X87758956Y-55372000D01*
X87753968Y-55321355D01*
X87751949Y-55270505D01*
X87746887Y-55249457D01*
X87744765Y-55227915D01*
X87729993Y-55179219D01*
X87718092Y-55129737D01*
X87709021Y-55110081D01*
X87702737Y-55089367D01*
X87678746Y-55044483D01*
X87672625Y-55031220D01*
X87661735Y-55012657D01*
X87634487Y-54961680D01*
X87625163Y-54950318D01*
X85426537Y-51202662D01*
X85399287Y-51151680D01*
X85366996Y-51112334D01*
X85337073Y-51071184D01*
X85321174Y-51056499D01*
X85307438Y-51039762D01*
X85268093Y-51007472D01*
X85230716Y-50972950D01*
X85212257Y-50961649D01*
X85195520Y-50947913D01*
X85150632Y-50923920D01*
X85107237Y-50897352D01*
X85086926Y-50889869D01*
X85067833Y-50879663D01*
X85019128Y-50864889D01*
X84971383Y-50847297D01*
X84950003Y-50843920D01*
X84929285Y-50837635D01*
X84878637Y-50832647D01*
X84828374Y-50824707D01*
X84770623Y-50827000D01*
X82001905Y-50827000D01*
X81965800Y-50823444D01*
X81929695Y-50827000D01*
X81821715Y-50837635D01*
X81683167Y-50879663D01*
X81555480Y-50947913D01*
X81443562Y-51039762D01*
X81351713Y-51151680D01*
X81283463Y-51279367D01*
X81241435Y-51417915D01*
X81227244Y-51562000D01*
X81230800Y-51598105D01*
X81230801Y-52478000D01*
X39012800Y-52478000D01*
X39012800Y-51598105D01*
X39016356Y-51562000D01*
X39002165Y-51417915D01*
X38960137Y-51279367D01*
X38891887Y-51151680D01*
X38800038Y-51039762D01*
X38688120Y-50947913D01*
X38560433Y-50879663D01*
X38421885Y-50837635D01*
X38313905Y-50827000D01*
X38277800Y-50823444D01*
X38241695Y-50827000D01*
X35472977Y-50827000D01*
X35415225Y-50824707D01*
X35364960Y-50832647D01*
X35314315Y-50837635D01*
X35293598Y-50843919D01*
X35272216Y-50847297D01*
X35224466Y-50864890D01*
X35175767Y-50879663D01*
X35156676Y-50889867D01*
X35136362Y-50897352D01*
X35092960Y-50923924D01*
X35048080Y-50947913D01*
X35031346Y-50961646D01*
X35012883Y-50972950D01*
X34975498Y-51007479D01*
X34936162Y-51039762D01*
X34922429Y-51056495D01*
X34906526Y-51071184D01*
X34876595Y-51112345D01*
X34844313Y-51151680D01*
X34817073Y-51202643D01*
X33366999Y-53674361D01*
X33366999Y-48475140D01*
X33403805Y-48420056D01*
X33481826Y-48231698D01*
X33521600Y-48031739D01*
X33521600Y-47904061D01*
X85223400Y-47904061D01*
X85223400Y-48107939D01*
X85263174Y-48307898D01*
X85341195Y-48496256D01*
X85454463Y-48665774D01*
X85598626Y-48809937D01*
X85768144Y-48923205D01*
X85956502Y-49001226D01*
X86156461Y-49041000D01*
X86360339Y-49041000D01*
X86560298Y-49001226D01*
X86748656Y-48923205D01*
X86796854Y-48891000D01*
X90463822Y-48891000D01*
X90707400Y-49134579D01*
X90707401Y-69806521D01*
X90703119Y-69850000D01*
X90720205Y-70023490D01*
X90770812Y-70190313D01*
X90852990Y-70344059D01*
X90935868Y-70445046D01*
X90935871Y-70445049D01*
X90963584Y-70478817D01*
X90997351Y-70506529D01*
X92434470Y-71943649D01*
X92462183Y-71977417D01*
X92495951Y-72005130D01*
X92495953Y-72005132D01*
X92553075Y-72052011D01*
X92596941Y-72088011D01*
X92750687Y-72170189D01*
X92917510Y-72220795D01*
X93047523Y-72233600D01*
X93047533Y-72233600D01*
X93090999Y-72237881D01*
X93134465Y-72233600D01*
X93344144Y-72233600D01*
X93385325Y-72295232D01*
X93592168Y-72502075D01*
X93835389Y-72664590D01*
X94105642Y-72776532D01*
X94392540Y-72833600D01*
X94685060Y-72833600D01*
X94971958Y-72776532D01*
X95242211Y-72664590D01*
X95485432Y-72502075D01*
X95692275Y-72295232D01*
X95854790Y-72052011D01*
X95966732Y-71781758D01*
X96023800Y-71494860D01*
X96023800Y-71202340D01*
X95966732Y-70915442D01*
X95854790Y-70645189D01*
X95692275Y-70401968D01*
X95485432Y-70195125D01*
X95311040Y-70078600D01*
X95485432Y-69962075D01*
X95692275Y-69755232D01*
X95854790Y-69512011D01*
X95966732Y-69241758D01*
X96023800Y-68954860D01*
X96023800Y-68662340D01*
X95966732Y-68375442D01*
X95854790Y-68105189D01*
X95692275Y-67861968D01*
X95485432Y-67655125D01*
X95303266Y-67533405D01*
X95420155Y-67463778D01*
X95636388Y-67268869D01*
X95810441Y-67035520D01*
X95935625Y-66772699D01*
X95980276Y-66625490D01*
X95858955Y-66395600D01*
X94665800Y-66395600D01*
X94665800Y-66415600D01*
X94411800Y-66415600D01*
X94411800Y-66395600D01*
X93218645Y-66395600D01*
X93097324Y-66625490D01*
X93141975Y-66772699D01*
X93267159Y-67035520D01*
X93441212Y-67268869D01*
X93657445Y-67463778D01*
X93774334Y-67533405D01*
X93592168Y-67655125D01*
X93385325Y-67861968D01*
X93222810Y-68105189D01*
X93110868Y-68375442D01*
X93053800Y-68662340D01*
X93053800Y-68954860D01*
X93110868Y-69241758D01*
X93222810Y-69512011D01*
X93385325Y-69755232D01*
X93592168Y-69962075D01*
X93766560Y-70078600D01*
X93592168Y-70195125D01*
X93390636Y-70396657D01*
X92477400Y-69483422D01*
X92477400Y-55962340D01*
X93053800Y-55962340D01*
X93053800Y-56254860D01*
X93110868Y-56541758D01*
X93222810Y-56812011D01*
X93385325Y-57055232D01*
X93592168Y-57262075D01*
X93766560Y-57378600D01*
X93592168Y-57495125D01*
X93385325Y-57701968D01*
X93222810Y-57945189D01*
X93110868Y-58215442D01*
X93053800Y-58502340D01*
X93053800Y-58794860D01*
X93110868Y-59081758D01*
X93222810Y-59352011D01*
X93385325Y-59595232D01*
X93592168Y-59802075D01*
X93766560Y-59918600D01*
X93592168Y-60035125D01*
X93385325Y-60241968D01*
X93222810Y-60485189D01*
X93110868Y-60755442D01*
X93053800Y-61042340D01*
X93053800Y-61334860D01*
X93110868Y-61621758D01*
X93222810Y-61892011D01*
X93385325Y-62135232D01*
X93592168Y-62342075D01*
X93766560Y-62458600D01*
X93592168Y-62575125D01*
X93385325Y-62781968D01*
X93222810Y-63025189D01*
X93110868Y-63295442D01*
X93053800Y-63582340D01*
X93053800Y-63874860D01*
X93110868Y-64161758D01*
X93222810Y-64432011D01*
X93385325Y-64675232D01*
X93592168Y-64882075D01*
X93774334Y-65003795D01*
X93657445Y-65073422D01*
X93441212Y-65268331D01*
X93267159Y-65501680D01*
X93141975Y-65764501D01*
X93097324Y-65911710D01*
X93218645Y-66141600D01*
X94411800Y-66141600D01*
X94411800Y-66121600D01*
X94665800Y-66121600D01*
X94665800Y-66141600D01*
X95858955Y-66141600D01*
X95980276Y-65911710D01*
X95935625Y-65764501D01*
X95810441Y-65501680D01*
X95636388Y-65268331D01*
X95420155Y-65073422D01*
X95303266Y-65003795D01*
X95485432Y-64882075D01*
X95692275Y-64675232D01*
X95854790Y-64432011D01*
X95966732Y-64161758D01*
X96023800Y-63874860D01*
X96023800Y-63582340D01*
X95966732Y-63295442D01*
X95854790Y-63025189D01*
X95692275Y-62781968D01*
X95485432Y-62575125D01*
X95311040Y-62458600D01*
X95485432Y-62342075D01*
X95692275Y-62135232D01*
X95854790Y-61892011D01*
X95966732Y-61621758D01*
X96023800Y-61334860D01*
X96023800Y-61042340D01*
X95966732Y-60755442D01*
X95854790Y-60485189D01*
X95692275Y-60241968D01*
X95485432Y-60035125D01*
X95311040Y-59918600D01*
X95485432Y-59802075D01*
X95692275Y-59595232D01*
X95854790Y-59352011D01*
X95966732Y-59081758D01*
X96023800Y-58794860D01*
X96023800Y-58502340D01*
X95966732Y-58215442D01*
X95854790Y-57945189D01*
X95692275Y-57701968D01*
X95485432Y-57495125D01*
X95311040Y-57378600D01*
X95485432Y-57262075D01*
X95692275Y-57055232D01*
X95854790Y-56812011D01*
X95966732Y-56541758D01*
X96023800Y-56254860D01*
X96023800Y-55962340D01*
X95966732Y-55675442D01*
X95854790Y-55405189D01*
X95692275Y-55161968D01*
X95485432Y-54955125D01*
X95303266Y-54833405D01*
X95420155Y-54763778D01*
X95636388Y-54568869D01*
X95810441Y-54335520D01*
X95935625Y-54072699D01*
X95980276Y-53925490D01*
X95858955Y-53695600D01*
X94665800Y-53695600D01*
X94665800Y-53715600D01*
X94411800Y-53715600D01*
X94411800Y-53695600D01*
X93218645Y-53695600D01*
X93097324Y-53925490D01*
X93141975Y-54072699D01*
X93267159Y-54335520D01*
X93441212Y-54568869D01*
X93657445Y-54763778D01*
X93774334Y-54833405D01*
X93592168Y-54955125D01*
X93385325Y-55161968D01*
X93222810Y-55405189D01*
X93110868Y-55675442D01*
X93053800Y-55962340D01*
X92477400Y-55962340D01*
X92477400Y-48811469D01*
X92481681Y-48768000D01*
X92477400Y-48724531D01*
X92477400Y-48724523D01*
X92464595Y-48594510D01*
X92413989Y-48427687D01*
X92331811Y-48273941D01*
X92276045Y-48205990D01*
X92248932Y-48172953D01*
X92248930Y-48172951D01*
X92221217Y-48139183D01*
X92187450Y-48111471D01*
X91486934Y-47410956D01*
X91459217Y-47377183D01*
X91324459Y-47266589D01*
X91170713Y-47184411D01*
X91003890Y-47133805D01*
X90873877Y-47121000D01*
X90873869Y-47121000D01*
X90830400Y-47116719D01*
X90786931Y-47121000D01*
X86796854Y-47121000D01*
X86748656Y-47088795D01*
X86560298Y-47010774D01*
X86360339Y-46971000D01*
X86156461Y-46971000D01*
X85956502Y-47010774D01*
X85768144Y-47088795D01*
X85598626Y-47202063D01*
X85454463Y-47346226D01*
X85341195Y-47515744D01*
X85263174Y-47704102D01*
X85223400Y-47904061D01*
X33521600Y-47904061D01*
X33521600Y-47827861D01*
X33481826Y-47627902D01*
X33403805Y-47439544D01*
X33290537Y-47270026D01*
X33146374Y-47125863D01*
X32976856Y-47012595D01*
X32788498Y-46934574D01*
X32588539Y-46894800D01*
X32384661Y-46894800D01*
X32184702Y-46934574D01*
X31996344Y-47012595D01*
X31826826Y-47125863D01*
X31682663Y-47270026D01*
X31569395Y-47439544D01*
X31491374Y-47627902D01*
X31451600Y-47827861D01*
X31451600Y-48031739D01*
X31491374Y-48231698D01*
X31569395Y-48420056D01*
X31597000Y-48461370D01*
X31596999Y-86032530D01*
X31592718Y-86075999D01*
X31596999Y-86119468D01*
X31596999Y-86119475D01*
X31607148Y-86222525D01*
X31609804Y-86249489D01*
X31625156Y-86300095D01*
X31660410Y-86416311D01*
X31742588Y-86570057D01*
X31853182Y-86704816D01*
X31886955Y-86732533D01*
X32311461Y-87157039D01*
X32297000Y-87229740D01*
X32297000Y-87522260D01*
X32354068Y-87809158D01*
X32466010Y-88079411D01*
X32628525Y-88322632D01*
X32835368Y-88529475D01*
X33017534Y-88651195D01*
X32900645Y-88720822D01*
X32684412Y-88915731D01*
X32510359Y-89149080D01*
X32385175Y-89411901D01*
X32340524Y-89559110D01*
X32461845Y-89789000D01*
X33655000Y-89789000D01*
X33655000Y-89769000D01*
X33909000Y-89769000D01*
X33909000Y-89789000D01*
X33929000Y-89789000D01*
X33929000Y-90043000D01*
X33909000Y-90043000D01*
X33909000Y-91236814D01*
X34138891Y-91357481D01*
X34413252Y-91260157D01*
X34663355Y-91111178D01*
X34871093Y-90923927D01*
X34871006Y-91581840D01*
X34871000Y-91581896D01*
X34871000Y-91623610D01*
X34870996Y-91654007D01*
X34871000Y-91654048D01*
X34871001Y-92483000D01*
X23341000Y-92483000D01*
X23341000Y-90272890D01*
X32340524Y-90272890D01*
X32385175Y-90420099D01*
X32510359Y-90682920D01*
X32684412Y-90916269D01*
X32900645Y-91111178D01*
X33150748Y-91260157D01*
X33425109Y-91357481D01*
X33655000Y-91236814D01*
X33655000Y-90043000D01*
X32461845Y-90043000D01*
X32340524Y-90272890D01*
X23341000Y-90272890D01*
X23341000Y-52353000D01*
X24169895Y-52353000D01*
X24206000Y-52356556D01*
X24242105Y-52353000D01*
X24350085Y-52342365D01*
X24488633Y-52300337D01*
X24616320Y-52232087D01*
X24679296Y-52180403D01*
X24707368Y-52208475D01*
X24889534Y-52330195D01*
X24772645Y-52399822D01*
X24556412Y-52594731D01*
X24382359Y-52828080D01*
X24257175Y-53090901D01*
X24212524Y-53238110D01*
X24333845Y-53468000D01*
X25527000Y-53468000D01*
X25527000Y-53448000D01*
X25781000Y-53448000D01*
X25781000Y-53468000D01*
X25801000Y-53468000D01*
X25801000Y-53722000D01*
X25781000Y-53722000D01*
X25781000Y-53742000D01*
X25527000Y-53742000D01*
X25527000Y-53722000D01*
X24333845Y-53722000D01*
X24212524Y-53951890D01*
X24257175Y-54099099D01*
X24382359Y-54361920D01*
X24556412Y-54595269D01*
X24772645Y-54790178D01*
X24889534Y-54859805D01*
X24707368Y-54981525D01*
X24500525Y-55188368D01*
X24338010Y-55431589D01*
X24226068Y-55701842D01*
X24169000Y-55988740D01*
X24169000Y-56281260D01*
X24226068Y-56568158D01*
X24338010Y-56838411D01*
X24500525Y-57081632D01*
X24707368Y-57288475D01*
X24881760Y-57405000D01*
X24707368Y-57521525D01*
X24500525Y-57728368D01*
X24338010Y-57971589D01*
X24226068Y-58241842D01*
X24169000Y-58528740D01*
X24169000Y-58821260D01*
X24226068Y-59108158D01*
X24338010Y-59378411D01*
X24500525Y-59621632D01*
X24707368Y-59828475D01*
X24881760Y-59945000D01*
X24707368Y-60061525D01*
X24500525Y-60268368D01*
X24338010Y-60511589D01*
X24226068Y-60781842D01*
X24169000Y-61068740D01*
X24169000Y-61361260D01*
X24226068Y-61648158D01*
X24338010Y-61918411D01*
X24500525Y-62161632D01*
X24707368Y-62368475D01*
X24881760Y-62485000D01*
X24707368Y-62601525D01*
X24500525Y-62808368D01*
X24338010Y-63051589D01*
X24226068Y-63321842D01*
X24169000Y-63608740D01*
X24169000Y-63901260D01*
X24226068Y-64188158D01*
X24338010Y-64458411D01*
X24500525Y-64701632D01*
X24707368Y-64908475D01*
X24889534Y-65030195D01*
X24772645Y-65099822D01*
X24556412Y-65294731D01*
X24382359Y-65528080D01*
X24257175Y-65790901D01*
X24212524Y-65938110D01*
X24333845Y-66168000D01*
X25527000Y-66168000D01*
X25527000Y-66148000D01*
X25781000Y-66148000D01*
X25781000Y-66168000D01*
X25801000Y-66168000D01*
X25801000Y-66422000D01*
X25781000Y-66422000D01*
X25781000Y-66442000D01*
X25527000Y-66442000D01*
X25527000Y-66422000D01*
X24333845Y-66422000D01*
X24212524Y-66651890D01*
X24257175Y-66799099D01*
X24382359Y-67061920D01*
X24556412Y-67295269D01*
X24772645Y-67490178D01*
X24889534Y-67559805D01*
X24707368Y-67681525D01*
X24500525Y-67888368D01*
X24338010Y-68131589D01*
X24226068Y-68401842D01*
X24169000Y-68688740D01*
X24169000Y-68981260D01*
X24226068Y-69268158D01*
X24338010Y-69538411D01*
X24500525Y-69781632D01*
X24632380Y-69913487D01*
X24559820Y-69935498D01*
X24449506Y-69994463D01*
X24352815Y-70073815D01*
X24273463Y-70170506D01*
X24214498Y-70280820D01*
X24178188Y-70400518D01*
X24165928Y-70525000D01*
X24165928Y-72225000D01*
X24178188Y-72349482D01*
X24214498Y-72469180D01*
X24273463Y-72579494D01*
X24352815Y-72676185D01*
X24449506Y-72755537D01*
X24559820Y-72814502D01*
X24679518Y-72850812D01*
X24804000Y-72863072D01*
X26504000Y-72863072D01*
X26628482Y-72850812D01*
X26748180Y-72814502D01*
X26858494Y-72755537D01*
X26955185Y-72676185D01*
X27034537Y-72579494D01*
X27093502Y-72469180D01*
X27129812Y-72349482D01*
X27142072Y-72225000D01*
X27142072Y-71467706D01*
X28044350Y-70565429D01*
X28078118Y-70537716D01*
X28188712Y-70402958D01*
X28270890Y-70249212D01*
X28321496Y-70082389D01*
X28334301Y-69952376D01*
X28334301Y-69952366D01*
X28338582Y-69908900D01*
X28334301Y-69865433D01*
X28334301Y-68725440D01*
X28744360Y-68315382D01*
X28778128Y-68287669D01*
X28816352Y-68241094D01*
X28888722Y-68152911D01*
X28970900Y-67999166D01*
X29021506Y-67832342D01*
X29031581Y-67730045D01*
X29034311Y-67702329D01*
X29034311Y-67702321D01*
X29038592Y-67658852D01*
X29034311Y-67615383D01*
X29034311Y-48713200D01*
X29598743Y-48713200D01*
X29642212Y-48717481D01*
X29685681Y-48713200D01*
X29685689Y-48713200D01*
X29815702Y-48700395D01*
X29982525Y-48649789D01*
X30136271Y-48567611D01*
X30271029Y-48457017D01*
X30298746Y-48423244D01*
X30681055Y-48040935D01*
X30714828Y-48013218D01*
X30825422Y-47878460D01*
X30890712Y-47756310D01*
X30907600Y-47724715D01*
X30958206Y-47557891D01*
X30962517Y-47514118D01*
X30971011Y-47427878D01*
X30971011Y-47427870D01*
X30975292Y-47384401D01*
X30971011Y-47340932D01*
X30971011Y-46611868D01*
X30975292Y-46568399D01*
X30971011Y-46524930D01*
X30971011Y-46524922D01*
X30958206Y-46394909D01*
X30907600Y-46228086D01*
X30841900Y-46105169D01*
X30841900Y-46024461D01*
X30802126Y-45824502D01*
X30724105Y-45636144D01*
X30610837Y-45466626D01*
X30466674Y-45322463D01*
X30297156Y-45209195D01*
X30108798Y-45131174D01*
X29908839Y-45091400D01*
X29704961Y-45091400D01*
X29505002Y-45131174D01*
X29316644Y-45209195D01*
X29147126Y-45322463D01*
X29002963Y-45466626D01*
X28889695Y-45636144D01*
X28811674Y-45824502D01*
X28788420Y-45941410D01*
X27673661Y-45941410D01*
X27630192Y-45937129D01*
X27586723Y-45941410D01*
X27586715Y-45941410D01*
X27456702Y-45954215D01*
X27289879Y-46004821D01*
X27136133Y-46086999D01*
X27001375Y-46197593D01*
X26973658Y-46231366D01*
X26854253Y-46350771D01*
X26820485Y-46378484D01*
X26792772Y-46412252D01*
X26792769Y-46412255D01*
X26709891Y-46513242D01*
X26627713Y-46666988D01*
X26577106Y-46833811D01*
X26560020Y-47007301D01*
X26564302Y-47050780D01*
X26564302Y-47337250D01*
X26357411Y-47199010D01*
X26087158Y-47087068D01*
X25800260Y-47030000D01*
X25507740Y-47030000D01*
X25220842Y-47087068D01*
X24950589Y-47199010D01*
X24941000Y-47205417D01*
X24941000Y-46654105D01*
X24944556Y-46618000D01*
X24930365Y-46473915D01*
X24888337Y-46335367D01*
X24820087Y-46207680D01*
X24728238Y-46095762D01*
X24616320Y-46003913D01*
X24488633Y-45935663D01*
X24350085Y-45893635D01*
X24242105Y-45883000D01*
X24206000Y-45879444D01*
X24169895Y-45883000D01*
X22910453Y-45883000D01*
X22513931Y-45486468D01*
X24850135Y-43149020D01*
X25670884Y-43705957D01*
X25701050Y-43730700D01*
X25762464Y-43763504D01*
X25823695Y-43796798D01*
X25826329Y-43797618D01*
X25828756Y-43798914D01*
X25895327Y-43819088D01*
X25961939Y-43839816D01*
X25964683Y-43840106D01*
X25967316Y-43840904D01*
X26036607Y-43847710D01*
X26105919Y-43855037D01*
X26108662Y-43854787D01*
X26111404Y-43855056D01*
X26180777Y-43848204D01*
X26250102Y-43841876D01*
X26252741Y-43841096D01*
X26255485Y-43840825D01*
X26322154Y-43820581D01*
X26388947Y-43800840D01*
X26391387Y-43799558D01*
X26394022Y-43798758D01*
X26455415Y-43765921D01*
X26517118Y-43733505D01*
X26519261Y-43731771D01*
X26521689Y-43730473D01*
X26575471Y-43686310D01*
X26629690Y-43642459D01*
X26654660Y-43612473D01*
X27060661Y-43206247D01*
X27070868Y-43257558D01*
X27182810Y-43527811D01*
X27345325Y-43771032D01*
X27552168Y-43977875D01*
X27795389Y-44140390D01*
X28065642Y-44252332D01*
X28352540Y-44309400D01*
X28645060Y-44309400D01*
X28931958Y-44252332D01*
X29202211Y-44140390D01*
X29445432Y-43977875D01*
X29652275Y-43771032D01*
X29814790Y-43527811D01*
X29926732Y-43257558D01*
X29983800Y-42970660D01*
X29983800Y-42678140D01*
X29942882Y-42472431D01*
X30148591Y-42513349D01*
X30441111Y-42513349D01*
X30728009Y-42456281D01*
X30998262Y-42344339D01*
X31241483Y-42181824D01*
X31448326Y-41974981D01*
X31610841Y-41731760D01*
X31722783Y-41461507D01*
X31779851Y-41174609D01*
X31779851Y-40882089D01*
X31737109Y-40667210D01*
X31868996Y-40700629D01*
X32159717Y-40715707D01*
X32447794Y-40673778D01*
X32722155Y-40576454D01*
X32857820Y-40503935D01*
X32934590Y-40255591D01*
X32090902Y-39411903D01*
X32076760Y-39426046D01*
X31897155Y-39246441D01*
X31911297Y-39232298D01*
X31897155Y-39218156D01*
X32076760Y-39038551D01*
X32090902Y-39052693D01*
X32105045Y-39038551D01*
X32284650Y-39218156D01*
X32270507Y-39232298D01*
X33114195Y-40075986D01*
X33362539Y-39999216D01*
X33435058Y-39863551D01*
X33532382Y-39589190D01*
X33574311Y-39301113D01*
X33559233Y-39010392D01*
X33525813Y-38878503D01*
X33740694Y-38921246D01*
X34033214Y-38921246D01*
X34320112Y-38864178D01*
X34590365Y-38752236D01*
X34833586Y-38589721D01*
X35040429Y-38382878D01*
X35202944Y-38139657D01*
X35314886Y-37869404D01*
X35371954Y-37582506D01*
X35371954Y-37289986D01*
X35331036Y-37084277D01*
X35536745Y-37125195D01*
X35829265Y-37125195D01*
X36116163Y-37068127D01*
X36386416Y-36956185D01*
X36629637Y-36793670D01*
X36836480Y-36586827D01*
X36998995Y-36343606D01*
X37110937Y-36073353D01*
X37168005Y-35786455D01*
X37168005Y-35493935D01*
X37127087Y-35288226D01*
X37332796Y-35329144D01*
X37625316Y-35329144D01*
X37912214Y-35272076D01*
X38182467Y-35160134D01*
X38425688Y-34997619D01*
X38632531Y-34790776D01*
X38795046Y-34547555D01*
X38906988Y-34277302D01*
X38964056Y-33990404D01*
X38964056Y-33697884D01*
X38923138Y-33492175D01*
X39128847Y-33533093D01*
X39421367Y-33533093D01*
X39708265Y-33476025D01*
X39978518Y-33364083D01*
X40221739Y-33201568D01*
X40428582Y-32994725D01*
X40591097Y-32751504D01*
X40703039Y-32481251D01*
X40760107Y-32194353D01*
X40760107Y-31901833D01*
X40717364Y-31686952D01*
X40849253Y-31720372D01*
X41139974Y-31735450D01*
X41428051Y-31693521D01*
X41702412Y-31596197D01*
X41838077Y-31523678D01*
X41914847Y-31275334D01*
X41071159Y-30431646D01*
X41057017Y-30445789D01*
X40877412Y-30266184D01*
X40891554Y-30252041D01*
X40877412Y-30237899D01*
X41057017Y-30058294D01*
X41071159Y-30072436D01*
X41085302Y-30058294D01*
X41264907Y-30237899D01*
X41250764Y-30252041D01*
X42094452Y-31095729D01*
X42342796Y-31018959D01*
X42415315Y-30883294D01*
X42512639Y-30608933D01*
X42554568Y-30320856D01*
X42539490Y-30030135D01*
X42506071Y-29898248D01*
X42720950Y-29940990D01*
X43013470Y-29940990D01*
X43300368Y-29883922D01*
X43570621Y-29771980D01*
X43813842Y-29609465D01*
X44020685Y-29402622D01*
X44183200Y-29159401D01*
X44295142Y-28889148D01*
X44352210Y-28602250D01*
X44352210Y-28415779D01*
X44419081Y-28451523D01*
X44538779Y-28487833D01*
X44663261Y-28500093D01*
X44787743Y-28487833D01*
X44907441Y-28451523D01*
X45017755Y-28392558D01*
X45114446Y-28313206D01*
X46316528Y-27111124D01*
X46395880Y-27014433D01*
X46454845Y-26904119D01*
X46491155Y-26784421D01*
X46503415Y-26659939D01*
X46491155Y-26535457D01*
X46454845Y-26415759D01*
X46395880Y-26305445D01*
X46316528Y-26208754D01*
X45182327Y-25074553D01*
X49559188Y-20695271D01*
X49591896Y-20667401D01*
X49632597Y-20615894D01*
X49674300Y-20565051D01*
X49677483Y-20559093D01*
X49681661Y-20553805D01*
X49711537Y-20495339D01*
X49742514Y-20437345D01*
X49744471Y-20430887D01*
X49747541Y-20424879D01*
X49765453Y-20361651D01*
X49784504Y-20298785D01*
X49785163Y-20292074D01*
X49787003Y-20285579D01*
X49792238Y-20220040D01*
X49798655Y-20154696D01*
X49797992Y-20147987D01*
X49798530Y-20141256D01*
X49790881Y-20075982D01*
X49784425Y-20010615D01*
X49782464Y-20004158D01*
X49781679Y-19997457D01*
X49761443Y-19934931D01*
X49742358Y-19872078D01*
X49739178Y-19866132D01*
X49737099Y-19859709D01*
X49705045Y-19802318D01*
X49674073Y-19744411D01*
X49646802Y-19711200D01*
X49087708Y-18907024D01*
X51778608Y-16221600D01*
X68435435Y-16221600D01*
X71127929Y-18883212D01*
G37*
%TD.AperFunction*%
%TD*%
M02*
