M48
; DRILL file {KiCad (5.1.8)-1} date 12/10/21 09:03:31
; FORMAT={-:-/ absolute / inch / decimal}
; #@! TF.CreationDate,2021-12-10T09:03:31+01:00
; #@! TF.GenerationSoftware,Kicad,Pcbnew,(5.1.8)-1
; #@! TF.FileFunction,Plated,1,2,PTH
FMAT,2
INCH
T1C0.0157
T2C0.0394
%
G90
G05
T1
X1.151Y-1.8495
X1.1735Y-1.816
X1.279Y-1.887
X1.556Y-2.05
X1.6Y-2.05
X1.65Y-2.05
X1.7Y-2.05
X1.75Y-2.05
X1.8Y-2.05
X1.85Y-2.05
X1.9Y-2.05
X1.95Y-2.05
X2.0Y-2.05
X2.05Y-2.05
X2.1Y-2.05
X2.15Y-2.05
X2.2Y-2.05
X2.25Y-2.05
X2.3Y-2.05
X2.35Y-2.05
X2.4Y-2.05
X2.45Y-2.05
X2.5Y-2.05
X2.55Y-2.05
X2.6Y-2.05
X2.65Y-2.05
X2.7Y-2.05
X2.75Y-2.05
X2.8Y-2.05
X2.85Y-2.05
X2.9Y-2.05
X2.95Y-2.05
X3.0Y-2.05
X3.05Y-2.05
X3.1Y-2.05
X3.15Y-2.05
X3.396Y-1.89
T2
X1.33Y-2.64
X1.33Y-2.74
X1.33Y-2.84
X1.33Y-2.94
X1.33Y-3.04
X1.33Y-3.14
X1.33Y-3.24
X1.33Y-3.34
X1.33Y-3.44
X1.33Y-3.54
X3.4Y-2.64
X3.4Y-2.74
X3.4Y-2.84
X3.4Y-2.94
X3.4Y-3.04
X3.4Y-3.14
X3.4Y-3.24
X3.4Y-3.34
X3.4Y-3.44
X3.4Y-3.54
X3.722Y-1.909
X3.722Y-2.009
X3.722Y-2.109
X3.722Y-2.209
X3.722Y-2.309
X3.722Y-2.409
X3.722Y-2.509
X3.722Y-2.609
X3.722Y-2.709
X3.722Y-2.809
X1.01Y-1.91
X1.01Y-2.01
X1.01Y-2.11
X1.01Y-2.21
X1.01Y-2.31
X1.01Y-2.41
X1.01Y-2.51
X1.01Y-2.61
X1.01Y-2.71
X1.01Y-2.81
X1.122Y-1.686
X1.1927Y-1.6153
X1.2634Y-1.5446
X1.3341Y-1.4739
X1.4048Y-1.4032
X1.4756Y-1.3324
X1.5463Y-1.2617
X1.617Y-1.191
X1.6877Y-1.1203
X1.7584Y-1.0496
X2.9776Y-1.0506
X3.0483Y-1.1213
X3.119Y-1.192
X3.1897Y-1.2627
X3.2604Y-1.3334
X3.3312Y-1.4042
X3.4019Y-1.4749
X3.4726Y-1.5456
X3.5433Y-1.6163
X3.614Y-1.687
T0
M30
