%TF.GenerationSoftware,KiCad,Pcbnew,(5.1.8)-1*%
%TF.CreationDate,2021-12-10T09:03:27+01:00*%
%TF.ProjectId,FirePlaceFrontwall,46697265-506c-4616-9365-46726f6e7477,rev?*%
%TF.SameCoordinates,Original*%
%TF.FileFunction,Legend,Top*%
%TF.FilePolarity,Positive*%
%FSLAX46Y46*%
G04 Gerber Fmt 4.6, Leading zero omitted, Abs format (unit mm)*
G04 Created by KiCad (PCBNEW (5.1.8)-1) date 2021-12-10 09:03:27*
%MOMM*%
%LPD*%
G01*
G04 APERTURE LIST*
%ADD10C,0.120000*%
%ADD11C,0.150000*%
G04 APERTURE END LIST*
D10*
%TO.C,K4*%
X73750235Y-26685339D02*
X74690687Y-25744887D01*
X74690687Y-27625791D02*
X73750235Y-26685339D01*
X75588713Y-28523817D02*
X77469617Y-26642913D01*
X77469617Y-26642913D02*
X93676504Y-42849800D01*
X75588713Y-28523817D02*
X91795600Y-44730704D01*
X91795600Y-44730704D02*
X93676504Y-42849800D01*
%TO.C,K3*%
X93208800Y-47158600D02*
X94538800Y-47158600D01*
X93208800Y-48488600D02*
X93208800Y-47158600D01*
X93208800Y-49758600D02*
X95868800Y-49758600D01*
X95868800Y-49758600D02*
X95868800Y-72678600D01*
X93208800Y-49758600D02*
X93208800Y-72678600D01*
X93208800Y-72678600D02*
X95868800Y-72678600D01*
%TO.C,K2*%
X44663261Y-24779035D02*
X45603713Y-25719487D01*
X43722809Y-25719487D02*
X44663261Y-24779035D01*
X42824783Y-26617513D02*
X44705687Y-28498417D01*
X44705687Y-28498417D02*
X28498800Y-44705304D01*
X42824783Y-26617513D02*
X26617896Y-42824400D01*
X26617896Y-42824400D02*
X28498800Y-44705304D01*
%TO.C,K1*%
X26984000Y-72705000D02*
X25654000Y-72705000D01*
X26984000Y-71375000D02*
X26984000Y-72705000D01*
X26984000Y-70105000D02*
X24324000Y-70105000D01*
X24324000Y-70105000D02*
X24324000Y-47185000D01*
X26984000Y-70105000D02*
X26984000Y-47185000D01*
X26984000Y-47185000D02*
X24324000Y-47185000D01*
%TO.C,K6*%
X85030000Y-68326000D02*
X87690000Y-68326000D01*
X85030000Y-68326000D02*
X85030000Y-91246000D01*
X85030000Y-91246000D02*
X87690000Y-91246000D01*
X87690000Y-68326000D02*
X87690000Y-91246000D01*
X87690000Y-65726000D02*
X87690000Y-67056000D01*
X86360000Y-65726000D02*
X87690000Y-65726000D01*
%TO.C,K5*%
X32452000Y-68326000D02*
X35112000Y-68326000D01*
X32452000Y-68326000D02*
X32452000Y-91246000D01*
X32452000Y-91246000D02*
X35112000Y-91246000D01*
X35112000Y-68326000D02*
X35112000Y-91246000D01*
X35112000Y-65726000D02*
X35112000Y-67056000D01*
X33782000Y-65726000D02*
X35112000Y-65726000D01*
%TO.C,K4*%
D11*
X73781549Y-25879573D02*
X73074442Y-25172467D01*
X74185610Y-25475512D02*
X73478503Y-25374497D01*
X73478503Y-24768405D02*
X73478503Y-25576528D01*
X74320297Y-24398016D02*
X74791702Y-24869421D01*
X73882564Y-24297001D02*
X74219282Y-24970436D01*
X74657015Y-24532703D01*
%TO.C,K3*%
X93800704Y-46610980D02*
X93800704Y-45610980D01*
X94372133Y-46610980D02*
X93943561Y-46039552D01*
X94372133Y-45610980D02*
X93800704Y-46182409D01*
X94705466Y-45610980D02*
X95324514Y-45610980D01*
X94991180Y-45991933D01*
X95134038Y-45991933D01*
X95229276Y-46039552D01*
X95276895Y-46087171D01*
X95324514Y-46182409D01*
X95324514Y-46420504D01*
X95276895Y-46515742D01*
X95229276Y-46563361D01*
X95134038Y-46610980D01*
X94848323Y-46610980D01*
X94753085Y-46563361D01*
X94705466Y-46515742D01*
%TO.C,K2*%
X45469026Y-24810349D02*
X46176132Y-24103242D01*
X45873087Y-25214410D02*
X45974102Y-24507303D01*
X46580194Y-24507303D02*
X45772071Y-24507303D01*
X46782224Y-24844021D02*
X46849568Y-24844021D01*
X46950583Y-24877692D01*
X47118942Y-25046051D01*
X47152613Y-25147067D01*
X47152613Y-25214410D01*
X47118942Y-25315425D01*
X47051598Y-25382769D01*
X46916911Y-25450112D01*
X46108789Y-25450112D01*
X46546522Y-25887845D01*
%TO.C,K1*%
X24915904Y-74157380D02*
X24915904Y-73157380D01*
X25487333Y-74157380D02*
X25058761Y-73585952D01*
X25487333Y-73157380D02*
X24915904Y-73728809D01*
X26439714Y-74157380D02*
X25868285Y-74157380D01*
X26154000Y-74157380D02*
X26154000Y-73157380D01*
X26058761Y-73300238D01*
X25963523Y-73395476D01*
X25868285Y-73443095D01*
%TO.C,K6*%
X85621904Y-64738380D02*
X85621904Y-63738380D01*
X86193333Y-64738380D02*
X85764761Y-64166952D01*
X86193333Y-63738380D02*
X85621904Y-64309809D01*
X87050476Y-63738380D02*
X86860000Y-63738380D01*
X86764761Y-63786000D01*
X86717142Y-63833619D01*
X86621904Y-63976476D01*
X86574285Y-64166952D01*
X86574285Y-64547904D01*
X86621904Y-64643142D01*
X86669523Y-64690761D01*
X86764761Y-64738380D01*
X86955238Y-64738380D01*
X87050476Y-64690761D01*
X87098095Y-64643142D01*
X87145714Y-64547904D01*
X87145714Y-64309809D01*
X87098095Y-64214571D01*
X87050476Y-64166952D01*
X86955238Y-64119333D01*
X86764761Y-64119333D01*
X86669523Y-64166952D01*
X86621904Y-64214571D01*
X86574285Y-64309809D01*
%TO.C,K5*%
X33043904Y-64738380D02*
X33043904Y-63738380D01*
X33615333Y-64738380D02*
X33186761Y-64166952D01*
X33615333Y-63738380D02*
X33043904Y-64309809D01*
X34520095Y-63738380D02*
X34043904Y-63738380D01*
X33996285Y-64214571D01*
X34043904Y-64166952D01*
X34139142Y-64119333D01*
X34377238Y-64119333D01*
X34472476Y-64166952D01*
X34520095Y-64214571D01*
X34567714Y-64309809D01*
X34567714Y-64547904D01*
X34520095Y-64643142D01*
X34472476Y-64690761D01*
X34377238Y-64738380D01*
X34139142Y-64738380D01*
X34043904Y-64690761D01*
X33996285Y-64643142D01*
%TD*%
M02*
