%TF.GenerationSoftware,KiCad,Pcbnew,(5.1.8)-1*%
%TF.CreationDate,2021-12-10T09:06:31+01:00*%
%TF.ProjectId,FirePlace_V1,46697265-506c-4616-9365-5f56312e6b69,rev?*%
%TF.SameCoordinates,Original*%
%TF.FileFunction,Legend,Top*%
%TF.FilePolarity,Positive*%
%FSLAX46Y46*%
G04 Gerber Fmt 4.6, Leading zero omitted, Abs format (unit mm)*
G04 Created by KiCad (PCBNEW (5.1.8)-1) date 2021-12-10 09:06:31*
%MOMM*%
%LPD*%
G01*
G04 APERTURE LIST*
%ADD10C,0.150000*%
%ADD11C,0.120000*%
G04 APERTURE END LIST*
D10*
X41694123Y-77328780D02*
X41217933Y-77328780D01*
X41170314Y-77804971D01*
X41217933Y-77757352D01*
X41313171Y-77709733D01*
X41551266Y-77709733D01*
X41646504Y-77757352D01*
X41694123Y-77804971D01*
X41741742Y-77900209D01*
X41741742Y-78138304D01*
X41694123Y-78233542D01*
X41646504Y-78281161D01*
X41551266Y-78328780D01*
X41313171Y-78328780D01*
X41217933Y-78281161D01*
X41170314Y-78233542D01*
X42027457Y-77328780D02*
X42360790Y-78328780D01*
X42694123Y-77328780D01*
X49961895Y-77198600D02*
X49866657Y-77150980D01*
X49723800Y-77150980D01*
X49580942Y-77198600D01*
X49485704Y-77293838D01*
X49438085Y-77389076D01*
X49390466Y-77579552D01*
X49390466Y-77722409D01*
X49438085Y-77912885D01*
X49485704Y-78008123D01*
X49580942Y-78103361D01*
X49723800Y-78150980D01*
X49819038Y-78150980D01*
X49961895Y-78103361D01*
X50009514Y-78055742D01*
X50009514Y-77722409D01*
X49819038Y-77722409D01*
X50438085Y-78150980D02*
X50438085Y-77150980D01*
X51009514Y-78150980D01*
X51009514Y-77150980D01*
X51485704Y-78150980D02*
X51485704Y-77150980D01*
X51723800Y-77150980D01*
X51866657Y-77198600D01*
X51961895Y-77293838D01*
X52009514Y-77389076D01*
X52057133Y-77579552D01*
X52057133Y-77722409D01*
X52009514Y-77912885D01*
X51961895Y-78008123D01*
X51866657Y-78103361D01*
X51723800Y-78150980D01*
X51485704Y-78150980D01*
D11*
%TO.C,K6*%
X43450200Y-76521000D02*
X43450200Y-79181000D01*
X46050200Y-76521000D02*
X43450200Y-76521000D01*
X46050200Y-79181000D02*
X43450200Y-79181000D01*
X46050200Y-76521000D02*
X46050200Y-79181000D01*
X47320200Y-76521000D02*
X48650200Y-76521000D01*
X48650200Y-76521000D02*
X48650200Y-77851000D01*
%TO.C,K4*%
X20471096Y-45415200D02*
X22352000Y-47296104D01*
X36677983Y-29208313D02*
X20471096Y-45415200D01*
X38558887Y-31089217D02*
X22352000Y-47296104D01*
X36677983Y-29208313D02*
X38558887Y-31089217D01*
X37576009Y-28310287D02*
X38516461Y-27369835D01*
X38516461Y-27369835D02*
X39456913Y-28310287D01*
%TO.C,K3*%
X18177200Y-75396400D02*
X20837200Y-75396400D01*
X18177200Y-52476400D02*
X18177200Y-75396400D01*
X20837200Y-52476400D02*
X20837200Y-75396400D01*
X18177200Y-52476400D02*
X20837200Y-52476400D01*
X18177200Y-51206400D02*
X18177200Y-49876400D01*
X18177200Y-49876400D02*
X19507200Y-49876400D01*
%TO.C,K2*%
X85572600Y-47372304D02*
X87453504Y-45491400D01*
X69365713Y-31165417D02*
X85572600Y-47372304D01*
X71246617Y-29284513D02*
X87453504Y-45491400D01*
X69365713Y-31165417D02*
X71246617Y-29284513D01*
X68467687Y-30267391D02*
X67527235Y-29326939D01*
X67527235Y-29326939D02*
X68467687Y-28386487D01*
%TO.C,K1*%
X89722000Y-49876400D02*
X87062000Y-49876400D01*
X89722000Y-72796400D02*
X89722000Y-49876400D01*
X87062000Y-72796400D02*
X87062000Y-49876400D01*
X89722000Y-72796400D02*
X87062000Y-72796400D01*
X89722000Y-74066400D02*
X89722000Y-75396400D01*
X89722000Y-75396400D02*
X88392000Y-75396400D01*
%TO.C,U1*%
X64614700Y-74534700D02*
X43614700Y-74534700D01*
X57814700Y-23534700D02*
X64614700Y-23534700D01*
X64614700Y-71867700D02*
X61607700Y-71867700D01*
X61607700Y-71867700D02*
X61607700Y-74534700D01*
X64614700Y-74534700D02*
X64614700Y-74234700D01*
X64614700Y-72134700D02*
X64614700Y-71734700D01*
X64614700Y-69534700D02*
X64614700Y-69134700D01*
X64614700Y-67034700D02*
X64614700Y-66634700D01*
X64614700Y-64434700D02*
X64614700Y-64034700D01*
X64614700Y-61934700D02*
X64614700Y-61534700D01*
X64614700Y-59434700D02*
X64614700Y-59034700D01*
X64614700Y-56834700D02*
X64614700Y-56434700D01*
X64614700Y-54334700D02*
X64614700Y-53934700D01*
X64614700Y-51734700D02*
X64614700Y-51334700D01*
X64614700Y-49234700D02*
X64614700Y-48834700D01*
X64614700Y-46734700D02*
X64614700Y-46334700D01*
X64614700Y-44134700D02*
X64614700Y-43734700D01*
X64614700Y-41634700D02*
X64614700Y-41234700D01*
X64614700Y-39034700D02*
X64614700Y-38634700D01*
X64614700Y-36534700D02*
X64614700Y-36134700D01*
X64614700Y-33934700D02*
X64614700Y-33534700D01*
X64614700Y-31434700D02*
X64614700Y-31034700D01*
X64614700Y-28934700D02*
X64614700Y-28534700D01*
X64614700Y-26334700D02*
X64614700Y-25934700D01*
X43614700Y-59434700D02*
X43614700Y-59034700D01*
X43614700Y-54334700D02*
X43614700Y-53934700D01*
X43614700Y-46734700D02*
X43614700Y-46334700D01*
X43614700Y-39034700D02*
X43614700Y-38634700D01*
X43614700Y-69534700D02*
X43614700Y-69134700D01*
X43614700Y-72134700D02*
X43614700Y-71734700D01*
X43614700Y-64434700D02*
X43614700Y-64034700D01*
X43614700Y-31434700D02*
X43614700Y-31034700D01*
X43614700Y-26334700D02*
X43614700Y-25934700D01*
X43614700Y-28934700D02*
X43614700Y-28534700D01*
X43614700Y-44134700D02*
X43614700Y-43734700D01*
X43614700Y-49234700D02*
X43614700Y-48834700D01*
X43614700Y-61934700D02*
X43614700Y-61534700D01*
X43614700Y-56834700D02*
X43614700Y-56434700D01*
X43614700Y-36534700D02*
X43614700Y-36134700D01*
X43614700Y-51734700D02*
X43614700Y-51334700D01*
X43614700Y-74534700D02*
X43614700Y-74234700D01*
X43614700Y-67034700D02*
X43614700Y-66634700D01*
X43614700Y-41634700D02*
X43614700Y-41234700D01*
X43614700Y-33934700D02*
X43614700Y-33534700D01*
X43614700Y-23534700D02*
X50414700Y-23534700D01*
X55614700Y-23534700D02*
X55214700Y-23534700D01*
X53014700Y-23534700D02*
X52614700Y-23534700D01*
%TO.C,K6*%
D10*
X45362904Y-80944980D02*
X45362904Y-79944980D01*
X45934333Y-80944980D02*
X45505761Y-80373552D01*
X45934333Y-79944980D02*
X45362904Y-80516409D01*
X46791476Y-79944980D02*
X46601000Y-79944980D01*
X46505761Y-79992600D01*
X46458142Y-80040219D01*
X46362904Y-80183076D01*
X46315285Y-80373552D01*
X46315285Y-80754504D01*
X46362904Y-80849742D01*
X46410523Y-80897361D01*
X46505761Y-80944980D01*
X46696238Y-80944980D01*
X46791476Y-80897361D01*
X46839095Y-80849742D01*
X46886714Y-80754504D01*
X46886714Y-80516409D01*
X46839095Y-80421171D01*
X46791476Y-80373552D01*
X46696238Y-80325933D01*
X46505761Y-80325933D01*
X46410523Y-80373552D01*
X46362904Y-80421171D01*
X46315285Y-80516409D01*
%TO.C,K4*%
X39322226Y-27401149D02*
X40029332Y-26694042D01*
X39726287Y-27805210D02*
X39827302Y-27098103D01*
X40433394Y-27098103D02*
X39625271Y-27098103D01*
X40803783Y-27939897D02*
X40332378Y-28411302D01*
X40904798Y-27502164D02*
X40231363Y-27838882D01*
X40669096Y-28276615D01*
%TO.C,K3*%
X18769104Y-49328780D02*
X18769104Y-48328780D01*
X19340533Y-49328780D02*
X18911961Y-48757352D01*
X19340533Y-48328780D02*
X18769104Y-48900209D01*
X19673866Y-48328780D02*
X20292914Y-48328780D01*
X19959580Y-48709733D01*
X20102438Y-48709733D01*
X20197676Y-48757352D01*
X20245295Y-48804971D01*
X20292914Y-48900209D01*
X20292914Y-49138304D01*
X20245295Y-49233542D01*
X20197676Y-49281161D01*
X20102438Y-49328780D01*
X19816723Y-49328780D01*
X19721485Y-49281161D01*
X19673866Y-49233542D01*
%TO.C,K2*%
X67558549Y-28521173D02*
X66851442Y-27814067D01*
X67962610Y-28117112D02*
X67255503Y-28016097D01*
X67255503Y-27410005D02*
X67255503Y-28218128D01*
X67592221Y-27207975D02*
X67592221Y-27140631D01*
X67625892Y-27039616D01*
X67794251Y-26871257D01*
X67895267Y-26837586D01*
X67962610Y-26837586D01*
X68063625Y-26871257D01*
X68130969Y-26938601D01*
X68198312Y-27073288D01*
X68198312Y-27881410D01*
X68636045Y-27443677D01*
%TO.C,K1*%
X87653904Y-76848780D02*
X87653904Y-75848780D01*
X88225333Y-76848780D02*
X87796761Y-76277352D01*
X88225333Y-75848780D02*
X87653904Y-76420209D01*
X89177714Y-76848780D02*
X88606285Y-76848780D01*
X88892000Y-76848780D02*
X88892000Y-75848780D01*
X88796761Y-75991638D01*
X88701523Y-76086876D01*
X88606285Y-76134495D01*
%TO.C,U1*%
X53352795Y-48487080D02*
X53352795Y-49296604D01*
X53400414Y-49391842D01*
X53448033Y-49439461D01*
X53543271Y-49487080D01*
X53733747Y-49487080D01*
X53828985Y-49439461D01*
X53876604Y-49391842D01*
X53924223Y-49296604D01*
X53924223Y-48487080D01*
X54924223Y-49487080D02*
X54352795Y-49487080D01*
X54638509Y-49487080D02*
X54638509Y-48487080D01*
X54543271Y-48629938D01*
X54448033Y-48725176D01*
X54352795Y-48772795D01*
X48672961Y-21596309D02*
X48787247Y-21634404D01*
X48977723Y-21634404D01*
X49053914Y-21596309D01*
X49092009Y-21558214D01*
X49130104Y-21482023D01*
X49130104Y-21405833D01*
X49092009Y-21329642D01*
X49053914Y-21291547D01*
X48977723Y-21253452D01*
X48825342Y-21215357D01*
X48749152Y-21177261D01*
X48711057Y-21139166D01*
X48672961Y-21062976D01*
X48672961Y-20986785D01*
X48711057Y-20910595D01*
X48749152Y-20872500D01*
X48825342Y-20834404D01*
X49015819Y-20834404D01*
X49130104Y-20872500D01*
X49396771Y-20834404D02*
X49587247Y-21634404D01*
X49739628Y-21062976D01*
X49892009Y-21634404D01*
X50082485Y-20834404D01*
X50387247Y-21634404D02*
X50387247Y-20834404D01*
X50577723Y-20834404D01*
X50692009Y-20872500D01*
X50768200Y-20948690D01*
X50806295Y-21024880D01*
X50844390Y-21177261D01*
X50844390Y-21291547D01*
X50806295Y-21443928D01*
X50768200Y-21520119D01*
X50692009Y-21596309D01*
X50577723Y-21634404D01*
X50387247Y-21634404D01*
X51187247Y-21634404D02*
X51187247Y-20834404D01*
X51720580Y-20834404D02*
X51872961Y-20834404D01*
X51949152Y-20872500D01*
X52025342Y-20948690D01*
X52063438Y-21101071D01*
X52063438Y-21367738D01*
X52025342Y-21520119D01*
X51949152Y-21596309D01*
X51872961Y-21634404D01*
X51720580Y-21634404D01*
X51644390Y-21596309D01*
X51568200Y-21520119D01*
X51530104Y-21367738D01*
X51530104Y-21101071D01*
X51568200Y-20948690D01*
X51644390Y-20872500D01*
X51720580Y-20834404D01*
X56102476Y-21532809D02*
X56216761Y-21570904D01*
X56407238Y-21570904D01*
X56483428Y-21532809D01*
X56521523Y-21494714D01*
X56559619Y-21418523D01*
X56559619Y-21342333D01*
X56521523Y-21266142D01*
X56483428Y-21228047D01*
X56407238Y-21189952D01*
X56254857Y-21151857D01*
X56178666Y-21113761D01*
X56140571Y-21075666D01*
X56102476Y-20999476D01*
X56102476Y-20923285D01*
X56140571Y-20847095D01*
X56178666Y-20809000D01*
X56254857Y-20770904D01*
X56445333Y-20770904D01*
X56559619Y-20809000D01*
X56826285Y-20770904D02*
X57016761Y-21570904D01*
X57169142Y-20999476D01*
X57321523Y-21570904D01*
X57512000Y-20770904D01*
X58273904Y-21494714D02*
X58235809Y-21532809D01*
X58121523Y-21570904D01*
X58045333Y-21570904D01*
X57931047Y-21532809D01*
X57854857Y-21456619D01*
X57816761Y-21380428D01*
X57778666Y-21228047D01*
X57778666Y-21113761D01*
X57816761Y-20961380D01*
X57854857Y-20885190D01*
X57931047Y-20809000D01*
X58045333Y-20770904D01*
X58121523Y-20770904D01*
X58235809Y-20809000D01*
X58273904Y-20847095D01*
X58997714Y-21570904D02*
X58616761Y-21570904D01*
X58616761Y-20770904D01*
X59264380Y-21570904D02*
X59264380Y-20770904D01*
X59721523Y-21570904D02*
X59378666Y-21113761D01*
X59721523Y-20770904D02*
X59264380Y-21228047D01*
X40158297Y-56475664D02*
X40427671Y-56206290D01*
X40266046Y-56691163D02*
X39888923Y-55936916D01*
X40643170Y-56314040D01*
X40589295Y-55290419D02*
X40508483Y-55317356D01*
X40427671Y-55398168D01*
X40373796Y-55505918D01*
X40373796Y-55613667D01*
X40400733Y-55694480D01*
X40481545Y-55829167D01*
X40562358Y-55909979D01*
X40697045Y-55990791D01*
X40777857Y-56017728D01*
X40885606Y-56017728D01*
X40993356Y-55963854D01*
X41047231Y-55909979D01*
X41101106Y-55802229D01*
X41101106Y-55748354D01*
X40912544Y-55559793D01*
X40804794Y-55667542D01*
X41397417Y-55559793D02*
X40831732Y-54994107D01*
X41720666Y-55236544D01*
X41154980Y-54670858D01*
X41990040Y-54967170D02*
X41424354Y-54401484D01*
X41559041Y-54266797D01*
X41666791Y-54212923D01*
X41774541Y-54212923D01*
X41855353Y-54239860D01*
X41990040Y-54320672D01*
X42070852Y-54401484D01*
X42151664Y-54536171D01*
X42178602Y-54616984D01*
X42178602Y-54724733D01*
X42124727Y-54832483D01*
X41990040Y-54967170D01*
X40600858Y-68232855D02*
X40520046Y-68259793D01*
X40439234Y-68340605D01*
X40385359Y-68448354D01*
X40385359Y-68556104D01*
X40412297Y-68636916D01*
X40493109Y-68771603D01*
X40573921Y-68852415D01*
X40708608Y-68933228D01*
X40789420Y-68960165D01*
X40897170Y-68960165D01*
X41004919Y-68906290D01*
X41058794Y-68852415D01*
X41112669Y-68744666D01*
X41112669Y-68690791D01*
X40924107Y-68502229D01*
X40816358Y-68609979D01*
X41408980Y-68502229D02*
X40843295Y-67936544D01*
X41732229Y-68178980D01*
X41166544Y-67613295D01*
X42001603Y-67909606D02*
X41435918Y-67343921D01*
X41570605Y-67209234D01*
X41678354Y-67155359D01*
X41786104Y-67155359D01*
X41866916Y-67182297D01*
X42001603Y-67263109D01*
X42082415Y-67343921D01*
X42163228Y-67478608D01*
X42190165Y-67559420D01*
X42190165Y-67667170D01*
X42136290Y-67774919D01*
X42001603Y-67909606D01*
X40600858Y-42832855D02*
X40520046Y-42859793D01*
X40439234Y-42940605D01*
X40385359Y-43048354D01*
X40385359Y-43156104D01*
X40412297Y-43236916D01*
X40493109Y-43371603D01*
X40573921Y-43452415D01*
X40708608Y-43533228D01*
X40789420Y-43560165D01*
X40897170Y-43560165D01*
X41004919Y-43506290D01*
X41058794Y-43452415D01*
X41112669Y-43344666D01*
X41112669Y-43290791D01*
X40924107Y-43102229D01*
X40816358Y-43209979D01*
X41408980Y-43102229D02*
X40843295Y-42536544D01*
X41732229Y-42778980D01*
X41166544Y-42213295D01*
X42001603Y-42509606D02*
X41435918Y-41943921D01*
X41570605Y-41809234D01*
X41678354Y-41755359D01*
X41786104Y-41755359D01*
X41866916Y-41782297D01*
X42001603Y-41863109D01*
X42082415Y-41943921D01*
X42163228Y-42078608D01*
X42190165Y-42159420D01*
X42190165Y-42267170D01*
X42136290Y-42374919D01*
X42001603Y-42509606D01*
X46796858Y-29370855D02*
X46716046Y-29397793D01*
X46635234Y-29478605D01*
X46581359Y-29586354D01*
X46581359Y-29694104D01*
X46608297Y-29774916D01*
X46689109Y-29909603D01*
X46769921Y-29990415D01*
X46904608Y-30071228D01*
X46985420Y-30098165D01*
X47093170Y-30098165D01*
X47200919Y-30044290D01*
X47254794Y-29990415D01*
X47308669Y-29882666D01*
X47308669Y-29828791D01*
X47120107Y-29640229D01*
X47012358Y-29747979D01*
X47604980Y-29640229D02*
X47039295Y-29074544D01*
X47928229Y-29316980D01*
X47362544Y-28751295D01*
X48197603Y-29047606D02*
X47631918Y-28481921D01*
X47766605Y-28347234D01*
X47874354Y-28293359D01*
X47982104Y-28293359D01*
X48062916Y-28320297D01*
X48197603Y-28401109D01*
X48278415Y-28481921D01*
X48359228Y-28616608D01*
X48386165Y-28697420D01*
X48386165Y-28805170D01*
X48332290Y-28912919D01*
X48197603Y-29047606D01*
X60093758Y-30450355D02*
X60012946Y-30477293D01*
X59932134Y-30558105D01*
X59878259Y-30665854D01*
X59878259Y-30773604D01*
X59905197Y-30854416D01*
X59986009Y-30989103D01*
X60066821Y-31069915D01*
X60201508Y-31150728D01*
X60282320Y-31177665D01*
X60390070Y-31177665D01*
X60497819Y-31123790D01*
X60551694Y-31069915D01*
X60605569Y-30962166D01*
X60605569Y-30908291D01*
X60417007Y-30719729D01*
X60309258Y-30827479D01*
X60901880Y-30719729D02*
X60336195Y-30154044D01*
X61225129Y-30396480D01*
X60659444Y-29830795D01*
X61494503Y-30127106D02*
X60928818Y-29561421D01*
X61063505Y-29426734D01*
X61171254Y-29372859D01*
X61279004Y-29372859D01*
X61359816Y-29399797D01*
X61494503Y-29480609D01*
X61575315Y-29561421D01*
X61656128Y-29696108D01*
X61683065Y-29776920D01*
X61683065Y-29884670D01*
X61629190Y-29992419D01*
X61494503Y-30127106D01*
X66200858Y-42832855D02*
X66120046Y-42859793D01*
X66039234Y-42940605D01*
X65985359Y-43048354D01*
X65985359Y-43156104D01*
X66012297Y-43236916D01*
X66093109Y-43371603D01*
X66173921Y-43452415D01*
X66308608Y-43533228D01*
X66389420Y-43560165D01*
X66497170Y-43560165D01*
X66604919Y-43506290D01*
X66658794Y-43452415D01*
X66712669Y-43344666D01*
X66712669Y-43290791D01*
X66524107Y-43102229D01*
X66416358Y-43209979D01*
X67008980Y-43102229D02*
X66443295Y-42536544D01*
X67332229Y-42778980D01*
X66766544Y-42213295D01*
X67601603Y-42509606D02*
X67035918Y-41943921D01*
X67170605Y-41809234D01*
X67278354Y-41755359D01*
X67386104Y-41755359D01*
X67466916Y-41782297D01*
X67601603Y-41863109D01*
X67682415Y-41943921D01*
X67763228Y-42078608D01*
X67790165Y-42159420D01*
X67790165Y-42267170D01*
X67736290Y-42374919D01*
X67601603Y-42509606D01*
X66200858Y-55532855D02*
X66120046Y-55559793D01*
X66039234Y-55640605D01*
X65985359Y-55748354D01*
X65985359Y-55856104D01*
X66012297Y-55936916D01*
X66093109Y-56071603D01*
X66173921Y-56152415D01*
X66308608Y-56233228D01*
X66389420Y-56260165D01*
X66497170Y-56260165D01*
X66604919Y-56206290D01*
X66658794Y-56152415D01*
X66712669Y-56044666D01*
X66712669Y-55990791D01*
X66524107Y-55802229D01*
X66416358Y-55909979D01*
X67008980Y-55802229D02*
X66443295Y-55236544D01*
X67332229Y-55478980D01*
X66766544Y-54913295D01*
X67601603Y-55209606D02*
X67035918Y-54643921D01*
X67170605Y-54509234D01*
X67278354Y-54455359D01*
X67386104Y-54455359D01*
X67466916Y-54482297D01*
X67601603Y-54563109D01*
X67682415Y-54643921D01*
X67763228Y-54778608D01*
X67790165Y-54859420D01*
X67790165Y-54967170D01*
X67736290Y-55074919D01*
X67601603Y-55209606D01*
X66200858Y-68232855D02*
X66120046Y-68259793D01*
X66039234Y-68340605D01*
X65985359Y-68448354D01*
X65985359Y-68556104D01*
X66012297Y-68636916D01*
X66093109Y-68771603D01*
X66173921Y-68852415D01*
X66308608Y-68933228D01*
X66389420Y-68960165D01*
X66497170Y-68960165D01*
X66604919Y-68906290D01*
X66658794Y-68852415D01*
X66712669Y-68744666D01*
X66712669Y-68690791D01*
X66524107Y-68502229D01*
X66416358Y-68609979D01*
X67008980Y-68502229D02*
X66443295Y-67936544D01*
X67332229Y-68178980D01*
X66766544Y-67613295D01*
X67601603Y-67909606D02*
X67035918Y-67343921D01*
X67170605Y-67209234D01*
X67278354Y-67155359D01*
X67386104Y-67155359D01*
X67466916Y-67182297D01*
X67601603Y-67263109D01*
X67682415Y-67343921D01*
X67763228Y-67478608D01*
X67790165Y-67559420D01*
X67790165Y-67667170D01*
X67736290Y-67774919D01*
X67601603Y-67909606D01*
X39467829Y-73962009D02*
X40222077Y-74339133D01*
X39844953Y-73584886D01*
X40491451Y-73477136D02*
X40599200Y-73423261D01*
X40653075Y-73423261D01*
X40733887Y-73450199D01*
X40814700Y-73531011D01*
X40841637Y-73611823D01*
X40841637Y-73665698D01*
X40814700Y-73746510D01*
X40599200Y-73962009D01*
X40033515Y-73396324D01*
X40222077Y-73207762D01*
X40302889Y-73180825D01*
X40356764Y-73180825D01*
X40437576Y-73207762D01*
X40491451Y-73261637D01*
X40518388Y-73342449D01*
X40518388Y-73396324D01*
X40491451Y-73477136D01*
X40302889Y-73665698D01*
X40599200Y-72830638D02*
X41057136Y-73288574D01*
X41137948Y-73315512D01*
X41191823Y-73315512D01*
X41272635Y-73288574D01*
X41380385Y-73180825D01*
X41407322Y-73100012D01*
X41407322Y-73046138D01*
X41380385Y-72965325D01*
X40922449Y-72507390D01*
X41703634Y-72803701D02*
X41811383Y-72749826D01*
X41946070Y-72615139D01*
X41973008Y-72534327D01*
X41973008Y-72480452D01*
X41946070Y-72399640D01*
X41892196Y-72345765D01*
X41811383Y-72318828D01*
X41757509Y-72318828D01*
X41676696Y-72345765D01*
X41542009Y-72426577D01*
X41461197Y-72453515D01*
X41407322Y-72453515D01*
X41326510Y-72426577D01*
X41272635Y-72372703D01*
X41245698Y-72291890D01*
X41245698Y-72238016D01*
X41272635Y-72157203D01*
X41407322Y-72022516D01*
X41515072Y-71968642D01*
X39635173Y-71284666D02*
X40389420Y-71661789D01*
X40012297Y-70907542D01*
X40712669Y-71284666D02*
X40820419Y-71230791D01*
X40955106Y-71096104D01*
X40982043Y-71015292D01*
X40982043Y-70961417D01*
X40955106Y-70880605D01*
X40901231Y-70826730D01*
X40820419Y-70799793D01*
X40766544Y-70799793D01*
X40685732Y-70826730D01*
X40551045Y-70907542D01*
X40470232Y-70934480D01*
X40416358Y-70934480D01*
X40335545Y-70907542D01*
X40281671Y-70853667D01*
X40254733Y-70772855D01*
X40254733Y-70718980D01*
X40281671Y-70638168D01*
X40416358Y-70503481D01*
X40524107Y-70449606D01*
X41143667Y-70368794D02*
X41413041Y-70638168D01*
X40658794Y-70261045D02*
X41143667Y-70368794D01*
X41035918Y-69883921D01*
X41736290Y-70261045D02*
X41844040Y-70207170D01*
X41978727Y-70072483D01*
X42005664Y-69991671D01*
X42005664Y-69937796D01*
X41978727Y-69856984D01*
X41924852Y-69803109D01*
X41844040Y-69776171D01*
X41790165Y-69776171D01*
X41709353Y-69803109D01*
X41574666Y-69883921D01*
X41493854Y-69910858D01*
X41439979Y-69910858D01*
X41359167Y-69883921D01*
X41305292Y-69830046D01*
X41278354Y-69749234D01*
X41278354Y-69695359D01*
X41305292Y-69614547D01*
X41439979Y-69479860D01*
X41547728Y-69425985D01*
X38636831Y-67393008D02*
X38987017Y-67042822D01*
X39013955Y-67446883D01*
X39094767Y-67366070D01*
X39175579Y-67339133D01*
X39229454Y-67339133D01*
X39310266Y-67366070D01*
X39444953Y-67500757D01*
X39471890Y-67581570D01*
X39471890Y-67635444D01*
X39444953Y-67716257D01*
X39283329Y-67877881D01*
X39202516Y-67904818D01*
X39148642Y-67904818D01*
X39148642Y-66881197D02*
X39902889Y-67258321D01*
X39525765Y-66504074D01*
X39660452Y-66369387D02*
X40010638Y-66019200D01*
X40037576Y-66423261D01*
X40118388Y-66342449D01*
X40199200Y-66315512D01*
X40253075Y-66315512D01*
X40333887Y-66342449D01*
X40468574Y-66477136D01*
X40495512Y-66557948D01*
X40495512Y-66611823D01*
X40468574Y-66692635D01*
X40306950Y-66854260D01*
X40226138Y-66881197D01*
X40172263Y-66881197D01*
X40737948Y-66531011D02*
X41168947Y-66100012D01*
X40953448Y-65615139D02*
X41142009Y-65426577D01*
X41519133Y-65642077D02*
X41249759Y-65911451D01*
X40684074Y-65345765D01*
X40953448Y-65076391D01*
X41761570Y-65399640D02*
X41195884Y-64833955D01*
X42084818Y-65076391D01*
X41519133Y-64510706D01*
X40204547Y-63325292D02*
X40554733Y-62975106D01*
X40581671Y-63379167D01*
X40662483Y-63298354D01*
X40743295Y-63271417D01*
X40797170Y-63271417D01*
X40877982Y-63298354D01*
X41012669Y-63433041D01*
X41039606Y-63513854D01*
X41039606Y-63567728D01*
X41012669Y-63648541D01*
X40851045Y-63810165D01*
X40770232Y-63837102D01*
X40716358Y-63837102D01*
X40716358Y-62813481D02*
X41470605Y-63190605D01*
X41093481Y-62436358D01*
X41228168Y-62301671D02*
X41578354Y-61951484D01*
X41605292Y-62355545D01*
X41686104Y-62274733D01*
X41766916Y-62247796D01*
X41820791Y-62247796D01*
X41901603Y-62274733D01*
X42036290Y-62409420D01*
X42063228Y-62490232D01*
X42063228Y-62544107D01*
X42036290Y-62624919D01*
X41874666Y-62786544D01*
X41793854Y-62813481D01*
X41739979Y-62813481D01*
X38269488Y-63568473D02*
X38538862Y-63299099D01*
X38377237Y-63783972D02*
X38000114Y-63029725D01*
X38754361Y-63406849D01*
X38942923Y-63218287D02*
X38377237Y-62652602D01*
X38511924Y-62517915D01*
X38619674Y-62464040D01*
X38727423Y-62464040D01*
X38808236Y-62490977D01*
X38942923Y-62571789D01*
X39023735Y-62652602D01*
X39104547Y-62787289D01*
X39131484Y-62868101D01*
X39131484Y-62975850D01*
X39077610Y-63083600D01*
X38942923Y-63218287D01*
X39777982Y-62275478D02*
X39777982Y-62329353D01*
X39724107Y-62437102D01*
X39670232Y-62490977D01*
X39562483Y-62544852D01*
X39454733Y-62544852D01*
X39373921Y-62517915D01*
X39239234Y-62437102D01*
X39158422Y-62356290D01*
X39077610Y-62221603D01*
X39050672Y-62140791D01*
X39050672Y-62033041D01*
X39104547Y-61925292D01*
X39158422Y-61871417D01*
X39266171Y-61817542D01*
X39320046Y-61817542D01*
X39993481Y-62275478D02*
X40424480Y-61844480D01*
X39858794Y-61171045D02*
X40613041Y-61548168D01*
X40235918Y-60793921D01*
X41313414Y-60847796D02*
X40855478Y-60766984D01*
X40990165Y-61171045D02*
X40424480Y-60605359D01*
X40639979Y-60389860D01*
X40720791Y-60362923D01*
X40774666Y-60362923D01*
X40855478Y-60389860D01*
X40936290Y-60470672D01*
X40963228Y-60551484D01*
X40963228Y-60605359D01*
X40936290Y-60686171D01*
X40720791Y-60901671D01*
X41259539Y-60309048D02*
X41448101Y-60120486D01*
X41825224Y-60335985D02*
X41555850Y-60605359D01*
X40990165Y-60039674D01*
X41259539Y-59770300D01*
X41959911Y-59608675D02*
X41771350Y-59797237D01*
X42067661Y-60093549D02*
X41501976Y-59527863D01*
X41771350Y-59258489D01*
X40104422Y-58569292D02*
X40023610Y-58596229D01*
X39942797Y-58677041D01*
X39888923Y-58784791D01*
X39888923Y-58892541D01*
X39915860Y-58973353D01*
X39996672Y-59108040D01*
X40077484Y-59188852D01*
X40212171Y-59269664D01*
X40292984Y-59296602D01*
X40400733Y-59296602D01*
X40508483Y-59242727D01*
X40562358Y-59188852D01*
X40616232Y-59081102D01*
X40616232Y-59027228D01*
X40427671Y-58838666D01*
X40319921Y-58946415D01*
X40912544Y-58838666D02*
X40346858Y-58272980D01*
X40562358Y-58057481D01*
X40643170Y-58030544D01*
X40697045Y-58030544D01*
X40777857Y-58057481D01*
X40858669Y-58138293D01*
X40885606Y-58219106D01*
X40885606Y-58272980D01*
X40858669Y-58353793D01*
X40643170Y-58569292D01*
X40939481Y-57788107D02*
X40939481Y-57734232D01*
X40966419Y-57653420D01*
X41101106Y-57518733D01*
X41181918Y-57491796D01*
X41235793Y-57491796D01*
X41316605Y-57518733D01*
X41370480Y-57572608D01*
X41424354Y-57680358D01*
X41424354Y-58326855D01*
X41774541Y-57976669D01*
X41774541Y-57330171D02*
X41693728Y-57357109D01*
X41639854Y-57357109D01*
X41559041Y-57330171D01*
X41532104Y-57303234D01*
X41505167Y-57222422D01*
X41505167Y-57168547D01*
X41532104Y-57087735D01*
X41639854Y-56979985D01*
X41720666Y-56953048D01*
X41774541Y-56953048D01*
X41855353Y-56979985D01*
X41882290Y-57006923D01*
X41909228Y-57087735D01*
X41909228Y-57141610D01*
X41882290Y-57222422D01*
X41774541Y-57330171D01*
X41747603Y-57410984D01*
X41747603Y-57464858D01*
X41774541Y-57545671D01*
X41882290Y-57653420D01*
X41963102Y-57680358D01*
X42016977Y-57680358D01*
X42097789Y-57653420D01*
X42205539Y-57545671D01*
X42232476Y-57464858D01*
X42232476Y-57410984D01*
X42205539Y-57330171D01*
X42097789Y-57222422D01*
X42016977Y-57195484D01*
X41963102Y-57195484D01*
X41882290Y-57222422D01*
X40104422Y-53225292D02*
X40023610Y-53252229D01*
X39942797Y-53333041D01*
X39888923Y-53440791D01*
X39888923Y-53548541D01*
X39915860Y-53629353D01*
X39996672Y-53764040D01*
X40077484Y-53844852D01*
X40212171Y-53925664D01*
X40292984Y-53952602D01*
X40400733Y-53952602D01*
X40508483Y-53898727D01*
X40562358Y-53844852D01*
X40616232Y-53737102D01*
X40616232Y-53683228D01*
X40427671Y-53494666D01*
X40319921Y-53602415D01*
X40912544Y-53494666D02*
X40346858Y-52928980D01*
X40562358Y-52713481D01*
X40643170Y-52686544D01*
X40697045Y-52686544D01*
X40777857Y-52713481D01*
X40858669Y-52794293D01*
X40885606Y-52875106D01*
X40885606Y-52928980D01*
X40858669Y-53009793D01*
X40643170Y-53225292D01*
X40939481Y-52444107D02*
X40939481Y-52390232D01*
X40966419Y-52309420D01*
X41101106Y-52174733D01*
X41181918Y-52147796D01*
X41235793Y-52147796D01*
X41316605Y-52174733D01*
X41370480Y-52228608D01*
X41424354Y-52336358D01*
X41424354Y-52982855D01*
X41774541Y-52632669D01*
X41397417Y-51878422D02*
X41774541Y-51501298D01*
X42097789Y-52309420D01*
X40104422Y-50695292D02*
X40023610Y-50722229D01*
X39942797Y-50803041D01*
X39888923Y-50910791D01*
X39888923Y-51018541D01*
X39915860Y-51099353D01*
X39996672Y-51234040D01*
X40077484Y-51314852D01*
X40212171Y-51395664D01*
X40292984Y-51422602D01*
X40400733Y-51422602D01*
X40508483Y-51368727D01*
X40562358Y-51314852D01*
X40616232Y-51207102D01*
X40616232Y-51153228D01*
X40427671Y-50964666D01*
X40319921Y-51072415D01*
X40912544Y-50964666D02*
X40346858Y-50398980D01*
X40562358Y-50183481D01*
X40643170Y-50156544D01*
X40697045Y-50156544D01*
X40777857Y-50183481D01*
X40858669Y-50264293D01*
X40885606Y-50345106D01*
X40885606Y-50398980D01*
X40858669Y-50479793D01*
X40643170Y-50695292D01*
X40939481Y-49914107D02*
X40939481Y-49860232D01*
X40966419Y-49779420D01*
X41101106Y-49644733D01*
X41181918Y-49617796D01*
X41235793Y-49617796D01*
X41316605Y-49644733D01*
X41370480Y-49698608D01*
X41424354Y-49806358D01*
X41424354Y-50452855D01*
X41774541Y-50102669D01*
X41693728Y-49052110D02*
X41585979Y-49159860D01*
X41559041Y-49240672D01*
X41559041Y-49294547D01*
X41585979Y-49429234D01*
X41666791Y-49563921D01*
X41882290Y-49779420D01*
X41963102Y-49806358D01*
X42016977Y-49806358D01*
X42097789Y-49779420D01*
X42205539Y-49671671D01*
X42232476Y-49590858D01*
X42232476Y-49536984D01*
X42205539Y-49456171D01*
X42070852Y-49321484D01*
X41990040Y-49294547D01*
X41936165Y-49294547D01*
X41855353Y-49321484D01*
X41747603Y-49429234D01*
X41720666Y-49510046D01*
X41720666Y-49563921D01*
X41747603Y-49644733D01*
X40953075Y-48438135D02*
X40495139Y-48357322D01*
X40629826Y-48761383D02*
X40064141Y-48195698D01*
X40279640Y-47980199D01*
X40360452Y-47953261D01*
X40414327Y-47953261D01*
X40495139Y-47980199D01*
X40575951Y-48061011D01*
X40602889Y-48141823D01*
X40602889Y-48195698D01*
X40575951Y-48276510D01*
X40360452Y-48492009D01*
X40629826Y-47630012D02*
X41087762Y-48087948D01*
X41168574Y-48114886D01*
X41222449Y-48114886D01*
X41303261Y-48087948D01*
X41411011Y-47980199D01*
X41437948Y-47899387D01*
X41437948Y-47845512D01*
X41411011Y-47764700D01*
X40953075Y-47306764D01*
X41788135Y-47603075D02*
X41222449Y-47037390D01*
X42111383Y-47279826D01*
X41545698Y-46714141D01*
X40104422Y-45615292D02*
X40023610Y-45642229D01*
X39942797Y-45723041D01*
X39888923Y-45830791D01*
X39888923Y-45938541D01*
X39915860Y-46019353D01*
X39996672Y-46154040D01*
X40077484Y-46234852D01*
X40212171Y-46315664D01*
X40292984Y-46342602D01*
X40400733Y-46342602D01*
X40508483Y-46288727D01*
X40562358Y-46234852D01*
X40616232Y-46127102D01*
X40616232Y-46073228D01*
X40427671Y-45884666D01*
X40319921Y-45992415D01*
X40912544Y-45884666D02*
X40346858Y-45318980D01*
X40562358Y-45103481D01*
X40643170Y-45076544D01*
X40697045Y-45076544D01*
X40777857Y-45103481D01*
X40858669Y-45184293D01*
X40885606Y-45265106D01*
X40885606Y-45318980D01*
X40858669Y-45399793D01*
X40643170Y-45615292D01*
X40939481Y-44834107D02*
X40939481Y-44780232D01*
X40966419Y-44699420D01*
X41101106Y-44564733D01*
X41181918Y-44537796D01*
X41235793Y-44537796D01*
X41316605Y-44564733D01*
X41370480Y-44618608D01*
X41424354Y-44726358D01*
X41424354Y-45372855D01*
X41774541Y-45022669D01*
X41478229Y-44295359D02*
X41478229Y-44241484D01*
X41505167Y-44160672D01*
X41639854Y-44025985D01*
X41720666Y-43999048D01*
X41774541Y-43999048D01*
X41855353Y-44025985D01*
X41909228Y-44079860D01*
X41963102Y-44187610D01*
X41963102Y-44834107D01*
X42313289Y-44483921D01*
X40104422Y-40525292D02*
X40023610Y-40552229D01*
X39942797Y-40633041D01*
X39888923Y-40740791D01*
X39888923Y-40848541D01*
X39915860Y-40929353D01*
X39996672Y-41064040D01*
X40077484Y-41144852D01*
X40212171Y-41225664D01*
X40292984Y-41252602D01*
X40400733Y-41252602D01*
X40508483Y-41198727D01*
X40562358Y-41144852D01*
X40616232Y-41037102D01*
X40616232Y-40983228D01*
X40427671Y-40794666D01*
X40319921Y-40902415D01*
X40912544Y-40794666D02*
X40346858Y-40228980D01*
X40562358Y-40013481D01*
X40643170Y-39986544D01*
X40697045Y-39986544D01*
X40777857Y-40013481D01*
X40858669Y-40094293D01*
X40885606Y-40175106D01*
X40885606Y-40228980D01*
X40858669Y-40309793D01*
X40643170Y-40525292D01*
X40939481Y-39744107D02*
X40939481Y-39690232D01*
X40966419Y-39609420D01*
X41101106Y-39474733D01*
X41181918Y-39447796D01*
X41235793Y-39447796D01*
X41316605Y-39474733D01*
X41370480Y-39528608D01*
X41424354Y-39636358D01*
X41424354Y-40282855D01*
X41774541Y-39932669D01*
X42313289Y-39393921D02*
X41990040Y-39717170D01*
X42151664Y-39555545D02*
X41585979Y-38989860D01*
X41612916Y-39124547D01*
X41612916Y-39232297D01*
X41585979Y-39313109D01*
X40104422Y-37995292D02*
X40023610Y-38022229D01*
X39942797Y-38103041D01*
X39888923Y-38210791D01*
X39888923Y-38318541D01*
X39915860Y-38399353D01*
X39996672Y-38534040D01*
X40077484Y-38614852D01*
X40212171Y-38695664D01*
X40292984Y-38722602D01*
X40400733Y-38722602D01*
X40508483Y-38668727D01*
X40562358Y-38614852D01*
X40616232Y-38507102D01*
X40616232Y-38453228D01*
X40427671Y-38264666D01*
X40319921Y-38372415D01*
X40912544Y-38264666D02*
X40346858Y-37698980D01*
X40562358Y-37483481D01*
X40643170Y-37456544D01*
X40697045Y-37456544D01*
X40777857Y-37483481D01*
X40858669Y-37564293D01*
X40885606Y-37645106D01*
X40885606Y-37698980D01*
X40858669Y-37779793D01*
X40643170Y-37995292D01*
X40939481Y-37214107D02*
X40939481Y-37160232D01*
X40966419Y-37079420D01*
X41101106Y-36944733D01*
X41181918Y-36917796D01*
X41235793Y-36917796D01*
X41316605Y-36944733D01*
X41370480Y-36998608D01*
X41424354Y-37106358D01*
X41424354Y-37752855D01*
X41774541Y-37402669D01*
X41559041Y-36486797D02*
X41612916Y-36432923D01*
X41693728Y-36405985D01*
X41747603Y-36405985D01*
X41828415Y-36432923D01*
X41963102Y-36513735D01*
X42097789Y-36648422D01*
X42178602Y-36783109D01*
X42205539Y-36863921D01*
X42205539Y-36917796D01*
X42178602Y-36998608D01*
X42124727Y-37052483D01*
X42043915Y-37079420D01*
X41990040Y-37079420D01*
X41909228Y-37052483D01*
X41774541Y-36971671D01*
X41639854Y-36836984D01*
X41559041Y-36702297D01*
X41532104Y-36621484D01*
X41532104Y-36567610D01*
X41559041Y-36486797D01*
X40104422Y-35455292D02*
X40023610Y-35482229D01*
X39942797Y-35563041D01*
X39888923Y-35670791D01*
X39888923Y-35778541D01*
X39915860Y-35859353D01*
X39996672Y-35994040D01*
X40077484Y-36074852D01*
X40212171Y-36155664D01*
X40292984Y-36182602D01*
X40400733Y-36182602D01*
X40508483Y-36128727D01*
X40562358Y-36074852D01*
X40616232Y-35967102D01*
X40616232Y-35913228D01*
X40427671Y-35724666D01*
X40319921Y-35832415D01*
X40912544Y-35724666D02*
X40346858Y-35158980D01*
X40562358Y-34943481D01*
X40643170Y-34916544D01*
X40697045Y-34916544D01*
X40777857Y-34943481D01*
X40858669Y-35024293D01*
X40885606Y-35105106D01*
X40885606Y-35158980D01*
X40858669Y-35239793D01*
X40643170Y-35455292D01*
X41774541Y-34862669D02*
X41451292Y-35185918D01*
X41612916Y-35024293D02*
X41047231Y-34458608D01*
X41074168Y-34593295D01*
X41074168Y-34701045D01*
X41047231Y-34781857D01*
X42043915Y-34593295D02*
X42151664Y-34485545D01*
X42178602Y-34404733D01*
X42178602Y-34350858D01*
X42151664Y-34216171D01*
X42070852Y-34081484D01*
X41855353Y-33865985D01*
X41774541Y-33839048D01*
X41720666Y-33839048D01*
X41639854Y-33865985D01*
X41532104Y-33973735D01*
X41505167Y-34054547D01*
X41505167Y-34108422D01*
X41532104Y-34189234D01*
X41666791Y-34323921D01*
X41747603Y-34350858D01*
X41801478Y-34350858D01*
X41882290Y-34323921D01*
X41990040Y-34216171D01*
X42016977Y-34135359D01*
X42016977Y-34081484D01*
X41990040Y-34000672D01*
X40104422Y-32915292D02*
X40023610Y-32942229D01*
X39942797Y-33023041D01*
X39888923Y-33130791D01*
X39888923Y-33238541D01*
X39915860Y-33319353D01*
X39996672Y-33454040D01*
X40077484Y-33534852D01*
X40212171Y-33615664D01*
X40292984Y-33642602D01*
X40400733Y-33642602D01*
X40508483Y-33588727D01*
X40562358Y-33534852D01*
X40616232Y-33427102D01*
X40616232Y-33373228D01*
X40427671Y-33184666D01*
X40319921Y-33292415D01*
X40912544Y-33184666D02*
X40346858Y-32618980D01*
X40562358Y-32403481D01*
X40643170Y-32376544D01*
X40697045Y-32376544D01*
X40777857Y-32403481D01*
X40858669Y-32484293D01*
X40885606Y-32565106D01*
X40885606Y-32618980D01*
X40858669Y-32699793D01*
X40643170Y-32915292D01*
X41774541Y-32322669D02*
X41451292Y-32645918D01*
X41612916Y-32484293D02*
X41047231Y-31918608D01*
X41074168Y-32053295D01*
X41074168Y-32161045D01*
X41047231Y-32241857D01*
X41774541Y-31676171D02*
X41693728Y-31703109D01*
X41639854Y-31703109D01*
X41559041Y-31676171D01*
X41532104Y-31649234D01*
X41505167Y-31568422D01*
X41505167Y-31514547D01*
X41532104Y-31433735D01*
X41639854Y-31325985D01*
X41720666Y-31299048D01*
X41774541Y-31299048D01*
X41855353Y-31325985D01*
X41882290Y-31352923D01*
X41909228Y-31433735D01*
X41909228Y-31487610D01*
X41882290Y-31568422D01*
X41774541Y-31676171D01*
X41747603Y-31756984D01*
X41747603Y-31810858D01*
X41774541Y-31891671D01*
X41882290Y-31999420D01*
X41963102Y-32026358D01*
X42016977Y-32026358D01*
X42097789Y-31999420D01*
X42205539Y-31891671D01*
X42232476Y-31810858D01*
X42232476Y-31756984D01*
X42205539Y-31676171D01*
X42097789Y-31568422D01*
X42016977Y-31541484D01*
X41963102Y-31541484D01*
X41882290Y-31568422D01*
X46859222Y-27212992D02*
X46778410Y-27239929D01*
X46697597Y-27320741D01*
X46643723Y-27428491D01*
X46643723Y-27536241D01*
X46670660Y-27617053D01*
X46751472Y-27751740D01*
X46832284Y-27832552D01*
X46966971Y-27913364D01*
X47047784Y-27940302D01*
X47155533Y-27940302D01*
X47263283Y-27886427D01*
X47317158Y-27832552D01*
X47371032Y-27724802D01*
X47371032Y-27670928D01*
X47182471Y-27482366D01*
X47074721Y-27590115D01*
X47667344Y-27482366D02*
X47101658Y-26916680D01*
X47317158Y-26701181D01*
X47397970Y-26674244D01*
X47451845Y-26674244D01*
X47532657Y-26701181D01*
X47613469Y-26781993D01*
X47640406Y-26862806D01*
X47640406Y-26916680D01*
X47613469Y-26997493D01*
X47397970Y-27212992D01*
X48529341Y-26620369D02*
X48206092Y-26943618D01*
X48367716Y-26781993D02*
X47802031Y-26216308D01*
X47828968Y-26350995D01*
X47828968Y-26458745D01*
X47802031Y-26539557D01*
X48152217Y-25866122D02*
X48529341Y-25488998D01*
X48852589Y-26297120D01*
X46732222Y-25371492D02*
X46651410Y-25398429D01*
X46570597Y-25479241D01*
X46516723Y-25586991D01*
X46516723Y-25694741D01*
X46543660Y-25775553D01*
X46624472Y-25910240D01*
X46705284Y-25991052D01*
X46839971Y-26071864D01*
X46920784Y-26098802D01*
X47028533Y-26098802D01*
X47136283Y-26044927D01*
X47190158Y-25991052D01*
X47244032Y-25883302D01*
X47244032Y-25829428D01*
X47055471Y-25640866D01*
X46947721Y-25748615D01*
X47540344Y-25640866D02*
X46974658Y-25075180D01*
X47190158Y-24859681D01*
X47270970Y-24832744D01*
X47324845Y-24832744D01*
X47405657Y-24859681D01*
X47486469Y-24940493D01*
X47513406Y-25021306D01*
X47513406Y-25075180D01*
X47486469Y-25155993D01*
X47270970Y-25371492D01*
X48402341Y-24778869D02*
X48079092Y-25102118D01*
X48240716Y-24940493D02*
X47675031Y-24374808D01*
X47701968Y-24509495D01*
X47701968Y-24617245D01*
X47675031Y-24698057D01*
X48321528Y-23728310D02*
X48213779Y-23836060D01*
X48186841Y-23916872D01*
X48186841Y-23970747D01*
X48213779Y-24105434D01*
X48294591Y-24240121D01*
X48510090Y-24455620D01*
X48590902Y-24482558D01*
X48644777Y-24482558D01*
X48725589Y-24455620D01*
X48833339Y-24347871D01*
X48860276Y-24267058D01*
X48860276Y-24213184D01*
X48833339Y-24132371D01*
X48698652Y-23997684D01*
X48617840Y-23970747D01*
X48563965Y-23970747D01*
X48483153Y-23997684D01*
X48375403Y-24105434D01*
X48348466Y-24186246D01*
X48348466Y-24240121D01*
X48375403Y-24320933D01*
X59559222Y-25447692D02*
X59478410Y-25474629D01*
X59397597Y-25555441D01*
X59343723Y-25663191D01*
X59343723Y-25770941D01*
X59370660Y-25851753D01*
X59451472Y-25986440D01*
X59532284Y-26067252D01*
X59666971Y-26148064D01*
X59747784Y-26175002D01*
X59855533Y-26175002D01*
X59963283Y-26121127D01*
X60017158Y-26067252D01*
X60071032Y-25959502D01*
X60071032Y-25905628D01*
X59882471Y-25717066D01*
X59774721Y-25824815D01*
X60367344Y-25717066D02*
X59801658Y-25151380D01*
X60017158Y-24935881D01*
X60097970Y-24908944D01*
X60151845Y-24908944D01*
X60232657Y-24935881D01*
X60313469Y-25016693D01*
X60340406Y-25097506D01*
X60340406Y-25151380D01*
X60313469Y-25232193D01*
X60097970Y-25447692D01*
X61229341Y-24855069D02*
X60906092Y-25178318D01*
X61067716Y-25016693D02*
X60502031Y-24451008D01*
X60528968Y-24585695D01*
X60528968Y-24693445D01*
X60502031Y-24774257D01*
X61175466Y-23777573D02*
X60906092Y-24046947D01*
X61148528Y-24343258D01*
X61148528Y-24289384D01*
X61175466Y-24208571D01*
X61310153Y-24073884D01*
X61390965Y-24046947D01*
X61444840Y-24046947D01*
X61525652Y-24073884D01*
X61660339Y-24208571D01*
X61687276Y-24289384D01*
X61687276Y-24343258D01*
X61660339Y-24424071D01*
X61525652Y-24558758D01*
X61444840Y-24585695D01*
X61390965Y-24585695D01*
X59584622Y-28343292D02*
X59503810Y-28370229D01*
X59422997Y-28451041D01*
X59369123Y-28558791D01*
X59369123Y-28666541D01*
X59396060Y-28747353D01*
X59476872Y-28882040D01*
X59557684Y-28962852D01*
X59692371Y-29043664D01*
X59773184Y-29070602D01*
X59880933Y-29070602D01*
X59988683Y-29016727D01*
X60042558Y-28962852D01*
X60096432Y-28855102D01*
X60096432Y-28801228D01*
X59907871Y-28612666D01*
X59800121Y-28720415D01*
X60392744Y-28612666D02*
X59827058Y-28046980D01*
X60042558Y-27831481D01*
X60123370Y-27804544D01*
X60177245Y-27804544D01*
X60258057Y-27831481D01*
X60338869Y-27912293D01*
X60365806Y-27993106D01*
X60365806Y-28046980D01*
X60338869Y-28127793D01*
X60123370Y-28343292D01*
X61254741Y-27750669D02*
X60931492Y-28073918D01*
X61093116Y-27912293D02*
X60527431Y-27346608D01*
X60554368Y-27481295D01*
X60554368Y-27589045D01*
X60527431Y-27669857D01*
X61362490Y-26888672D02*
X61739614Y-27265796D01*
X61012304Y-26807860D02*
X61281678Y-27346608D01*
X61631864Y-26996422D01*
X66212422Y-32915292D02*
X66131610Y-32942229D01*
X66050797Y-33023041D01*
X65996923Y-33130791D01*
X65996923Y-33238541D01*
X66023860Y-33319353D01*
X66104672Y-33454040D01*
X66185484Y-33534852D01*
X66320171Y-33615664D01*
X66400984Y-33642602D01*
X66508733Y-33642602D01*
X66616483Y-33588727D01*
X66670358Y-33534852D01*
X66724232Y-33427102D01*
X66724232Y-33373228D01*
X66535671Y-33184666D01*
X66427921Y-33292415D01*
X67020544Y-33184666D02*
X66454858Y-32618980D01*
X66670358Y-32403481D01*
X66751170Y-32376544D01*
X66805045Y-32376544D01*
X66885857Y-32403481D01*
X66966669Y-32484293D01*
X66993606Y-32565106D01*
X66993606Y-32618980D01*
X66966669Y-32699793D01*
X66751170Y-32915292D01*
X67882541Y-32322669D02*
X67559292Y-32645918D01*
X67720916Y-32484293D02*
X67155231Y-31918608D01*
X67182168Y-32053295D01*
X67182168Y-32161045D01*
X67155231Y-32241857D01*
X67505417Y-31568422D02*
X67855603Y-31218236D01*
X67882541Y-31622297D01*
X67963353Y-31541484D01*
X68044165Y-31514547D01*
X68098040Y-31514547D01*
X68178852Y-31541484D01*
X68313539Y-31676171D01*
X68340476Y-31756984D01*
X68340476Y-31810858D01*
X68313539Y-31891671D01*
X68151915Y-32053295D01*
X68071102Y-32080232D01*
X68017228Y-32080232D01*
X66358422Y-35455292D02*
X66277610Y-35482229D01*
X66196797Y-35563041D01*
X66142923Y-35670791D01*
X66142923Y-35778541D01*
X66169860Y-35859353D01*
X66250672Y-35994040D01*
X66331484Y-36074852D01*
X66466171Y-36155664D01*
X66546984Y-36182602D01*
X66654733Y-36182602D01*
X66762483Y-36128727D01*
X66816358Y-36074852D01*
X66870232Y-35967102D01*
X66870232Y-35913228D01*
X66681671Y-35724666D01*
X66573921Y-35832415D01*
X67166544Y-35724666D02*
X66600858Y-35158980D01*
X66816358Y-34943481D01*
X66897170Y-34916544D01*
X66951045Y-34916544D01*
X67031857Y-34943481D01*
X67112669Y-35024293D01*
X67139606Y-35105106D01*
X67139606Y-35158980D01*
X67112669Y-35239793D01*
X66897170Y-35455292D01*
X68028541Y-34862669D02*
X67705292Y-35185918D01*
X67866916Y-35024293D02*
X67301231Y-34458608D01*
X67328168Y-34593295D01*
X67328168Y-34701045D01*
X67301231Y-34781857D01*
X67732229Y-34135359D02*
X67732229Y-34081484D01*
X67759167Y-34000672D01*
X67893854Y-33865985D01*
X67974666Y-33839048D01*
X68028541Y-33839048D01*
X68109353Y-33865985D01*
X68163228Y-33919860D01*
X68217102Y-34027610D01*
X68217102Y-34674107D01*
X68567289Y-34323921D01*
X66358422Y-37995292D02*
X66277610Y-38022229D01*
X66196797Y-38103041D01*
X66142923Y-38210791D01*
X66142923Y-38318541D01*
X66169860Y-38399353D01*
X66250672Y-38534040D01*
X66331484Y-38614852D01*
X66466171Y-38695664D01*
X66546984Y-38722602D01*
X66654733Y-38722602D01*
X66762483Y-38668727D01*
X66816358Y-38614852D01*
X66870232Y-38507102D01*
X66870232Y-38453228D01*
X66681671Y-38264666D01*
X66573921Y-38372415D01*
X67166544Y-38264666D02*
X66600858Y-37698980D01*
X66816358Y-37483481D01*
X66897170Y-37456544D01*
X66951045Y-37456544D01*
X67031857Y-37483481D01*
X67112669Y-37564293D01*
X67139606Y-37645106D01*
X67139606Y-37698980D01*
X67112669Y-37779793D01*
X66897170Y-37995292D01*
X68028541Y-37402669D02*
X67705292Y-37725918D01*
X67866916Y-37564293D02*
X67301231Y-36998608D01*
X67328168Y-37133295D01*
X67328168Y-37241045D01*
X67301231Y-37321857D01*
X68567289Y-36863921D02*
X68244040Y-37187170D01*
X68405664Y-37025545D02*
X67839979Y-36459860D01*
X67866916Y-36594547D01*
X67866916Y-36702297D01*
X67839979Y-36783109D01*
X66212422Y-40535292D02*
X66131610Y-40562229D01*
X66050797Y-40643041D01*
X65996923Y-40750791D01*
X65996923Y-40858541D01*
X66023860Y-40939353D01*
X66104672Y-41074040D01*
X66185484Y-41154852D01*
X66320171Y-41235664D01*
X66400984Y-41262602D01*
X66508733Y-41262602D01*
X66616483Y-41208727D01*
X66670358Y-41154852D01*
X66724232Y-41047102D01*
X66724232Y-40993228D01*
X66535671Y-40804666D01*
X66427921Y-40912415D01*
X67020544Y-40804666D02*
X66454858Y-40238980D01*
X66670358Y-40023481D01*
X66751170Y-39996544D01*
X66805045Y-39996544D01*
X66885857Y-40023481D01*
X66966669Y-40104293D01*
X66993606Y-40185106D01*
X66993606Y-40238980D01*
X66966669Y-40319793D01*
X66751170Y-40535292D01*
X67882541Y-39942669D02*
X67559292Y-40265918D01*
X67720916Y-40104293D02*
X67155231Y-39538608D01*
X67182168Y-39673295D01*
X67182168Y-39781045D01*
X67155231Y-39861857D01*
X67667041Y-39026797D02*
X67720916Y-38972923D01*
X67801728Y-38945985D01*
X67855603Y-38945985D01*
X67936415Y-38972923D01*
X68071102Y-39053735D01*
X68205789Y-39188422D01*
X68286602Y-39323109D01*
X68313539Y-39403921D01*
X68313539Y-39457796D01*
X68286602Y-39538608D01*
X68232727Y-39592483D01*
X68151915Y-39619420D01*
X68098040Y-39619420D01*
X68017228Y-39592483D01*
X67882541Y-39511671D01*
X67747854Y-39376984D01*
X67667041Y-39242297D01*
X67640104Y-39161484D01*
X67640104Y-39107610D01*
X67667041Y-39026797D01*
X66227796Y-45345918D02*
X66146984Y-45372855D01*
X66066171Y-45453667D01*
X66012297Y-45561417D01*
X66012297Y-45669167D01*
X66039234Y-45749979D01*
X66120046Y-45884666D01*
X66200858Y-45965478D01*
X66335545Y-46046290D01*
X66416358Y-46073228D01*
X66524107Y-46073228D01*
X66631857Y-46019353D01*
X66685732Y-45965478D01*
X66739606Y-45857728D01*
X66739606Y-45803854D01*
X66551045Y-45615292D01*
X66443295Y-45723041D01*
X67035918Y-45615292D02*
X66470232Y-45049606D01*
X66685732Y-44834107D01*
X66766544Y-44807170D01*
X66820419Y-44807170D01*
X66901231Y-44834107D01*
X66982043Y-44914919D01*
X67008980Y-44995732D01*
X67008980Y-45049606D01*
X66982043Y-45130419D01*
X66766544Y-45345918D01*
X67628541Y-45022669D02*
X67736290Y-44914919D01*
X67763228Y-44834107D01*
X67763228Y-44780232D01*
X67736290Y-44645545D01*
X67655478Y-44510858D01*
X67439979Y-44295359D01*
X67359167Y-44268422D01*
X67305292Y-44268422D01*
X67224480Y-44295359D01*
X67116730Y-44403109D01*
X67089793Y-44483921D01*
X67089793Y-44537796D01*
X67116730Y-44618608D01*
X67251417Y-44753295D01*
X67332229Y-44780232D01*
X67386104Y-44780232D01*
X67466916Y-44753295D01*
X67574666Y-44645545D01*
X67601603Y-44564733D01*
X67601603Y-44510858D01*
X67574666Y-44430046D01*
X66227796Y-47885918D02*
X66146984Y-47912855D01*
X66066171Y-47993667D01*
X66012297Y-48101417D01*
X66012297Y-48209167D01*
X66039234Y-48289979D01*
X66120046Y-48424666D01*
X66200858Y-48505478D01*
X66335545Y-48586290D01*
X66416358Y-48613228D01*
X66524107Y-48613228D01*
X66631857Y-48559353D01*
X66685732Y-48505478D01*
X66739606Y-48397728D01*
X66739606Y-48343854D01*
X66551045Y-48155292D01*
X66443295Y-48263041D01*
X67035918Y-48155292D02*
X66470232Y-47589606D01*
X66685732Y-47374107D01*
X66766544Y-47347170D01*
X66820419Y-47347170D01*
X66901231Y-47374107D01*
X66982043Y-47454919D01*
X67008980Y-47535732D01*
X67008980Y-47589606D01*
X66982043Y-47670419D01*
X66766544Y-47885918D01*
X67359167Y-47185545D02*
X67278354Y-47212483D01*
X67224480Y-47212483D01*
X67143667Y-47185545D01*
X67116730Y-47158608D01*
X67089793Y-47077796D01*
X67089793Y-47023921D01*
X67116730Y-46943109D01*
X67224480Y-46835359D01*
X67305292Y-46808422D01*
X67359167Y-46808422D01*
X67439979Y-46835359D01*
X67466916Y-46862297D01*
X67493854Y-46943109D01*
X67493854Y-46996984D01*
X67466916Y-47077796D01*
X67359167Y-47185545D01*
X67332229Y-47266358D01*
X67332229Y-47320232D01*
X67359167Y-47401045D01*
X67466916Y-47508794D01*
X67547728Y-47535732D01*
X67601603Y-47535732D01*
X67682415Y-47508794D01*
X67790165Y-47401045D01*
X67817102Y-47320232D01*
X67817102Y-47266358D01*
X67790165Y-47185545D01*
X67682415Y-47077796D01*
X67601603Y-47050858D01*
X67547728Y-47050858D01*
X67466916Y-47077796D01*
X66127796Y-50455918D02*
X66046984Y-50482855D01*
X65966171Y-50563667D01*
X65912297Y-50671417D01*
X65912297Y-50779167D01*
X65939234Y-50859979D01*
X66020046Y-50994666D01*
X66100858Y-51075478D01*
X66235545Y-51156290D01*
X66316358Y-51183228D01*
X66424107Y-51183228D01*
X66531857Y-51129353D01*
X66585732Y-51075478D01*
X66639606Y-50967728D01*
X66639606Y-50913854D01*
X66451045Y-50725292D01*
X66343295Y-50833041D01*
X66935918Y-50725292D02*
X66370232Y-50159606D01*
X66585732Y-49944107D01*
X66666544Y-49917170D01*
X66720419Y-49917170D01*
X66801231Y-49944107D01*
X66882043Y-50024919D01*
X66908980Y-50105732D01*
X66908980Y-50159606D01*
X66882043Y-50240419D01*
X66666544Y-50455918D01*
X66882043Y-49647796D02*
X67259167Y-49270672D01*
X67582415Y-50078794D01*
X66227796Y-52965918D02*
X66146984Y-52992855D01*
X66066171Y-53073667D01*
X66012297Y-53181417D01*
X66012297Y-53289167D01*
X66039234Y-53369979D01*
X66120046Y-53504666D01*
X66200858Y-53585478D01*
X66335545Y-53666290D01*
X66416358Y-53693228D01*
X66524107Y-53693228D01*
X66631857Y-53639353D01*
X66685732Y-53585478D01*
X66739606Y-53477728D01*
X66739606Y-53423854D01*
X66551045Y-53235292D01*
X66443295Y-53343041D01*
X67035918Y-53235292D02*
X66470232Y-52669606D01*
X66685732Y-52454107D01*
X66766544Y-52427170D01*
X66820419Y-52427170D01*
X66901231Y-52454107D01*
X66982043Y-52534919D01*
X67008980Y-52615732D01*
X67008980Y-52669606D01*
X66982043Y-52750419D01*
X66766544Y-52965918D01*
X67278354Y-51861484D02*
X67170605Y-51969234D01*
X67143667Y-52050046D01*
X67143667Y-52103921D01*
X67170605Y-52238608D01*
X67251417Y-52373295D01*
X67466916Y-52588794D01*
X67547728Y-52615732D01*
X67601603Y-52615732D01*
X67682415Y-52588794D01*
X67790165Y-52481045D01*
X67817102Y-52400232D01*
X67817102Y-52346358D01*
X67790165Y-52265545D01*
X67655478Y-52130858D01*
X67574666Y-52103921D01*
X67520791Y-52103921D01*
X67439979Y-52130858D01*
X67332229Y-52238608D01*
X67305292Y-52319420D01*
X67305292Y-52373295D01*
X67332229Y-52454107D01*
X66227796Y-58045918D02*
X66146984Y-58072855D01*
X66066171Y-58153667D01*
X66012297Y-58261417D01*
X66012297Y-58369167D01*
X66039234Y-58449979D01*
X66120046Y-58584666D01*
X66200858Y-58665478D01*
X66335545Y-58746290D01*
X66416358Y-58773228D01*
X66524107Y-58773228D01*
X66631857Y-58719353D01*
X66685732Y-58665478D01*
X66739606Y-58557728D01*
X66739606Y-58503854D01*
X66551045Y-58315292D01*
X66443295Y-58423041D01*
X67035918Y-58315292D02*
X66470232Y-57749606D01*
X66685732Y-57534107D01*
X66766544Y-57507170D01*
X66820419Y-57507170D01*
X66901231Y-57534107D01*
X66982043Y-57614919D01*
X67008980Y-57695732D01*
X67008980Y-57749606D01*
X66982043Y-57830419D01*
X66766544Y-58045918D01*
X67305292Y-56914547D02*
X67035918Y-57183921D01*
X67278354Y-57480232D01*
X67278354Y-57426358D01*
X67305292Y-57345545D01*
X67439979Y-57210858D01*
X67520791Y-57183921D01*
X67574666Y-57183921D01*
X67655478Y-57210858D01*
X67790165Y-57345545D01*
X67817102Y-57426358D01*
X67817102Y-57480232D01*
X67790165Y-57561045D01*
X67655478Y-57695732D01*
X67574666Y-57722669D01*
X67520791Y-57722669D01*
X66227796Y-60585918D02*
X66146984Y-60612855D01*
X66066171Y-60693667D01*
X66012297Y-60801417D01*
X66012297Y-60909167D01*
X66039234Y-60989979D01*
X66120046Y-61124666D01*
X66200858Y-61205478D01*
X66335545Y-61286290D01*
X66416358Y-61313228D01*
X66524107Y-61313228D01*
X66631857Y-61259353D01*
X66685732Y-61205478D01*
X66739606Y-61097728D01*
X66739606Y-61043854D01*
X66551045Y-60855292D01*
X66443295Y-60963041D01*
X67035918Y-60855292D02*
X66470232Y-60289606D01*
X66685732Y-60074107D01*
X66766544Y-60047170D01*
X66820419Y-60047170D01*
X66901231Y-60074107D01*
X66982043Y-60154919D01*
X67008980Y-60235732D01*
X67008980Y-60289606D01*
X66982043Y-60370419D01*
X66766544Y-60585918D01*
X67466916Y-59670046D02*
X67844040Y-60047170D01*
X67116730Y-59589234D02*
X67386104Y-60127982D01*
X67736290Y-59777796D01*
X66227796Y-63125918D02*
X66146984Y-63152855D01*
X66066171Y-63233667D01*
X66012297Y-63341417D01*
X66012297Y-63449167D01*
X66039234Y-63529979D01*
X66120046Y-63664666D01*
X66200858Y-63745478D01*
X66335545Y-63826290D01*
X66416358Y-63853228D01*
X66524107Y-63853228D01*
X66631857Y-63799353D01*
X66685732Y-63745478D01*
X66739606Y-63637728D01*
X66739606Y-63583854D01*
X66551045Y-63395292D01*
X66443295Y-63503041D01*
X67035918Y-63395292D02*
X66470232Y-62829606D01*
X66685732Y-62614107D01*
X66766544Y-62587170D01*
X66820419Y-62587170D01*
X66901231Y-62614107D01*
X66982043Y-62694919D01*
X67008980Y-62775732D01*
X67008980Y-62829606D01*
X66982043Y-62910419D01*
X66766544Y-63125918D01*
X66982043Y-62317796D02*
X67332229Y-61967610D01*
X67359167Y-62371671D01*
X67439979Y-62290858D01*
X67520791Y-62263921D01*
X67574666Y-62263921D01*
X67655478Y-62290858D01*
X67790165Y-62425545D01*
X67817102Y-62506358D01*
X67817102Y-62560232D01*
X67790165Y-62641045D01*
X67628541Y-62802669D01*
X67547728Y-62829606D01*
X67493854Y-62829606D01*
X66227796Y-73285918D02*
X66146984Y-73312855D01*
X66066171Y-73393667D01*
X66012297Y-73501417D01*
X66012297Y-73609167D01*
X66039234Y-73689979D01*
X66120046Y-73824666D01*
X66200858Y-73905478D01*
X66335545Y-73986290D01*
X66416358Y-74013228D01*
X66524107Y-74013228D01*
X66631857Y-73959353D01*
X66685732Y-73905478D01*
X66739606Y-73797728D01*
X66739606Y-73743854D01*
X66551045Y-73555292D01*
X66443295Y-73663041D01*
X67035918Y-73555292D02*
X66470232Y-72989606D01*
X66685732Y-72774107D01*
X66766544Y-72747170D01*
X66820419Y-72747170D01*
X66901231Y-72774107D01*
X66982043Y-72854919D01*
X67008980Y-72935732D01*
X67008980Y-72989606D01*
X66982043Y-73070419D01*
X66766544Y-73285918D01*
X67143667Y-72316171D02*
X67197542Y-72262297D01*
X67278354Y-72235359D01*
X67332229Y-72235359D01*
X67413041Y-72262297D01*
X67547728Y-72343109D01*
X67682415Y-72477796D01*
X67763228Y-72612483D01*
X67790165Y-72693295D01*
X67790165Y-72747170D01*
X67763228Y-72827982D01*
X67709353Y-72881857D01*
X67628541Y-72908794D01*
X67574666Y-72908794D01*
X67493854Y-72881857D01*
X67359167Y-72801045D01*
X67224480Y-72666358D01*
X67143667Y-72531671D01*
X67116730Y-72450858D01*
X67116730Y-72396984D01*
X67143667Y-72316171D01*
X66327796Y-65665918D02*
X66246984Y-65692855D01*
X66166171Y-65773667D01*
X66112297Y-65881417D01*
X66112297Y-65989167D01*
X66139234Y-66069979D01*
X66220046Y-66204666D01*
X66300858Y-66285478D01*
X66435545Y-66366290D01*
X66516358Y-66393228D01*
X66624107Y-66393228D01*
X66731857Y-66339353D01*
X66785732Y-66285478D01*
X66839606Y-66177728D01*
X66839606Y-66123854D01*
X66651045Y-65935292D01*
X66543295Y-66043041D01*
X67135918Y-65935292D02*
X66570232Y-65369606D01*
X66785732Y-65154107D01*
X66866544Y-65127170D01*
X66920419Y-65127170D01*
X67001231Y-65154107D01*
X67082043Y-65234919D01*
X67108980Y-65315732D01*
X67108980Y-65369606D01*
X67082043Y-65450419D01*
X66866544Y-65665918D01*
X67162855Y-64884733D02*
X67162855Y-64830858D01*
X67189793Y-64750046D01*
X67324480Y-64615359D01*
X67405292Y-64588422D01*
X67459167Y-64588422D01*
X67539979Y-64615359D01*
X67593854Y-64669234D01*
X67647728Y-64776984D01*
X67647728Y-65423481D01*
X67997915Y-65073295D01*
X66327796Y-70755918D02*
X66246984Y-70782855D01*
X66166171Y-70863667D01*
X66112297Y-70971417D01*
X66112297Y-71079167D01*
X66139234Y-71159979D01*
X66220046Y-71294666D01*
X66300858Y-71375478D01*
X66435545Y-71456290D01*
X66516358Y-71483228D01*
X66624107Y-71483228D01*
X66731857Y-71429353D01*
X66785732Y-71375478D01*
X66839606Y-71267728D01*
X66839606Y-71213854D01*
X66651045Y-71025292D01*
X66543295Y-71133041D01*
X67135918Y-71025292D02*
X66570232Y-70459606D01*
X66785732Y-70244107D01*
X66866544Y-70217170D01*
X66920419Y-70217170D01*
X67001231Y-70244107D01*
X67082043Y-70324919D01*
X67108980Y-70405732D01*
X67108980Y-70459606D01*
X67082043Y-70540419D01*
X66866544Y-70755918D01*
X67997915Y-70163295D02*
X67674666Y-70486544D01*
X67836290Y-70324919D02*
X67270605Y-69759234D01*
X67297542Y-69893921D01*
X67297542Y-70001671D01*
X67270605Y-70082483D01*
%TD*%
M02*
