M48
; DRILL file {KiCad (5.1.8)-1} date 12/10/21 09:06:34
; FORMAT={-:-/ absolute / inch / decimal}
; #@! TF.CreationDate,2021-12-10T09:06:34+01:00
; #@! TF.GenerationSoftware,Kicad,Pcbnew,(5.1.8)-1
; #@! TF.FileFunction,Plated,1,2,PTH
FMAT,2
INCH
T1C0.0374
T2C0.0394
T3C0.0402
T4C0.0906
%
G90
G05
T1
X3.3066Y-3.288
X3.3066Y-3.3864
X3.3853Y-3.288
X3.3853Y-3.3864
T2
X1.763Y-3.065
X1.863Y-3.065
X0.88Y-1.788
X0.9507Y-1.7173
X1.0214Y-1.6466
X1.0921Y-1.5759
X1.1628Y-1.5052
X1.2336Y-1.4344
X1.3043Y-1.3637
X1.375Y-1.293
X1.4457Y-1.2223
X1.5164Y-1.1516
X3.48Y-2.016
X3.48Y-2.116
X3.48Y-2.216
X3.48Y-2.316
X3.48Y-2.416
X3.48Y-2.516
X3.48Y-2.616
X3.48Y-2.716
X3.48Y-2.816
X3.48Y-2.916
X2.7326Y-1.1546
X2.8033Y-1.2253
X2.874Y-1.296
X2.9447Y-1.3667
X3.0154Y-1.4374
X3.0862Y-1.5082
X3.1569Y-1.5789
X3.2276Y-1.6496
X3.2983Y-1.7203
X3.369Y-1.791
X0.768Y-2.016
X0.768Y-2.116
X0.768Y-2.216
X0.768Y-2.316
X0.768Y-2.416
X0.768Y-2.516
X0.768Y-2.616
X0.768Y-2.716
X0.768Y-2.816
X0.768Y-2.916
T3
X1.7805Y-0.9805
X1.7805Y-1.0805
X1.7805Y-1.1805
X1.7805Y-1.2805
X1.7805Y-1.3805
X1.7805Y-1.4805
X1.7805Y-1.5805
X1.7805Y-1.6805
X1.7805Y-1.7805
X1.7805Y-1.8805
X1.7805Y-1.9805
X1.7805Y-2.0805
X1.7805Y-2.1805
X1.7805Y-2.2805
X1.7805Y-2.3805
X1.7805Y-2.4805
X1.7805Y-2.5805
X1.7805Y-2.6805
X1.7805Y-2.7805
X1.7805Y-2.8805
X2.0305Y-0.9896
X2.1305Y-0.9896
X2.2305Y-0.9896
X2.4805Y-0.9805
X2.4805Y-1.0805
X2.4805Y-1.1805
X2.4805Y-1.2805
X2.4805Y-1.3805
X2.4805Y-1.4805
X2.4805Y-1.5805
X2.4805Y-1.6805
X2.4805Y-1.7805
X2.4805Y-1.8805
X2.4805Y-1.9805
X2.4805Y-2.0805
X2.4805Y-2.1805
X2.4805Y-2.2805
X2.4805Y-2.3805
X2.4805Y-2.4805
X2.4805Y-2.5805
X2.4805Y-2.6805
X2.4805Y-2.7805
X2.4805Y-2.8805
T4
X3.194Y-3.101
X3.194Y-3.5734
T0
M30
