%TF.GenerationSoftware,KiCad,Pcbnew,(5.1.8)-1*%
%TF.CreationDate,2021-12-10T09:06:31+01:00*%
%TF.ProjectId,FirePlace_V1,46697265-506c-4616-9365-5f56312e6b69,rev?*%
%TF.SameCoordinates,Original*%
%TF.FileFunction,Profile,NP*%
%FSLAX46Y46*%
G04 Gerber Fmt 4.6, Leading zero omitted, Abs format (unit mm)*
G04 Created by KiCad (PCBNEW (5.1.8)-1) date 2021-12-10 09:06:31*
%MOMM*%
%LPD*%
G01*
G04 APERTURE LIST*
%TA.AperFunction,Profile*%
%ADD10C,0.200000*%
%TD*%
G04 APERTURE END LIST*
D10*
X80441800Y-95859600D02*
X57962800Y-95885000D01*
X49961741Y-94259401D02*
X49961800Y-95897700D01*
X49961731Y-94256212D02*
G75*
G02*
X57962799Y-94272099I4000569J9512D01*
G01*
X57962799Y-94272099D02*
X57962800Y-95885000D01*
X89192100Y-44729400D02*
X88049100Y-45872400D01*
X49961800Y-95897700D02*
X27508200Y-95885000D01*
X89890600Y-49174400D02*
X91605100Y-49174400D01*
X16470400Y-54508400D02*
X18070400Y-54508400D01*
X18770600Y-44729400D02*
X19913600Y-45872400D01*
X88049100Y-45872400D02*
X64871600Y-22694900D01*
X15339000Y-48161000D02*
X18770600Y-44729400D01*
X91470394Y-94292400D02*
X80441800Y-94284800D01*
X18070400Y-54508400D02*
X18070400Y-49174400D01*
X91470394Y-94292400D02*
X91478100Y-54508400D01*
X62601800Y-18161000D02*
X66014600Y-21551900D01*
X27508200Y-94284800D02*
X16470400Y-94292400D01*
X18070400Y-49174400D02*
X16357600Y-49174400D01*
X80441800Y-94284800D02*
X80441800Y-95859600D01*
X45339000Y-18161000D02*
X41915080Y-21582380D01*
X89870390Y-54508400D02*
X89890600Y-49174400D01*
X66014600Y-21551900D02*
X64871600Y-22694900D01*
X92601760Y-48161000D02*
X89192100Y-44729400D01*
X16357600Y-49174400D02*
X15339000Y-48161000D01*
X16470400Y-94292400D02*
X16470400Y-54508400D01*
X41915080Y-21582380D02*
X43027600Y-22694900D01*
X19913600Y-45872400D02*
X43027600Y-22694900D01*
X27508200Y-95885000D02*
X27508200Y-94284800D01*
X91478100Y-54508400D02*
X89870390Y-54508400D01*
X91605100Y-49174400D02*
X92601760Y-48161000D01*
X45339000Y-18161000D02*
X62601800Y-18161000D01*
M02*
