%TF.GenerationSoftware,KiCad,Pcbnew,(5.1.8)-1*%
%TF.CreationDate,2021-12-10T09:06:31+01:00*%
%TF.ProjectId,FirePlace_V1,46697265-506c-4616-9365-5f56312e6b69,rev?*%
%TF.SameCoordinates,Original*%
%TF.FileFunction,Soldermask,Top*%
%TF.FilePolarity,Negative*%
%FSLAX46Y46*%
G04 Gerber Fmt 4.6, Leading zero omitted, Abs format (unit mm)*
G04 Created by KiCad (PCBNEW (5.1.8)-1) date 2021-12-10 09:06:31*
%MOMM*%
%LPD*%
G01*
G04 APERTURE LIST*
%ADD10C,4.000000*%
%ADD11C,1.600000*%
%ADD12R,1.600000X1.600000*%
%ADD13O,1.700000X1.700000*%
%ADD14R,1.700000X1.700000*%
%ADD15C,0.100000*%
%ADD16R,1.700000X3.500000*%
%ADD17O,1.500000X1.500000*%
%ADD18O,1.800000X1.800000*%
%ADD19R,3.500000X1.700000*%
G04 APERTURE END LIST*
D10*
%TO.C,K5*%
X81127600Y-78765400D03*
X81127600Y-90765400D03*
D11*
X83987600Y-83515400D03*
X83987600Y-86015400D03*
X85987600Y-86015400D03*
D12*
X85987600Y-83515400D03*
%TD*%
D13*
%TO.C,K6*%
X44780200Y-77851000D03*
D14*
X47320200Y-77851000D03*
%TD*%
%TO.C,K4*%
G36*
G01*
X21750959Y-44814159D02*
X21750959Y-44814159D01*
G75*
G02*
X22953041Y-44814159I601041J-601041D01*
G01*
X22953041Y-44814159D01*
G75*
G02*
X22953041Y-46016241I-601041J-601041D01*
G01*
X22953041Y-46016241D01*
G75*
G02*
X21750959Y-46016241I-601041J601041D01*
G01*
X21750959Y-46016241D01*
G75*
G02*
X21750959Y-44814159I601041J601041D01*
G01*
G37*
G36*
G01*
X23547010Y-43018108D02*
X23547010Y-43018108D01*
G75*
G02*
X24749092Y-43018108I601041J-601041D01*
G01*
X24749092Y-43018108D01*
G75*
G02*
X24749092Y-44220190I-601041J-601041D01*
G01*
X24749092Y-44220190D01*
G75*
G02*
X23547010Y-44220190I-601041J601041D01*
G01*
X23547010Y-44220190D01*
G75*
G02*
X23547010Y-43018108I601041J601041D01*
G01*
G37*
G36*
G01*
X25343061Y-41222057D02*
X25343061Y-41222057D01*
G75*
G02*
X26545143Y-41222057I601041J-601041D01*
G01*
X26545143Y-41222057D01*
G75*
G02*
X26545143Y-42424139I-601041J-601041D01*
G01*
X26545143Y-42424139D01*
G75*
G02*
X25343061Y-42424139I-601041J601041D01*
G01*
X25343061Y-42424139D01*
G75*
G02*
X25343061Y-41222057I601041J601041D01*
G01*
G37*
G36*
G01*
X27139113Y-39426005D02*
X27139113Y-39426005D01*
G75*
G02*
X28341195Y-39426005I601041J-601041D01*
G01*
X28341195Y-39426005D01*
G75*
G02*
X28341195Y-40628087I-601041J-601041D01*
G01*
X28341195Y-40628087D01*
G75*
G02*
X27139113Y-40628087I-601041J601041D01*
G01*
X27139113Y-40628087D01*
G75*
G02*
X27139113Y-39426005I601041J601041D01*
G01*
G37*
G36*
G01*
X28935164Y-37629954D02*
X28935164Y-37629954D01*
G75*
G02*
X30137246Y-37629954I601041J-601041D01*
G01*
X30137246Y-37629954D01*
G75*
G02*
X30137246Y-38832036I-601041J-601041D01*
G01*
X30137246Y-38832036D01*
G75*
G02*
X28935164Y-38832036I-601041J601041D01*
G01*
X28935164Y-38832036D01*
G75*
G02*
X28935164Y-37629954I601041J601041D01*
G01*
G37*
G36*
G01*
X30731215Y-35833903D02*
X30731215Y-35833903D01*
G75*
G02*
X31933297Y-35833903I601041J-601041D01*
G01*
X31933297Y-35833903D01*
G75*
G02*
X31933297Y-37035985I-601041J-601041D01*
G01*
X31933297Y-37035985D01*
G75*
G02*
X30731215Y-37035985I-601041J601041D01*
G01*
X30731215Y-37035985D01*
G75*
G02*
X30731215Y-35833903I601041J601041D01*
G01*
G37*
G36*
G01*
X32527266Y-34037852D02*
X32527266Y-34037852D01*
G75*
G02*
X33729348Y-34037852I601041J-601041D01*
G01*
X33729348Y-34037852D01*
G75*
G02*
X33729348Y-35239934I-601041J-601041D01*
G01*
X33729348Y-35239934D01*
G75*
G02*
X32527266Y-35239934I-601041J601041D01*
G01*
X32527266Y-35239934D01*
G75*
G02*
X32527266Y-34037852I601041J601041D01*
G01*
G37*
G36*
G01*
X34323318Y-32241800D02*
X34323318Y-32241800D01*
G75*
G02*
X35525400Y-32241800I601041J-601041D01*
G01*
X35525400Y-32241800D01*
G75*
G02*
X35525400Y-33443882I-601041J-601041D01*
G01*
X35525400Y-33443882D01*
G75*
G02*
X34323318Y-33443882I-601041J601041D01*
G01*
X34323318Y-33443882D01*
G75*
G02*
X34323318Y-32241800I601041J601041D01*
G01*
G37*
G36*
G01*
X36119369Y-30445749D02*
X36119369Y-30445749D01*
G75*
G02*
X37321451Y-30445749I601041J-601041D01*
G01*
X37321451Y-30445749D01*
G75*
G02*
X37321451Y-31647831I-601041J-601041D01*
G01*
X37321451Y-31647831D01*
G75*
G02*
X36119369Y-31647831I-601041J601041D01*
G01*
X36119369Y-31647831D01*
G75*
G02*
X36119369Y-30445749I601041J601041D01*
G01*
G37*
D15*
G36*
X37314379Y-29250739D02*
G01*
X38516461Y-28048657D01*
X39718543Y-29250739D01*
X38516461Y-30452821D01*
X37314379Y-29250739D01*
G37*
%TD*%
D13*
%TO.C,K3*%
X19507200Y-74066400D03*
X19507200Y-71526400D03*
X19507200Y-68986400D03*
X19507200Y-66446400D03*
X19507200Y-63906400D03*
X19507200Y-61366400D03*
X19507200Y-58826400D03*
X19507200Y-56286400D03*
X19507200Y-53746400D03*
D14*
X19507200Y-51206400D03*
%TD*%
%TO.C,K2*%
G36*
G01*
X84971559Y-46092441D02*
X84971559Y-46092441D01*
G75*
G02*
X84971559Y-44890359I601041J601041D01*
G01*
X84971559Y-44890359D01*
G75*
G02*
X86173641Y-44890359I601041J-601041D01*
G01*
X86173641Y-44890359D01*
G75*
G02*
X86173641Y-46092441I-601041J-601041D01*
G01*
X86173641Y-46092441D01*
G75*
G02*
X84971559Y-46092441I-601041J601041D01*
G01*
G37*
G36*
G01*
X83175508Y-44296390D02*
X83175508Y-44296390D01*
G75*
G02*
X83175508Y-43094308I601041J601041D01*
G01*
X83175508Y-43094308D01*
G75*
G02*
X84377590Y-43094308I601041J-601041D01*
G01*
X84377590Y-43094308D01*
G75*
G02*
X84377590Y-44296390I-601041J-601041D01*
G01*
X84377590Y-44296390D01*
G75*
G02*
X83175508Y-44296390I-601041J601041D01*
G01*
G37*
G36*
G01*
X81379457Y-42500339D02*
X81379457Y-42500339D01*
G75*
G02*
X81379457Y-41298257I601041J601041D01*
G01*
X81379457Y-41298257D01*
G75*
G02*
X82581539Y-41298257I601041J-601041D01*
G01*
X82581539Y-41298257D01*
G75*
G02*
X82581539Y-42500339I-601041J-601041D01*
G01*
X82581539Y-42500339D01*
G75*
G02*
X81379457Y-42500339I-601041J601041D01*
G01*
G37*
G36*
G01*
X79583405Y-40704287D02*
X79583405Y-40704287D01*
G75*
G02*
X79583405Y-39502205I601041J601041D01*
G01*
X79583405Y-39502205D01*
G75*
G02*
X80785487Y-39502205I601041J-601041D01*
G01*
X80785487Y-39502205D01*
G75*
G02*
X80785487Y-40704287I-601041J-601041D01*
G01*
X80785487Y-40704287D01*
G75*
G02*
X79583405Y-40704287I-601041J601041D01*
G01*
G37*
G36*
G01*
X77787354Y-38908236D02*
X77787354Y-38908236D01*
G75*
G02*
X77787354Y-37706154I601041J601041D01*
G01*
X77787354Y-37706154D01*
G75*
G02*
X78989436Y-37706154I601041J-601041D01*
G01*
X78989436Y-37706154D01*
G75*
G02*
X78989436Y-38908236I-601041J-601041D01*
G01*
X78989436Y-38908236D01*
G75*
G02*
X77787354Y-38908236I-601041J601041D01*
G01*
G37*
G36*
G01*
X75991303Y-37112185D02*
X75991303Y-37112185D01*
G75*
G02*
X75991303Y-35910103I601041J601041D01*
G01*
X75991303Y-35910103D01*
G75*
G02*
X77193385Y-35910103I601041J-601041D01*
G01*
X77193385Y-35910103D01*
G75*
G02*
X77193385Y-37112185I-601041J-601041D01*
G01*
X77193385Y-37112185D01*
G75*
G02*
X75991303Y-37112185I-601041J601041D01*
G01*
G37*
G36*
G01*
X74195252Y-35316134D02*
X74195252Y-35316134D01*
G75*
G02*
X74195252Y-34114052I601041J601041D01*
G01*
X74195252Y-34114052D01*
G75*
G02*
X75397334Y-34114052I601041J-601041D01*
G01*
X75397334Y-34114052D01*
G75*
G02*
X75397334Y-35316134I-601041J-601041D01*
G01*
X75397334Y-35316134D01*
G75*
G02*
X74195252Y-35316134I-601041J601041D01*
G01*
G37*
G36*
G01*
X72399200Y-33520082D02*
X72399200Y-33520082D01*
G75*
G02*
X72399200Y-32318000I601041J601041D01*
G01*
X72399200Y-32318000D01*
G75*
G02*
X73601282Y-32318000I601041J-601041D01*
G01*
X73601282Y-32318000D01*
G75*
G02*
X73601282Y-33520082I-601041J-601041D01*
G01*
X73601282Y-33520082D01*
G75*
G02*
X72399200Y-33520082I-601041J601041D01*
G01*
G37*
G36*
G01*
X70603149Y-31724031D02*
X70603149Y-31724031D01*
G75*
G02*
X70603149Y-30521949I601041J601041D01*
G01*
X70603149Y-30521949D01*
G75*
G02*
X71805231Y-30521949I601041J-601041D01*
G01*
X71805231Y-30521949D01*
G75*
G02*
X71805231Y-31724031I-601041J-601041D01*
G01*
X71805231Y-31724031D01*
G75*
G02*
X70603149Y-31724031I-601041J601041D01*
G01*
G37*
D15*
G36*
X69408139Y-30529021D02*
G01*
X68206057Y-29326939D01*
X69408139Y-28124857D01*
X70610221Y-29326939D01*
X69408139Y-30529021D01*
G37*
%TD*%
D13*
%TO.C,K1*%
X88392000Y-51206400D03*
X88392000Y-53746400D03*
X88392000Y-56286400D03*
X88392000Y-58826400D03*
X88392000Y-61366400D03*
X88392000Y-63906400D03*
X88392000Y-66446400D03*
X88392000Y-68986400D03*
X88392000Y-71526400D03*
D14*
X88392000Y-74066400D03*
%TD*%
D13*
%TO.C,U1*%
X51574700Y-25134700D03*
D16*
X51574700Y-24234700D03*
D14*
X54114700Y-25134700D03*
D16*
X54114700Y-24234700D03*
D13*
X56654700Y-25134700D03*
D16*
X56654700Y-24234700D03*
D17*
X51689700Y-70004700D03*
X56539700Y-70004700D03*
D18*
X51389700Y-73034700D03*
X56839700Y-73034700D03*
D19*
X44324700Y-24904700D03*
X44324700Y-27444700D03*
X44324700Y-29984700D03*
X44324700Y-32524700D03*
X44324700Y-35064700D03*
X44324700Y-37604700D03*
X44324700Y-40144700D03*
X44324700Y-42684700D03*
X44324700Y-45224700D03*
X44324700Y-47764700D03*
X44324700Y-50304700D03*
X44324700Y-52844700D03*
X44324700Y-55384700D03*
X44324700Y-57924700D03*
X44324700Y-60464700D03*
X44324700Y-63004700D03*
X44324700Y-65544700D03*
X44324700Y-68084700D03*
X44324700Y-70624700D03*
X44324700Y-73164700D03*
X63904700Y-24904700D03*
X63904700Y-27444700D03*
X63904700Y-29984700D03*
X63904700Y-32524700D03*
X63904700Y-35064700D03*
X63904700Y-37604700D03*
X63904700Y-40144700D03*
X63904700Y-42684700D03*
X63904700Y-45224700D03*
X63904700Y-47764700D03*
X63904700Y-50304700D03*
X63904700Y-52844700D03*
X63904700Y-55384700D03*
X63904700Y-57924700D03*
X63904700Y-60464700D03*
X63904700Y-63004700D03*
X63904700Y-65544700D03*
X63904700Y-68084700D03*
X63904700Y-70624700D03*
X63904700Y-73164700D03*
D13*
X45224700Y-73164700D03*
X45224700Y-70624700D03*
D14*
X45224700Y-68084700D03*
D13*
X45224700Y-65544700D03*
X45224700Y-63004700D03*
X45224700Y-60464700D03*
X45224700Y-57924700D03*
D14*
X45224700Y-55384700D03*
D13*
X45224700Y-52844700D03*
X45224700Y-50304700D03*
X45224700Y-47764700D03*
X45224700Y-45224700D03*
D14*
X45224700Y-42684700D03*
D13*
X45224700Y-40144700D03*
X45224700Y-37604700D03*
X45224700Y-35064700D03*
X45224700Y-32524700D03*
D14*
X45224700Y-29984700D03*
D13*
X45224700Y-27444700D03*
X45224700Y-24904700D03*
X63004700Y-24904700D03*
X63004700Y-27444700D03*
D14*
X63004700Y-29984700D03*
D13*
X63004700Y-32524700D03*
X63004700Y-35064700D03*
X63004700Y-37604700D03*
X63004700Y-40144700D03*
D14*
X63004700Y-42684700D03*
D13*
X63004700Y-45224700D03*
X63004700Y-47764700D03*
X63004700Y-50304700D03*
X63004700Y-52844700D03*
D14*
X63004700Y-55384700D03*
D13*
X63004700Y-57924700D03*
X63004700Y-60464700D03*
X63004700Y-63004700D03*
X63004700Y-65544700D03*
D14*
X63004700Y-68084700D03*
D13*
X63004700Y-70624700D03*
X63004700Y-73164700D03*
%TD*%
M02*
