%TF.GenerationSoftware,KiCad,Pcbnew,(5.1.8)-1*%
%TF.CreationDate,2021-12-10T09:06:31+01:00*%
%TF.ProjectId,FirePlace_V1,46697265-506c-4616-9365-5f56312e6b69,rev?*%
%TF.SameCoordinates,Original*%
%TF.FileFunction,Legend,Bot*%
%TF.FilePolarity,Positive*%
%FSLAX46Y46*%
G04 Gerber Fmt 4.6, Leading zero omitted, Abs format (unit mm)*
G04 Created by KiCad (PCBNEW (5.1.8)-1) date 2021-12-10 09:06:31*
%MOMM*%
%LPD*%
G01*
G04 APERTURE LIST*
%ADD10C,0.120000*%
%ADD11C,0.150000*%
G04 APERTURE END LIST*
D10*
%TO.C,K5*%
X88037600Y-84015400D02*
X87537600Y-83515400D01*
X88037600Y-83015400D02*
X88037600Y-84015400D01*
X87537600Y-83515400D02*
X88037600Y-83015400D01*
X70717600Y-90875400D02*
X78687600Y-90875400D01*
X70717600Y-78655400D02*
X78687600Y-78655400D01*
X70717600Y-90875400D02*
X70717600Y-78655400D01*
X87337600Y-78655400D02*
X83587600Y-78655400D01*
X87337600Y-90875400D02*
X83587600Y-90875400D01*
X87337600Y-90875400D02*
X87337600Y-78655400D01*
D11*
X79225695Y-76317780D02*
X79225695Y-75317780D01*
X78654266Y-76317780D02*
X79082838Y-75746352D01*
X78654266Y-75317780D02*
X79225695Y-75889209D01*
X77749504Y-75317780D02*
X78225695Y-75317780D01*
X78273314Y-75793971D01*
X78225695Y-75746352D01*
X78130457Y-75698733D01*
X77892361Y-75698733D01*
X77797123Y-75746352D01*
X77749504Y-75793971D01*
X77701885Y-75889209D01*
X77701885Y-76127304D01*
X77749504Y-76222542D01*
X77797123Y-76270161D01*
X77892361Y-76317780D01*
X78130457Y-76317780D01*
X78225695Y-76270161D01*
X78273314Y-76222542D01*
%TD*%
M02*
