%TF.GenerationSoftware,KiCad,Pcbnew,(5.1.8)-1*%
%TF.CreationDate,2021-12-10T09:06:31+01:00*%
%TF.ProjectId,FirePlace_V1,46697265-506c-4616-9365-5f56312e6b69,rev?*%
%TF.SameCoordinates,Original*%
%TF.FileFunction,Copper,L2,Bot*%
%TF.FilePolarity,Positive*%
%FSLAX46Y46*%
G04 Gerber Fmt 4.6, Leading zero omitted, Abs format (unit mm)*
G04 Created by KiCad (PCBNEW (5.1.8)-1) date 2021-12-10 09:06:31*
%MOMM*%
%LPD*%
G01*
G04 APERTURE LIST*
%TA.AperFunction,ComponentPad*%
%ADD10C,4.000000*%
%TD*%
%TA.AperFunction,ComponentPad*%
%ADD11C,1.600000*%
%TD*%
%TA.AperFunction,ComponentPad*%
%ADD12R,1.600000X1.600000*%
%TD*%
%TA.AperFunction,ComponentPad*%
%ADD13O,1.700000X1.700000*%
%TD*%
%TA.AperFunction,ComponentPad*%
%ADD14R,1.700000X1.700000*%
%TD*%
%TA.AperFunction,ComponentPad*%
%ADD15C,0.100000*%
%TD*%
%TA.AperFunction,Conductor*%
%ADD16C,0.254000*%
%TD*%
%TA.AperFunction,Conductor*%
%ADD17C,0.100000*%
%TD*%
G04 APERTURE END LIST*
D10*
%TO.P,K5,5*%
%TO.N,GND*%
X81127600Y-78765400D03*
X81127600Y-90765400D03*
D11*
%TO.P,K5,4*%
X83987600Y-83515400D03*
%TO.P,K5,3*%
%TO.N,N/C*%
X83987600Y-86015400D03*
%TO.P,K5,2*%
X85987600Y-86015400D03*
D12*
%TO.P,K5,1*%
%TO.N,Net-(K3-Pad10)*%
X85987600Y-83515400D03*
%TD*%
D13*
%TO.P,K6,2*%
%TO.N,Net-(K3-Pad10)*%
X44780200Y-77851000D03*
D14*
%TO.P,K6,1*%
%TO.N,GND*%
X47320200Y-77851000D03*
%TD*%
%TO.P,K4,10*%
%TO.N,Net-(K4-Pad10)*%
%TA.AperFunction,ComponentPad*%
G36*
G01*
X21750959Y-44814159D02*
X21750959Y-44814159D01*
G75*
G02*
X22953041Y-44814159I601041J-601041D01*
G01*
X22953041Y-44814159D01*
G75*
G02*
X22953041Y-46016241I-601041J-601041D01*
G01*
X22953041Y-46016241D01*
G75*
G02*
X21750959Y-46016241I-601041J601041D01*
G01*
X21750959Y-46016241D01*
G75*
G02*
X21750959Y-44814159I601041J601041D01*
G01*
G37*
%TD.AperFunction*%
%TO.P,K4,9*%
%TO.N,Net-(K4-Pad9)*%
%TA.AperFunction,ComponentPad*%
G36*
G01*
X23547010Y-43018108D02*
X23547010Y-43018108D01*
G75*
G02*
X24749092Y-43018108I601041J-601041D01*
G01*
X24749092Y-43018108D01*
G75*
G02*
X24749092Y-44220190I-601041J-601041D01*
G01*
X24749092Y-44220190D01*
G75*
G02*
X23547010Y-44220190I-601041J601041D01*
G01*
X23547010Y-44220190D01*
G75*
G02*
X23547010Y-43018108I601041J601041D01*
G01*
G37*
%TD.AperFunction*%
%TO.P,K4,8*%
%TO.N,GND*%
%TA.AperFunction,ComponentPad*%
G36*
G01*
X25343061Y-41222057D02*
X25343061Y-41222057D01*
G75*
G02*
X26545143Y-41222057I601041J-601041D01*
G01*
X26545143Y-41222057D01*
G75*
G02*
X26545143Y-42424139I-601041J-601041D01*
G01*
X26545143Y-42424139D01*
G75*
G02*
X25343061Y-42424139I-601041J601041D01*
G01*
X25343061Y-42424139D01*
G75*
G02*
X25343061Y-41222057I601041J601041D01*
G01*
G37*
%TD.AperFunction*%
%TO.P,K4,7*%
%TO.N,Net-(K4-Pad7)*%
%TA.AperFunction,ComponentPad*%
G36*
G01*
X27139113Y-39426005D02*
X27139113Y-39426005D01*
G75*
G02*
X28341195Y-39426005I601041J-601041D01*
G01*
X28341195Y-39426005D01*
G75*
G02*
X28341195Y-40628087I-601041J-601041D01*
G01*
X28341195Y-40628087D01*
G75*
G02*
X27139113Y-40628087I-601041J601041D01*
G01*
X27139113Y-40628087D01*
G75*
G02*
X27139113Y-39426005I601041J601041D01*
G01*
G37*
%TD.AperFunction*%
%TO.P,K4,6*%
%TO.N,Net-(K4-Pad6)*%
%TA.AperFunction,ComponentPad*%
G36*
G01*
X28935164Y-37629954D02*
X28935164Y-37629954D01*
G75*
G02*
X30137246Y-37629954I601041J-601041D01*
G01*
X30137246Y-37629954D01*
G75*
G02*
X30137246Y-38832036I-601041J-601041D01*
G01*
X30137246Y-38832036D01*
G75*
G02*
X28935164Y-38832036I-601041J601041D01*
G01*
X28935164Y-38832036D01*
G75*
G02*
X28935164Y-37629954I601041J601041D01*
G01*
G37*
%TD.AperFunction*%
%TO.P,K4,5*%
%TO.N,Net-(K4-Pad5)*%
%TA.AperFunction,ComponentPad*%
G36*
G01*
X30731215Y-35833903D02*
X30731215Y-35833903D01*
G75*
G02*
X31933297Y-35833903I601041J-601041D01*
G01*
X31933297Y-35833903D01*
G75*
G02*
X31933297Y-37035985I-601041J-601041D01*
G01*
X31933297Y-37035985D01*
G75*
G02*
X30731215Y-37035985I-601041J601041D01*
G01*
X30731215Y-37035985D01*
G75*
G02*
X30731215Y-35833903I601041J601041D01*
G01*
G37*
%TD.AperFunction*%
%TO.P,K4,4*%
%TO.N,Net-(K4-Pad4)*%
%TA.AperFunction,ComponentPad*%
G36*
G01*
X32527266Y-34037852D02*
X32527266Y-34037852D01*
G75*
G02*
X33729348Y-34037852I601041J-601041D01*
G01*
X33729348Y-34037852D01*
G75*
G02*
X33729348Y-35239934I-601041J-601041D01*
G01*
X33729348Y-35239934D01*
G75*
G02*
X32527266Y-35239934I-601041J601041D01*
G01*
X32527266Y-35239934D01*
G75*
G02*
X32527266Y-34037852I601041J601041D01*
G01*
G37*
%TD.AperFunction*%
%TO.P,K4,3*%
%TO.N,GND*%
%TA.AperFunction,ComponentPad*%
G36*
G01*
X34323318Y-32241800D02*
X34323318Y-32241800D01*
G75*
G02*
X35525400Y-32241800I601041J-601041D01*
G01*
X35525400Y-32241800D01*
G75*
G02*
X35525400Y-33443882I-601041J-601041D01*
G01*
X35525400Y-33443882D01*
G75*
G02*
X34323318Y-33443882I-601041J601041D01*
G01*
X34323318Y-33443882D01*
G75*
G02*
X34323318Y-32241800I601041J601041D01*
G01*
G37*
%TD.AperFunction*%
%TO.P,K4,2*%
%TO.N,Net-(K4-Pad2)*%
%TA.AperFunction,ComponentPad*%
G36*
G01*
X36119369Y-30445749D02*
X36119369Y-30445749D01*
G75*
G02*
X37321451Y-30445749I601041J-601041D01*
G01*
X37321451Y-30445749D01*
G75*
G02*
X37321451Y-31647831I-601041J-601041D01*
G01*
X37321451Y-31647831D01*
G75*
G02*
X36119369Y-31647831I-601041J601041D01*
G01*
X36119369Y-31647831D01*
G75*
G02*
X36119369Y-30445749I601041J601041D01*
G01*
G37*
%TD.AperFunction*%
%TA.AperFunction,ComponentPad*%
D15*
%TO.P,K4,1*%
%TO.N,Net-(K4-Pad1)*%
G36*
X37314379Y-29250739D02*
G01*
X38516461Y-28048657D01*
X39718543Y-29250739D01*
X38516461Y-30452821D01*
X37314379Y-29250739D01*
G37*
%TD.AperFunction*%
%TD*%
D13*
%TO.P,K3,10*%
%TO.N,Net-(K3-Pad10)*%
X19507200Y-74066400D03*
%TO.P,K3,9*%
%TO.N,Net-(K3-Pad9)*%
X19507200Y-71526400D03*
%TO.P,K3,8*%
%TO.N,GND*%
X19507200Y-68986400D03*
%TO.P,K3,7*%
%TO.N,Net-(K3-Pad7)*%
X19507200Y-66446400D03*
%TO.P,K3,6*%
%TO.N,Net-(K3-Pad6)*%
X19507200Y-63906400D03*
%TO.P,K3,5*%
%TO.N,Net-(K3-Pad5)*%
X19507200Y-61366400D03*
%TO.P,K3,4*%
%TO.N,Net-(K3-Pad4)*%
X19507200Y-58826400D03*
%TO.P,K3,3*%
%TO.N,GND*%
X19507200Y-56286400D03*
%TO.P,K3,2*%
%TO.N,Net-(K3-Pad2)*%
X19507200Y-53746400D03*
D14*
%TO.P,K3,1*%
%TO.N,Net-(K3-Pad1)*%
X19507200Y-51206400D03*
%TD*%
%TO.P,K2,10*%
%TO.N,Net-(K2-Pad10)*%
%TA.AperFunction,ComponentPad*%
G36*
G01*
X84971559Y-46092441D02*
X84971559Y-46092441D01*
G75*
G02*
X84971559Y-44890359I601041J601041D01*
G01*
X84971559Y-44890359D01*
G75*
G02*
X86173641Y-44890359I601041J-601041D01*
G01*
X86173641Y-44890359D01*
G75*
G02*
X86173641Y-46092441I-601041J-601041D01*
G01*
X86173641Y-46092441D01*
G75*
G02*
X84971559Y-46092441I-601041J601041D01*
G01*
G37*
%TD.AperFunction*%
%TO.P,K2,9*%
%TO.N,Net-(K2-Pad9)*%
%TA.AperFunction,ComponentPad*%
G36*
G01*
X83175508Y-44296390D02*
X83175508Y-44296390D01*
G75*
G02*
X83175508Y-43094308I601041J601041D01*
G01*
X83175508Y-43094308D01*
G75*
G02*
X84377590Y-43094308I601041J-601041D01*
G01*
X84377590Y-43094308D01*
G75*
G02*
X84377590Y-44296390I-601041J-601041D01*
G01*
X84377590Y-44296390D01*
G75*
G02*
X83175508Y-44296390I-601041J601041D01*
G01*
G37*
%TD.AperFunction*%
%TO.P,K2,8*%
%TO.N,GND*%
%TA.AperFunction,ComponentPad*%
G36*
G01*
X81379457Y-42500339D02*
X81379457Y-42500339D01*
G75*
G02*
X81379457Y-41298257I601041J601041D01*
G01*
X81379457Y-41298257D01*
G75*
G02*
X82581539Y-41298257I601041J-601041D01*
G01*
X82581539Y-41298257D01*
G75*
G02*
X82581539Y-42500339I-601041J-601041D01*
G01*
X82581539Y-42500339D01*
G75*
G02*
X81379457Y-42500339I-601041J601041D01*
G01*
G37*
%TD.AperFunction*%
%TO.P,K2,7*%
%TO.N,Net-(K2-Pad7)*%
%TA.AperFunction,ComponentPad*%
G36*
G01*
X79583405Y-40704287D02*
X79583405Y-40704287D01*
G75*
G02*
X79583405Y-39502205I601041J601041D01*
G01*
X79583405Y-39502205D01*
G75*
G02*
X80785487Y-39502205I601041J-601041D01*
G01*
X80785487Y-39502205D01*
G75*
G02*
X80785487Y-40704287I-601041J-601041D01*
G01*
X80785487Y-40704287D01*
G75*
G02*
X79583405Y-40704287I-601041J601041D01*
G01*
G37*
%TD.AperFunction*%
%TO.P,K2,6*%
%TO.N,Net-(K2-Pad6)*%
%TA.AperFunction,ComponentPad*%
G36*
G01*
X77787354Y-38908236D02*
X77787354Y-38908236D01*
G75*
G02*
X77787354Y-37706154I601041J601041D01*
G01*
X77787354Y-37706154D01*
G75*
G02*
X78989436Y-37706154I601041J-601041D01*
G01*
X78989436Y-37706154D01*
G75*
G02*
X78989436Y-38908236I-601041J-601041D01*
G01*
X78989436Y-38908236D01*
G75*
G02*
X77787354Y-38908236I-601041J601041D01*
G01*
G37*
%TD.AperFunction*%
%TO.P,K2,5*%
%TO.N,Net-(K2-Pad5)*%
%TA.AperFunction,ComponentPad*%
G36*
G01*
X75991303Y-37112185D02*
X75991303Y-37112185D01*
G75*
G02*
X75991303Y-35910103I601041J601041D01*
G01*
X75991303Y-35910103D01*
G75*
G02*
X77193385Y-35910103I601041J-601041D01*
G01*
X77193385Y-35910103D01*
G75*
G02*
X77193385Y-37112185I-601041J-601041D01*
G01*
X77193385Y-37112185D01*
G75*
G02*
X75991303Y-37112185I-601041J601041D01*
G01*
G37*
%TD.AperFunction*%
%TO.P,K2,4*%
%TO.N,Net-(K2-Pad4)*%
%TA.AperFunction,ComponentPad*%
G36*
G01*
X74195252Y-35316134D02*
X74195252Y-35316134D01*
G75*
G02*
X74195252Y-34114052I601041J601041D01*
G01*
X74195252Y-34114052D01*
G75*
G02*
X75397334Y-34114052I601041J-601041D01*
G01*
X75397334Y-34114052D01*
G75*
G02*
X75397334Y-35316134I-601041J-601041D01*
G01*
X75397334Y-35316134D01*
G75*
G02*
X74195252Y-35316134I-601041J601041D01*
G01*
G37*
%TD.AperFunction*%
%TO.P,K2,3*%
%TO.N,GND*%
%TA.AperFunction,ComponentPad*%
G36*
G01*
X72399200Y-33520082D02*
X72399200Y-33520082D01*
G75*
G02*
X72399200Y-32318000I601041J601041D01*
G01*
X72399200Y-32318000D01*
G75*
G02*
X73601282Y-32318000I601041J-601041D01*
G01*
X73601282Y-32318000D01*
G75*
G02*
X73601282Y-33520082I-601041J-601041D01*
G01*
X73601282Y-33520082D01*
G75*
G02*
X72399200Y-33520082I-601041J601041D01*
G01*
G37*
%TD.AperFunction*%
%TO.P,K2,2*%
%TO.N,Net-(K2-Pad2)*%
%TA.AperFunction,ComponentPad*%
G36*
G01*
X70603149Y-31724031D02*
X70603149Y-31724031D01*
G75*
G02*
X70603149Y-30521949I601041J601041D01*
G01*
X70603149Y-30521949D01*
G75*
G02*
X71805231Y-30521949I601041J-601041D01*
G01*
X71805231Y-30521949D01*
G75*
G02*
X71805231Y-31724031I-601041J-601041D01*
G01*
X71805231Y-31724031D01*
G75*
G02*
X70603149Y-31724031I-601041J601041D01*
G01*
G37*
%TD.AperFunction*%
%TA.AperFunction,ComponentPad*%
D15*
%TO.P,K2,1*%
%TO.N,Net-(K2-Pad1)*%
G36*
X69408139Y-30529021D02*
G01*
X68206057Y-29326939D01*
X69408139Y-28124857D01*
X70610221Y-29326939D01*
X69408139Y-30529021D01*
G37*
%TD.AperFunction*%
%TD*%
D13*
%TO.P,K1,10*%
%TO.N,Net-(K1-Pad10)*%
X88392000Y-51206400D03*
%TO.P,K1,9*%
%TO.N,Net-(K1-Pad9)*%
X88392000Y-53746400D03*
%TO.P,K1,8*%
%TO.N,GND*%
X88392000Y-56286400D03*
%TO.P,K1,7*%
%TO.N,Net-(K1-Pad7)*%
X88392000Y-58826400D03*
%TO.P,K1,6*%
%TO.N,Net-(K1-Pad6)*%
X88392000Y-61366400D03*
%TO.P,K1,5*%
%TO.N,Net-(K1-Pad5)*%
X88392000Y-63906400D03*
%TO.P,K1,4*%
%TO.N,Net-(K1-Pad4)*%
X88392000Y-66446400D03*
%TO.P,K1,3*%
%TO.N,GND*%
X88392000Y-68986400D03*
%TO.P,K1,2*%
%TO.N,Net-(K1-Pad2)*%
X88392000Y-71526400D03*
D14*
%TO.P,K1,1*%
%TO.N,Net-(K1-Pad1)*%
X88392000Y-74066400D03*
%TD*%
D13*
%TO.P,U1,43*%
%TO.N,Net-(U1-Pad43)*%
X51574700Y-25134700D03*
D14*
%TO.P,U1,42*%
%TO.N,Net-(U1-Pad42)*%
X54114700Y-25134700D03*
D13*
%TO.P,U1,41*%
%TO.N,Net-(U1-Pad41)*%
X56654700Y-25134700D03*
%TO.P,U1,40*%
%TO.N,Net-(K3-Pad10)*%
X45224700Y-73164700D03*
%TO.P,U1,39*%
%TO.N,Net-(K3-Pad9)*%
X45224700Y-70624700D03*
D14*
%TO.P,U1,38*%
%TO.N,GND*%
X45224700Y-68084700D03*
D13*
%TO.P,U1,37*%
%TO.N,Net-(K3-Pad7)*%
X45224700Y-65544700D03*
%TO.P,U1,36*%
%TO.N,Net-(K3-Pad6)*%
X45224700Y-63004700D03*
%TO.P,U1,35*%
%TO.N,Net-(K3-Pad5)*%
X45224700Y-60464700D03*
%TO.P,U1,34*%
%TO.N,Net-(K3-Pad4)*%
X45224700Y-57924700D03*
D14*
%TO.P,U1,33*%
%TO.N,GND*%
X45224700Y-55384700D03*
D13*
%TO.P,U1,32*%
%TO.N,Net-(K3-Pad2)*%
X45224700Y-52844700D03*
%TO.P,U1,31*%
%TO.N,Net-(K3-Pad1)*%
X45224700Y-50304700D03*
%TO.P,U1,30*%
%TO.N,Net-(K4-Pad10)*%
X45224700Y-47764700D03*
%TO.P,U1,29*%
%TO.N,Net-(K4-Pad9)*%
X45224700Y-45224700D03*
D14*
%TO.P,U1,28*%
%TO.N,GND*%
X45224700Y-42684700D03*
D13*
%TO.P,U1,27*%
%TO.N,Net-(K4-Pad7)*%
X45224700Y-40144700D03*
%TO.P,U1,26*%
%TO.N,Net-(K4-Pad6)*%
X45224700Y-37604700D03*
%TO.P,U1,25*%
%TO.N,Net-(K4-Pad5)*%
X45224700Y-35064700D03*
%TO.P,U1,24*%
%TO.N,Net-(K4-Pad4)*%
X45224700Y-32524700D03*
D14*
%TO.P,U1,23*%
%TO.N,GND*%
X45224700Y-29984700D03*
D13*
%TO.P,U1,22*%
%TO.N,Net-(K4-Pad2)*%
X45224700Y-27444700D03*
%TO.P,U1,21*%
%TO.N,Net-(K4-Pad1)*%
X45224700Y-24904700D03*
%TO.P,U1,20*%
%TO.N,Net-(K2-Pad1)*%
X63004700Y-24904700D03*
%TO.P,U1,19*%
%TO.N,Net-(K2-Pad2)*%
X63004700Y-27444700D03*
D14*
%TO.P,U1,18*%
%TO.N,GND*%
X63004700Y-29984700D03*
D13*
%TO.P,U1,17*%
%TO.N,Net-(K2-Pad4)*%
X63004700Y-32524700D03*
%TO.P,U1,16*%
%TO.N,Net-(K2-Pad5)*%
X63004700Y-35064700D03*
%TO.P,U1,15*%
%TO.N,Net-(K2-Pad6)*%
X63004700Y-37604700D03*
%TO.P,U1,14*%
%TO.N,Net-(K2-Pad7)*%
X63004700Y-40144700D03*
D14*
%TO.P,U1,13*%
%TO.N,GND*%
X63004700Y-42684700D03*
D13*
%TO.P,U1,12*%
%TO.N,Net-(K2-Pad9)*%
X63004700Y-45224700D03*
%TO.P,U1,11*%
%TO.N,Net-(K2-Pad10)*%
X63004700Y-47764700D03*
%TO.P,U1,10*%
%TO.N,Net-(K1-Pad10)*%
X63004700Y-50304700D03*
%TO.P,U1,9*%
%TO.N,Net-(K1-Pad9)*%
X63004700Y-52844700D03*
D14*
%TO.P,U1,8*%
%TO.N,GND*%
X63004700Y-55384700D03*
D13*
%TO.P,U1,7*%
%TO.N,Net-(K1-Pad7)*%
X63004700Y-57924700D03*
%TO.P,U1,6*%
%TO.N,Net-(K1-Pad6)*%
X63004700Y-60464700D03*
%TO.P,U1,5*%
%TO.N,Net-(K1-Pad5)*%
X63004700Y-63004700D03*
%TO.P,U1,4*%
%TO.N,Net-(K1-Pad4)*%
X63004700Y-65544700D03*
D14*
%TO.P,U1,3*%
%TO.N,GND*%
X63004700Y-68084700D03*
D13*
%TO.P,U1,2*%
%TO.N,Net-(K1-Pad2)*%
X63004700Y-70624700D03*
%TO.P,U1,1*%
%TO.N,Net-(K1-Pad1)*%
X63004700Y-73164700D03*
%TD*%
D16*
%TO.N,GND*%
X64973478Y-21553576D02*
X64377402Y-22149652D01*
X64349363Y-22172663D01*
X64326352Y-22200702D01*
X64326347Y-22200707D01*
X64264723Y-22275797D01*
X64257514Y-22284581D01*
X64189264Y-22412267D01*
X64147235Y-22550815D01*
X64133044Y-22694900D01*
X64147235Y-22838985D01*
X64189264Y-22977533D01*
X64257514Y-23105219D01*
X64326347Y-23189093D01*
X64326352Y-23189098D01*
X64349363Y-23217137D01*
X64377402Y-23240148D01*
X68883940Y-27746686D01*
X67754872Y-28875754D01*
X67675520Y-28972445D01*
X67616555Y-29082759D01*
X67580245Y-29202457D01*
X67567985Y-29326939D01*
X67580245Y-29451421D01*
X67616555Y-29571119D01*
X67675520Y-29681433D01*
X67754872Y-29778124D01*
X68956954Y-30980206D01*
X69053645Y-31059558D01*
X69163959Y-31118523D01*
X69283657Y-31154833D01*
X69408139Y-31167093D01*
X69532621Y-31154833D01*
X69652319Y-31118523D01*
X69719190Y-31082779D01*
X69719190Y-31269250D01*
X69776258Y-31556148D01*
X69888200Y-31826401D01*
X70050715Y-32069622D01*
X70257558Y-32276465D01*
X70500779Y-32438980D01*
X70771032Y-32550922D01*
X71057930Y-32607990D01*
X71350450Y-32607990D01*
X71565329Y-32565248D01*
X71531910Y-32697135D01*
X71516832Y-32987856D01*
X71558761Y-33275933D01*
X71656085Y-33550294D01*
X71728604Y-33685959D01*
X71976948Y-33762729D01*
X72820636Y-32919041D01*
X72806494Y-32904899D01*
X72986099Y-32725294D01*
X73000241Y-32739436D01*
X73014384Y-32725294D01*
X73193989Y-32904899D01*
X73179846Y-32919041D01*
X73193989Y-32933184D01*
X73014384Y-33112789D01*
X73000241Y-33098646D01*
X72156553Y-33942334D01*
X72233323Y-34190678D01*
X72368988Y-34263197D01*
X72643349Y-34360521D01*
X72931426Y-34402450D01*
X73222147Y-34387372D01*
X73354036Y-34353952D01*
X73311293Y-34568833D01*
X73311293Y-34861353D01*
X73368361Y-35148251D01*
X73480303Y-35418504D01*
X73642818Y-35661725D01*
X73849661Y-35868568D01*
X74092882Y-36031083D01*
X74363135Y-36143025D01*
X74650033Y-36200093D01*
X74942553Y-36200093D01*
X75148262Y-36159175D01*
X75107344Y-36364884D01*
X75107344Y-36657404D01*
X75164412Y-36944302D01*
X75276354Y-37214555D01*
X75438869Y-37457776D01*
X75645712Y-37664619D01*
X75888933Y-37827134D01*
X76159186Y-37939076D01*
X76446084Y-37996144D01*
X76738604Y-37996144D01*
X76944313Y-37955226D01*
X76903395Y-38160935D01*
X76903395Y-38453455D01*
X76960463Y-38740353D01*
X77072405Y-39010606D01*
X77234920Y-39253827D01*
X77441763Y-39460670D01*
X77684984Y-39623185D01*
X77955237Y-39735127D01*
X78242135Y-39792195D01*
X78534655Y-39792195D01*
X78740364Y-39751277D01*
X78699446Y-39956986D01*
X78699446Y-40249506D01*
X78756514Y-40536404D01*
X78868456Y-40806657D01*
X79030971Y-41049878D01*
X79237814Y-41256721D01*
X79481035Y-41419236D01*
X79751288Y-41531178D01*
X80038186Y-41588246D01*
X80330706Y-41588246D01*
X80545587Y-41545503D01*
X80512167Y-41677392D01*
X80497089Y-41968113D01*
X80539018Y-42256190D01*
X80636342Y-42530551D01*
X80708861Y-42666216D01*
X80957205Y-42742986D01*
X81800893Y-41899298D01*
X81786751Y-41885156D01*
X81966356Y-41705551D01*
X81980498Y-41719693D01*
X81994641Y-41705551D01*
X82174246Y-41885156D01*
X82160103Y-41899298D01*
X82174246Y-41913441D01*
X81994641Y-42093046D01*
X81980498Y-42078903D01*
X81136810Y-42922591D01*
X81213580Y-43170935D01*
X81349245Y-43243454D01*
X81623606Y-43340778D01*
X81911683Y-43382707D01*
X82202404Y-43367629D01*
X82334291Y-43334210D01*
X82291549Y-43549089D01*
X82291549Y-43841609D01*
X82348617Y-44128507D01*
X82460559Y-44398760D01*
X82623074Y-44641981D01*
X82829917Y-44848824D01*
X83073138Y-45011339D01*
X83343391Y-45123281D01*
X83630289Y-45180349D01*
X83922809Y-45180349D01*
X84128518Y-45139431D01*
X84087600Y-45345140D01*
X84087600Y-45637660D01*
X84144668Y-45924558D01*
X84256610Y-46194811D01*
X84419125Y-46438032D01*
X84625968Y-46644875D01*
X84869189Y-46807390D01*
X85139442Y-46919332D01*
X85426340Y-46976400D01*
X85718860Y-46976400D01*
X86005758Y-46919332D01*
X86276011Y-46807390D01*
X86519232Y-46644875D01*
X86726075Y-46438032D01*
X86888590Y-46194811D01*
X87000532Y-45924558D01*
X87010699Y-45873446D01*
X87503856Y-46366603D01*
X87526863Y-46394637D01*
X87554897Y-46417644D01*
X87554906Y-46417653D01*
X87638780Y-46486486D01*
X87766466Y-46554736D01*
X87905015Y-46596765D01*
X88049100Y-46610956D01*
X88193185Y-46596765D01*
X88331733Y-46554736D01*
X88358011Y-46540690D01*
X88459420Y-46486486D01*
X88571338Y-46394638D01*
X88594357Y-46366589D01*
X89190431Y-45770516D01*
X91568260Y-48163646D01*
X91297062Y-48439400D01*
X89928093Y-48439400D01*
X89893398Y-48435850D01*
X89855898Y-48439400D01*
X89854495Y-48439400D01*
X89819756Y-48442821D01*
X89749261Y-48449495D01*
X89747918Y-48449897D01*
X89746515Y-48450035D01*
X89678329Y-48470719D01*
X89610555Y-48490998D01*
X89609318Y-48491653D01*
X89607967Y-48492063D01*
X89545068Y-48525683D01*
X89482610Y-48558764D01*
X89481525Y-48559647D01*
X89480280Y-48560313D01*
X89425165Y-48605545D01*
X89370345Y-48650188D01*
X89369453Y-48651267D01*
X89368362Y-48652162D01*
X89323134Y-48707273D01*
X89278073Y-48761757D01*
X89277409Y-48762989D01*
X89276513Y-48764080D01*
X89242920Y-48826927D01*
X89209339Y-48889185D01*
X89208927Y-48890525D01*
X89208263Y-48891767D01*
X89187592Y-48959910D01*
X89166787Y-49027572D01*
X89166644Y-49028965D01*
X89166235Y-49030315D01*
X89159251Y-49101225D01*
X89155743Y-49135511D01*
X89155738Y-49136896D01*
X89152044Y-49174400D01*
X89155464Y-49209125D01*
X89152738Y-49928714D01*
X89095411Y-49890410D01*
X88825158Y-49778468D01*
X88538260Y-49721400D01*
X88245740Y-49721400D01*
X87958842Y-49778468D01*
X87688589Y-49890410D01*
X87445368Y-50052925D01*
X87238525Y-50259768D01*
X87076010Y-50502989D01*
X86964068Y-50773242D01*
X86907000Y-51060140D01*
X86907000Y-51352660D01*
X86964068Y-51639558D01*
X87076010Y-51909811D01*
X87238525Y-52153032D01*
X87445368Y-52359875D01*
X87619760Y-52476400D01*
X87445368Y-52592925D01*
X87238525Y-52799768D01*
X87076010Y-53042989D01*
X86964068Y-53313242D01*
X86907000Y-53600140D01*
X86907000Y-53892660D01*
X86964068Y-54179558D01*
X87076010Y-54449811D01*
X87238525Y-54693032D01*
X87445368Y-54899875D01*
X87627534Y-55021595D01*
X87510645Y-55091222D01*
X87294412Y-55286131D01*
X87120359Y-55519480D01*
X86995175Y-55782301D01*
X86950524Y-55929510D01*
X87071845Y-56159400D01*
X88265000Y-56159400D01*
X88265000Y-56139400D01*
X88519000Y-56139400D01*
X88519000Y-56159400D01*
X89712155Y-56159400D01*
X89833476Y-55929510D01*
X89788825Y-55782301D01*
X89663641Y-55519480D01*
X89489588Y-55286131D01*
X89273355Y-55091222D01*
X89156466Y-55021595D01*
X89275472Y-54942077D01*
X89301471Y-54973758D01*
X89346178Y-55028655D01*
X89347257Y-55029547D01*
X89348152Y-55030638D01*
X89403263Y-55075866D01*
X89457747Y-55120927D01*
X89458979Y-55121591D01*
X89460070Y-55122487D01*
X89522861Y-55156049D01*
X89585174Y-55189661D01*
X89586516Y-55190074D01*
X89587757Y-55190737D01*
X89655864Y-55211397D01*
X89723562Y-55232213D01*
X89724955Y-55232356D01*
X89726305Y-55232765D01*
X89797178Y-55239745D01*
X89867592Y-55246950D01*
X89905092Y-55243400D01*
X90742959Y-55243400D01*
X90735537Y-93556894D01*
X80478165Y-93549826D01*
X80441800Y-93546244D01*
X80369199Y-93553394D01*
X80298215Y-93560336D01*
X80297971Y-93560410D01*
X80297715Y-93560435D01*
X80227892Y-93581615D01*
X80159638Y-93602269D01*
X80159416Y-93602387D01*
X80159167Y-93602463D01*
X80094424Y-93637069D01*
X80031904Y-93670431D01*
X80031710Y-93670590D01*
X80031480Y-93670713D01*
X79974946Y-93717110D01*
X79919923Y-93762203D01*
X79919762Y-93762399D01*
X79919562Y-93762563D01*
X79873753Y-93818381D01*
X79827996Y-93874057D01*
X79827874Y-93874285D01*
X79827713Y-93874481D01*
X79793944Y-93937659D01*
X79759658Y-94001697D01*
X79759583Y-94001943D01*
X79759463Y-94002168D01*
X79738505Y-94071257D01*
X79717535Y-94140216D01*
X79717510Y-94140469D01*
X79717435Y-94140716D01*
X79710274Y-94213423D01*
X79703245Y-94284292D01*
X79706800Y-94320645D01*
X79706801Y-95125430D01*
X58697799Y-95149170D01*
X58697798Y-94235994D01*
X58697619Y-94234173D01*
X58697336Y-94177656D01*
X58693747Y-94142848D01*
X58693664Y-94107869D01*
X58692568Y-94097666D01*
X58603691Y-93321965D01*
X58589671Y-93256768D01*
X58576590Y-93191520D01*
X58573533Y-93181724D01*
X58391602Y-92612899D01*
X79459706Y-92612899D01*
X79675828Y-92979658D01*
X80135705Y-93220338D01*
X80633698Y-93366675D01*
X81150671Y-93413048D01*
X81666759Y-93357673D01*
X82162126Y-93202679D01*
X82579372Y-92979658D01*
X82795494Y-92612899D01*
X81127600Y-90945005D01*
X79459706Y-92612899D01*
X58391602Y-92612899D01*
X58335681Y-92438059D01*
X58309268Y-92376834D01*
X58283760Y-92315363D01*
X58278858Y-92306347D01*
X57901091Y-91623044D01*
X57863305Y-91568139D01*
X57826327Y-91512769D01*
X57819767Y-91504877D01*
X57316473Y-90907962D01*
X57268757Y-90861457D01*
X57221713Y-90814308D01*
X57213745Y-90807841D01*
X57189536Y-90788471D01*
X78479952Y-90788471D01*
X78535327Y-91304559D01*
X78690321Y-91799926D01*
X78913342Y-92217172D01*
X79280101Y-92433294D01*
X80947995Y-90765400D01*
X81307205Y-90765400D01*
X82975099Y-92433294D01*
X83341858Y-92217172D01*
X83582538Y-91757295D01*
X83728875Y-91259302D01*
X83775248Y-90742329D01*
X83719873Y-90226241D01*
X83564879Y-89730874D01*
X83341858Y-89313628D01*
X82975099Y-89097506D01*
X81307205Y-90765400D01*
X80947995Y-90765400D01*
X79280101Y-89097506D01*
X78913342Y-89313628D01*
X78672662Y-89773505D01*
X78526325Y-90271498D01*
X78479952Y-90788471D01*
X57189536Y-90788471D01*
X56604095Y-90320052D01*
X56548266Y-90283708D01*
X56492950Y-90246588D01*
X56483877Y-90241791D01*
X55791093Y-89881707D01*
X55729238Y-89856887D01*
X55667795Y-89831231D01*
X55657964Y-89828288D01*
X54908432Y-89609624D01*
X54842962Y-89597296D01*
X54777678Y-89584057D01*
X54767462Y-89583080D01*
X53989734Y-89514165D01*
X53923100Y-89514788D01*
X53856504Y-89514482D01*
X53846293Y-89515507D01*
X53069990Y-89598966D01*
X53004727Y-89612524D01*
X52939359Y-89625155D01*
X52929541Y-89628144D01*
X52184234Y-89860799D01*
X52122885Y-89886760D01*
X52061178Y-89911862D01*
X52052129Y-89916701D01*
X51366205Y-90289689D01*
X51311039Y-90327090D01*
X51255411Y-90363681D01*
X51247479Y-90370182D01*
X51247473Y-90370186D01*
X51247468Y-90370191D01*
X50647060Y-90869300D01*
X50600217Y-90916697D01*
X50552748Y-90963403D01*
X50546225Y-90971326D01*
X50054191Y-91577556D01*
X50017427Y-91633177D01*
X49979953Y-91688186D01*
X49975096Y-91697220D01*
X49975093Y-91697224D01*
X49975093Y-91697225D01*
X49610181Y-92387478D01*
X49584928Y-92449162D01*
X49558844Y-92510422D01*
X49555833Y-92520232D01*
X49331942Y-93268219D01*
X49319150Y-93333639D01*
X49305463Y-93398791D01*
X49304414Y-93408999D01*
X49230071Y-94186228D01*
X49230079Y-94189413D01*
X49226740Y-94223323D01*
X49226774Y-95162285D01*
X28243200Y-95150416D01*
X28243200Y-94320653D01*
X28246756Y-94284292D01*
X28239605Y-94212194D01*
X28232565Y-94140715D01*
X28232491Y-94140472D01*
X28232466Y-94140217D01*
X28211538Y-94071397D01*
X28190537Y-94002167D01*
X28190415Y-94001940D01*
X28190342Y-94001698D01*
X28156702Y-93938866D01*
X28122287Y-93874480D01*
X28122123Y-93874280D01*
X28122004Y-93874058D01*
X28076772Y-93819020D01*
X28030438Y-93762562D01*
X28030238Y-93762398D01*
X28030078Y-93762203D01*
X27974781Y-93716885D01*
X27918520Y-93670713D01*
X27918293Y-93670592D01*
X27918097Y-93670431D01*
X27854974Y-93636747D01*
X27790833Y-93602463D01*
X27790586Y-93602388D01*
X27790363Y-93602269D01*
X27721704Y-93581493D01*
X27652285Y-93560435D01*
X27652030Y-93560410D01*
X27651786Y-93560336D01*
X27580661Y-93553381D01*
X27508200Y-93546244D01*
X27471836Y-93549826D01*
X17205400Y-93556895D01*
X17205400Y-88917901D01*
X79459706Y-88917901D01*
X81127600Y-90585795D01*
X82795494Y-88917901D01*
X82579372Y-88551142D01*
X82119495Y-88310462D01*
X81621502Y-88164125D01*
X81104529Y-88117752D01*
X80588441Y-88173127D01*
X80093074Y-88328121D01*
X79675828Y-88551142D01*
X79459706Y-88917901D01*
X17205400Y-88917901D01*
X17205400Y-85874065D01*
X82552600Y-85874065D01*
X82552600Y-86156735D01*
X82607747Y-86433974D01*
X82715920Y-86695127D01*
X82872963Y-86930159D01*
X83072841Y-87130037D01*
X83307873Y-87287080D01*
X83569026Y-87395253D01*
X83846265Y-87450400D01*
X84128935Y-87450400D01*
X84406174Y-87395253D01*
X84667327Y-87287080D01*
X84902359Y-87130037D01*
X84987600Y-87044796D01*
X85072841Y-87130037D01*
X85307873Y-87287080D01*
X85569026Y-87395253D01*
X85846265Y-87450400D01*
X86128935Y-87450400D01*
X86406174Y-87395253D01*
X86667327Y-87287080D01*
X86902359Y-87130037D01*
X87102237Y-86930159D01*
X87259280Y-86695127D01*
X87367453Y-86433974D01*
X87422600Y-86156735D01*
X87422600Y-85874065D01*
X87367453Y-85596826D01*
X87259280Y-85335673D01*
X87102237Y-85100641D01*
X86935657Y-84934061D01*
X87031780Y-84904902D01*
X87142094Y-84845937D01*
X87238785Y-84766585D01*
X87318137Y-84669894D01*
X87377102Y-84559580D01*
X87413412Y-84439882D01*
X87425672Y-84315400D01*
X87425672Y-82715400D01*
X87413412Y-82590918D01*
X87377102Y-82471220D01*
X87318137Y-82360906D01*
X87238785Y-82264215D01*
X87142094Y-82184863D01*
X87031780Y-82125898D01*
X86912082Y-82089588D01*
X86787600Y-82077328D01*
X85187600Y-82077328D01*
X85063118Y-82089588D01*
X84943420Y-82125898D01*
X84833106Y-82184863D01*
X84736415Y-82264215D01*
X84725793Y-82277158D01*
X84473604Y-82157829D01*
X84199416Y-82089100D01*
X83917088Y-82075183D01*
X83637470Y-82116613D01*
X83371308Y-82211797D01*
X83246086Y-82278729D01*
X83174503Y-82522698D01*
X83987600Y-83335795D01*
X84001743Y-83321653D01*
X84181348Y-83501258D01*
X84167205Y-83515400D01*
X84181348Y-83529543D01*
X84001743Y-83709148D01*
X83987600Y-83695005D01*
X83174503Y-84508102D01*
X83246086Y-84752071D01*
X83274941Y-84765724D01*
X83072841Y-84900763D01*
X82872963Y-85100641D01*
X82715920Y-85335673D01*
X82607747Y-85596826D01*
X82552600Y-85874065D01*
X17205400Y-85874065D01*
X17205400Y-83585912D01*
X82547383Y-83585912D01*
X82588813Y-83865530D01*
X82683997Y-84131692D01*
X82750929Y-84256914D01*
X82994898Y-84328497D01*
X83807995Y-83515400D01*
X82994898Y-82702303D01*
X82750929Y-82773886D01*
X82630029Y-83029396D01*
X82561300Y-83303584D01*
X82547383Y-83585912D01*
X17205400Y-83585912D01*
X17205400Y-80612899D01*
X79459706Y-80612899D01*
X79675828Y-80979658D01*
X80135705Y-81220338D01*
X80633698Y-81366675D01*
X81150671Y-81413048D01*
X81666759Y-81357673D01*
X82162126Y-81202679D01*
X82579372Y-80979658D01*
X82795494Y-80612899D01*
X81127600Y-78945005D01*
X79459706Y-80612899D01*
X17205400Y-80612899D01*
X17205400Y-77704740D01*
X43295200Y-77704740D01*
X43295200Y-77997260D01*
X43352268Y-78284158D01*
X43464210Y-78554411D01*
X43626725Y-78797632D01*
X43833568Y-79004475D01*
X44076789Y-79166990D01*
X44347042Y-79278932D01*
X44633940Y-79336000D01*
X44926460Y-79336000D01*
X45213358Y-79278932D01*
X45483611Y-79166990D01*
X45726832Y-79004475D01*
X45858687Y-78872620D01*
X45880698Y-78945180D01*
X45939663Y-79055494D01*
X46019015Y-79152185D01*
X46115706Y-79231537D01*
X46226020Y-79290502D01*
X46345718Y-79326812D01*
X46470200Y-79339072D01*
X47034450Y-79336000D01*
X47193200Y-79177250D01*
X47193200Y-77978000D01*
X47447200Y-77978000D01*
X47447200Y-79177250D01*
X47605950Y-79336000D01*
X48170200Y-79339072D01*
X48294682Y-79326812D01*
X48414380Y-79290502D01*
X48524694Y-79231537D01*
X48621385Y-79152185D01*
X48700737Y-79055494D01*
X48759702Y-78945180D01*
X48796012Y-78825482D01*
X48799657Y-78788471D01*
X78479952Y-78788471D01*
X78535327Y-79304559D01*
X78690321Y-79799926D01*
X78913342Y-80217172D01*
X79280101Y-80433294D01*
X80947995Y-78765400D01*
X81307205Y-78765400D01*
X82975099Y-80433294D01*
X83341858Y-80217172D01*
X83582538Y-79757295D01*
X83728875Y-79259302D01*
X83775248Y-78742329D01*
X83719873Y-78226241D01*
X83564879Y-77730874D01*
X83341858Y-77313628D01*
X82975099Y-77097506D01*
X81307205Y-78765400D01*
X80947995Y-78765400D01*
X79280101Y-77097506D01*
X78913342Y-77313628D01*
X78672662Y-77773505D01*
X78526325Y-78271498D01*
X78479952Y-78788471D01*
X48799657Y-78788471D01*
X48808272Y-78701000D01*
X48805200Y-78136750D01*
X48646450Y-77978000D01*
X47447200Y-77978000D01*
X47193200Y-77978000D01*
X47173200Y-77978000D01*
X47173200Y-77724000D01*
X47193200Y-77724000D01*
X47193200Y-76524750D01*
X47447200Y-76524750D01*
X47447200Y-77724000D01*
X48646450Y-77724000D01*
X48805200Y-77565250D01*
X48808272Y-77001000D01*
X48800088Y-76917901D01*
X79459706Y-76917901D01*
X81127600Y-78585795D01*
X82795494Y-76917901D01*
X82579372Y-76551142D01*
X82119495Y-76310462D01*
X81621502Y-76164125D01*
X81104529Y-76117752D01*
X80588441Y-76173127D01*
X80093074Y-76328121D01*
X79675828Y-76551142D01*
X79459706Y-76917901D01*
X48800088Y-76917901D01*
X48796012Y-76876518D01*
X48759702Y-76756820D01*
X48700737Y-76646506D01*
X48621385Y-76549815D01*
X48524694Y-76470463D01*
X48414380Y-76411498D01*
X48294682Y-76375188D01*
X48170200Y-76362928D01*
X47605950Y-76366000D01*
X47447200Y-76524750D01*
X47193200Y-76524750D01*
X47034450Y-76366000D01*
X46470200Y-76362928D01*
X46345718Y-76375188D01*
X46226020Y-76411498D01*
X46115706Y-76470463D01*
X46019015Y-76549815D01*
X45939663Y-76646506D01*
X45880698Y-76756820D01*
X45858687Y-76829380D01*
X45726832Y-76697525D01*
X45483611Y-76535010D01*
X45213358Y-76423068D01*
X44926460Y-76366000D01*
X44633940Y-76366000D01*
X44347042Y-76423068D01*
X44076789Y-76535010D01*
X43833568Y-76697525D01*
X43626725Y-76904368D01*
X43464210Y-77147589D01*
X43352268Y-77417842D01*
X43295200Y-77704740D01*
X17205400Y-77704740D01*
X17205400Y-71380140D01*
X18022200Y-71380140D01*
X18022200Y-71672660D01*
X18079268Y-71959558D01*
X18191210Y-72229811D01*
X18353725Y-72473032D01*
X18560568Y-72679875D01*
X18734960Y-72796400D01*
X18560568Y-72912925D01*
X18353725Y-73119768D01*
X18191210Y-73362989D01*
X18079268Y-73633242D01*
X18022200Y-73920140D01*
X18022200Y-74212660D01*
X18079268Y-74499558D01*
X18191210Y-74769811D01*
X18353725Y-75013032D01*
X18560568Y-75219875D01*
X18803789Y-75382390D01*
X19074042Y-75494332D01*
X19360940Y-75551400D01*
X19653460Y-75551400D01*
X19940358Y-75494332D01*
X20210611Y-75382390D01*
X20453832Y-75219875D01*
X20660675Y-75013032D01*
X20823190Y-74769811D01*
X20935132Y-74499558D01*
X20992200Y-74212660D01*
X20992200Y-73920140D01*
X20935132Y-73633242D01*
X20823190Y-73362989D01*
X20660675Y-73119768D01*
X20453832Y-72912925D01*
X20279440Y-72796400D01*
X20453832Y-72679875D01*
X20660675Y-72473032D01*
X20823190Y-72229811D01*
X20935132Y-71959558D01*
X20992200Y-71672660D01*
X20992200Y-71380140D01*
X20935132Y-71093242D01*
X20823190Y-70822989D01*
X20660675Y-70579768D01*
X20453832Y-70372925D01*
X20271666Y-70251205D01*
X20388555Y-70181578D01*
X20604788Y-69986669D01*
X20778841Y-69753320D01*
X20904025Y-69490499D01*
X20948676Y-69343290D01*
X20827355Y-69113400D01*
X19634200Y-69113400D01*
X19634200Y-69133400D01*
X19380200Y-69133400D01*
X19380200Y-69113400D01*
X18187045Y-69113400D01*
X18065724Y-69343290D01*
X18110375Y-69490499D01*
X18235559Y-69753320D01*
X18409612Y-69986669D01*
X18625845Y-70181578D01*
X18742734Y-70251205D01*
X18560568Y-70372925D01*
X18353725Y-70579768D01*
X18191210Y-70822989D01*
X18079268Y-71093242D01*
X18022200Y-71380140D01*
X17205400Y-71380140D01*
X17205400Y-68934700D01*
X43736628Y-68934700D01*
X43748888Y-69059182D01*
X43785198Y-69178880D01*
X43844163Y-69289194D01*
X43923515Y-69385885D01*
X44020206Y-69465237D01*
X44130520Y-69524202D01*
X44203080Y-69546213D01*
X44071225Y-69678068D01*
X43908710Y-69921289D01*
X43796768Y-70191542D01*
X43739700Y-70478440D01*
X43739700Y-70770960D01*
X43796768Y-71057858D01*
X43908710Y-71328111D01*
X44071225Y-71571332D01*
X44278068Y-71778175D01*
X44452460Y-71894700D01*
X44278068Y-72011225D01*
X44071225Y-72218068D01*
X43908710Y-72461289D01*
X43796768Y-72731542D01*
X43739700Y-73018440D01*
X43739700Y-73310960D01*
X43796768Y-73597858D01*
X43908710Y-73868111D01*
X44071225Y-74111332D01*
X44278068Y-74318175D01*
X44521289Y-74480690D01*
X44791542Y-74592632D01*
X45078440Y-74649700D01*
X45370960Y-74649700D01*
X45657858Y-74592632D01*
X45928111Y-74480690D01*
X46171332Y-74318175D01*
X46378175Y-74111332D01*
X46540690Y-73868111D01*
X46652632Y-73597858D01*
X46709700Y-73310960D01*
X46709700Y-73018440D01*
X46682862Y-72883516D01*
X49854700Y-72883516D01*
X49854700Y-73185884D01*
X49913689Y-73482443D01*
X50029401Y-73761795D01*
X50197388Y-74013205D01*
X50411195Y-74227012D01*
X50662605Y-74394999D01*
X50941957Y-74510711D01*
X51238516Y-74569700D01*
X51540884Y-74569700D01*
X51837443Y-74510711D01*
X52116795Y-74394999D01*
X52368205Y-74227012D01*
X52582012Y-74013205D01*
X52749999Y-73761795D01*
X52865711Y-73482443D01*
X52924700Y-73185884D01*
X52924700Y-72883516D01*
X55304700Y-72883516D01*
X55304700Y-73185884D01*
X55363689Y-73482443D01*
X55479401Y-73761795D01*
X55647388Y-74013205D01*
X55861195Y-74227012D01*
X56112605Y-74394999D01*
X56391957Y-74510711D01*
X56688516Y-74569700D01*
X56990884Y-74569700D01*
X57287443Y-74510711D01*
X57566795Y-74394999D01*
X57818205Y-74227012D01*
X58032012Y-74013205D01*
X58199999Y-73761795D01*
X58315711Y-73482443D01*
X58374700Y-73185884D01*
X58374700Y-72883516D01*
X58315711Y-72586957D01*
X58199999Y-72307605D01*
X58032012Y-72056195D01*
X57818205Y-71842388D01*
X57566795Y-71674401D01*
X57287443Y-71558689D01*
X56990884Y-71499700D01*
X56688516Y-71499700D01*
X56391957Y-71558689D01*
X56112605Y-71674401D01*
X55861195Y-71842388D01*
X55647388Y-72056195D01*
X55479401Y-72307605D01*
X55363689Y-72586957D01*
X55304700Y-72883516D01*
X52924700Y-72883516D01*
X52865711Y-72586957D01*
X52749999Y-72307605D01*
X52582012Y-72056195D01*
X52368205Y-71842388D01*
X52116795Y-71674401D01*
X51837443Y-71558689D01*
X51540884Y-71499700D01*
X51238516Y-71499700D01*
X50941957Y-71558689D01*
X50662605Y-71674401D01*
X50411195Y-71842388D01*
X50197388Y-72056195D01*
X50029401Y-72307605D01*
X49913689Y-72586957D01*
X49854700Y-72883516D01*
X46682862Y-72883516D01*
X46652632Y-72731542D01*
X46540690Y-72461289D01*
X46378175Y-72218068D01*
X46171332Y-72011225D01*
X45996940Y-71894700D01*
X46171332Y-71778175D01*
X46378175Y-71571332D01*
X46540690Y-71328111D01*
X46652632Y-71057858D01*
X46709700Y-70770960D01*
X46709700Y-70478440D01*
X46652632Y-70191542D01*
X46540690Y-69921289D01*
X46505277Y-69868289D01*
X50304700Y-69868289D01*
X50304700Y-70141111D01*
X50357925Y-70408689D01*
X50462329Y-70660743D01*
X50613901Y-70887586D01*
X50806814Y-71080499D01*
X51033657Y-71232071D01*
X51285711Y-71336475D01*
X51553289Y-71389700D01*
X51826111Y-71389700D01*
X52093689Y-71336475D01*
X52345743Y-71232071D01*
X52572586Y-71080499D01*
X52765499Y-70887586D01*
X52917071Y-70660743D01*
X53021475Y-70408689D01*
X53074700Y-70141111D01*
X53074700Y-69868289D01*
X55154700Y-69868289D01*
X55154700Y-70141111D01*
X55207925Y-70408689D01*
X55312329Y-70660743D01*
X55463901Y-70887586D01*
X55656814Y-71080499D01*
X55883657Y-71232071D01*
X56135711Y-71336475D01*
X56403289Y-71389700D01*
X56676111Y-71389700D01*
X56943689Y-71336475D01*
X57195743Y-71232071D01*
X57422586Y-71080499D01*
X57615499Y-70887586D01*
X57767071Y-70660743D01*
X57871475Y-70408689D01*
X57924700Y-70141111D01*
X57924700Y-69868289D01*
X57871475Y-69600711D01*
X57767071Y-69348657D01*
X57615499Y-69121814D01*
X57428385Y-68934700D01*
X61516628Y-68934700D01*
X61528888Y-69059182D01*
X61565198Y-69178880D01*
X61624163Y-69289194D01*
X61703515Y-69385885D01*
X61800206Y-69465237D01*
X61910520Y-69524202D01*
X61983080Y-69546213D01*
X61851225Y-69678068D01*
X61688710Y-69921289D01*
X61576768Y-70191542D01*
X61519700Y-70478440D01*
X61519700Y-70770960D01*
X61576768Y-71057858D01*
X61688710Y-71328111D01*
X61851225Y-71571332D01*
X62058068Y-71778175D01*
X62232460Y-71894700D01*
X62058068Y-72011225D01*
X61851225Y-72218068D01*
X61688710Y-72461289D01*
X61576768Y-72731542D01*
X61519700Y-73018440D01*
X61519700Y-73310960D01*
X61576768Y-73597858D01*
X61688710Y-73868111D01*
X61851225Y-74111332D01*
X62058068Y-74318175D01*
X62301289Y-74480690D01*
X62571542Y-74592632D01*
X62858440Y-74649700D01*
X63150960Y-74649700D01*
X63437858Y-74592632D01*
X63708111Y-74480690D01*
X63951332Y-74318175D01*
X64158175Y-74111332D01*
X64320690Y-73868111D01*
X64432632Y-73597858D01*
X64489700Y-73310960D01*
X64489700Y-73216400D01*
X86903928Y-73216400D01*
X86903928Y-74916400D01*
X86916188Y-75040882D01*
X86952498Y-75160580D01*
X87011463Y-75270894D01*
X87090815Y-75367585D01*
X87187506Y-75446937D01*
X87297820Y-75505902D01*
X87417518Y-75542212D01*
X87542000Y-75554472D01*
X89242000Y-75554472D01*
X89366482Y-75542212D01*
X89486180Y-75505902D01*
X89596494Y-75446937D01*
X89693185Y-75367585D01*
X89772537Y-75270894D01*
X89831502Y-75160580D01*
X89867812Y-75040882D01*
X89880072Y-74916400D01*
X89880072Y-73216400D01*
X89867812Y-73091918D01*
X89831502Y-72972220D01*
X89772537Y-72861906D01*
X89693185Y-72765215D01*
X89596494Y-72685863D01*
X89486180Y-72626898D01*
X89413620Y-72604887D01*
X89545475Y-72473032D01*
X89707990Y-72229811D01*
X89819932Y-71959558D01*
X89877000Y-71672660D01*
X89877000Y-71380140D01*
X89819932Y-71093242D01*
X89707990Y-70822989D01*
X89545475Y-70579768D01*
X89338632Y-70372925D01*
X89156466Y-70251205D01*
X89273355Y-70181578D01*
X89489588Y-69986669D01*
X89663641Y-69753320D01*
X89788825Y-69490499D01*
X89833476Y-69343290D01*
X89712155Y-69113400D01*
X88519000Y-69113400D01*
X88519000Y-69133400D01*
X88265000Y-69133400D01*
X88265000Y-69113400D01*
X87071845Y-69113400D01*
X86950524Y-69343290D01*
X86995175Y-69490499D01*
X87120359Y-69753320D01*
X87294412Y-69986669D01*
X87510645Y-70181578D01*
X87627534Y-70251205D01*
X87445368Y-70372925D01*
X87238525Y-70579768D01*
X87076010Y-70822989D01*
X86964068Y-71093242D01*
X86907000Y-71380140D01*
X86907000Y-71672660D01*
X86964068Y-71959558D01*
X87076010Y-72229811D01*
X87238525Y-72473032D01*
X87370380Y-72604887D01*
X87297820Y-72626898D01*
X87187506Y-72685863D01*
X87090815Y-72765215D01*
X87011463Y-72861906D01*
X86952498Y-72972220D01*
X86916188Y-73091918D01*
X86903928Y-73216400D01*
X64489700Y-73216400D01*
X64489700Y-73018440D01*
X64432632Y-72731542D01*
X64320690Y-72461289D01*
X64158175Y-72218068D01*
X63951332Y-72011225D01*
X63776940Y-71894700D01*
X63951332Y-71778175D01*
X64158175Y-71571332D01*
X64320690Y-71328111D01*
X64432632Y-71057858D01*
X64489700Y-70770960D01*
X64489700Y-70478440D01*
X64432632Y-70191542D01*
X64320690Y-69921289D01*
X64158175Y-69678068D01*
X64026320Y-69546213D01*
X64098880Y-69524202D01*
X64209194Y-69465237D01*
X64305885Y-69385885D01*
X64385237Y-69289194D01*
X64444202Y-69178880D01*
X64480512Y-69059182D01*
X64492772Y-68934700D01*
X64489700Y-68370450D01*
X64330950Y-68211700D01*
X63131700Y-68211700D01*
X63131700Y-68231700D01*
X62877700Y-68231700D01*
X62877700Y-68211700D01*
X61678450Y-68211700D01*
X61519700Y-68370450D01*
X61516628Y-68934700D01*
X57428385Y-68934700D01*
X57422586Y-68928901D01*
X57195743Y-68777329D01*
X56943689Y-68672925D01*
X56676111Y-68619700D01*
X56403289Y-68619700D01*
X56135711Y-68672925D01*
X55883657Y-68777329D01*
X55656814Y-68928901D01*
X55463901Y-69121814D01*
X55312329Y-69348657D01*
X55207925Y-69600711D01*
X55154700Y-69868289D01*
X53074700Y-69868289D01*
X53021475Y-69600711D01*
X52917071Y-69348657D01*
X52765499Y-69121814D01*
X52572586Y-68928901D01*
X52345743Y-68777329D01*
X52093689Y-68672925D01*
X51826111Y-68619700D01*
X51553289Y-68619700D01*
X51285711Y-68672925D01*
X51033657Y-68777329D01*
X50806814Y-68928901D01*
X50613901Y-69121814D01*
X50462329Y-69348657D01*
X50357925Y-69600711D01*
X50304700Y-69868289D01*
X46505277Y-69868289D01*
X46378175Y-69678068D01*
X46246320Y-69546213D01*
X46318880Y-69524202D01*
X46429194Y-69465237D01*
X46525885Y-69385885D01*
X46605237Y-69289194D01*
X46664202Y-69178880D01*
X46700512Y-69059182D01*
X46712772Y-68934700D01*
X46709700Y-68370450D01*
X46550950Y-68211700D01*
X45351700Y-68211700D01*
X45351700Y-68231700D01*
X45097700Y-68231700D01*
X45097700Y-68211700D01*
X43898450Y-68211700D01*
X43739700Y-68370450D01*
X43736628Y-68934700D01*
X17205400Y-68934700D01*
X17205400Y-58680140D01*
X18022200Y-58680140D01*
X18022200Y-58972660D01*
X18079268Y-59259558D01*
X18191210Y-59529811D01*
X18353725Y-59773032D01*
X18560568Y-59979875D01*
X18734960Y-60096400D01*
X18560568Y-60212925D01*
X18353725Y-60419768D01*
X18191210Y-60662989D01*
X18079268Y-60933242D01*
X18022200Y-61220140D01*
X18022200Y-61512660D01*
X18079268Y-61799558D01*
X18191210Y-62069811D01*
X18353725Y-62313032D01*
X18560568Y-62519875D01*
X18734960Y-62636400D01*
X18560568Y-62752925D01*
X18353725Y-62959768D01*
X18191210Y-63202989D01*
X18079268Y-63473242D01*
X18022200Y-63760140D01*
X18022200Y-64052660D01*
X18079268Y-64339558D01*
X18191210Y-64609811D01*
X18353725Y-64853032D01*
X18560568Y-65059875D01*
X18734960Y-65176400D01*
X18560568Y-65292925D01*
X18353725Y-65499768D01*
X18191210Y-65742989D01*
X18079268Y-66013242D01*
X18022200Y-66300140D01*
X18022200Y-66592660D01*
X18079268Y-66879558D01*
X18191210Y-67149811D01*
X18353725Y-67393032D01*
X18560568Y-67599875D01*
X18742734Y-67721595D01*
X18625845Y-67791222D01*
X18409612Y-67986131D01*
X18235559Y-68219480D01*
X18110375Y-68482301D01*
X18065724Y-68629510D01*
X18187045Y-68859400D01*
X19380200Y-68859400D01*
X19380200Y-68839400D01*
X19634200Y-68839400D01*
X19634200Y-68859400D01*
X20827355Y-68859400D01*
X20948676Y-68629510D01*
X20904025Y-68482301D01*
X20778841Y-68219480D01*
X20604788Y-67986131D01*
X20388555Y-67791222D01*
X20271666Y-67721595D01*
X20453832Y-67599875D01*
X20660675Y-67393032D01*
X20823190Y-67149811D01*
X20935132Y-66879558D01*
X20992200Y-66592660D01*
X20992200Y-66300140D01*
X20935132Y-66013242D01*
X20823190Y-65742989D01*
X20660675Y-65499768D01*
X20453832Y-65292925D01*
X20279440Y-65176400D01*
X20453832Y-65059875D01*
X20660675Y-64853032D01*
X20823190Y-64609811D01*
X20935132Y-64339558D01*
X20992200Y-64052660D01*
X20992200Y-63760140D01*
X20935132Y-63473242D01*
X20823190Y-63202989D01*
X20660675Y-62959768D01*
X20453832Y-62752925D01*
X20279440Y-62636400D01*
X20453832Y-62519875D01*
X20660675Y-62313032D01*
X20823190Y-62069811D01*
X20935132Y-61799558D01*
X20992200Y-61512660D01*
X20992200Y-61220140D01*
X20935132Y-60933242D01*
X20823190Y-60662989D01*
X20660675Y-60419768D01*
X20453832Y-60212925D01*
X20279440Y-60096400D01*
X20453832Y-59979875D01*
X20660675Y-59773032D01*
X20823190Y-59529811D01*
X20935132Y-59259558D01*
X20992200Y-58972660D01*
X20992200Y-58680140D01*
X20935132Y-58393242D01*
X20823190Y-58122989D01*
X20660675Y-57879768D01*
X20453832Y-57672925D01*
X20271666Y-57551205D01*
X20388555Y-57481578D01*
X20604788Y-57286669D01*
X20778841Y-57053320D01*
X20904025Y-56790499D01*
X20948676Y-56643290D01*
X20827355Y-56413400D01*
X19634200Y-56413400D01*
X19634200Y-56433400D01*
X19380200Y-56433400D01*
X19380200Y-56413400D01*
X18187045Y-56413400D01*
X18065724Y-56643290D01*
X18110375Y-56790499D01*
X18235559Y-57053320D01*
X18409612Y-57286669D01*
X18625845Y-57481578D01*
X18742734Y-57551205D01*
X18560568Y-57672925D01*
X18353725Y-57879768D01*
X18191210Y-58122989D01*
X18079268Y-58393242D01*
X18022200Y-58680140D01*
X17205400Y-58680140D01*
X17205400Y-56234700D01*
X43736628Y-56234700D01*
X43748888Y-56359182D01*
X43785198Y-56478880D01*
X43844163Y-56589194D01*
X43923515Y-56685885D01*
X44020206Y-56765237D01*
X44130520Y-56824202D01*
X44203080Y-56846213D01*
X44071225Y-56978068D01*
X43908710Y-57221289D01*
X43796768Y-57491542D01*
X43739700Y-57778440D01*
X43739700Y-58070960D01*
X43796768Y-58357858D01*
X43908710Y-58628111D01*
X44071225Y-58871332D01*
X44278068Y-59078175D01*
X44452460Y-59194700D01*
X44278068Y-59311225D01*
X44071225Y-59518068D01*
X43908710Y-59761289D01*
X43796768Y-60031542D01*
X43739700Y-60318440D01*
X43739700Y-60610960D01*
X43796768Y-60897858D01*
X43908710Y-61168111D01*
X44071225Y-61411332D01*
X44278068Y-61618175D01*
X44452460Y-61734700D01*
X44278068Y-61851225D01*
X44071225Y-62058068D01*
X43908710Y-62301289D01*
X43796768Y-62571542D01*
X43739700Y-62858440D01*
X43739700Y-63150960D01*
X43796768Y-63437858D01*
X43908710Y-63708111D01*
X44071225Y-63951332D01*
X44278068Y-64158175D01*
X44452460Y-64274700D01*
X44278068Y-64391225D01*
X44071225Y-64598068D01*
X43908710Y-64841289D01*
X43796768Y-65111542D01*
X43739700Y-65398440D01*
X43739700Y-65690960D01*
X43796768Y-65977858D01*
X43908710Y-66248111D01*
X44071225Y-66491332D01*
X44203080Y-66623187D01*
X44130520Y-66645198D01*
X44020206Y-66704163D01*
X43923515Y-66783515D01*
X43844163Y-66880206D01*
X43785198Y-66990520D01*
X43748888Y-67110218D01*
X43736628Y-67234700D01*
X43739700Y-67798950D01*
X43898450Y-67957700D01*
X45097700Y-67957700D01*
X45097700Y-67937700D01*
X45351700Y-67937700D01*
X45351700Y-67957700D01*
X46550950Y-67957700D01*
X46709700Y-67798950D01*
X46712772Y-67234700D01*
X46700512Y-67110218D01*
X46664202Y-66990520D01*
X46605237Y-66880206D01*
X46525885Y-66783515D01*
X46429194Y-66704163D01*
X46318880Y-66645198D01*
X46246320Y-66623187D01*
X46378175Y-66491332D01*
X46540690Y-66248111D01*
X46652632Y-65977858D01*
X46709700Y-65690960D01*
X46709700Y-65398440D01*
X46652632Y-65111542D01*
X46540690Y-64841289D01*
X46378175Y-64598068D01*
X46171332Y-64391225D01*
X45996940Y-64274700D01*
X46171332Y-64158175D01*
X46378175Y-63951332D01*
X46540690Y-63708111D01*
X46652632Y-63437858D01*
X46709700Y-63150960D01*
X46709700Y-62858440D01*
X46652632Y-62571542D01*
X46540690Y-62301289D01*
X46378175Y-62058068D01*
X46171332Y-61851225D01*
X45996940Y-61734700D01*
X46171332Y-61618175D01*
X46378175Y-61411332D01*
X46540690Y-61168111D01*
X46652632Y-60897858D01*
X46709700Y-60610960D01*
X46709700Y-60318440D01*
X46652632Y-60031542D01*
X46540690Y-59761289D01*
X46378175Y-59518068D01*
X46171332Y-59311225D01*
X45996940Y-59194700D01*
X46171332Y-59078175D01*
X46378175Y-58871332D01*
X46540690Y-58628111D01*
X46652632Y-58357858D01*
X46709700Y-58070960D01*
X46709700Y-57778440D01*
X46652632Y-57491542D01*
X46540690Y-57221289D01*
X46378175Y-56978068D01*
X46246320Y-56846213D01*
X46318880Y-56824202D01*
X46429194Y-56765237D01*
X46525885Y-56685885D01*
X46605237Y-56589194D01*
X46664202Y-56478880D01*
X46700512Y-56359182D01*
X46712772Y-56234700D01*
X61516628Y-56234700D01*
X61528888Y-56359182D01*
X61565198Y-56478880D01*
X61624163Y-56589194D01*
X61703515Y-56685885D01*
X61800206Y-56765237D01*
X61910520Y-56824202D01*
X61983080Y-56846213D01*
X61851225Y-56978068D01*
X61688710Y-57221289D01*
X61576768Y-57491542D01*
X61519700Y-57778440D01*
X61519700Y-58070960D01*
X61576768Y-58357858D01*
X61688710Y-58628111D01*
X61851225Y-58871332D01*
X62058068Y-59078175D01*
X62232460Y-59194700D01*
X62058068Y-59311225D01*
X61851225Y-59518068D01*
X61688710Y-59761289D01*
X61576768Y-60031542D01*
X61519700Y-60318440D01*
X61519700Y-60610960D01*
X61576768Y-60897858D01*
X61688710Y-61168111D01*
X61851225Y-61411332D01*
X62058068Y-61618175D01*
X62232460Y-61734700D01*
X62058068Y-61851225D01*
X61851225Y-62058068D01*
X61688710Y-62301289D01*
X61576768Y-62571542D01*
X61519700Y-62858440D01*
X61519700Y-63150960D01*
X61576768Y-63437858D01*
X61688710Y-63708111D01*
X61851225Y-63951332D01*
X62058068Y-64158175D01*
X62232460Y-64274700D01*
X62058068Y-64391225D01*
X61851225Y-64598068D01*
X61688710Y-64841289D01*
X61576768Y-65111542D01*
X61519700Y-65398440D01*
X61519700Y-65690960D01*
X61576768Y-65977858D01*
X61688710Y-66248111D01*
X61851225Y-66491332D01*
X61983080Y-66623187D01*
X61910520Y-66645198D01*
X61800206Y-66704163D01*
X61703515Y-66783515D01*
X61624163Y-66880206D01*
X61565198Y-66990520D01*
X61528888Y-67110218D01*
X61516628Y-67234700D01*
X61519700Y-67798950D01*
X61678450Y-67957700D01*
X62877700Y-67957700D01*
X62877700Y-67937700D01*
X63131700Y-67937700D01*
X63131700Y-67957700D01*
X64330950Y-67957700D01*
X64489700Y-67798950D01*
X64492772Y-67234700D01*
X64480512Y-67110218D01*
X64444202Y-66990520D01*
X64385237Y-66880206D01*
X64305885Y-66783515D01*
X64209194Y-66704163D01*
X64098880Y-66645198D01*
X64026320Y-66623187D01*
X64158175Y-66491332D01*
X64320690Y-66248111D01*
X64432632Y-65977858D01*
X64489700Y-65690960D01*
X64489700Y-65398440D01*
X64432632Y-65111542D01*
X64320690Y-64841289D01*
X64158175Y-64598068D01*
X63951332Y-64391225D01*
X63776940Y-64274700D01*
X63951332Y-64158175D01*
X64158175Y-63951332D01*
X64320690Y-63708111D01*
X64432632Y-63437858D01*
X64489700Y-63150960D01*
X64489700Y-62858440D01*
X64432632Y-62571542D01*
X64320690Y-62301289D01*
X64158175Y-62058068D01*
X63951332Y-61851225D01*
X63776940Y-61734700D01*
X63951332Y-61618175D01*
X64158175Y-61411332D01*
X64320690Y-61168111D01*
X64432632Y-60897858D01*
X64489700Y-60610960D01*
X64489700Y-60318440D01*
X64432632Y-60031542D01*
X64320690Y-59761289D01*
X64158175Y-59518068D01*
X63951332Y-59311225D01*
X63776940Y-59194700D01*
X63951332Y-59078175D01*
X64158175Y-58871332D01*
X64285925Y-58680140D01*
X86907000Y-58680140D01*
X86907000Y-58972660D01*
X86964068Y-59259558D01*
X87076010Y-59529811D01*
X87238525Y-59773032D01*
X87445368Y-59979875D01*
X87619760Y-60096400D01*
X87445368Y-60212925D01*
X87238525Y-60419768D01*
X87076010Y-60662989D01*
X86964068Y-60933242D01*
X86907000Y-61220140D01*
X86907000Y-61512660D01*
X86964068Y-61799558D01*
X87076010Y-62069811D01*
X87238525Y-62313032D01*
X87445368Y-62519875D01*
X87619760Y-62636400D01*
X87445368Y-62752925D01*
X87238525Y-62959768D01*
X87076010Y-63202989D01*
X86964068Y-63473242D01*
X86907000Y-63760140D01*
X86907000Y-64052660D01*
X86964068Y-64339558D01*
X87076010Y-64609811D01*
X87238525Y-64853032D01*
X87445368Y-65059875D01*
X87619760Y-65176400D01*
X87445368Y-65292925D01*
X87238525Y-65499768D01*
X87076010Y-65742989D01*
X86964068Y-66013242D01*
X86907000Y-66300140D01*
X86907000Y-66592660D01*
X86964068Y-66879558D01*
X87076010Y-67149811D01*
X87238525Y-67393032D01*
X87445368Y-67599875D01*
X87627534Y-67721595D01*
X87510645Y-67791222D01*
X87294412Y-67986131D01*
X87120359Y-68219480D01*
X86995175Y-68482301D01*
X86950524Y-68629510D01*
X87071845Y-68859400D01*
X88265000Y-68859400D01*
X88265000Y-68839400D01*
X88519000Y-68839400D01*
X88519000Y-68859400D01*
X89712155Y-68859400D01*
X89833476Y-68629510D01*
X89788825Y-68482301D01*
X89663641Y-68219480D01*
X89489588Y-67986131D01*
X89273355Y-67791222D01*
X89156466Y-67721595D01*
X89338632Y-67599875D01*
X89545475Y-67393032D01*
X89707990Y-67149811D01*
X89819932Y-66879558D01*
X89877000Y-66592660D01*
X89877000Y-66300140D01*
X89819932Y-66013242D01*
X89707990Y-65742989D01*
X89545475Y-65499768D01*
X89338632Y-65292925D01*
X89164240Y-65176400D01*
X89338632Y-65059875D01*
X89545475Y-64853032D01*
X89707990Y-64609811D01*
X89819932Y-64339558D01*
X89877000Y-64052660D01*
X89877000Y-63760140D01*
X89819932Y-63473242D01*
X89707990Y-63202989D01*
X89545475Y-62959768D01*
X89338632Y-62752925D01*
X89164240Y-62636400D01*
X89338632Y-62519875D01*
X89545475Y-62313032D01*
X89707990Y-62069811D01*
X89819932Y-61799558D01*
X89877000Y-61512660D01*
X89877000Y-61220140D01*
X89819932Y-60933242D01*
X89707990Y-60662989D01*
X89545475Y-60419768D01*
X89338632Y-60212925D01*
X89164240Y-60096400D01*
X89338632Y-59979875D01*
X89545475Y-59773032D01*
X89707990Y-59529811D01*
X89819932Y-59259558D01*
X89877000Y-58972660D01*
X89877000Y-58680140D01*
X89819932Y-58393242D01*
X89707990Y-58122989D01*
X89545475Y-57879768D01*
X89338632Y-57672925D01*
X89156466Y-57551205D01*
X89273355Y-57481578D01*
X89489588Y-57286669D01*
X89663641Y-57053320D01*
X89788825Y-56790499D01*
X89833476Y-56643290D01*
X89712155Y-56413400D01*
X88519000Y-56413400D01*
X88519000Y-56433400D01*
X88265000Y-56433400D01*
X88265000Y-56413400D01*
X87071845Y-56413400D01*
X86950524Y-56643290D01*
X86995175Y-56790499D01*
X87120359Y-57053320D01*
X87294412Y-57286669D01*
X87510645Y-57481578D01*
X87627534Y-57551205D01*
X87445368Y-57672925D01*
X87238525Y-57879768D01*
X87076010Y-58122989D01*
X86964068Y-58393242D01*
X86907000Y-58680140D01*
X64285925Y-58680140D01*
X64320690Y-58628111D01*
X64432632Y-58357858D01*
X64489700Y-58070960D01*
X64489700Y-57778440D01*
X64432632Y-57491542D01*
X64320690Y-57221289D01*
X64158175Y-56978068D01*
X64026320Y-56846213D01*
X64098880Y-56824202D01*
X64209194Y-56765237D01*
X64305885Y-56685885D01*
X64385237Y-56589194D01*
X64444202Y-56478880D01*
X64480512Y-56359182D01*
X64492772Y-56234700D01*
X64489700Y-55670450D01*
X64330950Y-55511700D01*
X63131700Y-55511700D01*
X63131700Y-55531700D01*
X62877700Y-55531700D01*
X62877700Y-55511700D01*
X61678450Y-55511700D01*
X61519700Y-55670450D01*
X61516628Y-56234700D01*
X46712772Y-56234700D01*
X46709700Y-55670450D01*
X46550950Y-55511700D01*
X45351700Y-55511700D01*
X45351700Y-55531700D01*
X45097700Y-55531700D01*
X45097700Y-55511700D01*
X43898450Y-55511700D01*
X43739700Y-55670450D01*
X43736628Y-56234700D01*
X17205400Y-56234700D01*
X17205400Y-55243400D01*
X18034295Y-55243400D01*
X18070400Y-55246956D01*
X18106505Y-55243400D01*
X18214485Y-55232765D01*
X18353033Y-55190737D01*
X18480720Y-55122487D01*
X18592638Y-55030638D01*
X18650589Y-54960025D01*
X18742734Y-55021595D01*
X18625845Y-55091222D01*
X18409612Y-55286131D01*
X18235559Y-55519480D01*
X18110375Y-55782301D01*
X18065724Y-55929510D01*
X18187045Y-56159400D01*
X19380200Y-56159400D01*
X19380200Y-56139400D01*
X19634200Y-56139400D01*
X19634200Y-56159400D01*
X20827355Y-56159400D01*
X20948676Y-55929510D01*
X20904025Y-55782301D01*
X20778841Y-55519480D01*
X20604788Y-55286131D01*
X20388555Y-55091222D01*
X20271666Y-55021595D01*
X20453832Y-54899875D01*
X20660675Y-54693032D01*
X20823190Y-54449811D01*
X20935132Y-54179558D01*
X20992200Y-53892660D01*
X20992200Y-53600140D01*
X20935132Y-53313242D01*
X20823190Y-53042989D01*
X20660675Y-52799768D01*
X20528820Y-52667913D01*
X20601380Y-52645902D01*
X20711694Y-52586937D01*
X20808385Y-52507585D01*
X20887737Y-52410894D01*
X20946702Y-52300580D01*
X20983012Y-52180882D01*
X20995272Y-52056400D01*
X20995272Y-50356400D01*
X20983012Y-50231918D01*
X20946702Y-50112220D01*
X20887737Y-50001906D01*
X20808385Y-49905215D01*
X20711694Y-49825863D01*
X20601380Y-49766898D01*
X20481682Y-49730588D01*
X20357200Y-49718328D01*
X18805400Y-49718328D01*
X18805400Y-49210505D01*
X18808956Y-49174400D01*
X18794765Y-49030315D01*
X18752737Y-48891767D01*
X18684487Y-48764080D01*
X18592638Y-48652162D01*
X18480720Y-48560313D01*
X18353033Y-48492063D01*
X18214485Y-48450035D01*
X18106505Y-48439400D01*
X18070400Y-48435844D01*
X18034295Y-48439400D01*
X16660945Y-48439400D01*
X16379778Y-48159668D01*
X18770600Y-45768847D01*
X19368709Y-46366956D01*
X19392079Y-46395353D01*
X19447588Y-46440781D01*
X19503280Y-46486486D01*
X19503727Y-46486725D01*
X19504123Y-46487049D01*
X19567608Y-46520870D01*
X19630966Y-46554736D01*
X19631455Y-46554884D01*
X19631903Y-46555123D01*
X19700512Y-46575833D01*
X19769514Y-46596765D01*
X19770022Y-46596815D01*
X19770509Y-46596962D01*
X19842252Y-46603928D01*
X19913599Y-46610955D01*
X19914102Y-46610905D01*
X19914613Y-46610955D01*
X19986199Y-46603805D01*
X20057684Y-46596765D01*
X20058174Y-46596616D01*
X20058678Y-46596566D01*
X20127410Y-46575614D01*
X20196233Y-46554736D01*
X20196680Y-46554497D01*
X20197169Y-46554348D01*
X20260786Y-46520232D01*
X20323919Y-46486486D01*
X20324311Y-46486164D01*
X20324761Y-46485923D01*
X20380576Y-46439988D01*
X20435837Y-46394637D01*
X20459169Y-46366207D01*
X20939190Y-45884867D01*
X21036010Y-46118611D01*
X21198525Y-46361832D01*
X21405368Y-46568675D01*
X21648589Y-46731190D01*
X21918842Y-46843132D01*
X22205740Y-46900200D01*
X22498260Y-46900200D01*
X22785158Y-46843132D01*
X23055411Y-46731190D01*
X23298632Y-46568675D01*
X23505475Y-46361832D01*
X23667990Y-46118611D01*
X23779932Y-45848358D01*
X23837000Y-45561460D01*
X23837000Y-45268940D01*
X23796082Y-45063231D01*
X24001791Y-45104149D01*
X24294311Y-45104149D01*
X24581209Y-45047081D01*
X24851462Y-44935139D01*
X25094683Y-44772624D01*
X25301526Y-44565781D01*
X25464041Y-44322560D01*
X25575983Y-44052307D01*
X25633051Y-43765409D01*
X25633051Y-43534700D01*
X43736628Y-43534700D01*
X43748888Y-43659182D01*
X43785198Y-43778880D01*
X43844163Y-43889194D01*
X43923515Y-43985885D01*
X44020206Y-44065237D01*
X44130520Y-44124202D01*
X44203080Y-44146213D01*
X44071225Y-44278068D01*
X43908710Y-44521289D01*
X43796768Y-44791542D01*
X43739700Y-45078440D01*
X43739700Y-45370960D01*
X43796768Y-45657858D01*
X43908710Y-45928111D01*
X44071225Y-46171332D01*
X44278068Y-46378175D01*
X44452460Y-46494700D01*
X44278068Y-46611225D01*
X44071225Y-46818068D01*
X43908710Y-47061289D01*
X43796768Y-47331542D01*
X43739700Y-47618440D01*
X43739700Y-47910960D01*
X43796768Y-48197858D01*
X43908710Y-48468111D01*
X44071225Y-48711332D01*
X44278068Y-48918175D01*
X44452460Y-49034700D01*
X44278068Y-49151225D01*
X44071225Y-49358068D01*
X43908710Y-49601289D01*
X43796768Y-49871542D01*
X43739700Y-50158440D01*
X43739700Y-50450960D01*
X43796768Y-50737858D01*
X43908710Y-51008111D01*
X44071225Y-51251332D01*
X44278068Y-51458175D01*
X44452460Y-51574700D01*
X44278068Y-51691225D01*
X44071225Y-51898068D01*
X43908710Y-52141289D01*
X43796768Y-52411542D01*
X43739700Y-52698440D01*
X43739700Y-52990960D01*
X43796768Y-53277858D01*
X43908710Y-53548111D01*
X44071225Y-53791332D01*
X44203080Y-53923187D01*
X44130520Y-53945198D01*
X44020206Y-54004163D01*
X43923515Y-54083515D01*
X43844163Y-54180206D01*
X43785198Y-54290520D01*
X43748888Y-54410218D01*
X43736628Y-54534700D01*
X43739700Y-55098950D01*
X43898450Y-55257700D01*
X45097700Y-55257700D01*
X45097700Y-55237700D01*
X45351700Y-55237700D01*
X45351700Y-55257700D01*
X46550950Y-55257700D01*
X46709700Y-55098950D01*
X46712772Y-54534700D01*
X46700512Y-54410218D01*
X46664202Y-54290520D01*
X46605237Y-54180206D01*
X46525885Y-54083515D01*
X46429194Y-54004163D01*
X46318880Y-53945198D01*
X46246320Y-53923187D01*
X46378175Y-53791332D01*
X46540690Y-53548111D01*
X46652632Y-53277858D01*
X46709700Y-52990960D01*
X46709700Y-52698440D01*
X46652632Y-52411542D01*
X46540690Y-52141289D01*
X46378175Y-51898068D01*
X46171332Y-51691225D01*
X45996940Y-51574700D01*
X46171332Y-51458175D01*
X46378175Y-51251332D01*
X46540690Y-51008111D01*
X46652632Y-50737858D01*
X46709700Y-50450960D01*
X46709700Y-50158440D01*
X46652632Y-49871542D01*
X46540690Y-49601289D01*
X46378175Y-49358068D01*
X46171332Y-49151225D01*
X45996940Y-49034700D01*
X46171332Y-48918175D01*
X46378175Y-48711332D01*
X46540690Y-48468111D01*
X46652632Y-48197858D01*
X46709700Y-47910960D01*
X46709700Y-47618440D01*
X46652632Y-47331542D01*
X46540690Y-47061289D01*
X46378175Y-46818068D01*
X46171332Y-46611225D01*
X45996940Y-46494700D01*
X46171332Y-46378175D01*
X46378175Y-46171332D01*
X46540690Y-45928111D01*
X46652632Y-45657858D01*
X46709700Y-45370960D01*
X46709700Y-45078440D01*
X46652632Y-44791542D01*
X46540690Y-44521289D01*
X46378175Y-44278068D01*
X46246320Y-44146213D01*
X46318880Y-44124202D01*
X46429194Y-44065237D01*
X46525885Y-43985885D01*
X46605237Y-43889194D01*
X46664202Y-43778880D01*
X46700512Y-43659182D01*
X46712772Y-43534700D01*
X61516628Y-43534700D01*
X61528888Y-43659182D01*
X61565198Y-43778880D01*
X61624163Y-43889194D01*
X61703515Y-43985885D01*
X61800206Y-44065237D01*
X61910520Y-44124202D01*
X61983080Y-44146213D01*
X61851225Y-44278068D01*
X61688710Y-44521289D01*
X61576768Y-44791542D01*
X61519700Y-45078440D01*
X61519700Y-45370960D01*
X61576768Y-45657858D01*
X61688710Y-45928111D01*
X61851225Y-46171332D01*
X62058068Y-46378175D01*
X62232460Y-46494700D01*
X62058068Y-46611225D01*
X61851225Y-46818068D01*
X61688710Y-47061289D01*
X61576768Y-47331542D01*
X61519700Y-47618440D01*
X61519700Y-47910960D01*
X61576768Y-48197858D01*
X61688710Y-48468111D01*
X61851225Y-48711332D01*
X62058068Y-48918175D01*
X62232460Y-49034700D01*
X62058068Y-49151225D01*
X61851225Y-49358068D01*
X61688710Y-49601289D01*
X61576768Y-49871542D01*
X61519700Y-50158440D01*
X61519700Y-50450960D01*
X61576768Y-50737858D01*
X61688710Y-51008111D01*
X61851225Y-51251332D01*
X62058068Y-51458175D01*
X62232460Y-51574700D01*
X62058068Y-51691225D01*
X61851225Y-51898068D01*
X61688710Y-52141289D01*
X61576768Y-52411542D01*
X61519700Y-52698440D01*
X61519700Y-52990960D01*
X61576768Y-53277858D01*
X61688710Y-53548111D01*
X61851225Y-53791332D01*
X61983080Y-53923187D01*
X61910520Y-53945198D01*
X61800206Y-54004163D01*
X61703515Y-54083515D01*
X61624163Y-54180206D01*
X61565198Y-54290520D01*
X61528888Y-54410218D01*
X61516628Y-54534700D01*
X61519700Y-55098950D01*
X61678450Y-55257700D01*
X62877700Y-55257700D01*
X62877700Y-55237700D01*
X63131700Y-55237700D01*
X63131700Y-55257700D01*
X64330950Y-55257700D01*
X64489700Y-55098950D01*
X64492772Y-54534700D01*
X64480512Y-54410218D01*
X64444202Y-54290520D01*
X64385237Y-54180206D01*
X64305885Y-54083515D01*
X64209194Y-54004163D01*
X64098880Y-53945198D01*
X64026320Y-53923187D01*
X64158175Y-53791332D01*
X64320690Y-53548111D01*
X64432632Y-53277858D01*
X64489700Y-52990960D01*
X64489700Y-52698440D01*
X64432632Y-52411542D01*
X64320690Y-52141289D01*
X64158175Y-51898068D01*
X63951332Y-51691225D01*
X63776940Y-51574700D01*
X63951332Y-51458175D01*
X64158175Y-51251332D01*
X64320690Y-51008111D01*
X64432632Y-50737858D01*
X64489700Y-50450960D01*
X64489700Y-50158440D01*
X64432632Y-49871542D01*
X64320690Y-49601289D01*
X64158175Y-49358068D01*
X63951332Y-49151225D01*
X63776940Y-49034700D01*
X63951332Y-48918175D01*
X64158175Y-48711332D01*
X64320690Y-48468111D01*
X64432632Y-48197858D01*
X64489700Y-47910960D01*
X64489700Y-47618440D01*
X64432632Y-47331542D01*
X64320690Y-47061289D01*
X64158175Y-46818068D01*
X63951332Y-46611225D01*
X63776940Y-46494700D01*
X63951332Y-46378175D01*
X64158175Y-46171332D01*
X64320690Y-45928111D01*
X64432632Y-45657858D01*
X64489700Y-45370960D01*
X64489700Y-45078440D01*
X64432632Y-44791542D01*
X64320690Y-44521289D01*
X64158175Y-44278068D01*
X64026320Y-44146213D01*
X64098880Y-44124202D01*
X64209194Y-44065237D01*
X64305885Y-43985885D01*
X64385237Y-43889194D01*
X64444202Y-43778880D01*
X64480512Y-43659182D01*
X64492772Y-43534700D01*
X64489700Y-42970450D01*
X64330950Y-42811700D01*
X63131700Y-42811700D01*
X63131700Y-42831700D01*
X62877700Y-42831700D01*
X62877700Y-42811700D01*
X61678450Y-42811700D01*
X61519700Y-42970450D01*
X61516628Y-43534700D01*
X46712772Y-43534700D01*
X46709700Y-42970450D01*
X46550950Y-42811700D01*
X45351700Y-42811700D01*
X45351700Y-42831700D01*
X45097700Y-42831700D01*
X45097700Y-42811700D01*
X43898450Y-42811700D01*
X43739700Y-42970450D01*
X43736628Y-43534700D01*
X25633051Y-43534700D01*
X25633051Y-43472889D01*
X25590309Y-43258010D01*
X25722196Y-43291429D01*
X26012917Y-43306507D01*
X26300994Y-43264578D01*
X26575355Y-43167254D01*
X26711020Y-43094735D01*
X26787790Y-42846391D01*
X25944102Y-42002703D01*
X25929960Y-42016846D01*
X25750355Y-41837241D01*
X25764497Y-41823098D01*
X25750355Y-41808956D01*
X25929960Y-41629351D01*
X25944102Y-41643493D01*
X25958245Y-41629351D01*
X26137850Y-41808956D01*
X26123707Y-41823098D01*
X26967395Y-42666786D01*
X27215739Y-42590016D01*
X27288258Y-42454351D01*
X27385582Y-42179990D01*
X27427511Y-41891913D01*
X27412433Y-41601192D01*
X27379013Y-41469303D01*
X27593894Y-41512046D01*
X27886414Y-41512046D01*
X28173312Y-41454978D01*
X28443565Y-41343036D01*
X28686786Y-41180521D01*
X28893629Y-40973678D01*
X29056144Y-40730457D01*
X29168086Y-40460204D01*
X29225154Y-40173306D01*
X29225154Y-39880786D01*
X29184236Y-39675077D01*
X29389945Y-39715995D01*
X29682465Y-39715995D01*
X29969363Y-39658927D01*
X30239616Y-39546985D01*
X30482837Y-39384470D01*
X30689680Y-39177627D01*
X30852195Y-38934406D01*
X30964137Y-38664153D01*
X31021205Y-38377255D01*
X31021205Y-38084735D01*
X30980287Y-37879026D01*
X31185996Y-37919944D01*
X31478516Y-37919944D01*
X31765414Y-37862876D01*
X32035667Y-37750934D01*
X32278888Y-37588419D01*
X32485731Y-37381576D01*
X32648246Y-37138355D01*
X32760188Y-36868102D01*
X32817256Y-36581204D01*
X32817256Y-36288684D01*
X32776338Y-36082975D01*
X32982047Y-36123893D01*
X33274567Y-36123893D01*
X33561465Y-36066825D01*
X33831718Y-35954883D01*
X34074939Y-35792368D01*
X34281782Y-35585525D01*
X34444297Y-35342304D01*
X34556239Y-35072051D01*
X34613307Y-34785153D01*
X34613307Y-34492633D01*
X34570564Y-34277752D01*
X34702453Y-34311172D01*
X34993174Y-34326250D01*
X35281251Y-34284321D01*
X35555612Y-34186997D01*
X35691277Y-34114478D01*
X35768047Y-33866134D01*
X34924359Y-33022446D01*
X34910217Y-33036589D01*
X34730612Y-32856984D01*
X34744754Y-32842841D01*
X34730612Y-32828699D01*
X34910217Y-32649094D01*
X34924359Y-32663236D01*
X34938502Y-32649094D01*
X35118107Y-32828699D01*
X35103964Y-32842841D01*
X35947652Y-33686529D01*
X36195996Y-33609759D01*
X36268515Y-33474094D01*
X36365839Y-33199733D01*
X36407768Y-32911656D01*
X36392690Y-32620935D01*
X36359271Y-32489048D01*
X36574150Y-32531790D01*
X36866670Y-32531790D01*
X37153568Y-32474722D01*
X37423821Y-32362780D01*
X37667042Y-32200265D01*
X37873885Y-31993422D01*
X38036400Y-31750201D01*
X38148342Y-31479948D01*
X38205410Y-31193050D01*
X38205410Y-31006579D01*
X38272281Y-31042323D01*
X38391979Y-31078633D01*
X38516461Y-31090893D01*
X38640943Y-31078633D01*
X38760641Y-31042323D01*
X38870955Y-30983358D01*
X38967646Y-30904006D01*
X39036952Y-30834700D01*
X43736628Y-30834700D01*
X43748888Y-30959182D01*
X43785198Y-31078880D01*
X43844163Y-31189194D01*
X43923515Y-31285885D01*
X44020206Y-31365237D01*
X44130520Y-31424202D01*
X44203080Y-31446213D01*
X44071225Y-31578068D01*
X43908710Y-31821289D01*
X43796768Y-32091542D01*
X43739700Y-32378440D01*
X43739700Y-32670960D01*
X43796768Y-32957858D01*
X43908710Y-33228111D01*
X44071225Y-33471332D01*
X44278068Y-33678175D01*
X44452460Y-33794700D01*
X44278068Y-33911225D01*
X44071225Y-34118068D01*
X43908710Y-34361289D01*
X43796768Y-34631542D01*
X43739700Y-34918440D01*
X43739700Y-35210960D01*
X43796768Y-35497858D01*
X43908710Y-35768111D01*
X44071225Y-36011332D01*
X44278068Y-36218175D01*
X44452460Y-36334700D01*
X44278068Y-36451225D01*
X44071225Y-36658068D01*
X43908710Y-36901289D01*
X43796768Y-37171542D01*
X43739700Y-37458440D01*
X43739700Y-37750960D01*
X43796768Y-38037858D01*
X43908710Y-38308111D01*
X44071225Y-38551332D01*
X44278068Y-38758175D01*
X44452460Y-38874700D01*
X44278068Y-38991225D01*
X44071225Y-39198068D01*
X43908710Y-39441289D01*
X43796768Y-39711542D01*
X43739700Y-39998440D01*
X43739700Y-40290960D01*
X43796768Y-40577858D01*
X43908710Y-40848111D01*
X44071225Y-41091332D01*
X44203080Y-41223187D01*
X44130520Y-41245198D01*
X44020206Y-41304163D01*
X43923515Y-41383515D01*
X43844163Y-41480206D01*
X43785198Y-41590520D01*
X43748888Y-41710218D01*
X43736628Y-41834700D01*
X43739700Y-42398950D01*
X43898450Y-42557700D01*
X45097700Y-42557700D01*
X45097700Y-42537700D01*
X45351700Y-42537700D01*
X45351700Y-42557700D01*
X46550950Y-42557700D01*
X46709700Y-42398950D01*
X46712772Y-41834700D01*
X46700512Y-41710218D01*
X46664202Y-41590520D01*
X46605237Y-41480206D01*
X46525885Y-41383515D01*
X46429194Y-41304163D01*
X46318880Y-41245198D01*
X46246320Y-41223187D01*
X46378175Y-41091332D01*
X46540690Y-40848111D01*
X46652632Y-40577858D01*
X46709700Y-40290960D01*
X46709700Y-39998440D01*
X46652632Y-39711542D01*
X46540690Y-39441289D01*
X46378175Y-39198068D01*
X46171332Y-38991225D01*
X45996940Y-38874700D01*
X46171332Y-38758175D01*
X46378175Y-38551332D01*
X46540690Y-38308111D01*
X46652632Y-38037858D01*
X46709700Y-37750960D01*
X46709700Y-37458440D01*
X46652632Y-37171542D01*
X46540690Y-36901289D01*
X46378175Y-36658068D01*
X46171332Y-36451225D01*
X45996940Y-36334700D01*
X46171332Y-36218175D01*
X46378175Y-36011332D01*
X46540690Y-35768111D01*
X46652632Y-35497858D01*
X46709700Y-35210960D01*
X46709700Y-34918440D01*
X46652632Y-34631542D01*
X46540690Y-34361289D01*
X46378175Y-34118068D01*
X46171332Y-33911225D01*
X45996940Y-33794700D01*
X46171332Y-33678175D01*
X46378175Y-33471332D01*
X46540690Y-33228111D01*
X46652632Y-32957858D01*
X46709700Y-32670960D01*
X46709700Y-32378440D01*
X46652632Y-32091542D01*
X46540690Y-31821289D01*
X46378175Y-31578068D01*
X46246320Y-31446213D01*
X46318880Y-31424202D01*
X46429194Y-31365237D01*
X46525885Y-31285885D01*
X46605237Y-31189194D01*
X46664202Y-31078880D01*
X46700512Y-30959182D01*
X46712772Y-30834700D01*
X61516628Y-30834700D01*
X61528888Y-30959182D01*
X61565198Y-31078880D01*
X61624163Y-31189194D01*
X61703515Y-31285885D01*
X61800206Y-31365237D01*
X61910520Y-31424202D01*
X61983080Y-31446213D01*
X61851225Y-31578068D01*
X61688710Y-31821289D01*
X61576768Y-32091542D01*
X61519700Y-32378440D01*
X61519700Y-32670960D01*
X61576768Y-32957858D01*
X61688710Y-33228111D01*
X61851225Y-33471332D01*
X62058068Y-33678175D01*
X62232460Y-33794700D01*
X62058068Y-33911225D01*
X61851225Y-34118068D01*
X61688710Y-34361289D01*
X61576768Y-34631542D01*
X61519700Y-34918440D01*
X61519700Y-35210960D01*
X61576768Y-35497858D01*
X61688710Y-35768111D01*
X61851225Y-36011332D01*
X62058068Y-36218175D01*
X62232460Y-36334700D01*
X62058068Y-36451225D01*
X61851225Y-36658068D01*
X61688710Y-36901289D01*
X61576768Y-37171542D01*
X61519700Y-37458440D01*
X61519700Y-37750960D01*
X61576768Y-38037858D01*
X61688710Y-38308111D01*
X61851225Y-38551332D01*
X62058068Y-38758175D01*
X62232460Y-38874700D01*
X62058068Y-38991225D01*
X61851225Y-39198068D01*
X61688710Y-39441289D01*
X61576768Y-39711542D01*
X61519700Y-39998440D01*
X61519700Y-40290960D01*
X61576768Y-40577858D01*
X61688710Y-40848111D01*
X61851225Y-41091332D01*
X61983080Y-41223187D01*
X61910520Y-41245198D01*
X61800206Y-41304163D01*
X61703515Y-41383515D01*
X61624163Y-41480206D01*
X61565198Y-41590520D01*
X61528888Y-41710218D01*
X61516628Y-41834700D01*
X61519700Y-42398950D01*
X61678450Y-42557700D01*
X62877700Y-42557700D01*
X62877700Y-42537700D01*
X63131700Y-42537700D01*
X63131700Y-42557700D01*
X64330950Y-42557700D01*
X64489700Y-42398950D01*
X64492772Y-41834700D01*
X64480512Y-41710218D01*
X64444202Y-41590520D01*
X64385237Y-41480206D01*
X64305885Y-41383515D01*
X64209194Y-41304163D01*
X64098880Y-41245198D01*
X64026320Y-41223187D01*
X64158175Y-41091332D01*
X64320690Y-40848111D01*
X64432632Y-40577858D01*
X64489700Y-40290960D01*
X64489700Y-39998440D01*
X64432632Y-39711542D01*
X64320690Y-39441289D01*
X64158175Y-39198068D01*
X63951332Y-38991225D01*
X63776940Y-38874700D01*
X63951332Y-38758175D01*
X64158175Y-38551332D01*
X64320690Y-38308111D01*
X64432632Y-38037858D01*
X64489700Y-37750960D01*
X64489700Y-37458440D01*
X64432632Y-37171542D01*
X64320690Y-36901289D01*
X64158175Y-36658068D01*
X63951332Y-36451225D01*
X63776940Y-36334700D01*
X63951332Y-36218175D01*
X64158175Y-36011332D01*
X64320690Y-35768111D01*
X64432632Y-35497858D01*
X64489700Y-35210960D01*
X64489700Y-34918440D01*
X64432632Y-34631542D01*
X64320690Y-34361289D01*
X64158175Y-34118068D01*
X63951332Y-33911225D01*
X63776940Y-33794700D01*
X63951332Y-33678175D01*
X64158175Y-33471332D01*
X64320690Y-33228111D01*
X64432632Y-32957858D01*
X64489700Y-32670960D01*
X64489700Y-32378440D01*
X64432632Y-32091542D01*
X64320690Y-31821289D01*
X64158175Y-31578068D01*
X64026320Y-31446213D01*
X64098880Y-31424202D01*
X64209194Y-31365237D01*
X64305885Y-31285885D01*
X64385237Y-31189194D01*
X64444202Y-31078880D01*
X64480512Y-30959182D01*
X64492772Y-30834700D01*
X64489700Y-30270450D01*
X64330950Y-30111700D01*
X63131700Y-30111700D01*
X63131700Y-30131700D01*
X62877700Y-30131700D01*
X62877700Y-30111700D01*
X61678450Y-30111700D01*
X61519700Y-30270450D01*
X61516628Y-30834700D01*
X46712772Y-30834700D01*
X46709700Y-30270450D01*
X46550950Y-30111700D01*
X45351700Y-30111700D01*
X45351700Y-30131700D01*
X45097700Y-30131700D01*
X45097700Y-30111700D01*
X43898450Y-30111700D01*
X43739700Y-30270450D01*
X43736628Y-30834700D01*
X39036952Y-30834700D01*
X40169728Y-29701924D01*
X40249080Y-29605233D01*
X40308045Y-29494919D01*
X40344355Y-29375221D01*
X40356615Y-29250739D01*
X40345187Y-29134700D01*
X43736628Y-29134700D01*
X43739700Y-29698950D01*
X43898450Y-29857700D01*
X45097700Y-29857700D01*
X45097700Y-29837700D01*
X45351700Y-29837700D01*
X45351700Y-29857700D01*
X46550950Y-29857700D01*
X46709700Y-29698950D01*
X46712772Y-29134700D01*
X61516628Y-29134700D01*
X61519700Y-29698950D01*
X61678450Y-29857700D01*
X62877700Y-29857700D01*
X62877700Y-29837700D01*
X63131700Y-29837700D01*
X63131700Y-29857700D01*
X64330950Y-29857700D01*
X64489700Y-29698950D01*
X64492772Y-29134700D01*
X64480512Y-29010218D01*
X64444202Y-28890520D01*
X64385237Y-28780206D01*
X64305885Y-28683515D01*
X64209194Y-28604163D01*
X64098880Y-28545198D01*
X64026320Y-28523187D01*
X64158175Y-28391332D01*
X64320690Y-28148111D01*
X64432632Y-27877858D01*
X64489700Y-27590960D01*
X64489700Y-27298440D01*
X64432632Y-27011542D01*
X64320690Y-26741289D01*
X64158175Y-26498068D01*
X63951332Y-26291225D01*
X63776940Y-26174700D01*
X63951332Y-26058175D01*
X64158175Y-25851332D01*
X64320690Y-25608111D01*
X64432632Y-25337858D01*
X64489700Y-25050960D01*
X64489700Y-24758440D01*
X64432632Y-24471542D01*
X64320690Y-24201289D01*
X64158175Y-23958068D01*
X63951332Y-23751225D01*
X63708111Y-23588710D01*
X63437858Y-23476768D01*
X63150960Y-23419700D01*
X62858440Y-23419700D01*
X62571542Y-23476768D01*
X62301289Y-23588710D01*
X62058068Y-23751225D01*
X61851225Y-23958068D01*
X61688710Y-24201289D01*
X61576768Y-24471542D01*
X61519700Y-24758440D01*
X61519700Y-25050960D01*
X61576768Y-25337858D01*
X61688710Y-25608111D01*
X61851225Y-25851332D01*
X62058068Y-26058175D01*
X62232460Y-26174700D01*
X62058068Y-26291225D01*
X61851225Y-26498068D01*
X61688710Y-26741289D01*
X61576768Y-27011542D01*
X61519700Y-27298440D01*
X61519700Y-27590960D01*
X61576768Y-27877858D01*
X61688710Y-28148111D01*
X61851225Y-28391332D01*
X61983080Y-28523187D01*
X61910520Y-28545198D01*
X61800206Y-28604163D01*
X61703515Y-28683515D01*
X61624163Y-28780206D01*
X61565198Y-28890520D01*
X61528888Y-29010218D01*
X61516628Y-29134700D01*
X46712772Y-29134700D01*
X46700512Y-29010218D01*
X46664202Y-28890520D01*
X46605237Y-28780206D01*
X46525885Y-28683515D01*
X46429194Y-28604163D01*
X46318880Y-28545198D01*
X46246320Y-28523187D01*
X46378175Y-28391332D01*
X46540690Y-28148111D01*
X46652632Y-27877858D01*
X46709700Y-27590960D01*
X46709700Y-27298440D01*
X46652632Y-27011542D01*
X46540690Y-26741289D01*
X46378175Y-26498068D01*
X46171332Y-26291225D01*
X45996940Y-26174700D01*
X46171332Y-26058175D01*
X46378175Y-25851332D01*
X46540690Y-25608111D01*
X46652632Y-25337858D01*
X46709700Y-25050960D01*
X46709700Y-24988440D01*
X50089700Y-24988440D01*
X50089700Y-25280960D01*
X50146768Y-25567858D01*
X50258710Y-25838111D01*
X50421225Y-26081332D01*
X50628068Y-26288175D01*
X50871289Y-26450690D01*
X51141542Y-26562632D01*
X51428440Y-26619700D01*
X51720960Y-26619700D01*
X52007858Y-26562632D01*
X52278111Y-26450690D01*
X52521332Y-26288175D01*
X52653187Y-26156320D01*
X52675198Y-26228880D01*
X52734163Y-26339194D01*
X52813515Y-26435885D01*
X52910206Y-26515237D01*
X53020520Y-26574202D01*
X53140218Y-26610512D01*
X53264700Y-26622772D01*
X54964700Y-26622772D01*
X55089182Y-26610512D01*
X55208880Y-26574202D01*
X55319194Y-26515237D01*
X55415885Y-26435885D01*
X55495237Y-26339194D01*
X55554202Y-26228880D01*
X55576213Y-26156320D01*
X55708068Y-26288175D01*
X55951289Y-26450690D01*
X56221542Y-26562632D01*
X56508440Y-26619700D01*
X56800960Y-26619700D01*
X57087858Y-26562632D01*
X57358111Y-26450690D01*
X57601332Y-26288175D01*
X57808175Y-26081332D01*
X57970690Y-25838111D01*
X58082632Y-25567858D01*
X58139700Y-25280960D01*
X58139700Y-24988440D01*
X58082632Y-24701542D01*
X57970690Y-24431289D01*
X57808175Y-24188068D01*
X57601332Y-23981225D01*
X57358111Y-23818710D01*
X57087858Y-23706768D01*
X56800960Y-23649700D01*
X56508440Y-23649700D01*
X56221542Y-23706768D01*
X55951289Y-23818710D01*
X55708068Y-23981225D01*
X55576213Y-24113080D01*
X55554202Y-24040520D01*
X55495237Y-23930206D01*
X55415885Y-23833515D01*
X55319194Y-23754163D01*
X55208880Y-23695198D01*
X55089182Y-23658888D01*
X54964700Y-23646628D01*
X53264700Y-23646628D01*
X53140218Y-23658888D01*
X53020520Y-23695198D01*
X52910206Y-23754163D01*
X52813515Y-23833515D01*
X52734163Y-23930206D01*
X52675198Y-24040520D01*
X52653187Y-24113080D01*
X52521332Y-23981225D01*
X52278111Y-23818710D01*
X52007858Y-23706768D01*
X51720960Y-23649700D01*
X51428440Y-23649700D01*
X51141542Y-23706768D01*
X50871289Y-23818710D01*
X50628068Y-23981225D01*
X50421225Y-24188068D01*
X50258710Y-24431289D01*
X50146768Y-24701542D01*
X50089700Y-24988440D01*
X46709700Y-24988440D01*
X46709700Y-24758440D01*
X46652632Y-24471542D01*
X46540690Y-24201289D01*
X46378175Y-23958068D01*
X46171332Y-23751225D01*
X45928111Y-23588710D01*
X45657858Y-23476768D01*
X45370960Y-23419700D01*
X45078440Y-23419700D01*
X44791542Y-23476768D01*
X44521289Y-23588710D01*
X44278068Y-23751225D01*
X44071225Y-23958068D01*
X43908710Y-24201289D01*
X43796768Y-24471542D01*
X43739700Y-24758440D01*
X43739700Y-25050960D01*
X43796768Y-25337858D01*
X43908710Y-25608111D01*
X44071225Y-25851332D01*
X44278068Y-26058175D01*
X44452460Y-26174700D01*
X44278068Y-26291225D01*
X44071225Y-26498068D01*
X43908710Y-26741289D01*
X43796768Y-27011542D01*
X43739700Y-27298440D01*
X43739700Y-27590960D01*
X43796768Y-27877858D01*
X43908710Y-28148111D01*
X44071225Y-28391332D01*
X44203080Y-28523187D01*
X44130520Y-28545198D01*
X44020206Y-28604163D01*
X43923515Y-28683515D01*
X43844163Y-28780206D01*
X43785198Y-28890520D01*
X43748888Y-29010218D01*
X43736628Y-29134700D01*
X40345187Y-29134700D01*
X40344355Y-29126257D01*
X40308045Y-29006559D01*
X40249080Y-28896245D01*
X40169728Y-28799554D01*
X39072208Y-27702034D01*
X43522185Y-23239832D01*
X43549838Y-23217138D01*
X43573173Y-23188704D01*
X43573530Y-23188346D01*
X43596126Y-23160735D01*
X43641686Y-23105220D01*
X43641925Y-23104772D01*
X43642248Y-23104378D01*
X43676161Y-23040722D01*
X43709936Y-22977533D01*
X43710083Y-22977049D01*
X43710323Y-22976598D01*
X43731055Y-22907915D01*
X43751965Y-22838985D01*
X43752015Y-22838475D01*
X43752161Y-22837992D01*
X43759071Y-22766836D01*
X43766156Y-22694900D01*
X43766106Y-22694392D01*
X43766155Y-22693888D01*
X43759051Y-22622766D01*
X43751965Y-22550815D01*
X43751816Y-22550324D01*
X43751766Y-22549822D01*
X43730906Y-22481394D01*
X43709936Y-22412266D01*
X43709696Y-22411816D01*
X43709548Y-22411332D01*
X43675676Y-22348171D01*
X43641686Y-22284580D01*
X43641363Y-22284186D01*
X43641123Y-22283739D01*
X43595855Y-22228735D01*
X43572853Y-22200706D01*
X43572487Y-22200340D01*
X43549120Y-22171947D01*
X43521446Y-22149299D01*
X42954719Y-21582573D01*
X45643286Y-18896000D01*
X62298739Y-18896000D01*
X64973478Y-21553576D01*
%TA.AperFunction,Conductor*%
D17*
G36*
X64973478Y-21553576D02*
G01*
X64377402Y-22149652D01*
X64349363Y-22172663D01*
X64326352Y-22200702D01*
X64326347Y-22200707D01*
X64264723Y-22275797D01*
X64257514Y-22284581D01*
X64189264Y-22412267D01*
X64147235Y-22550815D01*
X64133044Y-22694900D01*
X64147235Y-22838985D01*
X64189264Y-22977533D01*
X64257514Y-23105219D01*
X64326347Y-23189093D01*
X64326352Y-23189098D01*
X64349363Y-23217137D01*
X64377402Y-23240148D01*
X68883940Y-27746686D01*
X67754872Y-28875754D01*
X67675520Y-28972445D01*
X67616555Y-29082759D01*
X67580245Y-29202457D01*
X67567985Y-29326939D01*
X67580245Y-29451421D01*
X67616555Y-29571119D01*
X67675520Y-29681433D01*
X67754872Y-29778124D01*
X68956954Y-30980206D01*
X69053645Y-31059558D01*
X69163959Y-31118523D01*
X69283657Y-31154833D01*
X69408139Y-31167093D01*
X69532621Y-31154833D01*
X69652319Y-31118523D01*
X69719190Y-31082779D01*
X69719190Y-31269250D01*
X69776258Y-31556148D01*
X69888200Y-31826401D01*
X70050715Y-32069622D01*
X70257558Y-32276465D01*
X70500779Y-32438980D01*
X70771032Y-32550922D01*
X71057930Y-32607990D01*
X71350450Y-32607990D01*
X71565329Y-32565248D01*
X71531910Y-32697135D01*
X71516832Y-32987856D01*
X71558761Y-33275933D01*
X71656085Y-33550294D01*
X71728604Y-33685959D01*
X71976948Y-33762729D01*
X72820636Y-32919041D01*
X72806494Y-32904899D01*
X72986099Y-32725294D01*
X73000241Y-32739436D01*
X73014384Y-32725294D01*
X73193989Y-32904899D01*
X73179846Y-32919041D01*
X73193989Y-32933184D01*
X73014384Y-33112789D01*
X73000241Y-33098646D01*
X72156553Y-33942334D01*
X72233323Y-34190678D01*
X72368988Y-34263197D01*
X72643349Y-34360521D01*
X72931426Y-34402450D01*
X73222147Y-34387372D01*
X73354036Y-34353952D01*
X73311293Y-34568833D01*
X73311293Y-34861353D01*
X73368361Y-35148251D01*
X73480303Y-35418504D01*
X73642818Y-35661725D01*
X73849661Y-35868568D01*
X74092882Y-36031083D01*
X74363135Y-36143025D01*
X74650033Y-36200093D01*
X74942553Y-36200093D01*
X75148262Y-36159175D01*
X75107344Y-36364884D01*
X75107344Y-36657404D01*
X75164412Y-36944302D01*
X75276354Y-37214555D01*
X75438869Y-37457776D01*
X75645712Y-37664619D01*
X75888933Y-37827134D01*
X76159186Y-37939076D01*
X76446084Y-37996144D01*
X76738604Y-37996144D01*
X76944313Y-37955226D01*
X76903395Y-38160935D01*
X76903395Y-38453455D01*
X76960463Y-38740353D01*
X77072405Y-39010606D01*
X77234920Y-39253827D01*
X77441763Y-39460670D01*
X77684984Y-39623185D01*
X77955237Y-39735127D01*
X78242135Y-39792195D01*
X78534655Y-39792195D01*
X78740364Y-39751277D01*
X78699446Y-39956986D01*
X78699446Y-40249506D01*
X78756514Y-40536404D01*
X78868456Y-40806657D01*
X79030971Y-41049878D01*
X79237814Y-41256721D01*
X79481035Y-41419236D01*
X79751288Y-41531178D01*
X80038186Y-41588246D01*
X80330706Y-41588246D01*
X80545587Y-41545503D01*
X80512167Y-41677392D01*
X80497089Y-41968113D01*
X80539018Y-42256190D01*
X80636342Y-42530551D01*
X80708861Y-42666216D01*
X80957205Y-42742986D01*
X81800893Y-41899298D01*
X81786751Y-41885156D01*
X81966356Y-41705551D01*
X81980498Y-41719693D01*
X81994641Y-41705551D01*
X82174246Y-41885156D01*
X82160103Y-41899298D01*
X82174246Y-41913441D01*
X81994641Y-42093046D01*
X81980498Y-42078903D01*
X81136810Y-42922591D01*
X81213580Y-43170935D01*
X81349245Y-43243454D01*
X81623606Y-43340778D01*
X81911683Y-43382707D01*
X82202404Y-43367629D01*
X82334291Y-43334210D01*
X82291549Y-43549089D01*
X82291549Y-43841609D01*
X82348617Y-44128507D01*
X82460559Y-44398760D01*
X82623074Y-44641981D01*
X82829917Y-44848824D01*
X83073138Y-45011339D01*
X83343391Y-45123281D01*
X83630289Y-45180349D01*
X83922809Y-45180349D01*
X84128518Y-45139431D01*
X84087600Y-45345140D01*
X84087600Y-45637660D01*
X84144668Y-45924558D01*
X84256610Y-46194811D01*
X84419125Y-46438032D01*
X84625968Y-46644875D01*
X84869189Y-46807390D01*
X85139442Y-46919332D01*
X85426340Y-46976400D01*
X85718860Y-46976400D01*
X86005758Y-46919332D01*
X86276011Y-46807390D01*
X86519232Y-46644875D01*
X86726075Y-46438032D01*
X86888590Y-46194811D01*
X87000532Y-45924558D01*
X87010699Y-45873446D01*
X87503856Y-46366603D01*
X87526863Y-46394637D01*
X87554897Y-46417644D01*
X87554906Y-46417653D01*
X87638780Y-46486486D01*
X87766466Y-46554736D01*
X87905015Y-46596765D01*
X88049100Y-46610956D01*
X88193185Y-46596765D01*
X88331733Y-46554736D01*
X88358011Y-46540690D01*
X88459420Y-46486486D01*
X88571338Y-46394638D01*
X88594357Y-46366589D01*
X89190431Y-45770516D01*
X91568260Y-48163646D01*
X91297062Y-48439400D01*
X89928093Y-48439400D01*
X89893398Y-48435850D01*
X89855898Y-48439400D01*
X89854495Y-48439400D01*
X89819756Y-48442821D01*
X89749261Y-48449495D01*
X89747918Y-48449897D01*
X89746515Y-48450035D01*
X89678329Y-48470719D01*
X89610555Y-48490998D01*
X89609318Y-48491653D01*
X89607967Y-48492063D01*
X89545068Y-48525683D01*
X89482610Y-48558764D01*
X89481525Y-48559647D01*
X89480280Y-48560313D01*
X89425165Y-48605545D01*
X89370345Y-48650188D01*
X89369453Y-48651267D01*
X89368362Y-48652162D01*
X89323134Y-48707273D01*
X89278073Y-48761757D01*
X89277409Y-48762989D01*
X89276513Y-48764080D01*
X89242920Y-48826927D01*
X89209339Y-48889185D01*
X89208927Y-48890525D01*
X89208263Y-48891767D01*
X89187592Y-48959910D01*
X89166787Y-49027572D01*
X89166644Y-49028965D01*
X89166235Y-49030315D01*
X89159251Y-49101225D01*
X89155743Y-49135511D01*
X89155738Y-49136896D01*
X89152044Y-49174400D01*
X89155464Y-49209125D01*
X89152738Y-49928714D01*
X89095411Y-49890410D01*
X88825158Y-49778468D01*
X88538260Y-49721400D01*
X88245740Y-49721400D01*
X87958842Y-49778468D01*
X87688589Y-49890410D01*
X87445368Y-50052925D01*
X87238525Y-50259768D01*
X87076010Y-50502989D01*
X86964068Y-50773242D01*
X86907000Y-51060140D01*
X86907000Y-51352660D01*
X86964068Y-51639558D01*
X87076010Y-51909811D01*
X87238525Y-52153032D01*
X87445368Y-52359875D01*
X87619760Y-52476400D01*
X87445368Y-52592925D01*
X87238525Y-52799768D01*
X87076010Y-53042989D01*
X86964068Y-53313242D01*
X86907000Y-53600140D01*
X86907000Y-53892660D01*
X86964068Y-54179558D01*
X87076010Y-54449811D01*
X87238525Y-54693032D01*
X87445368Y-54899875D01*
X87627534Y-55021595D01*
X87510645Y-55091222D01*
X87294412Y-55286131D01*
X87120359Y-55519480D01*
X86995175Y-55782301D01*
X86950524Y-55929510D01*
X87071845Y-56159400D01*
X88265000Y-56159400D01*
X88265000Y-56139400D01*
X88519000Y-56139400D01*
X88519000Y-56159400D01*
X89712155Y-56159400D01*
X89833476Y-55929510D01*
X89788825Y-55782301D01*
X89663641Y-55519480D01*
X89489588Y-55286131D01*
X89273355Y-55091222D01*
X89156466Y-55021595D01*
X89275472Y-54942077D01*
X89301471Y-54973758D01*
X89346178Y-55028655D01*
X89347257Y-55029547D01*
X89348152Y-55030638D01*
X89403263Y-55075866D01*
X89457747Y-55120927D01*
X89458979Y-55121591D01*
X89460070Y-55122487D01*
X89522861Y-55156049D01*
X89585174Y-55189661D01*
X89586516Y-55190074D01*
X89587757Y-55190737D01*
X89655864Y-55211397D01*
X89723562Y-55232213D01*
X89724955Y-55232356D01*
X89726305Y-55232765D01*
X89797178Y-55239745D01*
X89867592Y-55246950D01*
X89905092Y-55243400D01*
X90742959Y-55243400D01*
X90735537Y-93556894D01*
X80478165Y-93549826D01*
X80441800Y-93546244D01*
X80369199Y-93553394D01*
X80298215Y-93560336D01*
X80297971Y-93560410D01*
X80297715Y-93560435D01*
X80227892Y-93581615D01*
X80159638Y-93602269D01*
X80159416Y-93602387D01*
X80159167Y-93602463D01*
X80094424Y-93637069D01*
X80031904Y-93670431D01*
X80031710Y-93670590D01*
X80031480Y-93670713D01*
X79974946Y-93717110D01*
X79919923Y-93762203D01*
X79919762Y-93762399D01*
X79919562Y-93762563D01*
X79873753Y-93818381D01*
X79827996Y-93874057D01*
X79827874Y-93874285D01*
X79827713Y-93874481D01*
X79793944Y-93937659D01*
X79759658Y-94001697D01*
X79759583Y-94001943D01*
X79759463Y-94002168D01*
X79738505Y-94071257D01*
X79717535Y-94140216D01*
X79717510Y-94140469D01*
X79717435Y-94140716D01*
X79710274Y-94213423D01*
X79703245Y-94284292D01*
X79706800Y-94320645D01*
X79706801Y-95125430D01*
X58697799Y-95149170D01*
X58697798Y-94235994D01*
X58697619Y-94234173D01*
X58697336Y-94177656D01*
X58693747Y-94142848D01*
X58693664Y-94107869D01*
X58692568Y-94097666D01*
X58603691Y-93321965D01*
X58589671Y-93256768D01*
X58576590Y-93191520D01*
X58573533Y-93181724D01*
X58391602Y-92612899D01*
X79459706Y-92612899D01*
X79675828Y-92979658D01*
X80135705Y-93220338D01*
X80633698Y-93366675D01*
X81150671Y-93413048D01*
X81666759Y-93357673D01*
X82162126Y-93202679D01*
X82579372Y-92979658D01*
X82795494Y-92612899D01*
X81127600Y-90945005D01*
X79459706Y-92612899D01*
X58391602Y-92612899D01*
X58335681Y-92438059D01*
X58309268Y-92376834D01*
X58283760Y-92315363D01*
X58278858Y-92306347D01*
X57901091Y-91623044D01*
X57863305Y-91568139D01*
X57826327Y-91512769D01*
X57819767Y-91504877D01*
X57316473Y-90907962D01*
X57268757Y-90861457D01*
X57221713Y-90814308D01*
X57213745Y-90807841D01*
X57189536Y-90788471D01*
X78479952Y-90788471D01*
X78535327Y-91304559D01*
X78690321Y-91799926D01*
X78913342Y-92217172D01*
X79280101Y-92433294D01*
X80947995Y-90765400D01*
X81307205Y-90765400D01*
X82975099Y-92433294D01*
X83341858Y-92217172D01*
X83582538Y-91757295D01*
X83728875Y-91259302D01*
X83775248Y-90742329D01*
X83719873Y-90226241D01*
X83564879Y-89730874D01*
X83341858Y-89313628D01*
X82975099Y-89097506D01*
X81307205Y-90765400D01*
X80947995Y-90765400D01*
X79280101Y-89097506D01*
X78913342Y-89313628D01*
X78672662Y-89773505D01*
X78526325Y-90271498D01*
X78479952Y-90788471D01*
X57189536Y-90788471D01*
X56604095Y-90320052D01*
X56548266Y-90283708D01*
X56492950Y-90246588D01*
X56483877Y-90241791D01*
X55791093Y-89881707D01*
X55729238Y-89856887D01*
X55667795Y-89831231D01*
X55657964Y-89828288D01*
X54908432Y-89609624D01*
X54842962Y-89597296D01*
X54777678Y-89584057D01*
X54767462Y-89583080D01*
X53989734Y-89514165D01*
X53923100Y-89514788D01*
X53856504Y-89514482D01*
X53846293Y-89515507D01*
X53069990Y-89598966D01*
X53004727Y-89612524D01*
X52939359Y-89625155D01*
X52929541Y-89628144D01*
X52184234Y-89860799D01*
X52122885Y-89886760D01*
X52061178Y-89911862D01*
X52052129Y-89916701D01*
X51366205Y-90289689D01*
X51311039Y-90327090D01*
X51255411Y-90363681D01*
X51247479Y-90370182D01*
X51247473Y-90370186D01*
X51247468Y-90370191D01*
X50647060Y-90869300D01*
X50600217Y-90916697D01*
X50552748Y-90963403D01*
X50546225Y-90971326D01*
X50054191Y-91577556D01*
X50017427Y-91633177D01*
X49979953Y-91688186D01*
X49975096Y-91697220D01*
X49975093Y-91697224D01*
X49975093Y-91697225D01*
X49610181Y-92387478D01*
X49584928Y-92449162D01*
X49558844Y-92510422D01*
X49555833Y-92520232D01*
X49331942Y-93268219D01*
X49319150Y-93333639D01*
X49305463Y-93398791D01*
X49304414Y-93408999D01*
X49230071Y-94186228D01*
X49230079Y-94189413D01*
X49226740Y-94223323D01*
X49226774Y-95162285D01*
X28243200Y-95150416D01*
X28243200Y-94320653D01*
X28246756Y-94284292D01*
X28239605Y-94212194D01*
X28232565Y-94140715D01*
X28232491Y-94140472D01*
X28232466Y-94140217D01*
X28211538Y-94071397D01*
X28190537Y-94002167D01*
X28190415Y-94001940D01*
X28190342Y-94001698D01*
X28156702Y-93938866D01*
X28122287Y-93874480D01*
X28122123Y-93874280D01*
X28122004Y-93874058D01*
X28076772Y-93819020D01*
X28030438Y-93762562D01*
X28030238Y-93762398D01*
X28030078Y-93762203D01*
X27974781Y-93716885D01*
X27918520Y-93670713D01*
X27918293Y-93670592D01*
X27918097Y-93670431D01*
X27854974Y-93636747D01*
X27790833Y-93602463D01*
X27790586Y-93602388D01*
X27790363Y-93602269D01*
X27721704Y-93581493D01*
X27652285Y-93560435D01*
X27652030Y-93560410D01*
X27651786Y-93560336D01*
X27580661Y-93553381D01*
X27508200Y-93546244D01*
X27471836Y-93549826D01*
X17205400Y-93556895D01*
X17205400Y-88917901D01*
X79459706Y-88917901D01*
X81127600Y-90585795D01*
X82795494Y-88917901D01*
X82579372Y-88551142D01*
X82119495Y-88310462D01*
X81621502Y-88164125D01*
X81104529Y-88117752D01*
X80588441Y-88173127D01*
X80093074Y-88328121D01*
X79675828Y-88551142D01*
X79459706Y-88917901D01*
X17205400Y-88917901D01*
X17205400Y-85874065D01*
X82552600Y-85874065D01*
X82552600Y-86156735D01*
X82607747Y-86433974D01*
X82715920Y-86695127D01*
X82872963Y-86930159D01*
X83072841Y-87130037D01*
X83307873Y-87287080D01*
X83569026Y-87395253D01*
X83846265Y-87450400D01*
X84128935Y-87450400D01*
X84406174Y-87395253D01*
X84667327Y-87287080D01*
X84902359Y-87130037D01*
X84987600Y-87044796D01*
X85072841Y-87130037D01*
X85307873Y-87287080D01*
X85569026Y-87395253D01*
X85846265Y-87450400D01*
X86128935Y-87450400D01*
X86406174Y-87395253D01*
X86667327Y-87287080D01*
X86902359Y-87130037D01*
X87102237Y-86930159D01*
X87259280Y-86695127D01*
X87367453Y-86433974D01*
X87422600Y-86156735D01*
X87422600Y-85874065D01*
X87367453Y-85596826D01*
X87259280Y-85335673D01*
X87102237Y-85100641D01*
X86935657Y-84934061D01*
X87031780Y-84904902D01*
X87142094Y-84845937D01*
X87238785Y-84766585D01*
X87318137Y-84669894D01*
X87377102Y-84559580D01*
X87413412Y-84439882D01*
X87425672Y-84315400D01*
X87425672Y-82715400D01*
X87413412Y-82590918D01*
X87377102Y-82471220D01*
X87318137Y-82360906D01*
X87238785Y-82264215D01*
X87142094Y-82184863D01*
X87031780Y-82125898D01*
X86912082Y-82089588D01*
X86787600Y-82077328D01*
X85187600Y-82077328D01*
X85063118Y-82089588D01*
X84943420Y-82125898D01*
X84833106Y-82184863D01*
X84736415Y-82264215D01*
X84725793Y-82277158D01*
X84473604Y-82157829D01*
X84199416Y-82089100D01*
X83917088Y-82075183D01*
X83637470Y-82116613D01*
X83371308Y-82211797D01*
X83246086Y-82278729D01*
X83174503Y-82522698D01*
X83987600Y-83335795D01*
X84001743Y-83321653D01*
X84181348Y-83501258D01*
X84167205Y-83515400D01*
X84181348Y-83529543D01*
X84001743Y-83709148D01*
X83987600Y-83695005D01*
X83174503Y-84508102D01*
X83246086Y-84752071D01*
X83274941Y-84765724D01*
X83072841Y-84900763D01*
X82872963Y-85100641D01*
X82715920Y-85335673D01*
X82607747Y-85596826D01*
X82552600Y-85874065D01*
X17205400Y-85874065D01*
X17205400Y-83585912D01*
X82547383Y-83585912D01*
X82588813Y-83865530D01*
X82683997Y-84131692D01*
X82750929Y-84256914D01*
X82994898Y-84328497D01*
X83807995Y-83515400D01*
X82994898Y-82702303D01*
X82750929Y-82773886D01*
X82630029Y-83029396D01*
X82561300Y-83303584D01*
X82547383Y-83585912D01*
X17205400Y-83585912D01*
X17205400Y-80612899D01*
X79459706Y-80612899D01*
X79675828Y-80979658D01*
X80135705Y-81220338D01*
X80633698Y-81366675D01*
X81150671Y-81413048D01*
X81666759Y-81357673D01*
X82162126Y-81202679D01*
X82579372Y-80979658D01*
X82795494Y-80612899D01*
X81127600Y-78945005D01*
X79459706Y-80612899D01*
X17205400Y-80612899D01*
X17205400Y-77704740D01*
X43295200Y-77704740D01*
X43295200Y-77997260D01*
X43352268Y-78284158D01*
X43464210Y-78554411D01*
X43626725Y-78797632D01*
X43833568Y-79004475D01*
X44076789Y-79166990D01*
X44347042Y-79278932D01*
X44633940Y-79336000D01*
X44926460Y-79336000D01*
X45213358Y-79278932D01*
X45483611Y-79166990D01*
X45726832Y-79004475D01*
X45858687Y-78872620D01*
X45880698Y-78945180D01*
X45939663Y-79055494D01*
X46019015Y-79152185D01*
X46115706Y-79231537D01*
X46226020Y-79290502D01*
X46345718Y-79326812D01*
X46470200Y-79339072D01*
X47034450Y-79336000D01*
X47193200Y-79177250D01*
X47193200Y-77978000D01*
X47447200Y-77978000D01*
X47447200Y-79177250D01*
X47605950Y-79336000D01*
X48170200Y-79339072D01*
X48294682Y-79326812D01*
X48414380Y-79290502D01*
X48524694Y-79231537D01*
X48621385Y-79152185D01*
X48700737Y-79055494D01*
X48759702Y-78945180D01*
X48796012Y-78825482D01*
X48799657Y-78788471D01*
X78479952Y-78788471D01*
X78535327Y-79304559D01*
X78690321Y-79799926D01*
X78913342Y-80217172D01*
X79280101Y-80433294D01*
X80947995Y-78765400D01*
X81307205Y-78765400D01*
X82975099Y-80433294D01*
X83341858Y-80217172D01*
X83582538Y-79757295D01*
X83728875Y-79259302D01*
X83775248Y-78742329D01*
X83719873Y-78226241D01*
X83564879Y-77730874D01*
X83341858Y-77313628D01*
X82975099Y-77097506D01*
X81307205Y-78765400D01*
X80947995Y-78765400D01*
X79280101Y-77097506D01*
X78913342Y-77313628D01*
X78672662Y-77773505D01*
X78526325Y-78271498D01*
X78479952Y-78788471D01*
X48799657Y-78788471D01*
X48808272Y-78701000D01*
X48805200Y-78136750D01*
X48646450Y-77978000D01*
X47447200Y-77978000D01*
X47193200Y-77978000D01*
X47173200Y-77978000D01*
X47173200Y-77724000D01*
X47193200Y-77724000D01*
X47193200Y-76524750D01*
X47447200Y-76524750D01*
X47447200Y-77724000D01*
X48646450Y-77724000D01*
X48805200Y-77565250D01*
X48808272Y-77001000D01*
X48800088Y-76917901D01*
X79459706Y-76917901D01*
X81127600Y-78585795D01*
X82795494Y-76917901D01*
X82579372Y-76551142D01*
X82119495Y-76310462D01*
X81621502Y-76164125D01*
X81104529Y-76117752D01*
X80588441Y-76173127D01*
X80093074Y-76328121D01*
X79675828Y-76551142D01*
X79459706Y-76917901D01*
X48800088Y-76917901D01*
X48796012Y-76876518D01*
X48759702Y-76756820D01*
X48700737Y-76646506D01*
X48621385Y-76549815D01*
X48524694Y-76470463D01*
X48414380Y-76411498D01*
X48294682Y-76375188D01*
X48170200Y-76362928D01*
X47605950Y-76366000D01*
X47447200Y-76524750D01*
X47193200Y-76524750D01*
X47034450Y-76366000D01*
X46470200Y-76362928D01*
X46345718Y-76375188D01*
X46226020Y-76411498D01*
X46115706Y-76470463D01*
X46019015Y-76549815D01*
X45939663Y-76646506D01*
X45880698Y-76756820D01*
X45858687Y-76829380D01*
X45726832Y-76697525D01*
X45483611Y-76535010D01*
X45213358Y-76423068D01*
X44926460Y-76366000D01*
X44633940Y-76366000D01*
X44347042Y-76423068D01*
X44076789Y-76535010D01*
X43833568Y-76697525D01*
X43626725Y-76904368D01*
X43464210Y-77147589D01*
X43352268Y-77417842D01*
X43295200Y-77704740D01*
X17205400Y-77704740D01*
X17205400Y-71380140D01*
X18022200Y-71380140D01*
X18022200Y-71672660D01*
X18079268Y-71959558D01*
X18191210Y-72229811D01*
X18353725Y-72473032D01*
X18560568Y-72679875D01*
X18734960Y-72796400D01*
X18560568Y-72912925D01*
X18353725Y-73119768D01*
X18191210Y-73362989D01*
X18079268Y-73633242D01*
X18022200Y-73920140D01*
X18022200Y-74212660D01*
X18079268Y-74499558D01*
X18191210Y-74769811D01*
X18353725Y-75013032D01*
X18560568Y-75219875D01*
X18803789Y-75382390D01*
X19074042Y-75494332D01*
X19360940Y-75551400D01*
X19653460Y-75551400D01*
X19940358Y-75494332D01*
X20210611Y-75382390D01*
X20453832Y-75219875D01*
X20660675Y-75013032D01*
X20823190Y-74769811D01*
X20935132Y-74499558D01*
X20992200Y-74212660D01*
X20992200Y-73920140D01*
X20935132Y-73633242D01*
X20823190Y-73362989D01*
X20660675Y-73119768D01*
X20453832Y-72912925D01*
X20279440Y-72796400D01*
X20453832Y-72679875D01*
X20660675Y-72473032D01*
X20823190Y-72229811D01*
X20935132Y-71959558D01*
X20992200Y-71672660D01*
X20992200Y-71380140D01*
X20935132Y-71093242D01*
X20823190Y-70822989D01*
X20660675Y-70579768D01*
X20453832Y-70372925D01*
X20271666Y-70251205D01*
X20388555Y-70181578D01*
X20604788Y-69986669D01*
X20778841Y-69753320D01*
X20904025Y-69490499D01*
X20948676Y-69343290D01*
X20827355Y-69113400D01*
X19634200Y-69113400D01*
X19634200Y-69133400D01*
X19380200Y-69133400D01*
X19380200Y-69113400D01*
X18187045Y-69113400D01*
X18065724Y-69343290D01*
X18110375Y-69490499D01*
X18235559Y-69753320D01*
X18409612Y-69986669D01*
X18625845Y-70181578D01*
X18742734Y-70251205D01*
X18560568Y-70372925D01*
X18353725Y-70579768D01*
X18191210Y-70822989D01*
X18079268Y-71093242D01*
X18022200Y-71380140D01*
X17205400Y-71380140D01*
X17205400Y-68934700D01*
X43736628Y-68934700D01*
X43748888Y-69059182D01*
X43785198Y-69178880D01*
X43844163Y-69289194D01*
X43923515Y-69385885D01*
X44020206Y-69465237D01*
X44130520Y-69524202D01*
X44203080Y-69546213D01*
X44071225Y-69678068D01*
X43908710Y-69921289D01*
X43796768Y-70191542D01*
X43739700Y-70478440D01*
X43739700Y-70770960D01*
X43796768Y-71057858D01*
X43908710Y-71328111D01*
X44071225Y-71571332D01*
X44278068Y-71778175D01*
X44452460Y-71894700D01*
X44278068Y-72011225D01*
X44071225Y-72218068D01*
X43908710Y-72461289D01*
X43796768Y-72731542D01*
X43739700Y-73018440D01*
X43739700Y-73310960D01*
X43796768Y-73597858D01*
X43908710Y-73868111D01*
X44071225Y-74111332D01*
X44278068Y-74318175D01*
X44521289Y-74480690D01*
X44791542Y-74592632D01*
X45078440Y-74649700D01*
X45370960Y-74649700D01*
X45657858Y-74592632D01*
X45928111Y-74480690D01*
X46171332Y-74318175D01*
X46378175Y-74111332D01*
X46540690Y-73868111D01*
X46652632Y-73597858D01*
X46709700Y-73310960D01*
X46709700Y-73018440D01*
X46682862Y-72883516D01*
X49854700Y-72883516D01*
X49854700Y-73185884D01*
X49913689Y-73482443D01*
X50029401Y-73761795D01*
X50197388Y-74013205D01*
X50411195Y-74227012D01*
X50662605Y-74394999D01*
X50941957Y-74510711D01*
X51238516Y-74569700D01*
X51540884Y-74569700D01*
X51837443Y-74510711D01*
X52116795Y-74394999D01*
X52368205Y-74227012D01*
X52582012Y-74013205D01*
X52749999Y-73761795D01*
X52865711Y-73482443D01*
X52924700Y-73185884D01*
X52924700Y-72883516D01*
X55304700Y-72883516D01*
X55304700Y-73185884D01*
X55363689Y-73482443D01*
X55479401Y-73761795D01*
X55647388Y-74013205D01*
X55861195Y-74227012D01*
X56112605Y-74394999D01*
X56391957Y-74510711D01*
X56688516Y-74569700D01*
X56990884Y-74569700D01*
X57287443Y-74510711D01*
X57566795Y-74394999D01*
X57818205Y-74227012D01*
X58032012Y-74013205D01*
X58199999Y-73761795D01*
X58315711Y-73482443D01*
X58374700Y-73185884D01*
X58374700Y-72883516D01*
X58315711Y-72586957D01*
X58199999Y-72307605D01*
X58032012Y-72056195D01*
X57818205Y-71842388D01*
X57566795Y-71674401D01*
X57287443Y-71558689D01*
X56990884Y-71499700D01*
X56688516Y-71499700D01*
X56391957Y-71558689D01*
X56112605Y-71674401D01*
X55861195Y-71842388D01*
X55647388Y-72056195D01*
X55479401Y-72307605D01*
X55363689Y-72586957D01*
X55304700Y-72883516D01*
X52924700Y-72883516D01*
X52865711Y-72586957D01*
X52749999Y-72307605D01*
X52582012Y-72056195D01*
X52368205Y-71842388D01*
X52116795Y-71674401D01*
X51837443Y-71558689D01*
X51540884Y-71499700D01*
X51238516Y-71499700D01*
X50941957Y-71558689D01*
X50662605Y-71674401D01*
X50411195Y-71842388D01*
X50197388Y-72056195D01*
X50029401Y-72307605D01*
X49913689Y-72586957D01*
X49854700Y-72883516D01*
X46682862Y-72883516D01*
X46652632Y-72731542D01*
X46540690Y-72461289D01*
X46378175Y-72218068D01*
X46171332Y-72011225D01*
X45996940Y-71894700D01*
X46171332Y-71778175D01*
X46378175Y-71571332D01*
X46540690Y-71328111D01*
X46652632Y-71057858D01*
X46709700Y-70770960D01*
X46709700Y-70478440D01*
X46652632Y-70191542D01*
X46540690Y-69921289D01*
X46505277Y-69868289D01*
X50304700Y-69868289D01*
X50304700Y-70141111D01*
X50357925Y-70408689D01*
X50462329Y-70660743D01*
X50613901Y-70887586D01*
X50806814Y-71080499D01*
X51033657Y-71232071D01*
X51285711Y-71336475D01*
X51553289Y-71389700D01*
X51826111Y-71389700D01*
X52093689Y-71336475D01*
X52345743Y-71232071D01*
X52572586Y-71080499D01*
X52765499Y-70887586D01*
X52917071Y-70660743D01*
X53021475Y-70408689D01*
X53074700Y-70141111D01*
X53074700Y-69868289D01*
X55154700Y-69868289D01*
X55154700Y-70141111D01*
X55207925Y-70408689D01*
X55312329Y-70660743D01*
X55463901Y-70887586D01*
X55656814Y-71080499D01*
X55883657Y-71232071D01*
X56135711Y-71336475D01*
X56403289Y-71389700D01*
X56676111Y-71389700D01*
X56943689Y-71336475D01*
X57195743Y-71232071D01*
X57422586Y-71080499D01*
X57615499Y-70887586D01*
X57767071Y-70660743D01*
X57871475Y-70408689D01*
X57924700Y-70141111D01*
X57924700Y-69868289D01*
X57871475Y-69600711D01*
X57767071Y-69348657D01*
X57615499Y-69121814D01*
X57428385Y-68934700D01*
X61516628Y-68934700D01*
X61528888Y-69059182D01*
X61565198Y-69178880D01*
X61624163Y-69289194D01*
X61703515Y-69385885D01*
X61800206Y-69465237D01*
X61910520Y-69524202D01*
X61983080Y-69546213D01*
X61851225Y-69678068D01*
X61688710Y-69921289D01*
X61576768Y-70191542D01*
X61519700Y-70478440D01*
X61519700Y-70770960D01*
X61576768Y-71057858D01*
X61688710Y-71328111D01*
X61851225Y-71571332D01*
X62058068Y-71778175D01*
X62232460Y-71894700D01*
X62058068Y-72011225D01*
X61851225Y-72218068D01*
X61688710Y-72461289D01*
X61576768Y-72731542D01*
X61519700Y-73018440D01*
X61519700Y-73310960D01*
X61576768Y-73597858D01*
X61688710Y-73868111D01*
X61851225Y-74111332D01*
X62058068Y-74318175D01*
X62301289Y-74480690D01*
X62571542Y-74592632D01*
X62858440Y-74649700D01*
X63150960Y-74649700D01*
X63437858Y-74592632D01*
X63708111Y-74480690D01*
X63951332Y-74318175D01*
X64158175Y-74111332D01*
X64320690Y-73868111D01*
X64432632Y-73597858D01*
X64489700Y-73310960D01*
X64489700Y-73216400D01*
X86903928Y-73216400D01*
X86903928Y-74916400D01*
X86916188Y-75040882D01*
X86952498Y-75160580D01*
X87011463Y-75270894D01*
X87090815Y-75367585D01*
X87187506Y-75446937D01*
X87297820Y-75505902D01*
X87417518Y-75542212D01*
X87542000Y-75554472D01*
X89242000Y-75554472D01*
X89366482Y-75542212D01*
X89486180Y-75505902D01*
X89596494Y-75446937D01*
X89693185Y-75367585D01*
X89772537Y-75270894D01*
X89831502Y-75160580D01*
X89867812Y-75040882D01*
X89880072Y-74916400D01*
X89880072Y-73216400D01*
X89867812Y-73091918D01*
X89831502Y-72972220D01*
X89772537Y-72861906D01*
X89693185Y-72765215D01*
X89596494Y-72685863D01*
X89486180Y-72626898D01*
X89413620Y-72604887D01*
X89545475Y-72473032D01*
X89707990Y-72229811D01*
X89819932Y-71959558D01*
X89877000Y-71672660D01*
X89877000Y-71380140D01*
X89819932Y-71093242D01*
X89707990Y-70822989D01*
X89545475Y-70579768D01*
X89338632Y-70372925D01*
X89156466Y-70251205D01*
X89273355Y-70181578D01*
X89489588Y-69986669D01*
X89663641Y-69753320D01*
X89788825Y-69490499D01*
X89833476Y-69343290D01*
X89712155Y-69113400D01*
X88519000Y-69113400D01*
X88519000Y-69133400D01*
X88265000Y-69133400D01*
X88265000Y-69113400D01*
X87071845Y-69113400D01*
X86950524Y-69343290D01*
X86995175Y-69490499D01*
X87120359Y-69753320D01*
X87294412Y-69986669D01*
X87510645Y-70181578D01*
X87627534Y-70251205D01*
X87445368Y-70372925D01*
X87238525Y-70579768D01*
X87076010Y-70822989D01*
X86964068Y-71093242D01*
X86907000Y-71380140D01*
X86907000Y-71672660D01*
X86964068Y-71959558D01*
X87076010Y-72229811D01*
X87238525Y-72473032D01*
X87370380Y-72604887D01*
X87297820Y-72626898D01*
X87187506Y-72685863D01*
X87090815Y-72765215D01*
X87011463Y-72861906D01*
X86952498Y-72972220D01*
X86916188Y-73091918D01*
X86903928Y-73216400D01*
X64489700Y-73216400D01*
X64489700Y-73018440D01*
X64432632Y-72731542D01*
X64320690Y-72461289D01*
X64158175Y-72218068D01*
X63951332Y-72011225D01*
X63776940Y-71894700D01*
X63951332Y-71778175D01*
X64158175Y-71571332D01*
X64320690Y-71328111D01*
X64432632Y-71057858D01*
X64489700Y-70770960D01*
X64489700Y-70478440D01*
X64432632Y-70191542D01*
X64320690Y-69921289D01*
X64158175Y-69678068D01*
X64026320Y-69546213D01*
X64098880Y-69524202D01*
X64209194Y-69465237D01*
X64305885Y-69385885D01*
X64385237Y-69289194D01*
X64444202Y-69178880D01*
X64480512Y-69059182D01*
X64492772Y-68934700D01*
X64489700Y-68370450D01*
X64330950Y-68211700D01*
X63131700Y-68211700D01*
X63131700Y-68231700D01*
X62877700Y-68231700D01*
X62877700Y-68211700D01*
X61678450Y-68211700D01*
X61519700Y-68370450D01*
X61516628Y-68934700D01*
X57428385Y-68934700D01*
X57422586Y-68928901D01*
X57195743Y-68777329D01*
X56943689Y-68672925D01*
X56676111Y-68619700D01*
X56403289Y-68619700D01*
X56135711Y-68672925D01*
X55883657Y-68777329D01*
X55656814Y-68928901D01*
X55463901Y-69121814D01*
X55312329Y-69348657D01*
X55207925Y-69600711D01*
X55154700Y-69868289D01*
X53074700Y-69868289D01*
X53021475Y-69600711D01*
X52917071Y-69348657D01*
X52765499Y-69121814D01*
X52572586Y-68928901D01*
X52345743Y-68777329D01*
X52093689Y-68672925D01*
X51826111Y-68619700D01*
X51553289Y-68619700D01*
X51285711Y-68672925D01*
X51033657Y-68777329D01*
X50806814Y-68928901D01*
X50613901Y-69121814D01*
X50462329Y-69348657D01*
X50357925Y-69600711D01*
X50304700Y-69868289D01*
X46505277Y-69868289D01*
X46378175Y-69678068D01*
X46246320Y-69546213D01*
X46318880Y-69524202D01*
X46429194Y-69465237D01*
X46525885Y-69385885D01*
X46605237Y-69289194D01*
X46664202Y-69178880D01*
X46700512Y-69059182D01*
X46712772Y-68934700D01*
X46709700Y-68370450D01*
X46550950Y-68211700D01*
X45351700Y-68211700D01*
X45351700Y-68231700D01*
X45097700Y-68231700D01*
X45097700Y-68211700D01*
X43898450Y-68211700D01*
X43739700Y-68370450D01*
X43736628Y-68934700D01*
X17205400Y-68934700D01*
X17205400Y-58680140D01*
X18022200Y-58680140D01*
X18022200Y-58972660D01*
X18079268Y-59259558D01*
X18191210Y-59529811D01*
X18353725Y-59773032D01*
X18560568Y-59979875D01*
X18734960Y-60096400D01*
X18560568Y-60212925D01*
X18353725Y-60419768D01*
X18191210Y-60662989D01*
X18079268Y-60933242D01*
X18022200Y-61220140D01*
X18022200Y-61512660D01*
X18079268Y-61799558D01*
X18191210Y-62069811D01*
X18353725Y-62313032D01*
X18560568Y-62519875D01*
X18734960Y-62636400D01*
X18560568Y-62752925D01*
X18353725Y-62959768D01*
X18191210Y-63202989D01*
X18079268Y-63473242D01*
X18022200Y-63760140D01*
X18022200Y-64052660D01*
X18079268Y-64339558D01*
X18191210Y-64609811D01*
X18353725Y-64853032D01*
X18560568Y-65059875D01*
X18734960Y-65176400D01*
X18560568Y-65292925D01*
X18353725Y-65499768D01*
X18191210Y-65742989D01*
X18079268Y-66013242D01*
X18022200Y-66300140D01*
X18022200Y-66592660D01*
X18079268Y-66879558D01*
X18191210Y-67149811D01*
X18353725Y-67393032D01*
X18560568Y-67599875D01*
X18742734Y-67721595D01*
X18625845Y-67791222D01*
X18409612Y-67986131D01*
X18235559Y-68219480D01*
X18110375Y-68482301D01*
X18065724Y-68629510D01*
X18187045Y-68859400D01*
X19380200Y-68859400D01*
X19380200Y-68839400D01*
X19634200Y-68839400D01*
X19634200Y-68859400D01*
X20827355Y-68859400D01*
X20948676Y-68629510D01*
X20904025Y-68482301D01*
X20778841Y-68219480D01*
X20604788Y-67986131D01*
X20388555Y-67791222D01*
X20271666Y-67721595D01*
X20453832Y-67599875D01*
X20660675Y-67393032D01*
X20823190Y-67149811D01*
X20935132Y-66879558D01*
X20992200Y-66592660D01*
X20992200Y-66300140D01*
X20935132Y-66013242D01*
X20823190Y-65742989D01*
X20660675Y-65499768D01*
X20453832Y-65292925D01*
X20279440Y-65176400D01*
X20453832Y-65059875D01*
X20660675Y-64853032D01*
X20823190Y-64609811D01*
X20935132Y-64339558D01*
X20992200Y-64052660D01*
X20992200Y-63760140D01*
X20935132Y-63473242D01*
X20823190Y-63202989D01*
X20660675Y-62959768D01*
X20453832Y-62752925D01*
X20279440Y-62636400D01*
X20453832Y-62519875D01*
X20660675Y-62313032D01*
X20823190Y-62069811D01*
X20935132Y-61799558D01*
X20992200Y-61512660D01*
X20992200Y-61220140D01*
X20935132Y-60933242D01*
X20823190Y-60662989D01*
X20660675Y-60419768D01*
X20453832Y-60212925D01*
X20279440Y-60096400D01*
X20453832Y-59979875D01*
X20660675Y-59773032D01*
X20823190Y-59529811D01*
X20935132Y-59259558D01*
X20992200Y-58972660D01*
X20992200Y-58680140D01*
X20935132Y-58393242D01*
X20823190Y-58122989D01*
X20660675Y-57879768D01*
X20453832Y-57672925D01*
X20271666Y-57551205D01*
X20388555Y-57481578D01*
X20604788Y-57286669D01*
X20778841Y-57053320D01*
X20904025Y-56790499D01*
X20948676Y-56643290D01*
X20827355Y-56413400D01*
X19634200Y-56413400D01*
X19634200Y-56433400D01*
X19380200Y-56433400D01*
X19380200Y-56413400D01*
X18187045Y-56413400D01*
X18065724Y-56643290D01*
X18110375Y-56790499D01*
X18235559Y-57053320D01*
X18409612Y-57286669D01*
X18625845Y-57481578D01*
X18742734Y-57551205D01*
X18560568Y-57672925D01*
X18353725Y-57879768D01*
X18191210Y-58122989D01*
X18079268Y-58393242D01*
X18022200Y-58680140D01*
X17205400Y-58680140D01*
X17205400Y-56234700D01*
X43736628Y-56234700D01*
X43748888Y-56359182D01*
X43785198Y-56478880D01*
X43844163Y-56589194D01*
X43923515Y-56685885D01*
X44020206Y-56765237D01*
X44130520Y-56824202D01*
X44203080Y-56846213D01*
X44071225Y-56978068D01*
X43908710Y-57221289D01*
X43796768Y-57491542D01*
X43739700Y-57778440D01*
X43739700Y-58070960D01*
X43796768Y-58357858D01*
X43908710Y-58628111D01*
X44071225Y-58871332D01*
X44278068Y-59078175D01*
X44452460Y-59194700D01*
X44278068Y-59311225D01*
X44071225Y-59518068D01*
X43908710Y-59761289D01*
X43796768Y-60031542D01*
X43739700Y-60318440D01*
X43739700Y-60610960D01*
X43796768Y-60897858D01*
X43908710Y-61168111D01*
X44071225Y-61411332D01*
X44278068Y-61618175D01*
X44452460Y-61734700D01*
X44278068Y-61851225D01*
X44071225Y-62058068D01*
X43908710Y-62301289D01*
X43796768Y-62571542D01*
X43739700Y-62858440D01*
X43739700Y-63150960D01*
X43796768Y-63437858D01*
X43908710Y-63708111D01*
X44071225Y-63951332D01*
X44278068Y-64158175D01*
X44452460Y-64274700D01*
X44278068Y-64391225D01*
X44071225Y-64598068D01*
X43908710Y-64841289D01*
X43796768Y-65111542D01*
X43739700Y-65398440D01*
X43739700Y-65690960D01*
X43796768Y-65977858D01*
X43908710Y-66248111D01*
X44071225Y-66491332D01*
X44203080Y-66623187D01*
X44130520Y-66645198D01*
X44020206Y-66704163D01*
X43923515Y-66783515D01*
X43844163Y-66880206D01*
X43785198Y-66990520D01*
X43748888Y-67110218D01*
X43736628Y-67234700D01*
X43739700Y-67798950D01*
X43898450Y-67957700D01*
X45097700Y-67957700D01*
X45097700Y-67937700D01*
X45351700Y-67937700D01*
X45351700Y-67957700D01*
X46550950Y-67957700D01*
X46709700Y-67798950D01*
X46712772Y-67234700D01*
X46700512Y-67110218D01*
X46664202Y-66990520D01*
X46605237Y-66880206D01*
X46525885Y-66783515D01*
X46429194Y-66704163D01*
X46318880Y-66645198D01*
X46246320Y-66623187D01*
X46378175Y-66491332D01*
X46540690Y-66248111D01*
X46652632Y-65977858D01*
X46709700Y-65690960D01*
X46709700Y-65398440D01*
X46652632Y-65111542D01*
X46540690Y-64841289D01*
X46378175Y-64598068D01*
X46171332Y-64391225D01*
X45996940Y-64274700D01*
X46171332Y-64158175D01*
X46378175Y-63951332D01*
X46540690Y-63708111D01*
X46652632Y-63437858D01*
X46709700Y-63150960D01*
X46709700Y-62858440D01*
X46652632Y-62571542D01*
X46540690Y-62301289D01*
X46378175Y-62058068D01*
X46171332Y-61851225D01*
X45996940Y-61734700D01*
X46171332Y-61618175D01*
X46378175Y-61411332D01*
X46540690Y-61168111D01*
X46652632Y-60897858D01*
X46709700Y-60610960D01*
X46709700Y-60318440D01*
X46652632Y-60031542D01*
X46540690Y-59761289D01*
X46378175Y-59518068D01*
X46171332Y-59311225D01*
X45996940Y-59194700D01*
X46171332Y-59078175D01*
X46378175Y-58871332D01*
X46540690Y-58628111D01*
X46652632Y-58357858D01*
X46709700Y-58070960D01*
X46709700Y-57778440D01*
X46652632Y-57491542D01*
X46540690Y-57221289D01*
X46378175Y-56978068D01*
X46246320Y-56846213D01*
X46318880Y-56824202D01*
X46429194Y-56765237D01*
X46525885Y-56685885D01*
X46605237Y-56589194D01*
X46664202Y-56478880D01*
X46700512Y-56359182D01*
X46712772Y-56234700D01*
X61516628Y-56234700D01*
X61528888Y-56359182D01*
X61565198Y-56478880D01*
X61624163Y-56589194D01*
X61703515Y-56685885D01*
X61800206Y-56765237D01*
X61910520Y-56824202D01*
X61983080Y-56846213D01*
X61851225Y-56978068D01*
X61688710Y-57221289D01*
X61576768Y-57491542D01*
X61519700Y-57778440D01*
X61519700Y-58070960D01*
X61576768Y-58357858D01*
X61688710Y-58628111D01*
X61851225Y-58871332D01*
X62058068Y-59078175D01*
X62232460Y-59194700D01*
X62058068Y-59311225D01*
X61851225Y-59518068D01*
X61688710Y-59761289D01*
X61576768Y-60031542D01*
X61519700Y-60318440D01*
X61519700Y-60610960D01*
X61576768Y-60897858D01*
X61688710Y-61168111D01*
X61851225Y-61411332D01*
X62058068Y-61618175D01*
X62232460Y-61734700D01*
X62058068Y-61851225D01*
X61851225Y-62058068D01*
X61688710Y-62301289D01*
X61576768Y-62571542D01*
X61519700Y-62858440D01*
X61519700Y-63150960D01*
X61576768Y-63437858D01*
X61688710Y-63708111D01*
X61851225Y-63951332D01*
X62058068Y-64158175D01*
X62232460Y-64274700D01*
X62058068Y-64391225D01*
X61851225Y-64598068D01*
X61688710Y-64841289D01*
X61576768Y-65111542D01*
X61519700Y-65398440D01*
X61519700Y-65690960D01*
X61576768Y-65977858D01*
X61688710Y-66248111D01*
X61851225Y-66491332D01*
X61983080Y-66623187D01*
X61910520Y-66645198D01*
X61800206Y-66704163D01*
X61703515Y-66783515D01*
X61624163Y-66880206D01*
X61565198Y-66990520D01*
X61528888Y-67110218D01*
X61516628Y-67234700D01*
X61519700Y-67798950D01*
X61678450Y-67957700D01*
X62877700Y-67957700D01*
X62877700Y-67937700D01*
X63131700Y-67937700D01*
X63131700Y-67957700D01*
X64330950Y-67957700D01*
X64489700Y-67798950D01*
X64492772Y-67234700D01*
X64480512Y-67110218D01*
X64444202Y-66990520D01*
X64385237Y-66880206D01*
X64305885Y-66783515D01*
X64209194Y-66704163D01*
X64098880Y-66645198D01*
X64026320Y-66623187D01*
X64158175Y-66491332D01*
X64320690Y-66248111D01*
X64432632Y-65977858D01*
X64489700Y-65690960D01*
X64489700Y-65398440D01*
X64432632Y-65111542D01*
X64320690Y-64841289D01*
X64158175Y-64598068D01*
X63951332Y-64391225D01*
X63776940Y-64274700D01*
X63951332Y-64158175D01*
X64158175Y-63951332D01*
X64320690Y-63708111D01*
X64432632Y-63437858D01*
X64489700Y-63150960D01*
X64489700Y-62858440D01*
X64432632Y-62571542D01*
X64320690Y-62301289D01*
X64158175Y-62058068D01*
X63951332Y-61851225D01*
X63776940Y-61734700D01*
X63951332Y-61618175D01*
X64158175Y-61411332D01*
X64320690Y-61168111D01*
X64432632Y-60897858D01*
X64489700Y-60610960D01*
X64489700Y-60318440D01*
X64432632Y-60031542D01*
X64320690Y-59761289D01*
X64158175Y-59518068D01*
X63951332Y-59311225D01*
X63776940Y-59194700D01*
X63951332Y-59078175D01*
X64158175Y-58871332D01*
X64285925Y-58680140D01*
X86907000Y-58680140D01*
X86907000Y-58972660D01*
X86964068Y-59259558D01*
X87076010Y-59529811D01*
X87238525Y-59773032D01*
X87445368Y-59979875D01*
X87619760Y-60096400D01*
X87445368Y-60212925D01*
X87238525Y-60419768D01*
X87076010Y-60662989D01*
X86964068Y-60933242D01*
X86907000Y-61220140D01*
X86907000Y-61512660D01*
X86964068Y-61799558D01*
X87076010Y-62069811D01*
X87238525Y-62313032D01*
X87445368Y-62519875D01*
X87619760Y-62636400D01*
X87445368Y-62752925D01*
X87238525Y-62959768D01*
X87076010Y-63202989D01*
X86964068Y-63473242D01*
X86907000Y-63760140D01*
X86907000Y-64052660D01*
X86964068Y-64339558D01*
X87076010Y-64609811D01*
X87238525Y-64853032D01*
X87445368Y-65059875D01*
X87619760Y-65176400D01*
X87445368Y-65292925D01*
X87238525Y-65499768D01*
X87076010Y-65742989D01*
X86964068Y-66013242D01*
X86907000Y-66300140D01*
X86907000Y-66592660D01*
X86964068Y-66879558D01*
X87076010Y-67149811D01*
X87238525Y-67393032D01*
X87445368Y-67599875D01*
X87627534Y-67721595D01*
X87510645Y-67791222D01*
X87294412Y-67986131D01*
X87120359Y-68219480D01*
X86995175Y-68482301D01*
X86950524Y-68629510D01*
X87071845Y-68859400D01*
X88265000Y-68859400D01*
X88265000Y-68839400D01*
X88519000Y-68839400D01*
X88519000Y-68859400D01*
X89712155Y-68859400D01*
X89833476Y-68629510D01*
X89788825Y-68482301D01*
X89663641Y-68219480D01*
X89489588Y-67986131D01*
X89273355Y-67791222D01*
X89156466Y-67721595D01*
X89338632Y-67599875D01*
X89545475Y-67393032D01*
X89707990Y-67149811D01*
X89819932Y-66879558D01*
X89877000Y-66592660D01*
X89877000Y-66300140D01*
X89819932Y-66013242D01*
X89707990Y-65742989D01*
X89545475Y-65499768D01*
X89338632Y-65292925D01*
X89164240Y-65176400D01*
X89338632Y-65059875D01*
X89545475Y-64853032D01*
X89707990Y-64609811D01*
X89819932Y-64339558D01*
X89877000Y-64052660D01*
X89877000Y-63760140D01*
X89819932Y-63473242D01*
X89707990Y-63202989D01*
X89545475Y-62959768D01*
X89338632Y-62752925D01*
X89164240Y-62636400D01*
X89338632Y-62519875D01*
X89545475Y-62313032D01*
X89707990Y-62069811D01*
X89819932Y-61799558D01*
X89877000Y-61512660D01*
X89877000Y-61220140D01*
X89819932Y-60933242D01*
X89707990Y-60662989D01*
X89545475Y-60419768D01*
X89338632Y-60212925D01*
X89164240Y-60096400D01*
X89338632Y-59979875D01*
X89545475Y-59773032D01*
X89707990Y-59529811D01*
X89819932Y-59259558D01*
X89877000Y-58972660D01*
X89877000Y-58680140D01*
X89819932Y-58393242D01*
X89707990Y-58122989D01*
X89545475Y-57879768D01*
X89338632Y-57672925D01*
X89156466Y-57551205D01*
X89273355Y-57481578D01*
X89489588Y-57286669D01*
X89663641Y-57053320D01*
X89788825Y-56790499D01*
X89833476Y-56643290D01*
X89712155Y-56413400D01*
X88519000Y-56413400D01*
X88519000Y-56433400D01*
X88265000Y-56433400D01*
X88265000Y-56413400D01*
X87071845Y-56413400D01*
X86950524Y-56643290D01*
X86995175Y-56790499D01*
X87120359Y-57053320D01*
X87294412Y-57286669D01*
X87510645Y-57481578D01*
X87627534Y-57551205D01*
X87445368Y-57672925D01*
X87238525Y-57879768D01*
X87076010Y-58122989D01*
X86964068Y-58393242D01*
X86907000Y-58680140D01*
X64285925Y-58680140D01*
X64320690Y-58628111D01*
X64432632Y-58357858D01*
X64489700Y-58070960D01*
X64489700Y-57778440D01*
X64432632Y-57491542D01*
X64320690Y-57221289D01*
X64158175Y-56978068D01*
X64026320Y-56846213D01*
X64098880Y-56824202D01*
X64209194Y-56765237D01*
X64305885Y-56685885D01*
X64385237Y-56589194D01*
X64444202Y-56478880D01*
X64480512Y-56359182D01*
X64492772Y-56234700D01*
X64489700Y-55670450D01*
X64330950Y-55511700D01*
X63131700Y-55511700D01*
X63131700Y-55531700D01*
X62877700Y-55531700D01*
X62877700Y-55511700D01*
X61678450Y-55511700D01*
X61519700Y-55670450D01*
X61516628Y-56234700D01*
X46712772Y-56234700D01*
X46709700Y-55670450D01*
X46550950Y-55511700D01*
X45351700Y-55511700D01*
X45351700Y-55531700D01*
X45097700Y-55531700D01*
X45097700Y-55511700D01*
X43898450Y-55511700D01*
X43739700Y-55670450D01*
X43736628Y-56234700D01*
X17205400Y-56234700D01*
X17205400Y-55243400D01*
X18034295Y-55243400D01*
X18070400Y-55246956D01*
X18106505Y-55243400D01*
X18214485Y-55232765D01*
X18353033Y-55190737D01*
X18480720Y-55122487D01*
X18592638Y-55030638D01*
X18650589Y-54960025D01*
X18742734Y-55021595D01*
X18625845Y-55091222D01*
X18409612Y-55286131D01*
X18235559Y-55519480D01*
X18110375Y-55782301D01*
X18065724Y-55929510D01*
X18187045Y-56159400D01*
X19380200Y-56159400D01*
X19380200Y-56139400D01*
X19634200Y-56139400D01*
X19634200Y-56159400D01*
X20827355Y-56159400D01*
X20948676Y-55929510D01*
X20904025Y-55782301D01*
X20778841Y-55519480D01*
X20604788Y-55286131D01*
X20388555Y-55091222D01*
X20271666Y-55021595D01*
X20453832Y-54899875D01*
X20660675Y-54693032D01*
X20823190Y-54449811D01*
X20935132Y-54179558D01*
X20992200Y-53892660D01*
X20992200Y-53600140D01*
X20935132Y-53313242D01*
X20823190Y-53042989D01*
X20660675Y-52799768D01*
X20528820Y-52667913D01*
X20601380Y-52645902D01*
X20711694Y-52586937D01*
X20808385Y-52507585D01*
X20887737Y-52410894D01*
X20946702Y-52300580D01*
X20983012Y-52180882D01*
X20995272Y-52056400D01*
X20995272Y-50356400D01*
X20983012Y-50231918D01*
X20946702Y-50112220D01*
X20887737Y-50001906D01*
X20808385Y-49905215D01*
X20711694Y-49825863D01*
X20601380Y-49766898D01*
X20481682Y-49730588D01*
X20357200Y-49718328D01*
X18805400Y-49718328D01*
X18805400Y-49210505D01*
X18808956Y-49174400D01*
X18794765Y-49030315D01*
X18752737Y-48891767D01*
X18684487Y-48764080D01*
X18592638Y-48652162D01*
X18480720Y-48560313D01*
X18353033Y-48492063D01*
X18214485Y-48450035D01*
X18106505Y-48439400D01*
X18070400Y-48435844D01*
X18034295Y-48439400D01*
X16660945Y-48439400D01*
X16379778Y-48159668D01*
X18770600Y-45768847D01*
X19368709Y-46366956D01*
X19392079Y-46395353D01*
X19447588Y-46440781D01*
X19503280Y-46486486D01*
X19503727Y-46486725D01*
X19504123Y-46487049D01*
X19567608Y-46520870D01*
X19630966Y-46554736D01*
X19631455Y-46554884D01*
X19631903Y-46555123D01*
X19700512Y-46575833D01*
X19769514Y-46596765D01*
X19770022Y-46596815D01*
X19770509Y-46596962D01*
X19842252Y-46603928D01*
X19913599Y-46610955D01*
X19914102Y-46610905D01*
X19914613Y-46610955D01*
X19986199Y-46603805D01*
X20057684Y-46596765D01*
X20058174Y-46596616D01*
X20058678Y-46596566D01*
X20127410Y-46575614D01*
X20196233Y-46554736D01*
X20196680Y-46554497D01*
X20197169Y-46554348D01*
X20260786Y-46520232D01*
X20323919Y-46486486D01*
X20324311Y-46486164D01*
X20324761Y-46485923D01*
X20380576Y-46439988D01*
X20435837Y-46394637D01*
X20459169Y-46366207D01*
X20939190Y-45884867D01*
X21036010Y-46118611D01*
X21198525Y-46361832D01*
X21405368Y-46568675D01*
X21648589Y-46731190D01*
X21918842Y-46843132D01*
X22205740Y-46900200D01*
X22498260Y-46900200D01*
X22785158Y-46843132D01*
X23055411Y-46731190D01*
X23298632Y-46568675D01*
X23505475Y-46361832D01*
X23667990Y-46118611D01*
X23779932Y-45848358D01*
X23837000Y-45561460D01*
X23837000Y-45268940D01*
X23796082Y-45063231D01*
X24001791Y-45104149D01*
X24294311Y-45104149D01*
X24581209Y-45047081D01*
X24851462Y-44935139D01*
X25094683Y-44772624D01*
X25301526Y-44565781D01*
X25464041Y-44322560D01*
X25575983Y-44052307D01*
X25633051Y-43765409D01*
X25633051Y-43534700D01*
X43736628Y-43534700D01*
X43748888Y-43659182D01*
X43785198Y-43778880D01*
X43844163Y-43889194D01*
X43923515Y-43985885D01*
X44020206Y-44065237D01*
X44130520Y-44124202D01*
X44203080Y-44146213D01*
X44071225Y-44278068D01*
X43908710Y-44521289D01*
X43796768Y-44791542D01*
X43739700Y-45078440D01*
X43739700Y-45370960D01*
X43796768Y-45657858D01*
X43908710Y-45928111D01*
X44071225Y-46171332D01*
X44278068Y-46378175D01*
X44452460Y-46494700D01*
X44278068Y-46611225D01*
X44071225Y-46818068D01*
X43908710Y-47061289D01*
X43796768Y-47331542D01*
X43739700Y-47618440D01*
X43739700Y-47910960D01*
X43796768Y-48197858D01*
X43908710Y-48468111D01*
X44071225Y-48711332D01*
X44278068Y-48918175D01*
X44452460Y-49034700D01*
X44278068Y-49151225D01*
X44071225Y-49358068D01*
X43908710Y-49601289D01*
X43796768Y-49871542D01*
X43739700Y-50158440D01*
X43739700Y-50450960D01*
X43796768Y-50737858D01*
X43908710Y-51008111D01*
X44071225Y-51251332D01*
X44278068Y-51458175D01*
X44452460Y-51574700D01*
X44278068Y-51691225D01*
X44071225Y-51898068D01*
X43908710Y-52141289D01*
X43796768Y-52411542D01*
X43739700Y-52698440D01*
X43739700Y-52990960D01*
X43796768Y-53277858D01*
X43908710Y-53548111D01*
X44071225Y-53791332D01*
X44203080Y-53923187D01*
X44130520Y-53945198D01*
X44020206Y-54004163D01*
X43923515Y-54083515D01*
X43844163Y-54180206D01*
X43785198Y-54290520D01*
X43748888Y-54410218D01*
X43736628Y-54534700D01*
X43739700Y-55098950D01*
X43898450Y-55257700D01*
X45097700Y-55257700D01*
X45097700Y-55237700D01*
X45351700Y-55237700D01*
X45351700Y-55257700D01*
X46550950Y-55257700D01*
X46709700Y-55098950D01*
X46712772Y-54534700D01*
X46700512Y-54410218D01*
X46664202Y-54290520D01*
X46605237Y-54180206D01*
X46525885Y-54083515D01*
X46429194Y-54004163D01*
X46318880Y-53945198D01*
X46246320Y-53923187D01*
X46378175Y-53791332D01*
X46540690Y-53548111D01*
X46652632Y-53277858D01*
X46709700Y-52990960D01*
X46709700Y-52698440D01*
X46652632Y-52411542D01*
X46540690Y-52141289D01*
X46378175Y-51898068D01*
X46171332Y-51691225D01*
X45996940Y-51574700D01*
X46171332Y-51458175D01*
X46378175Y-51251332D01*
X46540690Y-51008111D01*
X46652632Y-50737858D01*
X46709700Y-50450960D01*
X46709700Y-50158440D01*
X46652632Y-49871542D01*
X46540690Y-49601289D01*
X46378175Y-49358068D01*
X46171332Y-49151225D01*
X45996940Y-49034700D01*
X46171332Y-48918175D01*
X46378175Y-48711332D01*
X46540690Y-48468111D01*
X46652632Y-48197858D01*
X46709700Y-47910960D01*
X46709700Y-47618440D01*
X46652632Y-47331542D01*
X46540690Y-47061289D01*
X46378175Y-46818068D01*
X46171332Y-46611225D01*
X45996940Y-46494700D01*
X46171332Y-46378175D01*
X46378175Y-46171332D01*
X46540690Y-45928111D01*
X46652632Y-45657858D01*
X46709700Y-45370960D01*
X46709700Y-45078440D01*
X46652632Y-44791542D01*
X46540690Y-44521289D01*
X46378175Y-44278068D01*
X46246320Y-44146213D01*
X46318880Y-44124202D01*
X46429194Y-44065237D01*
X46525885Y-43985885D01*
X46605237Y-43889194D01*
X46664202Y-43778880D01*
X46700512Y-43659182D01*
X46712772Y-43534700D01*
X61516628Y-43534700D01*
X61528888Y-43659182D01*
X61565198Y-43778880D01*
X61624163Y-43889194D01*
X61703515Y-43985885D01*
X61800206Y-44065237D01*
X61910520Y-44124202D01*
X61983080Y-44146213D01*
X61851225Y-44278068D01*
X61688710Y-44521289D01*
X61576768Y-44791542D01*
X61519700Y-45078440D01*
X61519700Y-45370960D01*
X61576768Y-45657858D01*
X61688710Y-45928111D01*
X61851225Y-46171332D01*
X62058068Y-46378175D01*
X62232460Y-46494700D01*
X62058068Y-46611225D01*
X61851225Y-46818068D01*
X61688710Y-47061289D01*
X61576768Y-47331542D01*
X61519700Y-47618440D01*
X61519700Y-47910960D01*
X61576768Y-48197858D01*
X61688710Y-48468111D01*
X61851225Y-48711332D01*
X62058068Y-48918175D01*
X62232460Y-49034700D01*
X62058068Y-49151225D01*
X61851225Y-49358068D01*
X61688710Y-49601289D01*
X61576768Y-49871542D01*
X61519700Y-50158440D01*
X61519700Y-50450960D01*
X61576768Y-50737858D01*
X61688710Y-51008111D01*
X61851225Y-51251332D01*
X62058068Y-51458175D01*
X62232460Y-51574700D01*
X62058068Y-51691225D01*
X61851225Y-51898068D01*
X61688710Y-52141289D01*
X61576768Y-52411542D01*
X61519700Y-52698440D01*
X61519700Y-52990960D01*
X61576768Y-53277858D01*
X61688710Y-53548111D01*
X61851225Y-53791332D01*
X61983080Y-53923187D01*
X61910520Y-53945198D01*
X61800206Y-54004163D01*
X61703515Y-54083515D01*
X61624163Y-54180206D01*
X61565198Y-54290520D01*
X61528888Y-54410218D01*
X61516628Y-54534700D01*
X61519700Y-55098950D01*
X61678450Y-55257700D01*
X62877700Y-55257700D01*
X62877700Y-55237700D01*
X63131700Y-55237700D01*
X63131700Y-55257700D01*
X64330950Y-55257700D01*
X64489700Y-55098950D01*
X64492772Y-54534700D01*
X64480512Y-54410218D01*
X64444202Y-54290520D01*
X64385237Y-54180206D01*
X64305885Y-54083515D01*
X64209194Y-54004163D01*
X64098880Y-53945198D01*
X64026320Y-53923187D01*
X64158175Y-53791332D01*
X64320690Y-53548111D01*
X64432632Y-53277858D01*
X64489700Y-52990960D01*
X64489700Y-52698440D01*
X64432632Y-52411542D01*
X64320690Y-52141289D01*
X64158175Y-51898068D01*
X63951332Y-51691225D01*
X63776940Y-51574700D01*
X63951332Y-51458175D01*
X64158175Y-51251332D01*
X64320690Y-51008111D01*
X64432632Y-50737858D01*
X64489700Y-50450960D01*
X64489700Y-50158440D01*
X64432632Y-49871542D01*
X64320690Y-49601289D01*
X64158175Y-49358068D01*
X63951332Y-49151225D01*
X63776940Y-49034700D01*
X63951332Y-48918175D01*
X64158175Y-48711332D01*
X64320690Y-48468111D01*
X64432632Y-48197858D01*
X64489700Y-47910960D01*
X64489700Y-47618440D01*
X64432632Y-47331542D01*
X64320690Y-47061289D01*
X64158175Y-46818068D01*
X63951332Y-46611225D01*
X63776940Y-46494700D01*
X63951332Y-46378175D01*
X64158175Y-46171332D01*
X64320690Y-45928111D01*
X64432632Y-45657858D01*
X64489700Y-45370960D01*
X64489700Y-45078440D01*
X64432632Y-44791542D01*
X64320690Y-44521289D01*
X64158175Y-44278068D01*
X64026320Y-44146213D01*
X64098880Y-44124202D01*
X64209194Y-44065237D01*
X64305885Y-43985885D01*
X64385237Y-43889194D01*
X64444202Y-43778880D01*
X64480512Y-43659182D01*
X64492772Y-43534700D01*
X64489700Y-42970450D01*
X64330950Y-42811700D01*
X63131700Y-42811700D01*
X63131700Y-42831700D01*
X62877700Y-42831700D01*
X62877700Y-42811700D01*
X61678450Y-42811700D01*
X61519700Y-42970450D01*
X61516628Y-43534700D01*
X46712772Y-43534700D01*
X46709700Y-42970450D01*
X46550950Y-42811700D01*
X45351700Y-42811700D01*
X45351700Y-42831700D01*
X45097700Y-42831700D01*
X45097700Y-42811700D01*
X43898450Y-42811700D01*
X43739700Y-42970450D01*
X43736628Y-43534700D01*
X25633051Y-43534700D01*
X25633051Y-43472889D01*
X25590309Y-43258010D01*
X25722196Y-43291429D01*
X26012917Y-43306507D01*
X26300994Y-43264578D01*
X26575355Y-43167254D01*
X26711020Y-43094735D01*
X26787790Y-42846391D01*
X25944102Y-42002703D01*
X25929960Y-42016846D01*
X25750355Y-41837241D01*
X25764497Y-41823098D01*
X25750355Y-41808956D01*
X25929960Y-41629351D01*
X25944102Y-41643493D01*
X25958245Y-41629351D01*
X26137850Y-41808956D01*
X26123707Y-41823098D01*
X26967395Y-42666786D01*
X27215739Y-42590016D01*
X27288258Y-42454351D01*
X27385582Y-42179990D01*
X27427511Y-41891913D01*
X27412433Y-41601192D01*
X27379013Y-41469303D01*
X27593894Y-41512046D01*
X27886414Y-41512046D01*
X28173312Y-41454978D01*
X28443565Y-41343036D01*
X28686786Y-41180521D01*
X28893629Y-40973678D01*
X29056144Y-40730457D01*
X29168086Y-40460204D01*
X29225154Y-40173306D01*
X29225154Y-39880786D01*
X29184236Y-39675077D01*
X29389945Y-39715995D01*
X29682465Y-39715995D01*
X29969363Y-39658927D01*
X30239616Y-39546985D01*
X30482837Y-39384470D01*
X30689680Y-39177627D01*
X30852195Y-38934406D01*
X30964137Y-38664153D01*
X31021205Y-38377255D01*
X31021205Y-38084735D01*
X30980287Y-37879026D01*
X31185996Y-37919944D01*
X31478516Y-37919944D01*
X31765414Y-37862876D01*
X32035667Y-37750934D01*
X32278888Y-37588419D01*
X32485731Y-37381576D01*
X32648246Y-37138355D01*
X32760188Y-36868102D01*
X32817256Y-36581204D01*
X32817256Y-36288684D01*
X32776338Y-36082975D01*
X32982047Y-36123893D01*
X33274567Y-36123893D01*
X33561465Y-36066825D01*
X33831718Y-35954883D01*
X34074939Y-35792368D01*
X34281782Y-35585525D01*
X34444297Y-35342304D01*
X34556239Y-35072051D01*
X34613307Y-34785153D01*
X34613307Y-34492633D01*
X34570564Y-34277752D01*
X34702453Y-34311172D01*
X34993174Y-34326250D01*
X35281251Y-34284321D01*
X35555612Y-34186997D01*
X35691277Y-34114478D01*
X35768047Y-33866134D01*
X34924359Y-33022446D01*
X34910217Y-33036589D01*
X34730612Y-32856984D01*
X34744754Y-32842841D01*
X34730612Y-32828699D01*
X34910217Y-32649094D01*
X34924359Y-32663236D01*
X34938502Y-32649094D01*
X35118107Y-32828699D01*
X35103964Y-32842841D01*
X35947652Y-33686529D01*
X36195996Y-33609759D01*
X36268515Y-33474094D01*
X36365839Y-33199733D01*
X36407768Y-32911656D01*
X36392690Y-32620935D01*
X36359271Y-32489048D01*
X36574150Y-32531790D01*
X36866670Y-32531790D01*
X37153568Y-32474722D01*
X37423821Y-32362780D01*
X37667042Y-32200265D01*
X37873885Y-31993422D01*
X38036400Y-31750201D01*
X38148342Y-31479948D01*
X38205410Y-31193050D01*
X38205410Y-31006579D01*
X38272281Y-31042323D01*
X38391979Y-31078633D01*
X38516461Y-31090893D01*
X38640943Y-31078633D01*
X38760641Y-31042323D01*
X38870955Y-30983358D01*
X38967646Y-30904006D01*
X39036952Y-30834700D01*
X43736628Y-30834700D01*
X43748888Y-30959182D01*
X43785198Y-31078880D01*
X43844163Y-31189194D01*
X43923515Y-31285885D01*
X44020206Y-31365237D01*
X44130520Y-31424202D01*
X44203080Y-31446213D01*
X44071225Y-31578068D01*
X43908710Y-31821289D01*
X43796768Y-32091542D01*
X43739700Y-32378440D01*
X43739700Y-32670960D01*
X43796768Y-32957858D01*
X43908710Y-33228111D01*
X44071225Y-33471332D01*
X44278068Y-33678175D01*
X44452460Y-33794700D01*
X44278068Y-33911225D01*
X44071225Y-34118068D01*
X43908710Y-34361289D01*
X43796768Y-34631542D01*
X43739700Y-34918440D01*
X43739700Y-35210960D01*
X43796768Y-35497858D01*
X43908710Y-35768111D01*
X44071225Y-36011332D01*
X44278068Y-36218175D01*
X44452460Y-36334700D01*
X44278068Y-36451225D01*
X44071225Y-36658068D01*
X43908710Y-36901289D01*
X43796768Y-37171542D01*
X43739700Y-37458440D01*
X43739700Y-37750960D01*
X43796768Y-38037858D01*
X43908710Y-38308111D01*
X44071225Y-38551332D01*
X44278068Y-38758175D01*
X44452460Y-38874700D01*
X44278068Y-38991225D01*
X44071225Y-39198068D01*
X43908710Y-39441289D01*
X43796768Y-39711542D01*
X43739700Y-39998440D01*
X43739700Y-40290960D01*
X43796768Y-40577858D01*
X43908710Y-40848111D01*
X44071225Y-41091332D01*
X44203080Y-41223187D01*
X44130520Y-41245198D01*
X44020206Y-41304163D01*
X43923515Y-41383515D01*
X43844163Y-41480206D01*
X43785198Y-41590520D01*
X43748888Y-41710218D01*
X43736628Y-41834700D01*
X43739700Y-42398950D01*
X43898450Y-42557700D01*
X45097700Y-42557700D01*
X45097700Y-42537700D01*
X45351700Y-42537700D01*
X45351700Y-42557700D01*
X46550950Y-42557700D01*
X46709700Y-42398950D01*
X46712772Y-41834700D01*
X46700512Y-41710218D01*
X46664202Y-41590520D01*
X46605237Y-41480206D01*
X46525885Y-41383515D01*
X46429194Y-41304163D01*
X46318880Y-41245198D01*
X46246320Y-41223187D01*
X46378175Y-41091332D01*
X46540690Y-40848111D01*
X46652632Y-40577858D01*
X46709700Y-40290960D01*
X46709700Y-39998440D01*
X46652632Y-39711542D01*
X46540690Y-39441289D01*
X46378175Y-39198068D01*
X46171332Y-38991225D01*
X45996940Y-38874700D01*
X46171332Y-38758175D01*
X46378175Y-38551332D01*
X46540690Y-38308111D01*
X46652632Y-38037858D01*
X46709700Y-37750960D01*
X46709700Y-37458440D01*
X46652632Y-37171542D01*
X46540690Y-36901289D01*
X46378175Y-36658068D01*
X46171332Y-36451225D01*
X45996940Y-36334700D01*
X46171332Y-36218175D01*
X46378175Y-36011332D01*
X46540690Y-35768111D01*
X46652632Y-35497858D01*
X46709700Y-35210960D01*
X46709700Y-34918440D01*
X46652632Y-34631542D01*
X46540690Y-34361289D01*
X46378175Y-34118068D01*
X46171332Y-33911225D01*
X45996940Y-33794700D01*
X46171332Y-33678175D01*
X46378175Y-33471332D01*
X46540690Y-33228111D01*
X46652632Y-32957858D01*
X46709700Y-32670960D01*
X46709700Y-32378440D01*
X46652632Y-32091542D01*
X46540690Y-31821289D01*
X46378175Y-31578068D01*
X46246320Y-31446213D01*
X46318880Y-31424202D01*
X46429194Y-31365237D01*
X46525885Y-31285885D01*
X46605237Y-31189194D01*
X46664202Y-31078880D01*
X46700512Y-30959182D01*
X46712772Y-30834700D01*
X61516628Y-30834700D01*
X61528888Y-30959182D01*
X61565198Y-31078880D01*
X61624163Y-31189194D01*
X61703515Y-31285885D01*
X61800206Y-31365237D01*
X61910520Y-31424202D01*
X61983080Y-31446213D01*
X61851225Y-31578068D01*
X61688710Y-31821289D01*
X61576768Y-32091542D01*
X61519700Y-32378440D01*
X61519700Y-32670960D01*
X61576768Y-32957858D01*
X61688710Y-33228111D01*
X61851225Y-33471332D01*
X62058068Y-33678175D01*
X62232460Y-33794700D01*
X62058068Y-33911225D01*
X61851225Y-34118068D01*
X61688710Y-34361289D01*
X61576768Y-34631542D01*
X61519700Y-34918440D01*
X61519700Y-35210960D01*
X61576768Y-35497858D01*
X61688710Y-35768111D01*
X61851225Y-36011332D01*
X62058068Y-36218175D01*
X62232460Y-36334700D01*
X62058068Y-36451225D01*
X61851225Y-36658068D01*
X61688710Y-36901289D01*
X61576768Y-37171542D01*
X61519700Y-37458440D01*
X61519700Y-37750960D01*
X61576768Y-38037858D01*
X61688710Y-38308111D01*
X61851225Y-38551332D01*
X62058068Y-38758175D01*
X62232460Y-38874700D01*
X62058068Y-38991225D01*
X61851225Y-39198068D01*
X61688710Y-39441289D01*
X61576768Y-39711542D01*
X61519700Y-39998440D01*
X61519700Y-40290960D01*
X61576768Y-40577858D01*
X61688710Y-40848111D01*
X61851225Y-41091332D01*
X61983080Y-41223187D01*
X61910520Y-41245198D01*
X61800206Y-41304163D01*
X61703515Y-41383515D01*
X61624163Y-41480206D01*
X61565198Y-41590520D01*
X61528888Y-41710218D01*
X61516628Y-41834700D01*
X61519700Y-42398950D01*
X61678450Y-42557700D01*
X62877700Y-42557700D01*
X62877700Y-42537700D01*
X63131700Y-42537700D01*
X63131700Y-42557700D01*
X64330950Y-42557700D01*
X64489700Y-42398950D01*
X64492772Y-41834700D01*
X64480512Y-41710218D01*
X64444202Y-41590520D01*
X64385237Y-41480206D01*
X64305885Y-41383515D01*
X64209194Y-41304163D01*
X64098880Y-41245198D01*
X64026320Y-41223187D01*
X64158175Y-41091332D01*
X64320690Y-40848111D01*
X64432632Y-40577858D01*
X64489700Y-40290960D01*
X64489700Y-39998440D01*
X64432632Y-39711542D01*
X64320690Y-39441289D01*
X64158175Y-39198068D01*
X63951332Y-38991225D01*
X63776940Y-38874700D01*
X63951332Y-38758175D01*
X64158175Y-38551332D01*
X64320690Y-38308111D01*
X64432632Y-38037858D01*
X64489700Y-37750960D01*
X64489700Y-37458440D01*
X64432632Y-37171542D01*
X64320690Y-36901289D01*
X64158175Y-36658068D01*
X63951332Y-36451225D01*
X63776940Y-36334700D01*
X63951332Y-36218175D01*
X64158175Y-36011332D01*
X64320690Y-35768111D01*
X64432632Y-35497858D01*
X64489700Y-35210960D01*
X64489700Y-34918440D01*
X64432632Y-34631542D01*
X64320690Y-34361289D01*
X64158175Y-34118068D01*
X63951332Y-33911225D01*
X63776940Y-33794700D01*
X63951332Y-33678175D01*
X64158175Y-33471332D01*
X64320690Y-33228111D01*
X64432632Y-32957858D01*
X64489700Y-32670960D01*
X64489700Y-32378440D01*
X64432632Y-32091542D01*
X64320690Y-31821289D01*
X64158175Y-31578068D01*
X64026320Y-31446213D01*
X64098880Y-31424202D01*
X64209194Y-31365237D01*
X64305885Y-31285885D01*
X64385237Y-31189194D01*
X64444202Y-31078880D01*
X64480512Y-30959182D01*
X64492772Y-30834700D01*
X64489700Y-30270450D01*
X64330950Y-30111700D01*
X63131700Y-30111700D01*
X63131700Y-30131700D01*
X62877700Y-30131700D01*
X62877700Y-30111700D01*
X61678450Y-30111700D01*
X61519700Y-30270450D01*
X61516628Y-30834700D01*
X46712772Y-30834700D01*
X46709700Y-30270450D01*
X46550950Y-30111700D01*
X45351700Y-30111700D01*
X45351700Y-30131700D01*
X45097700Y-30131700D01*
X45097700Y-30111700D01*
X43898450Y-30111700D01*
X43739700Y-30270450D01*
X43736628Y-30834700D01*
X39036952Y-30834700D01*
X40169728Y-29701924D01*
X40249080Y-29605233D01*
X40308045Y-29494919D01*
X40344355Y-29375221D01*
X40356615Y-29250739D01*
X40345187Y-29134700D01*
X43736628Y-29134700D01*
X43739700Y-29698950D01*
X43898450Y-29857700D01*
X45097700Y-29857700D01*
X45097700Y-29837700D01*
X45351700Y-29837700D01*
X45351700Y-29857700D01*
X46550950Y-29857700D01*
X46709700Y-29698950D01*
X46712772Y-29134700D01*
X61516628Y-29134700D01*
X61519700Y-29698950D01*
X61678450Y-29857700D01*
X62877700Y-29857700D01*
X62877700Y-29837700D01*
X63131700Y-29837700D01*
X63131700Y-29857700D01*
X64330950Y-29857700D01*
X64489700Y-29698950D01*
X64492772Y-29134700D01*
X64480512Y-29010218D01*
X64444202Y-28890520D01*
X64385237Y-28780206D01*
X64305885Y-28683515D01*
X64209194Y-28604163D01*
X64098880Y-28545198D01*
X64026320Y-28523187D01*
X64158175Y-28391332D01*
X64320690Y-28148111D01*
X64432632Y-27877858D01*
X64489700Y-27590960D01*
X64489700Y-27298440D01*
X64432632Y-27011542D01*
X64320690Y-26741289D01*
X64158175Y-26498068D01*
X63951332Y-26291225D01*
X63776940Y-26174700D01*
X63951332Y-26058175D01*
X64158175Y-25851332D01*
X64320690Y-25608111D01*
X64432632Y-25337858D01*
X64489700Y-25050960D01*
X64489700Y-24758440D01*
X64432632Y-24471542D01*
X64320690Y-24201289D01*
X64158175Y-23958068D01*
X63951332Y-23751225D01*
X63708111Y-23588710D01*
X63437858Y-23476768D01*
X63150960Y-23419700D01*
X62858440Y-23419700D01*
X62571542Y-23476768D01*
X62301289Y-23588710D01*
X62058068Y-23751225D01*
X61851225Y-23958068D01*
X61688710Y-24201289D01*
X61576768Y-24471542D01*
X61519700Y-24758440D01*
X61519700Y-25050960D01*
X61576768Y-25337858D01*
X61688710Y-25608111D01*
X61851225Y-25851332D01*
X62058068Y-26058175D01*
X62232460Y-26174700D01*
X62058068Y-26291225D01*
X61851225Y-26498068D01*
X61688710Y-26741289D01*
X61576768Y-27011542D01*
X61519700Y-27298440D01*
X61519700Y-27590960D01*
X61576768Y-27877858D01*
X61688710Y-28148111D01*
X61851225Y-28391332D01*
X61983080Y-28523187D01*
X61910520Y-28545198D01*
X61800206Y-28604163D01*
X61703515Y-28683515D01*
X61624163Y-28780206D01*
X61565198Y-28890520D01*
X61528888Y-29010218D01*
X61516628Y-29134700D01*
X46712772Y-29134700D01*
X46700512Y-29010218D01*
X46664202Y-28890520D01*
X46605237Y-28780206D01*
X46525885Y-28683515D01*
X46429194Y-28604163D01*
X46318880Y-28545198D01*
X46246320Y-28523187D01*
X46378175Y-28391332D01*
X46540690Y-28148111D01*
X46652632Y-27877858D01*
X46709700Y-27590960D01*
X46709700Y-27298440D01*
X46652632Y-27011542D01*
X46540690Y-26741289D01*
X46378175Y-26498068D01*
X46171332Y-26291225D01*
X45996940Y-26174700D01*
X46171332Y-26058175D01*
X46378175Y-25851332D01*
X46540690Y-25608111D01*
X46652632Y-25337858D01*
X46709700Y-25050960D01*
X46709700Y-24988440D01*
X50089700Y-24988440D01*
X50089700Y-25280960D01*
X50146768Y-25567858D01*
X50258710Y-25838111D01*
X50421225Y-26081332D01*
X50628068Y-26288175D01*
X50871289Y-26450690D01*
X51141542Y-26562632D01*
X51428440Y-26619700D01*
X51720960Y-26619700D01*
X52007858Y-26562632D01*
X52278111Y-26450690D01*
X52521332Y-26288175D01*
X52653187Y-26156320D01*
X52675198Y-26228880D01*
X52734163Y-26339194D01*
X52813515Y-26435885D01*
X52910206Y-26515237D01*
X53020520Y-26574202D01*
X53140218Y-26610512D01*
X53264700Y-26622772D01*
X54964700Y-26622772D01*
X55089182Y-26610512D01*
X55208880Y-26574202D01*
X55319194Y-26515237D01*
X55415885Y-26435885D01*
X55495237Y-26339194D01*
X55554202Y-26228880D01*
X55576213Y-26156320D01*
X55708068Y-26288175D01*
X55951289Y-26450690D01*
X56221542Y-26562632D01*
X56508440Y-26619700D01*
X56800960Y-26619700D01*
X57087858Y-26562632D01*
X57358111Y-26450690D01*
X57601332Y-26288175D01*
X57808175Y-26081332D01*
X57970690Y-25838111D01*
X58082632Y-25567858D01*
X58139700Y-25280960D01*
X58139700Y-24988440D01*
X58082632Y-24701542D01*
X57970690Y-24431289D01*
X57808175Y-24188068D01*
X57601332Y-23981225D01*
X57358111Y-23818710D01*
X57087858Y-23706768D01*
X56800960Y-23649700D01*
X56508440Y-23649700D01*
X56221542Y-23706768D01*
X55951289Y-23818710D01*
X55708068Y-23981225D01*
X55576213Y-24113080D01*
X55554202Y-24040520D01*
X55495237Y-23930206D01*
X55415885Y-23833515D01*
X55319194Y-23754163D01*
X55208880Y-23695198D01*
X55089182Y-23658888D01*
X54964700Y-23646628D01*
X53264700Y-23646628D01*
X53140218Y-23658888D01*
X53020520Y-23695198D01*
X52910206Y-23754163D01*
X52813515Y-23833515D01*
X52734163Y-23930206D01*
X52675198Y-24040520D01*
X52653187Y-24113080D01*
X52521332Y-23981225D01*
X52278111Y-23818710D01*
X52007858Y-23706768D01*
X51720960Y-23649700D01*
X51428440Y-23649700D01*
X51141542Y-23706768D01*
X50871289Y-23818710D01*
X50628068Y-23981225D01*
X50421225Y-24188068D01*
X50258710Y-24431289D01*
X50146768Y-24701542D01*
X50089700Y-24988440D01*
X46709700Y-24988440D01*
X46709700Y-24758440D01*
X46652632Y-24471542D01*
X46540690Y-24201289D01*
X46378175Y-23958068D01*
X46171332Y-23751225D01*
X45928111Y-23588710D01*
X45657858Y-23476768D01*
X45370960Y-23419700D01*
X45078440Y-23419700D01*
X44791542Y-23476768D01*
X44521289Y-23588710D01*
X44278068Y-23751225D01*
X44071225Y-23958068D01*
X43908710Y-24201289D01*
X43796768Y-24471542D01*
X43739700Y-24758440D01*
X43739700Y-25050960D01*
X43796768Y-25337858D01*
X43908710Y-25608111D01*
X44071225Y-25851332D01*
X44278068Y-26058175D01*
X44452460Y-26174700D01*
X44278068Y-26291225D01*
X44071225Y-26498068D01*
X43908710Y-26741289D01*
X43796768Y-27011542D01*
X43739700Y-27298440D01*
X43739700Y-27590960D01*
X43796768Y-27877858D01*
X43908710Y-28148111D01*
X44071225Y-28391332D01*
X44203080Y-28523187D01*
X44130520Y-28545198D01*
X44020206Y-28604163D01*
X43923515Y-28683515D01*
X43844163Y-28780206D01*
X43785198Y-28890520D01*
X43748888Y-29010218D01*
X43736628Y-29134700D01*
X40345187Y-29134700D01*
X40344355Y-29126257D01*
X40308045Y-29006559D01*
X40249080Y-28896245D01*
X40169728Y-28799554D01*
X39072208Y-27702034D01*
X43522185Y-23239832D01*
X43549838Y-23217138D01*
X43573173Y-23188704D01*
X43573530Y-23188346D01*
X43596126Y-23160735D01*
X43641686Y-23105220D01*
X43641925Y-23104772D01*
X43642248Y-23104378D01*
X43676161Y-23040722D01*
X43709936Y-22977533D01*
X43710083Y-22977049D01*
X43710323Y-22976598D01*
X43731055Y-22907915D01*
X43751965Y-22838985D01*
X43752015Y-22838475D01*
X43752161Y-22837992D01*
X43759071Y-22766836D01*
X43766156Y-22694900D01*
X43766106Y-22694392D01*
X43766155Y-22693888D01*
X43759051Y-22622766D01*
X43751965Y-22550815D01*
X43751816Y-22550324D01*
X43751766Y-22549822D01*
X43730906Y-22481394D01*
X43709936Y-22412266D01*
X43709696Y-22411816D01*
X43709548Y-22411332D01*
X43675676Y-22348171D01*
X43641686Y-22284580D01*
X43641363Y-22284186D01*
X43641123Y-22283739D01*
X43595855Y-22228735D01*
X43572853Y-22200706D01*
X43572487Y-22200340D01*
X43549120Y-22171947D01*
X43521446Y-22149299D01*
X42954719Y-21582573D01*
X45643286Y-18896000D01*
X62298739Y-18896000D01*
X64973478Y-21553576D01*
G37*
%TD.AperFunction*%
%TD*%
M02*
