%TF.GenerationSoftware,KiCad,Pcbnew,(5.1.8)-1*%
%TF.CreationDate,2021-12-10T09:13:36+01:00*%
%TF.ProjectId,FirePlaceRoof,46697265-506c-4616-9365-526f6f662e6b,rev?*%
%TF.SameCoordinates,Original*%
%TF.FileFunction,Copper,L1,Top*%
%TF.FilePolarity,Positive*%
%FSLAX46Y46*%
G04 Gerber Fmt 4.6, Leading zero omitted, Abs format (unit mm)*
G04 Created by KiCad (PCBNEW (5.1.8)-1) date 2021-12-10 09:13:36*
%MOMM*%
%LPD*%
G01*
G04 APERTURE LIST*
%TA.AperFunction,ComponentPad*%
%ADD10O,1.700000X1.700000*%
%TD*%
%TA.AperFunction,ComponentPad*%
%ADD11R,1.700000X1.700000*%
%TD*%
%TA.AperFunction,Conductor*%
%ADD12C,1.000000*%
%TD*%
%TA.AperFunction,NonConductor*%
%ADD13C,0.254000*%
%TD*%
%TA.AperFunction,NonConductor*%
%ADD14C,0.100000*%
%TD*%
G04 APERTURE END LIST*
D10*
%TO.P,K2,10*%
%TO.N,Net-(K1-Pad1)*%
X69718910Y-57110829D03*
%TO.P,K2,9*%
%TO.N,Net-(K1-Pad2)*%
X69718910Y-54570829D03*
%TO.P,K2,8*%
%TO.N,Net-(K1-Pad3)*%
X69718910Y-52030829D03*
%TO.P,K2,7*%
%TO.N,Net-(K1-Pad4)*%
X69718910Y-49490829D03*
%TO.P,K2,6*%
%TO.N,Net-(K1-Pad5)*%
X69718910Y-46950829D03*
%TO.P,K2,5*%
%TO.N,Net-(K1-Pad6)*%
X69718910Y-44410829D03*
%TO.P,K2,4*%
%TO.N,Net-(K1-Pad7)*%
X69718910Y-41870829D03*
%TO.P,K2,3*%
%TO.N,Net-(K1-Pad8)*%
X69718910Y-39330829D03*
%TO.P,K2,2*%
%TO.N,Net-(K1-Pad9)*%
X69718910Y-36790829D03*
D11*
%TO.P,K2,1*%
%TO.N,Net-(K1-Pad10)*%
X69718910Y-34250829D03*
%TD*%
D10*
%TO.P,K1,10*%
%TO.N,Net-(K1-Pad10)*%
X72449410Y-34314329D03*
%TO.P,K1,9*%
%TO.N,Net-(K1-Pad9)*%
X72449410Y-36854329D03*
%TO.P,K1,8*%
%TO.N,Net-(K1-Pad8)*%
X72449410Y-39394329D03*
%TO.P,K1,7*%
%TO.N,Net-(K1-Pad7)*%
X72449410Y-41934329D03*
%TO.P,K1,6*%
%TO.N,Net-(K1-Pad6)*%
X72449410Y-44474329D03*
%TO.P,K1,5*%
%TO.N,Net-(K1-Pad5)*%
X72449410Y-47014329D03*
%TO.P,K1,4*%
%TO.N,Net-(K1-Pad4)*%
X72449410Y-49554329D03*
%TO.P,K1,3*%
%TO.N,Net-(K1-Pad3)*%
X72449410Y-52094329D03*
%TO.P,K1,2*%
%TO.N,Net-(K1-Pad2)*%
X72449410Y-54634329D03*
D11*
%TO.P,K1,1*%
%TO.N,Net-(K1-Pad1)*%
X72449410Y-57174329D03*
%TD*%
D12*
%TO.N,Net-(K1-Pad10)*%
X69655410Y-34314329D02*
X72449410Y-34314329D01*
%TO.N,Net-(K1-Pad9)*%
X72449410Y-36854329D02*
X69655410Y-36854329D01*
%TO.N,Net-(K1-Pad8)*%
X69655410Y-39394329D02*
X72449410Y-39394329D01*
%TO.N,Net-(K1-Pad7)*%
X72449410Y-41934329D02*
X69655410Y-41934329D01*
%TO.N,Net-(K1-Pad6)*%
X69655410Y-44474329D02*
X72449410Y-44474329D01*
%TO.N,Net-(K1-Pad5)*%
X72449410Y-47014329D02*
X69655410Y-47014329D01*
%TO.N,Net-(K1-Pad4)*%
X69655410Y-49554329D02*
X72449410Y-49554329D01*
%TO.N,Net-(K1-Pad3)*%
X72449410Y-52094329D02*
X69655410Y-52094329D01*
%TO.N,Net-(K1-Pad2)*%
X69655410Y-54634329D02*
X72449410Y-54634329D01*
%TO.N,Net-(K1-Pad1)*%
X72449410Y-57174329D02*
X69655410Y-57174329D01*
%TD*%
D13*
X84442410Y-28486224D02*
X84438854Y-28522329D01*
X84453045Y-28666414D01*
X84495073Y-28804962D01*
X84563323Y-28932649D01*
X84655172Y-29044567D01*
X84767090Y-29136416D01*
X84894777Y-29204666D01*
X85033325Y-29246694D01*
X85177410Y-29260885D01*
X85213515Y-29257329D01*
X86042411Y-29257329D01*
X86042410Y-56217329D01*
X85213515Y-56217329D01*
X85177410Y-56213773D01*
X85141305Y-56217329D01*
X85033325Y-56227964D01*
X84894777Y-56269992D01*
X84767090Y-56338242D01*
X84655172Y-56430091D01*
X84563323Y-56542009D01*
X84495073Y-56669696D01*
X84453045Y-56808244D01*
X84438854Y-56952329D01*
X84442411Y-56988444D01*
X84442410Y-63217329D01*
X57512410Y-63217329D01*
X57512410Y-56988433D01*
X57515966Y-56952329D01*
X57501775Y-56808244D01*
X57459747Y-56669696D01*
X57391497Y-56542009D01*
X57299648Y-56430091D01*
X57187730Y-56338242D01*
X57060043Y-56269992D01*
X56921495Y-56227964D01*
X56813515Y-56217329D01*
X56777410Y-56213773D01*
X56741305Y-56217329D01*
X55912410Y-56217329D01*
X55912410Y-33400829D01*
X68230838Y-33400829D01*
X68230838Y-35100829D01*
X68243098Y-35225311D01*
X68279408Y-35345009D01*
X68338373Y-35455323D01*
X68417725Y-35552014D01*
X68514416Y-35631366D01*
X68624730Y-35690331D01*
X68697290Y-35712342D01*
X68565435Y-35844197D01*
X68402920Y-36087418D01*
X68290978Y-36357671D01*
X68233910Y-36644569D01*
X68233910Y-36937089D01*
X68290978Y-37223987D01*
X68402920Y-37494240D01*
X68565435Y-37737461D01*
X68772278Y-37944304D01*
X68946670Y-38060829D01*
X68772278Y-38177354D01*
X68565435Y-38384197D01*
X68402920Y-38627418D01*
X68290978Y-38897671D01*
X68233910Y-39184569D01*
X68233910Y-39477089D01*
X68290978Y-39763987D01*
X68402920Y-40034240D01*
X68565435Y-40277461D01*
X68772278Y-40484304D01*
X68946670Y-40600829D01*
X68772278Y-40717354D01*
X68565435Y-40924197D01*
X68402920Y-41167418D01*
X68290978Y-41437671D01*
X68233910Y-41724569D01*
X68233910Y-42017089D01*
X68290978Y-42303987D01*
X68402920Y-42574240D01*
X68565435Y-42817461D01*
X68772278Y-43024304D01*
X68946670Y-43140829D01*
X68772278Y-43257354D01*
X68565435Y-43464197D01*
X68402920Y-43707418D01*
X68290978Y-43977671D01*
X68233910Y-44264569D01*
X68233910Y-44557089D01*
X68290978Y-44843987D01*
X68402920Y-45114240D01*
X68565435Y-45357461D01*
X68772278Y-45564304D01*
X68946670Y-45680829D01*
X68772278Y-45797354D01*
X68565435Y-46004197D01*
X68402920Y-46247418D01*
X68290978Y-46517671D01*
X68233910Y-46804569D01*
X68233910Y-47097089D01*
X68290978Y-47383987D01*
X68402920Y-47654240D01*
X68565435Y-47897461D01*
X68772278Y-48104304D01*
X68946670Y-48220829D01*
X68772278Y-48337354D01*
X68565435Y-48544197D01*
X68402920Y-48787418D01*
X68290978Y-49057671D01*
X68233910Y-49344569D01*
X68233910Y-49637089D01*
X68290978Y-49923987D01*
X68402920Y-50194240D01*
X68565435Y-50437461D01*
X68772278Y-50644304D01*
X68946670Y-50760829D01*
X68772278Y-50877354D01*
X68565435Y-51084197D01*
X68402920Y-51327418D01*
X68290978Y-51597671D01*
X68233910Y-51884569D01*
X68233910Y-52177089D01*
X68290978Y-52463987D01*
X68402920Y-52734240D01*
X68565435Y-52977461D01*
X68772278Y-53184304D01*
X68946670Y-53300829D01*
X68772278Y-53417354D01*
X68565435Y-53624197D01*
X68402920Y-53867418D01*
X68290978Y-54137671D01*
X68233910Y-54424569D01*
X68233910Y-54717089D01*
X68290978Y-55003987D01*
X68402920Y-55274240D01*
X68565435Y-55517461D01*
X68772278Y-55724304D01*
X68946670Y-55840829D01*
X68772278Y-55957354D01*
X68565435Y-56164197D01*
X68402920Y-56407418D01*
X68290978Y-56677671D01*
X68233910Y-56964569D01*
X68233910Y-57257089D01*
X68290978Y-57543987D01*
X68402920Y-57814240D01*
X68565435Y-58057461D01*
X68772278Y-58264304D01*
X69015499Y-58426819D01*
X69285752Y-58538761D01*
X69572650Y-58595829D01*
X69865170Y-58595829D01*
X70152068Y-58538761D01*
X70422321Y-58426819D01*
X70598157Y-58309329D01*
X71031727Y-58309329D01*
X71068873Y-58378823D01*
X71148225Y-58475514D01*
X71244916Y-58554866D01*
X71355230Y-58613831D01*
X71474928Y-58650141D01*
X71599410Y-58662401D01*
X73299410Y-58662401D01*
X73423892Y-58650141D01*
X73543590Y-58613831D01*
X73653904Y-58554866D01*
X73750595Y-58475514D01*
X73829947Y-58378823D01*
X73888912Y-58268509D01*
X73925222Y-58148811D01*
X73937482Y-58024329D01*
X73937482Y-56324329D01*
X73925222Y-56199847D01*
X73888912Y-56080149D01*
X73829947Y-55969835D01*
X73750595Y-55873144D01*
X73653904Y-55793792D01*
X73543590Y-55734827D01*
X73471030Y-55712816D01*
X73602885Y-55580961D01*
X73765400Y-55337740D01*
X73877342Y-55067487D01*
X73934410Y-54780589D01*
X73934410Y-54488069D01*
X73877342Y-54201171D01*
X73765400Y-53930918D01*
X73602885Y-53687697D01*
X73396042Y-53480854D01*
X73221650Y-53364329D01*
X73396042Y-53247804D01*
X73602885Y-53040961D01*
X73765400Y-52797740D01*
X73877342Y-52527487D01*
X73934410Y-52240589D01*
X73934410Y-51948069D01*
X73877342Y-51661171D01*
X73765400Y-51390918D01*
X73602885Y-51147697D01*
X73396042Y-50940854D01*
X73221650Y-50824329D01*
X73396042Y-50707804D01*
X73602885Y-50500961D01*
X73765400Y-50257740D01*
X73877342Y-49987487D01*
X73934410Y-49700589D01*
X73934410Y-49408069D01*
X73877342Y-49121171D01*
X73765400Y-48850918D01*
X73602885Y-48607697D01*
X73396042Y-48400854D01*
X73221650Y-48284329D01*
X73396042Y-48167804D01*
X73602885Y-47960961D01*
X73765400Y-47717740D01*
X73877342Y-47447487D01*
X73934410Y-47160589D01*
X73934410Y-46868069D01*
X73877342Y-46581171D01*
X73765400Y-46310918D01*
X73602885Y-46067697D01*
X73396042Y-45860854D01*
X73221650Y-45744329D01*
X73396042Y-45627804D01*
X73602885Y-45420961D01*
X73765400Y-45177740D01*
X73877342Y-44907487D01*
X73934410Y-44620589D01*
X73934410Y-44328069D01*
X73877342Y-44041171D01*
X73765400Y-43770918D01*
X73602885Y-43527697D01*
X73396042Y-43320854D01*
X73221650Y-43204329D01*
X73396042Y-43087804D01*
X73602885Y-42880961D01*
X73765400Y-42637740D01*
X73877342Y-42367487D01*
X73934410Y-42080589D01*
X73934410Y-41788069D01*
X73877342Y-41501171D01*
X73765400Y-41230918D01*
X73602885Y-40987697D01*
X73396042Y-40780854D01*
X73221650Y-40664329D01*
X73396042Y-40547804D01*
X73602885Y-40340961D01*
X73765400Y-40097740D01*
X73877342Y-39827487D01*
X73934410Y-39540589D01*
X73934410Y-39248069D01*
X73877342Y-38961171D01*
X73765400Y-38690918D01*
X73602885Y-38447697D01*
X73396042Y-38240854D01*
X73221650Y-38124329D01*
X73396042Y-38007804D01*
X73602885Y-37800961D01*
X73765400Y-37557740D01*
X73877342Y-37287487D01*
X73934410Y-37000589D01*
X73934410Y-36708069D01*
X73877342Y-36421171D01*
X73765400Y-36150918D01*
X73602885Y-35907697D01*
X73396042Y-35700854D01*
X73221650Y-35584329D01*
X73396042Y-35467804D01*
X73602885Y-35260961D01*
X73765400Y-35017740D01*
X73877342Y-34747487D01*
X73934410Y-34460589D01*
X73934410Y-34168069D01*
X73877342Y-33881171D01*
X73765400Y-33610918D01*
X73602885Y-33367697D01*
X73396042Y-33160854D01*
X73152821Y-32998339D01*
X72882568Y-32886397D01*
X72595670Y-32829329D01*
X72303150Y-32829329D01*
X72016252Y-32886397D01*
X71745999Y-32998339D01*
X71502778Y-33160854D01*
X71484303Y-33179329D01*
X71165292Y-33179329D01*
X71158412Y-33156649D01*
X71099447Y-33046335D01*
X71020095Y-32949644D01*
X70923404Y-32870292D01*
X70813090Y-32811327D01*
X70693392Y-32775017D01*
X70568910Y-32762757D01*
X68868910Y-32762757D01*
X68744428Y-32775017D01*
X68624730Y-32811327D01*
X68514416Y-32870292D01*
X68417725Y-32949644D01*
X68338373Y-33046335D01*
X68279408Y-33156649D01*
X68243098Y-33276347D01*
X68230838Y-33400829D01*
X55912410Y-33400829D01*
X55912410Y-29257329D01*
X56741305Y-29257329D01*
X56777410Y-29260885D01*
X56813515Y-29257329D01*
X56921495Y-29246694D01*
X57060043Y-29204666D01*
X57187730Y-29136416D01*
X57299648Y-29044567D01*
X57391497Y-28932649D01*
X57459747Y-28804962D01*
X57501775Y-28666414D01*
X57515966Y-28522329D01*
X57512410Y-28486224D01*
X57512410Y-22257329D01*
X84442411Y-22257329D01*
X84442410Y-28486224D01*
%TA.AperFunction,NonConductor*%
D14*
G36*
X84442410Y-28486224D02*
G01*
X84438854Y-28522329D01*
X84453045Y-28666414D01*
X84495073Y-28804962D01*
X84563323Y-28932649D01*
X84655172Y-29044567D01*
X84767090Y-29136416D01*
X84894777Y-29204666D01*
X85033325Y-29246694D01*
X85177410Y-29260885D01*
X85213515Y-29257329D01*
X86042411Y-29257329D01*
X86042410Y-56217329D01*
X85213515Y-56217329D01*
X85177410Y-56213773D01*
X85141305Y-56217329D01*
X85033325Y-56227964D01*
X84894777Y-56269992D01*
X84767090Y-56338242D01*
X84655172Y-56430091D01*
X84563323Y-56542009D01*
X84495073Y-56669696D01*
X84453045Y-56808244D01*
X84438854Y-56952329D01*
X84442411Y-56988444D01*
X84442410Y-63217329D01*
X57512410Y-63217329D01*
X57512410Y-56988433D01*
X57515966Y-56952329D01*
X57501775Y-56808244D01*
X57459747Y-56669696D01*
X57391497Y-56542009D01*
X57299648Y-56430091D01*
X57187730Y-56338242D01*
X57060043Y-56269992D01*
X56921495Y-56227964D01*
X56813515Y-56217329D01*
X56777410Y-56213773D01*
X56741305Y-56217329D01*
X55912410Y-56217329D01*
X55912410Y-33400829D01*
X68230838Y-33400829D01*
X68230838Y-35100829D01*
X68243098Y-35225311D01*
X68279408Y-35345009D01*
X68338373Y-35455323D01*
X68417725Y-35552014D01*
X68514416Y-35631366D01*
X68624730Y-35690331D01*
X68697290Y-35712342D01*
X68565435Y-35844197D01*
X68402920Y-36087418D01*
X68290978Y-36357671D01*
X68233910Y-36644569D01*
X68233910Y-36937089D01*
X68290978Y-37223987D01*
X68402920Y-37494240D01*
X68565435Y-37737461D01*
X68772278Y-37944304D01*
X68946670Y-38060829D01*
X68772278Y-38177354D01*
X68565435Y-38384197D01*
X68402920Y-38627418D01*
X68290978Y-38897671D01*
X68233910Y-39184569D01*
X68233910Y-39477089D01*
X68290978Y-39763987D01*
X68402920Y-40034240D01*
X68565435Y-40277461D01*
X68772278Y-40484304D01*
X68946670Y-40600829D01*
X68772278Y-40717354D01*
X68565435Y-40924197D01*
X68402920Y-41167418D01*
X68290978Y-41437671D01*
X68233910Y-41724569D01*
X68233910Y-42017089D01*
X68290978Y-42303987D01*
X68402920Y-42574240D01*
X68565435Y-42817461D01*
X68772278Y-43024304D01*
X68946670Y-43140829D01*
X68772278Y-43257354D01*
X68565435Y-43464197D01*
X68402920Y-43707418D01*
X68290978Y-43977671D01*
X68233910Y-44264569D01*
X68233910Y-44557089D01*
X68290978Y-44843987D01*
X68402920Y-45114240D01*
X68565435Y-45357461D01*
X68772278Y-45564304D01*
X68946670Y-45680829D01*
X68772278Y-45797354D01*
X68565435Y-46004197D01*
X68402920Y-46247418D01*
X68290978Y-46517671D01*
X68233910Y-46804569D01*
X68233910Y-47097089D01*
X68290978Y-47383987D01*
X68402920Y-47654240D01*
X68565435Y-47897461D01*
X68772278Y-48104304D01*
X68946670Y-48220829D01*
X68772278Y-48337354D01*
X68565435Y-48544197D01*
X68402920Y-48787418D01*
X68290978Y-49057671D01*
X68233910Y-49344569D01*
X68233910Y-49637089D01*
X68290978Y-49923987D01*
X68402920Y-50194240D01*
X68565435Y-50437461D01*
X68772278Y-50644304D01*
X68946670Y-50760829D01*
X68772278Y-50877354D01*
X68565435Y-51084197D01*
X68402920Y-51327418D01*
X68290978Y-51597671D01*
X68233910Y-51884569D01*
X68233910Y-52177089D01*
X68290978Y-52463987D01*
X68402920Y-52734240D01*
X68565435Y-52977461D01*
X68772278Y-53184304D01*
X68946670Y-53300829D01*
X68772278Y-53417354D01*
X68565435Y-53624197D01*
X68402920Y-53867418D01*
X68290978Y-54137671D01*
X68233910Y-54424569D01*
X68233910Y-54717089D01*
X68290978Y-55003987D01*
X68402920Y-55274240D01*
X68565435Y-55517461D01*
X68772278Y-55724304D01*
X68946670Y-55840829D01*
X68772278Y-55957354D01*
X68565435Y-56164197D01*
X68402920Y-56407418D01*
X68290978Y-56677671D01*
X68233910Y-56964569D01*
X68233910Y-57257089D01*
X68290978Y-57543987D01*
X68402920Y-57814240D01*
X68565435Y-58057461D01*
X68772278Y-58264304D01*
X69015499Y-58426819D01*
X69285752Y-58538761D01*
X69572650Y-58595829D01*
X69865170Y-58595829D01*
X70152068Y-58538761D01*
X70422321Y-58426819D01*
X70598157Y-58309329D01*
X71031727Y-58309329D01*
X71068873Y-58378823D01*
X71148225Y-58475514D01*
X71244916Y-58554866D01*
X71355230Y-58613831D01*
X71474928Y-58650141D01*
X71599410Y-58662401D01*
X73299410Y-58662401D01*
X73423892Y-58650141D01*
X73543590Y-58613831D01*
X73653904Y-58554866D01*
X73750595Y-58475514D01*
X73829947Y-58378823D01*
X73888912Y-58268509D01*
X73925222Y-58148811D01*
X73937482Y-58024329D01*
X73937482Y-56324329D01*
X73925222Y-56199847D01*
X73888912Y-56080149D01*
X73829947Y-55969835D01*
X73750595Y-55873144D01*
X73653904Y-55793792D01*
X73543590Y-55734827D01*
X73471030Y-55712816D01*
X73602885Y-55580961D01*
X73765400Y-55337740D01*
X73877342Y-55067487D01*
X73934410Y-54780589D01*
X73934410Y-54488069D01*
X73877342Y-54201171D01*
X73765400Y-53930918D01*
X73602885Y-53687697D01*
X73396042Y-53480854D01*
X73221650Y-53364329D01*
X73396042Y-53247804D01*
X73602885Y-53040961D01*
X73765400Y-52797740D01*
X73877342Y-52527487D01*
X73934410Y-52240589D01*
X73934410Y-51948069D01*
X73877342Y-51661171D01*
X73765400Y-51390918D01*
X73602885Y-51147697D01*
X73396042Y-50940854D01*
X73221650Y-50824329D01*
X73396042Y-50707804D01*
X73602885Y-50500961D01*
X73765400Y-50257740D01*
X73877342Y-49987487D01*
X73934410Y-49700589D01*
X73934410Y-49408069D01*
X73877342Y-49121171D01*
X73765400Y-48850918D01*
X73602885Y-48607697D01*
X73396042Y-48400854D01*
X73221650Y-48284329D01*
X73396042Y-48167804D01*
X73602885Y-47960961D01*
X73765400Y-47717740D01*
X73877342Y-47447487D01*
X73934410Y-47160589D01*
X73934410Y-46868069D01*
X73877342Y-46581171D01*
X73765400Y-46310918D01*
X73602885Y-46067697D01*
X73396042Y-45860854D01*
X73221650Y-45744329D01*
X73396042Y-45627804D01*
X73602885Y-45420961D01*
X73765400Y-45177740D01*
X73877342Y-44907487D01*
X73934410Y-44620589D01*
X73934410Y-44328069D01*
X73877342Y-44041171D01*
X73765400Y-43770918D01*
X73602885Y-43527697D01*
X73396042Y-43320854D01*
X73221650Y-43204329D01*
X73396042Y-43087804D01*
X73602885Y-42880961D01*
X73765400Y-42637740D01*
X73877342Y-42367487D01*
X73934410Y-42080589D01*
X73934410Y-41788069D01*
X73877342Y-41501171D01*
X73765400Y-41230918D01*
X73602885Y-40987697D01*
X73396042Y-40780854D01*
X73221650Y-40664329D01*
X73396042Y-40547804D01*
X73602885Y-40340961D01*
X73765400Y-40097740D01*
X73877342Y-39827487D01*
X73934410Y-39540589D01*
X73934410Y-39248069D01*
X73877342Y-38961171D01*
X73765400Y-38690918D01*
X73602885Y-38447697D01*
X73396042Y-38240854D01*
X73221650Y-38124329D01*
X73396042Y-38007804D01*
X73602885Y-37800961D01*
X73765400Y-37557740D01*
X73877342Y-37287487D01*
X73934410Y-37000589D01*
X73934410Y-36708069D01*
X73877342Y-36421171D01*
X73765400Y-36150918D01*
X73602885Y-35907697D01*
X73396042Y-35700854D01*
X73221650Y-35584329D01*
X73396042Y-35467804D01*
X73602885Y-35260961D01*
X73765400Y-35017740D01*
X73877342Y-34747487D01*
X73934410Y-34460589D01*
X73934410Y-34168069D01*
X73877342Y-33881171D01*
X73765400Y-33610918D01*
X73602885Y-33367697D01*
X73396042Y-33160854D01*
X73152821Y-32998339D01*
X72882568Y-32886397D01*
X72595670Y-32829329D01*
X72303150Y-32829329D01*
X72016252Y-32886397D01*
X71745999Y-32998339D01*
X71502778Y-33160854D01*
X71484303Y-33179329D01*
X71165292Y-33179329D01*
X71158412Y-33156649D01*
X71099447Y-33046335D01*
X71020095Y-32949644D01*
X70923404Y-32870292D01*
X70813090Y-32811327D01*
X70693392Y-32775017D01*
X70568910Y-32762757D01*
X68868910Y-32762757D01*
X68744428Y-32775017D01*
X68624730Y-32811327D01*
X68514416Y-32870292D01*
X68417725Y-32949644D01*
X68338373Y-33046335D01*
X68279408Y-33156649D01*
X68243098Y-33276347D01*
X68230838Y-33400829D01*
X55912410Y-33400829D01*
X55912410Y-29257329D01*
X56741305Y-29257329D01*
X56777410Y-29260885D01*
X56813515Y-29257329D01*
X56921495Y-29246694D01*
X57060043Y-29204666D01*
X57187730Y-29136416D01*
X57299648Y-29044567D01*
X57391497Y-28932649D01*
X57459747Y-28804962D01*
X57501775Y-28666414D01*
X57515966Y-28522329D01*
X57512410Y-28486224D01*
X57512410Y-22257329D01*
X84442411Y-22257329D01*
X84442410Y-28486224D01*
G37*
%TD.AperFunction*%
D13*
X71244916Y-55793792D02*
X71148225Y-55873144D01*
X71068873Y-55969835D01*
X71031727Y-56039329D01*
X70747517Y-56039329D01*
X70665542Y-55957354D01*
X70491150Y-55840829D01*
X70598157Y-55769329D01*
X71290682Y-55769329D01*
X71244916Y-55793792D01*
%TA.AperFunction,NonConductor*%
D14*
G36*
X71244916Y-55793792D02*
G01*
X71148225Y-55873144D01*
X71068873Y-55969835D01*
X71031727Y-56039329D01*
X70747517Y-56039329D01*
X70665542Y-55957354D01*
X70491150Y-55840829D01*
X70598157Y-55769329D01*
X71290682Y-55769329D01*
X71244916Y-55793792D01*
G37*
%TD.AperFunction*%
D13*
X71502778Y-53247804D02*
X71677170Y-53364329D01*
X71502778Y-53480854D01*
X71484303Y-53499329D01*
X70747517Y-53499329D01*
X70665542Y-53417354D01*
X70491150Y-53300829D01*
X70598157Y-53229329D01*
X71484303Y-53229329D01*
X71502778Y-53247804D01*
%TA.AperFunction,NonConductor*%
D14*
G36*
X71502778Y-53247804D02*
G01*
X71677170Y-53364329D01*
X71502778Y-53480854D01*
X71484303Y-53499329D01*
X70747517Y-53499329D01*
X70665542Y-53417354D01*
X70491150Y-53300829D01*
X70598157Y-53229329D01*
X71484303Y-53229329D01*
X71502778Y-53247804D01*
G37*
%TD.AperFunction*%
D13*
X71502778Y-50707804D02*
X71677170Y-50824329D01*
X71502778Y-50940854D01*
X71484303Y-50959329D01*
X70747517Y-50959329D01*
X70665542Y-50877354D01*
X70491150Y-50760829D01*
X70598157Y-50689329D01*
X71484303Y-50689329D01*
X71502778Y-50707804D01*
%TA.AperFunction,NonConductor*%
D14*
G36*
X71502778Y-50707804D02*
G01*
X71677170Y-50824329D01*
X71502778Y-50940854D01*
X71484303Y-50959329D01*
X70747517Y-50959329D01*
X70665542Y-50877354D01*
X70491150Y-50760829D01*
X70598157Y-50689329D01*
X71484303Y-50689329D01*
X71502778Y-50707804D01*
G37*
%TD.AperFunction*%
D13*
X71502778Y-48167804D02*
X71677170Y-48284329D01*
X71502778Y-48400854D01*
X71484303Y-48419329D01*
X70747517Y-48419329D01*
X70665542Y-48337354D01*
X70491150Y-48220829D01*
X70598157Y-48149329D01*
X71484303Y-48149329D01*
X71502778Y-48167804D01*
%TA.AperFunction,NonConductor*%
D14*
G36*
X71502778Y-48167804D02*
G01*
X71677170Y-48284329D01*
X71502778Y-48400854D01*
X71484303Y-48419329D01*
X70747517Y-48419329D01*
X70665542Y-48337354D01*
X70491150Y-48220829D01*
X70598157Y-48149329D01*
X71484303Y-48149329D01*
X71502778Y-48167804D01*
G37*
%TD.AperFunction*%
D13*
X71502778Y-45627804D02*
X71677170Y-45744329D01*
X71502778Y-45860854D01*
X71484303Y-45879329D01*
X70747517Y-45879329D01*
X70665542Y-45797354D01*
X70491150Y-45680829D01*
X70598157Y-45609329D01*
X71484303Y-45609329D01*
X71502778Y-45627804D01*
%TA.AperFunction,NonConductor*%
D14*
G36*
X71502778Y-45627804D02*
G01*
X71677170Y-45744329D01*
X71502778Y-45860854D01*
X71484303Y-45879329D01*
X70747517Y-45879329D01*
X70665542Y-45797354D01*
X70491150Y-45680829D01*
X70598157Y-45609329D01*
X71484303Y-45609329D01*
X71502778Y-45627804D01*
G37*
%TD.AperFunction*%
D13*
X71502778Y-43087804D02*
X71677170Y-43204329D01*
X71502778Y-43320854D01*
X71484303Y-43339329D01*
X70747517Y-43339329D01*
X70665542Y-43257354D01*
X70491150Y-43140829D01*
X70598157Y-43069329D01*
X71484303Y-43069329D01*
X71502778Y-43087804D01*
%TA.AperFunction,NonConductor*%
D14*
G36*
X71502778Y-43087804D02*
G01*
X71677170Y-43204329D01*
X71502778Y-43320854D01*
X71484303Y-43339329D01*
X70747517Y-43339329D01*
X70665542Y-43257354D01*
X70491150Y-43140829D01*
X70598157Y-43069329D01*
X71484303Y-43069329D01*
X71502778Y-43087804D01*
G37*
%TD.AperFunction*%
D13*
X71502778Y-40547804D02*
X71677170Y-40664329D01*
X71502778Y-40780854D01*
X71484303Y-40799329D01*
X70747517Y-40799329D01*
X70665542Y-40717354D01*
X70491150Y-40600829D01*
X70598157Y-40529329D01*
X71484303Y-40529329D01*
X71502778Y-40547804D01*
%TA.AperFunction,NonConductor*%
D14*
G36*
X71502778Y-40547804D02*
G01*
X71677170Y-40664329D01*
X71502778Y-40780854D01*
X71484303Y-40799329D01*
X70747517Y-40799329D01*
X70665542Y-40717354D01*
X70491150Y-40600829D01*
X70598157Y-40529329D01*
X71484303Y-40529329D01*
X71502778Y-40547804D01*
G37*
%TD.AperFunction*%
D13*
X71502778Y-38007804D02*
X71677170Y-38124329D01*
X71502778Y-38240854D01*
X71484303Y-38259329D01*
X70747517Y-38259329D01*
X70665542Y-38177354D01*
X70491150Y-38060829D01*
X70598157Y-37989329D01*
X71484303Y-37989329D01*
X71502778Y-38007804D01*
%TA.AperFunction,NonConductor*%
D14*
G36*
X71502778Y-38007804D02*
G01*
X71677170Y-38124329D01*
X71502778Y-38240854D01*
X71484303Y-38259329D01*
X70747517Y-38259329D01*
X70665542Y-38177354D01*
X70491150Y-38060829D01*
X70598157Y-37989329D01*
X71484303Y-37989329D01*
X71502778Y-38007804D01*
G37*
%TD.AperFunction*%
D13*
X71502778Y-35467804D02*
X71677170Y-35584329D01*
X71502778Y-35700854D01*
X71484303Y-35719329D01*
X70747517Y-35719329D01*
X70740530Y-35712342D01*
X70813090Y-35690331D01*
X70923404Y-35631366D01*
X71020095Y-35552014D01*
X71099447Y-35455323D01*
X71102651Y-35449329D01*
X71484303Y-35449329D01*
X71502778Y-35467804D01*
%TA.AperFunction,NonConductor*%
D14*
G36*
X71502778Y-35467804D02*
G01*
X71677170Y-35584329D01*
X71502778Y-35700854D01*
X71484303Y-35719329D01*
X70747517Y-35719329D01*
X70740530Y-35712342D01*
X70813090Y-35690331D01*
X70923404Y-35631366D01*
X71020095Y-35552014D01*
X71099447Y-35455323D01*
X71102651Y-35449329D01*
X71484303Y-35449329D01*
X71502778Y-35467804D01*
G37*
%TD.AperFunction*%
M02*
