M48
; DRILL file {KiCad (5.1.8)-1} date 12/10/21 09:13:38
; FORMAT={-:-/ absolute / inch / decimal}
; #@! TF.CreationDate,2021-12-10T09:13:38+01:00
; #@! TF.GenerationSoftware,Kicad,Pcbnew,(5.1.8)-1
; #@! TF.FileFunction,Plated,1,2,PTH
FMAT,2
INCH
T1C0.0394
%
G90
G05
T1
X2.7448Y-1.3485
X2.7448Y-1.4485
X2.7448Y-1.5485
X2.7448Y-1.6485
X2.7448Y-1.7485
X2.7448Y-1.8485
X2.7448Y-1.9485
X2.7448Y-2.0485
X2.7448Y-2.1485
X2.7448Y-2.2485
X2.8523Y-1.351
X2.8523Y-1.451
X2.8523Y-1.551
X2.8523Y-1.651
X2.8523Y-1.751
X2.8523Y-1.851
X2.8523Y-1.951
X2.8523Y-2.051
X2.8523Y-2.151
X2.8523Y-2.251
T0
M30
