%TF.GenerationSoftware,KiCad,Pcbnew,(5.1.8)-1*%
%TF.CreationDate,2021-12-10T09:13:36+01:00*%
%TF.ProjectId,FirePlaceRoof,46697265-506c-4616-9365-526f6f662e6b,rev?*%
%TF.SameCoordinates,Original*%
%TF.FileFunction,Legend,Top*%
%TF.FilePolarity,Positive*%
%FSLAX46Y46*%
G04 Gerber Fmt 4.6, Leading zero omitted, Abs format (unit mm)*
G04 Created by KiCad (PCBNEW (5.1.8)-1) date 2021-12-10 09:13:36*
%MOMM*%
%LPD*%
G01*
G04 APERTURE LIST*
%ADD10C,0.120000*%
%ADD11C,0.150000*%
G04 APERTURE END LIST*
D10*
%TO.C,K2*%
X69718910Y-32920829D02*
X70828910Y-32920829D01*
X70828910Y-32920829D02*
X70828910Y-34250829D01*
X59628910Y-32920829D02*
X59628910Y-58440829D01*
X59628910Y-58440829D02*
X68258910Y-58440829D01*
X68258910Y-32920829D02*
X68258910Y-58440829D01*
X59628910Y-32920829D02*
X68258910Y-32920829D01*
X59628910Y-55840829D02*
X68258910Y-55840829D01*
X59628910Y-53300829D02*
X68258910Y-53300829D01*
X59628910Y-50760829D02*
X68258910Y-50760829D01*
X59628910Y-48220829D02*
X68258910Y-48220829D01*
X59628910Y-45680829D02*
X68258910Y-45680829D01*
X59628910Y-43140829D02*
X68258910Y-43140829D01*
X59628910Y-40600829D02*
X68258910Y-40600829D01*
X59628910Y-38060829D02*
X68258910Y-38060829D01*
X59628910Y-35520829D02*
X68258910Y-35520829D01*
X68258910Y-57470829D02*
X68668910Y-57470829D01*
X68258910Y-56750829D02*
X68668910Y-56750829D01*
X68258910Y-54930829D02*
X68668910Y-54930829D01*
X68258910Y-54210829D02*
X68668910Y-54210829D01*
X68258910Y-52390829D02*
X68668910Y-52390829D01*
X68258910Y-51670829D02*
X68668910Y-51670829D01*
X68258910Y-49850829D02*
X68668910Y-49850829D01*
X68258910Y-49130829D02*
X68668910Y-49130829D01*
X68258910Y-47310829D02*
X68668910Y-47310829D01*
X68258910Y-46590829D02*
X68668910Y-46590829D01*
X68258910Y-44770829D02*
X68668910Y-44770829D01*
X68258910Y-44050829D02*
X68668910Y-44050829D01*
X68258910Y-42230829D02*
X68668910Y-42230829D01*
X68258910Y-41510829D02*
X68668910Y-41510829D01*
X68258910Y-39690829D02*
X68668910Y-39690829D01*
X68258910Y-38970829D02*
X68668910Y-38970829D01*
X68258910Y-37150829D02*
X68668910Y-37150829D01*
X68258910Y-36430829D02*
X68668910Y-36430829D01*
X68258910Y-34610829D02*
X68608910Y-34610829D01*
X68258910Y-33890829D02*
X68608910Y-33890829D01*
X59628910Y-35402729D02*
X68258910Y-35402729D01*
X59628910Y-35284634D02*
X68258910Y-35284634D01*
X59628910Y-35166539D02*
X68258910Y-35166539D01*
X59628910Y-35048444D02*
X68258910Y-35048444D01*
X59628910Y-34930349D02*
X68258910Y-34930349D01*
X59628910Y-34812254D02*
X68258910Y-34812254D01*
X59628910Y-34694159D02*
X68258910Y-34694159D01*
X59628910Y-34576064D02*
X68258910Y-34576064D01*
X59628910Y-34457969D02*
X68258910Y-34457969D01*
X59628910Y-34339874D02*
X68258910Y-34339874D01*
X59628910Y-34221779D02*
X68258910Y-34221779D01*
X59628910Y-34103684D02*
X68258910Y-34103684D01*
X59628910Y-33985589D02*
X68258910Y-33985589D01*
X59628910Y-33867494D02*
X68258910Y-33867494D01*
X59628910Y-33749399D02*
X68258910Y-33749399D01*
X59628910Y-33631304D02*
X68258910Y-33631304D01*
X59628910Y-33513209D02*
X68258910Y-33513209D01*
X59628910Y-33395114D02*
X68258910Y-33395114D01*
X59628910Y-33277019D02*
X68258910Y-33277019D01*
X59628910Y-33158924D02*
X68258910Y-33158924D01*
X59628910Y-33040829D02*
X68258910Y-33040829D01*
%TO.C,K1*%
X72449410Y-58504329D02*
X71339410Y-58504329D01*
X71339410Y-58504329D02*
X71339410Y-57174329D01*
X82539410Y-58504329D02*
X82539410Y-32984329D01*
X82539410Y-32984329D02*
X73909410Y-32984329D01*
X73909410Y-58504329D02*
X73909410Y-32984329D01*
X82539410Y-58504329D02*
X73909410Y-58504329D01*
X82539410Y-35584329D02*
X73909410Y-35584329D01*
X82539410Y-38124329D02*
X73909410Y-38124329D01*
X82539410Y-40664329D02*
X73909410Y-40664329D01*
X82539410Y-43204329D02*
X73909410Y-43204329D01*
X82539410Y-45744329D02*
X73909410Y-45744329D01*
X82539410Y-48284329D02*
X73909410Y-48284329D01*
X82539410Y-50824329D02*
X73909410Y-50824329D01*
X82539410Y-53364329D02*
X73909410Y-53364329D01*
X82539410Y-55904329D02*
X73909410Y-55904329D01*
X73909410Y-33954329D02*
X73499410Y-33954329D01*
X73909410Y-34674329D02*
X73499410Y-34674329D01*
X73909410Y-36494329D02*
X73499410Y-36494329D01*
X73909410Y-37214329D02*
X73499410Y-37214329D01*
X73909410Y-39034329D02*
X73499410Y-39034329D01*
X73909410Y-39754329D02*
X73499410Y-39754329D01*
X73909410Y-41574329D02*
X73499410Y-41574329D01*
X73909410Y-42294329D02*
X73499410Y-42294329D01*
X73909410Y-44114329D02*
X73499410Y-44114329D01*
X73909410Y-44834329D02*
X73499410Y-44834329D01*
X73909410Y-46654329D02*
X73499410Y-46654329D01*
X73909410Y-47374329D02*
X73499410Y-47374329D01*
X73909410Y-49194329D02*
X73499410Y-49194329D01*
X73909410Y-49914329D02*
X73499410Y-49914329D01*
X73909410Y-51734329D02*
X73499410Y-51734329D01*
X73909410Y-52454329D02*
X73499410Y-52454329D01*
X73909410Y-54274329D02*
X73499410Y-54274329D01*
X73909410Y-54994329D02*
X73499410Y-54994329D01*
X73909410Y-56814329D02*
X73559410Y-56814329D01*
X73909410Y-57534329D02*
X73559410Y-57534329D01*
X82539410Y-56022429D02*
X73909410Y-56022429D01*
X82539410Y-56140524D02*
X73909410Y-56140524D01*
X82539410Y-56258619D02*
X73909410Y-56258619D01*
X82539410Y-56376714D02*
X73909410Y-56376714D01*
X82539410Y-56494809D02*
X73909410Y-56494809D01*
X82539410Y-56612904D02*
X73909410Y-56612904D01*
X82539410Y-56730999D02*
X73909410Y-56730999D01*
X82539410Y-56849094D02*
X73909410Y-56849094D01*
X82539410Y-56967189D02*
X73909410Y-56967189D01*
X82539410Y-57085284D02*
X73909410Y-57085284D01*
X82539410Y-57203379D02*
X73909410Y-57203379D01*
X82539410Y-57321474D02*
X73909410Y-57321474D01*
X82539410Y-57439569D02*
X73909410Y-57439569D01*
X82539410Y-57557664D02*
X73909410Y-57557664D01*
X82539410Y-57675759D02*
X73909410Y-57675759D01*
X82539410Y-57793854D02*
X73909410Y-57793854D01*
X82539410Y-57911949D02*
X73909410Y-57911949D01*
X82539410Y-58030044D02*
X73909410Y-58030044D01*
X82539410Y-58148139D02*
X73909410Y-58148139D01*
X82539410Y-58266234D02*
X73909410Y-58266234D01*
X82539410Y-58384329D02*
X73909410Y-58384329D01*
%TO.C,K2*%
D11*
X69917290Y-60579424D02*
X68917290Y-60579424D01*
X69917290Y-60007995D02*
X69345862Y-60436567D01*
X68917290Y-60007995D02*
X69488719Y-60579424D01*
X69012529Y-59627043D02*
X68964910Y-59579424D01*
X68917290Y-59484186D01*
X68917290Y-59246090D01*
X68964910Y-59150852D01*
X69012529Y-59103233D01*
X69107767Y-59055614D01*
X69203005Y-59055614D01*
X69345862Y-59103233D01*
X69917290Y-59674662D01*
X69917290Y-59055614D01*
%TO.C,K1*%
X72139790Y-60452424D02*
X71139790Y-60452424D01*
X72139790Y-59880995D02*
X71568362Y-60309567D01*
X71139790Y-59880995D02*
X71711219Y-60452424D01*
X72139790Y-58928614D02*
X72139790Y-59500043D01*
X72139790Y-59214329D02*
X71139790Y-59214329D01*
X71282648Y-59309567D01*
X71377886Y-59404805D01*
X71425505Y-59500043D01*
%TD*%
M02*
