%TF.GenerationSoftware,KiCad,Pcbnew,(5.1.8)-1*%
%TF.CreationDate,2021-12-10T09:16:29+01:00*%
%TF.ProjectId,FirePlaceSideA,46697265-506c-4616-9365-53696465412e,rev?*%
%TF.SameCoordinates,Original*%
%TF.FileFunction,Copper,L1,Top*%
%TF.FilePolarity,Positive*%
%FSLAX46Y46*%
G04 Gerber Fmt 4.6, Leading zero omitted, Abs format (unit mm)*
G04 Created by KiCad (PCBNEW (5.1.8)-1) date 2021-12-10 09:16:29*
%MOMM*%
%LPD*%
G01*
G04 APERTURE LIST*
%TA.AperFunction,NonConductor*%
%ADD10C,0.254000*%
%TD*%
%TA.AperFunction,NonConductor*%
%ADD11C,0.100000*%
%TD*%
G04 APERTURE END LIST*
D10*
X83847001Y-30528600D02*
X78890600Y-30528600D01*
X78890600Y-24299705D01*
X78894156Y-24263600D01*
X78879965Y-24119515D01*
X78837937Y-23980967D01*
X78769687Y-23853280D01*
X78677838Y-23741362D01*
X78565920Y-23649513D01*
X78438233Y-23581263D01*
X78299685Y-23539235D01*
X78191705Y-23528600D01*
X78155600Y-23525044D01*
X78119495Y-23528600D01*
X75220105Y-23528600D01*
X75184000Y-23525044D01*
X75147895Y-23528600D01*
X75039915Y-23539235D01*
X74901367Y-23581263D01*
X74773680Y-23649513D01*
X74661762Y-23741362D01*
X74569913Y-23853280D01*
X74501663Y-23980967D01*
X74459635Y-24119515D01*
X74445444Y-24263600D01*
X74449000Y-24299705D01*
X74449001Y-30528600D01*
X30119000Y-30528600D01*
X30119000Y-24299705D01*
X30122556Y-24263600D01*
X30108365Y-24119515D01*
X30066337Y-23980967D01*
X29998087Y-23853280D01*
X29906238Y-23741362D01*
X29794320Y-23649513D01*
X29666633Y-23581263D01*
X29528085Y-23539235D01*
X29420105Y-23528600D01*
X29384000Y-23525044D01*
X29347895Y-23528600D01*
X26448505Y-23528600D01*
X26412400Y-23525044D01*
X26376295Y-23528600D01*
X26268315Y-23539235D01*
X26129767Y-23581263D01*
X26002080Y-23649513D01*
X25890162Y-23741362D01*
X25798313Y-23853280D01*
X25730063Y-23980967D01*
X25688035Y-24119515D01*
X25673844Y-24263600D01*
X25677401Y-24299715D01*
X25677400Y-30507000D01*
X20801000Y-30507000D01*
X20801000Y-18598600D01*
X83847000Y-18598600D01*
X83847001Y-30528600D01*
%TA.AperFunction,NonConductor*%
D11*
G36*
X83847001Y-30528600D02*
G01*
X78890600Y-30528600D01*
X78890600Y-24299705D01*
X78894156Y-24263600D01*
X78879965Y-24119515D01*
X78837937Y-23980967D01*
X78769687Y-23853280D01*
X78677838Y-23741362D01*
X78565920Y-23649513D01*
X78438233Y-23581263D01*
X78299685Y-23539235D01*
X78191705Y-23528600D01*
X78155600Y-23525044D01*
X78119495Y-23528600D01*
X75220105Y-23528600D01*
X75184000Y-23525044D01*
X75147895Y-23528600D01*
X75039915Y-23539235D01*
X74901367Y-23581263D01*
X74773680Y-23649513D01*
X74661762Y-23741362D01*
X74569913Y-23853280D01*
X74501663Y-23980967D01*
X74459635Y-24119515D01*
X74445444Y-24263600D01*
X74449000Y-24299705D01*
X74449001Y-30528600D01*
X30119000Y-30528600D01*
X30119000Y-24299705D01*
X30122556Y-24263600D01*
X30108365Y-24119515D01*
X30066337Y-23980967D01*
X29998087Y-23853280D01*
X29906238Y-23741362D01*
X29794320Y-23649513D01*
X29666633Y-23581263D01*
X29528085Y-23539235D01*
X29420105Y-23528600D01*
X29384000Y-23525044D01*
X29347895Y-23528600D01*
X26448505Y-23528600D01*
X26412400Y-23525044D01*
X26376295Y-23528600D01*
X26268315Y-23539235D01*
X26129767Y-23581263D01*
X26002080Y-23649513D01*
X25890162Y-23741362D01*
X25798313Y-23853280D01*
X25730063Y-23980967D01*
X25688035Y-24119515D01*
X25673844Y-24263600D01*
X25677401Y-24299715D01*
X25677400Y-30507000D01*
X20801000Y-30507000D01*
X20801000Y-18598600D01*
X83847000Y-18598600D01*
X83847001Y-30528600D01*
G37*
%TD.AperFunction*%
M02*
